<?xml version="1.0" encoding="utf-8" standalone="no"?>
<!DOCTYPE svg PUBLIC "-//W3C//DTD SVG 1.1//EN"
  "http://www.w3.org/Graphics/SVG/1.1/DTD/svg11.dtd">
<!-- Created with matplotlib (https://matplotlib.org/) -->
<svg height="504pt" version="1.1" viewBox="0 0 720 504" width="720pt" xmlns="http://www.w3.org/2000/svg" xmlns:xlink="http://www.w3.org/1999/xlink">
 <metadata>
  <rdf:RDF xmlns:cc="http://creativecommons.org/ns#" xmlns:dc="http://purl.org/dc/elements/1.1/" xmlns:rdf="http://www.w3.org/1999/02/22-rdf-syntax-ns#">
   <cc:Work>
    <dc:type rdf:resource="http://purl.org/dc/dcmitype/StillImage"/>
    <dc:date>2021-08-10T14:17:38.305724</dc:date>
    <dc:format>image/svg+xml</dc:format>
    <dc:creator>
     <cc:Agent>
      <dc:title>Matplotlib v3.3.2, https://matplotlib.org/</dc:title>
     </cc:Agent>
    </dc:creator>
   </cc:Work>
  </rdf:RDF>
 </metadata>
 <defs>
  <style type="text/css">*{stroke-linecap:butt;stroke-linejoin:round;}</style>
 </defs>
 <g id="figure_1">
  <g id="patch_1">
   <path d="M 0 504 
L 720 504 
L 720 0 
L 0 0 
z
" style="fill:#ffffff;"/>
  </g>
  <g id="axes_1">
   <g id="patch_2">
    <path d="M 90 441 
L 648 441 
L 648 60.48 
L 90 60.48 
z
" style="fill:#ffffff;"/>
   </g>
   <g id="matplotlib.axis_1">
    <g id="xtick_1">
     <g id="line2d_1">
      <defs>
       <path d="M 0 0 
L 0 10 
" id="m9370289f92" style="stroke:#000000;stroke-width:1.5;"/>
      </defs>
      <g>
       <use style="stroke:#000000;stroke-width:1.5;" x="110.239669" xlink:href="#m9370289f92" y="441"/>
      </g>
     </g>
     <g id="text_1">
      <!-- 0 -->
      <g transform="translate(105.149669 466.6575)scale(0.16 -0.16)">
       <defs>
        <path d="M 31.78125 66.40625 
Q 24.171875 66.40625 20.328125 58.90625 
Q 16.5 51.421875 16.5 36.375 
Q 16.5 21.390625 20.328125 13.890625 
Q 24.171875 6.390625 31.78125 6.390625 
Q 39.453125 6.390625 43.28125 13.890625 
Q 47.125 21.390625 47.125 36.375 
Q 47.125 51.421875 43.28125 58.90625 
Q 39.453125 66.40625 31.78125 66.40625 
z
M 31.78125 74.21875 
Q 44.046875 74.21875 50.515625 64.515625 
Q 56.984375 54.828125 56.984375 36.375 
Q 56.984375 17.96875 50.515625 8.265625 
Q 44.046875 -1.421875 31.78125 -1.421875 
Q 19.53125 -1.421875 13.0625 8.265625 
Q 6.59375 17.96875 6.59375 36.375 
Q 6.59375 54.828125 13.0625 64.515625 
Q 19.53125 74.21875 31.78125 74.21875 
z
" id="DejaVuSans-48"/>
       </defs>
       <use xlink:href="#DejaVuSans-48"/>
      </g>
     </g>
    </g>
    <g id="xtick_2">
     <g id="line2d_2">
      <g>
       <use style="stroke:#000000;stroke-width:1.5;" x="212.719008" xlink:href="#m9370289f92" y="441"/>
      </g>
     </g>
     <g id="text_2">
      <!-- 200 -->
      <g transform="translate(197.449008 466.6575)scale(0.16 -0.16)">
       <defs>
        <path d="M 19.1875 8.296875 
L 53.609375 8.296875 
L 53.609375 0 
L 7.328125 0 
L 7.328125 8.296875 
Q 12.9375 14.109375 22.625 23.890625 
Q 32.328125 33.6875 34.8125 36.53125 
Q 39.546875 41.84375 41.421875 45.53125 
Q 43.3125 49.21875 43.3125 52.78125 
Q 43.3125 58.59375 39.234375 62.25 
Q 35.15625 65.921875 28.609375 65.921875 
Q 23.96875 65.921875 18.8125 64.3125 
Q 13.671875 62.703125 7.8125 59.421875 
L 7.8125 69.390625 
Q 13.765625 71.78125 18.9375 73 
Q 24.125 74.21875 28.421875 74.21875 
Q 39.75 74.21875 46.484375 68.546875 
Q 53.21875 62.890625 53.21875 53.421875 
Q 53.21875 48.921875 51.53125 44.890625 
Q 49.859375 40.875 45.40625 35.40625 
Q 44.1875 33.984375 37.640625 27.21875 
Q 31.109375 20.453125 19.1875 8.296875 
z
" id="DejaVuSans-50"/>
       </defs>
       <use xlink:href="#DejaVuSans-50"/>
       <use x="63.623047" xlink:href="#DejaVuSans-48"/>
       <use x="127.246094" xlink:href="#DejaVuSans-48"/>
      </g>
     </g>
    </g>
    <g id="xtick_3">
     <g id="line2d_3">
      <g>
       <use style="stroke:#000000;stroke-width:1.5;" x="315.198347" xlink:href="#m9370289f92" y="441"/>
      </g>
     </g>
     <g id="text_3">
      <!-- 400 -->
      <g transform="translate(299.928347 466.6575)scale(0.16 -0.16)">
       <defs>
        <path d="M 37.796875 64.3125 
L 12.890625 25.390625 
L 37.796875 25.390625 
z
M 35.203125 72.90625 
L 47.609375 72.90625 
L 47.609375 25.390625 
L 58.015625 25.390625 
L 58.015625 17.1875 
L 47.609375 17.1875 
L 47.609375 0 
L 37.796875 0 
L 37.796875 17.1875 
L 4.890625 17.1875 
L 4.890625 26.703125 
z
" id="DejaVuSans-52"/>
       </defs>
       <use xlink:href="#DejaVuSans-52"/>
       <use x="63.623047" xlink:href="#DejaVuSans-48"/>
       <use x="127.246094" xlink:href="#DejaVuSans-48"/>
      </g>
     </g>
    </g>
    <g id="xtick_4">
     <g id="line2d_4">
      <g>
       <use style="stroke:#000000;stroke-width:1.5;" x="417.677686" xlink:href="#m9370289f92" y="441"/>
      </g>
     </g>
     <g id="text_4">
      <!-- 600 -->
      <g transform="translate(402.407686 466.6575)scale(0.16 -0.16)">
       <defs>
        <path d="M 33.015625 40.375 
Q 26.375 40.375 22.484375 35.828125 
Q 18.609375 31.296875 18.609375 23.390625 
Q 18.609375 15.53125 22.484375 10.953125 
Q 26.375 6.390625 33.015625 6.390625 
Q 39.65625 6.390625 43.53125 10.953125 
Q 47.40625 15.53125 47.40625 23.390625 
Q 47.40625 31.296875 43.53125 35.828125 
Q 39.65625 40.375 33.015625 40.375 
z
M 52.59375 71.296875 
L 52.59375 62.3125 
Q 48.875 64.0625 45.09375 64.984375 
Q 41.3125 65.921875 37.59375 65.921875 
Q 27.828125 65.921875 22.671875 59.328125 
Q 17.53125 52.734375 16.796875 39.40625 
Q 19.671875 43.65625 24.015625 45.921875 
Q 28.375 48.1875 33.59375 48.1875 
Q 44.578125 48.1875 50.953125 41.515625 
Q 57.328125 34.859375 57.328125 23.390625 
Q 57.328125 12.15625 50.6875 5.359375 
Q 44.046875 -1.421875 33.015625 -1.421875 
Q 20.359375 -1.421875 13.671875 8.265625 
Q 6.984375 17.96875 6.984375 36.375 
Q 6.984375 53.65625 15.1875 63.9375 
Q 23.390625 74.21875 37.203125 74.21875 
Q 40.921875 74.21875 44.703125 73.484375 
Q 48.484375 72.75 52.59375 71.296875 
z
" id="DejaVuSans-54"/>
       </defs>
       <use xlink:href="#DejaVuSans-54"/>
       <use x="63.623047" xlink:href="#DejaVuSans-48"/>
       <use x="127.246094" xlink:href="#DejaVuSans-48"/>
      </g>
     </g>
    </g>
    <g id="xtick_5">
     <g id="line2d_5">
      <g>
       <use style="stroke:#000000;stroke-width:1.5;" x="520.157025" xlink:href="#m9370289f92" y="441"/>
      </g>
     </g>
     <g id="text_5">
      <!-- 800 -->
      <g transform="translate(504.887025 466.6575)scale(0.16 -0.16)">
       <defs>
        <path d="M 31.78125 34.625 
Q 24.75 34.625 20.71875 30.859375 
Q 16.703125 27.09375 16.703125 20.515625 
Q 16.703125 13.921875 20.71875 10.15625 
Q 24.75 6.390625 31.78125 6.390625 
Q 38.8125 6.390625 42.859375 10.171875 
Q 46.921875 13.96875 46.921875 20.515625 
Q 46.921875 27.09375 42.890625 30.859375 
Q 38.875 34.625 31.78125 34.625 
z
M 21.921875 38.8125 
Q 15.578125 40.375 12.03125 44.71875 
Q 8.5 49.078125 8.5 55.328125 
Q 8.5 64.0625 14.71875 69.140625 
Q 20.953125 74.21875 31.78125 74.21875 
Q 42.671875 74.21875 48.875 69.140625 
Q 55.078125 64.0625 55.078125 55.328125 
Q 55.078125 49.078125 51.53125 44.71875 
Q 48 40.375 41.703125 38.8125 
Q 48.828125 37.15625 52.796875 32.3125 
Q 56.78125 27.484375 56.78125 20.515625 
Q 56.78125 9.90625 50.3125 4.234375 
Q 43.84375 -1.421875 31.78125 -1.421875 
Q 19.734375 -1.421875 13.25 4.234375 
Q 6.78125 9.90625 6.78125 20.515625 
Q 6.78125 27.484375 10.78125 32.3125 
Q 14.796875 37.15625 21.921875 38.8125 
z
M 18.3125 54.390625 
Q 18.3125 48.734375 21.84375 45.5625 
Q 25.390625 42.390625 31.78125 42.390625 
Q 38.140625 42.390625 41.71875 45.5625 
Q 45.3125 48.734375 45.3125 54.390625 
Q 45.3125 60.0625 41.71875 63.234375 
Q 38.140625 66.40625 31.78125 66.40625 
Q 25.390625 66.40625 21.84375 63.234375 
Q 18.3125 60.0625 18.3125 54.390625 
z
" id="DejaVuSans-56"/>
       </defs>
       <use xlink:href="#DejaVuSans-56"/>
       <use x="63.623047" xlink:href="#DejaVuSans-48"/>
       <use x="127.246094" xlink:href="#DejaVuSans-48"/>
      </g>
     </g>
    </g>
    <g id="xtick_6">
     <g id="line2d_6">
      <g>
       <use style="stroke:#000000;stroke-width:1.5;" x="622.636364" xlink:href="#m9370289f92" y="441"/>
      </g>
     </g>
     <g id="text_6">
      <!-- 1000 -->
      <g transform="translate(602.276364 466.6575)scale(0.16 -0.16)">
       <defs>
        <path d="M 12.40625 8.296875 
L 28.515625 8.296875 
L 28.515625 63.921875 
L 10.984375 60.40625 
L 10.984375 69.390625 
L 28.421875 72.90625 
L 38.28125 72.90625 
L 38.28125 8.296875 
L 54.390625 8.296875 
L 54.390625 0 
L 12.40625 0 
z
" id="DejaVuSans-49"/>
       </defs>
       <use xlink:href="#DejaVuSans-49"/>
       <use x="63.623047" xlink:href="#DejaVuSans-48"/>
       <use x="127.246094" xlink:href="#DejaVuSans-48"/>
       <use x="190.869141" xlink:href="#DejaVuSans-48"/>
      </g>
     </g>
    </g>
    <g id="text_7">
     <!-- $T [K]$ -->
     <g transform="translate(352.6 486.1425)scale(0.16 -0.16)">
      <defs>
       <path d="M 5.90625 72.90625 
L 67.578125 72.90625 
L 66.015625 64.59375 
L 39.984375 64.59375 
L 27.484375 0 
L 17.578125 0 
L 30.078125 64.59375 
L 4.296875 64.59375 
z
" id="DejaVuSans-Oblique-84"/>
       <path d="M 8.59375 75.984375 
L 29.296875 75.984375 
L 29.296875 69 
L 17.578125 69 
L 17.578125 -6.203125 
L 29.296875 -6.203125 
L 29.296875 -13.1875 
L 8.59375 -13.1875 
z
" id="DejaVuSans-91"/>
       <path d="M 16.890625 72.90625 
L 26.8125 72.90625 
L 20.796875 42.1875 
L 59.078125 72.90625 
L 72.21875 72.90625 
L 28.90625 38.09375 
L 60.59375 0 
L 48.578125 0 
L 19.484375 35.5 
L 12.59375 0 
L 2.6875 0 
z
" id="DejaVuSans-Oblique-75"/>
       <path d="M 30.421875 75.984375 
L 30.421875 -13.1875 
L 9.71875 -13.1875 
L 9.71875 -6.203125 
L 21.390625 -6.203125 
L 21.390625 69 
L 9.71875 69 
L 9.71875 75.984375 
z
" id="DejaVuSans-93"/>
      </defs>
      <use transform="translate(0 0.015625)" xlink:href="#DejaVuSans-Oblique-84"/>
      <use transform="translate(61.083984 0.015625)" xlink:href="#DejaVuSans-91"/>
      <use transform="translate(100.097656 0.015625)" xlink:href="#DejaVuSans-Oblique-75"/>
      <use transform="translate(165.673828 0.015625)" xlink:href="#DejaVuSans-93"/>
     </g>
    </g>
   </g>
   <g id="matplotlib.axis_2">
    <g id="ytick_1">
     <g id="line2d_7">
      <defs>
       <path d="M 0 0 
L -10 0 
" id="m3b5f731b02" style="stroke:#000000;stroke-width:1.5;"/>
      </defs>
      <g>
       <use style="stroke:#000000;stroke-width:1.5;" x="90" xlink:href="#m3b5f731b02" y="423.703636"/>
      </g>
     </g>
     <g id="text_8">
      <!-- 0.0 -->
      <g transform="translate(51.055 429.782386)scale(0.16 -0.16)">
       <defs>
        <path d="M 10.6875 12.40625 
L 21 12.40625 
L 21 0 
L 10.6875 0 
z
" id="DejaVuSans-46"/>
       </defs>
       <use xlink:href="#DejaVuSans-48"/>
       <use x="63.623047" xlink:href="#DejaVuSans-46"/>
       <use x="95.410156" xlink:href="#DejaVuSans-48"/>
      </g>
     </g>
    </g>
    <g id="ytick_2">
     <g id="line2d_8">
      <g>
       <use style="stroke:#000000;stroke-width:1.5;" x="90" xlink:href="#m3b5f731b02" y="365.93688"/>
      </g>
     </g>
     <g id="text_9">
      <!-- 0.5 -->
      <g transform="translate(51.055 372.01563)scale(0.16 -0.16)">
       <defs>
        <path d="M 10.796875 72.90625 
L 49.515625 72.90625 
L 49.515625 64.59375 
L 19.828125 64.59375 
L 19.828125 46.734375 
Q 21.96875 47.46875 24.109375 47.828125 
Q 26.265625 48.1875 28.421875 48.1875 
Q 40.625 48.1875 47.75 41.5 
Q 54.890625 34.8125 54.890625 23.390625 
Q 54.890625 11.625 47.5625 5.09375 
Q 40.234375 -1.421875 26.90625 -1.421875 
Q 22.3125 -1.421875 17.546875 -0.640625 
Q 12.796875 0.140625 7.71875 1.703125 
L 7.71875 11.625 
Q 12.109375 9.234375 16.796875 8.0625 
Q 21.484375 6.890625 26.703125 6.890625 
Q 35.15625 6.890625 40.078125 11.328125 
Q 45.015625 15.765625 45.015625 23.390625 
Q 45.015625 31 40.078125 35.4375 
Q 35.15625 39.890625 26.703125 39.890625 
Q 22.75 39.890625 18.8125 39.015625 
Q 14.890625 38.140625 10.796875 36.28125 
z
" id="DejaVuSans-53"/>
       </defs>
       <use xlink:href="#DejaVuSans-48"/>
       <use x="63.623047" xlink:href="#DejaVuSans-46"/>
       <use x="95.410156" xlink:href="#DejaVuSans-53"/>
      </g>
     </g>
    </g>
    <g id="ytick_3">
     <g id="line2d_9">
      <g>
       <use style="stroke:#000000;stroke-width:1.5;" x="90" xlink:href="#m3b5f731b02" y="308.170123"/>
      </g>
     </g>
     <g id="text_10">
      <!-- 1.0 -->
      <g transform="translate(51.055 314.248873)scale(0.16 -0.16)">
       <use xlink:href="#DejaVuSans-49"/>
       <use x="63.623047" xlink:href="#DejaVuSans-46"/>
       <use x="95.410156" xlink:href="#DejaVuSans-48"/>
      </g>
     </g>
    </g>
    <g id="ytick_4">
     <g id="line2d_10">
      <g>
       <use style="stroke:#000000;stroke-width:1.5;" x="90" xlink:href="#m3b5f731b02" y="250.403367"/>
      </g>
     </g>
     <g id="text_11">
      <!-- 1.5 -->
      <g transform="translate(51.055 256.482117)scale(0.16 -0.16)">
       <use xlink:href="#DejaVuSans-49"/>
       <use x="63.623047" xlink:href="#DejaVuSans-46"/>
       <use x="95.410156" xlink:href="#DejaVuSans-53"/>
      </g>
     </g>
    </g>
    <g id="ytick_5">
     <g id="line2d_11">
      <g>
       <use style="stroke:#000000;stroke-width:1.5;" x="90" xlink:href="#m3b5f731b02" y="192.63661"/>
      </g>
     </g>
     <g id="text_12">
      <!-- 2.0 -->
      <g transform="translate(51.055 198.71536)scale(0.16 -0.16)">
       <use xlink:href="#DejaVuSans-50"/>
       <use x="63.623047" xlink:href="#DejaVuSans-46"/>
       <use x="95.410156" xlink:href="#DejaVuSans-48"/>
      </g>
     </g>
    </g>
    <g id="ytick_6">
     <g id="line2d_12">
      <g>
       <use style="stroke:#000000;stroke-width:1.5;" x="90" xlink:href="#m3b5f731b02" y="134.869853"/>
      </g>
     </g>
     <g id="text_13">
      <!-- 2.5 -->
      <g transform="translate(51.055 140.948603)scale(0.16 -0.16)">
       <use xlink:href="#DejaVuSans-50"/>
       <use x="63.623047" xlink:href="#DejaVuSans-46"/>
       <use x="95.410156" xlink:href="#DejaVuSans-53"/>
      </g>
     </g>
    </g>
    <g id="ytick_7">
     <g id="line2d_13">
      <g>
       <use style="stroke:#000000;stroke-width:1.5;" x="90" xlink:href="#m3b5f731b02" y="77.103097"/>
      </g>
     </g>
     <g id="text_14">
      <!-- 3.0 -->
      <g transform="translate(51.055 83.181847)scale(0.16 -0.16)">
       <defs>
        <path d="M 40.578125 39.3125 
Q 47.65625 37.796875 51.625 33 
Q 55.609375 28.21875 55.609375 21.1875 
Q 55.609375 10.40625 48.1875 4.484375 
Q 40.765625 -1.421875 27.09375 -1.421875 
Q 22.515625 -1.421875 17.65625 -0.515625 
Q 12.796875 0.390625 7.625 2.203125 
L 7.625 11.71875 
Q 11.71875 9.328125 16.59375 8.109375 
Q 21.484375 6.890625 26.8125 6.890625 
Q 36.078125 6.890625 40.9375 10.546875 
Q 45.796875 14.203125 45.796875 21.1875 
Q 45.796875 27.640625 41.28125 31.265625 
Q 36.765625 34.90625 28.71875 34.90625 
L 20.21875 34.90625 
L 20.21875 43.015625 
L 29.109375 43.015625 
Q 36.375 43.015625 40.234375 45.921875 
Q 44.09375 48.828125 44.09375 54.296875 
Q 44.09375 59.90625 40.109375 62.90625 
Q 36.140625 65.921875 28.71875 65.921875 
Q 24.65625 65.921875 20.015625 65.03125 
Q 15.375 64.15625 9.8125 62.3125 
L 9.8125 71.09375 
Q 15.4375 72.65625 20.34375 73.4375 
Q 25.25 74.21875 29.59375 74.21875 
Q 40.828125 74.21875 47.359375 69.109375 
Q 53.90625 64.015625 53.90625 55.328125 
Q 53.90625 49.265625 50.4375 45.09375 
Q 46.96875 40.921875 40.578125 39.3125 
z
" id="DejaVuSans-51"/>
       </defs>
       <use xlink:href="#DejaVuSans-51"/>
       <use x="63.623047" xlink:href="#DejaVuSans-46"/>
       <use x="95.410156" xlink:href="#DejaVuSans-48"/>
      </g>
     </g>
    </g>
    <g id="text_15">
     <!-- $C/k_B$ -->
     <g transform="translate(43.7275 267.78)rotate(-90)scale(0.16 -0.16)">
      <defs>
       <path d="M 69.484375 67.28125 
L 67.484375 56.890625 
Q 62.796875 61.625 57.546875 63.921875 
Q 52.296875 66.21875 46.1875 66.21875 
Q 37.84375 66.21875 31.515625 62.203125 
Q 25.203125 58.203125 20.609375 50 
Q 17.671875 44.734375 16.125 38.84375 
Q 14.59375 32.953125 14.59375 27 
Q 14.59375 17.046875 19.75 11.8125 
Q 24.90625 6.59375 34.71875 6.59375 
Q 41.5 6.59375 47.75 8.765625 
Q 54 10.9375 59.90625 15.28125 
L 57.625 3.609375 
Q 51.8125 1.125 45.875 -0.140625 
Q 39.9375 -1.421875 33.984375 -1.421875 
Q 19.96875 -1.421875 12.078125 6.1875 
Q 4.203125 13.8125 4.203125 27.390625 
Q 4.203125 36.078125 7.203125 44.46875 
Q 10.203125 52.875 15.828125 59.8125 
Q 21.78125 67.1875 29.421875 70.703125 
Q 37.0625 74.21875 47.21875 74.21875 
Q 53.46875 74.21875 59.0625 72.484375 
Q 64.65625 70.75 69.484375 67.28125 
z
" id="DejaVuSans-Oblique-67"/>
       <path d="M 25.390625 72.90625 
L 33.6875 72.90625 
L 8.296875 -9.28125 
L 0 -9.28125 
z
" id="DejaVuSans-47"/>
       <path d="M 18.3125 75.984375 
L 27.296875 75.984375 
L 18.703125 31.6875 
L 49.515625 54.6875 
L 61.1875 54.6875 
L 26.8125 28.515625 
L 51.90625 0 
L 41.015625 0 
L 17.671875 26.703125 
L 12.5 0 
L 3.515625 0 
z
" id="DejaVuSans-Oblique-107"/>
       <path d="M 16.890625 72.90625 
L 42.09375 72.90625 
Q 52.34375 72.90625 57.421875 69.09375 
Q 62.5 65.28125 62.5 57.625 
Q 62.5 50.59375 58.125 45.484375 
Q 53.765625 40.375 46.6875 39.3125 
Q 52.734375 37.9375 55.765625 34.078125 
Q 58.796875 30.21875 58.796875 23.78125 
Q 58.796875 12.796875 50.65625 6.390625 
Q 42.53125 0 28.421875 0 
L 2.6875 0 
z
M 19.28125 34.8125 
L 14.109375 8.109375 
L 29.984375 8.109375 
Q 38.921875 8.109375 43.75 12.203125 
Q 48.578125 16.3125 48.578125 23.78125 
Q 48.578125 29.546875 45.375 32.171875 
Q 42.1875 34.8125 35.109375 34.8125 
z
M 25.09375 64.796875 
L 20.796875 42.828125 
L 35.5 42.828125 
Q 43.359375 42.828125 47.78125 46.234375 
Q 52.203125 49.65625 52.203125 55.71875 
Q 52.203125 60.453125 49.21875 62.625 
Q 46.234375 64.796875 39.703125 64.796875 
z
" id="DejaVuSans-Oblique-66"/>
      </defs>
      <use transform="translate(0 0.015625)" xlink:href="#DejaVuSans-Oblique-67"/>
      <use transform="translate(69.824219 0.015625)" xlink:href="#DejaVuSans-47"/>
      <use transform="translate(103.515625 0.015625)" xlink:href="#DejaVuSans-Oblique-107"/>
      <use transform="translate(161.425781 -16.390625)scale(0.7)" xlink:href="#DejaVuSans-Oblique-66"/>
     </g>
    </g>
   </g>
   <g id="line2d_14">
    <path clip-path="url(#p4cc405829a)" d="M 115.363636 423.68487 
L 117.912746 422.364669 
L 120.461855 414.091662 
L 123.010964 395.213615 
L 125.560073 368.383738 
L 130.658291 308.587886 
L 133.207401 281.150295 
L 135.75651 256.760543 
L 138.305619 235.515053 
L 140.854728 217.195133 
L 143.403837 201.462805 
L 145.952947 187.959276 
L 148.502056 176.349277 
L 151.051165 166.337544 
L 153.600274 157.671914 
L 156.149383 150.140521 
L 158.698492 143.566829 
L 161.247602 137.804264 
L 163.796711 132.731201 
L 166.34582 128.246593 
L 168.894929 124.266286 
L 171.444038 120.719975 
L 173.993148 117.548712 
L 176.542257 114.702882 
L 179.091366 112.140556 
L 181.640475 109.826159 
L 184.189584 107.729387 
L 186.738693 105.824321 
L 189.287803 104.088708 
L 191.836912 102.503371 
L 196.93513 99.719361 
L 202.033349 97.363928 
L 207.131567 95.354389 
L 212.229785 93.626862 
L 217.328004 92.131416 
L 222.426222 90.828603 
L 230.07355 89.168438 
L 237.720877 87.790499 
L 245.368205 86.634601 
L 255.564641 85.362577 
L 265.761078 84.328224 
L 278.506624 83.286456 
L 293.801279 82.307903 
L 311.645043 81.433133 
L 332.037917 80.678216 
L 357.529009 79.982637 
L 388.118319 79.385934 
L 426.354957 78.868668 
L 477.33714 78.413355 
L 546.163088 78.03289 
L 622.636364 77.776364 
L 622.636364 77.776364 
" style="fill:none;stroke:#1f77b4;stroke-linecap:square;stroke-width:1.5;"/>
   </g>
   <g id="line2d_15">
    <path clip-path="url(#p4cc405829a)" d="M 115.363636 423.703636 
L 128.109182 423.657521 
L 130.658291 423.494758 
L 133.207401 423.045587 
L 135.75651 422.091433 
L 138.305619 420.407288 
L 140.854728 417.809683 
L 143.403837 414.186338 
L 145.952947 409.504106 
L 148.502056 403.80068 
L 151.051165 397.167785 
L 153.600274 389.732191 
L 156.149383 381.638471 
L 161.247602 364.065725 
L 179.091366 300.044551 
L 184.189584 283.340514 
L 189.287803 267.791816 
L 194.386021 253.44657 
L 199.484239 240.290155 
L 204.582458 228.270234 
L 209.680676 217.313839 
L 214.778894 207.338607 
L 219.877113 198.25989 
L 224.975331 189.995072 
L 230.07355 182.466022 
L 235.171768 175.600344 
L 240.269986 169.331867 
L 245.368205 163.600665 
L 250.466423 158.352811 
L 255.564641 153.539978 
L 260.66286 149.118977 
L 265.761078 145.05127 
L 270.859296 141.302499 
L 275.957515 137.842039 
L 281.055733 134.642583 
L 286.153952 131.679769 
L 291.25217 128.931844 
L 296.350388 126.379363 
L 301.448607 124.004921 
L 309.095934 120.74341 
L 316.743262 117.80169 
L 324.390589 115.140458 
L 332.037917 112.726078 
L 339.685244 110.529662 
L 347.332572 108.52632 
L 357.529009 106.118754 
L 367.725445 103.973164 
L 377.921882 102.053501 
L 388.118319 100.329599 
L 400.863865 98.411745 
L 413.609411 96.719284 
L 428.904066 94.938993 
L 444.198721 93.388269 
L 462.042485 91.819649 
L 479.886249 90.465533 
L 500.279123 89.133375 
L 523.221106 87.858281 
L 548.712197 86.664346 
L 576.752398 85.565951 
L 609.890818 84.494578 
L 622.636364 84.135878 
L 622.636364 84.135878 
" style="fill:none;stroke:#ff7f0e;stroke-linecap:square;stroke-width:1.5;"/>
   </g>
   <g id="line2d_16">
    <path clip-path="url(#p4cc405829a)" d="M 115.363636 423.703636 
L 140.854728 423.650087 
L 145.952947 423.410682 
L 148.502056 423.133853 
L 151.051165 422.692247 
L 153.600274 422.037756 
L 156.149383 421.124474 
L 158.698492 419.912037 
L 161.247602 418.368066 
L 163.796711 416.469582 
L 166.34582 414.203493 
L 168.894929 411.5663 
L 171.444038 408.563259 
L 173.993148 405.207186 
L 176.542257 401.517086 
L 179.091366 397.516746 
L 181.640475 393.233396 
L 186.738693 383.93659 
L 191.836912 373.870893 
L 196.93513 363.274504 
L 207.131567 341.324828 
L 217.328004 319.447492 
L 224.975331 303.628717 
L 230.07355 293.495204 
L 235.171768 283.741066 
L 240.269986 274.391393 
L 245.368205 265.459392 
L 250.466423 256.949071 
L 255.564641 248.857474 
L 260.66286 241.176494 
L 265.761078 233.894319 
L 270.859296 226.996579 
L 275.957515 220.467244 
L 281.055733 214.289304 
L 286.153952 208.445298 
L 291.25217 202.917701 
L 296.350388 197.689214 
L 301.448607 192.74297 
L 306.546825 188.06268 
L 311.645043 183.632722 
L 316.743262 179.438207 
L 321.84148 175.465005 
L 326.939698 171.699757 
L 332.037917 168.129867 
L 339.685244 163.115614 
L 347.332572 158.477475 
L 354.979899 154.181925 
L 362.627227 150.198618 
L 370.274555 146.50012 
L 377.921882 143.061651 
L 385.56921 139.860829 
L 393.216537 136.877443 
L 400.863865 134.093229 
L 411.060302 130.662464 
L 421.256738 127.521764 
L 431.453175 124.640586 
L 441.649612 121.992121 
L 451.846048 119.552787 
L 464.591594 116.766288 
L 477.33714 114.238921 
L 490.082686 111.940331 
L 502.828232 109.844356 
L 518.122887 107.565003 
L 533.417542 105.511521 
L 551.261307 103.363678 
L 569.105071 101.446988 
L 589.497944 99.499322 
L 609.890818 97.773558 
L 622.636364 96.793146 
L 622.636364 96.793146 
" style="fill:none;stroke:#2ca02c;stroke-linecap:square;stroke-width:1.5;"/>
   </g>
   <g id="line2d_17">
    <path clip-path="url(#p4cc405829a)" d="M 115.363636 423.703636 
L 156.149383 423.593172 
L 161.247602 423.368411 
L 166.34582 422.887167 
L 168.894929 422.508463 
L 171.444038 422.014871 
L 173.993148 421.390177 
L 176.542257 420.619617 
L 179.091366 419.690338 
L 181.640475 418.591723 
L 184.189584 417.315597 
L 186.738693 415.856302 
L 189.287803 414.210681 
L 191.836912 412.377973 
L 194.386021 410.359642 
L 196.93513 408.159173 
L 199.484239 405.781826 
L 202.033349 403.234388 
L 207.131567 397.662492 
L 212.229785 391.518814 
L 217.328004 384.887951 
L 222.426222 377.85783 
L 230.07355 366.752562 
L 240.269986 351.314458 
L 260.66286 320.157763 
L 268.310187 308.841237 
L 275.957515 297.878356 
L 283.604842 287.327624 
L 291.25217 277.226231 
L 298.899497 267.59465 
L 306.546825 258.44053 
L 314.194153 249.76192 
L 321.84148 241.549862 
L 329.488808 233.790439 
L 337.136135 226.466382 
L 344.783463 219.558293 
L 352.43079 213.045574 
L 360.078118 206.907126 
L 367.725445 201.121851 
L 375.372773 195.669024 
L 383.020101 190.528538 
L 390.667428 185.681085 
L 398.314756 181.108255 
L 405.962083 176.792601 
L 413.609411 172.71766 
L 421.256738 168.867956 
L 428.904066 165.228982 
L 436.551393 161.787166 
L 446.74783 157.482986 
L 456.944267 153.479175 
L 467.140704 149.750532 
L 477.33714 146.274156 
L 487.533577 143.029247 
L 497.730014 139.996915 
L 507.92645 137.16001 
L 520.671996 133.865096 
L 533.417542 130.823944 
L 546.163088 128.012258 
L 558.908634 125.408432 
L 574.203289 122.531268 
L 589.497944 119.896471 
L 604.792599 117.478398 
L 622.636364 114.90142 
L 622.636364 114.90142 
" style="fill:none;stroke:#d62728;stroke-linecap:square;stroke-width:1.5;"/>
   </g>
   <g id="line2d_18">
    <path clip-path="url(#p4cc405829a)" d="M 115.363636 423.703636 
L 168.894929 423.604834 
L 176.542257 423.343223 
L 181.640475 422.981594 
L 186.738693 422.39754 
L 191.836912 421.527851 
L 196.93513 420.315072 
L 202.033349 418.712113 
L 207.131567 416.685122 
L 212.229785 414.214634 
L 217.328004 411.295291 
L 222.426222 407.934541 
L 227.52444 404.150705 
L 232.622659 399.970767 
L 237.720877 395.428119 
L 242.819095 390.560463 
L 247.917314 385.407954 
L 253.015532 380.011639 
L 260.66286 371.548674 
L 268.310187 362.759304 
L 281.055733 347.703241 
L 301.448607 323.522313 
L 311.645043 311.742219 
L 321.84148 300.319007 
L 329.488808 292.029613 
L 337.136135 284.001807 
L 344.783463 276.249157 
L 352.43079 268.7797 
L 360.078118 261.596992 
L 367.725445 254.701006 
L 375.372773 248.088896 
L 383.020101 241.755637 
L 390.667428 235.694554 
L 398.314756 229.897757 
L 405.962083 224.356494 
L 413.609411 219.061444 
L 421.256738 214.002937 
L 428.904066 209.171143 
L 436.551393 204.556216 
L 444.198721 200.148396 
L 451.846048 195.938105 
L 462.042485 190.615544 
L 472.238922 185.606233 
L 482.435359 180.88986 
L 492.631795 176.447209 
L 502.828232 172.260189 
L 513.024669 168.31183 
L 523.221106 164.586263 
L 533.417542 161.068681 
L 543.613979 157.745291 
L 556.359525 153.844679 
L 569.105071 150.204431 
L 581.850617 146.803505 
L 594.596163 143.622734 
L 607.341709 140.644659 
L 622.636364 137.316239 
L 622.636364 137.316239 
" style="fill:none;stroke:#9467bd;stroke-linecap:square;stroke-width:1.5;"/>
   </g>
   <g id="patch_3">
    <path d="M 90 441 
L 90 60.48 
" style="fill:none;stroke:#000000;stroke-linecap:square;stroke-linejoin:miter;stroke-width:2.5;"/>
   </g>
   <g id="patch_4">
    <path d="M 648 441 
L 648 60.48 
" style="fill:none;stroke:#000000;stroke-linecap:square;stroke-linejoin:miter;stroke-width:2.5;"/>
   </g>
   <g id="patch_5">
    <path d="M 90 441 
L 648 441 
" style="fill:none;stroke:#000000;stroke-linecap:square;stroke-linejoin:miter;stroke-width:2.5;"/>
   </g>
   <g id="patch_6">
    <path d="M 90 60.48 
L 648 60.48 
" style="fill:none;stroke:#000000;stroke-linecap:square;stroke-linejoin:miter;stroke-width:2.5;"/>
   </g>
   <g id="text_16">
    <!-- The Einstein model of heat capacity -->
    <g transform="translate(196.3365 54.48)scale(0.192 -0.192)">
     <defs>
      <path d="M -0.296875 72.90625 
L 61.375 72.90625 
L 61.375 64.59375 
L 35.5 64.59375 
L 35.5 0 
L 25.59375 0 
L 25.59375 64.59375 
L -0.296875 64.59375 
z
" id="DejaVuSans-84"/>
      <path d="M 54.890625 33.015625 
L 54.890625 0 
L 45.90625 0 
L 45.90625 32.71875 
Q 45.90625 40.484375 42.875 44.328125 
Q 39.84375 48.1875 33.796875 48.1875 
Q 26.515625 48.1875 22.3125 43.546875 
Q 18.109375 38.921875 18.109375 30.90625 
L 18.109375 0 
L 9.078125 0 
L 9.078125 75.984375 
L 18.109375 75.984375 
L 18.109375 46.1875 
Q 21.34375 51.125 25.703125 53.5625 
Q 30.078125 56 35.796875 56 
Q 45.21875 56 50.046875 50.171875 
Q 54.890625 44.34375 54.890625 33.015625 
z
" id="DejaVuSans-104"/>
      <path d="M 56.203125 29.59375 
L 56.203125 25.203125 
L 14.890625 25.203125 
Q 15.484375 15.921875 20.484375 11.0625 
Q 25.484375 6.203125 34.421875 6.203125 
Q 39.59375 6.203125 44.453125 7.46875 
Q 49.3125 8.734375 54.109375 11.28125 
L 54.109375 2.78125 
Q 49.265625 0.734375 44.1875 -0.34375 
Q 39.109375 -1.421875 33.890625 -1.421875 
Q 20.796875 -1.421875 13.15625 6.1875 
Q 5.515625 13.8125 5.515625 26.8125 
Q 5.515625 40.234375 12.765625 48.109375 
Q 20.015625 56 32.328125 56 
Q 43.359375 56 49.78125 48.890625 
Q 56.203125 41.796875 56.203125 29.59375 
z
M 47.21875 32.234375 
Q 47.125 39.59375 43.09375 43.984375 
Q 39.0625 48.390625 32.421875 48.390625 
Q 24.90625 48.390625 20.390625 44.140625 
Q 15.875 39.890625 15.1875 32.171875 
z
" id="DejaVuSans-101"/>
      <path id="DejaVuSans-32"/>
      <path d="M 9.8125 72.90625 
L 55.90625 72.90625 
L 55.90625 64.59375 
L 19.671875 64.59375 
L 19.671875 43.015625 
L 54.390625 43.015625 
L 54.390625 34.71875 
L 19.671875 34.71875 
L 19.671875 8.296875 
L 56.78125 8.296875 
L 56.78125 0 
L 9.8125 0 
z
" id="DejaVuSans-69"/>
      <path d="M 9.421875 54.6875 
L 18.40625 54.6875 
L 18.40625 0 
L 9.421875 0 
z
M 9.421875 75.984375 
L 18.40625 75.984375 
L 18.40625 64.59375 
L 9.421875 64.59375 
z
" id="DejaVuSans-105"/>
      <path d="M 54.890625 33.015625 
L 54.890625 0 
L 45.90625 0 
L 45.90625 32.71875 
Q 45.90625 40.484375 42.875 44.328125 
Q 39.84375 48.1875 33.796875 48.1875 
Q 26.515625 48.1875 22.3125 43.546875 
Q 18.109375 38.921875 18.109375 30.90625 
L 18.109375 0 
L 9.078125 0 
L 9.078125 54.6875 
L 18.109375 54.6875 
L 18.109375 46.1875 
Q 21.34375 51.125 25.703125 53.5625 
Q 30.078125 56 35.796875 56 
Q 45.21875 56 50.046875 50.171875 
Q 54.890625 44.34375 54.890625 33.015625 
z
" id="DejaVuSans-110"/>
      <path d="M 44.28125 53.078125 
L 44.28125 44.578125 
Q 40.484375 46.53125 36.375 47.5 
Q 32.28125 48.484375 27.875 48.484375 
Q 21.1875 48.484375 17.84375 46.4375 
Q 14.5 44.390625 14.5 40.28125 
Q 14.5 37.15625 16.890625 35.375 
Q 19.28125 33.59375 26.515625 31.984375 
L 29.59375 31.296875 
Q 39.15625 29.25 43.1875 25.515625 
Q 47.21875 21.78125 47.21875 15.09375 
Q 47.21875 7.46875 41.1875 3.015625 
Q 35.15625 -1.421875 24.609375 -1.421875 
Q 20.21875 -1.421875 15.453125 -0.5625 
Q 10.6875 0.296875 5.421875 2 
L 5.421875 11.28125 
Q 10.40625 8.6875 15.234375 7.390625 
Q 20.0625 6.109375 24.8125 6.109375 
Q 31.15625 6.109375 34.5625 8.28125 
Q 37.984375 10.453125 37.984375 14.40625 
Q 37.984375 18.0625 35.515625 20.015625 
Q 33.0625 21.96875 24.703125 23.78125 
L 21.578125 24.515625 
Q 13.234375 26.265625 9.515625 29.90625 
Q 5.8125 33.546875 5.8125 39.890625 
Q 5.8125 47.609375 11.28125 51.796875 
Q 16.75 56 26.8125 56 
Q 31.78125 56 36.171875 55.265625 
Q 40.578125 54.546875 44.28125 53.078125 
z
" id="DejaVuSans-115"/>
      <path d="M 18.3125 70.21875 
L 18.3125 54.6875 
L 36.8125 54.6875 
L 36.8125 47.703125 
L 18.3125 47.703125 
L 18.3125 18.015625 
Q 18.3125 11.328125 20.140625 9.421875 
Q 21.96875 7.515625 27.59375 7.515625 
L 36.8125 7.515625 
L 36.8125 0 
L 27.59375 0 
Q 17.1875 0 13.234375 3.875 
Q 9.28125 7.765625 9.28125 18.015625 
L 9.28125 47.703125 
L 2.6875 47.703125 
L 2.6875 54.6875 
L 9.28125 54.6875 
L 9.28125 70.21875 
z
" id="DejaVuSans-116"/>
      <path d="M 52 44.1875 
Q 55.375 50.25 60.0625 53.125 
Q 64.75 56 71.09375 56 
Q 79.640625 56 84.28125 50.015625 
Q 88.921875 44.046875 88.921875 33.015625 
L 88.921875 0 
L 79.890625 0 
L 79.890625 32.71875 
Q 79.890625 40.578125 77.09375 44.375 
Q 74.3125 48.1875 68.609375 48.1875 
Q 61.625 48.1875 57.5625 43.546875 
Q 53.515625 38.921875 53.515625 30.90625 
L 53.515625 0 
L 44.484375 0 
L 44.484375 32.71875 
Q 44.484375 40.625 41.703125 44.40625 
Q 38.921875 48.1875 33.109375 48.1875 
Q 26.21875 48.1875 22.15625 43.53125 
Q 18.109375 38.875 18.109375 30.90625 
L 18.109375 0 
L 9.078125 0 
L 9.078125 54.6875 
L 18.109375 54.6875 
L 18.109375 46.1875 
Q 21.1875 51.21875 25.484375 53.609375 
Q 29.78125 56 35.6875 56 
Q 41.65625 56 45.828125 52.96875 
Q 50 49.953125 52 44.1875 
z
" id="DejaVuSans-109"/>
      <path d="M 30.609375 48.390625 
Q 23.390625 48.390625 19.1875 42.75 
Q 14.984375 37.109375 14.984375 27.296875 
Q 14.984375 17.484375 19.15625 11.84375 
Q 23.34375 6.203125 30.609375 6.203125 
Q 37.796875 6.203125 41.984375 11.859375 
Q 46.1875 17.53125 46.1875 27.296875 
Q 46.1875 37.015625 41.984375 42.703125 
Q 37.796875 48.390625 30.609375 48.390625 
z
M 30.609375 56 
Q 42.328125 56 49.015625 48.375 
Q 55.71875 40.765625 55.71875 27.296875 
Q 55.71875 13.875 49.015625 6.21875 
Q 42.328125 -1.421875 30.609375 -1.421875 
Q 18.84375 -1.421875 12.171875 6.21875 
Q 5.515625 13.875 5.515625 27.296875 
Q 5.515625 40.765625 12.171875 48.375 
Q 18.84375 56 30.609375 56 
z
" id="DejaVuSans-111"/>
      <path d="M 45.40625 46.390625 
L 45.40625 75.984375 
L 54.390625 75.984375 
L 54.390625 0 
L 45.40625 0 
L 45.40625 8.203125 
Q 42.578125 3.328125 38.25 0.953125 
Q 33.9375 -1.421875 27.875 -1.421875 
Q 17.96875 -1.421875 11.734375 6.484375 
Q 5.515625 14.40625 5.515625 27.296875 
Q 5.515625 40.1875 11.734375 48.09375 
Q 17.96875 56 27.875 56 
Q 33.9375 56 38.25 53.625 
Q 42.578125 51.265625 45.40625 46.390625 
z
M 14.796875 27.296875 
Q 14.796875 17.390625 18.875 11.75 
Q 22.953125 6.109375 30.078125 6.109375 
Q 37.203125 6.109375 41.296875 11.75 
Q 45.40625 17.390625 45.40625 27.296875 
Q 45.40625 37.203125 41.296875 42.84375 
Q 37.203125 48.484375 30.078125 48.484375 
Q 22.953125 48.484375 18.875 42.84375 
Q 14.796875 37.203125 14.796875 27.296875 
z
" id="DejaVuSans-100"/>
      <path d="M 9.421875 75.984375 
L 18.40625 75.984375 
L 18.40625 0 
L 9.421875 0 
z
" id="DejaVuSans-108"/>
      <path d="M 37.109375 75.984375 
L 37.109375 68.5 
L 28.515625 68.5 
Q 23.6875 68.5 21.796875 66.546875 
Q 19.921875 64.59375 19.921875 59.515625 
L 19.921875 54.6875 
L 34.71875 54.6875 
L 34.71875 47.703125 
L 19.921875 47.703125 
L 19.921875 0 
L 10.890625 0 
L 10.890625 47.703125 
L 2.296875 47.703125 
L 2.296875 54.6875 
L 10.890625 54.6875 
L 10.890625 58.5 
Q 10.890625 67.625 15.140625 71.796875 
Q 19.390625 75.984375 28.609375 75.984375 
z
" id="DejaVuSans-102"/>
      <path d="M 34.28125 27.484375 
Q 23.390625 27.484375 19.1875 25 
Q 14.984375 22.515625 14.984375 16.5 
Q 14.984375 11.71875 18.140625 8.90625 
Q 21.296875 6.109375 26.703125 6.109375 
Q 34.1875 6.109375 38.703125 11.40625 
Q 43.21875 16.703125 43.21875 25.484375 
L 43.21875 27.484375 
z
M 52.203125 31.203125 
L 52.203125 0 
L 43.21875 0 
L 43.21875 8.296875 
Q 40.140625 3.328125 35.546875 0.953125 
Q 30.953125 -1.421875 24.3125 -1.421875 
Q 15.921875 -1.421875 10.953125 3.296875 
Q 6 8.015625 6 15.921875 
Q 6 25.140625 12.171875 29.828125 
Q 18.359375 34.515625 30.609375 34.515625 
L 43.21875 34.515625 
L 43.21875 35.40625 
Q 43.21875 41.609375 39.140625 45 
Q 35.0625 48.390625 27.6875 48.390625 
Q 23 48.390625 18.546875 47.265625 
Q 14.109375 46.140625 10.015625 43.890625 
L 10.015625 52.203125 
Q 14.9375 54.109375 19.578125 55.046875 
Q 24.21875 56 28.609375 56 
Q 40.484375 56 46.34375 49.84375 
Q 52.203125 43.703125 52.203125 31.203125 
z
" id="DejaVuSans-97"/>
      <path d="M 48.78125 52.59375 
L 48.78125 44.1875 
Q 44.96875 46.296875 41.140625 47.34375 
Q 37.3125 48.390625 33.40625 48.390625 
Q 24.65625 48.390625 19.8125 42.84375 
Q 14.984375 37.3125 14.984375 27.296875 
Q 14.984375 17.28125 19.8125 11.734375 
Q 24.65625 6.203125 33.40625 6.203125 
Q 37.3125 6.203125 41.140625 7.25 
Q 44.96875 8.296875 48.78125 10.40625 
L 48.78125 2.09375 
Q 45.015625 0.34375 40.984375 -0.53125 
Q 36.96875 -1.421875 32.421875 -1.421875 
Q 20.0625 -1.421875 12.78125 6.34375 
Q 5.515625 14.109375 5.515625 27.296875 
Q 5.515625 40.671875 12.859375 48.328125 
Q 20.21875 56 33.015625 56 
Q 37.15625 56 41.109375 55.140625 
Q 45.0625 54.296875 48.78125 52.59375 
z
" id="DejaVuSans-99"/>
      <path d="M 18.109375 8.203125 
L 18.109375 -20.796875 
L 9.078125 -20.796875 
L 9.078125 54.6875 
L 18.109375 54.6875 
L 18.109375 46.390625 
Q 20.953125 51.265625 25.265625 53.625 
Q 29.59375 56 35.59375 56 
Q 45.5625 56 51.78125 48.09375 
Q 58.015625 40.1875 58.015625 27.296875 
Q 58.015625 14.40625 51.78125 6.484375 
Q 45.5625 -1.421875 35.59375 -1.421875 
Q 29.59375 -1.421875 25.265625 0.953125 
Q 20.953125 3.328125 18.109375 8.203125 
z
M 48.6875 27.296875 
Q 48.6875 37.203125 44.609375 42.84375 
Q 40.53125 48.484375 33.40625 48.484375 
Q 26.265625 48.484375 22.1875 42.84375 
Q 18.109375 37.203125 18.109375 27.296875 
Q 18.109375 17.390625 22.1875 11.75 
Q 26.265625 6.109375 33.40625 6.109375 
Q 40.53125 6.109375 44.609375 11.75 
Q 48.6875 17.390625 48.6875 27.296875 
z
" id="DejaVuSans-112"/>
      <path d="M 32.171875 -5.078125 
Q 28.375 -14.84375 24.75 -17.8125 
Q 21.140625 -20.796875 15.09375 -20.796875 
L 7.90625 -20.796875 
L 7.90625 -13.28125 
L 13.1875 -13.28125 
Q 16.890625 -13.28125 18.9375 -11.515625 
Q 21 -9.765625 23.484375 -3.21875 
L 25.09375 0.875 
L 2.984375 54.6875 
L 12.5 54.6875 
L 29.59375 11.921875 
L 46.6875 54.6875 
L 56.203125 54.6875 
z
" id="DejaVuSans-121"/>
     </defs>
     <use xlink:href="#DejaVuSans-84"/>
     <use x="61.083984" xlink:href="#DejaVuSans-104"/>
     <use x="124.462891" xlink:href="#DejaVuSans-101"/>
     <use x="185.986328" xlink:href="#DejaVuSans-32"/>
     <use x="217.773438" xlink:href="#DejaVuSans-69"/>
     <use x="280.957031" xlink:href="#DejaVuSans-105"/>
     <use x="308.740234" xlink:href="#DejaVuSans-110"/>
     <use x="372.119141" xlink:href="#DejaVuSans-115"/>
     <use x="424.21875" xlink:href="#DejaVuSans-116"/>
     <use x="463.427734" xlink:href="#DejaVuSans-101"/>
     <use x="524.951172" xlink:href="#DejaVuSans-105"/>
     <use x="552.734375" xlink:href="#DejaVuSans-110"/>
     <use x="616.113281" xlink:href="#DejaVuSans-32"/>
     <use x="647.900391" xlink:href="#DejaVuSans-109"/>
     <use x="745.3125" xlink:href="#DejaVuSans-111"/>
     <use x="806.494141" xlink:href="#DejaVuSans-100"/>
     <use x="869.970703" xlink:href="#DejaVuSans-101"/>
     <use x="931.494141" xlink:href="#DejaVuSans-108"/>
     <use x="959.277344" xlink:href="#DejaVuSans-32"/>
     <use x="991.064453" xlink:href="#DejaVuSans-111"/>
     <use x="1052.246094" xlink:href="#DejaVuSans-102"/>
     <use x="1087.451172" xlink:href="#DejaVuSans-32"/>
     <use x="1119.238281" xlink:href="#DejaVuSans-104"/>
     <use x="1182.617188" xlink:href="#DejaVuSans-101"/>
     <use x="1244.140625" xlink:href="#DejaVuSans-97"/>
     <use x="1305.419922" xlink:href="#DejaVuSans-116"/>
     <use x="1344.628906" xlink:href="#DejaVuSans-32"/>
     <use x="1376.416016" xlink:href="#DejaVuSans-99"/>
     <use x="1431.396484" xlink:href="#DejaVuSans-97"/>
     <use x="1492.675781" xlink:href="#DejaVuSans-112"/>
     <use x="1556.152344" xlink:href="#DejaVuSans-97"/>
     <use x="1617.431641" xlink:href="#DejaVuSans-99"/>
     <use x="1672.412109" xlink:href="#DejaVuSans-105"/>
     <use x="1700.195312" xlink:href="#DejaVuSans-116"/>
     <use x="1739.404297" xlink:href="#DejaVuSans-121"/>
    </g>
   </g>
   <g id="legend_1">
    <g id="patch_7">
     <path d="M 486.72 433 
L 636.8 433 
Q 640 433 640 429.8 
L 640 313.975 
Q 640 310.775 636.8 310.775 
L 486.72 310.775 
Q 483.52 310.775 483.52 313.975 
L 483.52 429.8 
Q 483.52 433 486.72 433 
z
" style="fill:#ffffff;opacity:0.8;stroke:#cccccc;stroke-linejoin:miter;"/>
    </g>
    <g id="line2d_19">
     <path d="M 489.92 323.7325 
L 521.92 323.7325 
" style="fill:none;stroke:#1f77b4;stroke-linecap:square;stroke-width:1.5;"/>
    </g>
    <g id="line2d_20"/>
    <g id="text_17">
     <!-- $\omega=20$ THz -->
     <g transform="translate(534.72 329.3325)scale(0.16 -0.16)">
      <defs>
       <path d="M 21.390625 -1.421875 
Q 1.125 -1.421875 6.78125 27.59375 
Q 8.984375 39.0625 19.625 54.6875 
L 29.296875 54.6875 
Q 19.234375 39.0625 17 27.34375 
Q 12.796875 6.203125 23.734375 6.203125 
Q 33.84375 6.203125 38.71875 32.46875 
L 47.015625 32.46875 
Q 41.703125 6.0625 51.8125 6.203125 
Q 62.703125 6.296875 66.796875 27.34375 
Q 69.046875 39.0625 65.140625 54.6875 
L 74.8125 54.6875 
Q 79.296875 39.0625 77.09375 27.59375 
Q 71.53125 -1.46875 51.21875 -1.421875 
Q 37.9375 -1.375 39.109375 13.1875 
Q 34.28125 -1.421875 21.390625 -1.421875 
z
" id="DejaVuSans-Oblique-969"/>
       <path d="M 10.59375 45.40625 
L 73.1875 45.40625 
L 73.1875 37.203125 
L 10.59375 37.203125 
z
M 10.59375 25.484375 
L 73.1875 25.484375 
L 73.1875 17.1875 
L 10.59375 17.1875 
z
" id="DejaVuSans-61"/>
       <path d="M 9.8125 72.90625 
L 19.671875 72.90625 
L 19.671875 43.015625 
L 55.515625 43.015625 
L 55.515625 72.90625 
L 65.375 72.90625 
L 65.375 0 
L 55.515625 0 
L 55.515625 34.71875 
L 19.671875 34.71875 
L 19.671875 0 
L 9.8125 0 
z
" id="DejaVuSans-72"/>
       <path d="M 5.515625 54.6875 
L 48.1875 54.6875 
L 48.1875 46.484375 
L 14.40625 7.171875 
L 48.1875 7.171875 
L 48.1875 0 
L 4.296875 0 
L 4.296875 8.203125 
L 38.09375 47.515625 
L 5.515625 47.515625 
z
" id="DejaVuSans-122"/>
      </defs>
      <use transform="translate(0 0.78125)" xlink:href="#DejaVuSans-Oblique-969"/>
      <use transform="translate(103.222656 0.78125)" xlink:href="#DejaVuSans-61"/>
      <use transform="translate(206.494141 0.78125)" xlink:href="#DejaVuSans-50"/>
      <use transform="translate(270.117188 0.78125)" xlink:href="#DejaVuSans-48"/>
      <use transform="translate(333.740234 0.78125)" xlink:href="#DejaVuSans-32"/>
      <use transform="translate(365.527344 0.78125)" xlink:href="#DejaVuSans-84"/>
      <use transform="translate(426.611328 0.78125)" xlink:href="#DejaVuSans-72"/>
      <use transform="translate(501.806641 0.78125)" xlink:href="#DejaVuSans-122"/>
     </g>
    </g>
    <g id="line2d_21">
     <path d="M 489.92 347.2175 
L 521.92 347.2175 
" style="fill:none;stroke:#ff7f0e;stroke-linecap:square;stroke-width:1.5;"/>
    </g>
    <g id="line2d_22"/>
    <g id="text_18">
     <!-- $\omega=65$ THz -->
     <g transform="translate(534.72 352.8175)scale(0.16 -0.16)">
      <use transform="translate(0 0.78125)" xlink:href="#DejaVuSans-Oblique-969"/>
      <use transform="translate(103.222656 0.78125)" xlink:href="#DejaVuSans-61"/>
      <use transform="translate(206.494141 0.78125)" xlink:href="#DejaVuSans-54"/>
      <use transform="translate(270.117188 0.78125)" xlink:href="#DejaVuSans-53"/>
      <use transform="translate(333.740234 0.78125)" xlink:href="#DejaVuSans-32"/>
      <use transform="translate(365.527344 0.78125)" xlink:href="#DejaVuSans-84"/>
      <use transform="translate(426.611328 0.78125)" xlink:href="#DejaVuSans-72"/>
      <use transform="translate(501.806641 0.78125)" xlink:href="#DejaVuSans-122"/>
     </g>
    </g>
    <g id="line2d_23">
     <path d="M 489.92 370.7025 
L 521.92 370.7025 
" style="fill:none;stroke:#2ca02c;stroke-linecap:square;stroke-width:1.5;"/>
    </g>
    <g id="line2d_24"/>
    <g id="text_19">
     <!-- $\omega=110$ THz -->
     <g transform="translate(534.72 376.3025)scale(0.16 -0.16)">
      <use transform="translate(0 0.78125)" xlink:href="#DejaVuSans-Oblique-969"/>
      <use transform="translate(103.222656 0.78125)" xlink:href="#DejaVuSans-61"/>
      <use transform="translate(206.494141 0.78125)" xlink:href="#DejaVuSans-49"/>
      <use transform="translate(270.117188 0.78125)" xlink:href="#DejaVuSans-49"/>
      <use transform="translate(333.740234 0.78125)" xlink:href="#DejaVuSans-48"/>
      <use transform="translate(397.363281 0.78125)" xlink:href="#DejaVuSans-32"/>
      <use transform="translate(429.150391 0.78125)" xlink:href="#DejaVuSans-84"/>
      <use transform="translate(490.234375 0.78125)" xlink:href="#DejaVuSans-72"/>
      <use transform="translate(565.429688 0.78125)" xlink:href="#DejaVuSans-122"/>
     </g>
    </g>
    <g id="line2d_25">
     <path d="M 489.92 394.1875 
L 521.92 394.1875 
" style="fill:none;stroke:#d62728;stroke-linecap:square;stroke-width:1.5;"/>
    </g>
    <g id="line2d_26"/>
    <g id="text_20">
     <!-- $\omega=155$ THz -->
     <g transform="translate(534.72 399.7875)scale(0.16 -0.16)">
      <use transform="translate(0 0.09375)" xlink:href="#DejaVuSans-Oblique-969"/>
      <use transform="translate(103.222656 0.09375)" xlink:href="#DejaVuSans-61"/>
      <use transform="translate(206.494141 0.09375)" xlink:href="#DejaVuSans-49"/>
      <use transform="translate(270.117188 0.09375)" xlink:href="#DejaVuSans-53"/>
      <use transform="translate(333.740234 0.09375)" xlink:href="#DejaVuSans-53"/>
      <use transform="translate(397.363281 0.09375)" xlink:href="#DejaVuSans-32"/>
      <use transform="translate(429.150391 0.09375)" xlink:href="#DejaVuSans-84"/>
      <use transform="translate(490.234375 0.09375)" xlink:href="#DejaVuSans-72"/>
      <use transform="translate(565.429688 0.09375)" xlink:href="#DejaVuSans-122"/>
     </g>
    </g>
    <g id="line2d_27">
     <path d="M 489.92 417.6725 
L 521.92 417.6725 
" style="fill:none;stroke:#9467bd;stroke-linecap:square;stroke-width:1.5;"/>
    </g>
    <g id="line2d_28"/>
    <g id="text_21">
     <!-- $\omega=200$ THz -->
     <g transform="translate(534.72 423.2725)scale(0.16 -0.16)">
      <use transform="translate(0 0.78125)" xlink:href="#DejaVuSans-Oblique-969"/>
      <use transform="translate(103.222656 0.78125)" xlink:href="#DejaVuSans-61"/>
      <use transform="translate(206.494141 0.78125)" xlink:href="#DejaVuSans-50"/>
      <use transform="translate(270.117188 0.78125)" xlink:href="#DejaVuSans-48"/>
      <use transform="translate(333.740234 0.78125)" xlink:href="#DejaVuSans-48"/>
      <use transform="translate(397.363281 0.78125)" xlink:href="#DejaVuSans-32"/>
      <use transform="translate(429.150391 0.78125)" xlink:href="#DejaVuSans-84"/>
      <use transform="translate(490.234375 0.78125)" xlink:href="#DejaVuSans-72"/>
      <use transform="translate(565.429688 0.78125)" xlink:href="#DejaVuSans-122"/>
     </g>
    </g>
   </g>
  </g>
 </g>
 <defs>
  <clipPath id="p4cc405829a">
   <rect height="380.52" width="558" x="90" y="60.48"/>
  </clipPath>
 </defs>
</svg>
