<?xml version="1.0" encoding="UTF-8" standalone="no"?>
<!-- Created with Inkscape (http://www.inkscape.org/) -->

<svg
   xmlns:dc="http://purl.org/dc/elements/1.1/"
   xmlns:cc="http://creativecommons.org/ns#"
   xmlns:rdf="http://www.w3.org/1999/02/22-rdf-syntax-ns#"
   xmlns:svg="http://www.w3.org/2000/svg"
   xmlns="http://www.w3.org/2000/svg"
   xmlns:sodipodi="http://sodipodi.sourceforge.net/DTD/sodipodi-0.dtd"
   xmlns:inkscape="http://www.inkscape.org/namespaces/inkscape"
   width="86.048607mm"
   height="54.120304mm"
   viewBox="0 0 304.89664 191.76486"
   id="svg2"
   version="1.1"
   inkscape:version="0.91 r13725"
   sodipodi:docname="adsorption.svg">
  <sodipodi:namedview
     id="base"
     pagecolor="#ffffff"
     bordercolor="#666666"
     borderopacity="1.0"
     inkscape:pageopacity="0.0"
     inkscape:pageshadow="2"
     inkscape:zoom="2.8"
     inkscape:cx="93.961908"
     inkscape:cy="54.148702"
     inkscape:document-units="px"
     inkscape:current-layer="layer1"
     showgrid="false"
     inkscape:window-width="1855"
     inkscape:window-height="1056"
     inkscape:window-x="65"
     inkscape:window-y="24"
     inkscape:window-maximized="1"
     inkscape:object-nodes="true"
     fit-margin-top="0"
     fit-margin-left="0"
     fit-margin-right="0"
     fit-margin-bottom="0"
     inkscape:object-paths="true"
     inkscape:snap-global="false" />
  <defs
     id="defs4">
    <marker
       inkscape:stockid="Arrow1Mend"
       orient="auto"
       refY="0.0"
       refX="0.0"
       id="marker24019"
       style="overflow:visible;"
       inkscape:isstock="true">
      <path
         id="path24021"
         d="M 0.0,0.0 L 5.0,-5.0 L -12.5,0.0 L 5.0,5.0 L 0.0,0.0 z "
         style="fill-rule:evenodd;stroke:#ff0000;stroke-width:1pt;stroke-opacity:1;fill:#ff0000;fill-opacity:1"
         transform="scale(0.4) rotate(180) translate(10,0)" />
    </marker>
    <marker
       inkscape:stockid="Arrow1Mend"
       orient="auto"
       refY="0.0"
       refX="0.0"
       id="marker24009"
       style="overflow:visible;"
       inkscape:isstock="true">
      <path
         id="path24011"
         d="M 0.0,0.0 L 5.0,-5.0 L -12.5,0.0 L 5.0,5.0 L 0.0,0.0 z "
         style="fill-rule:evenodd;stroke:#0000ff;stroke-width:1pt;stroke-opacity:1;fill:#0000ff;fill-opacity:1"
         transform="scale(0.4) rotate(180) translate(10,0)" />
    </marker>
    <marker
       inkscape:stockid="Arrow1Lend"
       orient="auto"
       refY="0"
       refX="0"
       id="marker23915"
       style="overflow:visible"
       inkscape:isstock="true">
      <path
         inkscape:connector-curvature="0"
         id="path23917"
         d="M 0,0 5,-5 -12.5,0 5,5 0,0 Z"
         style="fill:#ff0000;fill-opacity:1;fill-rule:evenodd;stroke:#ff0000;stroke-width:1pt;stroke-opacity:1"
         transform="matrix(-0.8,0,0,-0.8,-10,0)" />
    </marker>
    <marker
       inkscape:stockid="Arrow1Lend"
       orient="auto"
       refY="0"
       refX="0"
       id="marker23905"
       style="overflow:visible"
       inkscape:isstock="true">
      <path
         inkscape:connector-curvature="0"
         id="path23907"
         d="M 0,0 5,-5 -12.5,0 5,5 0,0 Z"
         style="fill:#0000ff;fill-opacity:1;fill-rule:evenodd;stroke:#0000ff;stroke-width:1pt;stroke-opacity:1"
         transform="matrix(-0.8,0,0,-0.8,-10,0)" />
    </marker>
    <marker
       inkscape:stockid="Arrow1Lend"
       orient="auto"
       refY="0"
       refX="0"
       id="marker23895"
       style="overflow:visible"
       inkscape:isstock="true">
      <path
         inkscape:connector-curvature="0"
         id="path23897"
         d="M 0,0 5,-5 -12.5,0 5,5 0,0 Z"
         style="fill:#ff0000;fill-opacity:1;fill-rule:evenodd;stroke:#ff0000;stroke-width:1pt;stroke-opacity:1"
         transform="matrix(-0.8,0,0,-0.8,-10,0)" />
    </marker>
    <marker
       inkscape:collect="always"
       inkscape:isstock="true"
       style="overflow:visible"
       id="marker23630"
       refX="0"
       refY="0"
       orient="auto"
       inkscape:stockid="Arrow1Lend">
      <path
         transform="matrix(-0.8,0,0,-0.8,-10,0)"
         style="fill:#000000;fill-opacity:1;fill-rule:evenodd;stroke:#000000;stroke-width:1pt;stroke-opacity:1"
         d="M 0,0 5,-5 -12.5,0 5,5 0,0 Z"
         id="path23632"
         inkscape:connector-curvature="0" />
    </marker>
    <marker
       inkscape:stockid="Arrow1Lend"
       orient="auto"
       refY="0"
       refX="0"
       id="marker23368"
       style="overflow:visible"
       inkscape:isstock="true"
       inkscape:collect="always">
      <path
         inkscape:connector-curvature="0"
         id="path23370"
         d="M 0,0 5,-5 -12.5,0 5,5 0,0 Z"
         style="fill:#000000;fill-opacity:1;fill-rule:evenodd;stroke:#000000;stroke-width:1pt;stroke-opacity:1"
         transform="matrix(-0.8,0,0,-0.8,-10,0)" />
    </marker>
    <marker
       inkscape:isstock="true"
       style="overflow:visible"
       id="marker23018"
       refX="0"
       refY="0"
       orient="auto"
       inkscape:stockid="Arrow1Lend">
      <path
         transform="matrix(-0.8,0,0,-0.8,-10,0)"
         style="fill:#000000;fill-opacity:1;fill-rule:evenodd;stroke:#000000;stroke-width:1pt;stroke-opacity:1"
         d="M 0,0 5,-5 -12.5,0 5,5 0,0 Z"
         id="path23020"
         inkscape:connector-curvature="0" />
    </marker>
    <marker
       inkscape:isstock="true"
       style="overflow:visible"
       id="marker22928"
       refX="0"
       refY="0"
       orient="auto"
       inkscape:stockid="Arrow1Lend">
      <path
         transform="matrix(-0.8,0,0,-0.8,-10,0)"
         style="fill:#000000;fill-opacity:1;fill-rule:evenodd;stroke:#000000;stroke-width:1pt;stroke-opacity:1"
         d="M 0,0 5,-5 -12.5,0 5,5 0,0 Z"
         id="path22930"
         inkscape:connector-curvature="0" />
    </marker>
    <marker
       inkscape:isstock="true"
       style="overflow:visible"
       id="marker22848"
       refX="0"
       refY="0"
       orient="auto"
       inkscape:stockid="Arrow1Lend">
      <path
         transform="matrix(-0.8,0,0,-0.8,-10,0)"
         style="fill:#000000;fill-opacity:1;fill-rule:evenodd;stroke:#000000;stroke-width:1pt;stroke-opacity:1"
         d="M 0,0 5,-5 -12.5,0 5,5 0,0 Z"
         id="path22850"
         inkscape:connector-curvature="0" />
    </marker>
    <marker
       inkscape:isstock="true"
       style="overflow:visible"
       id="marker22778"
       refX="0"
       refY="0"
       orient="auto"
       inkscape:stockid="Arrow1Lend">
      <path
         transform="matrix(-0.8,0,0,-0.8,-10,0)"
         style="fill:#000000;fill-opacity:1;fill-rule:evenodd;stroke:#000000;stroke-width:1pt;stroke-opacity:1"
         d="M 0,0 5,-5 -12.5,0 5,5 0,0 Z"
         id="path22780"
         inkscape:connector-curvature="0" />
    </marker>
    <marker
       inkscape:isstock="true"
       style="overflow:visible"
       id="marker22718"
       refX="0"
       refY="0"
       orient="auto"
       inkscape:stockid="Arrow1Lend">
      <path
         transform="matrix(-0.8,0,0,-0.8,-10,0)"
         style="fill:#000000;fill-opacity:1;fill-rule:evenodd;stroke:#000000;stroke-width:1pt;stroke-opacity:1"
         d="M 0,0 5,-5 -12.5,0 5,5 0,0 Z"
         id="path22720"
         inkscape:connector-curvature="0" />
    </marker>
    <marker
       inkscape:isstock="true"
       style="overflow:visible"
       id="marker22708"
       refX="0"
       refY="0"
       orient="auto"
       inkscape:stockid="Arrow1Lend">
      <path
         transform="matrix(-0.8,0,0,-0.8,-10,0)"
         style="fill:#000000;fill-opacity:1;fill-rule:evenodd;stroke:#000000;stroke-width:1pt;stroke-opacity:1"
         d="M 0,0 5,-5 -12.5,0 5,5 0,0 Z"
         id="path22710"
         inkscape:connector-curvature="0" />
    </marker>
    <marker
       inkscape:isstock="true"
       style="overflow:visible"
       id="marker5527"
       refX="0"
       refY="0"
       orient="auto"
       inkscape:stockid="Arrow1Lend">
      <path
         transform="matrix(-0.8,0,0,-0.8,-10,0)"
         style="fill:#000000;fill-opacity:1;fill-rule:evenodd;stroke:#000000;stroke-width:1pt;stroke-opacity:1"
         d="M 0,0 5,-5 -12.5,0 5,5 0,0 Z"
         id="path5529"
         inkscape:connector-curvature="0" />
    </marker>
    <marker
       inkscape:stockid="Arrow1Lend"
       orient="auto"
       refY="0"
       refX="0"
       id="marker5181"
       style="overflow:visible"
       inkscape:isstock="true">
      <path
         inkscape:connector-curvature="0"
         id="path5183"
         d="M 0,0 5,-5 -12.5,0 5,5 0,0 Z"
         style="fill:#000000;fill-opacity:1;fill-rule:evenodd;stroke:#000000;stroke-width:1pt;stroke-opacity:1"
         transform="matrix(-0.8,0,0,-0.8,-10,0)" />
    </marker>
  </defs>
  <metadata
     id="metadata7">
    <rdf:RDF>
      <cc:Work
         rdf:about="">
        <dc:format>image/svg+xml</dc:format>
        <dc:type
           rdf:resource="http://purl.org/dc/dcmitype/StillImage" />
        <dc:title></dc:title>
      </cc:Work>
    </rdf:RDF>
  </metadata>
  <g
     transform="translate(101.77333,-347.5432)"
     inkscape:label="Layer 1"
     inkscape:groupmode="layer"
     id="layer1">
    <path
       sodipodi:nodetypes="cc"
       inkscape:connector-curvature="0"
       id="path4155"
       d="m -68.015699,519.30806 0,-167.17645"
       style="fill:none;fill-rule:evenodd;stroke:#000000;stroke-width:1.48800015;stroke-linecap:butt;stroke-linejoin:miter;stroke-miterlimit:4;stroke-dasharray:none;stroke-opacity:1;marker-end:url(#marker23630)" />
    <path
       sodipodi:nodetypes="cc"
       inkscape:connector-curvature="0"
       id="path4155-7"
       d="m -81.77335,504.36544 282.18847,0"
       style="fill:none;fill-rule:evenodd;stroke:#000000;stroke-width:1.48800015;stroke-linecap:butt;stroke-linejoin:miter;stroke-miterlimit:4;stroke-dasharray:none;stroke-opacity:1;marker-end:url(#marker23368)" />
    <g
       transform="matrix(0,-0.64544542,0.64544542,0,2.0897591,541.79004)"
       id="g25318">
      <path
         style="font-style:normal;font-variant:normal;font-weight:normal;font-stretch:normal;letter-spacing:normal;word-spacing:normal;text-anchor:start;fill:#000000;fill-opacity:1;fill-rule:evenodd;stroke:#000000;stroke-width:0;stroke-linecap:butt;stroke-linejoin:miter;stroke-miterlimit:10.43299961;stroke-dasharray:none;stroke-dashoffset:0;stroke-opacity:1"
         inkscape:connector-curvature="0"
         d="m 86.225,-146.3875 0,-0.0125 -0.0125,-0.025 0,-0.0125 -0.0125,-0.025 0,-0.0125 -0.0125,-0.025 0,-0.0125 -0.0125,-0.0125 0,-0.0125 -0.0125,-0.0125 0,-0.0125 -0.0125,-0.0125 0,-0.0125 -0.0125,-0.0125 -0.0125,-0.0125 -0.0125,-0.0125 0,-0.0125 -0.0125,-0.0125 -0.0125,0 -0.0125,-0.0125 -0.0125,-0.0125 -0.0125,0 -0.0125,-0.0125 -0.0125,0 -0.0125,0 -0.025,-0.0125 -0.0125,0 -0.0125,0 -0.025,0 -0.025,-0.0125 -0.0125,0 -0.025,0 c -0.25,0 -0.2875,0.0625 -0.375,0.35 l -3.75,10.725 c -0.25,0.725 -0.7625,1.2 -1.9,1.2125 l 0,0.525 c 1.0875,-0.0375 1.125,-0.0375 1.7125,-0.0375 0.5125,0 1.375,0 1.8375,0.0375 l 0,-0.525 c -0.75,-0.0125 -1.2,-0.3875 -1.2,-0.9 0,-0.1 0,-0.1375 0.0875,-0.375 l 0.825,-2.3875 0.175,-0.5125 2.0875,-5.975 2.075,5.975 -4.1625,0 -0.175,0.5125 4.5125,0 0.9875,2.825 c 0.0875,0.2125 0.0875,0.25 0.0875,0.3 0,0.5375 -0.9125,0.5375 -1.3625,0.5375 l 0,0.525 c 0.4125,-0.0375 1.8375,-0.0375 2.3375,-0.0375 0.5,0 1.7875,0 2.2,0.0375 l 0,-0.525 c -1.1625,0 -1.4875,0 -1.7375,-0.7375 z"
         id="path25134" />
      <path
         style="font-style:normal;font-variant:normal;font-weight:normal;font-stretch:normal;letter-spacing:normal;word-spacing:normal;text-anchor:start;fill:#000000;fill-opacity:1;fill-rule:evenodd;stroke:#000000;stroke-width:0;stroke-linecap:butt;stroke-linejoin:miter;stroke-miterlimit:10.43299961;stroke-dasharray:none;stroke-dashoffset:0;stroke-opacity:1"
         inkscape:connector-curvature="0"
         d="m 97.8375,-146.15 0,0.5125 c 1.2125,0 1.3625,0.1375 1.3625,1.0125 l 0,3.9625 c -0.3875,-0.525 -1.15,-1.15 -2.25,-1.15 l 0.075,0.3625 c 1.1125,0 1.7375,0.8 1.925,1.0875 0.2125,0.3125 0.2125,0.3375 0.2125,0.6625 l 0,3.7 c 0,0.325 0,0.375 -0.25,0.775 -0.4375,0.625 -1.1625,1.1375 -2.0625,1.1375 -0.475,0 -2.4125,-0.175 -2.4125,-3.65 0,-1.3 0.225,-2.0125 0.6125,-2.6 0.3625,-0.5625 1.075,-1.1125 1.975,-1.1125 l -0.075,-0.3625 c -2.075,0 -3.875,1.7625 -3.875,4.05 0,2.275 1.7125,4.0375 3.6875,4.0375 1.3625,0 2.15,-0.9 2.4,-1.2375 l 0,1.2375 2.525,-0.175 0,-0.525 c -1.2125,0 -1.3625,-0.125 -1.3625,-1 l 0,-10.925 z"
         id="path25136" />
      <path
         style="font-style:normal;font-variant:normal;font-weight:normal;font-stretch:normal;letter-spacing:normal;word-spacing:normal;text-anchor:start;fill:#000000;fill-opacity:1;fill-rule:evenodd;stroke:#000000;stroke-width:0;stroke-linecap:butt;stroke-linejoin:miter;stroke-miterlimit:10.43299961;stroke-dasharray:none;stroke-dashoffset:0;stroke-opacity:1"
         inkscape:connector-curvature="0"
         d="m 108.1,-141.4875 0,-0.0125 0,-0.0125 0,-0.0375 0,-0.025 0,-0.025 0,-0.025 0,-0.025 -0.0125,-0.0125 0,-0.025 0,-0.025 0,-0.0125 0,-0.025 0,-0.0125 0,-0.0125 -0.0125,-0.0125 0,-0.0125 0,-0.0125 -0.0125,-0.0125 0,-0.0125 0,-0.0125 -0.0125,0 0,-0.0125 -0.0125,-0.0125 -0.0125,0 0,-0.0125 -0.0125,0 -0.0125,0 -0.0125,-0.0125 -0.0125,0 -0.0125,0 -0.0125,0 -0.0125,0 -0.025,0 c -0.1375,0 -0.475,0.3875 -0.6125,0.55 -0.55,-0.4375 -1.1,-0.55 -1.675,-0.55 -2.175,0 -2.825,1.1875 -2.825,2.175 0,0.1875 0,0.825 0.6875,1.45 0.575,0.5 1.1875,0.625 2.0125,0.7875 0.975,0.2 1.2125,0.25 1.6625,0.6125 0.325,0.2625 0.55,0.6625 0.55,1.1625 0,0.7625 -0.4375,1.625 -2.025,1.625 -1.175,0 -2.0375,-0.675 -2.4375,-2.475 -0.075,-0.3125 -0.075,-0.3375 -0.0875,-0.35 -0.0375,-0.075 -0.1125,-0.075 -0.1625,-0.075 -0.2,0 -0.2,0.0875 -0.2,0.4125 l 0,2.4375 c 0,0.325 0,0.4125 0.1875,0.4125 0.0875,0 0.1,-0.0125 0.4125,-0.3875 0.0875,-0.1375 0.0875,-0.1625 0.35,-0.45 0.6875,0.8375 1.65,0.8375 1.9625,0.8375 1.875,0 2.8125,-1.0375 2.8125,-2.4625 0,-0.9625 -0.5875,-1.5375 -0.75,-1.7 -0.65,-0.55 -1.1375,-0.6625 -2.3125,-0.875 -0.5375,-0.1125 -1.85,-0.3625 -1.85,-1.4375 0,-0.55 0.375,-1.375 1.9875,-1.375 1.95,0 2.0625,1.6625 2.1,2.225 0.0125,0.1375 0.1375,0.1375 0.2,0.1375 0.2,0 0.2,-0.0875 0.2,-0.4125 z"
         id="path25138" />
      <path
         style="font-style:normal;font-variant:normal;font-weight:normal;font-stretch:normal;letter-spacing:normal;word-spacing:normal;text-anchor:start;fill:#000000;fill-opacity:1;fill-rule:evenodd;stroke:#000000;stroke-width:0;stroke-linecap:butt;stroke-linejoin:miter;stroke-miterlimit:10.43299961;stroke-dasharray:none;stroke-dashoffset:0;stroke-opacity:1"
         inkscape:connector-curvature="0"
         d="m 117.3625,-137.7375 0,-0.225 -0.025,-0.2125 -0.025,-0.2 -0.025,-0.2125 -0.05,-0.2 -0.05,-0.2 -0.0625,-0.1875 -0.075,-0.1875 -0.075,-0.1875 -0.0875,-0.175 -0.0875,-0.175 -0.1,-0.175 -0.1125,-0.1625 -0.1125,-0.15 -0.125,-0.1625 -0.125,-0.1375 -0.1375,-0.1375 -0.1375,-0.125 -0.15,-0.125 -0.15,-0.125 -0.15,-0.1 -0.1625,-0.1 -0.1625,-0.0875 -0.175,-0.0875 -0.175,-0.075 -0.175,-0.0625 -0.175,-0.0625 -0.1875,-0.0375 -0.1875,-0.0375 -0.1875,-0.025 -0.1875,-0.025 -0.2,0 -0.025,0.3625 c 0.7125,0 1.4625,0.3125 1.9375,1.0125 0.5625,0.825 0.5625,1.9625 0.5625,2.625 0,0.625 0,1.7375 -0.4625,2.575 -0.5125,0.8625 -1.325,1.2125 -2.0125,1.2125 l 0,0 c -0.6625,0 -1.475,-0.2875 -1.9875,-1.175 -0.4875,-0.8 -0.5,-1.8625 -0.5,-2.6125 0,-0.6875 0,-1.775 0.55,-2.5875 0.5,-0.7625 1.2875,-1.05 1.9125,-1.05 l 0.025,-0.3625 c -2.15,0 -3.85,1.9 -3.85,4.1625 0,2.2875 1.7875,4.0125 3.825,4.0125 2.125,0 3.8625,-1.7625 3.8625,-4.0125 z"
         id="path25140" />
      <path
         style="font-style:normal;font-variant:normal;font-weight:normal;font-stretch:normal;letter-spacing:normal;word-spacing:normal;text-anchor:start;fill:#000000;fill-opacity:1;fill-rule:evenodd;stroke:#000000;stroke-width:0;stroke-linecap:butt;stroke-linejoin:miter;stroke-miterlimit:10.43299961;stroke-dasharray:none;stroke-dashoffset:0;stroke-opacity:1"
         inkscape:connector-curvature="0"
         d="m 120.9125,-138.0875 0,-0.1625 0,-0.15 0.0125,-0.1625 0.0125,-0.1625 0.025,-0.1625 0.025,-0.15 0.025,-0.15 0.025,-0.15 0.0375,-0.15 0.0375,-0.15 0.05,-0.1375 0.05,-0.1375 0.05,-0.1375 0.05,-0.125 0.0625,-0.125 0.0625,-0.125 0.075,-0.1125 0.075,-0.1 0.075,-0.1125 0.075,-0.1 0.0875,-0.0875 0.0875,-0.0875 0.0875,-0.075 0.1,-0.075 0.1,-0.0625 0.1,-0.05 0.1125,-0.05 0.1125,-0.0375 0.1125,-0.0375 0.125,-0.025 0.1125,-0.0125 0.1375,0 c 0.1375,0 0.175,0 0.25,0.0125 -0.15,0.075 -0.4375,0.1875 -0.4375,0.6625 0,0.525 0.4125,0.725 0.7,0.725 0.3625,0 0.725,-0.2375 0.725,-0.725 0,-0.5375 -0.4875,-1.0375 -1.2625,-1.0375 -1.525,0 -2.0375,1.65 -2.15,1.9875 l -0.0125,0 0,-1.9875 -2.4125,0.2 0,0.5125 c 1.225,0 1.3625,0.125 1.3625,1.0125 l 0,4.8625 c 0,0.8 -0.1875,0.8 -1.3625,0.8 l 0,0.525 c 0.5125,-0.0375 1.5,-0.0375 2.0375,-0.0375 0.475,0 1.75,0 2.1625,0.0375 l 0,-0.525 -0.3625,0 c -1.3,0 -1.3375,-0.2 -1.3375,-0.8375 z"
         id="path25142" />
      <path
         style="font-style:normal;font-variant:normal;font-weight:normal;font-stretch:normal;letter-spacing:normal;word-spacing:normal;text-anchor:start;fill:#000000;fill-opacity:1;fill-rule:evenodd;stroke:#000000;stroke-width:0;stroke-linecap:butt;stroke-linejoin:miter;stroke-miterlimit:10.43299961;stroke-dasharray:none;stroke-dashoffset:0;stroke-opacity:1"
         inkscape:connector-curvature="0"
         d="m 129.1375,-130.95 -0.0625,0 -0.05,0 -0.05,0 -0.05,0 -0.0375,0 -0.05,0 -0.05,0 -0.0375,0 -0.05,0 -0.0375,0 -0.0375,0 -0.0375,0 -0.0375,0 -0.0375,0 -0.075,-0.0125 -0.0625,0 -0.0625,0 -0.0625,-0.0125 -0.05,-0.0125 -0.05,-0.0125 -0.05,-0.0125 -0.0375,-0.0125 -0.0375,-0.025 -0.0375,-0.0125 -0.0375,-0.025 -0.025,-0.025 -0.025,-0.025 -0.025,-0.0375 -0.025,-0.025 -0.0125,-0.0375 -0.0125,-0.05 -0.0125,-0.0375 -0.0125,-0.05 -0.0125,-0.05 0,-0.0625 -0.0125,-0.0625 0,-0.0625 0,-0.025 0,-0.0375 0,-0.0375 0,-0.0375 0,-3.125 c 0.325,0.45 1.05,1.15 2.2,1.15 l -0.0875,-0.3625 c -0.5625,0 -1.075,-0.225 -1.4375,-0.5625 -0.4125,-0.4125 -0.675,-0.775 -0.675,-1.275 l 0,-3.7 c 0,-0.3375 0,-0.3625 0.2,-0.65 0.525,-0.8 1.4125,-1.1375 2.0875,-1.1375 1.35,0 2.425,1.625 2.425,3.6375 0,2.1375 -1.2125,3.6875 -2.6,3.6875 l 0.0875,0.3625 c 2.0625,0 3.875,-1.7375 3.875,-4.05 0,-2.275 -1.6875,-4.0375 -3.6375,-4.0375 -1.575,0 -2.425,1.1375 -2.475,1.2 l 0,-1.2 -2.5,0.2 0,0.5125 c 1.2625,0 1.375,0.125 1.375,0.925 l 0,8.425 c 0,0.8 -0.2,0.8 -1.375,0.8 l 0,0.525 c 0.475,-0.0375 1.4375,-0.0375 1.9375,-0.0375 0.525,0 1.4875,0 1.9625,0.0375 z"
         id="path25144" />
      <path
         style="font-style:normal;font-variant:normal;font-weight:normal;font-stretch:normal;letter-spacing:normal;word-spacing:normal;text-anchor:start;fill:#000000;fill-opacity:1;fill-rule:evenodd;stroke:#000000;stroke-width:0;stroke-linecap:butt;stroke-linejoin:miter;stroke-miterlimit:10.43299961;stroke-dasharray:none;stroke-dashoffset:0;stroke-opacity:1"
         inkscape:connector-curvature="0"
         d="m 137.5125,-141.1125 2.525,0 0,-0.525 -2.525,0 0,-3.3 -0.3875,0 c -0.025,1.6875 -0.675,3.4125 -2.3,3.4625 l 0,0.3625 1.525,0 0,4.9875 c 0,1.9875 1.325,2.4 2.275,2.4 1.125,0 1.725,-1.1125 1.725,-2.4 l 0,-1.025 -0.4,0 0,0.9875 c 0,1.2875 -0.5125,2.05 -1.2125,2.05 -1.225,0 -1.225,-1.675 -1.225,-1.975 z"
         id="path25146" />
      <path
         style="font-style:normal;font-variant:normal;font-weight:normal;font-stretch:normal;letter-spacing:normal;word-spacing:normal;text-anchor:start;fill:#000000;fill-opacity:1;fill-rule:evenodd;stroke:#000000;stroke-width:0;stroke-linecap:butt;stroke-linejoin:miter;stroke-miterlimit:10.43299961;stroke-dasharray:none;stroke-dashoffset:0;stroke-opacity:1"
         inkscape:connector-curvature="0"
         d="m 144.45,-144.95 0,-0.0375 -0.0125,-0.05 0,-0.0375 -0.0125,-0.05 -0.0125,-0.0375 0,-0.0375 -0.025,-0.05 -0.0125,-0.0375 -0.0125,-0.0375 -0.025,-0.0375 -0.0125,-0.0375 -0.025,-0.0375 -0.025,-0.025 -0.025,-0.0375 -0.025,-0.0375 -0.025,-0.025 -0.0375,-0.0375 -0.025,-0.025 -0.0375,-0.025 -0.0375,-0.025 -0.0375,-0.025 -0.0375,-0.025 -0.0375,-0.0125 -0.0375,-0.025 -0.0375,-0.0125 -0.0375,-0.0125 -0.05,-0.0125 -0.0375,-0.0125 -0.05,0 -0.0375,-0.0125 -0.05,0 -0.05,0 c -0.4625,0 -0.85,0.375 -0.85,0.8625 0,0.5375 0.425,0.875 0.85,0.875 0.5625,0 0.8875,-0.4625 0.8875,-0.8625 z"
         id="path25148" />
      <path
         style="font-style:normal;font-variant:normal;font-weight:normal;font-stretch:normal;letter-spacing:normal;word-spacing:normal;text-anchor:start;fill:#000000;fill-opacity:1;fill-rule:evenodd;stroke:#000000;stroke-width:0;stroke-linecap:butt;stroke-linejoin:miter;stroke-miterlimit:10.43299961;stroke-dasharray:none;stroke-dashoffset:0;stroke-opacity:1"
         inkscape:connector-curvature="0"
         d="m 141.975,-141.6125 0,0.5125 c 1.1375,0 1.3,0.1125 1.3,0.9875 l 0,4.8875 c 0,0.8 -0.1875,0.8 -1.3625,0.8 l 0,0.525 c 0.5,-0.0375 1.3625,-0.0375 1.8875,-0.0375 0.2,0 1.2375,0 1.85,0.0375 l 0,-0.525 c -1.175,0 -1.2375,-0.0875 -1.2375,-0.7875 l 0,-6.6 z"
         id="path25150" />
      <path
         style="font-style:normal;font-variant:normal;font-weight:normal;font-stretch:normal;letter-spacing:normal;word-spacing:normal;text-anchor:start;fill:#000000;fill-opacity:1;fill-rule:evenodd;stroke:#000000;stroke-width:0;stroke-linecap:butt;stroke-linejoin:miter;stroke-miterlimit:10.43299961;stroke-dasharray:none;stroke-dashoffset:0;stroke-opacity:1"
         inkscape:connector-curvature="0"
         d="m 154.4375,-137.7375 -0.0125,-0.225 -0.0125,-0.2125 -0.025,-0.2 -0.0375,-0.2125 -0.0375,-0.2 -0.0625,-0.2 -0.05,-0.1875 -0.075,-0.1875 -0.075,-0.1875 -0.0875,-0.175 -0.1,-0.175 -0.1,-0.175 -0.1,-0.1625 -0.125,-0.15 -0.1125,-0.1625 -0.1375,-0.1375 -0.125,-0.1375 -0.15,-0.125 -0.1375,-0.125 -0.15,-0.125 -0.1625,-0.1 -0.1625,-0.1 -0.1625,-0.0875 -0.1625,-0.0875 -0.175,-0.075 -0.175,-0.0625 -0.1875,-0.0625 -0.1875,-0.0375 -0.175,-0.0375 -0.2,-0.025 -0.1875,-0.025 -0.1875,0 -0.025,0.3625 c 0.7,0 1.45,0.3125 1.9375,1.0125 0.55,0.825 0.55,1.9625 0.55,2.625 0,0.625 0,1.7375 -0.4625,2.575 -0.5,0.8625 -1.325,1.2125 -2,1.2125 l 0,0 c -0.675,0 -1.475,-0.2875 -2,-1.175 -0.4875,-0.8 -0.5,-1.8625 -0.5,-2.6125 0,-0.6875 0,-1.775 0.55,-2.5875 0.5125,-0.7625 1.3,-1.05 1.925,-1.05 L 150.6,-141.9 c -2.1625,0 -3.8625,1.9 -3.8625,4.1625 0,2.2875 1.8,4.0125 3.8375,4.0125 2.1125,0 3.8625,-1.7625 3.8625,-4.0125 z"
         id="path25152" />
      <path
         style="font-style:normal;font-variant:normal;font-weight:normal;font-stretch:normal;letter-spacing:normal;word-spacing:normal;text-anchor:start;fill:#000000;fill-opacity:1;fill-rule:evenodd;stroke:#000000;stroke-width:0;stroke-linecap:butt;stroke-linejoin:miter;stroke-miterlimit:10.43299961;stroke-dasharray:none;stroke-dashoffset:0;stroke-opacity:1"
         inkscape:connector-curvature="0"
         d="m 162.9625,-138.2625 0,-0.15 0,-0.15 0,-0.1375 0,-0.1375 0,-0.125 0,-0.125 0,-0.1125 0,-0.1125 -0.0125,-0.1125 0,-0.1 0,-0.0875 -0.0125,-0.1 0,-0.0875 -0.0125,-0.0875 0,-0.075 -0.0125,-0.075 -0.0125,-0.075 -0.0125,-0.075 -0.0125,-0.075 -0.0125,-0.0625 -0.0125,-0.0625 -0.025,-0.0625 -0.0125,-0.0625 -0.025,-0.05 -0.025,-0.0625 -0.025,-0.0625 -0.025,-0.05 -0.025,-0.05 -0.025,-0.0625 -0.0375,-0.05 -0.0375,-0.05 -0.0375,-0.05 c -0.5125,-0.7 -1.3625,-0.8125 -1.975,-0.8125 -1.7375,0 -2.4125,1.4875 -2.5625,1.85 l -0.0125,0 0,-1.85 -2.4375,0.2 0,0.5125 c 1.2125,0 1.3625,0.125 1.3625,1.0125 l 0,4.8625 c 0,0.8 -0.2,0.8 -1.3625,0.8 l 0,0.525 c 0.4625,-0.0375 1.425,-0.0375 1.9375,-0.0375 0.5125,0 1.4875,0 1.95,0.0375 l 0,-0.525 c -1.15,0 -1.3625,0 -1.3625,-0.8 l 0,-3.3375 c 0,-1.8875 1.2375,-2.8875 2.35,-2.8875 1.1125,0 1.3625,0.9125 1.3625,2.0125 l 0,4.2125 c 0,0.8 -0.2,0.8 -1.3625,0.8 l 0,0.525 c 0.4625,-0.0375 1.4375,-0.0375 1.9375,-0.0375 0.5125,0 1.4875,0 1.95,0.0375 l 0,-0.525 c -0.9,0 -1.3375,0 -1.3625,-0.5375 z"
         id="path25154" />
      <path
         style="font-style:normal;font-variant:normal;font-weight:normal;font-stretch:normal;letter-spacing:normal;word-spacing:normal;text-anchor:start;fill:#000000;fill-opacity:1;fill-rule:evenodd;stroke:#000000;stroke-width:0;stroke-linecap:butt;stroke-linejoin:miter;stroke-miterlimit:10.43299961;stroke-dasharray:none;stroke-dashoffset:0;stroke-opacity:1"
         inkscape:connector-curvature="0"
         d="m 177.075,-140.5375 -0.025,0 -0.025,0 -0.025,0 -0.025,0 -0.025,0 -0.0375,0 -0.025,0.0125 -0.0375,0 -0.0375,0 -0.0375,0.0125 -0.0375,0 -0.0375,0.0125 -0.0375,0.0125 -0.0375,0.0125 -0.0375,0.0125 -0.025,0.0125 -0.0375,0.025 -0.0375,0.0125 -0.0375,0.025 -0.025,0.025 -0.0375,0.0375 -0.0125,0.0125 -0.0125,0.0125 -0.0125,0.0125 -0.025,0.025 -0.0125,0.0125 -0.0125,0.025 -0.0125,0.0125 -0.0125,0.025 0,0.025 -0.0125,0.0125 -0.0125,0.025 -0.0125,0.025 0,0.025 -0.0125,0.025 0,0.0375 -0.0125,0.025 0,0.025 -0.0125,0.025 0,0.0375 0,0.025 0,0.0375 0,0.0375 c 0,0.425 0.3,0.7375 0.7375,0.7375 0.4125,0 0.75,-0.2625 0.75,-0.775 0,-1.2 -1.2625,-2.0625 -2.7125,-2.0625 -2.1,0 -3.7625,1.8625 -3.7625,4.125 0,2.2875 1.725,4.05 3.75,4.05 2.3625,0 2.9,-2.15 2.9,-2.3125 0,-0.1625 -0.125,-0.1625 -0.175,-0.1625 -0.1625,0 -0.175,0.05 -0.2375,0.275 -0.3875,1.275 -1.3625,1.8125 -2.325,1.8125 -1.1,0 -2.55,-0.95 -2.55,-3.6875 0,-2.975 1.525,-3.7125 2.425,-3.7125 0.675,0 1.6625,0.275 2.075,0.975 z"
         id="path25156" />
      <path
         style="font-style:normal;font-variant:normal;font-weight:normal;font-stretch:normal;letter-spacing:normal;word-spacing:normal;text-anchor:start;fill:#000000;fill-opacity:1;fill-rule:evenodd;stroke:#000000;stroke-width:0;stroke-linecap:butt;stroke-linejoin:miter;stroke-miterlimit:10.43299961;stroke-dasharray:none;stroke-dashoffset:0;stroke-opacity:1"
         inkscape:connector-curvature="0"
         d="m 186.625,-137.7375 0,-0.225 -0.025,-0.2125 -0.025,-0.2 -0.025,-0.2125 -0.05,-0.2 -0.05,-0.2 -0.0625,-0.1875 -0.075,-0.1875 -0.075,-0.1875 -0.0875,-0.175 -0.0875,-0.175 -0.1,-0.175 -0.1125,-0.1625 -0.1125,-0.15 -0.125,-0.1625 -0.125,-0.1375 -0.1375,-0.1375 -0.1375,-0.125 -0.15,-0.125 -0.15,-0.125 -0.15,-0.1 -0.1625,-0.1 -0.1625,-0.0875 -0.175,-0.0875 -0.175,-0.075 -0.175,-0.0625 -0.175,-0.0625 -0.1875,-0.0375 -0.1875,-0.0375 -0.1875,-0.025 -0.1875,-0.025 -0.2,0 -0.025,0.3625 c 0.7,0 1.4625,0.3125 1.95,1.0125 0.55,0.825 0.55,1.9625 0.55,2.625 0,0.625 0,1.7375 -0.4625,2.575 -0.5125,0.8625 -1.3375,1.2125 -2.0125,1.2125 l 0,0 c -0.6625,0 -1.475,-0.2875 -1.9875,-1.175 -0.4875,-0.8 -0.5,-1.8625 -0.5,-2.6125 0,-0.6875 0,-1.775 0.55,-2.5875 0.5,-0.7625 1.2875,-1.05 1.9125,-1.05 l 0.025,-0.3625 c -2.15,0 -3.8625,1.9 -3.8625,4.1625 0,2.2875 1.8,4.0125 3.8375,4.0125 2.125,0 3.8625,-1.7625 3.8625,-4.0125 z"
         id="path25158" />
      <path
         style="font-style:normal;font-variant:normal;font-weight:normal;font-stretch:normal;letter-spacing:normal;word-spacing:normal;text-anchor:start;fill:#000000;fill-opacity:1;fill-rule:evenodd;stroke:#000000;stroke-width:0;stroke-linecap:butt;stroke-linejoin:miter;stroke-miterlimit:10.43299961;stroke-dasharray:none;stroke-dashoffset:0;stroke-opacity:1"
         inkscape:connector-curvature="0"
         d="m 194.525,-138.0625 0.0125,0 0.025,0 0.0125,0 0.025,0 0.0125,0 0.0125,0 0.0125,0 0.025,0 0.0125,0 0.0125,0 0.0125,0 0.0125,0 0.0125,0 0.0125,0 0.0125,0 0.0125,-0.0125 0.0125,0 0,0 0.0125,0 0.0125,0 0.0125,0 0.025,-0.0125 0.0125,0 0.0125,0 0.0125,-0.0125 0.0125,0 0.0125,-0.0125 0.0125,-0.0125 0,-0.0125 0.0125,-0.0125 0,-0.0125 0.0125,-0.0125 0,-0.0125 0,-0.025 0.0125,0 0,-0.0125 0,-0.0125 0,-0.0125 0,-0.0125 0,0 0,-0.0125 0,-0.0125 0,-0.0125 0,-0.0125 0,-0.0125 0,-0.025 0,-0.0125 0,-0.0125 0,-0.0125 0,-0.0125 c 0,-1.8125 -0.9625,-3.5 -3.1375,-3.5 -2.0375,0 -3.625,1.85 -3.625,4.075 0,2.3625 1.8375,4.1 3.825,4.1 2.1375,0 2.9375,-1.9375 2.9375,-2.3125 0,-0.1125 -0.0875,-0.175 -0.1875,-0.175 -0.15,0 -0.1875,0.0875 -0.225,0.175 -0.4625,1.5125 -1.6625,1.925 -2.4125,1.925 -0.75,0 -2.5625,-0.5125 -2.5625,-3.6125 l 0,-0.3375 0.0125,-0.3375 c 0.1375,-2.825 1.725,-3.1375 2.225,-3.1375 1.9125,0 2.025,2.525 2.0375,3.1375 l -4.2625,0 -0.0125,0.3375 z"
         id="path25160" />
      <path
         style="font-style:normal;font-variant:normal;font-weight:normal;font-stretch:normal;letter-spacing:normal;word-spacing:normal;text-anchor:start;fill:#000000;fill-opacity:1;fill-rule:evenodd;stroke:#000000;stroke-width:0;stroke-linecap:butt;stroke-linejoin:miter;stroke-miterlimit:10.43299961;stroke-dasharray:none;stroke-dashoffset:0;stroke-opacity:1"
         inkscape:connector-curvature="0"
         d="m 206.0375,-141.6875 -0.0125,0 -0.0125,0 -0.0125,0 -0.0125,0 0,0 -0.0125,0 -0.025,0 -0.025,0 -0.025,0.0125 -0.025,0 -0.025,0 -0.0125,0 -0.0125,0 -0.0125,0 -0.0125,0 -0.0125,0.0125 0,0 -0.0125,0 -0.0125,0 -0.0125,0 0,0 -0.0125,0 0,0 -0.0125,0.0125 0,0 -0.0125,0 0,0 c -0.0375,0.0125 -0.075,0.0125 -0.325,0.0125 l -2.1,0 0,-2.025 c 0,-1.825 1.5625,-2.5 2.625,-2.5 0.175,0 1.0375,0.0125 1.575,0.625 -0.75,0 -0.8,0.55 -0.8,0.75 0,0.525 0.425,0.75 0.725,0.75 0.325,0 0.7625,-0.2125 0.7625,-0.7625 0,-0.925 -0.85,-1.725 -2.225,-1.725 -1.3125,0 -2.3125,0.475 -2.8875,0.9875 -0.3625,-0.625 -1.1125,-0.9875 -2.0125,-0.9875 l -0.05,0.3625 c 0.55,0 1.2125,0.175 1.575,0.625 -0.7875,0 -0.825,0.6 -0.825,0.75 0,0.3 0.175,0.5875 0.4625,0.7 -0.0125,0.125 -0.0125,0.1625 -0.0125,0.3875 l 0,2.0625 -3.7875,0 0,-2.025 c 0,-1.8625 1.6125,-2.5 2.5875,-2.5 l 0.05,-0.3625 c -1.6625,0 -3.725,0.9125 -3.725,2.825 l 0,2.0625 -1.4,0 0,0.525 1.4,0 0,5.8875 c 0,0.8 -0.2,0.8 -1.3625,0.8 l 0,0.525 c 0.5,-0.0375 1.375,-0.0375 1.9125,-0.0375 0.5375,0 1.4375,0 1.9375,0.0375 l 0,-0.525 c -1.15,0 -1.3625,0 -1.3625,-0.8 l 0,-5.8875 3.75,0 0,5.8875 c 0,0.8 -0.2,0.8 -1.3625,0.8 l 0,0.525 c 0.5,-0.0375 1.375,-0.0375 1.9125,-0.0375 0.5375,0 1.4375,0 1.9375,0.0375 l 0,-0.525 c -1.15,0 -1.3625,0 -1.3625,-0.8 l 0,-5.8875 2.825,0 c 0.825,0 0.925,0.2375 0.925,0.975 l 0,4.9125 c 0,0.8 -0.2,0.8 -1.3625,0.8 l 0,0.525 c 0.5,-0.0375 1.3875,-0.0375 1.925,-0.0375 0.5375,0 1.425,0 1.925,0.0375 l 0,-0.525 c -1.1375,0 -1.35,0 -1.35,-0.8 l 0,-6.6 z"
         id="path25162" />
      <path
         style="font-style:normal;font-variant:normal;font-weight:normal;font-stretch:normal;letter-spacing:normal;word-spacing:normal;text-anchor:start;fill:#000000;fill-opacity:1;fill-rule:evenodd;stroke:#000000;stroke-width:0;stroke-linecap:butt;stroke-linejoin:miter;stroke-miterlimit:10.43299961;stroke-dasharray:none;stroke-dashoffset:0;stroke-opacity:1"
         inkscape:connector-curvature="0"
         d="m 216.5875,-140.5375 -0.025,0 -0.025,0 -0.025,0 -0.025,0 -0.0375,0 -0.025,0 -0.0375,0.0125 -0.0375,0 -0.025,0 -0.0375,0.0125 -0.0375,0 -0.0375,0.0125 -0.0375,0.0125 -0.0375,0.0125 -0.0375,0.0125 -0.0375,0.0125 -0.0375,0.025 -0.0375,0.0125 -0.025,0.025 -0.0375,0.025 -0.025,0.0375 -0.025,0.0125 -0.0125,0.0125 -0.0125,0.0125 -0.0125,0.025 -0.0125,0.0125 -0.0125,0.025 -0.0125,0.0125 -0.0125,0.025 -0.0125,0.025 -0.0125,0.0125 0,0.025 -0.0125,0.025 -0.0125,0.025 0,0.025 -0.0125,0.0375 0,0.025 -0.0125,0.025 0,0.025 0,0.0375 -0.0125,0.025 0,0.0375 0,0.0375 c 0,0.425 0.3125,0.7375 0.7375,0.7375 0.4125,0 0.75,-0.2625 0.75,-0.775 0,-1.2 -1.25,-2.0625 -2.7,-2.0625 -2.1,0 -3.7625,1.8625 -3.7625,4.125 0,2.2875 1.7125,4.05 3.7375,4.05 2.375,0 2.9125,-2.15 2.9125,-2.3125 0,-0.1625 -0.125,-0.1625 -0.1875,-0.1625 -0.1625,0 -0.175,0.05 -0.225,0.275 -0.4,1.275 -1.3625,1.8125 -2.3375,1.8125 -1.0875,0 -2.5375,-0.95 -2.5375,-3.6875 0,-2.975 1.5125,-3.7125 2.4125,-3.7125 0.6875,0 1.675,0.275 2.0875,0.975 z"
         id="path25164" />
      <path
         style="font-style:normal;font-variant:normal;font-weight:normal;font-stretch:normal;letter-spacing:normal;word-spacing:normal;text-anchor:start;fill:#000000;fill-opacity:1;fill-rule:evenodd;stroke:#000000;stroke-width:0;stroke-linecap:butt;stroke-linejoin:miter;stroke-miterlimit:10.43299961;stroke-dasharray:none;stroke-dashoffset:0;stroke-opacity:1"
         inkscape:connector-curvature="0"
         d="m 221.025,-144.95 0,-0.0375 -0.0125,-0.05 0,-0.0375 -0.0125,-0.05 -0.0125,-0.0375 0,-0.0375 -0.025,-0.05 -0.0125,-0.0375 -0.0125,-0.0375 -0.025,-0.0375 -0.0125,-0.0375 -0.025,-0.0375 -0.025,-0.025 -0.025,-0.0375 -0.025,-0.0375 -0.025,-0.025 -0.0375,-0.0375 -0.025,-0.025 -0.0375,-0.025 -0.0375,-0.025 -0.0375,-0.025 -0.0375,-0.025 -0.0375,-0.0125 -0.0375,-0.025 -0.0375,-0.0125 -0.0375,-0.0125 -0.05,-0.0125 -0.0375,-0.0125 -0.05,0 -0.0375,-0.0125 -0.05,0 -0.05,0 c -0.4625,0 -0.8625,0.375 -0.8625,0.8625 0,0.5375 0.4375,0.875 0.8625,0.875 0.5625,0 0.8875,-0.4625 0.8875,-0.8625 z"
         id="path25166" />
      <path
         style="font-style:normal;font-variant:normal;font-weight:normal;font-stretch:normal;letter-spacing:normal;word-spacing:normal;text-anchor:start;fill:#000000;fill-opacity:1;fill-rule:evenodd;stroke:#000000;stroke-width:0;stroke-linecap:butt;stroke-linejoin:miter;stroke-miterlimit:10.43299961;stroke-dasharray:none;stroke-dashoffset:0;stroke-opacity:1"
         inkscape:connector-curvature="0"
         d="m 218.55,-141.6125 0,0.5125 c 1.15,0 1.3,0.1125 1.3,0.9875 l 0,4.8875 c 0,0.8 -0.1875,0.8 -1.3625,0.8 l 0,0.525 c 0.5125,-0.0375 1.3625,-0.0375 1.8875,-0.0375 0.2,0 1.2375,0 1.85,0.0375 l 0,-0.525 c -1.1625,0 -1.2375,-0.0875 -1.2375,-0.7875 l 0,-6.6 z"
         id="path25168" />
      <path
         style="font-style:normal;font-variant:normal;font-weight:normal;font-stretch:normal;letter-spacing:normal;word-spacing:normal;text-anchor:start;fill:#000000;fill-opacity:1;fill-rule:evenodd;stroke:#000000;stroke-width:0;stroke-linecap:butt;stroke-linejoin:miter;stroke-miterlimit:10.43299961;stroke-dasharray:none;stroke-dashoffset:0;stroke-opacity:1"
         inkscape:connector-curvature="0"
         d="m 229.6375,-138.0625 0.025,0 0.0125,0 0.025,0 0.0125,0 0.0125,0 0.025,0 0.0125,0 0.0125,0 0.0125,0 0.0125,0 0.0125,0 0.0125,0 0.0125,0 0.0125,0 0.0125,0 0.0125,-0.0125 0.0125,0 0.0125,0 0.0125,0 0,0 0.025,0 0.0125,-0.0125 0.0125,0 0.025,0 0.0125,-0.0125 0.0125,0 0,-0.0125 0.0125,-0.0125 0.0125,-0.0125 0,-0.0125 0.0125,-0.0125 0,-0.0125 0.0125,-0.0125 0,-0.025 0,0 0,-0.0125 0,-0.0125 0,-0.0125 0.0125,-0.0125 0,0 0,-0.0125 0,-0.0125 0,-0.0125 0,-0.0125 0,-0.0125 0,-0.025 0,-0.0125 0,-0.0125 0,-0.0125 0,-0.0125 c 0,-1.8125 -0.975,-3.5 -3.1375,-3.5 -2.05,0 -3.625,1.85 -3.625,4.075 0,2.3625 1.825,4.1 3.825,4.1 2.125,0 2.9375,-1.9375 2.9375,-2.3125 0,-0.1125 -0.0875,-0.175 -0.2,-0.175 -0.1375,0 -0.175,0.0875 -0.2125,0.175 -0.4625,1.5125 -1.675,1.925 -2.425,1.925 -0.75,0 -2.5625,-0.5125 -2.5625,-3.6125 l 0,-0.3375 0.025,-0.3375 c 0.1375,-2.825 1.7125,-3.1375 2.2125,-3.1375 1.925,0 2.025,2.525 2.05,3.1375 l -4.2625,0 -0.025,0.3375 z"
         id="path25170" />
      <path
         style="font-style:normal;font-variant:normal;font-weight:normal;font-stretch:normal;letter-spacing:normal;word-spacing:normal;text-anchor:start;fill:#000000;fill-opacity:1;fill-rule:evenodd;stroke:#000000;stroke-width:0;stroke-linecap:butt;stroke-linejoin:miter;stroke-miterlimit:10.43299961;stroke-dasharray:none;stroke-dashoffset:0;stroke-opacity:1"
         inkscape:connector-curvature="0"
         d="m 238.55,-138.2625 0,-0.15 0,-0.15 0,-0.1375 0,-0.1375 0,-0.125 0,-0.125 0,-0.1125 0,-0.1125 0,-0.1125 -0.0125,-0.1 0,-0.0875 0,-0.1 -0.0125,-0.0875 0,-0.0875 -0.0125,-0.075 -0.0125,-0.075 -0.0125,-0.075 0,-0.075 -0.025,-0.075 -0.0125,-0.0625 -0.0125,-0.0625 -0.0125,-0.0625 -0.025,-0.0625 -0.025,-0.05 -0.0125,-0.0625 -0.025,-0.0625 -0.025,-0.05 -0.0375,-0.05 -0.025,-0.0625 -0.0375,-0.05 -0.0375,-0.05 -0.0375,-0.05 c -0.5125,-0.7 -1.3625,-0.8125 -1.9625,-0.8125 -1.75,0 -2.425,1.4875 -2.5625,1.85 l -0.025,0 0,-1.85 -2.4375,0.2 0,0.5125 c 1.2125,0 1.3625,0.125 1.3625,1.0125 l 0,4.8625 c 0,0.8 -0.2,0.8 -1.3625,0.8 l 0,0.525 c 0.4625,-0.0375 1.4375,-0.0375 1.9375,-0.0375 0.525,0 1.4875,0 1.95,0.0375 l 0,-0.525 c -1.15,0 -1.3625,0 -1.3625,-0.8 l 0,-3.3375 c 0,-1.8875 1.2375,-2.8875 2.35,-2.8875 1.1125,0 1.3625,0.9125 1.3625,2.0125 l 0,4.2125 c 0,0.8 -0.2,0.8 -1.3625,0.8 l 0,0.525 c 0.4625,-0.0375 1.4375,-0.0375 1.9375,-0.0375 0.525,0 1.4875,0 1.95,0.0375 l 0,-0.525 c -0.8875,0 -1.3375,0 -1.3625,-0.5375 z"
         id="path25172" />
      <path
         style="font-style:normal;font-variant:normal;font-weight:normal;font-stretch:normal;letter-spacing:normal;word-spacing:normal;text-anchor:start;fill:#000000;fill-opacity:1;fill-rule:evenodd;stroke:#000000;stroke-width:0;stroke-linecap:butt;stroke-linejoin:miter;stroke-miterlimit:10.43299961;stroke-dasharray:none;stroke-dashoffset:0;stroke-opacity:1"
         inkscape:connector-curvature="0"
         d="m 242.8625,-141.1125 2.525,0 0,-0.525 -2.525,0 0,-3.3 -0.4,0 c -0.0125,1.6875 -0.6625,3.4125 -2.2875,3.4625 l 0,0.3625 1.525,0 0,4.9875 c 0,1.9875 1.325,2.4 2.275,2.4 1.125,0 1.7125,-1.1125 1.7125,-2.4 l 0,-1.025 -0.3875,0 0,0.9875 c 0,1.2875 -0.525,2.05 -1.225,2.05 -1.2125,0 -1.2125,-1.675 -1.2125,-1.975 z"
         id="path25174" />
    </g>
    <g
       transform="matrix(0.64544542,0,0,0.64544542,41.94824,599.91139)"
       id="g25341">
      <path
         style="font-style:normal;font-variant:normal;font-weight:normal;font-stretch:normal;letter-spacing:normal;word-spacing:normal;text-anchor:start;fill:#000000;fill-opacity:1;fill-rule:evenodd;stroke:#000000;stroke-width:0;stroke-linecap:butt;stroke-linejoin:miter;stroke-miterlimit:10.43299961;stroke-dasharray:none;stroke-dashoffset:0;stroke-opacity:1"
         inkscape:connector-curvature="0"
         d="m 101.875,-118.4375 -0.0375,-0.425 0,-4.8875 c 0,-0.5875 0.0375,-0.7125 0.825,-0.7125 l 1.6875,0 c 2.9,0 2.9,2.025 2.9,2.8 0,0.75 0,2.8 -2.925,2.8 l -2.4875,0 0.0375,0.425 3.025,0 c 2.1,0 4.025,-1.4125 4.025,-3.225 0,-1.7375 -1.7375,-3.325 -4.1625,-3.325 l -6.0375,0 0,0.525 0.35,0 c 1.2875,0 1.35,0.175 1.35,0.8375 l 0,9.525 c 0,0.6625 -0.0625,0.85 -1.35,0.85 l -0.35,0 0,0.5125 c 0.425,-0.0375 1.9,-0.0375 2.4125,-0.0375 0.5375,0 2.0125,0 2.4375,0.0375 l 0,-0.5125 -0.35,0 c -1.3,0 -1.35,-0.1875 -1.35,-0.85 z"
         id="path25176" />
      <path
         style="font-style:normal;font-variant:normal;font-weight:normal;font-stretch:normal;letter-spacing:normal;word-spacing:normal;text-anchor:start;fill:#000000;fill-opacity:1;fill-rule:evenodd;stroke:#000000;stroke-width:0;stroke-linecap:butt;stroke-linejoin:miter;stroke-miterlimit:10.43299961;stroke-dasharray:none;stroke-dashoffset:0;stroke-opacity:1"
         inkscape:connector-curvature="0"
         d="m 117.9,-117.0875 0,-0.1625 0,-0.1375 0,-0.15 0,-0.125 0,-0.125 0,-0.125 0,-0.125 -0.0125,-0.1125 0,-0.1 0,-0.1 0,-0.1 -0.0125,-0.0875 0,-0.0875 -0.0125,-0.0875 0,-0.0875 -0.0125,-0.075 -0.0125,-0.075 -0.0125,-0.075 -0.0125,-0.0625 -0.0125,-0.0625 -0.0125,-0.075 -0.025,-0.0625 -0.0125,-0.05 -0.025,-0.0625 -0.025,-0.0625 -0.025,-0.05 -0.025,-0.05 -0.025,-0.0625 -0.0375,-0.05 -0.025,-0.05 -0.0375,-0.0625 -0.0375,-0.05 c -0.525,-0.7 -1.3625,-0.8 -1.975,-0.8 -1.5375,0 -2.2625,1.1625 -2.5125,1.7125 l -0.0125,0 0,-6.25 -2.5,0.1875 0,0.525 c 1.225,0 1.3625,0.125 1.3625,1 l 0,9.4 c 0,0.8125 -0.1875,0.8125 -1.3625,0.8125 l 0,0.5125 c 0.475,-0.0375 1.4375,-0.0375 1.9375,-0.0375 0.525,0 1.4875,0 1.9625,0.0375 l 0,-0.5125 c -1.15,0 -1.3625,0 -1.3625,-0.8125 l 0,-3.3375 c 0,-1.875 1.2375,-2.8875 2.35,-2.8875 1.1125,0 1.3625,0.9125 1.3625,2.0125 l 0,4.2125 c 0,0.8125 -0.2,0.8125 -1.3625,0.8125 l 0,0.5125 c 0.4625,-0.0375 1.425,-0.0375 1.9375,-0.0375 0.5125,0 1.4875,0 1.95,0.0375 l 0,-0.5125 c -0.9,0 -1.35,0 -1.3625,-0.5375 z"
         id="path25178" />
      <path
         style="font-style:normal;font-variant:normal;font-weight:normal;font-stretch:normal;letter-spacing:normal;word-spacing:normal;text-anchor:start;fill:#000000;fill-opacity:1;fill-rule:evenodd;stroke:#000000;stroke-width:0;stroke-linecap:butt;stroke-linejoin:miter;stroke-miterlimit:10.43299961;stroke-dasharray:none;stroke-dashoffset:0;stroke-opacity:1"
         inkscape:connector-curvature="0"
         d="m 127.9,-116.575 0,-0.2125 -0.025,-0.2125 -0.025,-0.2125 -0.025,-0.2 -0.05,-0.2 -0.05,-0.2 -0.0625,-0.2 -0.075,-0.1875 -0.075,-0.1875 -0.0875,-0.175 -0.0875,-0.175 -0.1,-0.1625 -0.1125,-0.1625 -0.1125,-0.1625 -0.125,-0.15 -0.125,-0.15 -0.1375,-0.1375 -0.1375,-0.125 -0.15,-0.125 -0.15,-0.1125 -0.15,-0.1125 -0.1625,-0.1 -0.1625,-0.0875 -0.175,-0.0875 -0.175,-0.075 -0.175,-0.0625 -0.175,-0.05 -0.1875,-0.05 -0.1875,-0.0375 -0.1875,-0.025 -0.1875,-0.0125 -0.2,-0.0125 -0.025,0.3625 c 0.7125,0 1.4625,0.325 1.95,1.025 0.55,0.825 0.55,1.95 0.55,2.6125 0,0.625 0,1.75 -0.4625,2.5875 -0.5125,0.8625 -1.325,1.2 -2.0125,1.2 l 0,0 c -0.6625,0 -1.475,-0.2875 -1.9875,-1.1625 -0.4875,-0.8125 -0.5,-1.8625 -0.5,-2.625 0,-0.675 0,-1.775 0.55,-2.575 0.5,-0.775 1.2875,-1.0625 1.9125,-1.0625 l 0.025,-0.3625 c -2.15,0 -3.85,1.9 -3.85,4.1625 0,2.3 1.7875,4.025 3.825,4.025 2.125,0 3.8625,-1.7625 3.8625,-4.025 z"
         id="path25180" />
      <path
         style="font-style:normal;font-variant:normal;font-weight:normal;font-stretch:normal;letter-spacing:normal;word-spacing:normal;text-anchor:start;fill:#000000;fill-opacity:1;fill-rule:evenodd;stroke:#000000;stroke-width:0;stroke-linecap:butt;stroke-linejoin:miter;stroke-miterlimit:10.43299961;stroke-dasharray:none;stroke-dashoffset:0;stroke-opacity:1"
         inkscape:connector-curvature="0"
         d="m 131.4625,-119.95 2.5375,0 0,-0.5125 -2.5375,0 0,-3.3 -0.3875,0 c -0.025,1.6875 -0.6625,3.4125 -2.3,3.4625 l 0,0.35 1.525,0 0,4.9875 c 0,2 1.325,2.4125 2.275,2.4125 1.1375,0 1.725,-1.1125 1.725,-2.4125 l 0,-1.0125 -0.4,0 0,0.9875 c 0,1.2875 -0.5125,2.0375 -1.2125,2.0375 -1.225,0 -1.225,-1.6625 -1.225,-1.975 z"
         id="path25182" />
      <path
         style="font-style:normal;font-variant:normal;font-weight:normal;font-stretch:normal;letter-spacing:normal;word-spacing:normal;text-anchor:start;fill:#000000;fill-opacity:1;fill-rule:evenodd;stroke:#000000;stroke-width:0;stroke-linecap:butt;stroke-linejoin:miter;stroke-miterlimit:10.43299961;stroke-dasharray:none;stroke-dashoffset:0;stroke-opacity:1"
         inkscape:connector-curvature="0"
         d="m 143.5125,-116.575 -0.0125,-0.2125 -0.0125,-0.2125 -0.025,-0.2125 -0.0375,-0.2 -0.0375,-0.2 -0.05,-0.2 -0.0625,-0.2 -0.075,-0.1875 -0.075,-0.1875 -0.0875,-0.175 -0.0875,-0.175 -0.1125,-0.1625 -0.1,-0.1625 -0.1125,-0.1625 -0.125,-0.15 -0.125,-0.15 -0.1375,-0.1375 -0.1375,-0.125 -0.15,-0.125 -0.15,-0.1125 -0.1625,-0.1125 -0.15,-0.1 -0.175,-0.0875 -0.1625,-0.0875 -0.175,-0.075 -0.175,-0.0625 -0.1875,-0.05 -0.175,-0.05 -0.1875,-0.0375 -0.1875,-0.025 -0.2,-0.0125 -0.1875,-0.0125 -0.025,0.3625 c 0.7,0 1.4625,0.325 1.9375,1.025 0.5625,0.825 0.5625,1.95 0.5625,2.6125 0,0.625 0,1.75 -0.475,2.5875 -0.5,0.8625 -1.325,1.2 -2,1.2 l 0,0 c -0.6625,0 -1.475,-0.2875 -2,-1.1625 -0.475,-0.8125 -0.5,-1.8625 -0.5,-2.625 0,-0.675 0,-1.775 0.5625,-2.575 0.5,-0.775 1.2875,-1.0625 1.9125,-1.0625 l 0.025,-0.3625 c -2.15,0 -3.8625,1.9 -3.8625,4.1625 0,2.3 1.8,4.025 3.8375,4.025 2.125,0 3.8625,-1.7625 3.8625,-4.025 z"
         id="path25184" />
      <path
         style="font-style:normal;font-variant:normal;font-weight:normal;font-stretch:normal;letter-spacing:normal;word-spacing:normal;text-anchor:start;fill:#000000;fill-opacity:1;fill-rule:evenodd;stroke:#000000;stroke-width:0;stroke-linecap:butt;stroke-linejoin:miter;stroke-miterlimit:10.43299961;stroke-dasharray:none;stroke-dashoffset:0;stroke-opacity:1"
         inkscape:connector-curvature="0"
         d="m 152.0375,-117.0875 0,-0.1625 0,-0.1375 0,-0.15 0,-0.125 0,-0.125 0,-0.125 0,-0.125 0,-0.1125 0,-0.1 -0.0125,-0.1 0,-0.1 0,-0.0875 -0.0125,-0.0875 0,-0.0875 L 152,-118.8 l -0.0125,-0.075 -0.0125,-0.075 0,-0.075 -0.025,-0.0625 -0.0125,-0.0625 -0.0125,-0.075 -0.0125,-0.0625 -0.025,-0.05 -0.025,-0.0625 -0.0125,-0.0625 -0.025,-0.05 -0.025,-0.05 -0.0375,-0.0625 -0.025,-0.05 -0.0375,-0.05 -0.0375,-0.0625 -0.0375,-0.05 c -0.5125,-0.7 -1.3625,-0.8 -1.9625,-0.8 -1.75,0 -2.425,1.4875 -2.575,1.8375 l -0.0125,0 0,-1.8375 -2.4375,0.1875 0,0.525 c 1.2125,0 1.3625,0.125 1.3625,1 l 0,4.8625 c 0,0.8125 -0.2,0.8125 -1.3625,0.8125 l 0,0.5125 c 0.4625,-0.0375 1.4375,-0.0375 1.9375,-0.0375 0.5125,0 1.4875,0 1.95,0.0375 l 0,-0.5125 c -1.15,0 -1.3625,0 -1.3625,-0.8125 l 0,-3.3375 c 0,-1.875 1.2375,-2.8875 2.35,-2.8875 1.1125,0 1.3625,0.9125 1.3625,2.0125 l 0,4.2125 c 0,0.8125 -0.2,0.8125 -1.3625,0.8125 l 0,0.5125 c 0.4625,-0.0375 1.4375,-0.0375 1.9375,-0.0375 0.525,0 1.4875,0 1.95,0.0375 l 0,-0.5125 c -0.8875,0 -1.3375,0 -1.3625,-0.5375 z"
         id="path25186" />
      <path
         style="font-style:normal;font-variant:normal;font-weight:normal;font-stretch:normal;letter-spacing:normal;word-spacing:normal;text-anchor:start;fill:#000000;fill-opacity:1;fill-rule:evenodd;stroke:#000000;stroke-width:0;stroke-linecap:butt;stroke-linejoin:miter;stroke-miterlimit:10.43299961;stroke-dasharray:none;stroke-dashoffset:0;stroke-opacity:1"
         inkscape:connector-curvature="0"
         d="m 166.5375,-116.9 0.0125,0 0.0125,0 0.025,0 0.0125,0 0.0125,0 0.025,0 0.0125,0 0.0125,0 0.0125,0 0.0125,0 0.0125,0 0.0125,0 0.0125,0 0.0125,0 0.0125,0 0.0125,0 0.0125,0 0.0125,0 0.0125,0 0,0 0.025,-0.0125 0.0125,0 0.0125,0 0.025,-0.0125 0.0125,0 0.0125,-0.0125 0,-0.0125 0.0125,0 0.0125,-0.0125 0,-0.0125 0.0125,-0.0125 0,-0.0125 0.0125,-0.025 0,-0.0125 0,-0.0125 0,-0.0125 0,0 0,-0.0125 0.0125,-0.0125 0,-0.0125 0,-0.0125 0,-0.0125 0,-0.0125 0,-0.0125 0,-0.0125 0,-0.0125 0,-0.0125 0,-0.0125 0,-0.025 0,-0.0125 c 0,-1.8125 -0.975,-3.5 -3.1375,-3.5 -2.05,0 -3.625,1.85 -3.625,4.075 0,2.3625 1.825,4.1125 3.825,4.1125 2.125,0 2.9375,-1.9375 2.9375,-2.325 0,-0.1 -0.0875,-0.175 -0.2,-0.175 -0.1375,0 -0.175,0.0875 -0.2125,0.175 -0.4625,1.5125 -1.675,1.925 -2.425,1.925 -0.75,0 -2.5625,-0.5 -2.5625,-3.6 l 0,-0.35 0.025,-0.3375 c 0.1375,-2.8125 1.7125,-3.1375 2.2125,-3.1375 1.925,0 2.0375,2.525 2.05,3.1375 l -4.2625,0 -0.025,0.3375 z"
         id="path25188" />
      <path
         style="font-style:normal;font-variant:normal;font-weight:normal;font-stretch:normal;letter-spacing:normal;word-spacing:normal;text-anchor:start;fill:#000000;fill-opacity:1;fill-rule:evenodd;stroke:#000000;stroke-width:0;stroke-linecap:butt;stroke-linejoin:miter;stroke-miterlimit:10.43299961;stroke-dasharray:none;stroke-dashoffset:0;stroke-opacity:1"
         inkscape:connector-curvature="0"
         d="m 175.4375,-117.0875 0,-0.1625 0,-0.1375 0,-0.15 0,-0.125 0,-0.125 0,-0.125 0,-0.125 0,-0.1125 0,-0.1 -0.0125,-0.1 0,-0.1 0,-0.0875 -0.0125,-0.0875 0,-0.0875 -0.0125,-0.0875 -0.0125,-0.075 -0.0125,-0.075 0,-0.075 -0.025,-0.0625 -0.0125,-0.0625 -0.0125,-0.075 -0.0125,-0.0625 -0.025,-0.05 -0.025,-0.0625 -0.0125,-0.0625 -0.025,-0.05 -0.025,-0.05 -0.0375,-0.0625 -0.025,-0.05 -0.0375,-0.05 -0.0375,-0.0625 -0.0375,-0.05 c -0.5125,-0.7 -1.3625,-0.8 -1.9625,-0.8 -1.75,0 -2.425,1.4875 -2.575,1.8375 l -0.0125,0 0,-1.8375 -2.4375,0.1875 0,0.525 c 1.2125,0 1.3625,0.125 1.3625,1 l 0,4.8625 c 0,0.8125 -0.2,0.8125 -1.3625,0.8125 l 0,0.5125 c 0.4625,-0.0375 1.4375,-0.0375 1.9375,-0.0375 0.5125,0 1.4875,0 1.95,0.0375 l 0,-0.5125 c -1.15,0 -1.3625,0 -1.3625,-0.8125 l 0,-3.3375 c 0,-1.875 1.2375,-2.8875 2.35,-2.8875 1.1125,0 1.3625,0.9125 1.3625,2.0125 l 0,4.2125 c 0,0.8125 -0.2,0.8125 -1.3625,0.8125 l 0,0.5125 c 0.4625,-0.0375 1.4375,-0.0375 1.9375,-0.0375 0.525,0 1.4875,0 1.95,0.0375 l 0,-0.5125 c -0.8875,0 -1.3375,0 -1.3625,-0.5375 z"
         id="path25190" />
      <path
         style="font-style:normal;font-variant:normal;font-weight:normal;font-stretch:normal;letter-spacing:normal;word-spacing:normal;text-anchor:start;fill:#000000;fill-opacity:1;fill-rule:evenodd;stroke:#000000;stroke-width:0;stroke-linecap:butt;stroke-linejoin:miter;stroke-miterlimit:10.43299961;stroke-dasharray:none;stroke-dashoffset:0;stroke-opacity:1"
         inkscape:connector-curvature="0"
         d="m 184.0875,-116.9 0.025,0 0.0125,0 0.0125,0 0.025,0 0.0125,0 0.0125,0 0.025,0 0.0125,0 0.0125,0 0.0125,0 0.0125,0 0.0125,0 0.0125,0 0.0125,0 0.0125,0 0.0125,0 0.0125,0 0.0125,0 0,0 0.0125,0 0.025,-0.0125 0.0125,0 0.0125,0 0.0125,-0.0125 0.0125,0 0.0125,-0.0125 0.0125,-0.0125 0.0125,0 0,-0.0125 0.0125,-0.0125 0.0125,-0.0125 0,-0.0125 0,-0.025 0.0125,-0.0125 0,-0.0125 0,-0.0125 0,0 0,-0.0125 0,-0.0125 0,-0.0125 0,-0.0125 0,-0.0125 0,-0.0125 0.0125,-0.0125 0,-0.0125 0,-0.0125 0,-0.0125 0,-0.0125 0,-0.025 0,-0.0125 c 0,-1.8125 -0.975,-3.5 -3.1375,-3.5 -2.05,0 -3.625,1.85 -3.625,4.075 0,2.3625 1.825,4.1125 3.8125,4.1125 2.1375,0 2.95,-1.9375 2.95,-2.325 0,-0.1 -0.0875,-0.175 -0.2,-0.175 -0.15,0 -0.175,0.0875 -0.2125,0.175 -0.475,1.5125 -1.675,1.925 -2.425,1.925 -0.75,0 -2.5625,-0.5 -2.5625,-3.6 l 0,-0.35 0.0125,-0.3375 c 0.15,-2.8125 1.725,-3.1375 2.225,-3.1375 1.925,0 2.025,2.525 2.05,3.1375 l -4.275,0 -0.0125,0.3375 z"
         id="path25192" />
      <path
         style="font-style:normal;font-variant:normal;font-weight:normal;font-stretch:normal;letter-spacing:normal;word-spacing:normal;text-anchor:start;fill:#000000;fill-opacity:1;fill-rule:evenodd;stroke:#000000;stroke-width:0;stroke-linecap:butt;stroke-linejoin:miter;stroke-miterlimit:10.43299961;stroke-dasharray:none;stroke-dashoffset:0;stroke-opacity:1"
         inkscape:connector-curvature="0"
         d="m 188.0125,-116.9125 0,-0.1625 0.0125,-0.1625 0.0125,-0.1625 0.0125,-0.1625 0.0125,-0.15 0.025,-0.1625 0.025,-0.15 0.0375,-0.15 0.0375,-0.15 0.0375,-0.1375 0.0375,-0.15 0.05,-0.1375 0.05,-0.125 0.0625,-0.1375 0.0625,-0.1125 0.0625,-0.125 0.0625,-0.1125 0.075,-0.1125 0.075,-0.1 0.0875,-0.1 0.075,-0.0875 0.0875,-0.0875 0.1,-0.075 0.0875,-0.075 0.1,-0.0625 0.1125,-0.0625 0.1,-0.05 0.1125,-0.0375 0.125,-0.025 0.1125,-0.025 0.125,-0.0125 0.125,-0.0125 c 0.15,0 0.175,0 0.25,0.025 -0.1375,0.0625 -0.425,0.175 -0.425,0.6625 0,0.5125 0.4125,0.7125 0.7,0.7125 0.3625,0 0.7125,-0.225 0.7125,-0.7125 0,-0.5375 -0.4875,-1.0375 -1.25,-1.0375 -1.525,0 -2.05,1.65 -2.15,1.9875 l -0.025,0 0,-1.9875 -2.4,0.1875 0,0.525 c 1.2125,0 1.3625,0.125 1.3625,1 l 0,4.8625 c 0,0.8125 -0.2,0.8125 -1.3625,0.8125 l 0,0.5125 c 0.5,-0.0375 1.4875,-0.0375 2.025,-0.0375 0.4875,0 1.7625,0 2.175,0.0375 l 0,-0.5125 -0.3625,0 c -1.3125,0 -1.35,-0.2 -1.35,-0.85 z"
         id="path25194" />
      <path
         style="font-style:normal;font-variant:normal;font-weight:normal;font-stretch:normal;letter-spacing:normal;word-spacing:normal;text-anchor:start;fill:#000000;fill-opacity:1;fill-rule:evenodd;stroke:#000000;stroke-width:0;stroke-linecap:butt;stroke-linejoin:miter;stroke-miterlimit:10.43299961;stroke-dasharray:none;stroke-dashoffset:0;stroke-opacity:1"
         inkscape:connector-curvature="0"
         d="m 193.9875,-115.975 0.075,0.05 0.0875,0.0375 0.075,0.05 0.075,0.0375 0.075,0.0375 0.075,0.0375 0.075,0.0375 0.0625,0.025 0.075,0.0375 0.0625,0.025 0.075,0.025 0.0625,0.0125 0.0625,0.025 0.0625,0.0125 0.0625,0.0125 0.0625,0.025 0.05,0.0125 0.0625,0 0.05,0.0125 0.05,0.0125 0.05,0 0.05,0.0125 0.0375,0 0.05,0 0.0375,0.0125 0.0375,0 0.025,0 0.0375,0 0.025,0 0.025,0 0.025,0 0.025,0 c 1.6125,0 2.8125,-1.225 2.8125,-2.6 0,-0.4875 -0.1375,-1.1625 -0.7125,-1.7375 0.7,-0.725 1.5375,-0.725 1.625,-0.725 0.075,0 0.1625,0 0.2375,0.0375 -0.1875,0.075 -0.275,0.25 -0.275,0.45 0,0.25 0.1875,0.475 0.475,0.475 0.1375,0 0.4625,-0.1 0.4625,-0.4875 0,-0.325 -0.25,-0.825 -0.875,-0.825 -0.9375,0 -1.6375,0.575 -1.8875,0.8375 -0.5375,-0.4125 -1.1625,-0.6375 -1.85,-0.6375 l -0.0125,0.375 c 1.575,0 1.575,1.8125 1.575,2.225 0,0.3125 0,1.05 -0.3,1.5375 -0.35,0.525 -0.8875,0.7 -1.2625,0.7 l 0,0 c -1.575,0 -1.575,-1.8125 -1.575,-2.225 0,-0.325 0,-1.0625 0.3,-1.5375 0.35,-0.525 0.8875,-0.7 1.2625,-0.7 l 0.0125,-0.375 c -1.6125,0 -2.8125,1.2125 -2.8125,2.6 0,1.0125 0.625,1.675 0.8125,1.8375 -0.225,0.275 -0.5375,0.7875 -0.5375,1.4875 0,1.05 0.625,1.4875 0.7625,1.5875 -0.825,0.225 -1.65,0.875 -1.65,1.8125 0,1.2375 1.6875,2.25 3.9,2.25 l 0.0125,-0.375 c -1.725,0 -3.025,-0.875 -3.025,-1.9 0,-0.1375 0.025,-0.8375 0.7125,-1.3125 0.3875,-0.25 0.55,-0.25 1.8125,-0.25 1.4875,0 3.5125,0 3.5125,1.5625 0,1.0625 -1.3625,1.9 -3.0125,1.9 l 0,0 -0.0125,0.375 c 2.125,0 3.9,-0.95 3.9,-2.2875 0,-0.45 -0.125,-1.5125 -1.2,-2.0625 -0.9125,-0.475 -1.8125,-0.475 -3.35,-0.475 -1.1,0 -1.225,0 -1.55,-0.3375 -0.175,-0.175 -0.3375,-0.5125 -0.3375,-0.9 0,-0.3 0.1125,-0.6 0.2875,-0.85 z"
         id="path25196" />
      <path
         style="font-style:normal;font-variant:normal;font-weight:normal;font-stretch:normal;letter-spacing:normal;word-spacing:normal;text-anchor:start;fill:#000000;fill-opacity:1;fill-rule:evenodd;stroke:#000000;stroke-width:0;stroke-linecap:butt;stroke-linejoin:miter;stroke-miterlimit:10.43299961;stroke-dasharray:none;stroke-dashoffset:0;stroke-opacity:1"
         inkscape:connector-curvature="0"
         d="m 207.9,-118.725 0.0125,-0.05 0.025,-0.0625 0.025,-0.05 0.025,-0.05 0.025,-0.05 0.025,-0.05 0.025,-0.0375 0.025,-0.05 0.025,-0.0375 0.0375,-0.0375 0.05,-0.0875 0.05,-0.0625 0.0625,-0.075 0.05,-0.0625 0.0625,-0.05 0.0625,-0.05 0.0625,-0.05 0.05,-0.0375 0.0625,-0.05 0.0625,-0.025 0.0625,-0.0375 0.05,-0.025 0.0625,-0.025 0.05,-0.025 0.0625,-0.0125 0.05,-0.0125 0.0625,-0.0125 0.05,-0.0125 0.05,-0.0125 0.05,0 0.05,-0.0125 0.0375,0 0.05,0 0.0375,0 0.0375,0 0.0375,0 0.0375,-0.0125 0,-0.5125 c -0.525,0.0375 -0.775,0.0375 -1.35,0.0375 -0.4125,0 -0.45,0 -1.45,-0.0375 l 0,0.5125 c 0.6625,0.0375 0.825,0.45 0.825,0.775 0,0.1625 -0.0375,0.25 -0.1125,0.4375 l -1.825,4.5125 -1.9875,-4.875 c -0.1125,-0.25 -0.1125,-0.3625 -0.1125,-0.375 0,-0.475 0.6375,-0.475 0.9875,-0.475 l 0,-0.5125 c -0.4625,0.0375 -1.3375,0.0375 -1.85,0.0375 -0.675,0 -0.7125,0 -1.7375,-0.0375 l 0,0.5125 c 1.05,0 1.1875,0.1 1.425,0.65 l 2.6625,6.5625 c -0.7875,1.9 -0.7875,1.9375 -0.85,2.0875 -0.3125,0.5375 -0.8,1.2125 -1.6,1.2125 -0.5625,0 -0.9,-0.325 -0.9,-0.325 0,0 0.625,-0.0625 0.625,-0.7 0,-0.425 -0.3375,-0.6625 -0.6625,-0.6625 -0.3,0 -0.675,0.1875 -0.675,0.7 0,0.6875 0.6625,1.35 1.6125,1.35 1,0 1.7375,-0.875 2.2,-2.0125 z"
         id="path25198" />
      <polygon
         style="font-style:normal;font-variant:normal;font-weight:normal;font-stretch:normal;letter-spacing:normal;word-spacing:normal;text-anchor:start;fill:#000000;fill-opacity:1;fill-rule:evenodd;stroke:#000000;stroke-width:0;stroke-linecap:butt;stroke-linejoin:miter;stroke-miterlimit:10.43299961;stroke-dasharray:none;stroke-dashoffset:0;stroke-opacity:1"
         points="334.8,700.42 336.2,700.42 336.2,700.95 334.27,700.95 334.27,686.6 336.2,686.6 336.2,687.13 334.8,687.13 "
         id="polygon25200"
         transform="matrix(1.25,0,0,-1.25,-200,750)" />
      <path
         style="font-style:normal;font-variant:normal;font-weight:normal;font-stretch:normal;letter-spacing:normal;word-spacing:normal;text-anchor:start;fill:#000000;fill-opacity:1;fill-rule:evenodd;stroke:#000000;stroke-width:0;stroke-linecap:butt;stroke-linejoin:miter;stroke-miterlimit:10.43299961;stroke-dasharray:none;stroke-dashoffset:0;stroke-opacity:1"
         inkscape:connector-curvature="0"
         d="m 227.5125,-116.9 0.025,0 0.0125,0 0.0125,0 0.025,0 0.0125,0 0.0125,0 0.025,0 0.0125,0 0.0125,0 0.0125,0 0.0125,0 0.0125,0 0.0125,0 0.0125,0 0.0125,0 0.0125,0 0.0125,0 0.0125,0 0,0 0.0125,0 0.025,-0.0125 0.0125,0 0.0125,0 0.0125,-0.0125 0.0125,0 0.0125,-0.0125 0.0125,-0.0125 0.0125,0 0,-0.0125 0.0125,-0.0125 0.0125,-0.0125 0,-0.0125 0,-0.025 0.0125,-0.0125 0,-0.0125 0,-0.0125 0,0 0,-0.0125 0,-0.0125 0,-0.0125 0,-0.0125 0,-0.0125 0,-0.0125 0.0125,-0.0125 0,-0.0125 0,-0.0125 0,-0.0125 0,-0.0125 0,-0.025 0,-0.0125 c 0,-1.8125 -0.975,-3.5 -3.1375,-3.5 -2.05,0 -3.625,1.85 -3.625,4.075 0,2.3625 1.825,4.1125 3.8125,4.1125 2.1375,0 2.95,-1.9375 2.95,-2.325 0,-0.1 -0.0875,-0.175 -0.2,-0.175 -0.15,0 -0.1875,0.0875 -0.2125,0.175 -0.475,1.5125 -1.675,1.925 -2.425,1.925 -0.75,0 -2.5625,-0.5 -2.5625,-3.6 l 0,-0.35 0.0125,-0.3375 c 0.15,-2.8125 1.725,-3.1375 2.225,-3.1375 1.925,0 2.025,2.525 2.05,3.1375 l -4.275,0 -0.0125,0.3375 z"
         id="path25202" />
      <path
         style="font-style:normal;font-variant:normal;font-weight:normal;font-stretch:normal;letter-spacing:normal;word-spacing:normal;text-anchor:start;fill:#000000;fill-opacity:1;fill-rule:evenodd;stroke:#000000;stroke-width:0;stroke-linecap:butt;stroke-linejoin:miter;stroke-miterlimit:10.43299961;stroke-dasharray:none;stroke-dashoffset:0;stroke-opacity:1"
         inkscape:connector-curvature="0"
         d="m 239.4,-123.2125 0.025,-0.0375 0.0125,-0.05 0.0125,-0.0375 0.025,-0.05 0.0125,-0.05 0.025,-0.05 0.025,-0.05 0.025,-0.05 0.0375,-0.05 0.025,-0.05 0.0375,-0.0625 0.0375,-0.05 0.0375,-0.05 0.0375,-0.05 0.05,-0.05 0.05,-0.05 0.05,-0.0375 0.0625,-0.05 0.05,-0.05 0.075,-0.0375 0.0625,-0.0375 0.075,-0.0375 0.075,-0.0375 0.0875,-0.0375 0.0875,-0.025 0.0875,-0.025 0.1,-0.025 0.05,-0.0125 0.05,-0.0125 0.0625,0 0.05,-0.0125 0.0625,-0.0125 0.0625,0 0.05,0 0.0625,-0.0125 0.0625,0 0.075,0 0,-0.525 c -0.925,0.0375 -0.95,0.0375 -1.65,0.0375 -0.4875,0 -1.3875,0 -1.8375,-0.0375 l 0,0.525 c 0.9125,0.0125 1.1875,0.525 1.1875,0.875 0,0.1125 0,0.15 -0.1125,0.4 l -3.35,8.8375 -3.5375,-9.325 c -0.0875,-0.2 -0.0875,-0.225 -0.0875,-0.2625 0,-0.525 0.9,-0.525 1.35,-0.525 l 0,-0.525 c -0.4375,0.0375 -1.8,0.0375 -2.3125,0.0375 -0.5,0 -1.725,0 -2.15,-0.0375 l 0,0.525 c 1.1,0 1.4,0 1.6625,0.7125 l 4.2,11.05 c 0.0875,0.25 0.125,0.3375 0.375,0.3375 0.25,0 0.2625,-0.05 0.3875,-0.35 z"
         id="path25204" />
      <polygon
         style="font-style:normal;font-variant:normal;font-weight:normal;font-stretch:normal;letter-spacing:normal;word-spacing:normal;text-anchor:start;fill:#000000;fill-opacity:1;fill-rule:evenodd;stroke:#000000;stroke-width:0;stroke-linecap:butt;stroke-linejoin:miter;stroke-miterlimit:10.43299961;stroke-dasharray:none;stroke-dashoffset:0;stroke-opacity:1"
         points="354.98,700.42 354.98,687.13 353.59,687.13 353.59,686.6 355.51,686.6 355.51,700.95 353.59,700.95 353.59,700.42 "
         id="polygon25206"
         transform="matrix(1.25,0,0,-1.25,-200,750)" />
    </g>
    <path
       inkscape:connector-curvature="0"
       d="m -26.257067,497.97397 c 0.0076,-1.19643 0.0029,-2.39289 0.0018,-3.58933 -0.03683,-0.80269 0.229121,-1.57361 0.363436,-2.35707 0.114383,-0.77651 0.379414,-1.51446 0.50519,-2.29179 0.157521,-0.87206 0.397024,-1.71708 0.509095,-2.6001 0.206467,-1.18001 0.520485,-2.33531 0.783113,-3.50287 0.238738,-1.26391 0.546868,-2.51226 0.864708,-3.75795 0.328899,-1.34132 0.663089,-2.6816 0.99491,-4.02277 0.337283,-1.40285 0.656811,-2.80934 1.011122,-4.20813 0.387411,-1.50582 0.963952,-2.94693 1.510236,-4.39932 0.73592,-1.76399 1.626466,-3.4584 2.489561,-5.16229 1.00645,-1.82478 1.983105,-3.66644 3.001867,-5.48436 0.893471,-1.47696 1.785266,-2.95458 2.667221,-4.43828 0.601966,-1.06733 1.337015,-2.0359 2.081918,-3.00302 0.654896,-0.79212 1.334745,-1.55202 1.930395,-2.39208 0.56569,-0.79976 1.140898,-1.59596 1.80083,-2.32094 0.799965,-0.83089 1.5084,-1.74372 2.273892,-2.60652 1.069441,-1.03275 2.202002,-1.99731 3.295512,-3.00451 1.10572,-1.00711 2.35741,-1.82718 3.53978,-2.73725 0.94692,-0.63304 1.81755,-1.38235 2.81939,-1.92826 0.82657,-0.41561 1.66384,-0.82633 2.5306,-1.15259 0.82304,-0.35417 1.67758,-0.62162 2.52115,-0.92032 0.78509,-0.22764 1.54088,-0.50391 2.27014,-0.87277 0.87315,-0.39151 1.74638,-0.78352 2.60379,-1.20868 0.85011,-0.45791 1.66303,-0.97833 2.52193,-1.42102 0.73093,-0.50191 1.5829,-0.69344 2.41036,-0.95981 0.68988,-0.26441 1.40232,-0.42667 2.13424,-0.5128 0.76626,-0.0638 1.53625,-0.0599 2.30459,-0.0609 0.77514,-0.13656 1.53755,-0.31305 2.32172,-0.4012 0.8267,-0.22852 1.67338,-0.36492 2.50792,-0.55655 0.84543,-0.23424 1.70452,-0.39823 2.57613,-0.49143 0.80698,-0.22303 1.63572,-0.34152 2.45141,-0.52217 0.88965,-0.19243 1.746,-0.5085 2.59509,-0.83177 0.79855,-0.28363 1.59259,-0.57294 2.38573,-0.87095 0.60047,-0.19946 1.21479,-0.31321 1.78179,-0.60331 0.84599,-0.37326 1.4401,-1.05893 2.09017,-1.68495 0.72648,-0.77902 1.42568,-1.58285 2.1492,-2.36478 0.76719,-0.8409 1.48802,-1.73272 2.16961,-2.64503 0.70081,-0.93333 1.28423,-1.94996 1.8166,-2.98685 0.50812,-1.07556 0.83548,-2.20875 1.0351,-3.37772 0.28264,-1.19254 0.47351,-2.40097 0.73037,-3.59883 0.2381,-1.36088 0.46871,-2.72465 0.78266,-4.07078 0.2886,-1.50996 0.68598,-2.99308 1.06482,-4.48169 0.48398,-1.72114 1.01798,-3.42688 1.59679,-5.11843 0.53748,-1.79094 1.12838,-3.56218 1.71406,-5.33734 0.58013,-1.57445 1.0506,-3.19057 1.4476,-4.8205 0.40538,-1.27594 0.63167,-2.5948 0.95737,-3.89102 0.19926,-1.06947 0.52224,-2.10869 0.73475,-3.1751 0.29293,-0.75918 0.41888,-1.57468 0.69525,-2.33614 0.20641,-0.60442 0.53915,-1.15012 0.85151,-1.70366 0.31338,-0.69529 0.80091,-1.28357 1.23328,-1.90472 0.44447,-0.65263 1.09718,-1.10577 1.75521,-1.51985 0.65048,-0.49164 1.38451,-0.81025 2.11957,-1.14622 0.72491,-0.35206 1.50246,-0.52504 2.29795,-0.61136 0.92969,-0.20156 1.86017,-0.37425 2.80716,-0.46945 1.37672,-0.19746 2.73928,0.009 4.09518,0.2208 1.15852,0.1447 2.32704,0.1677 3.49292,0.18587 0.40151,-0.0544 2.70818,0.11833 2.88025,0.0108 0.19688,-0.12305 -0.83738,0.12797 -0.69436,-0.0549 0.1654,-0.2115 0.53422,-0.0546 0.80133,-0.0819 1.6192,-0.20396 3.24888,-0.2879 4.879,-0.3364 1.77182,-0.04 3.54421,-0.038 5.31637,-0.0384 1.80148,-0.11326 3.59584,-0.30561 5.39847,-0.40687 1.26014,-0.0637 2.521831,-0.087 3.783381,-0.0976 0.74845,-0.0403 1.26227,0.13025 2.08571,0.28533 0,0 -1.50862,0.0241 -1.50862,0.0241 l 0,0 c 2.81945,-0.14628 1.51357,-0.0588 0.90513,-0.0757 -1.26618,0.007 -2.53251,0.0277 -3.797411,0.0882 -1.80441,0.0964 -3.60062,0.27964 -5.40208,0.4145 -1.77101,4e-4 -3.54222,-0.002 -5.31294,0.0347 -1.6288,0.0449 -3.25795,0.12084 -4.87579,0.32552 -1.9706,0.21129 -3.95505,0.14769 -5.93363,0.13981 -1.16919,-0.0208 -2.34153,-0.0474 -3.50186,-0.20594 -1.22395,-0.19888 0.29207,0.0499 -0.90338,-0.15398 -0.14303,-0.0244 -0.5726,-0.0446 -0.42969,-0.0697 2.17322,-0.3813 0.73051,0.11125 0.20364,0.012 -0.94658,0.086 -1.8817,0.23549 -2.80391,0.46943 -0.7906,0.0706 -1.56748,0.21815 -2.291,0.56091 -0.72513,0.34753 -1.47931,0.62042 -2.11822,1.12779 -0.64481,0.40438 -1.30596,0.82258 -1.74762,1.45987 -0.42998,0.61841 -0.92516,1.19707 -1.233,1.89087 -0.31089,0.54585 -0.63928,1.08586 -0.84987,1.68034 -0.29228,0.74655 -0.39143,1.5661 -0.70104,2.31132 -0.21153,1.06958 -0.53754,2.11055 -0.73795,3.18268 -0.3282,1.29562 -0.55462,2.6146 -0.96231,3.88977 -0.40016,1.63345 -0.87022,3.25456 -1.45447,4.83197 -0.58341,1.77651 -1.18096,3.54623 -1.71397,5.33925 -0.5813,1.68625 -1.10599,3.39043 -1.5928,5.10623 -0.37484,1.48836 -0.77604,2.96954 -1.06062,4.47917 -0.31691,1.34429 -0.54413,2.70782 -0.78045,4.06778 -0.25327,1.19633 -0.44696,2.40211 -0.72776,3.59273 -0.20104,1.18328 -0.52917,2.33135 -1.03627,3.42307 -0.53119,1.04571 -1.11855,2.06927 -1.81907,3.01158 -0.67742,0.9199 -1.4054,1.81242 -2.16826,2.66153 -0.72672,0.78228 -1.43101,1.58442 -2.1495,2.37407 -0.66061,0.62243 -1.23497,1.34551 -2.08749,1.72385 -0.55674,0.32999 -1.1719,0.44477 -1.78593,0.62595 -0.79792,0.28619 -1.58286,0.60178 -2.38871,0.86743 -0.84539,0.3393 -1.70993,0.64639 -2.59772,0.85281 -0.81149,0.20243 -1.65301,0.27244 -2.45054,0.54205 -0.87165,0.0834 -1.73317,0.22998 -2.57668,0.47044 -0.83078,0.21389 -1.69187,0.30153 -2.50988,0.57643 -0.78648,0.0786 -1.55592,0.22432 -2.32224,0.41709 -0.76684,-2e-5 -1.53475,-0.004 -2.30034,0.0454 -0.7309,0.0707 -1.4451,0.21298 -2.13217,0.48001 -0.81545,0.28681 -1.68897,0.4171 -2.40921,0.9379 -0.86494,0.43475 -1.67921,0.95307 -2.5251,1.42143 -0.85156,0.43373 -1.72478,0.8247 -2.59936,1.20874 -0.7326,0.37122 -1.47565,0.68466 -2.27369,0.89209 -0.84466,0.29463 -1.69875,0.56312 -2.52095,0.91861 -0.87061,0.30673 -1.70121,0.72863 -2.52973,1.13209 -1.01407,0.51864 -1.87192,1.28191 -2.82426,1.90196 -1.1773,0.91296 -2.43162,1.72399 -3.54013,2.7242 -1.0892,1.00541 -2.21438,1.97093 -3.290702,2.98999 -0.766473,0.86174 -1.472698,1.77602 -2.26921,2.60934 -0.663366,0.71585 -1.234916,1.50716 -1.800257,2.30181 -0.594278,0.84414 -1.263443,1.61355 -1.931184,2.39787 -0.738037,0.96722 -1.491421,1.91737 -2.087476,2.9851 -0.882716,1.48388 -1.781638,2.95809 -2.677825,4.43409 -1.022264,1.81384 -1.989956,3.65838 -3.002289,5.47788 -0.858892,1.69943 -1.742668,3.39021 -2.481645,5.14637 -0.541897,1.44799 -1.117788,2.88309 -1.504914,4.3831 -0.356462,1.39805 -0.67379,2.80462 -1.01169,4.20717 -0.331799,1.34135 -0.662878,2.68258 -0.992827,4.02371 -0.314139,1.2451 -0.628706,2.49042 -0.863316,3.75387 -0.260896,1.16291 -0.571323,2.31394 -0.779832,3.48847 -0.108885,0.88542 -0.338077,1.73339 -0.505289,2.60524 -0.122588,0.77899 -0.38322,1.51774 -0.503156,2.29328 -0.130083,0.7763 -0.398879,1.5373 -0.368598,2.33185 -0.0012,1.19644 -0.0058,2.3929 0.0018,3.58933 0,0 -1.500508,0 -1.500508,0 z"
       id="path25517"
       style="color:#000000;display:inline;overflow:visible;visibility:visible;fill:#000000;fill-opacity:1;fill-rule:nonzero;stroke:#000000;stroke-width:1;stroke-linecap:butt;stroke-miterlimit:4;stroke-dasharray:none;stroke-dashoffset:0;stroke-opacity:1;marker:none;enable-background:accumulate" />
    <g
       id="g25697"
       transform="translate(-24.642857,54.642857)">
      <path
         id="path25597"
         d="m 91.75,462.9 0,0 0.0125,-0.0125 0,0 0,-0.0125 0,0 0,-0.0125 0.0125,0 0,-0.0125 0,-0.0125 0,0 0.0125,-0.0125 0,-0.0125 0,-0.0125 0.0125,-0.0125 0,-0.025 0.0125,-0.0125 0,-0.025 0,0 0,-0.0125 0.0125,-0.0125 0,0 0,-0.0125 0,-0.0125 0,0 0,-0.0125 0,0 0,-0.0125 c 0,-0.0875 -0.075,-0.175 -0.175,-0.175 -0.075,0 -0.1125,0.0125 -0.1625,0.0625 -0.0375,0.025 -0.0375,0.0625 -0.2,0.4125 -1.0625,2.5125 -1.825,3.5875 -4.7,3.5875 l -2.6125,0 c -0.25,0 -0.2875,0 -0.4,-0.0125 -0.2,-0.0125 -0.2125,-0.05 -0.2125,-0.2 0,-0.125 0.0375,-0.225 0.075,-0.3875 l 1.2375,-4.95 1.775,0 c 1.4,0 1.5,0.3 1.5,0.8375 0,0.175 0,0.3375 -0.125,0.875 -0.0375,0.075 -0.05,0.15 -0.05,0.2 0,0.125 0.0875,0.1875 0.2,0.1875 0.1625,0 0.175,-0.1375 0.25,-0.3875 l 1.025,-4.15 c 0,-0.1 -0.075,-0.1875 -0.1875,-0.1875 -0.1625,0 -0.175,0.075 -0.25,0.325 -0.3625,1.375 -0.7125,1.775 -2.3125,1.775 l -1.7,0 1.1125,-4.4125 c 0.15,-0.625 0.1875,-0.675 0.925,-0.675 l 2.5625,0 c 2.2125,0 2.6625,0.5875 2.6625,1.95 0,0.0125 0,0.525 -0.075,1.1125 -0.025,0.075 -0.0375,0.175 -0.0375,0.2125 0,0.15 0.0875,0.2 0.2,0.2 0.125,0 0.2,-0.075 0.225,-0.4 l 0.3875,-3.1375 c 0,-0.05 0.0375,-0.225 0.0375,-0.2625 0,-0.2 -0.1625,-0.2 -0.4875,-0.2 l -8.75,0 c -0.35,0 -0.525,0 -0.525,0.325 0,0.2 0.125,0.2 0.425,0.2 1.1125,0 1.1125,0.125 1.1125,0.3125 0,0.1 -0.0125,0.1625 -0.0625,0.3625 l -2.425,9.6875 c -0.1625,0.625 -0.2,0.8 -1.45,0.8 -0.3375,0 -0.525,0 -0.525,0.325 0,0.2 0.1125,0.2 0.4625,0.2 l 9.0125,0 c 0.3875,0 0.4125,-0.0125 0.5375,-0.3 z"
         inkscape:connector-curvature="0"
         style="font-style:normal;font-variant:normal;font-weight:normal;font-stretch:normal;letter-spacing:normal;word-spacing:normal;text-anchor:start;fill:#000000;fill-opacity:1;fill-rule:evenodd;stroke:#000000;stroke-width:0;stroke-linecap:butt;stroke-linejoin:miter;stroke-miterlimit:10.43299961;stroke-dasharray:none;stroke-dashoffset:0;stroke-opacity:1" />
      <path
         id="path25599"
         d="m 96.5,454.6375 0.0125,-0.025 0,-0.025 0.0125,-0.025 0.0125,-0.025 0.0125,-0.025 0.0125,-0.025 0,-0.025 0.0125,-0.025 0,-0.025 0.0125,-0.025 0,-0.0125 0.0125,-0.025 0,-0.025 0,-0.025 0,-0.025 0,-0.0125 0.0125,-0.0125 c 0,-0.3625 -0.325,-0.65 -0.7125,-0.65 -0.35,0 -0.575,0.2375 -0.6625,0.55 L 93.75,459.6 c 0,0.025 -0.05,0.1625 -0.05,0.175 0,0.1375 0.325,0.225 0.425,0.225 0.075,0 0.0875,-0.0375 0.1625,-0.2 z"
         inkscape:connector-curvature="0"
         style="font-style:normal;font-variant:normal;font-weight:normal;font-stretch:normal;letter-spacing:normal;word-spacing:normal;text-anchor:start;fill:#000000;fill-opacity:1;fill-rule:evenodd;stroke:#000000;stroke-width:0;stroke-linecap:butt;stroke-linejoin:miter;stroke-miterlimit:10.43299961;stroke-dasharray:none;stroke-dashoffset:0;stroke-opacity:1" />
      <path
         id="path25601"
         d="m 101.75,462.8375 0,0 0,0 0,-0.0125 0,0 0,0 0,-0.0125 0,0 -0.0125,0 0,-0.0125 0,0 0,-0.0125 0,0 0,-0.0125 -0.0125,0 0,0 0,-0.0125 -0.0125,0 0,-0.0125 0,0 -0.0125,0 0,-0.0125 -0.0125,0 0,0 -0.0125,0 0,-0.0125 0,0 -0.0125,0 0,0 0,0 -0.0125,0 0,0 0,0 -0.0125,0 0,0 0,-0.0125 -0.0125,0 0,0 -0.0125,0 0,0 c -0.0375,0 -0.05,0.0125 -0.1875,0.15 l -0.875,0.9625 c -0.1125,-0.175 -0.675,-1.1125 -2.0625,-1.1125 -2.775,0 -5.575,2.7625 -5.575,5.65 0,1.975 1.375,3.4125 3.3875,3.4125 0.55,0 1.1125,-0.1125 1.5625,-0.3 0.625,-0.25 0.8625,-0.5125 1.0875,-0.7625 0.1125,0.3125 0.4375,0.775 0.5625,0.775 0.0625,0 0.0875,-0.0375 0.0875,-0.05 0.025,-0.025 0.1375,-0.5 0.2125,-0.7625 l 0.225,-0.9625 c 0.05,-0.2125 0.1125,-0.425 0.1625,-0.625 0.1375,-0.5625 0.15,-0.5875 0.8625,-0.6 0.0625,0 0.2,-0.0125 0.2,-0.25 0,-0.0875 -0.0625,-0.1375 -0.1625,-0.1375 -0.2875,0 -1.025,0.0375 -1.3,0.0375 -0.3875,0 -1.3625,-0.0375 -1.75,-0.0375 -0.1125,0 -0.2625,0 -0.2625,0.25 0,0.1375 0.1,0.1375 0.375,0.1375 0.0125,0 0.375,0 0.6625,0.025 0.325,0.0375 0.3875,0.075 0.3875,0.2375 0,0.1125 -0.1375,0.6625 -0.2625,1.125 -0.35,1.375 -1.975,1.5125 -2.4,1.5125 -1.2,0 -2.5125,-0.7125 -2.5125,-2.6125 0,-0.3875 0.125,-2.45 1.4375,-4.0625 0.675,-0.85 1.875,-1.6125 3.1125,-1.6125 1.2625,0 2,0.9625 2,2.4125 0,0.4875 -0.0375,0.5 -0.0375,0.625 0,0.125 0.1375,0.125 0.1875,0.125 0.1625,0 0.1625,-0.025 0.225,-0.25 z"
         inkscape:connector-curvature="0"
         style="font-style:normal;font-variant:normal;font-weight:normal;font-stretch:normal;letter-spacing:normal;word-spacing:normal;text-anchor:start;fill:#000000;fill-opacity:1;fill-rule:evenodd;stroke:#000000;stroke-width:0;stroke-linecap:butt;stroke-linejoin:miter;stroke-miterlimit:10.43299961;stroke-dasharray:none;stroke-dashoffset:0;stroke-opacity:1" />
    </g>
    <g
       id="g25693"
       transform="translate(-125.71429,55.357143)">
      <path
         id="path25603"
         d="m 121.025,462.9 0,0 0,-0.0125 0,0 0,-0.0125 0.0125,0 0,-0.0125 0,0 0,-0.0125 0.0125,-0.0125 0,0 0,-0.0125 0,-0.0125 0.0125,-0.0125 0,-0.0125 0.0125,-0.025 0,-0.0125 0.0125,-0.025 0,0 0,-0.0125 0,-0.0125 0,0 0,-0.0125 0,-0.0125 0,0 0.0125,-0.0125 0,0 0,-0.0125 c 0,-0.0875 -0.075,-0.175 -0.1875,-0.175 -0.075,0 -0.1,0.0125 -0.1625,0.0625 -0.0375,0.025 -0.0375,0.0625 -0.1875,0.4125 -1.0625,2.5125 -1.8375,3.5875 -4.7,3.5875 l -2.625,0 c -0.25,0 -0.2875,0 -0.3875,-0.0125 -0.2,-0.0125 -0.225,-0.05 -0.225,-0.2 0,-0.125 0.0375,-0.225 0.075,-0.3875 l 1.2375,-4.95 1.775,0 c 1.4,0 1.5125,0.3 1.5125,0.8375 0,0.175 0,0.3375 -0.125,0.875 -0.0375,0.075 -0.0625,0.15 -0.0625,0.2 0,0.125 0.1,0.1875 0.2,0.1875 0.1625,0 0.175,-0.1375 0.25,-0.3875 l 1.025,-4.15 c 0,-0.1 -0.075,-0.1875 -0.175,-0.1875 -0.1625,0 -0.1875,0.075 -0.2625,0.325 -0.35,1.375 -0.7125,1.775 -2.3,1.775 l -1.7125,0 1.1125,-4.4125 c 0.1625,-0.625 0.2,-0.675 0.9375,-0.675 l 2.5625,0 c 2.2,0 2.65,0.5875 2.65,1.95 0,0.0125 0,0.525 -0.0625,1.1125 -0.025,0.075 -0.0375,0.175 -0.0375,0.2125 0,0.15 0.0875,0.2 0.1875,0.2 0.125,0 0.2,-0.075 0.2375,-0.4 l 0.375,-3.1375 c 0,-0.05 0.0375,-0.225 0.0375,-0.2625 0,-0.2 -0.1625,-0.2 -0.4875,-0.2 l -8.75,0 c -0.3375,0 -0.5125,0 -0.5125,0.325 0,0.2 0.125,0.2 0.425,0.2 1.1125,0 1.1125,0.125 1.1125,0.3125 0,0.1 -0.0125,0.1625 -0.075,0.3625 l -2.4125,9.6875 c -0.1625,0.625 -0.2,0.8 -1.4625,0.8 -0.3375,0 -0.5125,0 -0.5125,0.325 0,0.2 0.1,0.2 0.4625,0.2 l 9,0 c 0.4,0 0.4125,-0.0125 0.5375,-0.3 z"
         inkscape:connector-curvature="0"
         style="font-style:normal;font-variant:normal;font-weight:normal;font-stretch:normal;letter-spacing:normal;word-spacing:normal;text-anchor:start;fill:#000000;fill-opacity:1;fill-rule:evenodd;stroke:#000000;stroke-width:0;stroke-linecap:butt;stroke-linejoin:miter;stroke-miterlimit:10.43299961;stroke-dasharray:none;stroke-dashoffset:0;stroke-opacity:1" />
      <path
         id="path25605"
         d="m 131.0125,461.1 0,0 0,-0.0125 0,0 0,0 0,-0.0125 0,0 0,-0.0125 0,0 0,0 0,-0.0125 -0.0125,0 0,-0.0125 0,0 0,0 0,-0.0125 -0.0125,0 0,-0.0125 0,0 -0.0125,0 0,-0.0125 -0.0125,0 0,0 -0.0125,-0.0125 0,0 -0.0125,0 0,0 0,0 -0.0125,-0.0125 0,0 0,0 -0.0125,0 0,0 0,0 -0.0125,0 0,0 0,0 -0.0125,0 0,0 -0.0125,0 c -0.0375,0 -0.0375,0.0125 -0.1875,0.15 l -0.8625,0.9625 c -0.1125,-0.175 -0.6875,-1.1125 -2.075,-1.1125 -2.775,0 -5.575,2.75 -5.575,5.6375 0,1.9875 1.3875,3.4125 3.4,3.4125 0.55,0 1.1125,-0.1125 1.5625,-0.3 0.6125,-0.25 0.85,-0.5125 1.075,-0.7625 0.1125,0.3125 0.4375,0.775 0.5625,0.775 0.0625,0 0.0875,-0.0375 0.0875,-0.05 0.025,-0.025 0.15,-0.5 0.2125,-0.75 l 0.2375,-0.9625 c 0.05,-0.2125 0.1125,-0.425 0.1625,-0.6375 0.1375,-0.5625 0.15,-0.5875 0.8625,-0.6 0.0625,0 0.2,-0.0125 0.2,-0.25 0,-0.0875 -0.0625,-0.1375 -0.1625,-0.1375 -0.2875,0 -1.025,0.0375 -1.3125,0.0375 -0.3875,0 -1.3625,-0.0375 -1.7375,-0.0375 -0.1125,0 -0.2625,0 -0.2625,0.25 0,0.1375 0.1,0.1375 0.375,0.1375 0,0 0.3625,0 0.65,0.025 0.325,0.0375 0.3875,0.075 0.3875,0.2375 0,0.1125 -0.1375,0.675 -0.2625,1.1375 -0.35,1.3625 -1.9625,1.5 -2.4,1.5 -1.2,0 -2.5,-0.7 -2.5,-2.6125 0,-0.3875 0.125,-2.4375 1.425,-4.0625 0.675,-0.8375 1.8875,-1.6 3.1125,-1.6 1.275,0 2.0125,0.95 2.0125,2.4 0,0.5 -0.0375,0.5125 -0.0375,0.6375 0,0.125 0.1375,0.125 0.1875,0.125 0.1625,0 0.1625,-0.025 0.225,-0.25 z"
         inkscape:connector-curvature="0"
         style="font-style:normal;font-variant:normal;font-weight:normal;font-stretch:normal;letter-spacing:normal;word-spacing:normal;text-anchor:start;fill:#000000;fill-opacity:1;fill-rule:evenodd;stroke:#000000;stroke-width:0;stroke-linecap:butt;stroke-linejoin:miter;stroke-miterlimit:10.43299961;stroke-dasharray:none;stroke-dashoffset:0;stroke-opacity:1" />
    </g>
  </g>
</svg>
