<?xml version="1.0" encoding="UTF-8" standalone="no"?>
<!-- Created with Inkscape (http://www.inkscape.org/) -->

<svg
   xmlns:dc="http://purl.org/dc/elements/1.1/"
   xmlns:cc="http://creativecommons.org/ns#"
   xmlns:rdf="http://www.w3.org/1999/02/22-rdf-syntax-ns#"
   xmlns:svg="http://www.w3.org/2000/svg"
   xmlns="http://www.w3.org/2000/svg"
   xmlns:sodipodi="http://sodipodi.sourceforge.net/DTD/sodipodi-0.dtd"
   xmlns:inkscape="http://www.inkscape.org/namespaces/inkscape"
   width="129.28395mm"
   height="81.31321mm"
   viewBox="0 0 458.09274 288.11768"
   id="svg2"
   version="1.1"
   inkscape:version="0.91 r13725"
   sodipodi:docname="direct_indirect.svg">
  <sodipodi:namedview
     id="base"
     pagecolor="#ffffff"
     bordercolor="#666666"
     borderopacity="1.0"
     inkscape:pageopacity="0.0"
     inkscape:pageshadow="2"
     inkscape:zoom="2.8"
     inkscape:cx="237.76573"
     inkscape:cy="129.39356"
     inkscape:document-units="px"
     inkscape:current-layer="layer1"
     showgrid="false"
     inkscape:window-width="1855"
     inkscape:window-height="1056"
     inkscape:window-x="65"
     inkscape:window-y="24"
     inkscape:window-maximized="1"
     inkscape:object-nodes="true"
     fit-margin-top="0"
     fit-margin-left="0"
     fit-margin-right="0"
     fit-margin-bottom="0"
     inkscape:object-paths="true"
     inkscape:snap-global="false" />
  <defs
     id="defs4">
    <marker
       inkscape:stockid="Arrow1Mend"
       orient="auto"
       refY="0"
       refX="0"
       id="marker24019"
       style="overflow:visible"
       inkscape:isstock="true">
      <path
         id="path24021"
         d="M 0,0 5,-5 -12.5,0 5,5 0,0 Z"
         style="fill:#ff0000;fill-opacity:1;fill-rule:evenodd;stroke:#ff0000;stroke-width:1pt;stroke-opacity:1"
         transform="matrix(-0.4,0,0,-0.4,-4,0)"
         inkscape:connector-curvature="0" />
    </marker>
    <marker
       inkscape:stockid="Arrow1Mend"
       orient="auto"
       refY="0"
       refX="0"
       id="marker24009"
       style="overflow:visible"
       inkscape:isstock="true">
      <path
         id="path24011"
         d="M 0,0 5,-5 -12.5,0 5,5 0,0 Z"
         style="fill:#0000ff;fill-opacity:1;fill-rule:evenodd;stroke:#0000ff;stroke-width:1pt;stroke-opacity:1"
         transform="matrix(-0.4,0,0,-0.4,-4,0)"
         inkscape:connector-curvature="0" />
    </marker>
    <marker
       inkscape:stockid="Arrow1Lend"
       orient="auto"
       refY="0"
       refX="0"
       id="marker23915"
       style="overflow:visible"
       inkscape:isstock="true">
      <path
         inkscape:connector-curvature="0"
         id="path23917"
         d="M 0,0 5,-5 -12.5,0 5,5 0,0 Z"
         style="fill:#ff0000;fill-opacity:1;fill-rule:evenodd;stroke:#ff0000;stroke-width:1pt;stroke-opacity:1"
         transform="matrix(-0.8,0,0,-0.8,-10,0)" />
    </marker>
    <marker
       inkscape:stockid="Arrow1Lend"
       orient="auto"
       refY="0"
       refX="0"
       id="marker23905"
       style="overflow:visible"
       inkscape:isstock="true">
      <path
         inkscape:connector-curvature="0"
         id="path23907"
         d="M 0,0 5,-5 -12.5,0 5,5 0,0 Z"
         style="fill:#0000ff;fill-opacity:1;fill-rule:evenodd;stroke:#0000ff;stroke-width:1pt;stroke-opacity:1"
         transform="matrix(-0.8,0,0,-0.8,-10,0)" />
    </marker>
    <marker
       inkscape:stockid="Arrow1Lend"
       orient="auto"
       refY="0"
       refX="0"
       id="marker23895"
       style="overflow:visible"
       inkscape:isstock="true">
      <path
         inkscape:connector-curvature="0"
         id="path23897"
         d="M 0,0 5,-5 -12.5,0 5,5 0,0 Z"
         style="fill:#ff0000;fill-opacity:1;fill-rule:evenodd;stroke:#ff0000;stroke-width:1pt;stroke-opacity:1"
         transform="matrix(-0.8,0,0,-0.8,-10,0)" />
    </marker>
    <marker
       inkscape:collect="always"
       inkscape:isstock="true"
       style="overflow:visible"
       id="marker23630"
       refX="0"
       refY="0"
       orient="auto"
       inkscape:stockid="Arrow1Lend">
      <path
         transform="matrix(-0.8,0,0,-0.8,-10,0)"
         style="fill:#000000;fill-opacity:1;fill-rule:evenodd;stroke:#000000;stroke-width:1pt;stroke-opacity:1"
         d="M 0,0 5,-5 -12.5,0 5,5 0,0 Z"
         id="path23632"
         inkscape:connector-curvature="0" />
    </marker>
    <marker
       inkscape:stockid="Arrow1Lend"
       orient="auto"
       refY="0"
       refX="0"
       id="marker23368"
       style="overflow:visible"
       inkscape:isstock="true"
       inkscape:collect="always">
      <path
         inkscape:connector-curvature="0"
         id="path23370"
         d="M 0,0 5,-5 -12.5,0 5,5 0,0 Z"
         style="fill:#000000;fill-opacity:1;fill-rule:evenodd;stroke:#000000;stroke-width:1pt;stroke-opacity:1"
         transform="matrix(-0.8,0,0,-0.8,-10,0)" />
    </marker>
    <marker
       inkscape:isstock="true"
       style="overflow:visible"
       id="marker23018"
       refX="0"
       refY="0"
       orient="auto"
       inkscape:stockid="Arrow1Lend">
      <path
         transform="matrix(-0.8,0,0,-0.8,-10,0)"
         style="fill:#000000;fill-opacity:1;fill-rule:evenodd;stroke:#000000;stroke-width:1pt;stroke-opacity:1"
         d="M 0,0 5,-5 -12.5,0 5,5 0,0 Z"
         id="path23020"
         inkscape:connector-curvature="0" />
    </marker>
    <marker
       inkscape:isstock="true"
       style="overflow:visible"
       id="marker22928"
       refX="0"
       refY="0"
       orient="auto"
       inkscape:stockid="Arrow1Lend">
      <path
         transform="matrix(-0.8,0,0,-0.8,-10,0)"
         style="fill:#000000;fill-opacity:1;fill-rule:evenodd;stroke:#000000;stroke-width:1pt;stroke-opacity:1"
         d="M 0,0 5,-5 -12.5,0 5,5 0,0 Z"
         id="path22930"
         inkscape:connector-curvature="0" />
    </marker>
    <marker
       inkscape:isstock="true"
       style="overflow:visible"
       id="marker22848"
       refX="0"
       refY="0"
       orient="auto"
       inkscape:stockid="Arrow1Lend">
      <path
         transform="matrix(-0.8,0,0,-0.8,-10,0)"
         style="fill:#000000;fill-opacity:1;fill-rule:evenodd;stroke:#000000;stroke-width:1pt;stroke-opacity:1"
         d="M 0,0 5,-5 -12.5,0 5,5 0,0 Z"
         id="path22850"
         inkscape:connector-curvature="0" />
    </marker>
    <marker
       inkscape:isstock="true"
       style="overflow:visible"
       id="marker22778"
       refX="0"
       refY="0"
       orient="auto"
       inkscape:stockid="Arrow1Lend">
      <path
         transform="matrix(-0.8,0,0,-0.8,-10,0)"
         style="fill:#000000;fill-opacity:1;fill-rule:evenodd;stroke:#000000;stroke-width:1pt;stroke-opacity:1"
         d="M 0,0 5,-5 -12.5,0 5,5 0,0 Z"
         id="path22780"
         inkscape:connector-curvature="0" />
    </marker>
    <marker
       inkscape:isstock="true"
       style="overflow:visible"
       id="marker22718"
       refX="0"
       refY="0"
       orient="auto"
       inkscape:stockid="Arrow1Lend">
      <path
         transform="matrix(-0.8,0,0,-0.8,-10,0)"
         style="fill:#000000;fill-opacity:1;fill-rule:evenodd;stroke:#000000;stroke-width:1pt;stroke-opacity:1"
         d="M 0,0 5,-5 -12.5,0 5,5 0,0 Z"
         id="path22720"
         inkscape:connector-curvature="0" />
    </marker>
    <marker
       inkscape:isstock="true"
       style="overflow:visible"
       id="marker22708"
       refX="0"
       refY="0"
       orient="auto"
       inkscape:stockid="Arrow1Lend">
      <path
         transform="matrix(-0.8,0,0,-0.8,-10,0)"
         style="fill:#000000;fill-opacity:1;fill-rule:evenodd;stroke:#000000;stroke-width:1pt;stroke-opacity:1"
         d="M 0,0 5,-5 -12.5,0 5,5 0,0 Z"
         id="path22710"
         inkscape:connector-curvature="0" />
    </marker>
    <marker
       inkscape:isstock="true"
       style="overflow:visible"
       id="marker5527"
       refX="0"
       refY="0"
       orient="auto"
       inkscape:stockid="Arrow1Lend">
      <path
         transform="matrix(-0.8,0,0,-0.8,-10,0)"
         style="fill:#000000;fill-opacity:1;fill-rule:evenodd;stroke:#000000;stroke-width:1pt;stroke-opacity:1"
         d="M 0,0 5,-5 -12.5,0 5,5 0,0 Z"
         id="path5529"
         inkscape:connector-curvature="0" />
    </marker>
    <marker
       inkscape:stockid="Arrow1Lend"
       orient="auto"
       refY="0"
       refX="0"
       id="marker5181"
       style="overflow:visible"
       inkscape:isstock="true">
      <path
         inkscape:connector-curvature="0"
         id="path5183"
         d="M 0,0 5,-5 -12.5,0 5,5 0,0 Z"
         style="fill:#000000;fill-opacity:1;fill-rule:evenodd;stroke:#000000;stroke-width:1pt;stroke-opacity:1"
         transform="matrix(-0.8,0,0,-0.8,-10,0)" />
    </marker>
  </defs>
  <metadata
     id="metadata7">
    <rdf:RDF>
      <cc:Work
         rdf:about="">
        <dc:format>image/svg+xml</dc:format>
        <dc:type
           rdf:resource="http://purl.org/dc/dcmitype/StillImage" />
        <dc:title></dc:title>
      </cc:Work>
    </rdf:RDF>
  </metadata>
  <g
     transform="translate(101.77335,-251.19038)"
     inkscape:label="Layer 1"
     inkscape:groupmode="layer"
     id="layer1">
    <path
       inkscape:connector-curvature="0"
       id="path4155"
       d="m 99.191146,539.30806 0,-281.22369"
       style="fill:none;fill-rule:evenodd;stroke:#000000;stroke-width:2.23564935;stroke-linecap:butt;stroke-linejoin:miter;stroke-miterlimit:4;stroke-dasharray:none;stroke-opacity:1;marker-end:url(#marker23630)" />
    <path
       sodipodi:nodetypes="cc"
       inkscape:connector-curvature="0"
       id="path4155-7"
       d="m -101.77335,486.80844 454.02377,0"
       style="fill:none;fill-rule:evenodd;stroke:#000000;stroke-width:2.23564935;stroke-linecap:butt;stroke-linejoin:miter;stroke-miterlimit:4;stroke-dasharray:none;stroke-opacity:1;marker-end:url(#marker23368)" />
    <g
       id="g23772"
       transform="matrix(1.5024523,0,0,1.5024523,51.136258,-270.9766)">
      <g
         id="g23776">
        <path
           style="fill:none;fill-rule:evenodd;stroke:#000000;stroke-width:1px;stroke-linecap:butt;stroke-linejoin:miter;stroke-opacity:1"
           d="m 149.78765,411.69489 c -21.78571,21.78571 -15.65736,-16.66752 -34.85025,-30.80965 -19.192896,-14.14214 -35.860415,-8.5863 -47.477165,8.08122 -11.61676,16.66752 -23.42322,17.57614 -35.534164,17.57614 -12.110944,0 -23.9174008,-0.90862 -35.5341608,-17.57614 C -15.22484,372.29894 -31.89236,366.7431 -51.08526,380.88524 c -19.192892,14.14213 -12.528834,53.13107 -34.850257,30.80965"
           id="path4915"
           inkscape:connector-curvature="0"
           sodipodi:nodetypes="csszssc" />
      </g>
    </g>
    <path
       style="fill:none;fill-rule:evenodd;stroke:#000000;stroke-width:1.50245237px;stroke-linecap:butt;stroke-linejoin:miter;stroke-opacity:1"
       d="m 99.862517,395.43114 c 37.942623,0 31.060743,55.94342 65.261353,61.46709 57.92205,9.35489 62.22593,30.35412 105.48056,31.11298"
       id="path4954"
       inkscape:connector-curvature="0"
       sodipodi:nodetypes="csc" />
    <path
       style="fill:none;fill-rule:evenodd;stroke:#000000;stroke-width:1.50245237px;stroke-linecap:butt;stroke-linejoin:miter;stroke-opacity:1"
       d="m 99.862517,395.43114 c -37.942654,0 -31.060747,55.94342 -65.261363,61.46709 -57.922056,9.35489 -62.225936,30.35412 -105.480562,31.11298"
       id="path4954-5"
       inkscape:connector-curvature="0"
       sodipodi:nodetypes="csc" />
    <path
       style="font-style:normal;font-variant:normal;font-weight:normal;font-stretch:normal;letter-spacing:normal;word-spacing:normal;text-anchor:start;fill:#000000;fill-opacity:1;fill-rule:evenodd;stroke:#000000;stroke-width:0;stroke-linecap:butt;stroke-linejoin:miter;stroke-miterlimit:10.43299961;stroke-dasharray:none;stroke-dashoffset:0;stroke-opacity:1"
       inkscape:connector-curvature="0"
       d="m 79.449967,263.28525 0,0 0.01878,0 0,-0.0188 0,0 0,-0.0188 0,-0.0188 0.01878,0 0,-0.0188 0,0 0,-0.0188 0.01878,-0.0188 0,0 0,-0.0375 0.01878,-0.0188 0,-0.0375 0.01878,-0.0188 0,-0.0188 0,-0.0188 0,-0.0188 0.01878,0 0,-0.0188 0,-0.0188 0,0 0,-0.0188 0,-0.0188 0,0 0,-0.0188 c 0,-0.13147 -0.112684,-0.26292 -0.262929,-0.26292 -0.112685,0 -0.169026,0.0188 -0.244149,0.11268 -0.05634,0.0188 -0.05634,0.0751 -0.30049,0.61976 -1.596356,3.77491 -2.741976,5.39005 -7.061526,5.39005 l -3.925157,0 c -0.375613,0 -0.431955,0 -0.600981,-0.0375 -0.30049,-0.0188 -0.319271,-0.0751 -0.319271,-0.30048 0,-0.1878 0.05634,-0.33805 0.112684,-0.5822 l 1.859285,-7.43714 2.666852,0 c 2.103434,0 2.253679,0.45073 2.253679,1.2583 0,0.28171 0,0.52586 -0.187807,1.33343 -0.05634,0.094 -0.07512,0.20658 -0.07512,0.28171 0,0.20658 0.131465,0.28171 0.30049,0.28171 0.244149,0 0.262929,-0.1878 0.375614,-0.56342 l 1.540013,-6.25396 c 0,-0.13146 -0.112683,-0.26292 -0.28171,-0.26292 -0.244148,0 -0.262929,0.0939 -0.375613,0.46951 -0.544639,2.08465 -1.070497,2.66685 -3.474421,2.66685 l -2.554169,0 1.671478,-6.62956 c 0.225368,-0.93904 0.28171,-1.01416 1.389769,-1.01416 l 3.850034,0 c 3.324176,0 4.000279,0.88269 4.000279,2.92978 0,0.0376 0,0.78879 -0.112683,1.67148 -0.03757,0.11268 -0.05634,0.26293 -0.05634,0.31926 0,0.22538 0.131465,0.3005 0.30049,0.3005 0.187807,0 0.300491,-0.11269 0.338053,-0.5822 l 0.5822,-4.71394 c 0,-0.094 0.05634,-0.35684 0.05634,-0.41318 0,-0.30051 -0.244149,-0.30051 -0.732446,-0.30051 l -13.146457,0 c -0.525859,0 -0.788788,0 -0.788788,0.48831 0,0.3005 0.187807,0.3005 0.638542,0.3005 1.671478,0 1.671478,0.1878 1.671478,0.48829 0,0.13147 -0.01878,0.24415 -0.0939,0.52587 l -3.643446,14.555 c -0.244149,0.93903 -0.300491,1.22074 -2.178556,1.22074 -0.507077,0 -0.788787,0 -0.788787,0.4883 0,0.28171 0.169025,0.28171 0.694884,0.28171 l 13.540851,0 c 0.5822,0 0.619761,-0.0188 0.807568,-0.45074 z"
       id="path5267" />
    <path
       style="font-style:normal;font-variant:normal;font-weight:normal;font-stretch:normal;letter-spacing:normal;word-spacing:normal;text-anchor:start;fill:#000000;fill-opacity:1;fill-rule:evenodd;stroke:#000000;stroke-width:0;stroke-linecap:butt;stroke-linejoin:miter;stroke-miterlimit:10.43299961;stroke-dasharray:none;stroke-dashoffset:0;stroke-opacity:1"
       inkscape:connector-curvature="0"
       d="m 347.00926,503.31905 0,-0.0188 0,-0.0188 0,0 0,-0.0188 0.0188,-0.0188 0,-0.0188 0,-0.0375 0.0188,-0.0188 0,-0.0188 0,-0.0375 0.0188,-0.0188 0,-0.0375 0,-0.0188 0,-0.0188 0.0188,-0.0375 0,-0.0188 0,-0.0188 0,-0.0188 0,0 0,-0.0188 c 0,-0.26293 -0.26293,-0.26293 -0.31928,-0.26293 -0.0375,0 -0.99537,0.0751 -1.48367,0.13147 -0.46952,0.0188 -0.86391,0.0751 -1.35219,0.0939 -0.63856,0.0563 -0.82636,0.0939 -0.82636,0.5822 0,0.26293 0.26294,0.26293 0.52587,0.26293 1.38977,0 1.38977,0.24415 1.38977,0.50708 0,0.11268 0,0.16902 -0.15024,0.65732 l -3.85004,15.40014 c -0.11268,0.41318 -0.11268,0.46952 -0.11268,0.61977 0,0.60097 0.46951,0.71365 0.73244,0.71365 0.75122,0 0.92026,-0.60098 1.12684,-1.42732 l 1.27708,-5.052 c 1.93441,0.22537 3.09881,1.03293 3.09881,2.3288 0,0.15024 0,0.26293 -0.0751,0.67611 -0.11269,0.39439 -0.11269,0.71366 -0.11269,0.84512 0,1.57758 1.01416,2.62929 2.38515,2.62929 1.23952,0 1.89684,-1.14561 2.10343,-1.52123 0.58219,-0.99537 0.92026,-2.49782 0.92026,-2.61051 0,-0.13146 -0.11269,-0.24415 -0.26294,-0.24415 -0.24416,0 -0.28171,0.11269 -0.37561,0.54465 -0.37561,1.40854 -0.95781,3.28661 -2.32881,3.28661 -0.52587,0 -0.88268,-0.26294 -0.88268,-1.29587 0,-0.50708 0.11268,-1.10805 0.20659,-1.50245 0.11268,-0.48829 0.11268,-0.52586 0.11268,-0.84513 0,-1.57757 -1.42731,-2.47904 -3.90638,-2.79832 0.9766,-0.60098 1.93441,-1.6527 2.3288,-2.04709 1.52123,-1.72782 2.57296,-2.59173 3.81249,-2.59173 0.61977,0 0.78878,0.16903 0.97658,0.31928 -0.99537,0.11267 -1.37098,0.80756 -1.37098,1.3522 0,0.65732 0.50707,0.86391 0.88269,0.86391 0.73244,0 1.37099,-0.61976 1.37099,-1.48367 0,-0.77001 -0.61977,-1.57758 -1.82174,-1.57758 -1.48366,0 -2.70441,1.05171 -4.62003,3.19271 -0.26293,0.31927 -1.25829,1.35222 -2.25368,1.72783 z"
       id="path5269" />
    <path
       style="fill:none;fill-rule:evenodd;stroke:#000000;stroke-width:1.50245237;stroke-linecap:butt;stroke-linejoin:miter;stroke-miterlimit:4;stroke-dasharray:4.50735702, 4.50735702;stroke-dashoffset:0;stroke-opacity:1"
       d="m -61.911015,357.71336 161.102159,0"
       id="path23780"
       inkscape:connector-curvature="0" />
    <g
       transform="matrix(1.5024523,0,0,1.5024523,10.917048,-294.318)"
       id="g23872">
      <path
         style="font-style:normal;font-variant:normal;font-weight:normal;font-stretch:normal;letter-spacing:normal;word-spacing:normal;text-anchor:start;fill:#000000;fill-opacity:1;fill-rule:evenodd;stroke:#000000;stroke-width:0;stroke-linecap:butt;stroke-linejoin:miter;stroke-miterlimit:10.43299961;stroke-dasharray:none;stroke-dashoffset:0;stroke-opacity:1"
         inkscape:connector-curvature="0"
         d="m -30.25346,446.5927 0,0 0.0125,-0.0125 0,0 0,-0.0125 0,0 0,-0.0125 0.0125,0 0,-0.0125 0,-0.0125 0,0 0.0125,-0.0125 0,-0.0125 0,-0.0125 0.0125,-0.0125 0,-0.025 0.0125,-0.0125 0,-0.025 0,0 0,-0.0125 0.0125,-0.0125 0,0 0,-0.0125 0,-0.0125 0,0 0,-0.0125 0,0 0,-0.0125 c 0,-0.0875 -0.075,-0.175 -0.175,-0.175 -0.075,0 -0.1125,0.0125 -0.1625,0.0625 -0.0375,0.025 -0.0375,0.0625 -0.2,0.4125 -1.0625,2.5125 -1.825,3.5875 -4.7,3.5875 l -2.6125,0 c -0.25,0 -0.2875,0 -0.4,-0.0125 -0.2,-0.0125 -0.2125,-0.05 -0.2125,-0.2 0,-0.125 0.0375,-0.225 0.075,-0.3875 l 1.2375,-4.95 1.775,0 c 1.4,0 1.5,0.3 1.5,0.8375 0,0.175 0,0.3375 -0.125,0.875 -0.0375,0.075 -0.05,0.15 -0.05,0.2 0,0.125 0.0875,0.1875 0.2,0.1875 0.1625,0 0.175,-0.1375 0.25,-0.3875 l 1.025,-4.15 c 0,-0.1 -0.075,-0.1875 -0.1875,-0.1875 -0.1625,0 -0.175,0.075 -0.25,0.325 -0.3625,1.375 -0.7125,1.775 -2.3125,1.775 l -1.7,0 1.1125,-4.4125 c 0.15,-0.625 0.1875,-0.675 0.925,-0.675 l 2.5625,0 c 2.2125,0 2.6625,0.5875 2.6625,1.95 0,0.0125 0,0.525 -0.075,1.1125 -0.025,0.075 -0.0375,0.175 -0.0375,0.2125 0,0.15 0.0875,0.2 0.2,0.2 0.125,0 0.2,-0.075 0.225,-0.4 l 0.3875,-3.1375 c 0,-0.05 0.0375,-0.225 0.0375,-0.2625 0,-0.2 -0.1625,-0.2 -0.4875,-0.2 l -8.75,0 c -0.35,0 -0.525,0 -0.525,0.325 0,0.2 0.125,0.2 0.425,0.2 1.1125,0 1.1125,0.125 1.1125,0.3125 0,0.1 -0.0125,0.1625 -0.0625,0.3625 l -2.425,9.6875 c -0.1625,0.625 -0.2,0.8 -1.45,0.8 -0.3375,0 -0.525,0 -0.525,0.325 0,0.2 0.1125,0.2 0.4625,0.2 l 9.0125,0 c 0.3875,0 0.4125,-0.0125 0.5375,-0.3 z"
         id="path23818" />
      <path
         style="font-style:normal;font-variant:normal;font-weight:normal;font-stretch:normal;letter-spacing:normal;word-spacing:normal;text-anchor:start;fill:#000000;fill-opacity:1;fill-rule:evenodd;stroke:#000000;stroke-width:0;stroke-linecap:butt;stroke-linejoin:miter;stroke-miterlimit:10.43299961;stroke-dasharray:none;stroke-dashoffset:0;stroke-opacity:1"
         inkscape:connector-curvature="0"
         d="m -20.25346,444.7927 0,0 0,-0.0125 0,0 0,0 0,-0.0125 0,0 0,-0.0125 -0.0125,0 0,0 0,-0.0125 0,0 0,-0.0125 0,0 -0.0125,0 0,-0.0125 0,0 -0.0125,-0.0125 0,0 0,0 -0.0125,-0.0125 0,0 -0.0125,0 0,-0.0125 -0.0125,0 0,0 0,0 -0.0125,0 0,-0.0125 0,0 -0.0125,0 0,0 0,0 -0.0125,0 0,0 0,0 -0.0125,0 0,0 -0.0125,0 0,0 c -0.0375,0 -0.05,0.0125 -0.1875,0.15 l -0.875,0.9625 c -0.1125,-0.175 -0.675,-1.1125 -2.0625,-1.1125 -2.775,0 -5.575,2.75 -5.575,5.6375 0,1.9875 1.375,3.4125 3.3875,3.4125 0.55,0 1.1125,-0.1125 1.5625,-0.3 0.625,-0.25 0.8625,-0.5125 1.0875,-0.7625 0.1125,0.3125 0.4375,0.775 0.5625,0.775 0.0625,0 0.0875,-0.0375 0.0875,-0.05 0.025,-0.025 0.1375,-0.5 0.2125,-0.75 l 0.225,-0.9625 c 0.05,-0.2125 0.1125,-0.425 0.1625,-0.6375 0.1375,-0.5625 0.15,-0.5875 0.8625,-0.6 0.0625,0 0.2,-0.0125 0.2,-0.25 0,-0.0875 -0.0625,-0.1375 -0.1625,-0.1375 -0.2875,0 -1.025,0.0375 -1.3,0.0375 -0.3875,0 -1.3625,-0.0375 -1.75,-0.0375 -0.1125,0 -0.2625,0 -0.2625,0.25 0,0.1375 0.1,0.1375 0.375,0.1375 0.0125,0 0.375,0 0.6625,0.025 0.325,0.0375 0.3875,0.075 0.3875,0.2375 0,0.1125 -0.1375,0.675 -0.2625,1.1375 -0.35,1.3625 -1.975,1.5 -2.4,1.5 -1.2,0 -2.5125,-0.7 -2.5125,-2.6125 0,-0.3875 0.125,-2.4375 1.4375,-4.0625 0.675,-0.8375 1.875,-1.6 3.1125,-1.6 1.2625,0 2,0.95 2,2.4 0,0.5 -0.0375,0.5125 -0.0375,0.6375 0,0.125 0.1375,0.125 0.1875,0.125 0.1625,0 0.1625,-0.025 0.225,-0.25 z"
         id="path23820" />
    </g>
    <g
       transform="matrix(1.5024523,0,0,1.5024523,171.33245,-328.06979)"
       id="g23876">
      <path
         style="font-style:normal;font-variant:normal;font-weight:normal;font-stretch:normal;letter-spacing:normal;word-spacing:normal;text-anchor:start;fill:#000000;fill-opacity:1;fill-rule:evenodd;stroke:#000000;stroke-width:0;stroke-linecap:butt;stroke-linejoin:miter;stroke-miterlimit:10.43299961;stroke-dasharray:none;stroke-dashoffset:0;stroke-opacity:1"
         inkscape:connector-curvature="0"
         d="m -0.97846,446.5927 0,0 0,-0.0125 0,0 0,-0.0125 0.0125,0 0,-0.0125 0,0 0,-0.0125 0.0125,-0.0125 0,0 0,-0.0125 0,-0.0125 0.0125,-0.0125 0,-0.0125 0.0125,-0.025 0,-0.0125 0.0125,-0.025 0,0 0,-0.0125 0,-0.0125 0,0 0,-0.0125 0,-0.0125 0,0 0.0125,-0.0125 0,0 0,-0.0125 c 0,-0.0875 -0.075,-0.175 -0.1875,-0.175 -0.075,0 -0.1,0.0125 -0.1625,0.0625 -0.0375,0.025 -0.0375,0.0625 -0.1875,0.4125 -1.0625,2.5125 -1.8375,3.5875 -4.7,3.5875 l -2.625,0 c -0.25,0 -0.2875,0 -0.3875,-0.0125 -0.2,-0.0125 -0.225,-0.05 -0.225,-0.2 0,-0.125 0.0375,-0.225 0.075,-0.3875 l 1.2375,-4.95 1.775,0 c 1.4,0 1.5125,0.3 1.5125,0.8375 0,0.175 0,0.3375 -0.125,0.875 -0.0375,0.075 -0.0625,0.15 -0.0625,0.2 0,0.125 0.1,0.1875 0.2,0.1875 0.1625,0 0.175,-0.1375 0.25,-0.3875 l 1.025,-4.15 c 0,-0.1 -0.075,-0.1875 -0.175,-0.1875 -0.1625,0 -0.1875,0.075 -0.2625,0.325 -0.35,1.375 -0.7125,1.775 -2.3,1.775 l -1.7125,0 1.1125,-4.4125 c 0.1625,-0.625 0.2,-0.675 0.9375,-0.675 l 2.5625,0 c 2.2,0 2.65,0.5875 2.65,1.95 0,0.0125 0,0.525 -0.0625,1.1125 -0.025,0.075 -0.0375,0.175 -0.0375,0.2125 0,0.15 0.0875,0.2 0.1875,0.2 0.125,0 0.2,-0.075 0.2375,-0.4 l 0.375,-3.1375 c 0,-0.05 0.0375,-0.225 0.0375,-0.2625 0,-0.2 -0.1625,-0.2 -0.4875,-0.2 l -8.75,0 c -0.3375,0 -0.5125,0 -0.5125,0.325 0,0.2 0.125,0.2 0.425,0.2 1.1125,0 1.1125,0.125 1.1125,0.3125 0,0.1 -0.0125,0.1625 -0.075,0.3625 l -2.4125,9.6875 c -0.1625,0.625 -0.2,0.8 -1.4625,0.8 -0.3375,0 -0.5125,0 -0.5125,0.325 0,0.2 0.1,0.2 0.4625,0.2 l 9,0 c 0.4,0 0.4125,-0.0125 0.5375,-0.3 z"
         id="path23822" />
      <path
         style="font-style:normal;font-variant:normal;font-weight:normal;font-stretch:normal;letter-spacing:normal;word-spacing:normal;text-anchor:start;fill:#000000;fill-opacity:1;fill-rule:evenodd;stroke:#000000;stroke-width:0;stroke-linecap:butt;stroke-linejoin:miter;stroke-miterlimit:10.43299961;stroke-dasharray:none;stroke-dashoffset:0;stroke-opacity:1"
         inkscape:connector-curvature="0"
         d="m 3.74654,438.3302 0.0125,-0.025 0.0125,-0.025 0.0125,-0.025 0.0125,-0.025 0.0125,-0.025 0,-0.025 0.0125,-0.025 0.0125,-0.025 0,-0.025 0.0125,-0.025 0,-0.0125 0.0125,-0.025 0,-0.025 0,-0.025 0,-0.025 0,-0.0125 0,-0.0125 c 0,-0.3625 -0.325,-0.65 -0.7125,-0.65 -0.3375,0 -0.5625,0.2375 -0.65,0.55 l -1.4875,5.45 c 0,0.025 -0.05,0.1625 -0.05,0.175 0,0.1375 0.325,0.225 0.425,0.225 0.075,0 0.0875,-0.0375 0.1625,-0.2 z"
         id="path23824" />
      <path
         style="font-style:normal;font-variant:normal;font-weight:normal;font-stretch:normal;letter-spacing:normal;word-spacing:normal;text-anchor:start;fill:#000000;fill-opacity:1;fill-rule:evenodd;stroke:#000000;stroke-width:0;stroke-linecap:butt;stroke-linejoin:miter;stroke-miterlimit:10.43299961;stroke-dasharray:none;stroke-dashoffset:0;stroke-opacity:1"
         inkscape:connector-curvature="0"
         d="m 9.00904,446.5302 0,0 0,0 0,-0.0125 0,0 0,0 0,-0.0125 0,0 0,0 0,-0.0125 0,0 -0.0125,-0.0125 0,0 0,-0.0125 0,0 0,0 -0.0125,-0.0125 0,0 0,-0.0125 -0.0125,0 0,0 -0.0125,-0.0125 0,0 -0.0125,0 0,0 -0.0125,-0.0125 0,0 0,0 -0.0125,0 0,0 0,0 -0.0125,0 0,0 0,0 -0.0125,0 0,-0.0125 0,0 -0.0125,0 0,0 -0.0125,0 c -0.0375,0 -0.0375,0.0125 -0.1875,0.15 l -0.8625,0.9625 c -0.1125,-0.175 -0.6875,-1.1125 -2.075,-1.1125 -2.775,0 -5.575,2.7625 -5.575,5.65 0,1.975 1.3875,3.4125 3.4,3.4125 0.55,0 1.1125,-0.1125 1.5625,-0.3 0.6125,-0.25 0.85,-0.5125 1.075,-0.7625 0.1125,0.3125 0.4375,0.775 0.5625,0.775 0.0625,0 0.0875,-0.0375 0.0875,-0.05 0.025,-0.025 0.15,-0.5 0.2125,-0.7625 l 0.2375,-0.9625 c 0.05,-0.2125 0.1125,-0.425 0.1625,-0.625 0.1375,-0.5625 0.15,-0.5875 0.8625,-0.6 0.0625,0 0.2,-0.0125 0.2,-0.25 0,-0.0875 -0.0625,-0.1375 -0.1625,-0.1375 -0.2875,0 -1.025,0.0375 -1.3125,0.0375 -0.3875,0 -1.3625,-0.0375 -1.7375,-0.0375 -0.1125,0 -0.2625,0 -0.2625,0.25 0,0.1375 0.1,0.1375 0.375,0.1375 0,0 0.3625,0 0.65,0.025 0.325,0.0375 0.3875,0.075 0.3875,0.2375 0,0.1125 -0.1375,0.6625 -0.2625,1.125 -0.35,1.375 -1.9625,1.5125 -2.4,1.5125 -1.2,0 -2.5,-0.7125 -2.5,-2.6125 0,-0.3875 0.125,-2.45 1.425,-4.0625 0.675,-0.85 1.8875,-1.6125 3.1125,-1.6125 1.275,0 2.0125,0.9625 2.0125,2.4125 0,0.4875 -0.0375,0.5 -0.0375,0.625 0,0.125 0.1375,0.125 0.1875,0.125 0.1625,0 0.1625,-0.025 0.225,-0.25 z"
         id="path23826" />
    </g>
    <path
       inkscape:connector-curvature="0"
       id="path23881"
       d="m 99.191144,341.24742 49.836466,0"
       style="fill:none;fill-rule:evenodd;stroke:#000000;stroke-width:1.50245237;stroke-linecap:butt;stroke-linejoin:miter;stroke-miterlimit:4;stroke-dasharray:4.50735702, 4.50735702;stroke-dashoffset:0;stroke-opacity:1" />
    <g
       id="g4995">
      <path
         style="color:#000000;font-style:normal;font-variant:normal;font-weight:normal;font-stretch:normal;font-size:medium;line-height:normal;font-family:sans-serif;text-indent:0;text-align:start;text-decoration:none;text-decoration-line:none;text-decoration-style:solid;text-decoration-color:#000000;letter-spacing:normal;word-spacing:normal;text-transform:none;direction:ltr;block-progression:tb;writing-mode:lr-tb;baseline-shift:baseline;text-anchor:start;white-space:normal;clip-rule:nonzero;display:inline;overflow:visible;visibility:visible;opacity:1;isolation:auto;mix-blend-mode:normal;color-interpolation:sRGB;color-interpolation-filters:linearRGB;solid-color:#000000;solid-opacity:1;fill:#ff0000;fill-opacity:1;fill-rule:evenodd;stroke:none;stroke-width:1.50245237px;stroke-linecap:butt;stroke-linejoin:miter;stroke-miterlimit:4;stroke-dasharray:none;stroke-dashoffset:0;stroke-opacity:1;color-rendering:auto;image-rendering:auto;shape-rendering:auto;text-rendering:auto;enable-background:accumulate"
         d="m 101.53125,359.03906 -1.38477,0.58203 c 0,0 2.70326,6.43747 4.00586,14.03321 0.65131,3.79786 0.94657,7.87574 0.39844,11.54101 -0.54813,3.66527 -1.91884,6.88978 -4.574218,9.13672 l 0.968748,1.14649 c 3.00244,-2.54061 4.50818,-6.15801 5.0918,-10.06055 0.58362,-3.90255 0.26626,-8.1188 -0.40234,-12.01758 -1.33722,-7.79755 -4.10352,-14.36133 -4.10352,-14.36133 z"
         id="path23883"
         inkscape:connector-curvature="0" />
      <path
         inkscape:connector-curvature="0"
         style="fill:#ff0000;fill-opacity:1;fill-rule:evenodd;stroke:#ff0000;stroke-width:0.60098095pt;stroke-opacity:1"
         d="m 103.16963,364.87012 3.935,1.60457 -6.84804,-8.52904 1.30846,10.85947 1.60458,-3.935 z"
         id="path5001" />
    </g>
    <g
       id="g5003">
      <path
         style="color:#000000;font-style:normal;font-variant:normal;font-weight:normal;font-stretch:normal;font-size:medium;line-height:normal;font-family:sans-serif;text-indent:0;text-align:start;text-decoration:none;text-decoration-line:none;text-decoration-style:solid;text-decoration-color:#000000;letter-spacing:normal;word-spacing:normal;text-transform:none;direction:ltr;block-progression:tb;writing-mode:lr-tb;baseline-shift:baseline;text-anchor:start;white-space:normal;clip-rule:nonzero;display:inline;overflow:visible;visibility:visible;opacity:1;isolation:auto;mix-blend-mode:normal;color-interpolation:sRGB;color-interpolation-filters:linearRGB;solid-color:#000000;solid-opacity:1;fill:#ff0000;fill-opacity:1;fill-rule:evenodd;stroke:none;stroke-width:1.50245237px;stroke-linecap:butt;stroke-linejoin:miter;stroke-miterlimit:4;stroke-dasharray:none;stroke-dashoffset:0;stroke-opacity:1;color-rendering:auto;image-rendering:auto;shape-rendering:auto;text-rendering:auto;enable-background:accumulate"
         d="m 96.697266,339.92188 c 0,0 -2.762684,10.77302 -4.097657,22.99023 -0.667486,6.1086 -0.981947,12.58228 -0.404297,18.29101 0.577651,5.70874 2.022719,10.68679 5.078126,13.74219 l 1.0625,-1.0625 c -2.635988,-2.63598 -4.083903,-7.29151 -4.644532,-12.83203 -0.560629,-5.54052 -0.258161,-11.93185 0.402344,-17.97656 1.32101,-12.08943 4.058594,-22.7793 4.058594,-22.7793 l -1.455078,-0.37304 z"
         id="path23885"
         inkscape:connector-curvature="0" />
      <path
         inkscape:connector-curvature="0"
         id="path5009"
         d="m 95.933195,345.9307 2.164578,3.65698 -0.299075,-10.93393 -5.522483,9.44153 3.65698,-2.16458 z"
         style="fill:#ff0000;fill-opacity:1;fill-rule:evenodd;stroke:#ff0000;stroke-width:0.60098095pt;stroke-opacity:1" />
    </g>
    <g
       id="g4981">
      <path
         style="color:#000000;font-style:normal;font-variant:normal;font-weight:normal;font-stretch:normal;font-size:medium;line-height:normal;font-family:sans-serif;text-indent:0;text-align:start;text-decoration:none;text-decoration-line:none;text-decoration-style:solid;text-decoration-color:#000000;letter-spacing:normal;word-spacing:normal;text-transform:none;direction:ltr;block-progression:tb;writing-mode:lr-tb;baseline-shift:baseline;text-anchor:start;white-space:normal;clip-rule:nonzero;display:inline;overflow:visible;visibility:visible;opacity:1;isolation:auto;mix-blend-mode:normal;color-interpolation:sRGB;color-interpolation-filters:linearRGB;solid-color:#000000;solid-opacity:1;fill:#0000ff;fill-opacity:1;fill-rule:evenodd;stroke:none;stroke-width:1.50245237px;stroke-linecap:butt;stroke-linejoin:miter;stroke-miterlimit:4;stroke-dasharray:none;stroke-dashoffset:0;stroke-opacity:1;color-rendering:auto;image-rendering:auto;shape-rendering:auto;text-rendering:auto;enable-background:accumulate"
         d="m 16.933594,349.35742 c -44.00024,1.07577 -79.001953,7.4668 -79.001953,7.4668 l 0.269531,1.47851 c 0,0 89.483325,-16.27205 161.726562,-1.14257 l 0.308596,-1.47071 c -27.26164,-5.70924 -56.902592,-6.97749 -83.302736,-6.33203 z"
         id="path23887"
         inkscape:connector-curvature="0" />
      <path
         inkscape:connector-curvature="0"
         style="fill:#0000ff;fill-opacity:1;fill-rule:evenodd;stroke:#0000ff;stroke-width:0.60098095pt;stroke-opacity:1"
         d="m -56.021067,356.4855 2.417599,-3.49487 -9.808185,4.84146 10.885457,1.07101 -3.494871,-2.4176 z"
         id="path4987" />
    </g>
    <g
       id="g24291"
       transform="matrix(1.5024523,0,0,1.5024523,147.18589,-428.7341)">
      <path
         id="path24170"
         d="m -17.886841,532.83339 -0.03727,0 -0.02982,0 -0.02982,0 -0.02982,0 -0.02236,0 -0.02982,0 -0.02982,0 -0.02236,0 -0.02982,0 -0.02236,0 -0.02236,0 -0.02236,0 -0.02236,0 -0.02236,0 -0.04472,-0.007 -0.03727,0 -0.03727,0 -0.03727,-0.007 -0.02982,-0.007 -0.02982,-0.007 -0.02982,-0.007 -0.02236,-0.007 -0.02236,-0.0149 -0.02236,-0.007 -0.02236,-0.0149 -0.01491,-0.0149 -0.01491,-0.0149 -0.01491,-0.0224 -0.01491,-0.0149 -0.0075,-0.0224 -0.0075,-0.0298 -0.0075,-0.0224 -0.0075,-0.0298 -0.0075,-0.0298 0,-0.0373 -0.0075,-0.0373 0,-0.0373 0,-0.0149 0,-0.0224 0,-0.0224 0,-0.0224 0,-1.86351 c 0.193805,0.26835 0.626139,0.68577 1.31191,0.68577 l -0.05218,-0.21616 c -0.335431,0 -0.641046,-0.13418 -0.857213,-0.33543 -0.245983,-0.24599 -0.402518,-0.46215 -0.402518,-0.76032 l 0,-2.20639 c 0,-0.20126 0,-0.21616 0.111811,-0.38761 0.327977,-0.47706 0.849759,-0.67831 1.252277,-0.67831 0.805035,0 1.446082,0.96902 1.446082,2.16912 0,1.27464 -0.730495,2.19894 -1.550439,2.19894 l 0.05218,0.21616 c 1.229915,0 2.310749,-1.03611 2.310749,-2.4151 0,-1.35663 -1.006294,-2.40765 -2.169123,-2.40765 -0.939208,0 -1.446082,0.67831 -1.475898,0.71558 l 0,-0.71558 -1.490806,0.11926 0,0.30562 c 0.752857,0 0.819944,0.0745 0.819944,0.55159 l 0,5.02402 c 0,0.47706 -0.119265,0.47706 -0.819944,0.47706 l 0,0.31307 c 0.283253,-0.0224 0.857214,-0.0224 1.155375,-0.0224 0.313069,0 0.887029,0 1.170283,0.0224 z"
         inkscape:connector-curvature="0"
         style="font-style:normal;font-variant:normal;font-weight:normal;font-stretch:normal;letter-spacing:normal;word-spacing:normal;text-anchor:start;fill:#ff0000;fill-opacity:1;fill-rule:evenodd;stroke:#000000;stroke-width:0;stroke-linecap:butt;stroke-linejoin:miter;stroke-miterlimit:10.43299961;stroke-dasharray:none;stroke-dashoffset:0;stroke-opacity:1" />
      <path
         id="path24172"
         d="m -9.9333915,528.47278 0,-0.0894 0,-0.0895 0,-0.082 0,-0.082 0,-0.0745 0,-0.0745 0,-0.0671 0,-0.0671 0,-0.0671 -0.00745,-0.0596 0,-0.0522 0,-0.0596 -0.00745,-0.0522 0,-0.0522 -0.00745,-0.0447 -0.00745,-0.0447 -0.00745,-0.0447 0,-0.0447 -0.014908,-0.0447 -0.00745,-0.0373 -0.00745,-0.0373 -0.0075,-0.0373 -0.01491,-0.0373 -0.01491,-0.0298 -0.0075,-0.0373 -0.01491,-0.0373 -0.01491,-0.0298 -0.02236,-0.0298 -0.01491,-0.0373 -0.02236,-0.0298 -0.02236,-0.0298 -0.02236,-0.0298 c -0.305615,-0.41743 -0.812489,-0.48451 -1.170282,-0.48451 -0.9243,0 -1.34918,0.69322 -1.49826,1.02865 l -0.01491,0 0,-3.73447 -1.483352,0.11927 0,0.30561 c 0.730495,0 0.812489,0.082 0.812489,0.60378 l 0,5.60543 c 0,0.47706 -0.119264,0.47706 -0.812489,0.47706 l 0,0.31307 c 0.275799,-0.0224 0.857213,-0.0224 1.155374,-0.0224 0.305616,0 0.88703,0 1.162829,0.0224 l 0,-0.31307 c -0.685771,0 -0.812489,0 -0.812489,-0.47706 l 0,-1.99023 c 0,-1.12555 0.737949,-1.72188 1.401357,-1.72188 0.663409,0 0.81249,0.54415 0.81249,1.2001 l 0,2.51201 c 0,0.47706 -0.119265,0.47706 -0.81249,0.47706 l 0,0.31307 c 0.2758,-0.0224 0.857214,-0.0224 1.155375,-0.0224 0.3130728,0 0.8870331,0 1.1628322,0.0224 l 0,-0.31307 c -0.5292361,0 -0.7975812,0 -0.8124892,-0.32052 z"
         inkscape:connector-curvature="0"
         style="font-style:normal;font-variant:normal;font-weight:normal;font-stretch:normal;letter-spacing:normal;word-spacing:normal;text-anchor:start;fill:#ff0000;fill-opacity:1;fill-rule:evenodd;stroke:#000000;stroke-width:0;stroke-linecap:butt;stroke-linejoin:miter;stroke-miterlimit:10.43299961;stroke-dasharray:none;stroke-dashoffset:0;stroke-opacity:1" />
      <path
         id="path24174"
         d="m -3.9701676,528.78585 0,-0.13417 -0.00745,-0.12672 -0.014908,-0.11926 -0.022362,-0.12672 -0.022362,-0.11927 -0.03727,-0.11926 -0.029816,-0.11181 -0.044724,-0.11181 -0.044724,-0.11181 -0.052178,-0.10436 -0.059632,-0.10436 -0.059632,-0.10435 -0.059632,-0.0969 -0.07454,-0.0894 -0.067086,-0.0969 -0.081994,-0.082 -0.07454,-0.082 -0.089448,-0.0745 -0.081994,-0.0745 -0.089448,-0.0745 -0.096902,-0.0596 -0.096902,-0.0596 -0.096902,-0.0522 -0.096902,-0.0522 -0.1043564,-0.0447 -0.1043565,-0.0373 -0.1118104,-0.0373 -0.1118105,-0.0224 -0.1043564,-0.0224 -0.1192644,-0.0149 -0.1118105,-0.0149 -0.1192645,0 -0.00745,0.21617 c 0.4174257,0 0.8646675,0.18635 1.1553746,0.60377 0.3354314,0.49197 0.3354314,1.17028 0.3354314,1.56535 0,0.3727 0,1.03611 -0.2832532,1.53553 -0.2981612,0.51433 -0.7901271,0.72304 -1.2000988,0.72304 l 0,0 c -0.3950636,0 -0.8721215,-0.17144 -1.1851907,-0.70068 -0.2907072,-0.47706 -0.2981612,-1.11065 -0.2981612,-1.55789 0,-0.40997 0,-1.05847 0.3354313,-1.54299 0.2981612,-0.45469 0.7677651,-0.62613 1.1404666,-0.62613 l 0.00745,-0.21617 c -1.2820931,0 -2.2958412,1.13301 -2.2958412,2.48219 0,1.36409 1.0659263,2.39274 2.2883872,2.39274 1.259731,0 2.2958412,-1.05101 2.2958412,-2.39274 z"
         inkscape:connector-curvature="0"
         style="font-style:normal;font-variant:normal;font-weight:normal;font-stretch:normal;letter-spacing:normal;word-spacing:normal;text-anchor:start;fill:#ff0000;fill-opacity:1;fill-rule:evenodd;stroke:#000000;stroke-width:0;stroke-linecap:butt;stroke-linejoin:miter;stroke-miterlimit:10.43299961;stroke-dasharray:none;stroke-dashoffset:0;stroke-opacity:1" />
      <path
         id="path24176"
         d="m -1.838315,526.77326 1.50571399,0 0,-0.31307 -1.50571399,0 0,-1.96786 -0.238529,0 c -0.00745,1.00629 -0.3950636,2.03495 -1.3640875,2.06477 l 0,0.21616 0.9019376,0 0,2.97416 c 0,1.18519 0.7975812,1.43117 1.3640875,1.43117 0.67086271,0 1.02120211,-0.6634 1.02120211,-1.43117 l 0,-0.61123 -0.23107492,0 0,0.58887 c 0,0.76776 -0.31306926,1.22246 -0.73049489,1.22246 -0.7230409,0 -0.7230409,-0.99884 -0.7230409,-1.17774 z"
         inkscape:connector-curvature="0"
         style="font-style:normal;font-variant:normal;font-weight:normal;font-stretch:normal;letter-spacing:normal;word-spacing:normal;text-anchor:start;fill:#ff0000;fill-opacity:1;fill-rule:evenodd;stroke:#000000;stroke-width:0;stroke-linecap:butt;stroke-linejoin:miter;stroke-miterlimit:10.43299961;stroke-dasharray:none;stroke-dashoffset:0;stroke-opacity:1" />
      <path
         id="path24178"
         d="m 5.3399157,528.78585 0,-0.13417 -0.00745,-0.12672 -0.014908,-0.11926 -0.022362,-0.12672 -0.029816,-0.11927 -0.029816,-0.11926 -0.03727,-0.11181 -0.03727,-0.11181 -0.052178,-0.11181 -0.044724,-0.10436 -0.059632,-0.10436 -0.059632,-0.10435 -0.067086,-0.0969 -0.067086,-0.0894 -0.07454,-0.0969 -0.07454,-0.082 -0.081994,-0.082 -0.081994,-0.0745 -0.081994,-0.0745 -0.096902,-0.0745 -0.089448,-0.0596 -0.096902,-0.0596 -0.096902,-0.0522 -0.1043564,-0.0522 -0.1043564,-0.0447 -0.1043564,-0.0373 -0.1043565,-0.0373 -0.1118104,-0.0224 -0.1118105,-0.0224 -0.1118104,-0.0149 -0.1118105,-0.0149 -0.1192644,0 -0.00745,0.21617 c 0.4174257,0 0.8646675,0.18635 1.1553747,0.60377 0.3279773,0.49197 0.3279773,1.17028 0.3279773,1.56535 0,0.3727 0,1.03611 -0.2757991,1.53553 -0.2981612,0.51433 -0.7901272,0.72304 -1.2000988,0.72304 l 0,0 c -0.3950636,0 -0.8721215,-0.17144 -1.1851908,-0.70068 -0.2907072,-0.47706 -0.2981612,-1.11065 -0.2981612,-1.55789 0,-0.40997 0,-1.05847 0.3279773,-1.54299 0.3056153,-0.45469 0.7752191,-0.62613 1.1479206,-0.62613 l 0.00745,-0.21617 c -1.2820932,0 -2.29584124,1.13301 -2.29584124,2.48219 0,1.36409 1.06592624,2.39274 2.28838714,2.39274 1.2597311,0 2.2958412,-1.05101 2.2958412,-2.39274 z"
         inkscape:connector-curvature="0"
         style="font-style:normal;font-variant:normal;font-weight:normal;font-stretch:normal;letter-spacing:normal;word-spacing:normal;text-anchor:start;fill:#ff0000;fill-opacity:1;fill-rule:evenodd;stroke:#000000;stroke-width:0;stroke-linecap:butt;stroke-linejoin:miter;stroke-miterlimit:10.43299961;stroke-dasharray:none;stroke-dashoffset:0;stroke-opacity:1" />
      <path
         id="path24180"
         d="m 10.431018,528.47278 0,-0.0894 0,-0.0895 0,-0.082 0,-0.082 0,-0.0745 0,-0.0745 0,-0.0671 -0.0075,-0.0671 0,-0.0671 0,-0.0596 0,-0.0522 -0.0075,-0.0596 0,-0.0522 -0.0075,-0.0522 0,-0.0447 -0.0075,-0.0447 -0.0075,-0.0447 -0.0075,-0.0447 -0.0075,-0.0447 -0.0075,-0.0373 -0.0075,-0.0373 -0.01491,-0.0373 -0.0075,-0.0373 -0.01491,-0.0298 -0.01491,-0.0373 -0.01491,-0.0373 -0.01491,-0.0298 -0.01491,-0.0298 -0.02236,-0.0373 -0.01491,-0.0298 -0.02236,-0.0298 -0.02236,-0.0298 c -0.3130691,-0.41743 -0.8124891,-0.48451 -1.1777365,-0.48451 -1.0361102,0 -1.4460818,0.88703 -1.5280762,1.10319 l -0.014908,0 0,-1.10319 -1.4535359,0.11926 0,0.30562 c 0.730495,0 0.8124893,0.0745 0.8124893,0.60377 l 0,2.89962 c 0,0.47706 -0.1118104,0.47706 -0.8124893,0.47706 l 0,0.31307 c 0.2832532,-0.0224 0.8572135,-0.0224 1.1553747,-0.0224 0.3130692,0 0.8870295,0 1.1702827,0.0224 l 0,-0.31307 c -0.6857708,0 -0.8124893,0 -0.8124893,-0.47706 l 0,-1.99023 c 0,-1.12555 0.737949,-1.72188 1.4013576,-1.72188 0.6634087,0 0.8124893,0.54415 0.8124893,1.2001 l 0,2.51201 c 0,0.47706 -0.1192645,0.47706 -0.8124893,0.47706 l 0,0.31307 c 0.2757991,-0.0224 0.8497594,-0.0224 1.1553749,-0.0224 0.305615,0 0.887029,0 1.162828,0.0224 l 0,-0.31307 c -0.53669,0 -0.805035,0 -0.812489,-0.32052 z"
         inkscape:connector-curvature="0"
         style="font-style:normal;font-variant:normal;font-weight:normal;font-stretch:normal;letter-spacing:normal;word-spacing:normal;text-anchor:start;fill:#ff0000;fill-opacity:1;fill-rule:evenodd;stroke:#000000;stroke-width:0;stroke-linecap:butt;stroke-linejoin:miter;stroke-miterlimit:10.43299961;stroke-dasharray:none;stroke-dashoffset:0;stroke-opacity:1" />
      <path
         id="path24182"
         d="m 14.992884,526.54964 0,-0.007 0,-0.007 0,-0.0224 0,-0.0149 0,-0.0149 0,-0.0149 0,-0.0149 0,-0.007 0,-0.0149 0,-0.0149 0,-0.007 0,-0.0149 -0.0075,-0.007 0,-0.007 0,-0.007 0,-0.007 -0.0075,-0.007 0,-0.007 0,-0.007 -0.0075,-0.007 0,0 -0.0075,-0.007 -0.0075,-0.007 0,0 -0.0075,-0.007 -0.0075,0 -0.0075,0 -0.0075,-0.007 -0.0075,0 -0.0075,0 -0.0075,0 -0.0075,0 -0.0075,0 c -0.08945,0 -0.290707,0.23107 -0.365247,0.32798 -0.335432,-0.2609 -0.663409,-0.32798 -1.006294,-0.32798 -1.289548,0 -1.677157,0.70813 -1.677157,1.297 0,0.11181 0,0.49197 0.402517,0.86467 0.342886,0.29816 0.708133,0.3727 1.200099,0.4696 0.588869,0.11927 0.730495,0.14908 0.99884,0.36525 0.186351,0.15653 0.327978,0.39506 0.327978,0.69322 0,0.4547 -0.268346,0.96903 -1.207553,0.96903 -0.708133,0 -1.222461,-0.40252 -1.453536,-1.4759 -0.04472,-0.18635 -0.04472,-0.20126 -0.05963,-0.20871 -0.01491,-0.0447 -0.05963,-0.0447 -0.08945,-0.0447 -0.119264,0 -0.119264,0.0522 -0.119264,0.24599 l 0,1.45353 c 0,0.19381 0,0.24598 0.104356,0.24598 0.05218,0 0.06709,-0.007 0.245983,-0.23107 0.05218,-0.082 0.05218,-0.0969 0.216167,-0.26835 0.402518,0.49942 0.983932,0.49942 1.162829,0.49942 1.125558,0 1.677156,-0.61868 1.677156,-1.46844 0,-0.57396 -0.350339,-0.91685 -0.447241,-1.01375 -0.380156,-0.32798 -0.670863,-0.39506 -1.378996,-0.52178 -0.320523,-0.0671 -1.103196,-0.21617 -1.103196,-0.85721 0,-0.32798 0.223621,-0.81995 1.192645,-0.81995 1.162828,0 1.229914,0.99139 1.244823,1.32682 0.01491,0.082 0.08945,0.082 0.119264,0.082 0.119264,0 0.119264,-0.0522 0.119264,-0.24599 z"
         inkscape:connector-curvature="0"
         style="font-style:normal;font-variant:normal;font-weight:normal;font-stretch:normal;letter-spacing:normal;word-spacing:normal;text-anchor:start;fill:#ff0000;fill-opacity:1;fill-rule:evenodd;stroke:#000000;stroke-width:0;stroke-linecap:butt;stroke-linejoin:miter;stroke-miterlimit:10.43299961;stroke-dasharray:none;stroke-dashoffset:0;stroke-opacity:1" />
    </g>
    <g
       id="g24300"
       style="fill:#0000ff"
       transform="matrix(1.5024523,0,0,1.5024523,-32.035211,-452.88065)">
      <path
         id="path24184"
         d="m 21.716419,532.83339 -0.02982,0 -0.02982,0 -0.02982,0 -0.02982,0 -0.02982,0 -0.02236,0 -0.02982,0 -0.02982,0 -0.02236,0 -0.02236,0 -0.02982,0 -0.02236,0 -0.02236,0 -0.02236,0 -0.03727,-0.007 -0.04472,0 -0.02982,0 -0.03727,-0.007 -0.02982,-0.007 -0.02982,-0.007 -0.02982,-0.007 -0.02236,-0.007 -0.02236,-0.0149 -0.02236,-0.007 -0.02236,-0.0149 -0.01491,-0.0149 -0.01491,-0.0149 -0.01491,-0.0224 -0.01491,-0.0149 -0.0075,-0.0224 -0.0075,-0.0298 -0.0075,-0.0224 -0.0075,-0.0298 -0.0075,-0.0298 -0.0075,-0.0373 0,-0.0373 0,-0.0373 0,-0.0149 0,-0.0224 0,-0.0224 -0.0075,-0.0224 0,-1.86351 c 0.193805,0.26835 0.633593,0.68577 1.319363,0.68577 l -0.05218,-0.21616 c -0.335431,0 -0.641046,-0.13418 -0.857213,-0.33543 -0.245983,-0.24599 -0.409972,-0.46215 -0.409972,-0.76032 l 0,-2.20639 c 0,-0.20126 0,-0.21616 0.119265,-0.38761 0.320523,-0.47706 0.849759,-0.67831 1.252277,-0.67831 0.805035,0 1.446081,0.96902 1.446081,2.16912 0,1.27464 -0.730494,2.19894 -1.550438,2.19894 l 0.05218,0.21616 c 1.229915,0 2.31075,-1.03611 2.31075,-2.4151 0,-1.35663 -1.006294,-2.40765 -2.169123,-2.40765 -0.946662,0 -1.446082,0.67831 -1.475898,0.71558 l 0,-0.71558 -1.490806,0.11926 0,0.30562 c 0.752857,0 0.812489,0.0745 0.812489,0.55159 l 0,5.02402 c 0,0.47706 -0.119264,0.47706 -0.812489,0.47706 l 0,0.31307 c 0.283253,-0.0224 0.857214,-0.0224 1.155375,-0.0224 0.313069,0 0.887029,0 1.162828,0.0224 z"
         inkscape:connector-curvature="0"
         style="font-style:normal;font-variant:normal;font-weight:normal;font-stretch:normal;letter-spacing:normal;word-spacing:normal;text-anchor:start;fill:#0000ff;fill-opacity:1;fill-rule:evenodd;stroke:#000000;stroke-width:0;stroke-linecap:butt;stroke-linejoin:miter;stroke-miterlimit:10.43299961;stroke-dasharray:none;stroke-dashoffset:0;stroke-opacity:1" />
      <path
         id="path24186"
         d="m 29.677323,528.47278 0,-0.0894 0,-0.0895 0,-0.082 0,-0.082 0,-0.0745 0,-0.0745 0,-0.0671 0,-0.0671 -0.0075,-0.0671 0,-0.0596 0,-0.0522 -0.0075,-0.0596 0,-0.0522 -0.0075,-0.0522 0,-0.0447 -0.0075,-0.0447 -0.0075,-0.0447 -0.0075,-0.0447 -0.0075,-0.0447 -0.0075,-0.0373 -0.0075,-0.0373 -0.01491,-0.0373 -0.0075,-0.0373 -0.01491,-0.0298 -0.01491,-0.0373 -0.01491,-0.0373 -0.01491,-0.0298 -0.01491,-0.0298 -0.01491,-0.0373 -0.02236,-0.0298 -0.02236,-0.0298 -0.02236,-0.0298 c -0.305615,-0.41743 -0.812489,-0.48451 -1.177736,-0.48451 -0.916846,0 -1.341726,0.69322 -1.490806,1.02865 l -0.01491,0 0,-3.73447 -1.483352,0.11927 0,0.30561 c 0.723041,0 0.812489,0.082 0.812489,0.60378 l 0,5.60543 c 0,0.47706 -0.119265,0.47706 -0.812489,0.47706 l 0,0.31307 c 0.275799,-0.0224 0.849759,-0.0224 1.155374,-0.0224 0.305616,0 0.88703,0 1.162829,0.0224 l 0,-0.31307 c -0.685771,0 -0.812489,0 -0.812489,-0.47706 l 0,-1.99023 c 0,-1.12555 0.737949,-1.72188 1.401357,-1.72188 0.663409,0 0.81249,0.54415 0.81249,1.2001 l 0,2.51201 c 0,0.47706 -0.119265,0.47706 -0.81249,0.47706 l 0,0.31307 c 0.275799,-0.0224 0.857214,-0.0224 1.155375,-0.0224 0.305615,0 0.88703,0 1.162829,0.0224 l 0,-0.31307 c -0.529236,0 -0.797582,0 -0.81249,-0.32052 z"
         inkscape:connector-curvature="0"
         style="font-style:normal;font-variant:normal;font-weight:normal;font-stretch:normal;letter-spacing:normal;word-spacing:normal;text-anchor:start;fill:#0000ff;fill-opacity:1;fill-rule:evenodd;stroke:#000000;stroke-width:0;stroke-linecap:butt;stroke-linejoin:miter;stroke-miterlimit:10.43299961;stroke-dasharray:none;stroke-dashoffset:0;stroke-opacity:1" />
      <path
         id="path24188"
         d="m 35.648001,528.78585 0,-0.13417 -0.01491,-0.12672 -0.01491,-0.11926 -0.01491,-0.12672 -0.02982,-0.11927 -0.02982,-0.11926 -0.03727,-0.11181 -0.04472,-0.11181 -0.04473,-0.11181 -0.05218,-0.10436 -0.05218,-0.10436 -0.05963,-0.10435 -0.06709,-0.0969 -0.06709,-0.0894 -0.07454,-0.0969 -0.07454,-0.082 -0.08199,-0.082 -0.08199,-0.0745 -0.08945,-0.0745 -0.08945,-0.0745 -0.08945,-0.0596 -0.0969,-0.0596 -0.0969,-0.0522 -0.104356,-0.0522 -0.104357,-0.0447 -0.104356,-0.0373 -0.104357,-0.0373 -0.11181,-0.0224 -0.11181,-0.0224 -0.111811,-0.0149 -0.11181,-0.0149 -0.119265,0 -0.01491,0.21617 c 0.417426,0 0.872122,0.18635 1.155375,0.60377 0.335431,0.49197 0.335431,1.17028 0.335431,1.56535 0,0.3727 0,1.03611 -0.275799,1.53553 -0.305615,0.51433 -0.797581,0.72304 -1.200099,0.72304 l 0,0 c -0.395063,0 -0.879575,-0.17144 -1.185191,-0.70068 -0.290707,-0.47706 -0.298161,-1.11065 -0.298161,-1.55789 0,-0.40997 0,-1.05847 0.327978,-1.54299 0.298161,-0.45469 0.767765,-0.62613 1.140466,-0.62613 l 0.01491,-0.21617 c -1.282093,0 -2.303295,1.13301 -2.303295,2.48219 0,1.36409 1.07338,2.39274 2.288387,2.39274 1.267185,0 2.303295,-1.05101 2.303295,-2.39274 z"
         inkscape:connector-curvature="0"
         style="font-style:normal;font-variant:normal;font-weight:normal;font-stretch:normal;letter-spacing:normal;word-spacing:normal;text-anchor:start;fill:#0000ff;fill-opacity:1;fill-rule:evenodd;stroke:#000000;stroke-width:0;stroke-linecap:butt;stroke-linejoin:miter;stroke-miterlimit:10.43299961;stroke-dasharray:none;stroke-dashoffset:0;stroke-opacity:1" />
      <path
         id="path24190"
         d="m 40.73165,528.47278 0,-0.0894 0,-0.0895 0,-0.082 0,-0.082 0,-0.0745 0,-0.0745 0,-0.0671 -0.0075,-0.0671 0,-0.0671 0,-0.0596 0,-0.0522 -0.0075,-0.0596 0,-0.0522 -0.0075,-0.0522 0,-0.0447 -0.0075,-0.0447 -0.0075,-0.0447 -0.0075,-0.0447 -0.0075,-0.0447 -0.0075,-0.0373 -0.0075,-0.0373 -0.01491,-0.0373 -0.0075,-0.0373 -0.01491,-0.0298 -0.01491,-0.0373 -0.01491,-0.0373 -0.01491,-0.0298 -0.01491,-0.0298 -0.02236,-0.0373 -0.01491,-0.0298 -0.02236,-0.0298 -0.02236,-0.0298 c -0.31307,-0.41743 -0.81249,-0.48451 -1.177737,-0.48451 -1.03611,0 -1.446082,0.88703 -1.528076,1.10319 l -0.01491,0 0,-1.10319 -1.453536,0.11926 0,0.30562 c 0.730495,0 0.812489,0.0745 0.812489,0.60377 l 0,2.89962 c 0,0.47706 -0.11181,0.47706 -0.812489,0.47706 l 0,0.31307 c 0.283253,-0.0224 0.857213,-0.0224 1.155375,-0.0224 0.313069,0 0.887029,0 1.170282,0.0224 l 0,-0.31307 c -0.68577,0 -0.812489,0 -0.812489,-0.47706 l 0,-1.99023 c 0,-1.12555 0.737949,-1.72188 1.401358,-1.72188 0.663408,0 0.812489,0.54415 0.812489,1.2001 l 0,2.51201 c 0,0.47706 -0.119265,0.47706 -0.812489,0.47706 l 0,0.31307 c 0.275799,-0.0224 0.849759,-0.0224 1.155374,-0.0224 0.305616,0 0.88703,0 1.162829,0.0224 l 0,-0.31307 c -0.53669,0 -0.805035,0 -0.812489,-0.32052 z"
         inkscape:connector-curvature="0"
         style="font-style:normal;font-variant:normal;font-weight:normal;font-stretch:normal;letter-spacing:normal;word-spacing:normal;text-anchor:start;fill:#0000ff;fill-opacity:1;fill-rule:evenodd;stroke:#000000;stroke-width:0;stroke-linecap:butt;stroke-linejoin:miter;stroke-miterlimit:10.43299961;stroke-dasharray:none;stroke-dashoffset:0;stroke-opacity:1" />
      <path
         id="path24192"
         d="m 46.702328,528.78585 -0.0075,-0.13417 -0.0075,-0.12672 -0.01491,-0.11926 -0.02236,-0.12672 -0.02236,-0.11927 -0.02982,-0.11926 -0.03727,-0.11181 -0.04472,-0.11181 -0.04472,-0.11181 -0.05218,-0.10436 -0.05218,-0.10436 -0.06709,-0.10435 -0.05963,-0.0969 -0.06709,-0.0894 -0.07454,-0.0969 -0.07454,-0.082 -0.08199,-0.082 -0.08199,-0.0745 -0.08945,-0.0745 -0.08945,-0.0745 -0.0969,-0.0596 -0.08945,-0.0596 -0.104357,-0.0522 -0.0969,-0.0522 -0.104356,-0.0447 -0.104357,-0.0373 -0.11181,-0.0373 -0.104357,-0.0224 -0.11181,-0.0224 -0.111811,-0.0149 -0.119264,-0.0149 -0.111811,0 -0.01491,0.21617 c 0.417426,0 0.864668,0.18635 1.155375,0.60377 0.335431,0.49197 0.335431,1.17028 0.335431,1.56535 0,0.3727 0,1.03611 -0.283253,1.53553 -0.298161,0.51433 -0.790127,0.72304 -1.192645,0.72304 l 0,0 c -0.395063,0 -0.879575,-0.17144 -1.192644,-0.70068 -0.283253,-0.47706 -0.298161,-1.11065 -0.298161,-1.55789 0,-0.40997 0,-1.05847 0.335431,-1.54299 0.298161,-0.45469 0.767765,-0.62613 1.140466,-0.62613 l 0.01491,-0.21617 c -1.282093,0 -2.303295,1.13301 -2.303295,2.48219 0,1.36409 1.073381,2.39274 2.288387,2.39274 1.267186,0 2.303296,-1.05101 2.303296,-2.39274 z"
         inkscape:connector-curvature="0"
         style="font-style:normal;font-variant:normal;font-weight:normal;font-stretch:normal;letter-spacing:normal;word-spacing:normal;text-anchor:start;fill:#0000ff;fill-opacity:1;fill-rule:evenodd;stroke:#000000;stroke-width:0;stroke-linecap:butt;stroke-linejoin:miter;stroke-miterlimit:10.43299961;stroke-dasharray:none;stroke-dashoffset:0;stroke-opacity:1" />
      <path
         id="path24194"
         d="m 51.785976,528.47278 0,-0.0894 0,-0.0895 0,-0.082 0,-0.082 0,-0.0745 -0.0075,-0.0745 0,-0.0671 0,-0.0671 0,-0.0671 0,-0.0596 -0.0075,-0.0522 0,-0.0596 -0.0075,-0.0522 0,-0.0522 -0.0075,-0.0447 0,-0.0447 -0.0075,-0.0447 -0.0075,-0.0447 -0.0075,-0.0447 -0.0075,-0.0373 -0.01491,-0.0373 -0.0075,-0.0373 -0.01491,-0.0373 -0.0075,-0.0298 -0.01491,-0.0373 -0.01491,-0.0373 -0.01491,-0.0298 -0.01491,-0.0298 -0.02236,-0.0373 -0.01491,-0.0298 -0.02236,-0.0298 -0.02236,-0.0298 c -0.313069,-0.41743 -0.812489,-0.48451 -1.177737,-0.48451 -1.03611,0 -1.446081,0.88703 -1.528076,1.10319 l -0.01491,0 0,-1.10319 -1.453536,0.11926 0,0.30562 c 0.730495,0 0.81249,0.0745 0.81249,0.60377 l 0,2.89962 c 0,0.47706 -0.119265,0.47706 -0.81249,0.47706 l 0,0.31307 c 0.275799,-0.0224 0.857214,-0.0224 1.155375,-0.0224 0.313069,0 0.88703,0 1.170283,0.0224 l 0,-0.31307 c -0.685771,0 -0.819944,0 -0.819944,-0.47706 l 0,-1.99023 c 0,-1.12555 0.737949,-1.72188 1.401358,-1.72188 0.663409,0 0.812489,0.54415 0.812489,1.2001 l 0,2.51201 c 0,0.47706 -0.11181,0.47706 -0.812489,0.47706 l 0,0.31307 c 0.283253,-0.0224 0.857213,-0.0224 1.155375,-0.0224 0.313069,0 0.887029,0 1.170282,0.0224 l 0,-0.31307 c -0.53669,0 -0.805035,0 -0.812489,-0.32052 z"
         inkscape:connector-curvature="0"
         style="font-style:normal;font-variant:normal;font-weight:normal;font-stretch:normal;letter-spacing:normal;word-spacing:normal;text-anchor:start;fill:#0000ff;fill-opacity:1;fill-rule:evenodd;stroke:#000000;stroke-width:0;stroke-linecap:butt;stroke-linejoin:miter;stroke-miterlimit:10.43299961;stroke-dasharray:none;stroke-dashoffset:0;stroke-opacity:1" />
    </g>
  </g>
</svg>
