<?xml version="1.0" encoding="utf-8" standalone="no"?>
<!DOCTYPE svg PUBLIC "-//W3C//DTD SVG 1.1//EN"
  "http://www.w3.org/Graphics/SVG/1.1/DTD/svg11.dtd">
<!-- Created with matplotlib (https://matplotlib.org/) -->
<svg height="427.41063pt" version="1.1" viewBox="0 0 608.24 427.41063" width="608.24pt" xmlns="http://www.w3.org/2000/svg" xmlns:xlink="http://www.w3.org/1999/xlink">
 <metadata>
  <rdf:RDF xmlns:cc="http://creativecommons.org/ns#" xmlns:dc="http://purl.org/dc/elements/1.1/" xmlns:rdf="http://www.w3.org/1999/02/22-rdf-syntax-ns#">
   <cc:Work>
    <dc:type rdf:resource="http://purl.org/dc/dcmitype/StillImage"/>
    <dc:date>2021-09-29T14:46:01.336160</dc:date>
    <dc:format>image/svg+xml</dc:format>
    <dc:creator>
     <cc:Agent>
      <dc:title>Matplotlib v3.3.2, https://matplotlib.org/</dc:title>
     </cc:Agent>
    </dc:creator>
   </cc:Work>
  </rdf:RDF>
 </metadata>
 <defs>
  <style type="text/css">*{stroke-linecap:butt;stroke-linejoin:round;}</style>
 </defs>
 <g id="figure_1">
  <g id="patch_1">
   <path d="M 0 427.41063 
L 608.24 427.41063 
L 608.24 0 
L 0 0 
z
" style="fill:#ffffff;"/>
  </g>
  <g id="axes_1">
   <g id="line2d_1">
    <path clip-path="url(#pa32a44b10d)" d="M 211.238496 341.347099 
L 216.832481 347.933624 
L 222.426466 354.10525 
L 228.020451 359.861977 
L 233.614436 365.203804 
L 237.809925 368.937897 
L 242.005414 372.438609 
L 246.200902 375.705941 
L 250.396391 378.739891 
L 254.59188 381.540461 
L 258.787368 384.10765 
L 262.982857 386.441458 
L 267.178346 388.541885 
L 271.373835 390.408932 
L 275.569323 392.042598 
L 279.764812 393.442882 
L 283.960301 394.609786 
L 288.155789 395.54331 
L 292.351278 396.243452 
L 296.546767 396.710214 
L 300.742256 396.943595 
L 304.937744 396.943595 
L 309.133233 396.710214 
L 313.328722 396.243452 
L 317.524211 395.54331 
L 321.719699 394.609786 
L 325.915188 393.442882 
L 330.110677 392.042598 
L 334.306165 390.408932 
L 338.501654 388.541885 
L 342.697143 386.441458 
L 346.892632 384.10765 
L 351.08812 381.540461 
L 355.283609 378.739891 
L 359.479098 375.705941 
L 363.674586 372.438609 
L 367.870075 368.937897 
L 372.065564 365.203804 
L 376.261053 361.23633 
L 381.855038 355.583328 
L 387.449023 349.515427 
L 393.043008 343.032627 
L 394.441504 341.347099 
L 394.441504 341.347099 
" style="fill:none;stroke:#1f77b4;stroke-linecap:square;stroke-width:1.5;"/>
   </g>
   <g id="line2d_2">
    <path clip-path="url(#pa32a44b10d)" d="M 117.539248 169.34544 
L 124.531729 186.200721 
L 131.524211 202.407722 
L 138.516692 217.966442 
L 145.509173 232.876883 
L 151.103158 244.338474 
L 156.697143 255.385166 
L 162.291128 266.016959 
L 167.885113 276.233852 
L 173.479098 286.035846 
L 179.073083 295.422941 
L 184.667068 304.395137 
L 190.261053 312.952433 
L 195.855038 321.09483 
L 201.449023 328.822328 
L 207.043008 336.134927 
L 209.84 339.635639 
M 395.84 339.635639 
L 401.433985 332.53049 
L 407.02797 325.010442 
L 412.621955 317.075494 
L 418.21594 308.725647 
L 423.809925 299.960901 
L 429.40391 290.781256 
L 434.997895 281.186711 
L 440.59188 271.177268 
L 446.185865 260.752925 
L 451.77985 249.913683 
L 457.373835 238.659541 
L 462.96782 226.9905 
L 469.960301 211.820748 
L 476.952782 196.002715 
L 483.945263 179.536402 
L 488.140752 169.34544 
L 488.140752 169.34544 
" style="fill:none;stroke:#1f77b4;stroke-linecap:square;stroke-width:1.5;"/>
   </g>
   <g id="line2d_3">
    <path clip-path="url(#pa32a44b10d)" d="M 74.185865 50.373088 
L 81.178346 71.247705 
L 88.170827 91.474042 
L 95.163308 111.052099 
L 102.155789 129.981876 
L 109.148271 148.263373 
L 116.140752 165.89659 
M 489.539248 165.89659 
L 496.531729 148.263373 
L 503.524211 129.981876 
L 510.516692 111.052099 
L 517.509173 91.474042 
L 524.501654 71.247705 
L 531.494135 50.373088 
L 531.494135 50.373088 
" style="fill:none;stroke:#1f77b4;stroke-linecap:square;stroke-width:1.5;"/>
   </g>
   <g id="line2d_4">
    <path clip-path="url(#pa32a44b10d)" d="M 211.238496 357.139426 
L 212.636992 357.363001 
L 214.035489 357.727149 
L 216.832481 358.828015 
L 219.629474 360.326187 
L 222.426466 362.103628 
L 226.621955 365.083813 
L 244.802406 378.543021 
L 250.396391 382.258455 
L 255.990376 385.654081 
L 260.185865 387.97396 
L 264.381353 390.090571 
L 268.576842 391.9983 
L 272.772331 393.692995 
L 276.96782 395.171548 
L 281.163308 396.431622 
L 285.358797 397.471457 
L 289.554286 398.289745 
L 293.749774 398.88554 
L 297.945263 399.258191 
L 302.140752 399.407311 
L 306.336241 399.332747 
L 310.531729 399.034575 
L 314.727218 398.513103 
L 318.922707 397.768889 
L 323.118195 396.802777 
L 327.313684 395.615946 
L 331.509173 394.209991 
L 335.704662 392.587041 
L 339.90015 390.74992 
L 344.095639 388.702395 
L 348.291128 386.449535 
L 352.486617 383.998262 
L 358.080602 380.438434 
L 363.674586 376.57845 
L 370.667068 371.424912 
L 381.855038 363.065239 
L 384.65203 361.18674 
L 387.449023 359.535116 
L 390.246015 358.220231 
L 391.644511 357.727149 
L 393.043008 357.363001 
L 394.441504 357.139426 
L 394.441504 357.139426 
" style="fill:none;stroke:#ff7f0e;stroke-linecap:square;stroke-width:1.5;"/>
   </g>
   <g id="line2d_5">
    <path clip-path="url(#pa32a44b10d)" d="M 117.539248 185.128073 
L 118.937744 185.719896 
L 120.336241 186.847726 
L 121.734737 188.421873 
L 123.133233 190.345602 
L 125.930226 194.913747 
L 128.727218 200.05975 
L 132.922707 208.285802 
L 149.704662 241.768417 
L 156.697143 255.036206 
L 162.291128 265.214733 
L 167.885113 274.964524 
L 173.479098 284.247466 
L 179.073083 293.01498 
L 183.268571 299.209633 
L 187.46406 305.025522 
L 191.659549 310.386593 
L 194.456541 313.649667 
L 197.253534 316.602527 
L 200.050526 319.169949 
L 202.847519 321.252878 
L 204.246015 322.07602 
L 205.644511 322.733084 
L 207.043008 323.209816 
L 208.441504 323.494559 
L 209.84 323.579682 
M 395.84 323.579682 
L 397.238496 323.494559 
L 398.636992 323.209816 
L 400.035489 322.733084 
L 401.433985 322.07602 
L 402.832481 321.252878 
L 405.629474 319.169949 
L 408.426466 316.602527 
L 411.223459 313.649667 
L 414.020451 310.386593 
L 418.21594 305.025522 
L 422.411429 299.209633 
L 426.606917 293.01498 
L 430.802406 286.489968 
L 436.396391 277.330658 
L 441.990376 267.693785 
L 447.584361 257.619052 
L 453.178346 247.143383 
L 460.170827 233.554478 
L 469.960301 213.908764 
L 476.952782 200.05975 
L 479.749774 194.913747 
L 482.546767 190.345602 
L 483.945263 188.421873 
L 485.343759 186.847726 
L 486.742256 185.719896 
L 488.140752 185.128073 
L 488.140752 185.128073 
" style="fill:none;stroke:#ff7f0e;stroke-linecap:square;stroke-width:1.5;"/>
   </g>
   <g id="line2d_6">
    <path clip-path="url(#pa32a44b10d)" d="M 75.584361 52.049891 
L 82.576842 72.4085 
L 88.170827 88.11043 
L 93.764812 103.217841 
L 97.960301 114.074169 
L 102.155789 124.387667 
L 104.952782 130.838132 
L 107.749774 136.778603 
L 109.148271 139.477395 
L 110.546767 141.929221 
L 111.945263 144.06473 
L 113.343759 145.797702 
L 114.742256 147.03141 
L 116.140752 147.676172 
M 489.539248 147.676172 
L 490.937744 147.03141 
L 492.336241 145.797702 
L 493.734737 144.06473 
L 495.133233 141.929221 
L 496.531729 139.477395 
L 499.328722 133.885726 
L 502.125714 127.664922 
L 506.321203 117.581552 
L 510.516692 106.887269 
L 516.110677 91.946965 
L 521.704662 76.385063 
L 528.697143 56.183145 
L 530.095639 52.049891 
L 530.095639 52.049891 
" style="fill:none;stroke:#ff7f0e;stroke-linecap:square;stroke-width:1.5;"/>
   </g>
   <g id="patch_2">
    <path d="M 576.722755 396.972767 
Q 301.840007 396.972767 25.839225 396.972767 
" style="fill:none;stroke:#000000;stroke-linecap:round;"/>
    <path d="M 570.322755 393.772767 
L 576.722755 396.972767 
L 570.322755 400.172767 
" style="fill:none;stroke:#000000;stroke-linecap:round;"/>
   </g>
   <g id="text_1">
    <!-- $ka$ -->
    <g transform="translate(581.84 401.387767)scale(0.16 -0.16)">
     <defs>
      <path d="M 18.3125 75.984375 
L 27.296875 75.984375 
L 18.703125 31.6875 
L 49.515625 54.6875 
L 61.1875 54.6875 
L 26.8125 28.515625 
L 51.90625 0 
L 41.015625 0 
L 17.671875 26.703125 
L 12.5 0 
L 3.515625 0 
z
" id="DejaVuSans-Oblique-107"/>
      <path d="M 53.71875 31.203125 
L 47.609375 0 
L 38.625 0 
L 40.28125 8.296875 
Q 36.328125 3.421875 31.265625 1 
Q 26.21875 -1.421875 20.015625 -1.421875 
Q 13.03125 -1.421875 8.5625 2.84375 
Q 4.109375 7.125 4.109375 13.8125 
Q 4.109375 23.390625 11.75 28.953125 
Q 19.390625 34.515625 32.8125 34.515625 
L 45.3125 34.515625 
L 45.796875 36.921875 
Q 45.90625 37.3125 45.953125 37.765625 
Q 46 38.234375 46 39.203125 
Q 46 43.5625 42.453125 45.96875 
Q 38.921875 48.390625 32.515625 48.390625 
Q 28.125 48.390625 23.5 47.265625 
Q 18.890625 46.140625 14.015625 43.890625 
L 15.578125 52.203125 
Q 20.65625 54.109375 25.515625 55.046875 
Q 30.375 56 34.90625 56 
Q 44.578125 56 49.625 51.796875 
Q 54.6875 47.609375 54.6875 39.59375 
Q 54.6875 37.984375 54.4375 35.8125 
Q 54.203125 33.640625 53.71875 31.203125 
z
M 44 27.484375 
L 35.015625 27.484375 
Q 23.96875 27.484375 18.671875 24.53125 
Q 13.375 21.578125 13.375 15.375 
Q 13.375 11.078125 16.078125 8.640625 
Q 18.796875 6.203125 23.578125 6.203125 
Q 30.90625 6.203125 36.375 11.453125 
Q 41.84375 16.703125 43.609375 25.484375 
z
" id="DejaVuSans-Oblique-97"/>
     </defs>
     <use transform="translate(0 0.015625)" xlink:href="#DejaVuSans-Oblique-107"/>
     <use transform="translate(57.910156 0.015625)" xlink:href="#DejaVuSans-Oblique-97"/>
    </g>
   </g>
   <g id="patch_3">
    <path d="M 302.84 27.802857 
Q 302.84 212.280358 302.84 397.875894 
" style="fill:none;stroke:#000000;stroke-linecap:round;"/>
    <path d="M 299.64 34.202857 
L 302.84 27.802857 
L 306.04 34.202857 
" style="fill:none;stroke:#000000;stroke-linecap:round;"/>
   </g>
   <g id="text_2">
    <!-- $E$ -->
    <g transform="translate(297.72 19.3575)scale(0.16 -0.16)">
     <defs>
      <path d="M 16.890625 72.90625 
L 62.984375 72.90625 
L 61.375 64.59375 
L 25.09375 64.59375 
L 20.90625 43.015625 
L 55.71875 43.015625 
L 54.109375 34.71875 
L 19.28125 34.71875 
L 14.203125 8.296875 
L 51.3125 8.296875 
L 49.703125 0 
L 2.6875 0 
z
" id="DejaVuSans-Oblique-69"/>
     </defs>
     <use transform="translate(0 0.09375)" xlink:href="#DejaVuSans-Oblique-69"/>
    </g>
   </g>
   <g id="text_3">
    <!-- $-3\pi$ -->
    <g transform="translate(7.2 416.88313)scale(0.16 -0.16)">
     <defs>
      <path d="M 10.59375 35.5 
L 73.1875 35.5 
L 73.1875 27.203125 
L 10.59375 27.203125 
z
" id="DejaVuSans-8722"/>
      <path d="M 40.578125 39.3125 
Q 47.65625 37.796875 51.625 33 
Q 55.609375 28.21875 55.609375 21.1875 
Q 55.609375 10.40625 48.1875 4.484375 
Q 40.765625 -1.421875 27.09375 -1.421875 
Q 22.515625 -1.421875 17.65625 -0.515625 
Q 12.796875 0.390625 7.625 2.203125 
L 7.625 11.71875 
Q 11.71875 9.328125 16.59375 8.109375 
Q 21.484375 6.890625 26.8125 6.890625 
Q 36.078125 6.890625 40.9375 10.546875 
Q 45.796875 14.203125 45.796875 21.1875 
Q 45.796875 27.640625 41.28125 31.265625 
Q 36.765625 34.90625 28.71875 34.90625 
L 20.21875 34.90625 
L 20.21875 43.015625 
L 29.109375 43.015625 
Q 36.375 43.015625 40.234375 45.921875 
Q 44.09375 48.828125 44.09375 54.296875 
Q 44.09375 59.90625 40.109375 62.90625 
Q 36.140625 65.921875 28.71875 65.921875 
Q 24.65625 65.921875 20.015625 65.03125 
Q 15.375 64.15625 9.8125 62.3125 
L 9.8125 71.09375 
Q 15.4375 72.65625 20.34375 73.4375 
Q 25.25 74.21875 29.59375 74.21875 
Q 40.828125 74.21875 47.359375 69.109375 
Q 53.90625 64.015625 53.90625 55.328125 
Q 53.90625 49.265625 50.4375 45.09375 
Q 46.96875 40.921875 40.578125 39.3125 
z
" id="DejaVuSans-51"/>
      <path d="M 9.125 54.6875 
L 61.53125 54.6875 
L 59.765625 45.703125 
L 52.875 45.703125 
L 46.34375 12.109375 
Q 45.65625 8.59375 46.578125 7.03125 
Q 47.46875 5.515625 50.140625 5.515625 
Q 50.875 5.515625 51.953125 5.671875 
Q 53.078125 5.765625 53.421875 5.8125 
L 52.15625 -0.6875 
Q 50.34375 -1.3125 48.484375 -1.609375 
Q 46.578125 -1.90625 44.78125 -1.90625 
Q 38.921875 -1.90625 37.3125 1.265625 
Q 35.6875 4.5 37.359375 13.09375 
L 43.703125 45.703125 
L 23.53125 45.703125 
L 14.65625 0 
L 5.46875 0 
L 14.359375 45.703125 
L 7.375 45.703125 
z
" id="DejaVuSans-Oblique-960"/>
     </defs>
     <use transform="translate(0 0.78125)" xlink:href="#DejaVuSans-8722"/>
     <use transform="translate(83.789062 0.78125)" xlink:href="#DejaVuSans-51"/>
     <use transform="translate(147.412109 0.78125)" xlink:href="#DejaVuSans-Oblique-960"/>
    </g>
   </g>
   <g id="text_4">
    <!-- $-2\pi$ -->
    <g transform="translate(100.2 416.88313)scale(0.16 -0.16)">
     <defs>
      <path d="M 19.1875 8.296875 
L 53.609375 8.296875 
L 53.609375 0 
L 7.328125 0 
L 7.328125 8.296875 
Q 12.9375 14.109375 22.625 23.890625 
Q 32.328125 33.6875 34.8125 36.53125 
Q 39.546875 41.84375 41.421875 45.53125 
Q 43.3125 49.21875 43.3125 52.78125 
Q 43.3125 58.59375 39.234375 62.25 
Q 35.15625 65.921875 28.609375 65.921875 
Q 23.96875 65.921875 18.8125 64.3125 
Q 13.671875 62.703125 7.8125 59.421875 
L 7.8125 69.390625 
Q 13.765625 71.78125 18.9375 73 
Q 24.125 74.21875 28.421875 74.21875 
Q 39.75 74.21875 46.484375 68.546875 
Q 53.21875 62.890625 53.21875 53.421875 
Q 53.21875 48.921875 51.53125 44.890625 
Q 49.859375 40.875 45.40625 35.40625 
Q 44.1875 33.984375 37.640625 27.21875 
Q 31.109375 20.453125 19.1875 8.296875 
z
" id="DejaVuSans-50"/>
     </defs>
     <use transform="translate(0 0.78125)" xlink:href="#DejaVuSans-8722"/>
     <use transform="translate(83.789062 0.78125)" xlink:href="#DejaVuSans-50"/>
     <use transform="translate(147.412109 0.78125)" xlink:href="#DejaVuSans-Oblique-960"/>
    </g>
   </g>
   <g id="text_5">
    <!-- $-\pi$ -->
    <g transform="translate(198.32 416.88313)scale(0.16 -0.16)">
     <use transform="translate(0 0.3125)" xlink:href="#DejaVuSans-8722"/>
     <use transform="translate(83.789062 0.3125)" xlink:href="#DejaVuSans-Oblique-960"/>
    </g>
   </g>
   <g id="text_6">
    <!-- $0$ -->
    <g transform="translate(297.72 416.88313)scale(0.16 -0.16)">
     <defs>
      <path d="M 31.78125 66.40625 
Q 24.171875 66.40625 20.328125 58.90625 
Q 16.5 51.421875 16.5 36.375 
Q 16.5 21.390625 20.328125 13.890625 
Q 24.171875 6.390625 31.78125 6.390625 
Q 39.453125 6.390625 43.28125 13.890625 
Q 47.125 21.390625 47.125 36.375 
Q 47.125 51.421875 43.28125 58.90625 
Q 39.453125 66.40625 31.78125 66.40625 
z
M 31.78125 74.21875 
Q 44.046875 74.21875 50.515625 64.515625 
Q 56.984375 54.828125 56.984375 36.375 
Q 56.984375 17.96875 50.515625 8.265625 
Q 44.046875 -1.421875 31.78125 -1.421875 
Q 19.53125 -1.421875 13.0625 8.265625 
Q 6.59375 17.96875 6.59375 36.375 
Q 6.59375 54.828125 13.0625 64.515625 
Q 19.53125 74.21875 31.78125 74.21875 
z
" id="DejaVuSans-48"/>
     </defs>
     <use transform="translate(0 0.78125)" xlink:href="#DejaVuSans-48"/>
    </g>
   </g>
   <g id="text_7">
    <!-- $\pi$ -->
    <g transform="translate(390.96 416.88313)scale(0.16 -0.16)">
     <use transform="translate(0 0.3125)" xlink:href="#DejaVuSans-Oblique-960"/>
    </g>
   </g>
   <g id="text_8">
    <!-- $2\pi$ -->
    <g transform="translate(478.92 416.88313)scale(0.16 -0.16)">
     <use transform="translate(0 0.78125)" xlink:href="#DejaVuSans-50"/>
     <use transform="translate(63.623047 0.78125)" xlink:href="#DejaVuSans-Oblique-960"/>
    </g>
   </g>
   <g id="text_9">
    <!-- $3\pi$ -->
    <g transform="translate(571.92 416.88313)scale(0.16 -0.16)">
     <use transform="translate(0 0.78125)" xlink:href="#DejaVuSans-51"/>
     <use transform="translate(63.623047 0.78125)" xlink:href="#DejaVuSans-Oblique-960"/>
    </g>
   </g>
  </g>
 </g>
 <defs>
  <clipPath id="pa32a44b10d">
   <rect height="380.52" width="558" x="23.84" y="19.3575"/>
  </clipPath>
 </defs>
</svg>
