<?xml version="1.0" encoding="utf-8" standalone="no"?>
<!DOCTYPE svg PUBLIC "-//W3C//DTD SVG 1.1//EN"
  "http://www.w3.org/Graphics/SVG/1.1/DTD/svg11.dtd">
<!-- Created with matplotlib (https://matplotlib.org/) -->
<svg height="427.41063pt" version="1.1" viewBox="0 0 591.6 427.41063" width="591.6pt" xmlns="http://www.w3.org/2000/svg" xmlns:xlink="http://www.w3.org/1999/xlink">
 <metadata>
  <rdf:RDF xmlns:cc="http://creativecommons.org/ns#" xmlns:dc="http://purl.org/dc/elements/1.1/" xmlns:rdf="http://www.w3.org/1999/02/22-rdf-syntax-ns#">
   <cc:Work>
    <dc:type rdf:resource="http://purl.org/dc/dcmitype/StillImage"/>
    <dc:date>2021-09-29T14:45:44.414734</dc:date>
    <dc:format>image/svg+xml</dc:format>
    <dc:creator>
     <cc:Agent>
      <dc:title>Matplotlib v3.3.2, https://matplotlib.org/</dc:title>
     </cc:Agent>
    </dc:creator>
   </cc:Work>
  </rdf:RDF>
 </metadata>
 <defs>
  <style type="text/css">*{stroke-linecap:butt;stroke-linejoin:round;}</style>
 </defs>
 <g id="figure_1">
  <g id="patch_1">
   <path d="M 0 427.41063 
L 591.6 427.41063 
L 591.6 0 
L 0 0 
z
" style="fill:#ffffff;"/>
  </g>
  <g id="axes_1">
   <g id="line2d_1">
    <path clip-path="url(#p3e53d1b3a7)" d="M 32.563636 339.635639 
L 44.005878 344.692224 
L 55.44812 349.515427 
L 66.890362 354.10525 
L 78.332604 358.461692 
L 89.774846 362.584753 
L 101.217088 366.474433 
L 112.65933 370.130732 
L 124.101572 373.553651 
L 135.543814 376.743189 
L 146.986056 379.699346 
L 158.428298 382.422122 
L 169.87054 384.911517 
L 181.312782 387.167532 
L 192.755024 389.190165 
L 204.197266 390.979418 
L 215.639508 392.53529 
L 227.08175 393.857782 
L 238.523992 394.946892 
L 249.966234 395.802622 
L 261.408476 396.424971 
L 272.850718 396.813939 
L 284.29296 396.969526 
L 295.735202 396.891732 
L 307.177444 396.580558 
L 318.619686 396.036003 
L 330.061928 395.258066 
L 341.50417 394.24675 
L 352.946411 393.002052 
L 364.388653 391.523973 
L 375.830895 389.812514 
L 387.273137 387.867674 
L 398.715379 385.689453 
L 410.157621 383.277851 
L 421.599863 380.632869 
L 433.042105 377.754506 
L 444.484347 374.642761 
L 455.926589 371.297636 
L 467.368831 367.719131 
L 478.811073 363.907244 
L 490.253315 359.861977 
L 501.695557 355.583328 
L 513.137799 351.071299 
L 524.580041 346.325889 
L 536.022283 341.347099 
L 539.836364 339.635639 
L 539.836364 339.635639 
" style="fill:none;stroke:#1f77b4;stroke-linecap:square;stroke-width:1.5;"/>
   </g>
   <g id="line2d_2">
    <path clip-path="url(#p3e53d1b3a7)" d="M 32.563636 339.635639 
L 44.005878 334.345674 
L 55.44812 328.822328 
L 66.890362 323.065602 
L 78.332604 317.075494 
L 89.774846 310.852006 
L 101.217088 304.395137 
L 112.65933 297.704887 
L 124.101572 290.781256 
L 136.815174 282.814615 
L 149.528776 274.559849 
L 162.242379 266.016959 
L 174.955981 257.185944 
L 187.669583 248.066805 
L 200.383185 238.659541 
L 213.096787 228.964153 
L 225.81039 218.98064 
L 238.523992 208.709003 
L 251.237594 198.149242 
L 263.951196 187.301356 
L 276.664798 176.165346 
L 285.56432 168.198704 
L 286.83568 168.198704 
L 299.549282 179.536402 
L 312.262884 190.585975 
L 324.976487 201.347424 
L 337.690089 211.820748 
L 350.403691 222.005947 
L 363.117293 231.903023 
L 375.830895 241.511973 
L 388.544498 250.8328 
L 401.2581 259.865501 
L 413.971702 268.610079 
L 426.685304 277.066532 
L 439.398906 285.23486 
L 452.112509 293.115064 
L 464.826111 300.707144 
L 476.268353 307.293669 
L 487.710595 313.646813 
L 499.152837 319.766577 
L 510.595079 325.652959 
L 522.037321 331.305961 
L 533.479563 336.725582 
L 539.836364 339.635639 
L 539.836364 339.635639 
" style="fill:none;stroke:#1f77b4;stroke-linecap:square;stroke-width:1.5;"/>
   </g>
   <g id="line2d_3">
    <path clip-path="url(#p3e53d1b3a7)" d="M 168.59918 48.958397 
L 182.584142 64.36153 
L 196.569105 79.416033 
L 210.554067 94.121906 
L 224.539029 108.479148 
L 237.252632 121.228655 
L 249.966234 133.690038 
L 262.679836 145.863296 
L 275.393438 157.74843 
L 285.56432 167.049088 
L 286.83568 167.049088 
L 299.549282 155.394453 
L 312.262884 143.451694 
L 324.976487 131.220811 
L 337.690089 118.701803 
L 350.403691 105.894671 
L 364.388653 91.474042 
L 378.373616 76.704782 
L 392.358578 61.586892 
L 403.80082 48.958397 
L 403.80082 48.958397 
" style="fill:none;stroke:#1f77b4;stroke-linecap:square;stroke-width:1.5;"/>
   </g>
   <g id="line2d_4">
    <path clip-path="url(#p3e53d1b3a7)" d="M 32.563636 357.064036 
L 37.649077 357.197765 
L 42.734518 357.590798 
L 47.819959 358.220231 
L 52.9054 359.053448 
L 59.262201 360.326187 
L 66.890362 362.103628 
L 77.061244 364.740627 
L 94.860287 369.657606 
L 116.473411 375.572687 
L 130.458373 379.182852 
L 143.171975 382.258455 
L 155.885578 385.111672 
L 168.59918 387.726113 
L 180.041422 389.865619 
L 191.483664 391.796785 
L 202.925906 393.51532 
L 214.368148 395.018017 
L 225.81039 396.302461 
L 237.252632 397.366839 
L 248.694874 398.209797 
L 260.137116 398.83035 
L 271.579357 399.227819 
L 283.021599 399.401787 
L 294.463841 399.352077 
L 305.906083 399.07874 
L 317.348325 398.582056 
L 328.790567 397.862556 
L 340.232809 396.921047 
L 351.675051 395.75867 
L 363.117293 394.376968 
L 374.559535 392.778004 
L 386.001777 390.964514 
L 397.444019 388.940144 
L 408.886261 386.709797 
L 421.599863 383.998262 
L 434.313465 381.053747 
L 448.298428 377.568923 
L 463.554751 373.520491 
L 488.981955 366.474913 
L 501.695557 363.065239 
L 510.595079 360.893011 
L 516.95188 359.535116 
L 523.308681 358.41083 
L 528.394122 357.727149 
L 533.479563 357.272386 
L 538.565003 357.072433 
L 539.836364 357.064036 
L 539.836364 357.064036 
" style="fill:none;stroke:#ff7f0e;stroke-linecap:square;stroke-width:1.5;"/>
   </g>
   <g id="line2d_5">
    <path clip-path="url(#p3e53d1b3a7)" d="M 32.563636 323.579682 
L 36.377717 323.494559 
L 40.191798 323.209816 
L 44.005878 322.733084 
L 47.819959 322.07602 
L 52.9054 320.944245 
L 57.990841 319.553767 
L 63.076282 317.940046 
L 69.433083 315.656876 
L 75.789884 313.12566 
L 83.418045 309.816679 
L 91.046206 306.259607 
L 99.945728 301.844938 
L 108.845249 297.184014 
L 119.016131 291.592194 
L 129.187013 285.746089 
L 140.629255 278.891576 
L 152.071497 271.764472 
L 163.513739 264.382401 
L 176.227341 255.899906 
L 188.940943 247.143383 
L 202.925906 237.226058 
L 218.182228 226.125646 
L 253.780314 200.05975 
L 260.137116 195.740979 
L 265.222556 192.532682 
L 269.036637 190.345602 
L 272.850718 188.421873 
L 275.393438 187.327705 
L 277.936159 186.417383 
L 280.478879 185.719896 
L 283.021599 185.261341 
L 285.56432 185.06105 
L 288.10704 185.128073 
L 290.649761 185.459339 
L 293.192481 186.040293 
L 295.735202 186.847726 
L 298.277922 187.853639 
L 302.092003 189.671165 
L 305.906083 191.779036 
L 310.991524 194.913747 
L 317.348325 199.17581 
L 324.976487 204.583203 
L 337.690089 213.908764 
L 365.660014 234.475322 
L 379.644976 244.466674 
L 392.358578 253.300667 
L 405.07218 261.867748 
L 416.514422 269.331325 
L 427.956664 276.545223 
L 439.398906 283.492789 
L 449.569788 289.42841 
L 459.74067 295.118547 
L 469.911552 300.536924 
L 478.811073 305.025522 
L 486.439234 308.656469 
L 494.067396 312.053068 
L 500.424197 314.671666 
L 506.780998 317.059573 
L 511.866439 318.772721 
L 516.95188 320.279064 
L 522.037321 321.54477 
L 527.122761 322.533435 
L 530.936842 323.071732 
L 534.750923 323.421545 
L 538.565003 323.573757 
L 539.836364 323.579682 
L 539.836364 323.579682 
" style="fill:none;stroke:#ff7f0e;stroke-linecap:square;stroke-width:1.5;"/>
   </g>
   <g id="line2d_6">
    <path clip-path="url(#p3e53d1b3a7)" d="M 171.1419 49.277769 
L 183.855502 63.004406 
L 196.569105 76.385063 
L 208.011347 88.11043 
L 219.453589 99.502815 
L 229.62447 109.306494 
L 238.523992 117.581552 
L 246.152153 124.387667 
L 252.508954 129.793155 
L 257.594395 133.885726 
L 262.679836 137.702066 
L 266.493917 140.325175 
L 270.307997 142.680136 
L 274.122078 144.691789 
L 276.664798 145.797702 
L 279.207519 146.681604 
L 281.750239 147.315495 
L 284.29296 147.676172 
L 286.83568 147.749077 
L 289.378401 147.53114 
L 291.921121 147.03141 
L 294.463841 146.26922 
L 297.006562 145.270665 
L 299.549282 144.06473 
L 303.363363 141.929221 
L 307.177444 139.477395 
L 310.991524 136.778603 
L 316.076965 132.885433 
L 322.433766 127.664922 
L 328.790567 122.153163 
L 336.418729 115.250199 
L 345.31825 106.887269 
L 355.489132 97.002244 
L 366.931374 85.532196 
L 378.373616 73.737677 
L 391.087218 60.286127 
L 401.2581 49.277769 
L 401.2581 49.277769 
" style="fill:none;stroke:#ff7f0e;stroke-linecap:square;stroke-width:1.5;"/>
   </g>
   <g id="patch_2">
    <path d="M 560.082755 396.972767 
Q 285.200007 396.972767 9.199225 396.972767 
" style="fill:none;stroke:#000000;stroke-linecap:round;"/>
    <path d="M 553.682755 393.772767 
L 560.082755 396.972767 
L 553.682755 400.172767 
" style="fill:none;stroke:#000000;stroke-linecap:round;"/>
   </g>
   <g id="text_1">
    <!-- $ka$ -->
    <g transform="translate(565.2 401.387767)scale(0.16 -0.16)">
     <defs>
      <path d="M 18.3125 75.984375 
L 27.296875 75.984375 
L 18.703125 31.6875 
L 49.515625 54.6875 
L 61.1875 54.6875 
L 26.8125 28.515625 
L 51.90625 0 
L 41.015625 0 
L 17.671875 26.703125 
L 12.5 0 
L 3.515625 0 
z
" id="DejaVuSans-Oblique-107"/>
      <path d="M 53.71875 31.203125 
L 47.609375 0 
L 38.625 0 
L 40.28125 8.296875 
Q 36.328125 3.421875 31.265625 1 
Q 26.21875 -1.421875 20.015625 -1.421875 
Q 13.03125 -1.421875 8.5625 2.84375 
Q 4.109375 7.125 4.109375 13.8125 
Q 4.109375 23.390625 11.75 28.953125 
Q 19.390625 34.515625 32.8125 34.515625 
L 45.3125 34.515625 
L 45.796875 36.921875 
Q 45.90625 37.3125 45.953125 37.765625 
Q 46 38.234375 46 39.203125 
Q 46 43.5625 42.453125 45.96875 
Q 38.921875 48.390625 32.515625 48.390625 
Q 28.125 48.390625 23.5 47.265625 
Q 18.890625 46.140625 14.015625 43.890625 
L 15.578125 52.203125 
Q 20.65625 54.109375 25.515625 55.046875 
Q 30.375 56 34.90625 56 
Q 44.578125 56 49.625 51.796875 
Q 54.6875 47.609375 54.6875 39.59375 
Q 54.6875 37.984375 54.4375 35.8125 
Q 54.203125 33.640625 53.71875 31.203125 
z
M 44 27.484375 
L 35.015625 27.484375 
Q 23.96875 27.484375 18.671875 24.53125 
Q 13.375 21.578125 13.375 15.375 
Q 13.375 11.078125 16.078125 8.640625 
Q 18.796875 6.203125 23.578125 6.203125 
Q 30.90625 6.203125 36.375 11.453125 
Q 41.84375 16.703125 43.609375 25.484375 
z
" id="DejaVuSans-Oblique-97"/>
     </defs>
     <use transform="translate(0 0.015625)" xlink:href="#DejaVuSans-Oblique-107"/>
     <use transform="translate(57.910156 0.015625)" xlink:href="#DejaVuSans-Oblique-97"/>
    </g>
   </g>
   <g id="patch_3">
    <path d="M 286.2 27.802857 
Q 286.2 212.280358 286.2 397.875894 
" style="fill:none;stroke:#000000;stroke-linecap:round;"/>
    <path d="M 283 34.202857 
L 286.2 27.802857 
L 289.4 34.202857 
" style="fill:none;stroke:#000000;stroke-linecap:round;"/>
   </g>
   <g id="text_2">
    <!-- $E$ -->
    <g transform="translate(281.08 19.3575)scale(0.16 -0.16)">
     <defs>
      <path d="M 16.890625 72.90625 
L 62.984375 72.90625 
L 61.375 64.59375 
L 25.09375 64.59375 
L 20.90625 43.015625 
L 55.71875 43.015625 
L 54.109375 34.71875 
L 19.28125 34.71875 
L 14.203125 8.296875 
L 51.3125 8.296875 
L 49.703125 0 
L 2.6875 0 
z
" id="DejaVuSans-Oblique-69"/>
     </defs>
     <use transform="translate(0 0.09375)" xlink:href="#DejaVuSans-Oblique-69"/>
    </g>
   </g>
   <g id="text_3">
    <!-- $-\pi$ -->
    <g transform="translate(21.043636 416.88313)scale(0.16 -0.16)">
     <defs>
      <path d="M 10.59375 35.5 
L 73.1875 35.5 
L 73.1875 27.203125 
L 10.59375 27.203125 
z
" id="DejaVuSans-8722"/>
      <path d="M 9.125 54.6875 
L 61.53125 54.6875 
L 59.765625 45.703125 
L 52.875 45.703125 
L 46.34375 12.109375 
Q 45.65625 8.59375 46.578125 7.03125 
Q 47.46875 5.515625 50.140625 5.515625 
Q 50.875 5.515625 51.953125 5.671875 
Q 53.078125 5.765625 53.421875 5.8125 
L 52.15625 -0.6875 
Q 50.34375 -1.3125 48.484375 -1.609375 
Q 46.578125 -1.90625 44.78125 -1.90625 
Q 38.921875 -1.90625 37.3125 1.265625 
Q 35.6875 4.5 37.359375 13.09375 
L 43.703125 45.703125 
L 23.53125 45.703125 
L 14.65625 0 
L 5.46875 0 
L 14.359375 45.703125 
L 7.375 45.703125 
z
" id="DejaVuSans-Oblique-960"/>
     </defs>
     <use transform="translate(0 0.3125)" xlink:href="#DejaVuSans-8722"/>
     <use transform="translate(83.789062 0.3125)" xlink:href="#DejaVuSans-Oblique-960"/>
    </g>
   </g>
   <g id="text_4">
    <!-- $0$ -->
    <g transform="translate(281.08 416.88313)scale(0.16 -0.16)">
     <defs>
      <path d="M 31.78125 66.40625 
Q 24.171875 66.40625 20.328125 58.90625 
Q 16.5 51.421875 16.5 36.375 
Q 16.5 21.390625 20.328125 13.890625 
Q 24.171875 6.390625 31.78125 6.390625 
Q 39.453125 6.390625 43.28125 13.890625 
Q 47.125 21.390625 47.125 36.375 
Q 47.125 51.421875 43.28125 58.90625 
Q 39.453125 66.40625 31.78125 66.40625 
z
M 31.78125 74.21875 
Q 44.046875 74.21875 50.515625 64.515625 
Q 56.984375 54.828125 56.984375 36.375 
Q 56.984375 17.96875 50.515625 8.265625 
Q 44.046875 -1.421875 31.78125 -1.421875 
Q 19.53125 -1.421875 13.0625 8.265625 
Q 6.59375 17.96875 6.59375 36.375 
Q 6.59375 54.828125 13.0625 64.515625 
Q 19.53125 74.21875 31.78125 74.21875 
z
" id="DejaVuSans-48"/>
     </defs>
     <use transform="translate(0 0.78125)" xlink:href="#DejaVuSans-48"/>
    </g>
   </g>
   <g id="text_5">
    <!-- $\pi$ -->
    <g transform="translate(534.956364 416.88313)scale(0.16 -0.16)">
     <use transform="translate(0 0.3125)" xlink:href="#DejaVuSans-Oblique-960"/>
    </g>
   </g>
  </g>
 </g>
 <defs>
  <clipPath id="p3e53d1b3a7">
   <rect height="380.52" width="558" x="7.2" y="19.3575"/>
  </clipPath>
 </defs>
</svg>
