<?xml version="1.0" encoding="UTF-8" standalone="no"?>
<!-- Created with Inkscape (http://www.inkscape.org/) -->

<svg
   xmlns:ns0="http://www.iki.fi/pav/software/textext/"
   xmlns:dc="http://purl.org/dc/elements/1.1/"
   xmlns:cc="http://creativecommons.org/ns#"
   xmlns:rdf="http://www.w3.org/1999/02/22-rdf-syntax-ns#"
   xmlns:svg="http://www.w3.org/2000/svg"
   xmlns="http://www.w3.org/2000/svg"
   xmlns:sodipodi="http://sodipodi.sourceforge.net/DTD/sodipodi-0.dtd"
   xmlns:inkscape="http://www.inkscape.org/namespaces/inkscape"
   width="203.06923mm"
   height="54.120308mm"
   viewBox="0 0 719.53664 191.76487"
   id="svg2"
   version="1.1"
   inkscape:version="0.91 r13725"
   sodipodi:docname="band_structure_sketch.svg">
  <sodipodi:namedview
     id="base"
     pagecolor="#ffffff"
     bordercolor="#666666"
     borderopacity="1.0"
     inkscape:pageopacity="0.0"
     inkscape:pageshadow="2"
     inkscape:zoom="2.8"
     inkscape:cx="262.11266"
     inkscape:cy="-23.658428"
     inkscape:document-units="px"
     inkscape:current-layer="layer1"
     showgrid="false"
     inkscape:window-width="1855"
     inkscape:window-height="1056"
     inkscape:window-x="65"
     inkscape:window-y="24"
     inkscape:window-maximized="1"
     inkscape:object-nodes="true"
     fit-margin-top="0"
     fit-margin-left="0"
     fit-margin-right="0"
     fit-margin-bottom="0" />
  <defs
     id="defs4">
    <marker
       inkscape:isstock="true"
       style="overflow:visible"
       id="marker5527"
       refX="0"
       refY="0"
       orient="auto"
       inkscape:stockid="Arrow1Lend">
      <path
         transform="matrix(-0.8,0,0,-0.8,-10,0)"
         style="fill:#000000;fill-opacity:1;fill-rule:evenodd;stroke:#000000;stroke-width:1pt;stroke-opacity:1"
         d="M 0,0 5,-5 -12.5,0 5,5 0,0 Z"
         id="path5529"
         inkscape:connector-curvature="0" />
    </marker>
    <marker
       inkscape:stockid="Arrow1Lend"
       orient="auto"
       refY="0"
       refX="0"
       id="marker5181"
       style="overflow:visible"
       inkscape:isstock="true">
      <path
         inkscape:connector-curvature="0"
         id="path5183"
         d="M 0,0 5,-5 -12.5,0 5,5 0,0 Z"
         style="fill:#000000;fill-opacity:1;fill-rule:evenodd;stroke:#000000;stroke-width:1pt;stroke-opacity:1"
         transform="matrix(-0.8,0,0,-0.8,-10,0)" />
    </marker>
    <marker
       inkscape:collect="always"
       inkscape:stockid="Arrow1Lend"
       orient="auto"
       refY="0"
       refX="0"
       id="marker5087"
       style="overflow:visible"
       inkscape:isstock="true">
      <path
         inkscape:connector-curvature="0"
         id="path5089"
         d="M 0,0 5,-5 -12.5,0 5,5 0,0 Z"
         style="fill:#000000;fill-opacity:1;fill-rule:evenodd;stroke:#000000;stroke-width:1pt;stroke-opacity:1"
         transform="matrix(-0.8,0,0,-0.8,-10,0)" />
    </marker>
    <marker
       inkscape:collect="always"
       inkscape:isstock="true"
       style="overflow:visible"
       id="Arrow1Lend"
       refX="0"
       refY="0"
       orient="auto"
       inkscape:stockid="Arrow1Lend">
      <path
         transform="matrix(-0.8,0,0,-0.8,-10,0)"
         style="fill:#000000;fill-opacity:1;fill-rule:evenodd;stroke:#000000;stroke-width:1pt;stroke-opacity:1"
         d="M 0,0 5,-5 -12.5,0 5,5 0,0 Z"
         id="path4164"
         inkscape:connector-curvature="0" />
    </marker>
    <marker
       inkscape:collect="always"
       inkscape:isstock="true"
       style="overflow:visible"
       id="Arrow1Lend-3"
       refX="0"
       refY="0"
       orient="auto"
       inkscape:stockid="Arrow1Lend">
      <path
         transform="matrix(-0.8,0,0,-0.8,-10,0)"
         style="fill:#000000;fill-opacity:1;fill-rule:evenodd;stroke:#000000;stroke-width:1pt;stroke-opacity:1"
         d="M 0,0 5,-5 -12.5,0 5,5 0,0 Z"
         id="path4164-6"
         inkscape:connector-curvature="0" />
    </marker>
  </defs>
  <metadata
     id="metadata7">
    <rdf:RDF>
      <cc:Work
         rdf:about="">
        <dc:format>image/svg+xml</dc:format>
        <dc:type
           rdf:resource="http://purl.org/dc/dcmitype/StillImage" />
        <dc:title />
      </cc:Work>
    </rdf:RDF>
  </metadata>
  <g
     transform="translate(29.383135,-262.0179)"
     inkscape:label="Layer 1"
     inkscape:groupmode="layer"
     id="layer1">
    <path
       inkscape:connector-curvature="0"
       id="path4155"
       d="m 111.17501,453.78276 0,-187.17646"
       style="fill:none;fill-rule:evenodd;stroke:#000000;stroke-width:1.48831511;stroke-linecap:butt;stroke-linejoin:miter;stroke-miterlimit:4;stroke-dasharray:none;stroke-opacity:1;marker-end:url(#Arrow1Lend)" />
    <path
       sodipodi:nodetypes="cc"
       inkscape:connector-curvature="0"
       id="path4155-7"
       d="m -22.582644,418.84014 302.188474,0"
       style="fill:none;fill-rule:evenodd;stroke:#000000;stroke-width:1.48831511;stroke-linecap:butt;stroke-linejoin:miter;stroke-miterlimit:4;stroke-dasharray:none;stroke-opacity:1;marker-end:url(#Arrow1Lend-3)" />
    <path
       style="fill:none;fill-rule:evenodd;stroke:#000000;stroke-width:1px;stroke-linecap:butt;stroke-linejoin:miter;stroke-opacity:1"
       d="m 229.8097,410.75892 0,16.16244"
       id="path4868"
       inkscape:connector-curvature="0" />
    <path
       style="fill:none;fill-rule:evenodd;stroke:#000000;stroke-width:1px;stroke-linecap:butt;stroke-linejoin:miter;stroke-opacity:1"
       d="m -4.708127,410.75892 0,16.16244"
       id="path4868-3"
       inkscape:connector-curvature="0" />
    <path
       style="fill:none;fill-rule:evenodd;stroke:#000000;stroke-width:1px;stroke-linecap:butt;stroke-linejoin:miter;stroke-opacity:1"
       d="m 111.11678,382.32904 c 30.80965,0 15.65736,-16.66752 34.85026,-30.80965 19.1929,-14.14214 35.86042,-8.5863 47.47717,8.08122 11.61676,16.66752 35.35534,7.57614 35.35534,7.57614"
       id="path4915"
       inkscape:connector-curvature="0" />
    <path
       style="fill:none;fill-rule:evenodd;stroke:#000000;stroke-width:1px;stroke-linecap:butt;stroke-linejoin:miter;stroke-opacity:1"
       d="m 111.11678,382.32904 c -30.809646,0 -15.65736,-16.66752 -34.850256,-30.80965 -19.1929,-14.14214 -35.86042,-8.5863 -47.47717,8.08122 -11.61676,16.66752 -35.3553369,7.57614 -35.3553369,7.57614"
       id="path4915-6"
       inkscape:connector-curvature="0" />
    <path
       style="fill:none;fill-rule:evenodd;stroke:#000000;stroke-width:1px;stroke-linecap:butt;stroke-linejoin:miter;stroke-opacity:1"
       d="m 111.11678,410.63681 c 55.05331,0 46.97209,-16.16244 57.07362,-14.14214 10.10152,2.02031 2.0203,13.63706 31.31473,13.63706 29.29442,0 17.17259,-1.51523 30.30457,-1.51523"
       id="path4952"
       inkscape:connector-curvature="0"
       sodipodi:nodetypes="cssc" />
    <path
       style="fill:none;fill-rule:evenodd;stroke:#000000;stroke-width:1px;stroke-linecap:butt;stroke-linejoin:miter;stroke-opacity:1"
       d="m 111.62186,360.91279 c 25.25381,0 20.67336,-37.23474 43.43656,-40.91118 38.55168,-6.22641 41.41625,-20.20305 70.2056,-20.70813"
       id="path4954"
       inkscape:connector-curvature="0"
       sodipodi:nodetypes="csc" />
    <path
       style="fill:none;fill-rule:evenodd;stroke:#000000;stroke-width:1px;stroke-linecap:butt;stroke-linejoin:miter;stroke-opacity:1"
       d="m 112.12694,410.63681 c -55.05331,0 -46.97209,-16.16244 -57.07362,-14.14214 -10.10152,2.02031 -2.0203,13.63706 -31.314726,13.63706 -29.29442,0 -17.17259,-1.51523 -30.30457,-1.51523"
       id="path4952-3"
       inkscape:connector-curvature="0"
       sodipodi:nodetypes="cssc" />
    <path
       style="fill:none;fill-rule:evenodd;stroke:#000000;stroke-width:1px;stroke-linecap:butt;stroke-linejoin:miter;stroke-opacity:1"
       d="m 111.62186,360.91279 c -25.25381,0 -20.67336,-37.23474 -43.43656,-40.91118 C 29.633624,313.7752 26.769054,299.79856 -2.020296,299.29348"
       id="path4954-5"
       inkscape:connector-curvature="0"
       sodipodi:nodetypes="csc" />
    <path
       style="fill:none;fill-rule:evenodd;stroke:#000000;stroke-width:1.48831511;stroke-linecap:butt;stroke-linejoin:miter;stroke-miterlimit:4;stroke-dasharray:none;stroke-opacity:1;marker-end:url(#marker5087)"
       d="m 311.17501,453.78276 0,-187.17646"
       id="path5083"
       inkscape:connector-curvature="0" />
    <path
       style="fill:none;fill-rule:evenodd;stroke:#000000;stroke-width:1.48831511;stroke-linecap:butt;stroke-linejoin:miter;stroke-miterlimit:4;stroke-dasharray:none;stroke-opacity:1;marker-end:url(#marker5181)"
       d="m 297.41736,418.84014 182.18847,0"
       id="path5085"
       inkscape:connector-curvature="0"
       sodipodi:nodetypes="cc" />
    <path
       style="font-style:normal;font-variant:normal;font-weight:normal;font-stretch:normal;letter-spacing:normal;word-spacing:normal;text-anchor:start;fill:#000000;fill-opacity:1;fill-rule:evenodd;stroke:#000000;stroke-width:0;stroke-linecap:butt;stroke-linejoin:miter;stroke-miterlimit:10.43299961;stroke-dasharray:none;stroke-dashoffset:0;stroke-opacity:1"
       inkscape:connector-curvature="0"
       d="m 98.03571,270.0679 0,0 0.0125,0 0,-0.0125 0,0 0,-0.0125 0,-0.0125 0.0125,0 0,-0.0125 0,0 0,-0.0125 0.0125,-0.0125 0,0 0,-0.025 0.0125,-0.0125 0,-0.025 0.0125,-0.0125 0,-0.0125 0,-0.0125 0,-0.0125 0.0125,0 0,-0.0125 0,-0.0125 0,0 0,-0.0125 0,-0.0125 0,0 0,-0.0125 c 0,-0.0875 -0.075,-0.175 -0.175,-0.175 -0.075,0 -0.1125,0.0125 -0.1625,0.075 -0.0375,0.0125 -0.0375,0.05 -0.2,0.4125 -1.0625,2.5125 -1.825,3.5875 -4.7,3.5875 l -2.6125,0 c -0.25,0 -0.2875,0 -0.4,-0.025 -0.2,-0.0125 -0.2125,-0.05 -0.2125,-0.2 0,-0.125 0.0375,-0.225 0.075,-0.3875 l 1.2375,-4.95 1.775,0 c 1.4,0 1.5,0.3 1.5,0.8375 0,0.1875 0,0.35 -0.125,0.8875 -0.0375,0.0625 -0.05,0.1375 -0.05,0.1875 0,0.1375 0.0875,0.1875 0.2,0.1875 0.1625,0 0.175,-0.125 0.25,-0.375 l 1.025,-4.1625 c 0,-0.0875 -0.075,-0.175 -0.1875,-0.175 -0.1625,0 -0.175,0.0625 -0.25,0.3125 -0.3625,1.3875 -0.7125,1.775 -2.3125,1.775 l -1.7,0 1.1125,-4.4125 c 0.15,-0.625 0.1875,-0.675 0.925,-0.675 l 2.5625,0 c 2.2125,0 2.6625,0.5875 2.6625,1.95 0,0.025 0,0.525 -0.075,1.1125 -0.025,0.075 -0.0375,0.175 -0.0375,0.2125 0,0.15 0.0875,0.2 0.2,0.2 0.125,0 0.2,-0.075 0.225,-0.3875 l 0.3875,-3.1375 c 0,-0.0625 0.0375,-0.2375 0.0375,-0.275 0,-0.2 -0.1625,-0.2 -0.4875,-0.2 l -8.75,0 c -0.35,0 -0.525,0 -0.525,0.325 0,0.2 0.125,0.2 0.425,0.2 1.1125,0 1.1125,0.125 1.1125,0.325 0,0.0875 -0.0125,0.1625 -0.0625,0.35 l -2.425,9.6875 c -0.1625,0.625 -0.2,0.8125 -1.45,0.8125 -0.3375,0 -0.525,0 -0.525,0.325 0,0.1875 0.1125,0.1875 0.4625,0.1875 l 9.0125,0 c 0.3875,0 0.4125,-0.0125 0.5375,-0.3 z"
       id="path5267" />
    <path
       style="font-style:normal;font-variant:normal;font-weight:normal;font-stretch:normal;letter-spacing:normal;word-spacing:normal;text-anchor:start;fill:#000000;fill-opacity:1;fill-rule:evenodd;stroke:#000000;stroke-width:0;stroke-linecap:butt;stroke-linejoin:miter;stroke-miterlimit:10.43299961;stroke-dasharray:none;stroke-dashoffset:0;stroke-opacity:1"
       inkscape:connector-curvature="0"
       d="m 276.11742,429.82925 0,-0.0125 0,-0.0125 0,0 0,-0.0125 0.0125,-0.0125 0,-0.0125 0,-0.025 0.0125,-0.0125 0,-0.0125 0,-0.025 0.0125,-0.0125 0,-0.025 0,-0.0125 0,-0.0125 0.0125,-0.025 0,-0.0125 0,-0.0125 0,-0.0125 0,0 0,-0.0125 c 0,-0.175 -0.175,-0.175 -0.2125,-0.175 -0.025,0 -0.6625,0.05 -0.9875,0.0875 -0.3125,0.0125 -0.575,0.05 -0.9,0.0625 -0.425,0.0375 -0.55,0.0625 -0.55,0.3875 0,0.175 0.175,0.175 0.35,0.175 0.925,0 0.925,0.1625 0.925,0.3375 0,0.075 0,0.1125 -0.1,0.4375 l -2.5625,10.25 c -0.075,0.275 -0.075,0.3125 -0.075,0.4125 0,0.4 0.3125,0.475 0.4875,0.475 0.5,0 0.6125,-0.4 0.75,-0.95 l 0.85,-3.3625 c 1.2875,0.15 2.0625,0.6875 2.0625,1.55 0,0.1 0,0.175 -0.05,0.45 -0.075,0.2625 -0.075,0.475 -0.075,0.5625 0,1.05 0.675,1.75 1.5875,1.75 0.825,0 1.2625,-0.7625 1.4,-1.0125 0.3875,-0.6625 0.6125,-1.6625 0.6125,-1.7375 0,-0.0875 -0.075,-0.1625 -0.175,-0.1625 -0.1625,0 -0.1875,0.075 -0.25,0.3625 -0.25,0.9375 -0.6375,2.1875 -1.55,2.1875 -0.35,0 -0.5875,-0.175 -0.5875,-0.8625 0,-0.3375 0.075,-0.7375 0.1375,-1 0.075,-0.325 0.075,-0.35 0.075,-0.5625 0,-1.05 -0.95,-1.65 -2.6,-1.8625 0.65,-0.4 1.2875,-1.1 1.55,-1.3625 1.0125,-1.15 1.7125,-1.725 2.5375,-1.725 0.4125,0 0.525,0.1125 0.65,0.2125 -0.6625,0.075 -0.9125,0.5375 -0.9125,0.9 0,0.4375 0.3375,0.575 0.5875,0.575 0.4875,0 0.9125,-0.4125 0.9125,-0.9875 0,-0.5125 -0.4125,-1.05 -1.2125,-1.05 -0.9875,0 -1.8,0.7 -3.075,2.125 -0.175,0.2125 -0.8375,0.9 -1.5,1.15 z"
       id="path5269" />
    <g
       id="g5349"
       transform="translate(128.04899,205.45346)">
      <path
         id="path5271"
         d="m 92.01071,227.4679 2.025,0 c -0.4875,2.0125 -0.7875,3.325 -0.7875,4.7625 0,0.25 0,2.1875 0.725,2.1875 0.375,0 0.7,-0.35 0.7,-0.65 0,-0.0875 0,-0.125 -0.125,-0.4 -0.475,-1.2375 -0.475,-2.775 -0.475,-2.9 0,-0.1125 0,-1.3875 0.375,-3 l 2,0 c 0.2375,0 0.825,0 0.825,-0.575 0,-0.3875 -0.3375,-0.3875 -0.6625,-0.3875 l -5.9,0 c -0.4125,0 -1.025,0 -1.85,0.875 -0.4625,0.525 -1.0375,1.475 -1.0375,1.5875 0,0.1 0.0875,0.1375 0.2,0.1375 0.125,0 0.15,-0.05 0.2375,-0.1625 0.925,-1.475 1.8625,-1.475 2.3125,-1.475 l 1.025,0 c -0.4,1.35 -0.85,2.9125 -2.325,6.05 -0.1375,0.2875 -0.1375,0.325 -0.1375,0.425 0,0.375 0.325,0.475 0.4875,0.475 0.5125,0 0.6625,-0.475 0.875,-1.225 0.2875,-0.9125 0.2875,-0.95 0.4625,-1.6625 z"
         inkscape:connector-curvature="0"
         style="font-style:normal;font-variant:normal;font-weight:normal;font-stretch:normal;letter-spacing:normal;word-spacing:normal;text-anchor:start;fill:#000000;fill-opacity:1;fill-rule:evenodd;stroke:#000000;stroke-width:0;stroke-linecap:butt;stroke-linejoin:miter;stroke-miterlimit:10.43299961;stroke-dasharray:none;stroke-dashoffset:0;stroke-opacity:1" />
      <path
         id="path5273"
         d="m 105.66071,221.4429 0,0 0,0 0,0 0,0 0,0 0,-0.0125 0,0 0,0 0,0 0,-0.0125 0,0 0,0 0.0125,-0.0125 0,-0.0125 0,-0.0125 0.0125,-0.0125 0,-0.0125 0,-0.0125 0.0125,-0.0125 0,-0.0125 0.0125,-0.025 0.0125,-0.025 0,-0.0125 0.0125,-0.0125 0,-0.0125 0,-0.025 0.0125,0 0,-0.0125 0,-0.0125 0.0125,-0.0125 0,-0.0125 0,0 0,-0.0125 0,0 0,0 0,0 0,-0.0125 0,0 0,0 0,0 0,-0.0125 c 0,-0.2125 -0.175,-0.3375 -0.325,-0.3375 -0.0875,0 -0.25,0 -0.3875,0.4 l -6.0125,16.875 c 0,0.0125 -0.1,0.2875 -0.1,0.325 0,0.2125 0.175,0.3375 0.325,0.3375 0.1,0 0.2625,-0.025 0.3875,-0.4 z"
         inkscape:connector-curvature="0"
         style="font-style:normal;font-variant:normal;font-weight:normal;font-stretch:normal;letter-spacing:normal;word-spacing:normal;text-anchor:start;fill:#000000;fill-opacity:1;fill-rule:evenodd;stroke:#000000;stroke-width:0;stroke-linecap:butt;stroke-linejoin:miter;stroke-miterlimit:10.43299961;stroke-dasharray:none;stroke-dashoffset:0;stroke-opacity:1" />
      <path
         id="path5275"
         d="m 113.28571,227.5054 -0.025,-0.0375 -0.0125,-0.05 -0.025,-0.05 -0.025,-0.0375 -0.025,-0.05 -0.025,-0.05 -0.0375,-0.05 -0.025,-0.05 -0.0375,-0.05 -0.0375,-0.05 -0.0375,-0.05 -0.0375,-0.05 -0.05,-0.05 -0.0375,-0.05 -0.05,-0.0375 -0.05,-0.05 -0.05,-0.05 -0.05,-0.0375 -0.05,-0.0375 -0.0625,-0.0375 -0.05,-0.0375 -0.0625,-0.0375 -0.0625,-0.0375 -0.075,-0.025 -0.0625,-0.025 -0.075,-0.025 -0.075,-0.0125 -0.075,-0.025 -0.075,-0.0125 -0.0875,-0.0125 -0.075,0 -0.0875,0 0,0.35 c 1.1875,0 1.4125,1.475 1.4125,1.6125 0,0.025 -0.05,0.25 -0.075,0.2875 l -0.875,3.525 c -0.0875,0.3 -0.0875,0.3375 -0.3375,0.675 -0.4,0.5 -1.1875,1.275 -2.025,1.275 -0.7375,0 -1.15,-0.6625 -1.15,-1.725 0,-0.9875 0.55,-2.9875 0.9,-3.75 0.6,-1.25 1.45,-1.9 2.15,-1.9 l 0,-0.35 c -2.025,0 -4.2125,2.6125 -4.2125,5.2625 0,1.775 1.0375,2.825 2.25,2.825 0.9875,0 1.8375,-0.775 2.3375,-1.3625 0.175,1.05 1.025,1.3625 1.5625,1.3625 0.5375,0 0.9625,-0.325 1.2875,-0.975 0.2875,-0.6125 0.5375,-1.7 0.5375,-1.775 0,-0.0875 -0.075,-0.1625 -0.175,-0.1625 -0.1625,0 -0.1875,0.0875 -0.25,0.3625 -0.275,1.05 -0.6125,2.1875 -1.35,2.1875 -0.525,0 -0.5625,-0.4625 -0.5625,-0.825 0,-0.4125 0.0625,-0.6125 0.225,-1.3125 0.125,-0.45 0.2125,-0.8375 0.35,-1.3625 0.675,-2.6875 0.825,-3.3375 0.825,-3.4375 0,-0.25 -0.1875,-0.45 -0.4625,-0.45 -0.575,0 -0.7125,0.625 -0.75,0.8375 z"
         inkscape:connector-curvature="0"
         style="font-style:normal;font-variant:normal;font-weight:normal;font-stretch:normal;letter-spacing:normal;word-spacing:normal;text-anchor:start;fill:#000000;fill-opacity:1;fill-rule:evenodd;stroke:#000000;stroke-width:0;stroke-linecap:butt;stroke-linejoin:miter;stroke-miterlimit:10.43299961;stroke-dasharray:none;stroke-dashoffset:0;stroke-opacity:1" />
    </g>
    <g
       id="g5343"
       transform="translate(-154.81884,205.45346)">
      <path
         id="path5277"
         d="m 135.76071,230.1054 0.0625,0 0.0625,0 0.05,0 0.025,0 0.0375,0 0.025,0 0.025,-0.0125 0.025,0 0.025,0 0.025,-0.0125 0.025,0 0.025,-0.0125 0.025,0 0.0125,-0.0125 0.025,-0.0125 0.025,-0.0125 0.0125,-0.0125 0.025,-0.0125 0.0125,-0.0125 0.0125,-0.0125 0.0125,-0.025 0.0125,-0.0125 0,0 0.0125,-0.0125 0,-0.0125 0,-0.0125 0.0125,-0.0125 0,-0.0125 0,-0.0125 0.0125,-0.0125 0,-0.0125 0,-0.0125 0,-0.0125 0,-0.025 0.0125,-0.0125 0,-0.0125 0,-0.0125 c 0,-0.3625 -0.325,-0.3625 -0.6375,-0.3625 l -9.7,0 c -0.3,0 -0.625,0 -0.625,0.3625 0,0.35 0.325,0.35 0.625,0.35 z"
         inkscape:connector-curvature="0"
         style="font-style:normal;font-variant:normal;font-weight:normal;font-stretch:normal;letter-spacing:normal;word-spacing:normal;text-anchor:start;fill:#000000;fill-opacity:1;fill-rule:evenodd;stroke:#000000;stroke-width:0;stroke-linecap:butt;stroke-linejoin:miter;stroke-miterlimit:10.43299961;stroke-dasharray:none;stroke-dashoffset:0;stroke-opacity:1" />
      <path
         id="path5279"
         d="m 142.52321,227.4679 2.025,0 c -0.475,2.0125 -0.7875,3.325 -0.7875,4.7625 0,0.25 0,2.1875 0.7375,2.1875 0.375,0 0.7,-0.35 0.7,-0.65 0,-0.0875 0,-0.125 -0.125,-0.4 -0.4875,-1.2375 -0.4875,-2.775 -0.4875,-2.9 0,-0.1125 0,-1.3875 0.375,-3 l 2.0125,0 c 0.2375,0 0.825,0 0.825,-0.575 0,-0.3875 -0.3375,-0.3875 -0.6625,-0.3875 l -5.9,0 c -0.4125,0 -1.025,0 -1.85,0.875 -0.4625,0.525 -1.0375,1.475 -1.0375,1.5875 0,0.1 0.0875,0.1375 0.2,0.1375 0.125,0 0.1375,-0.05 0.2375,-0.1625 0.925,-1.475 1.8625,-1.475 2.3125,-1.475 l 1.0125,0 c -0.3875,1.35 -0.8375,2.9125 -2.3125,6.05 -0.1375,0.2875 -0.1375,0.325 -0.1375,0.425 0,0.375 0.325,0.475 0.475,0.475 0.525,0 0.675,-0.475 0.8875,-1.225 0.2875,-0.9125 0.2875,-0.95 0.4625,-1.6625 z"
         inkscape:connector-curvature="0"
         style="font-style:normal;font-variant:normal;font-weight:normal;font-stretch:normal;letter-spacing:normal;word-spacing:normal;text-anchor:start;fill:#000000;fill-opacity:1;fill-rule:evenodd;stroke:#000000;stroke-width:0;stroke-linecap:butt;stroke-linejoin:miter;stroke-miterlimit:10.43299961;stroke-dasharray:none;stroke-dashoffset:0;stroke-opacity:1" />
      <path
         id="path5281"
         d="m 156.18571,221.4429 0,0 0,0 0,0 0,0 0,0 0,-0.0125 0,0 0,0 0,0 0,-0.0125 0,0 0,0 0.0125,-0.0125 0,-0.0125 0,-0.0125 0,-0.0125 0.0125,-0.0125 0,-0.0125 0.0125,-0.0125 0,-0.0125 0.0125,-0.025 0.0125,-0.025 0,-0.0125 0,-0.0125 0.0125,-0.0125 0,-0.025 0,0 0.0125,-0.0125 0,-0.0125 0,-0.0125 0.0125,-0.0125 0,0 0,-0.0125 0,0 0,0 0,0 0,-0.0125 0,0 0,0 0,0 0,-0.0125 c 0,-0.2125 -0.175,-0.3375 -0.325,-0.3375 -0.0875,0 -0.25,0 -0.3875,0.4 l -6.0125,16.875 c 0,0.0125 -0.1,0.2875 -0.1,0.325 0,0.2125 0.175,0.3375 0.3125,0.3375 0.1125,0 0.275,-0.025 0.4,-0.4 z"
         inkscape:connector-curvature="0"
         style="font-style:normal;font-variant:normal;font-weight:normal;font-stretch:normal;letter-spacing:normal;word-spacing:normal;text-anchor:start;fill:#000000;fill-opacity:1;fill-rule:evenodd;stroke:#000000;stroke-width:0;stroke-linecap:butt;stroke-linejoin:miter;stroke-miterlimit:10.43299961;stroke-dasharray:none;stroke-dashoffset:0;stroke-opacity:1" />
      <path
         id="path5283"
         d="m 163.81071,227.5054 -0.025,-0.0375 -0.025,-0.05 -0.0125,-0.05 -0.025,-0.0375 -0.025,-0.05 -0.0375,-0.05 -0.025,-0.05 -0.0375,-0.05 -0.025,-0.05 -0.0375,-0.05 -0.0375,-0.05 -0.0375,-0.05 -0.05,-0.05 -0.0375,-0.05 -0.05,-0.0375 -0.05,-0.05 -0.05,-0.05 -0.05,-0.0375 -0.05,-0.0375 -0.0625,-0.0375 -0.0625,-0.0375 -0.0625,-0.0375 -0.0625,-0.0375 -0.0625,-0.025 -0.075,-0.025 -0.0625,-0.025 -0.075,-0.0125 -0.075,-0.025 -0.075,-0.0125 -0.0875,-0.0125 -0.0875,0 -0.075,0 0,0.35 c 1.175,0 1.4125,1.475 1.4125,1.6125 0,0.025 -0.05,0.25 -0.075,0.2875 l -0.875,3.525 c -0.0875,0.3 -0.0875,0.3375 -0.3375,0.675 -0.4,0.5 -1.1875,1.275 -2.0375,1.275 -0.725,0 -1.1375,-0.6625 -1.1375,-1.725 0,-0.9875 0.55,-2.9875 0.8875,-3.75 0.6125,-1.25 1.4625,-1.9 2.1625,-1.9 l 0,-0.35 c -2.0375,0 -4.225,2.6125 -4.225,5.2625 0,1.775 1.05,2.825 2.2625,2.825 0.9875,0 1.8375,-0.775 2.3375,-1.3625 0.175,1.05 1.0125,1.3625 1.5625,1.3625 0.525,0 0.9625,-0.325 1.2875,-0.975 0.2875,-0.6125 0.5375,-1.7 0.5375,-1.775 0,-0.0875 -0.075,-0.1625 -0.1875,-0.1625 -0.15,0 -0.175,0.0875 -0.25,0.3625 -0.2625,1.05 -0.6,2.1875 -1.3375,2.1875 -0.525,0 -0.5625,-0.4625 -0.5625,-0.825 0,-0.4125 0.0625,-0.6125 0.2125,-1.3125 0.1375,-0.45 0.225,-0.8375 0.3625,-1.3625 0.6625,-2.6875 0.825,-3.3375 0.825,-3.4375 0,-0.25 -0.2,-0.45 -0.4625,-0.45 -0.575,0 -0.725,0.625 -0.75,0.8375 z"
         inkscape:connector-curvature="0"
         style="font-style:normal;font-variant:normal;font-weight:normal;font-stretch:normal;letter-spacing:normal;word-spacing:normal;text-anchor:start;fill:#000000;fill-opacity:1;fill-rule:evenodd;stroke:#000000;stroke-width:0;stroke-linecap:butt;stroke-linejoin:miter;stroke-miterlimit:10.43299961;stroke-dasharray:none;stroke-dashoffset:0;stroke-opacity:1" />
    </g>
    <g
       id="g5365"
       transform="translate(284.68027,206.71833)">
      <path
         id="path5285"
         d="m 173.64821,227.5054 -0.025,-0.05 -0.025,-0.05 -0.025,-0.05 -0.025,-0.05 -0.025,-0.05 -0.0375,-0.05 -0.025,-0.05 -0.0375,-0.05 -0.0375,-0.05 -0.0375,-0.05 -0.0375,-0.05 -0.0375,-0.05 -0.05,-0.05 -0.05,-0.0375 -0.0375,-0.05 -0.05,-0.05 -0.05,-0.0375 -0.0625,-0.0375 -0.05,-0.0375 -0.0625,-0.0375 -0.05,-0.0375 -0.0625,-0.0375 -0.0625,-0.025 -0.0625,-0.025 -0.075,-0.025 -0.0625,-0.025 -0.075,-0.025 -0.075,-0.0125 -0.075,-0.0125 -0.075,-0.0125 -0.0875,0 -0.0875,0 0,0.35 c 1.1875,0 1.425,1.475 1.425,1.5875 l -0.05,0.25 -0.85,3.4375 c -0.075,0.2875 -0.1,0.3625 -0.3375,0.625 -0.7375,0.95 -1.4875,1.3 -2.05,1.3 -0.5875,0 -1.15,-0.475 -1.15,-1.7125 0,-0.95 0.55,-2.95 0.9375,-3.7625 0.525,-1 1.325,-1.725 2.075,-1.725 l 0,-0.35 c -1.95,0 -4.175,2.45 -4.175,5.125 0,1.8625 1.1375,2.775 2.2875,2.775 0.9375,0 1.7875,-0.75 2.1125,-1.1125 l -0.4,1.6125 c -0.25,0.9875 -0.35,1.4375 -1,2.0625 -0.7375,0.7375 -1.4125,0.7375 -1.8125,0.7375 -0.5375,0 -0.9875,-0.0375 -1.4375,-0.175 0.575,-0.1625 0.725,-0.6625 0.725,-0.8625 0,-0.2875 -0.225,-0.575 -0.6125,-0.575 -0.4375,0 -0.9,0.3625 -0.9,0.95 0,0.7375 0.7375,1.025 2.2625,1.025 2.3125,0 3.5125,-1.4875 3.75,-2.4625 l 1.9875,-8.025 c 0.05,-0.225 0.05,-0.25 0.05,-0.2875 0,-0.25 -0.2,-0.45 -0.4625,-0.45 -0.4375,0 -0.6875,0.3625 -0.7375,0.8375 z"
         inkscape:connector-curvature="0"
         style="font-style:normal;font-variant:normal;font-weight:normal;font-stretch:normal;letter-spacing:normal;word-spacing:normal;text-anchor:start;fill:#000000;fill-opacity:1;fill-rule:evenodd;stroke:#000000;stroke-width:0;stroke-linecap:butt;stroke-linejoin:miter;stroke-miterlimit:10.43299961;stroke-dasharray:none;stroke-dashoffset:0;stroke-opacity:1" />
      <path
         id="path5287"
         d="m 181.36071,238.5929 0,-0.0125 0,-0.0125 0,0 0,-0.0125 0,0 0,0 -0.0125,-0.0125 0,0 0,-0.0125 0,-0.0125 -0.0125,0 0,-0.0125 -0.0125,-0.0125 0,0 -0.0125,-0.0125 0,-0.0125 -0.0125,-0.0125 -0.0125,-0.0125 0,-0.0125 -0.0125,0 0,-0.0125 -0.0125,0 0,-0.0125 -0.0125,-0.0125 -0.0125,0 0,-0.0125 -0.0125,-0.0125 -0.0125,-0.0125 0,0 -0.0125,-0.0125 -0.0125,-0.0125 -0.0125,-0.0125 0,-0.0125 -0.0125,-0.0125 -0.0125,0 -0.0125,-0.0125 -0.0125,-0.0125 -0.0125,-0.0125 -0.0125,-0.0125 -0.0125,-0.0125 -0.0125,-0.025 -0.0125,-0.0125 c -1.8,-1.8125 -2.8,-4.7625 -2.8,-8.425 0,-3.475 0.8375,-6.475 2.925,-8.5875 0.175,-0.1625 0.175,-0.2 0.175,-0.25 0,-0.1125 -0.0875,-0.15 -0.1625,-0.15 -0.2375,0 -1.7,1.3 -2.5875,3.05 -0.9125,1.8125 -1.325,3.7375 -1.325,5.9375 0,1.6 0.25,3.725 1.1875,5.65 1.0625,2.15 2.525,3.3125 2.725,3.3125 0.075,0 0.1625,-0.0375 0.1625,-0.1375 z"
         inkscape:connector-curvature="0"
         style="font-style:normal;font-variant:normal;font-weight:normal;font-stretch:normal;letter-spacing:normal;word-spacing:normal;text-anchor:start;fill:#000000;fill-opacity:1;fill-rule:evenodd;stroke:#000000;stroke-width:0;stroke-linecap:butt;stroke-linejoin:miter;stroke-miterlimit:10.43299961;stroke-dasharray:none;stroke-dashoffset:0;stroke-opacity:1" />
      <path
         id="path5289"
         d="m 194.82321,230.0679 0,0 0,0 0,-0.0125 0,0 0.0125,-0.0125 0,-0.0125 0,0 0,-0.0125 0.0125,0 0,-0.0125 0,-0.0125 0,0 0.0125,-0.025 0,-0.0125 0.0125,-0.025 0,-0.0125 0.0125,-0.0125 0,-0.0125 0,-0.0125 0,0 0,-0.0125 0,-0.0125 0,0 0,-0.0125 0.0125,-0.0125 0,0 0,-0.0125 c 0,-0.0875 -0.075,-0.175 -0.1875,-0.175 -0.0625,0 -0.1,0.0125 -0.1625,0.075 -0.0375,0.0125 -0.0375,0.05 -0.2,0.4125 -1.05,2.5125 -1.825,3.5875 -4.6875,3.5875 l -2.625,0 c -0.25,0 -0.2875,0 -0.3875,-0.025 -0.2,-0.0125 -0.225,-0.05 -0.225,-0.2 0,-0.125 0.0375,-0.225 0.075,-0.3875 l 1.2375,-4.95 1.775,0 c 1.4,0 1.5125,0.3 1.5125,0.8375 0,0.1875 0,0.35 -0.125,0.8875 -0.0375,0.0625 -0.0625,0.1375 -0.0625,0.1875 0,0.1375 0.1,0.1875 0.2,0.1875 0.1625,0 0.1875,-0.125 0.25,-0.375 l 1.025,-4.1625 c 0,-0.0875 -0.075,-0.175 -0.175,-0.175 -0.1625,0 -0.1875,0.0625 -0.25,0.3125 -0.3625,1.3875 -0.725,1.775 -2.3125,1.775 l -1.7125,0 1.1125,-4.4125 c 0.1625,-0.625 0.2,-0.675 0.9375,-0.675 l 2.5625,0 c 2.2,0 2.65,0.5875 2.65,1.95 0,0.025 0,0.525 -0.075,1.1125 -0.0125,0.075 -0.025,0.175 -0.025,0.2125 0,0.15 0.0875,0.2 0.1875,0.2 0.125,0 0.2,-0.075 0.2375,-0.3875 l 0.375,-3.1375 c 0,-0.0625 0.0375,-0.2375 0.0375,-0.275 0,-0.2 -0.1625,-0.2 -0.4875,-0.2 l -8.75,0 c -0.3375,0 -0.5125,0 -0.5125,0.325 0,0.2 0.125,0.2 0.425,0.2 1.1125,0 1.1125,0.125 1.1125,0.325 0,0.0875 -0.025,0.1625 -0.075,0.35 l -2.4125,9.6875 c -0.1625,0.625 -0.2,0.8125 -1.4625,0.8125 -0.3375,0 -0.5125,0 -0.5125,0.325 0,0.1875 0.1,0.1875 0.4625,0.1875 l 9,0 c 0.4,0 0.4125,-0.0125 0.5375,-0.3 z"
         inkscape:connector-curvature="0"
         style="font-style:normal;font-variant:normal;font-weight:normal;font-stretch:normal;letter-spacing:normal;word-spacing:normal;text-anchor:start;fill:#000000;fill-opacity:1;fill-rule:evenodd;stroke:#000000;stroke-width:0;stroke-linecap:butt;stroke-linejoin:miter;stroke-miterlimit:10.43299961;stroke-dasharray:none;stroke-dashoffset:0;stroke-opacity:1" />
      <path
         id="path5291"
         d="m 201.47321,229.7679 0,-0.125 -0.0125,-0.1375 0,-0.1375 0,-0.15 -0.0125,-0.15 0,-0.15 -0.025,-0.3125 -0.025,-0.3375 -0.0375,-0.3375 -0.05,-0.3625 -0.0625,-0.3625 -0.0625,-0.375 -0.0875,-0.375 -0.1,-0.3875 -0.1,-0.4 -0.1375,-0.3875 -0.0625,-0.2 -0.075,-0.2 -0.075,-0.1875 -0.0875,-0.2 -0.0875,-0.2 -0.0875,-0.1875 c -1.0625,-2.1625 -2.525,-3.325 -2.725,-3.325 -0.075,0 -0.1625,0.0375 -0.1625,0.15 0,0.05 0,0.0875 0.3,0.3875 1.8,1.8125 2.8,4.775 2.8,8.4375 0,3.475 -0.8375,6.475 -2.925,8.5875 -0.175,0.1625 -0.175,0.2 -0.175,0.25 0,0.1 0.0875,0.1375 0.1625,0.1375 0.225,0 1.7,-1.2875 2.575,-3.0375 0.925,-1.8375 1.3375,-3.775 1.3375,-5.925 z"
         inkscape:connector-curvature="0"
         style="font-style:normal;font-variant:normal;font-weight:normal;font-stretch:normal;letter-spacing:normal;word-spacing:normal;text-anchor:start;fill:#000000;fill-opacity:1;fill-rule:evenodd;stroke:#000000;stroke-width:0;stroke-linecap:butt;stroke-linejoin:miter;stroke-miterlimit:10.43299961;stroke-dasharray:none;stroke-dashoffset:0;stroke-opacity:1" />
    </g>
    <path
       id="path5363"
       d="m 300.03571,270.0679 0,0 0.0125,0 0,-0.0125 0,0 0,-0.0125 0,-0.0125 0.0125,0 0,-0.0125 0,0 0,-0.0125 0.0125,-0.0125 0,0 0,-0.025 0.0125,-0.0125 0,-0.025 0.0125,-0.0125 0,-0.0125 0,-0.0125 0,-0.0125 0.0125,0 0,-0.0125 0,-0.0125 0,0 0,-0.0125 0,-0.0125 0,0 0,-0.0125 c 0,-0.0875 -0.075,-0.175 -0.175,-0.175 -0.075,0 -0.1125,0.0125 -0.1625,0.075 -0.0375,0.0125 -0.0375,0.05 -0.2,0.4125 -1.0625,2.5125 -1.825,3.5875 -4.7,3.5875 l -2.6125,0 c -0.25,0 -0.2875,0 -0.4,-0.025 -0.2,-0.0125 -0.2125,-0.05 -0.2125,-0.2 0,-0.125 0.0375,-0.225 0.075,-0.3875 l 1.2375,-4.95 1.775,0 c 1.4,0 1.5,0.3 1.5,0.8375 0,0.1875 0,0.35 -0.125,0.8875 -0.0375,0.0625 -0.05,0.1375 -0.05,0.1875 0,0.1375 0.0875,0.1875 0.2,0.1875 0.1625,0 0.175,-0.125 0.25,-0.375 l 1.025,-4.1625 c 0,-0.0875 -0.075,-0.175 -0.1875,-0.175 -0.1625,0 -0.175,0.0625 -0.25,0.3125 -0.3625,1.3875 -0.7125,1.775 -2.3125,1.775 l -1.7,0 1.1125,-4.4125 c 0.15,-0.625 0.1875,-0.675 0.925,-0.675 l 2.5625,0 c 2.2125,0 2.6625,0.5875 2.6625,1.95 0,0.025 0,0.525 -0.075,1.1125 -0.025,0.075 -0.0375,0.175 -0.0375,0.2125 0,0.15 0.0875,0.2 0.2,0.2 0.125,0 0.2,-0.075 0.225,-0.3875 l 0.3875,-3.1375 c 0,-0.0625 0.0375,-0.2375 0.0375,-0.275 0,-0.2 -0.1625,-0.2 -0.4875,-0.2 l -8.75,0 c -0.35,0 -0.525,0 -0.525,0.325 0,0.2 0.125,0.2 0.425,0.2 1.1125,0 1.1125,0.125 1.1125,0.325 0,0.0875 -0.0125,0.1625 -0.0625,0.35 l -2.425,9.6875 c -0.1625,0.625 -0.2,0.8125 -1.45,0.8125 -0.3375,0 -0.525,0 -0.525,0.325 0,0.1875 0.1125,0.1875 0.4625,0.1875 l 9.0125,0 c 0.3875,0 0.4125,-0.0125 0.5375,-0.3 z"
       inkscape:connector-curvature="0"
       style="font-style:normal;font-variant:normal;font-weight:normal;font-stretch:normal;letter-spacing:normal;word-spacing:normal;text-anchor:start;fill:#000000;fill-opacity:1;fill-rule:evenodd;stroke:#000000;stroke-width:0;stroke-linecap:butt;stroke-linejoin:miter;stroke-miterlimit:10.43299961;stroke-dasharray:none;stroke-dashoffset:0;stroke-opacity:1" />
    <path
       sodipodi:nodetypes="cscc"
       style="fill:#868686;fill-rule:evenodd;stroke:#000000;stroke-width:0.81916976px;stroke-linecap:butt;stroke-linejoin:miter;stroke-opacity:1;fill-opacity:1"
       d="m 311.40666,412.99918 c 74.45714,0 144.44151,1.02079 61.59956,-5.61437 l -61.59956,-6.63517 z"
       id="path5371"
       inkscape:connector-curvature="0" />
    <path
       style="fill:none;fill-rule:evenodd;stroke:#000000;stroke-width:1px;stroke-linecap:butt;stroke-linejoin:miter;stroke-opacity:1"
       d="m 310.11683,388.18688 c 69.19545,0 89.3985,-4.04061 100.51018,-10.10152 11.11168,-6.06092 26.26397,-13.63706 9.09137,-21.71828 -17.17259,-8.08122 -109.09647,-10.6066 -109.09647,-10.6066"
       id="path5375"
       inkscape:connector-curvature="0" />
    <path
       style="fill:none;fill-rule:evenodd;stroke:#000000;stroke-width:1px;stroke-linecap:butt;stroke-linejoin:miter;stroke-opacity:1"
       d="m 310.11683,361.41784 c 29.7995,0 17.17259,-21.2132 33.33504,-26.26396 16.16244,-5.05077 67.68022,-0.50508 77.78174,-16.66752 10.10153,-16.16244 -111.11678,-23.23351 -111.11678,-23.23351"
       id="path5377"
       inkscape:connector-curvature="0" />
    <g
       transform="translate(95.25839,151.46197)"
       id="g5493">
      <path
         style="font-style:normal;font-variant:normal;font-weight:normal;font-stretch:normal;letter-spacing:normal;word-spacing:normal;text-anchor:start;fill:#000000;fill-opacity:1;fill-rule:evenodd;stroke:#000000;stroke-width:0;stroke-linecap:butt;stroke-linejoin:miter;stroke-miterlimit:10.43299961;stroke-dasharray:none;stroke-dashoffset:0;stroke-opacity:1"
         inkscape:connector-curvature="0"
         d="m 150.32143,241.9375 0,-0.0125 0.0125,0 0,0 0,-0.0125 0,0 0,-0.0125 0.0125,-0.0125 0,0 0,-0.0125 0,0 0.0125,-0.0125 0,-0.0125 0,-0.0125 0.0125,-0.025 0,-0.0125 0.0125,-0.0125 0,-0.025 0,-0.0125 0,0 0.0125,-0.0125 0,-0.0125 0,0 0,-0.0125 0,0 0,-0.0125 0,-0.0125 0,0 c 0,-0.0875 -0.075,-0.175 -0.175,-0.175 -0.075,0 -0.1125,0.0125 -0.1625,0.0625 -0.0375,0.025 -0.0375,0.05 -0.2,0.4125 -1.0625,2.5125 -1.825,3.5875 -4.7,3.5875 l -2.6125,0 c -0.25,0 -0.2875,0 -0.4,-0.0125 -0.2,-0.025 -0.2125,-0.0625 -0.2125,-0.2 0,-0.125 0.0375,-0.2375 0.075,-0.4 l 1.2375,-4.95 1.775,0 c 1.4,0 1.5,0.3125 1.5,0.85 0,0.175 0,0.3375 -0.125,0.875 -0.0375,0.075 -0.05,0.15 -0.05,0.2 0,0.125 0.0875,0.175 0.2,0.175 0.1625,0 0.175,-0.125 0.25,-0.375 l 1.025,-4.1625 c 0,-0.0875 -0.075,-0.175 -0.1875,-0.175 -0.1625,0 -0.175,0.075 -0.25,0.325 -0.3625,1.375 -0.7125,1.775 -2.3125,1.775 l -1.7,0 1.1125,-4.4125 c 0.15,-0.625 0.1875,-0.6875 0.925,-0.6875 l 2.5625,0 c 2.2125,0 2.6625,0.6 2.6625,1.9625 0,0.0125 0,0.5125 -0.075,1.1125 -0.025,0.0625 -0.0375,0.175 -0.0375,0.2125 0,0.1375 0.0875,0.2 0.2,0.2 0.125,0 0.2,-0.075 0.225,-0.4 l 0.3875,-3.1375 c 0,-0.05 0.0375,-0.2375 0.0375,-0.2625 0,-0.2 -0.1625,-0.2 -0.4875,-0.2 l -8.75,0 c -0.35,0 -0.525,0 -0.525,0.325 0,0.1875 0.125,0.1875 0.425,0.1875 1.1125,0 1.1125,0.125 1.1125,0.325 0,0.0875 -0.0125,0.1625 -0.0625,0.3625 l -2.425,9.6875 c -0.1625,0.625 -0.2,0.8 -1.45,0.8 -0.3375,0 -0.525,0 -0.525,0.325 0,0.2 0.1125,0.2 0.4625,0.2 l 9.0125,0 c 0.3875,0 0.4125,-0.025 0.5375,-0.3125 z"
         id="path5425" />
      <path
         style="font-style:normal;font-variant:normal;font-weight:normal;font-stretch:normal;letter-spacing:normal;word-spacing:normal;text-anchor:start;fill:#000000;fill-opacity:1;fill-rule:evenodd;stroke:#000000;stroke-width:0;stroke-linecap:butt;stroke-linejoin:miter;stroke-miterlimit:10.43299961;stroke-dasharray:none;stroke-dashoffset:0;stroke-opacity:1"
         inkscape:connector-curvature="0"
         d="m 154.52143,240.8125 0,-0.0125 0,-0.0125 0,-0.0125 0,-0.0125 0,-0.0125 0,-0.0125 0,-0.0125 0,-0.0125 0,0 0,-0.0125 0,-0.0125 0,-0.0125 0,-0.0125 -0.0125,0 0,-0.0125 0,-0.0125 0,0 0,-0.0125 0,-0.0125 0,-0.0125 -0.0125,-0.0125 0,-0.0125 0,-0.0125 -0.0125,-0.0125 0,-0.0125 -0.0125,0 0,-0.0125 -0.0125,0 -0.0125,-0.0125 -0.0125,0 0,0 -0.0125,0 0,0 -0.0125,-0.0125 0,0 -0.0125,0 -0.0125,0 0,0 -0.0125,0 -0.0125,0 0,0 -0.0125,0 -0.0125,0 -0.0125,0 -0.0125,0 0,0 -0.0125,0 -0.0125,0 -0.0125,0 -0.0125,0 -0.0125,0 -0.0125,0 c -0.775,0.7875 -1.875,0.7875 -2.275,0.7875 l 0,0.3875 c 0.25,0 0.9875,0 1.6375,-0.325 l 0,6.45 c 0,0.45 -0.0375,0.6 -1.1625,0.6 l -0.4,0 0,0.3875 c 0.4375,-0.0375 1.525,-0.0375 2.025,-0.0375 0.5,0 1.575,0 2.0125,0.0375 l 0,-0.3875 -0.4,0 c -1.1125,0 -1.15,-0.1375 -1.15,-0.6 z"
         id="path5427" />
    </g>
    <g
       transform="translate(75.40839,122.21425)"
       id="g5497">
      <path
         style="font-style:normal;font-variant:normal;font-weight:normal;font-stretch:normal;letter-spacing:normal;word-spacing:normal;text-anchor:start;fill:#000000;fill-opacity:1;fill-rule:evenodd;stroke:#000000;stroke-width:0;stroke-linecap:butt;stroke-linejoin:miter;stroke-miterlimit:10.43299961;stroke-dasharray:none;stroke-dashoffset:0;stroke-opacity:1"
         inkscape:connector-curvature="0"
         d="m 170.17143,241.9375 0,-0.0125 0,0 0.0125,0 0,-0.0125 0,0 0,-0.0125 0,-0.0125 0.0125,0 0,-0.0125 0,0 0,-0.0125 0.0125,-0.0125 0,-0.0125 0,-0.025 0.0125,-0.0125 0,-0.0125 0.0125,-0.025 0,-0.0125 0,0 0,-0.0125 0,-0.0125 0.0125,0 0,-0.0125 0,0 0,-0.0125 0,-0.0125 0,0 c 0,-0.0875 -0.075,-0.175 -0.175,-0.175 -0.075,0 -0.1125,0.0125 -0.1625,0.0625 -0.0375,0.025 -0.0375,0.05 -0.2,0.4125 -1.0625,2.5125 -1.8375,3.5875 -4.7,3.5875 l -2.625,0 c -0.25,0 -0.2875,0 -0.3875,-0.0125 -0.2,-0.025 -0.2125,-0.0625 -0.2125,-0.2 0,-0.125 0.0375,-0.2375 0.0625,-0.4 l 1.2375,-4.95 1.775,0 c 1.4,0 1.5125,0.3125 1.5125,0.85 0,0.175 0,0.3375 -0.125,0.875 -0.0375,0.075 -0.05,0.15 -0.05,0.2 0,0.125 0.0875,0.175 0.1875,0.175 0.1625,0 0.1875,-0.125 0.25,-0.375 l 1.025,-4.1625 c 0,-0.0875 -0.075,-0.175 -0.175,-0.175 -0.1625,0 -0.175,0.075 -0.25,0.325 -0.3625,1.375 -0.725,1.775 -2.3125,1.775 l -1.7125,0 1.1125,-4.4125 c 0.1625,-0.625 0.2,-0.6875 0.9375,-0.6875 l 2.5625,0 c 2.2125,0 2.65,0.6 2.65,1.9625 0,0.0125 0,0.5125 -0.0625,1.1125 -0.025,0.0625 -0.0375,0.175 -0.0375,0.2125 0,0.1375 0.0875,0.2 0.2,0.2 0.125,0 0.1875,-0.075 0.225,-0.4 l 0.375,-3.1375 c 0,-0.05 0.0375,-0.2375 0.0375,-0.2625 0,-0.2 -0.1625,-0.2 -0.475,-0.2 l -8.7625,0 c -0.3375,0 -0.5125,0 -0.5125,0.325 0,0.1875 0.125,0.1875 0.425,0.1875 1.1125,0 1.1125,0.125 1.1125,0.325 0,0.0875 -0.0125,0.1625 -0.0625,0.3625 l -2.425,9.6875 c -0.1625,0.625 -0.2,0.8 -1.45,0.8 -0.35,0 -0.525,0 -0.525,0.325 0,0.2 0.1125,0.2 0.4625,0.2 l 9,0 c 0.4,0 0.425,-0.025 0.55,-0.3125 z"
         id="path5429" />
      <path
         style="font-style:normal;font-variant:normal;font-weight:normal;font-stretch:normal;letter-spacing:normal;word-spacing:normal;text-anchor:start;fill:#000000;fill-opacity:1;fill-rule:evenodd;stroke:#000000;stroke-width:0;stroke-linecap:butt;stroke-linejoin:miter;stroke-miterlimit:10.43299961;stroke-dasharray:none;stroke-dashoffset:0;stroke-opacity:1"
         inkscape:connector-curvature="0"
         d="m 172.28393,247.825 1.325,-1.275 c 1.9375,-1.725 2.6875,-2.4 2.6875,-3.6375 0,-1.425 -1.125,-2.4125 -2.6375,-2.4125 -1.4125,0 -2.3375,1.1375 -2.3375,2.25 0,0.7 0.625,0.7 0.6625,0.7 0.2125,0 0.65,-0.15 0.65,-0.6625 0,-0.325 -0.225,-0.65 -0.6625,-0.65 -0.1,0 -0.125,0 -0.1625,0.0125 0.2875,-0.8125 0.9625,-1.275 1.6875,-1.275 1.125,0 1.6625,1.0125 1.6625,2.0375 0,0.9875 -0.625,1.975 -1.3,2.75 l -2.4,2.6625 c -0.1375,0.1375 -0.1375,0.1625 -0.1375,0.4625 l 4.625,0 0.35,-2.1625 -0.3125,0 c -0.0625,0.3625 -0.15,0.9125 -0.275,1.1 -0.0875,0.1 -0.9125,0.1 -1.1875,0.1 z"
         id="path5431" />
    </g>
    <g
       transform="translate(55.55839,58.083771)"
       id="g5501">
      <path
         style="font-style:normal;font-variant:normal;font-weight:normal;font-stretch:normal;letter-spacing:normal;word-spacing:normal;text-anchor:start;fill:#000000;fill-opacity:1;fill-rule:evenodd;stroke:#000000;stroke-width:0;stroke-linecap:butt;stroke-linejoin:miter;stroke-miterlimit:10.43299961;stroke-dasharray:none;stroke-dashoffset:0;stroke-opacity:1"
         inkscape:connector-curvature="0"
         d="m 190.02143,241.9375 0,-0.0125 0,0 0,0 0,-0.0125 0.0125,0 0,-0.0125 0,-0.0125 0,0 0.0125,-0.0125 0,0 0,-0.0125 0,-0.0125 0.0125,-0.0125 0,-0.025 0.0125,-0.0125 0,-0.0125 0.0125,-0.025 0,-0.0125 0,0 0,-0.0125 0,-0.0125 0,0 0,-0.0125 0,0 0.0125,-0.0125 0,-0.0125 0,0 c 0,-0.0875 -0.075,-0.175 -0.1875,-0.175 -0.0625,0 -0.1,0.0125 -0.1625,0.0625 -0.0375,0.025 -0.0375,0.05 -0.1875,0.4125 -1.0625,2.5125 -1.8375,3.5875 -4.7,3.5875 l -2.625,0 c -0.25,0 -0.2875,0 -0.3875,-0.0125 -0.2,-0.025 -0.225,-0.0625 -0.225,-0.2 0,-0.125 0.0375,-0.2375 0.075,-0.4 l 1.2375,-4.95 1.775,0 c 1.4,0 1.5125,0.3125 1.5125,0.85 0,0.175 0,0.3375 -0.125,0.875 -0.0375,0.075 -0.0625,0.15 -0.0625,0.2 0,0.125 0.1,0.175 0.2,0.175 0.1625,0 0.175,-0.125 0.25,-0.375 l 1.025,-4.1625 c 0,-0.0875 -0.075,-0.175 -0.175,-0.175 -0.1625,0 -0.1875,0.075 -0.2625,0.325 -0.35,1.375 -0.7125,1.775 -2.3125,1.775 l -1.7,0 1.1125,-4.4125 c 0.1625,-0.625 0.2,-0.6875 0.9375,-0.6875 l 2.5625,0 c 2.2,0 2.65,0.6 2.65,1.9625 0,0.0125 0,0.5125 -0.0625,1.1125 -0.025,0.0625 -0.0375,0.175 -0.0375,0.2125 0,0.1375 0.0875,0.2 0.1875,0.2 0.125,0 0.2,-0.075 0.2375,-0.4 l 0.375,-3.1375 c 0,-0.05 0.0375,-0.2375 0.0375,-0.2625 0,-0.2 -0.1625,-0.2 -0.4875,-0.2 l -8.75,0 c -0.3375,0 -0.5125,0 -0.5125,0.325 0,0.1875 0.125,0.1875 0.425,0.1875 1.1125,0 1.1125,0.125 1.1125,0.325 0,0.0875 -0.025,0.1625 -0.075,0.3625 l -2.4125,9.6875 c -0.1625,0.625 -0.2,0.8 -1.4625,0.8 -0.3375,0 -0.5125,0 -0.5125,0.325 0,0.2 0.1,0.2 0.4625,0.2 l 9,0 c 0.4,0 0.4125,-0.025 0.5375,-0.3125 z"
         id="path5433" />
      <path
         style="font-style:normal;font-variant:normal;font-weight:normal;font-stretch:normal;letter-spacing:normal;word-spacing:normal;text-anchor:start;fill:#000000;fill-opacity:1;fill-rule:evenodd;stroke:#000000;stroke-width:0;stroke-linecap:butt;stroke-linejoin:miter;stroke-miterlimit:10.43299961;stroke-dasharray:none;stroke-dashoffset:0;stroke-opacity:1"
         inkscape:connector-curvature="0"
         d="m 194.15893,244.4 0.1,-0.025 0.0875,-0.0375 0.1,-0.0375 0.0875,-0.05 0.0875,-0.0375 0.075,-0.05 0.0875,-0.05 0.075,-0.05 0.0875,-0.0625 0.075,-0.05 0.075,-0.0625 0.0625,-0.0625 0.075,-0.0625 0.0625,-0.075 0.0625,-0.0625 0.0625,-0.075 0.05,-0.075 0.05,-0.075 0.05,-0.075 0.05,-0.075 0.05,-0.075 0.0375,-0.0875 0.0375,-0.075 0.025,-0.0875 0.0375,-0.0875 0.025,-0.0875 0.025,-0.0875 0.0125,-0.0875 0.0125,-0.0875 0.0125,-0.0875 0,-0.1 0.0125,-0.0875 c 0,-1.025 -1.1,-1.7125 -2.3,-1.7125 -1.25,0 -2.2,0.7375 -2.2,1.6875 0,0.4125 0.275,0.65 0.6375,0.65 0.3875,0 0.6375,-0.275 0.6375,-0.6375 0,-0.625 -0.5875,-0.625 -0.775,-0.625 0.3875,-0.6125 1.2125,-0.775 1.65,-0.775 0.5125,0 1.2,0.275 1.2,1.4 0,0.15 -0.025,0.875 -0.35,1.425 -0.375,0.5875 -0.8,0.625 -1.1125,0.6375 -0.1,0.0125 -0.4,0.0375 -0.475,0.0375 -0.1,0.0125 -0.1875,0.025 -0.1875,0.15 0,0.1375 0.0875,0.1375 0.2875,0.1375 l 0.55,0 c 1.025,0 1.4875,0.85 1.4875,2.075 0,1.6875 -0.8625,2.05 -1.4125,2.05 -0.5375,0 -1.4625,-0.2125 -1.9,-0.95 0.4375,0.0625 0.825,-0.2125 0.825,-0.6875 0,-0.4375 -0.3375,-0.6875 -0.7,-0.6875 -0.3,0 -0.7,0.175 -0.7,0.7125 0,1.1375 1.1625,1.9625 2.5125,1.9625 1.525,0 2.6625,-1.1375 2.6625,-2.4 0,-1.025 -0.7875,-2 -2.0875,-2.2625 z"
         id="path5435" />
    </g>
    <path
       inkscape:connector-curvature="0"
       id="path5505"
       d="m 515.17501,453.78276 0,-187.17646"
       style="fill:none;fill-rule:evenodd;stroke:#000000;stroke-width:1.48831511;stroke-linecap:butt;stroke-linejoin:miter;stroke-miterlimit:4;stroke-dasharray:none;stroke-opacity:1;marker-end:url(#marker5527)" />
    <path
       sodipodi:nodetypes="cc"
       inkscape:connector-curvature="0"
       id="path5507"
       d="m 501.41736,418.84014 182.18847,0"
       style="fill:none;fill-rule:evenodd;stroke:#000000;stroke-width:1.48831511;stroke-linecap:butt;stroke-linejoin:miter;stroke-miterlimit:4;stroke-dasharray:none;stroke-opacity:1;marker-end:url(#marker5181)" />
    <g
       transform="translate(488.68027,206.71833)"
       id="g5509">
      <path
         style="font-style:normal;font-variant:normal;font-weight:normal;font-stretch:normal;letter-spacing:normal;word-spacing:normal;text-anchor:start;fill:#000000;fill-opacity:1;fill-rule:evenodd;stroke:#000000;stroke-width:0;stroke-linecap:butt;stroke-linejoin:miter;stroke-miterlimit:10.43299961;stroke-dasharray:none;stroke-dashoffset:0;stroke-opacity:1"
         inkscape:connector-curvature="0"
         d="m 173.64821,227.5054 -0.025,-0.05 -0.025,-0.05 -0.025,-0.05 -0.025,-0.05 -0.025,-0.05 -0.0375,-0.05 -0.025,-0.05 -0.0375,-0.05 -0.0375,-0.05 -0.0375,-0.05 -0.0375,-0.05 -0.0375,-0.05 -0.05,-0.05 -0.05,-0.0375 -0.0375,-0.05 -0.05,-0.05 -0.05,-0.0375 -0.0625,-0.0375 -0.05,-0.0375 -0.0625,-0.0375 -0.05,-0.0375 -0.0625,-0.0375 -0.0625,-0.025 -0.0625,-0.025 -0.075,-0.025 -0.0625,-0.025 -0.075,-0.025 -0.075,-0.0125 -0.075,-0.0125 -0.075,-0.0125 -0.0875,0 -0.0875,0 0,0.35 c 1.1875,0 1.425,1.475 1.425,1.5875 l -0.05,0.25 -0.85,3.4375 c -0.075,0.2875 -0.1,0.3625 -0.3375,0.625 -0.7375,0.95 -1.4875,1.3 -2.05,1.3 -0.5875,0 -1.15,-0.475 -1.15,-1.7125 0,-0.95 0.55,-2.95 0.9375,-3.7625 0.525,-1 1.325,-1.725 2.075,-1.725 l 0,-0.35 c -1.95,0 -4.175,2.45 -4.175,5.125 0,1.8625 1.1375,2.775 2.2875,2.775 0.9375,0 1.7875,-0.75 2.1125,-1.1125 l -0.4,1.6125 c -0.25,0.9875 -0.35,1.4375 -1,2.0625 -0.7375,0.7375 -1.4125,0.7375 -1.8125,0.7375 -0.5375,0 -0.9875,-0.0375 -1.4375,-0.175 0.575,-0.1625 0.725,-0.6625 0.725,-0.8625 0,-0.2875 -0.225,-0.575 -0.6125,-0.575 -0.4375,0 -0.9,0.3625 -0.9,0.95 0,0.7375 0.7375,1.025 2.2625,1.025 2.3125,0 3.5125,-1.4875 3.75,-2.4625 l 1.9875,-8.025 c 0.05,-0.225 0.05,-0.25 0.05,-0.2875 0,-0.25 -0.2,-0.45 -0.4625,-0.45 -0.4375,0 -0.6875,0.3625 -0.7375,0.8375 z"
         id="path5511" />
      <path
         style="font-style:normal;font-variant:normal;font-weight:normal;font-stretch:normal;letter-spacing:normal;word-spacing:normal;text-anchor:start;fill:#000000;fill-opacity:1;fill-rule:evenodd;stroke:#000000;stroke-width:0;stroke-linecap:butt;stroke-linejoin:miter;stroke-miterlimit:10.43299961;stroke-dasharray:none;stroke-dashoffset:0;stroke-opacity:1"
         inkscape:connector-curvature="0"
         d="m 181.36071,238.5929 0,-0.0125 0,-0.0125 0,0 0,-0.0125 0,0 0,0 -0.0125,-0.0125 0,0 0,-0.0125 0,-0.0125 -0.0125,0 0,-0.0125 -0.0125,-0.0125 0,0 -0.0125,-0.0125 0,-0.0125 -0.0125,-0.0125 -0.0125,-0.0125 0,-0.0125 -0.0125,0 0,-0.0125 -0.0125,0 0,-0.0125 -0.0125,-0.0125 -0.0125,0 0,-0.0125 -0.0125,-0.0125 -0.0125,-0.0125 0,0 -0.0125,-0.0125 -0.0125,-0.0125 -0.0125,-0.0125 0,-0.0125 -0.0125,-0.0125 -0.0125,0 -0.0125,-0.0125 -0.0125,-0.0125 -0.0125,-0.0125 -0.0125,-0.0125 -0.0125,-0.0125 -0.0125,-0.025 -0.0125,-0.0125 c -1.8,-1.8125 -2.8,-4.7625 -2.8,-8.425 0,-3.475 0.8375,-6.475 2.925,-8.5875 0.175,-0.1625 0.175,-0.2 0.175,-0.25 0,-0.1125 -0.0875,-0.15 -0.1625,-0.15 -0.2375,0 -1.7,1.3 -2.5875,3.05 -0.9125,1.8125 -1.325,3.7375 -1.325,5.9375 0,1.6 0.25,3.725 1.1875,5.65 1.0625,2.15 2.525,3.3125 2.725,3.3125 0.075,0 0.1625,-0.0375 0.1625,-0.1375 z"
         id="path5513" />
      <path
         style="font-style:normal;font-variant:normal;font-weight:normal;font-stretch:normal;letter-spacing:normal;word-spacing:normal;text-anchor:start;fill:#000000;fill-opacity:1;fill-rule:evenodd;stroke:#000000;stroke-width:0;stroke-linecap:butt;stroke-linejoin:miter;stroke-miterlimit:10.43299961;stroke-dasharray:none;stroke-dashoffset:0;stroke-opacity:1"
         inkscape:connector-curvature="0"
         d="m 194.82321,230.0679 0,0 0,0 0,-0.0125 0,0 0.0125,-0.0125 0,-0.0125 0,0 0,-0.0125 0.0125,0 0,-0.0125 0,-0.0125 0,0 0.0125,-0.025 0,-0.0125 0.0125,-0.025 0,-0.0125 0.0125,-0.0125 0,-0.0125 0,-0.0125 0,0 0,-0.0125 0,-0.0125 0,0 0,-0.0125 0.0125,-0.0125 0,0 0,-0.0125 c 0,-0.0875 -0.075,-0.175 -0.1875,-0.175 -0.0625,0 -0.1,0.0125 -0.1625,0.075 -0.0375,0.0125 -0.0375,0.05 -0.2,0.4125 -1.05,2.5125 -1.825,3.5875 -4.6875,3.5875 l -2.625,0 c -0.25,0 -0.2875,0 -0.3875,-0.025 -0.2,-0.0125 -0.225,-0.05 -0.225,-0.2 0,-0.125 0.0375,-0.225 0.075,-0.3875 l 1.2375,-4.95 1.775,0 c 1.4,0 1.5125,0.3 1.5125,0.8375 0,0.1875 0,0.35 -0.125,0.8875 -0.0375,0.0625 -0.0625,0.1375 -0.0625,0.1875 0,0.1375 0.1,0.1875 0.2,0.1875 0.1625,0 0.1875,-0.125 0.25,-0.375 l 1.025,-4.1625 c 0,-0.0875 -0.075,-0.175 -0.175,-0.175 -0.1625,0 -0.1875,0.0625 -0.25,0.3125 -0.3625,1.3875 -0.725,1.775 -2.3125,1.775 l -1.7125,0 1.1125,-4.4125 c 0.1625,-0.625 0.2,-0.675 0.9375,-0.675 l 2.5625,0 c 2.2,0 2.65,0.5875 2.65,1.95 0,0.025 0,0.525 -0.075,1.1125 -0.0125,0.075 -0.025,0.175 -0.025,0.2125 0,0.15 0.0875,0.2 0.1875,0.2 0.125,0 0.2,-0.075 0.2375,-0.3875 l 0.375,-3.1375 c 0,-0.0625 0.0375,-0.2375 0.0375,-0.275 0,-0.2 -0.1625,-0.2 -0.4875,-0.2 l -8.75,0 c -0.3375,0 -0.5125,0 -0.5125,0.325 0,0.2 0.125,0.2 0.425,0.2 1.1125,0 1.1125,0.125 1.1125,0.325 0,0.0875 -0.025,0.1625 -0.075,0.35 l -2.4125,9.6875 c -0.1625,0.625 -0.2,0.8125 -1.4625,0.8125 -0.3375,0 -0.5125,0 -0.5125,0.325 0,0.1875 0.1,0.1875 0.4625,0.1875 l 9,0 c 0.4,0 0.4125,-0.0125 0.5375,-0.3 z"
         id="path5515" />
      <path
         style="font-style:normal;font-variant:normal;font-weight:normal;font-stretch:normal;letter-spacing:normal;word-spacing:normal;text-anchor:start;fill:#000000;fill-opacity:1;fill-rule:evenodd;stroke:#000000;stroke-width:0;stroke-linecap:butt;stroke-linejoin:miter;stroke-miterlimit:10.43299961;stroke-dasharray:none;stroke-dashoffset:0;stroke-opacity:1"
         inkscape:connector-curvature="0"
         d="m 201.47321,229.7679 0,-0.125 -0.0125,-0.1375 0,-0.1375 0,-0.15 -0.0125,-0.15 0,-0.15 -0.025,-0.3125 -0.025,-0.3375 -0.0375,-0.3375 -0.05,-0.3625 -0.0625,-0.3625 -0.0625,-0.375 -0.0875,-0.375 -0.1,-0.3875 -0.1,-0.4 -0.1375,-0.3875 -0.0625,-0.2 -0.075,-0.2 -0.075,-0.1875 -0.0875,-0.2 -0.0875,-0.2 -0.0875,-0.1875 c -1.0625,-2.1625 -2.525,-3.325 -2.725,-3.325 -0.075,0 -0.1625,0.0375 -0.1625,0.15 0,0.05 0,0.0875 0.3,0.3875 1.8,1.8125 2.8,4.775 2.8,8.4375 0,3.475 -0.8375,6.475 -2.925,8.5875 -0.175,0.1625 -0.175,0.2 -0.175,0.25 0,0.1 0.0875,0.1375 0.1625,0.1375 0.225,0 1.7,-1.2875 2.575,-3.0375 0.925,-1.8375 1.3375,-3.775 1.3375,-5.925 z"
         id="path5517" />
    </g>
    <path
       style="font-style:normal;font-variant:normal;font-weight:normal;font-stretch:normal;letter-spacing:normal;word-spacing:normal;text-anchor:start;fill:#000000;fill-opacity:1;fill-rule:evenodd;stroke:#000000;stroke-width:0;stroke-linecap:butt;stroke-linejoin:miter;stroke-miterlimit:10.43299961;stroke-dasharray:none;stroke-dashoffset:0;stroke-opacity:1"
       inkscape:connector-curvature="0"
       d="m 504.03571,270.0679 0,0 0.0125,0 0,-0.0125 0,0 0,-0.0125 0,-0.0125 0.0125,0 0,-0.0125 0,0 0,-0.0125 0.0125,-0.0125 0,0 0,-0.025 0.0125,-0.0125 0,-0.025 0.0125,-0.0125 0,-0.0125 0,-0.0125 0,-0.0125 0.0125,0 0,-0.0125 0,-0.0125 0,0 0,-0.0125 0,-0.0125 0,0 0,-0.0125 c 0,-0.0875 -0.075,-0.175 -0.175,-0.175 -0.075,0 -0.1125,0.0125 -0.1625,0.075 -0.0375,0.0125 -0.0375,0.05 -0.2,0.4125 -1.0625,2.5125 -1.825,3.5875 -4.7,3.5875 l -2.6125,0 c -0.25,0 -0.2875,0 -0.4,-0.025 -0.2,-0.0125 -0.2125,-0.05 -0.2125,-0.2 0,-0.125 0.0375,-0.225 0.075,-0.3875 l 1.2375,-4.95 1.775,0 c 1.4,0 1.5,0.3 1.5,0.8375 0,0.1875 0,0.35 -0.125,0.8875 -0.0375,0.0625 -0.05,0.1375 -0.05,0.1875 0,0.1375 0.0875,0.1875 0.2,0.1875 0.1625,0 0.175,-0.125 0.25,-0.375 l 1.025,-4.1625 c 0,-0.0875 -0.075,-0.175 -0.1875,-0.175 -0.1625,0 -0.175,0.0625 -0.25,0.3125 -0.3625,1.3875 -0.7125,1.775 -2.3125,1.775 l -1.7,0 1.1125,-4.4125 c 0.15,-0.625 0.1875,-0.675 0.925,-0.675 l 2.5625,0 c 2.2125,0 2.6625,0.5875 2.6625,1.95 0,0.025 0,0.525 -0.075,1.1125 -0.025,0.075 -0.0375,0.175 -0.0375,0.2125 0,0.15 0.0875,0.2 0.2,0.2 0.125,0 0.2,-0.075 0.225,-0.3875 l 0.3875,-3.1375 c 0,-0.0625 0.0375,-0.2375 0.0375,-0.275 0,-0.2 -0.1625,-0.2 -0.4875,-0.2 l -8.75,0 c -0.35,0 -0.525,0 -0.525,0.325 0,0.2 0.125,0.2 0.425,0.2 1.1125,0 1.1125,0.125 1.1125,0.325 0,0.0875 -0.0125,0.1625 -0.0625,0.35 l -2.425,9.6875 c -0.1625,0.625 -0.2,0.8125 -1.45,0.8125 -0.3375,0 -0.525,0 -0.525,0.325 0,0.1875 0.1125,0.1875 0.4625,0.1875 l 9.0125,0 c 0.3875,0 0.4125,-0.0125 0.5375,-0.3 z"
       id="path5519" />
    <path
       inkscape:connector-curvature="0"
       id="path5523"
       d="m 514.11683,388.18688 c 69.19545,0 89.3985,-4.04061 100.51018,-10.10152 11.11168,-6.06092 26.26397,-13.63706 9.09137,-21.71828 -17.17259,-8.08122 -109.09647,-10.6066 -109.09647,-10.6066"
       style="fill:none;fill-rule:evenodd;stroke:#000000;stroke-width:1px;stroke-linecap:butt;stroke-linejoin:miter;stroke-opacity:1" />
    <path
       inkscape:connector-curvature="0"
       id="path5525"
       d="m 514.11683,361.41784 c 29.7995,0 17.17259,-21.2132 33.33504,-26.26396 16.16244,-5.05077 67.68022,-0.50508 77.78174,-16.66752 10.10153,-16.16244 -111.11678,-23.23351 -111.11678,-23.23351"
       style="fill:none;fill-rule:evenodd;stroke:#000000;stroke-width:1px;stroke-linecap:butt;stroke-linejoin:miter;stroke-opacity:1" />
    <path
       sodipodi:nodetypes="cccc"
       style="fill:#868686;fill-rule:evenodd;stroke:none;stroke-width:1px;stroke-linecap:butt;stroke-linejoin:miter;stroke-opacity:1;fill-opacity:1"
       d="m 515.37952,388.18688 c 69.19545,0 88.13581,-4.04061 99.24749,-10.10152 -45.67573,0.78453 -99.75258,0 -99.75258,0 z"
       id="path5625"
       inkscape:connector-curvature="0" />
    <path
       inkscape:connector-curvature="0"
       id="path5645"
       d="m 515.40666,412.99918 c 74.45714,0 144.44151,1.02079 61.59956,-5.61437 l -61.59956,-6.63517 z"
       style="fill:#868686;fill-opacity:1;fill-rule:evenodd;stroke:#000000;stroke-width:0.81916976px;stroke-linecap:butt;stroke-linejoin:miter;stroke-opacity:1"
       sodipodi:nodetypes="cscc" />
    <path
       style="fill:none;fill-rule:evenodd;stroke:#000000;stroke-width:1px;stroke-linecap:butt;stroke-linejoin:miter;stroke-opacity:1"
       d="m 319.12665,392.92563 -16.16244,0"
       id="path4868-1"
       inkscape:connector-curvature="0" />
    <g
       style="font-style:normal;font-variant:normal;font-weight:normal;font-stretch:normal;letter-spacing:normal;word-spacing:normal;text-anchor:start;fill:none;fill-opacity:1;fill-rule:evenodd;stroke:#000000;stroke-width:0.0000001;stroke-linecap:butt;stroke-linejoin:miter;stroke-miterlimit:10.43299961;stroke-dasharray:none;stroke-dashoffset:0;stroke-opacity:1"
       ns0:page_width=""
       ns0:preamble=""
       ns0:text="$E_F$"
       word-spacing="normal"
       letter-spacing="normal"
       font-size-adjust="none"
       font-stretch="normal"
       font-weight="normal"
       font-variant="normal"
       font-style="normal"
       stroke-miterlimit="10.433"
       xml:space="preserve"
       transform="matrix(1.25,0,0,-1.25,2.8571427,1283.7857)"
       id="content"><path
         id="path5725"
         d="m 233.4,710.45 0,0.01 0.01,0 0,0 0,0.01 0,0 0,0.01 0.01,0.01 0,0 0,0.01 0,0 0.01,0.01 0,0.01 0,0.01 0.01,0.02 0,0.01 0.01,0.01 0,0.02 0,0.01 0,0 0.01,0.01 0,0.01 0,0 0,0.01 0,0 0,0.01 0,0.01 0,0 c 0,0.07 -0.06,0.14 -0.14,0.14 -0.06,0 -0.09,-0.01 -0.13,-0.05 -0.03,-0.02 -0.03,-0.04 -0.16,-0.33 -0.85,-2.01 -1.46,-2.87 -3.76,-2.87 l -2.09,0 c -0.2,0 -0.23,0 -0.32,0.01 -0.16,0.02 -0.17,0.05 -0.17,0.16 0,0.1 0.03,0.19 0.06,0.32 l 0.99,3.96 1.42,0 c 1.12,0 1.2,-0.25 1.2,-0.68 0,-0.14 0,-0.27 -0.1,-0.7 -0.03,-0.06 -0.04,-0.12 -0.04,-0.16 0,-0.1 0.07,-0.14 0.16,-0.14 0.13,0 0.14,0.1 0.2,0.3 l 0.82,3.33 c 0,0.07 -0.06,0.14 -0.15,0.14 -0.13,0 -0.14,-0.06 -0.2,-0.26 -0.29,-1.1 -0.57,-1.42 -1.85,-1.42 l -1.36,0 0.89,3.53 c 0.12,0.5 0.15,0.55 0.74,0.55 l 2.05,0 c 1.77,0 2.13,-0.48 2.13,-1.57 0,-0.01 0,-0.41 -0.06,-0.89 -0.02,-0.05 -0.03,-0.14 -0.03,-0.17 0,-0.11 0.07,-0.16 0.16,-0.16 0.1,0 0.16,0.06 0.18,0.32 l 0.31,2.51 c 0,0.04 0.03,0.19 0.03,0.21 0,0.16 -0.13,0.16 -0.39,0.16 l -7,0 c -0.28,0 -0.42,0 -0.42,-0.26 0,-0.15 0.1,-0.15 0.34,-0.15 0.89,0 0.89,-0.1 0.89,-0.26 0,-0.07 -0.01,-0.13 -0.05,-0.29 l -1.94,-7.75 c -0.13,-0.5 -0.16,-0.64 -1.16,-0.64 -0.27,0 -0.42,0 -0.42,-0.26 0,-0.16 0.09,-0.16 0.37,-0.16 l 7.21,0 c 0.31,0 0.33,0.02 0.43,0.25 z"
         inkscape:connector-curvature="0"
         style="fill:#000000;stroke-width:0" /><path
         id="path5727"
         d="m 236.85,708.21 0.96,0 c 0.75,0 0.83,-0.16 0.83,-0.45 0,-0.07 0,-0.19 -0.07,-0.49 -0.02,-0.05 -0.03,-0.09 -0.03,-0.11 0,-0.08 0.06,-0.12 0.12,-0.12 0.1,0 0.1,0.03 0.15,0.21 l 0.55,2.16 c 0.03,0.11 0.03,0.13 0.03,0.16 0,0.02 -0.02,0.11 -0.12,0.11 -0.1,0 -0.11,-0.05 -0.15,-0.21 -0.21,-0.77 -0.44,-0.95 -1.29,-0.95 l -0.9,0 0.63,2.53 c 0.09,0.35 0.1,0.39 0.54,0.39 l 1.32,0 c 1.22,0 1.45,-0.33 1.45,-1.1 0,-0.23 0,-0.27 -0.03,-0.54 -0.02,-0.13 -0.02,-0.15 -0.02,-0.18 0,-0.05 0.03,-0.12 0.12,-0.12 0.11,0 0.12,0.06 0.14,0.25 l 0.2,1.73 c 0.03,0.26 -0.02,0.26 -0.27,0.26 l -4.88,0 c -0.2,0 -0.3,0 -0.3,-0.2 0,-0.1 0.09,-0.1 0.28,-0.1 0.37,0 0.65,0 0.65,-0.18 0,-0.04 0,-0.06 -0.05,-0.24 l -1.32,-5.27 c -0.1,-0.39 -0.12,-0.47 -0.9,-0.47 -0.17,0 -0.28,0 -0.28,-0.19 0,-0.12 0.12,-0.12 0.15,-0.12 0.28,0 1.02,0.03 1.31,0.03 0.33,0 1.16,-0.03 1.48,-0.03 0.09,0 0.21,0 0.21,0.19 0,0.08 -0.06,0.1 -0.06,0.11 -0.03,0.01 -0.04,0.01 -0.28,0.01 -0.21,0 -0.26,0 -0.51,0.02 -0.29,0.03 -0.32,0.07 -0.32,0.2 0,0.02 0,0.08 0.04,0.23 z"
         inkscape:connector-curvature="0"
         style="fill:#000000;stroke-width:0" /></g>    <g
       style="font-style:normal;font-variant:normal;font-weight:normal;font-stretch:normal;letter-spacing:normal;word-spacing:normal;text-anchor:start;fill:none;fill-opacity:1;fill-rule:evenodd;stroke:#000000;stroke-width:0.0000001;stroke-linecap:butt;stroke-linejoin:miter;stroke-miterlimit:10.43299961;stroke-dasharray:none;stroke-dashoffset:0;stroke-opacity:1"
       ns0:page_width=""
       ns0:preamble=""
       ns0:text="$E_F$"
       word-spacing="normal"
       letter-spacing="normal"
       font-size-adjust="none"
       font-stretch="normal"
       font-weight="normal"
       font-variant="normal"
       font-style="normal"
       stroke-miterlimit="10.433"
       xml:space="preserve"
       transform="matrix(1.25,0,0,-1.25,209.39861,1271.8024)"
       id="content-6"><path
         id="path5725-2"
         d="m 233.4,710.45 0,0.01 0.01,0 0,0 0,0.01 0,0 0,0.01 0.01,0.01 0,0 0,0.01 0,0 0.01,0.01 0,0.01 0,0.01 0.01,0.02 0,0.01 0.01,0.01 0,0.02 0,0.01 0,0 0.01,0.01 0,0.01 0,0 0,0.01 0,0 0,0.01 0,0.01 0,0 c 0,0.07 -0.06,0.14 -0.14,0.14 -0.06,0 -0.09,-0.01 -0.13,-0.05 -0.03,-0.02 -0.03,-0.04 -0.16,-0.33 -0.85,-2.01 -1.46,-2.87 -3.76,-2.87 l -2.09,0 c -0.2,0 -0.23,0 -0.32,0.01 -0.16,0.02 -0.17,0.05 -0.17,0.16 0,0.1 0.03,0.19 0.06,0.32 l 0.99,3.96 1.42,0 c 1.12,0 1.2,-0.25 1.2,-0.68 0,-0.14 0,-0.27 -0.1,-0.7 -0.03,-0.06 -0.04,-0.12 -0.04,-0.16 0,-0.1 0.07,-0.14 0.16,-0.14 0.13,0 0.14,0.1 0.2,0.3 l 0.82,3.33 c 0,0.07 -0.06,0.14 -0.15,0.14 -0.13,0 -0.14,-0.06 -0.2,-0.26 -0.29,-1.1 -0.57,-1.42 -1.85,-1.42 l -1.36,0 0.89,3.53 c 0.12,0.5 0.15,0.55 0.74,0.55 l 2.05,0 c 1.77,0 2.13,-0.48 2.13,-1.57 0,-0.01 0,-0.41 -0.06,-0.89 -0.02,-0.05 -0.03,-0.14 -0.03,-0.17 0,-0.11 0.07,-0.16 0.16,-0.16 0.1,0 0.16,0.06 0.18,0.32 l 0.31,2.51 c 0,0.04 0.03,0.19 0.03,0.21 0,0.16 -0.13,0.16 -0.39,0.16 l -7,0 c -0.28,0 -0.42,0 -0.42,-0.26 0,-0.15 0.1,-0.15 0.34,-0.15 0.89,0 0.89,-0.1 0.89,-0.26 0,-0.07 -0.01,-0.13 -0.05,-0.29 l -1.94,-7.75 c -0.13,-0.5 -0.16,-0.64 -1.16,-0.64 -0.27,0 -0.42,0 -0.42,-0.26 0,-0.16 0.09,-0.16 0.37,-0.16 l 7.21,0 c 0.31,0 0.33,0.02 0.43,0.25 z"
         inkscape:connector-curvature="0"
         style="fill:#000000;stroke-width:0" /><path
         id="path5727-9"
         d="m 236.85,708.21 0.96,0 c 0.75,0 0.83,-0.16 0.83,-0.45 0,-0.07 0,-0.19 -0.07,-0.49 -0.02,-0.05 -0.03,-0.09 -0.03,-0.11 0,-0.08 0.06,-0.12 0.12,-0.12 0.1,0 0.1,0.03 0.15,0.21 l 0.55,2.16 c 0.03,0.11 0.03,0.13 0.03,0.16 0,0.02 -0.02,0.11 -0.12,0.11 -0.1,0 -0.11,-0.05 -0.15,-0.21 -0.21,-0.77 -0.44,-0.95 -1.29,-0.95 l -0.9,0 0.63,2.53 c 0.09,0.35 0.1,0.39 0.54,0.39 l 1.32,0 c 1.22,0 1.45,-0.33 1.45,-1.1 0,-0.23 0,-0.27 -0.03,-0.54 -0.02,-0.13 -0.02,-0.15 -0.02,-0.18 0,-0.05 0.03,-0.12 0.12,-0.12 0.11,0 0.12,0.06 0.14,0.25 l 0.2,1.73 c 0.03,0.26 -0.02,0.26 -0.27,0.26 l -4.88,0 c -0.2,0 -0.3,0 -0.3,-0.2 0,-0.1 0.09,-0.1 0.28,-0.1 0.37,0 0.65,0 0.65,-0.18 0,-0.04 0,-0.06 -0.05,-0.24 l -1.32,-5.27 c -0.1,-0.39 -0.12,-0.47 -0.9,-0.47 -0.17,0 -0.28,0 -0.28,-0.19 0,-0.12 0.12,-0.12 0.15,-0.12 0.28,0 1.02,0.03 1.31,0.03 0.33,0 1.16,-0.03 1.48,-0.03 0.09,0 0.21,0 0.21,0.19 0,0.08 -0.06,0.1 -0.06,0.11 -0.03,0.01 -0.04,0.01 -0.28,0.01 -0.21,0 -0.26,0 -0.51,0.02 -0.29,0.03 -0.32,0.07 -0.32,0.2 0,0.02 0,0.08 0.04,0.23 z"
         inkscape:connector-curvature="0"
         style="fill:#000000;stroke-width:0" /></g>    <path
       style="fill:none;fill-rule:evenodd;stroke:#000000;stroke-width:1px;stroke-linecap:butt;stroke-linejoin:miter;stroke-opacity:1"
       d="m 523.91237,378.78277 -16.16244,0"
       id="path4868-1-2"
       inkscape:connector-curvature="0" />
  </g>
</svg>
