<?xml version="1.0" encoding="utf-8"?>
<!-- Generator: Adobe Illustrator 21.1.0, SVG Export Plug-In . SVG Version: 6.00 Build 0)  -->
<svg version="1.1" id="Layer_1" xmlns="http://www.w3.org/2000/svg" xmlns:xlink="http://www.w3.org/1999/xlink" x="0px" y="0px"
	 viewBox="0 0 566.9 131.6" style="enable-background:new 0 0 566.9 131.6;" xml:space="preserve">
<style type="text/css">
	.st0{fill:none;stroke:#000000;stroke-width:0.5;stroke-miterlimit:10;}
	.st1{fill:none;stroke:#21409A;stroke-miterlimit:10;}
	.st2{fill:#21409A;}
</style>
<g>
	<rect x="255.3" y="0.2" class="st0" width="92.7" height="92.7"/>
	<line class="st0" x1="219" y1="23.4" x2="255.3" y2="0.2"/>
	<line class="st0" x1="219" y1="116.1" x2="255.3" y2="92.9"/>
	<line class="st0" x1="311.6" y1="116.1" x2="348" y2="92.9"/>
	<g>
		<path d="M264.6,127c-0.4,0.3-0.7,0.5-1.1,0.7s-0.7,0.2-1.1,0.2c-0.6,0-1-0.2-1.4-0.5s-0.5-0.8-0.5-1.3c0-0.3,0.1-0.7,0.2-0.9
			s0.4-0.5,0.6-0.6s0.6-0.3,1-0.3c0.2,0,0.7-0.1,1.4-0.1s1.1-0.1,1.4-0.2c0.1-0.3,0.1-0.5,0.1-0.7c0-0.2-0.1-0.4-0.3-0.6
			c-0.2-0.2-0.6-0.3-1.1-0.3c-0.4,0-0.8,0.1-1.1,0.3s-0.5,0.5-0.6,0.8l-1.1-0.1c0.2-0.6,0.6-1.1,1-1.4s1.1-0.5,1.8-0.5
			c0.8,0,1.4,0.2,1.8,0.6c0.3,0.3,0.5,0.6,0.5,1.1c0,0.3,0,0.7-0.1,1.2l-0.3,1.5c-0.1,0.5-0.2,0.9-0.2,1.2c0,0.2,0,0.5,0.1,0.8h-1.1
			C264.7,127.5,264.6,127.3,264.6,127z M265,124.6c-0.1,0.1-0.3,0.1-0.5,0.1s-0.5,0.1-0.9,0.1c-0.6,0.1-1.1,0.1-1.3,0.2
			s-0.4,0.2-0.6,0.4s-0.2,0.4-0.2,0.6c0,0.3,0.1,0.5,0.3,0.7s0.5,0.3,0.9,0.3c0.4,0,0.7-0.1,1-0.3s0.6-0.4,0.8-0.8
			S264.9,125.2,265,124.6z"/>
	</g>
	<rect x="219" y="23.4" class="st0" width="92.7" height="92.7"/>
	<line class="st0" x1="311.6" y1="23.4" x2="348" y2="0.2"/>
	<g>
		<g>
			<line class="st1" x1="255.3" y1="92.9" x2="224.9" y2="112.3"/>
			<g>
				<polygon class="st2" points="225,109.5 219,116.1 227.5,113.4 				"/>
			</g>
		</g>
	</g>
	<g>
		<g>
			<line class="st1" x1="255.3" y1="92.9" x2="255.3" y2="7.3"/>
			<g>
				<polygon class="st2" points="257.6,8.9 255.3,0.3 253,8.9 				"/>
			</g>
		</g>
	</g>
	<g>
		<g>
			<line class="st1" x1="255.3" y1="92.9" x2="340.9" y2="92.9"/>
			<g>
				<polygon class="st2" points="339.3,95.2 348,92.9 339.3,90.6 				"/>
			</g>
		</g>
	</g>
	<g>
		<path class="st2" d="M224.4,98.2l-1.5-0.3c0.2-0.6,0.5-1,0.9-1.3s1-0.4,1.8-0.4c0.7,0,1.3,0.1,1.6,0.3s0.6,0.4,0.8,0.7
			s0.2,0.8,0.2,1.5l0,1.9c0,0.5,0,1,0.1,1.2s0.2,0.5,0.3,0.8H227c0-0.1-0.1-0.3-0.2-0.5c0-0.1,0-0.2-0.1-0.2
			c-0.3,0.3-0.6,0.5-0.9,0.6s-0.7,0.2-1,0.2c-0.6,0-1.1-0.2-1.5-0.5s-0.6-0.8-0.6-1.3c0-0.4,0.1-0.7,0.3-0.9s0.4-0.5,0.7-0.6
			s0.7-0.3,1.3-0.4c0.8-0.1,1.3-0.3,1.6-0.4v-0.2c0-0.3-0.1-0.5-0.2-0.7s-0.5-0.2-0.9-0.2c-0.3,0-0.5,0.1-0.7,0.2
			S224.5,97.9,224.4,98.2z M226.6,99.5c-0.2,0.1-0.5,0.2-1,0.3s-0.8,0.2-0.9,0.3c-0.2,0.2-0.3,0.3-0.3,0.6c0,0.2,0.1,0.4,0.3,0.6
			s0.4,0.3,0.7,0.3c0.3,0,0.6-0.1,0.8-0.3c0.2-0.1,0.3-0.3,0.4-0.5c0-0.1,0.1-0.4,0.1-0.8V99.5z"/>
		<path class="st2" d="M232.6,104.5h-1.2v-4.7c-0.5,0.4-1,0.7-1.6,0.9v-1.1c0.3-0.1,0.7-0.3,1.1-0.6c0.4-0.3,0.6-0.6,0.8-1h1V104.5z
			"/>
	</g>
	<g>
		<path class="st2" d="M331.1,82.5l-1.5-0.3c0.2-0.6,0.5-1,0.9-1.3s1-0.4,1.8-0.4c0.7,0,1.3,0.1,1.6,0.3s0.6,0.4,0.8,0.7
			s0.2,0.8,0.2,1.5l0,1.9c0,0.5,0,1,0.1,1.2s0.2,0.5,0.3,0.8h-1.6c0-0.1-0.1-0.3-0.2-0.5c0-0.1,0-0.2-0.1-0.2
			c-0.3,0.3-0.6,0.5-0.9,0.6s-0.7,0.2-1,0.2c-0.6,0-1.1-0.2-1.5-0.5s-0.6-0.8-0.6-1.3c0-0.4,0.1-0.7,0.3-0.9s0.4-0.5,0.7-0.6
			s0.7-0.3,1.3-0.4c0.8-0.1,1.3-0.3,1.6-0.4v-0.2c0-0.3-0.1-0.5-0.2-0.7s-0.5-0.2-0.9-0.2c-0.3,0-0.5,0.1-0.7,0.2
			S331.2,82.2,331.1,82.5z M333.3,83.8c-0.2,0.1-0.5,0.2-1,0.3s-0.8,0.2-0.9,0.3c-0.2,0.2-0.3,0.3-0.3,0.6c0,0.2,0.1,0.4,0.3,0.6
			s0.4,0.3,0.7,0.3c0.3,0,0.6-0.1,0.8-0.3c0.2-0.1,0.3-0.3,0.4-0.5c0-0.1,0.1-0.4,0.1-0.8V83.8z"/>
		<path class="st2" d="M340.2,87.7v1.1h-4.3c0-0.4,0.2-0.8,0.4-1.2c0.2-0.4,0.7-0.9,1.4-1.5c0.6-0.5,0.9-0.9,1-1.1
			c0.2-0.3,0.3-0.5,0.3-0.8c0-0.3-0.1-0.5-0.2-0.6c-0.1-0.1-0.4-0.2-0.6-0.2c-0.3,0-0.5,0.1-0.6,0.2s-0.2,0.4-0.3,0.8l-1.2-0.1
			c0.1-0.7,0.3-1.2,0.7-1.5s0.9-0.4,1.5-0.4c0.6,0,1.1,0.2,1.5,0.5s0.5,0.8,0.5,1.3c0,0.3-0.1,0.6-0.2,0.8c-0.1,0.3-0.3,0.5-0.5,0.8
			c-0.1,0.2-0.4,0.5-0.8,0.8s-0.6,0.6-0.7,0.7c-0.1,0.1-0.2,0.2-0.3,0.3H340.2z"/>
	</g>
	<g>
		<path class="st2" d="M263.4,11.5l-1.5-0.3c0.2-0.6,0.5-1,0.9-1.3s1-0.4,1.8-0.4c0.7,0,1.3,0.1,1.6,0.3s0.6,0.4,0.8,0.7
			s0.2,0.8,0.2,1.5l0,1.9c0,0.5,0,1,0.1,1.2s0.2,0.5,0.3,0.8H266c0-0.1-0.1-0.3-0.2-0.5c0-0.1,0-0.2-0.1-0.2
			c-0.3,0.3-0.6,0.5-0.9,0.6s-0.7,0.2-1,0.2c-0.6,0-1.1-0.2-1.5-0.5s-0.6-0.8-0.6-1.3c0-0.4,0.1-0.7,0.3-0.9s0.4-0.5,0.7-0.6
			s0.7-0.3,1.3-0.4c0.8-0.1,1.3-0.3,1.6-0.4v-0.2c0-0.3-0.1-0.5-0.2-0.7s-0.5-0.2-0.9-0.2c-0.3,0-0.5,0.1-0.7,0.2
			S263.5,11.2,263.4,11.5z M265.6,12.8c-0.2,0.1-0.5,0.2-1,0.3s-0.8,0.2-0.9,0.3c-0.2,0.2-0.3,0.3-0.3,0.6c0,0.2,0.1,0.4,0.3,0.6
			s0.4,0.3,0.7,0.3c0.3,0,0.6-0.1,0.8-0.3c0.2-0.1,0.3-0.3,0.4-0.5c0-0.1,0.1-0.4,0.1-0.8V12.8z"/>
		<path class="st2" d="M268.4,16.1l1.2-0.1c0,0.3,0.1,0.5,0.3,0.7c0.2,0.2,0.4,0.2,0.6,0.2c0.3,0,0.5-0.1,0.6-0.3
			c0.2-0.2,0.3-0.5,0.3-0.8c0-0.3-0.1-0.6-0.3-0.7s-0.4-0.3-0.6-0.3c-0.2,0-0.3,0-0.6,0.1l0.1-1c0.3,0,0.6-0.1,0.8-0.2
			c0.2-0.2,0.3-0.4,0.3-0.6c0-0.2-0.1-0.4-0.2-0.5s-0.3-0.2-0.5-0.2c-0.2,0-0.4,0.1-0.5,0.2s-0.2,0.4-0.3,0.6l-1.1-0.2
			c0.1-0.4,0.2-0.7,0.4-0.9c0.2-0.2,0.4-0.4,0.7-0.5c0.3-0.1,0.6-0.2,1-0.2c0.6,0,1.1,0.2,1.5,0.6c0.3,0.3,0.5,0.7,0.5,1.1
			c0,0.6-0.3,1-0.9,1.4c0.4,0.1,0.7,0.3,0.9,0.5c0.2,0.3,0.3,0.6,0.3,1c0,0.6-0.2,1-0.6,1.4c-0.4,0.4-0.9,0.6-1.5,0.6
			c-0.6,0-1.1-0.2-1.5-0.5C268.6,17.1,268.4,16.7,268.4,16.1z"/>
	</g>
</g>
</svg>
