<?xml version="1.0" encoding="utf-8"?>
<!-- Generator: Adobe Illustrator 21.1.0, SVG Export Plug-In . SVG Version: 6.00 Build 0)  -->
<svg version="1.1" id="Layer_1" xmlns="http://www.w3.org/2000/svg" xmlns:xlink="http://www.w3.org/1999/xlink" x="0px" y="0px"
	 viewBox="0 0 340.2 90.5" style="enable-background:new 0 0 340.2 90.5;" xml:space="preserve">
<style type="text/css">
	.st0{fill:none;stroke:#000000;stroke-width:0.5;stroke-miterlimit:10;stroke-dasharray:2;}
	.st1{fill:none;stroke:#000000;stroke-width:0.5;stroke-miterlimit:10;}
	.st2{fill:none;stroke:#F26522;stroke-width:0.5;stroke-linecap:round;stroke-linejoin:round;stroke-miterlimit:10;}
</style>
<line class="st0" x1="179" y1="63.3" x2="131.7" y2="26.4"/>
<line class="st0" x1="147.5" y1="63.3" x2="163.2" y2="26.4"/>
<g>
	<g>
		<line class="st1" x1="155.4" y1="44.8" x2="183.8" y2="44.8"/>
		<g>
			<polygon points="183.1,45.9 186.9,44.8 183.1,43.8 			"/>
		</g>
	</g>
</g>
<g>
	<g>
		<line class="st1" x1="155.4" y1="44.8" x2="162" y2="29.3"/>
		<g>
			<polygon points="162.7,30.3 163.2,26.4 160.8,29.5 			"/>
		</g>
	</g>
</g>
<g>
	<circle cx="139.6" cy="8" r="0.9"/>
	<circle cx="171.1" cy="8" r="0.9"/>
	<circle cx="202.6" cy="8" r="0.9"/>
	<circle cx="234.2" cy="8" r="0.9"/>
</g>
<circle cx="131.7" cy="26.4" r="0.9"/>
<circle cx="163.2" cy="26.4" r="0.9"/>
<circle cx="194.8" cy="26.4" r="0.9"/>
<circle cx="226.3" cy="26.4" r="0.9"/>
<circle cx="123.8" cy="44.8" r="0.9"/>
<circle cx="155.4" cy="44.8" r="0.9"/>
<circle cx="186.9" cy="44.8" r="0.9"/>
<circle cx="218.4" cy="44.8" r="0.9"/>
<circle cx="179" cy="63.3" r="0.9"/>
<circle cx="210.5" cy="63.3" r="0.9"/>
<circle cx="116" cy="63.3" r="0.9"/>
<circle cx="147.5" cy="63.3" r="0.9"/>
<g>
	<circle cx="171.1" cy="81.7" r="0.9"/>
	<circle cx="202.6" cy="81.7" r="0.9"/>
	<circle cx="108.1" cy="81.7" r="0.9"/>
	<circle cx="139.6" cy="81.7" r="0.9"/>
</g>
<g>
	<path d="M184.4,51.1v-4.3h0.8v1.5c0.3-0.3,0.6-0.4,0.9-0.4c0.4,0,0.7,0.1,0.9,0.4s0.4,0.7,0.4,1.2c0,0.5-0.1,0.9-0.4,1.2
		s-0.6,0.4-0.9,0.4c-0.2,0-0.4,0-0.5-0.1c-0.2-0.1-0.3-0.2-0.4-0.4v0.5H184.4z M185.2,49.4c0,0.3,0.1,0.6,0.2,0.7
		c0.1,0.2,0.3,0.3,0.6,0.3c0.2,0,0.3-0.1,0.5-0.2c0.1-0.2,0.2-0.4,0.2-0.7c0-0.4-0.1-0.6-0.2-0.8c-0.1-0.2-0.3-0.2-0.5-0.2
		c-0.2,0-0.4,0.1-0.5,0.2C185.3,48.9,185.2,49.1,185.2,49.4z"/>
	<path d="M189.2,52.1h-0.5V50c-0.2,0.2-0.4,0.3-0.7,0.4v-0.5c0.1,0,0.3-0.1,0.5-0.3s0.3-0.3,0.3-0.5h0.4V52.1z"/>
</g>
<g>
	<path d="M154.6,27.5v-4.3h0.8v1.5c0.3-0.3,0.6-0.4,0.9-0.4c0.4,0,0.7,0.1,0.9,0.4s0.4,0.7,0.4,1.2c0,0.5-0.1,0.9-0.4,1.2
		s-0.6,0.4-0.9,0.4c-0.2,0-0.4,0-0.5-0.1c-0.2-0.1-0.3-0.2-0.4-0.4v0.5H154.6z M155.4,25.9c0,0.3,0.1,0.6,0.2,0.7
		c0.1,0.2,0.3,0.3,0.6,0.3c0.2,0,0.3-0.1,0.5-0.2c0.1-0.2,0.2-0.4,0.2-0.7c0-0.4-0.1-0.6-0.2-0.8c-0.1-0.2-0.3-0.2-0.5-0.2
		c-0.2,0-0.4,0.1-0.5,0.2C155.5,25.4,155.4,25.6,155.4,25.9z"/>
	<path d="M159.9,28v0.5H158c0-0.2,0.1-0.4,0.2-0.5s0.3-0.4,0.6-0.7c0.2-0.2,0.4-0.4,0.5-0.5c0.1-0.1,0.1-0.2,0.1-0.3
		c0-0.1,0-0.2-0.1-0.3s-0.2-0.1-0.3-0.1c-0.1,0-0.2,0-0.3,0.1s-0.1,0.2-0.1,0.3l-0.5-0.1c0-0.3,0.1-0.5,0.3-0.7s0.4-0.2,0.6-0.2
		c0.3,0,0.5,0.1,0.7,0.2s0.2,0.3,0.2,0.6c0,0.1,0,0.3-0.1,0.4s-0.1,0.2-0.2,0.4c-0.1,0.1-0.2,0.2-0.4,0.4s-0.3,0.3-0.3,0.3
		s-0.1,0.1-0.1,0.2H159.9z"/>
</g>
<line class="st0" x1="123.8" y1="44.8" x2="186.9" y2="44.8"/>
<line class="st2" x1="147.4" y1="30.7" x2="171.1" y2="40.7"/>
<line class="st2" x1="171.1" y1="40.7" x2="171.1" y2="49"/>
<line class="st2" x1="139.6" y1="49" x2="163.2" y2="59.1"/>
<line class="st2" x1="139.6" y1="49" x2="139.6" y2="40.7"/>
<line class="st2" x1="163.2" y1="59.1" x2="171.1" y2="49"/>
<line class="st2" x1="147.4" y1="30.7" x2="139.6" y2="40.7"/>
</svg>
