<?xml version="1.0" encoding="utf-8"?>
<!-- Generator: Adobe Illustrator 21.1.0, SVG Export Plug-In . SVG Version: 6.00 Build 0)  -->
<svg version="1.1" id="Layer_1" xmlns="http://www.w3.org/2000/svg" xmlns:xlink="http://www.w3.org/1999/xlink" x="0px" y="0px"
	 viewBox="0 0 566.9 178" style="enable-background:new 0 0 566.9 178;" xml:space="preserve">
<style type="text/css">
	.st0{fill:#FFFFFF;}
	.st1{fill:none;stroke:#000000;stroke-width:0.5;stroke-miterlimit:10;}
	.st2{fill:none;stroke:#000000;stroke-width:0.5;stroke-miterlimit:10;stroke-dasharray:2.0714,2.0714;}
	.st3{stroke:#FFFFFF;stroke-width:0.5;stroke-miterlimit:10;}
	.st4{fill:#FFFFFF;stroke:#000000;stroke-width:0.5;stroke-miterlimit:10;}
</style>
<g>
	<polygon class="st0" points="261.3,77.1 298.6,51.1 335.9,77.1 298.6,103.2 	"/>
	<g>
		<polyline class="st1" points="262.1,77.7 261.3,77.1 262.1,76.6 		"/>
		<line class="st2" x1="263.8" y1="75.4" x2="296.9" y2="52.2"/>
		<polyline class="st1" points="297.8,51.6 298.6,51.1 299.4,51.6 		"/>
		<line class="st2" x1="301.1" y1="52.8" x2="334.2" y2="76"/>
		<polyline class="st1" points="335,76.6 335.9,77.1 335,77.7 		"/>
		<line class="st2" x1="333.3" y1="78.9" x2="300.2" y2="102.1"/>
		<polyline class="st1" points="299.4,102.7 298.6,103.2 297.8,102.7 		"/>
		<line class="st2" x1="296.1" y1="101.5" x2="263" y2="78.3"/>
	</g>
</g>
<g>
	<path d="M207.5,99.4v-8.6h3.7c0.9,0,1.6,0.1,2,0.2s0.7,0.4,1,0.8s0.4,0.8,0.4,1.4c0,0.6-0.2,1.2-0.6,1.6s-0.9,0.7-1.7,0.8
		c0.4,0.2,0.7,0.5,0.9,0.7s0.6,0.7,1,1.4l1,1.7h-2.1l-1.3-1.9c-0.4-0.7-0.8-1.1-0.9-1.3s-0.3-0.3-0.5-0.4s-0.5-0.1-0.9-0.1h-0.4v3.6
		H207.5z M209.2,94.4h1.3c0.8,0,1.4,0,1.6-0.1s0.4-0.2,0.5-0.4s0.2-0.4,0.2-0.6c0-0.3-0.1-0.5-0.2-0.7s-0.4-0.3-0.7-0.3
		c-0.1,0-0.6,0-1.3,0h-1.4V94.4z"/>
</g>
<circle class="st3" cx="261.3" cy="77.1" r="1.9"/>
<circle class="st4" cx="298.6" cy="77.1" r="1.9"/>
<circle class="st3" cx="298.6" cy="51.1" r="1.9"/>
<circle class="st4" cx="335.9" cy="51.1" r="1.9"/>
<circle class="st3" cx="298.6" cy="103.2" r="1.9"/>
<circle class="st4" cx="335.9" cy="103.2" r="1.9"/>
<circle class="st3" cx="335.9" cy="77.1" r="1.9"/>
<circle class="st4" cx="373.1" cy="77.1" r="1.9"/>
<ellipse transform="matrix(6.327644e-03 -1 1 6.327644e-03 204.3215 464.0014)" class="st3" cx="335.6" cy="129.2" rx="1.9" ry="1.9"/>
<ellipse transform="matrix(6.327644e-03 -1 1 6.327644e-03 267.3777 475.7472)" class="st3" cx="373.1" cy="103.3" rx="1.9" ry="1.9"/>
<circle class="st3" cx="335.9" cy="24.9" r="1.9"/>
<circle class="st3" cx="373.2" cy="51" r="1.9"/>
<circle class="st3" cx="410.4" cy="77.1" r="1.9"/>
<g>
	<g>
		<line class="st1" x1="161.8" y1="137.9" x2="161.8" y2="119.8"/>
		<g>
			<polygon points="163.2,120.8 161.8,115.3 160.3,120.8 			"/>
		</g>
	</g>
</g>
<g>
	<g>
		<line class="st1" x1="161.4" y1="137.9" x2="182.9" y2="137.9"/>
		<g>
			<polygon points="181.9,139.3 187.3,137.9 181.9,136.4 			"/>
		</g>
	</g>
</g>
<g>
	<path d="M189.8,141.7l2.7-3.2l-1.6-3.1h1.2l0.5,1.1c0.2,0.4,0.4,0.8,0.5,1.2l1.8-2.3h1.3l-2.6,3.1l1.6,3.1H194l-0.6-1.3
		c-0.1-0.3-0.3-0.6-0.5-1l-1.9,2.3H189.8z"/>
</g>
<g>
	<path d="M154,119.4l0.1-1c0.2,0.1,0.4,0.1,0.6,0.1c0.2,0,0.4,0,0.5-0.1c0.2-0.1,0.4-0.4,0.6-0.7l0.3-0.6l-1-6.2h1l0.5,3.1
		c0.1,0.6,0.2,1.2,0.2,1.9l2.8-5h1.1l-4,7c-0.4,0.7-0.7,1.1-1,1.4s-0.6,0.3-1,0.3C154.5,119.5,154.3,119.4,154,119.4z"/>
</g>
<g>
	<path d="M151.8,148.4c0-1,0.3-1.7,0.8-2.1c0.4-0.4,1-0.6,1.6-0.6c0.7,0,1.3,0.2,1.7,0.7c0.5,0.5,0.7,1.1,0.7,1.9
		c0,0.7-0.1,1.2-0.3,1.6c-0.2,0.4-0.5,0.7-0.9,0.9c-0.4,0.2-0.8,0.3-1.3,0.3c-0.7,0-1.3-0.2-1.8-0.7
		C152,149.9,151.8,149.2,151.8,148.4z M152.7,148.4c0,0.7,0.1,1.2,0.4,1.5c0.3,0.3,0.7,0.5,1.1,0.5c0.4,0,0.8-0.2,1.1-0.5
		s0.4-0.8,0.4-1.5c0-0.6-0.1-1.1-0.4-1.5c-0.3-0.3-0.7-0.5-1.1-0.5c-0.4,0-0.8,0.2-1.1,0.5C152.9,147.2,152.7,147.7,152.7,148.4z"/>
	<path d="M157.7,151v-5.2h0.8v0.8c0.2-0.4,0.4-0.6,0.6-0.7s0.4-0.2,0.6-0.2c0.3,0,0.6,0.1,0.9,0.3l-0.3,0.8
		c-0.2-0.1-0.4-0.2-0.6-0.2c-0.2,0-0.4,0.1-0.5,0.2c-0.2,0.1-0.3,0.3-0.3,0.5c-0.1,0.3-0.1,0.7-0.1,1v2.7H157.7z"/>
	<path d="M161,144.8v-1h0.9v1H161z M161,151v-5.2h0.9v5.2H161z"/>
	<path d="M163.1,151.4l0.9,0.1c0,0.3,0.1,0.5,0.3,0.6c0.2,0.2,0.5,0.2,0.9,0.2c0.4,0,0.7-0.1,0.9-0.2c0.2-0.2,0.4-0.4,0.4-0.7
		c0-0.2,0.1-0.6,0.1-1.1c-0.4,0.5-0.9,0.7-1.4,0.7c-0.7,0-1.3-0.3-1.7-0.8c-0.4-0.5-0.6-1.1-0.6-1.9c0-0.5,0.1-1,0.3-1.4
		c0.2-0.4,0.4-0.7,0.8-1c0.3-0.2,0.7-0.3,1.2-0.3c0.6,0,1.1,0.2,1.5,0.7v-0.6h0.8v4.5c0,0.8-0.1,1.4-0.2,1.7s-0.4,0.6-0.8,0.8
		s-0.8,0.3-1.3,0.3c-0.6,0-1.1-0.1-1.5-0.4S163.1,151.9,163.1,151.4z M163.8,148.3c0,0.7,0.1,1.2,0.4,1.5s0.6,0.5,1,0.5
		c0.4,0,0.7-0.2,1-0.5c0.3-0.3,0.4-0.8,0.4-1.5c0-0.6-0.1-1.1-0.4-1.4s-0.6-0.5-1-0.5c-0.4,0-0.7,0.2-1,0.5S163.8,147.6,163.8,148.3
		z"/>
	<path d="M168.8,144.8v-1h0.9v1H168.8z M168.8,151v-5.2h0.9v5.2H168.8z"/>
	<path d="M171,151v-5.2h0.8v0.7c0.4-0.6,0.9-0.9,1.7-0.9c0.3,0,0.6,0.1,0.9,0.2s0.5,0.3,0.6,0.4c0.1,0.2,0.2,0.4,0.3,0.6
		c0,0.2,0,0.4,0,0.9v3.2h-0.9v-3.2c0-0.4,0-0.6-0.1-0.8c-0.1-0.2-0.2-0.3-0.4-0.4c-0.2-0.1-0.4-0.2-0.6-0.2c-0.4,0-0.7,0.1-1,0.4
		c-0.3,0.2-0.4,0.7-0.4,1.4v2.8H171z"/>
</g>
<g>
	<g>
		<line class="st1" x1="161.8" y1="137.9" x2="294.5" y2="78.9"/>
		<g>
			<polygon points="294.2,80.7 298.6,77.1 293,78 			"/>
		</g>
	</g>
</g>
<g>
	<g>
		<line class="st1" x1="261.3" y1="77.1" x2="294.2" y2="77.1"/>
		<g>
			<polygon points="293.2,78.6 298.6,77.1 293.2,75.7 			"/>
		</g>
	</g>
</g>
<g>
	<g>
		<line class="st1" x1="161.8" y1="137.9" x2="257.5" y2="79.5"/>
		<g>
			<polygon points="257.4,81.2 261.3,77.1 255.9,78.7 			"/>
		</g>
	</g>
</g>
<g>
	<path d="M284,71.4h-1.6v-6.2h1.5v0.9c0.3-0.4,0.5-0.7,0.7-0.8s0.4-0.2,0.7-0.2c0.4,0,0.7,0.1,1.1,0.3l-0.5,1.4
		c-0.3-0.2-0.5-0.3-0.8-0.3c-0.2,0-0.4,0.1-0.6,0.2s-0.3,0.4-0.4,0.7s-0.1,1-0.1,2.1V71.4z"/>
	<path d="M285.1,75.4l0.2-0.8c0.2,0.1,0.4,0.1,0.5,0.1c0.2,0,0.3-0.1,0.5-0.2c0.1-0.1,0.2-0.5,0.3-1l1.1-5.2h0.9l-1.1,5.4
		c-0.1,0.7-0.3,1.1-0.5,1.4c-0.2,0.3-0.6,0.5-1,0.5C285.7,75.5,285.4,75.4,285.1,75.4z M287.9,67.2l0.2-1h0.9l-0.2,1H287.9z"/>
</g>
<g>
	<path d="M228.4,121.6V113h3.7c0.9,0,1.6,0.1,2,0.2s0.7,0.4,1,0.8s0.4,0.8,0.4,1.4c0,0.6-0.2,1.2-0.6,1.6s-0.9,0.7-1.7,0.8
		c0.4,0.2,0.7,0.5,0.9,0.7s0.6,0.7,1,1.4l1,1.7H234l-1.3-1.9c-0.4-0.7-0.8-1.1-0.9-1.3s-0.3-0.3-0.5-0.4s-0.5-0.1-0.9-0.1h-0.4v3.6
		H228.4z M230.1,116.6h1.3c0.8,0,1.4,0,1.6-0.1s0.4-0.2,0.5-0.4s0.2-0.4,0.2-0.6c0-0.3-0.1-0.5-0.2-0.7s-0.4-0.3-0.7-0.3
		c-0.1,0-0.6,0-1.3,0h-1.4V116.6z"/>
	<path d="M242.5,120.2v-2.4h-2.3v-1h2.3v-2.3h1v2.3h2.3v1h-2.3v2.4H242.5z"/>
	<path d="M252.3,121.6h-1.6v-6.2h1.5v0.9c0.3-0.4,0.5-0.7,0.7-0.8s0.4-0.2,0.7-0.2c0.4,0,0.7,0.1,1.1,0.3l-0.5,1.4
		c-0.3-0.2-0.5-0.3-0.8-0.3c-0.2,0-0.4,0.1-0.6,0.2s-0.3,0.4-0.4,0.7s-0.1,1-0.1,2.1V121.6z"/>
	<path d="M253.3,125.5l0.2-0.8c0.2,0.1,0.4,0.1,0.5,0.1c0.2,0,0.3-0.1,0.5-0.2c0.1-0.1,0.2-0.5,0.3-1l1.1-5.2h0.9l-1.1,5.4
		c-0.1,0.7-0.3,1.1-0.5,1.4c-0.2,0.3-0.6,0.5-1,0.5C253.9,125.7,253.6,125.6,253.3,125.5z M256.1,117.4l0.2-1h0.9l-0.2,1H256.1z"/>
</g>
</svg>
