<?xml version="1.0" encoding="utf-8" standalone="no"?>
<!DOCTYPE svg PUBLIC "-//W3C//DTD SVG 1.1//EN"
  "http://www.w3.org/Graphics/SVG/1.1/DTD/svg11.dtd">
<!-- Created with matplotlib (https://matplotlib.org/) -->
<svg height="720pt" version="1.1" viewBox="0 0 864 720" width="864pt" xmlns="http://www.w3.org/2000/svg" xmlns:xlink="http://www.w3.org/1999/xlink">
 <metadata>
  <rdf:RDF xmlns:cc="http://creativecommons.org/ns#" xmlns:dc="http://purl.org/dc/elements/1.1/" xmlns:rdf="http://www.w3.org/1999/02/22-rdf-syntax-ns#">
   <cc:Work>
    <dc:type rdf:resource="http://purl.org/dc/dcmitype/StillImage"/>
    <dc:date>2021-08-10T12:59:05.732533</dc:date>
    <dc:format>image/svg+xml</dc:format>
    <dc:creator>
     <cc:Agent>
      <dc:title>Matplotlib v3.3.2, https://matplotlib.org/</dc:title>
     </cc:Agent>
    </dc:creator>
   </cc:Work>
  </rdf:RDF>
 </metadata>
 <defs>
  <style type="text/css">*{stroke-linecap:butt;stroke-linejoin:round;}</style>
 </defs>
 <g id="figure_1">
  <g id="patch_1">
   <path d="M 0 720 
L 864 720 
L 864 0 
L 0 0 
z
" style="fill:#ffffff;"/>
  </g>
  <g id="axes_1">
   <g id="patch_2">
    <path d="M 108 630 
L 777.6 630 
L 777.6 86.4 
L 108 86.4 
z
" style="fill:#ffffff;"/>
   </g>
   <g id="PolyCollection_1">
    <path clip-path="url(#pecd8331915)" d="M 138.436364 539.377171 
L 138.436364 539.4 
L 144.585124 539.4 
L 150.733884 539.4 
L 156.882645 539.4 
L 163.031405 539.4 
L 169.180165 539.4 
L 175.328926 539.4 
L 181.477686 539.4 
L 187.626446 539.4 
L 193.775207 539.4 
L 199.923967 539.4 
L 206.072727 539.4 
L 212.221488 539.4 
L 218.370248 539.4 
L 224.519008 539.4 
L 230.667769 539.4 
L 236.816529 539.4 
L 242.965289 539.4 
L 249.11405 539.4 
L 255.26281 539.4 
L 261.41157 539.4 
L 267.560331 539.4 
L 273.709091 539.4 
L 279.857851 539.4 
L 286.006612 539.4 
L 292.155372 539.4 
L 298.304132 539.4 
L 304.452893 539.4 
L 310.601653 539.4 
L 316.750413 539.4 
L 322.899174 539.4 
L 329.047934 539.4 
L 335.196694 539.4 
L 341.345455 539.4 
L 347.494215 539.4 
L 353.642975 539.4 
L 359.791736 539.4 
L 365.940496 539.4 
L 372.089256 539.4 
L 378.238017 539.4 
L 384.386777 539.4 
L 390.535537 539.4 
L 396.684298 539.4 
L 402.833058 539.4 
L 408.981818 539.4 
L 415.130579 539.4 
L 421.279339 539.4 
L 427.428099 539.4 
L 433.57686 539.4 
L 439.72562 539.4 
L 445.87438 539.4 
L 452.02314 539.4 
L 458.171901 539.4 
L 464.320661 539.4 
L 470.469421 539.4 
L 476.618182 539.4 
L 482.766942 539.4 
L 488.915702 539.4 
L 495.064463 539.4 
L 501.213223 539.4 
L 507.361983 539.4 
L 513.510744 539.4 
L 519.659504 539.4 
L 525.808264 539.4 
L 531.957025 539.4 
L 538.105785 539.4 
L 544.254545 539.4 
L 550.403306 539.4 
L 556.552066 539.4 
L 562.700826 539.4 
L 568.849587 539.4 
L 574.998347 539.4 
L 581.147107 539.4 
L 587.295868 539.4 
L 593.444628 539.4 
L 599.593388 539.4 
L 605.742149 539.4 
L 611.890909 539.4 
L 618.039669 539.4 
L 624.18843 539.4 
L 630.33719 539.4 
L 636.48595 539.4 
L 642.634711 539.4 
L 648.783471 539.4 
L 654.932231 539.4 
L 661.080992 539.4 
L 667.229752 539.4 
L 673.378512 539.4 
L 679.527273 539.4 
L 685.676033 539.4 
L 691.824793 539.4 
L 697.973554 539.4 
L 704.122314 539.4 
L 710.271074 539.4 
L 716.419835 539.4 
L 722.568595 539.4 
L 728.717355 539.4 
L 734.866116 539.4 
L 741.014876 539.4 
L 747.163636 539.4 
L 747.163636 539.377171 
L 747.163636 539.377171 
L 741.014876 539.368563 
L 734.866116 539.35699 
L 728.717355 539.34154 
L 722.568595 539.321058 
L 716.419835 539.294093 
L 710.271074 539.258842 
L 704.122314 539.213082 
L 697.973554 539.154099 
L 691.824793 539.07861 
L 685.676033 538.98268 
L 679.527273 538.861644 
L 673.378512 538.710023 
L 667.229752 538.521455 
L 661.080992 538.288634 
L 654.932231 538.003265 
L 648.783471 537.656044 
L 642.634711 537.23668 
L 636.48595 536.733938 
L 630.33719 536.135748 
L 624.18843 535.429353 
L 618.039669 534.601528 
L 611.890909 533.638857 
L 605.742149 532.528074 
L 599.593388 531.256475 
L 593.444628 529.812389 
L 587.295868 528.185692 
L 581.147107 526.368374 
L 574.998347 524.355116 
L 568.849587 522.14388 
L 562.700826 519.736468 
L 556.552066 517.139034 
L 550.403306 514.362523 
L 544.254545 511.422997 
L 538.105785 508.341827 
L 531.957025 505.145732 
L 525.808264 501.866629 
L 519.659504 498.541302 
L 513.510744 495.21086 
L 507.361983 491.920005 
L 501.213223 488.716119 
L 495.064463 485.648184 
L 488.915702 482.765575 
L 482.766942 480.11676 
L 476.618182 477.747961 
L 470.469421 475.701817 
L 464.320661 474.016115 
L 458.171901 472.722627 
L 452.02314 471.846117 
L 445.87438 471.40355 
L 439.72562 471.40355 
L 433.57686 471.846117 
L 427.428099 472.722627 
L 421.279339 474.016115 
L 415.130579 475.701817 
L 408.981818 477.747961 
L 402.833058 480.11676 
L 396.684298 482.765575 
L 390.535537 485.648184 
L 384.386777 488.716119 
L 378.238017 491.920005 
L 372.089256 495.21086 
L 365.940496 498.541302 
L 359.791736 501.866629 
L 353.642975 505.145732 
L 347.494215 508.341827 
L 341.345455 511.422997 
L 335.196694 514.362523 
L 329.047934 517.139034 
L 322.899174 519.736468 
L 316.750413 522.14388 
L 310.601653 524.355116 
L 304.452893 526.368374 
L 298.304132 528.185692 
L 292.155372 529.812389 
L 286.006612 531.256475 
L 279.857851 532.528074 
L 273.709091 533.638857 
L 267.560331 534.601528 
L 261.41157 535.429353 
L 255.26281 536.135748 
L 249.11405 536.733938 
L 242.965289 537.23668 
L 236.816529 537.656044 
L 230.667769 538.003265 
L 224.519008 538.288634 
L 218.370248 538.521455 
L 212.221488 538.710023 
L 206.072727 538.861644 
L 199.923967 538.98268 
L 193.775207 539.07861 
L 187.626446 539.154099 
L 181.477686 539.213082 
L 175.328926 539.258842 
L 169.180165 539.294093 
L 163.031405 539.321058 
L 156.882645 539.34154 
L 150.733884 539.35699 
L 144.585124 539.368563 
L 138.436364 539.377171 
z
" style="fill:#1f77b4;fill-opacity:0.5;"/>
   </g>
   <g id="PolyCollection_2">
    <path clip-path="url(#pecd8331915)" d="M 138.436364 358.32914 
L 138.436364 358.2 
L 144.585124 358.2 
L 150.733884 358.2 
L 156.882645 358.2 
L 163.031405 358.2 
L 169.180165 358.2 
L 175.328926 358.2 
L 181.477686 358.2 
L 187.626446 358.2 
L 193.775207 358.2 
L 199.923967 358.2 
L 206.072727 358.2 
L 212.221488 358.2 
L 218.370248 358.2 
L 224.519008 358.2 
L 230.667769 358.2 
L 236.816529 358.2 
L 242.965289 358.2 
L 249.11405 358.2 
L 255.26281 358.2 
L 261.41157 358.2 
L 267.560331 358.2 
L 273.709091 358.2 
L 279.857851 358.2 
L 286.006612 358.2 
L 292.155372 358.2 
L 298.304132 358.2 
L 304.452893 358.2 
L 310.601653 358.2 
L 316.750413 358.2 
L 322.899174 358.2 
L 329.047934 358.2 
L 335.196694 358.2 
L 341.345455 358.2 
L 347.494215 358.2 
L 353.642975 358.2 
L 359.791736 358.2 
L 365.940496 358.2 
L 372.089256 358.2 
L 378.238017 358.2 
L 384.386777 358.2 
L 390.535537 358.2 
L 396.684298 358.2 
L 402.833058 358.2 
L 408.981818 358.2 
L 415.130579 358.2 
L 421.279339 358.2 
L 427.428099 358.2 
L 433.57686 358.2 
L 439.72562 358.2 
L 445.87438 358.2 
L 452.02314 358.2 
L 458.171901 358.2 
L 464.320661 358.2 
L 470.469421 358.2 
L 476.618182 358.2 
L 482.766942 358.2 
L 488.915702 358.2 
L 495.064463 358.2 
L 501.213223 358.2 
L 507.361983 358.2 
L 513.510744 358.2 
L 519.659504 358.2 
L 525.808264 358.2 
L 531.957025 358.2 
L 538.105785 358.2 
L 544.254545 358.2 
L 550.403306 358.2 
L 556.552066 358.2 
L 562.700826 358.2 
L 568.849587 358.2 
L 574.998347 358.2 
L 581.147107 358.2 
L 587.295868 358.2 
L 593.444628 358.2 
L 599.593388 358.2 
L 605.742149 358.2 
L 611.890909 358.2 
L 618.039669 358.2 
L 624.18843 358.2 
L 630.33719 358.2 
L 636.48595 358.2 
L 642.634711 358.2 
L 648.783471 358.2 
L 654.932231 358.2 
L 661.080992 358.2 
L 667.229752 358.2 
L 673.378512 358.2 
L 679.527273 358.2 
L 685.676033 358.2 
L 691.824793 358.2 
L 697.973554 358.2 
L 704.122314 358.2 
L 710.271074 358.2 
L 716.419835 358.2 
L 722.568595 358.2 
L 728.717355 358.2 
L 734.866116 358.2 
L 741.014876 358.2 
L 747.163636 358.2 
L 747.163636 358.07086 
L 747.163636 358.07086 
L 741.014876 358.025757 
L 734.866116 357.966529 
L 728.717355 357.889344 
L 722.568595 357.789521 
L 716.419835 357.661413 
L 710.271074 357.498277 
L 704.122314 357.292159 
L 697.973554 357.033788 
L 691.824793 356.7125 
L 685.676033 356.316195 
L 679.527273 355.831353 
L 673.378512 355.243105 
L 667.229752 354.5354 
L 661.080992 353.691261 
L 654.932231 352.693153 
L 648.783471 351.523482 
L 642.634711 350.165222 
L 636.48595 348.602668 
L 630.33719 346.822331 
L 624.18843 344.813931 
L 618.039669 342.57149 
L 611.890909 340.094473 
L 605.742149 337.388942 
L 599.593388 334.468654 
L 593.444628 331.356059 
L 587.295868 328.083111 
L 581.147107 324.691814 
L 574.998347 321.234457 
L 568.849587 317.773439 
L 562.700826 314.380649 
L 556.552066 311.136359 
L 550.403306 308.127601 
L 544.254545 305.446057 
L 538.105785 303.185472 
L 531.957025 301.43868 
L 525.808264 300.294325 
L 519.659504 299.83341 
L 513.510744 300.125807 
L 507.361983 301.226912 
L 501.213223 303.174594 
L 495.064463 305.986614 
L 488.915702 309.658684 
L 482.766942 314.163268 
L 476.618182 319.449267 
L 470.469421 325.442606 
L 464.320661 332.04778 
L 458.171901 339.150294 
L 452.02314 346.619925 
L 445.87438 354.314687 
L 439.72562 362.085313 
L 433.57686 369.780075 
L 427.428099 377.249706 
L 421.279339 384.35222 
L 415.130579 390.957394 
L 408.981818 396.950733 
L 402.833058 402.236732 
L 396.684298 406.741316 
L 390.535537 410.413386 
L 384.386777 413.225406 
L 378.238017 415.173088 
L 372.089256 416.274193 
L 365.940496 416.56659 
L 359.791736 416.105675 
L 353.642975 414.96132 
L 347.494215 413.214528 
L 341.345455 410.953943 
L 335.196694 408.272399 
L 329.047934 405.263641 
L 322.899174 402.019351 
L 316.750413 398.626561 
L 310.601653 395.165543 
L 304.452893 391.708186 
L 298.304132 388.316889 
L 292.155372 385.043941 
L 286.006612 381.931346 
L 279.857851 379.011058 
L 273.709091 376.305527 
L 267.560331 373.82851 
L 261.41157 371.586069 
L 255.26281 369.577669 
L 249.11405 367.797332 
L 242.965289 366.234778 
L 236.816529 364.876518 
L 230.667769 363.706847 
L 224.519008 362.708739 
L 218.370248 361.8646 
L 212.221488 361.156895 
L 206.072727 360.568647 
L 199.923967 360.083805 
L 193.775207 359.6875 
L 187.626446 359.366212 
L 181.477686 359.107841 
L 175.328926 358.901723 
L 169.180165 358.738587 
L 163.031405 358.610479 
L 156.882645 358.510656 
L 150.733884 358.433471 
L 144.585124 358.374243 
L 138.436364 358.32914 
z
" style="fill:#ff7f0e;fill-opacity:0.5;"/>
   </g>
   <g id="PolyCollection_3">
    <path clip-path="url(#pecd8331915)" d="M 138.436364 176.499584 
L 138.436364 177 
L 144.585124 177 
L 150.733884 177 
L 156.882645 177 
L 163.031405 177 
L 169.180165 177 
L 175.328926 177 
L 181.477686 177 
L 187.626446 177 
L 193.775207 177 
L 199.923967 177 
L 206.072727 177 
L 212.221488 177 
L 218.370248 177 
L 224.519008 177 
L 230.667769 177 
L 236.816529 177 
L 242.965289 177 
L 249.11405 177 
L 255.26281 177 
L 261.41157 177 
L 267.560331 177 
L 273.709091 177 
L 279.857851 177 
L 286.006612 177 
L 292.155372 177 
L 298.304132 177 
L 304.452893 177 
L 310.601653 177 
L 316.750413 177 
L 322.899174 177 
L 329.047934 177 
L 335.196694 177 
L 341.345455 177 
L 347.494215 177 
L 353.642975 177 
L 359.791736 177 
L 365.940496 177 
L 372.089256 177 
L 378.238017 177 
L 384.386777 177 
L 390.535537 177 
L 396.684298 177 
L 402.833058 177 
L 408.981818 177 
L 415.130579 177 
L 421.279339 177 
L 427.428099 177 
L 433.57686 177 
L 439.72562 177 
L 445.87438 177 
L 452.02314 177 
L 458.171901 177 
L 464.320661 177 
L 470.469421 177 
L 476.618182 177 
L 482.766942 177 
L 488.915702 177 
L 495.064463 177 
L 501.213223 177 
L 507.361983 177 
L 513.510744 177 
L 519.659504 177 
L 525.808264 177 
L 531.957025 177 
L 538.105785 177 
L 544.254545 177 
L 550.403306 177 
L 556.552066 177 
L 562.700826 177 
L 568.849587 177 
L 574.998347 177 
L 581.147107 177 
L 587.295868 177 
L 593.444628 177 
L 599.593388 177 
L 605.742149 177 
L 611.890909 177 
L 618.039669 177 
L 624.18843 177 
L 630.33719 177 
L 636.48595 177 
L 642.634711 177 
L 648.783471 177 
L 654.932231 177 
L 661.080992 177 
L 667.229752 177 
L 673.378512 177 
L 679.527273 177 
L 685.676033 177 
L 691.824793 177 
L 697.973554 177 
L 704.122314 177 
L 710.271074 177 
L 716.419835 177 
L 722.568595 177 
L 728.717355 177 
L 734.866116 177 
L 741.014876 177 
L 747.163636 177 
L 747.163636 176.499584 
L 747.163636 176.499584 
L 741.014876 176.339336 
L 734.866116 176.134262 
L 728.717355 175.874023 
L 722.568595 175.546585 
L 716.419835 175.138151 
L 710.271074 174.633153 
L 704.122314 174.014334 
L 697.973554 173.262945 
L 691.824793 172.359074 
L 685.676033 171.282137 
L 679.527273 170.01155 
L 673.378512 168.5276 
L 667.229752 166.812507 
L 661.080992 164.851693 
L 654.932231 162.635218 
L 648.783471 160.159357 
L 642.634711 157.42826 
L 636.48595 154.455618 
L 630.33719 151.266242 
L 624.18843 147.897445 
L 618.039669 144.400099 
L 611.890909 140.83924 
L 605.742149 137.294091 
L 599.593388 133.857385 
L 593.444628 130.633885 
L 587.295868 127.738044 
L 581.147107 125.290776 
L 574.998347 123.415376 
L 568.849587 122.232667 
L 562.700826 121.855543 
L 556.552066 122.383113 
L 550.403306 123.894717 
L 544.254545 126.444138 
L 538.105785 130.054359 
L 531.957025 134.713212 
L 525.808264 140.370274 
L 519.659504 146.93531 
L 513.510744 154.278504 
L 507.361983 162.232625 
L 501.213223 170.59719 
L 495.064463 179.144534 
L 488.915702 187.627606 
L 482.766942 195.789177 
L 476.618182 203.372027 
L 470.469421 210.129637 
L 464.320661 215.836801 
L 458.171901 220.299597 
L 452.02314 223.364164 
L 445.87438 224.923769 
L 439.72562 224.923769 
L 433.57686 223.364164 
L 427.428099 220.299597 
L 421.279339 215.836801 
L 415.130579 210.129637 
L 408.981818 203.372027 
L 402.833058 195.789177 
L 396.684298 187.627606 
L 390.535537 179.144534 
L 384.386777 170.59719 
L 378.238017 162.232625 
L 372.089256 154.278504 
L 365.940496 146.93531 
L 359.791736 140.370274 
L 353.642975 134.713212 
L 347.494215 130.054359 
L 341.345455 126.444138 
L 335.196694 123.894717 
L 329.047934 122.383113 
L 322.899174 121.855543 
L 316.750413 122.232667 
L 310.601653 123.415376 
L 304.452893 125.290776 
L 298.304132 127.738044 
L 292.155372 130.633885 
L 286.006612 133.857385 
L 279.857851 137.294091 
L 273.709091 140.83924 
L 267.560331 144.400099 
L 261.41157 147.897445 
L 255.26281 151.266242 
L 249.11405 154.455618 
L 242.965289 157.42826 
L 236.816529 160.159357 
L 230.667769 162.635218 
L 224.519008 164.851693 
L 218.370248 166.812507 
L 212.221488 168.5276 
L 206.072727 170.01155 
L 199.923967 171.282137 
L 193.775207 172.359074 
L 187.626446 173.262945 
L 181.477686 174.014334 
L 175.328926 174.633153 
L 169.180165 175.138151 
L 163.031405 175.546585 
L 156.882645 175.874023 
L 150.733884 176.134262 
L 144.585124 176.339336 
L 138.436364 176.499584 
z
" style="fill:#2ca02c;fill-opacity:0.5;"/>
   </g>
   <g id="matplotlib.axis_1">
    <g id="xtick_1">
     <g id="line2d_1">
      <defs>
       <path d="M 0 0 
L 0 10 
" id="m2f8332d477" style="stroke:#000000;stroke-width:1.5;"/>
      </defs>
      <g>
       <use style="stroke:#000000;stroke-width:1.5;" x="138.436364" xlink:href="#m2f8332d477" y="630"/>
      </g>
     </g>
    </g>
    <g id="xtick_2">
     <g id="line2d_2">
      <g>
       <use style="stroke:#000000;stroke-width:1.5;" x="214.527273" xlink:href="#m2f8332d477" y="630"/>
      </g>
     </g>
    </g>
    <g id="xtick_3">
     <g id="line2d_3">
      <g>
       <use style="stroke:#000000;stroke-width:1.5;" x="290.618182" xlink:href="#m2f8332d477" y="630"/>
      </g>
     </g>
    </g>
    <g id="xtick_4">
     <g id="line2d_4">
      <g>
       <use style="stroke:#000000;stroke-width:1.5;" x="366.709091" xlink:href="#m2f8332d477" y="630"/>
      </g>
     </g>
    </g>
    <g id="xtick_5">
     <g id="line2d_5">
      <g>
       <use style="stroke:#000000;stroke-width:1.5;" x="442.8" xlink:href="#m2f8332d477" y="630"/>
      </g>
     </g>
    </g>
    <g id="xtick_6">
     <g id="line2d_6">
      <g>
       <use style="stroke:#000000;stroke-width:1.5;" x="518.890909" xlink:href="#m2f8332d477" y="630"/>
      </g>
     </g>
    </g>
    <g id="xtick_7">
     <g id="line2d_7">
      <g>
       <use style="stroke:#000000;stroke-width:1.5;" x="594.981818" xlink:href="#m2f8332d477" y="630"/>
      </g>
     </g>
    </g>
    <g id="xtick_8">
     <g id="line2d_8">
      <g>
       <use style="stroke:#000000;stroke-width:1.5;" x="671.072727" xlink:href="#m2f8332d477" y="630"/>
      </g>
     </g>
    </g>
    <g id="xtick_9">
     <g id="line2d_9">
      <g>
       <use style="stroke:#000000;stroke-width:1.5;" x="747.163636" xlink:href="#m2f8332d477" y="630"/>
      </g>
     </g>
    </g>
    <g id="text_1">
     <!-- X ($\sqrt{\hbar/m\omega_0}$) -->
     <g transform="translate(382.1 669.740625)scale(0.2 -0.2)">
      <defs>
       <path d="M 6.296875 72.90625 
L 16.890625 72.90625 
L 35.015625 45.796875 
L 53.21875 72.90625 
L 63.8125 72.90625 
L 40.375 37.890625 
L 65.375 0 
L 54.78125 0 
L 34.28125 31 
L 13.625 0 
L 2.984375 0 
L 29 38.921875 
z
" id="DejaVuSans-88"/>
       <path id="DejaVuSans-32"/>
       <path d="M 31 75.875 
Q 24.46875 64.65625 21.28125 53.65625 
Q 18.109375 42.671875 18.109375 31.390625 
Q 18.109375 20.125 21.3125 9.0625 
Q 24.515625 -2 31 -13.1875 
L 23.1875 -13.1875 
Q 15.875 -1.703125 12.234375 9.375 
Q 8.59375 20.453125 8.59375 31.390625 
Q 8.59375 42.28125 12.203125 53.3125 
Q 15.828125 64.359375 23.1875 75.875 
z
" id="DejaVuSans-40"/>
       <path d="M 108.90625 155.203125 
L 52.703125 -29.5 
L 48.5 -29.5 
L 25.40625 45.59375 
Q 24.296875 49.203125 22.890625 50.796875 
Q 21.5 52.40625 19.203125 52.40625 
Q 15.796875 52.40625 12.40625 49.703125 
L 11.203125 51.703125 
L 27.59375 64.296875 
L 30.09375 64.296875 
L 52.796875 -9.40625 
L 53.203125 -9.40625 
L 103.203125 155.203125 
z
" id="STIXSizeOneSym-Regular-8730"/>
       <path d="M 56.78125 33.015625 
L 50.390625 0 
L 41.40625 0 
L 47.75 32.71875 
Q 48.34375 35.796875 48.34375 38.28125 
Q 48.34375 42 46.96875 44.34375 
Q 44.734375 48.1875 38.671875 48.1875 
Q 31.390625 48.1875 26.265625 43.5625 
Q 21.1875 38.921875 19.625 30.90625 
L 13.625 0 
L 4.59375 0 
L 16.65625 62.015625 
L 10.546875 62.015625 
L 12.109375 70.015625 
L 18.21875 70.015625 
L 19.34375 75.984375 
L 28.375 75.984375 
L 27.25 70.015625 
L 44.4375 70.015625 
L 42.875 62.015625 
L 25.6875 62.015625 
L 22.609375 46.1875 
Q 26.765625 51.125 31.640625 53.5625 
Q 36.421875 56 42.1875 56 
Q 51.5625 56 55.28125 50.203125 
Q 57.625 46.484375 57.625 40.71875 
Q 57.625 37.203125 56.78125 33.015625 
z
" id="DejaVuSans-Oblique-295"/>
       <path d="M 25.390625 72.90625 
L 33.6875 72.90625 
L 8.296875 -9.28125 
L 0 -9.28125 
z
" id="DejaVuSans-47"/>
       <path d="M 89.796875 33.015625 
L 83.40625 0 
L 74.421875 0 
L 80.71875 32.71875 
Q 81.109375 34.8125 81.296875 36.328125 
Q 81.5 37.84375 81.5 38.921875 
Q 81.5 43.3125 79.046875 45.75 
Q 76.609375 48.1875 72.21875 48.1875 
Q 65.671875 48.1875 60.546875 43.28125 
Q 55.421875 38.375 53.90625 30.515625 
L 47.90625 0 
L 38.921875 0 
L 45.3125 32.71875 
Q 45.703125 34.515625 45.890625 36.046875 
Q 46.09375 37.59375 46.09375 38.8125 
Q 46.09375 43.265625 43.65625 45.71875 
Q 41.21875 48.1875 36.921875 48.1875 
Q 30.28125 48.1875 25.140625 43.28125 
Q 20.015625 38.375 18.5 30.515625 
L 12.5 0 
L 3.515625 0 
L 14.203125 54.6875 
L 23.1875 54.6875 
L 21.484375 46.1875 
Q 25.140625 50.984375 30.046875 53.484375 
Q 34.96875 56 40.578125 56 
Q 46.53125 56 50.359375 52.875 
Q 54.203125 49.75 54.984375 44.1875 
Q 59.078125 49.953125 64.46875 52.96875 
Q 69.875 56 75.875 56 
Q 82.90625 56 86.734375 51.953125 
Q 90.578125 47.90625 90.578125 40.484375 
Q 90.578125 38.875 90.375 36.9375 
Q 90.1875 35.015625 89.796875 33.015625 
z
" id="DejaVuSans-Oblique-109"/>
       <path d="M 21.390625 -1.421875 
Q 1.125 -1.421875 6.78125 27.59375 
Q 8.984375 39.0625 19.625 54.6875 
L 29.296875 54.6875 
Q 19.234375 39.0625 17 27.34375 
Q 12.796875 6.203125 23.734375 6.203125 
Q 33.84375 6.203125 38.71875 32.46875 
L 47.015625 32.46875 
Q 41.703125 6.0625 51.8125 6.203125 
Q 62.703125 6.296875 66.796875 27.34375 
Q 69.046875 39.0625 65.140625 54.6875 
L 74.8125 54.6875 
Q 79.296875 39.0625 77.09375 27.59375 
Q 71.53125 -1.46875 51.21875 -1.421875 
Q 37.9375 -1.375 39.109375 13.1875 
Q 34.28125 -1.421875 21.390625 -1.421875 
z
" id="DejaVuSans-Oblique-969"/>
       <path d="M 31.78125 66.40625 
Q 24.171875 66.40625 20.328125 58.90625 
Q 16.5 51.421875 16.5 36.375 
Q 16.5 21.390625 20.328125 13.890625 
Q 24.171875 6.390625 31.78125 6.390625 
Q 39.453125 6.390625 43.28125 13.890625 
Q 47.125 21.390625 47.125 36.375 
Q 47.125 51.421875 43.28125 58.90625 
Q 39.453125 66.40625 31.78125 66.40625 
z
M 31.78125 74.21875 
Q 44.046875 74.21875 50.515625 64.515625 
Q 56.984375 54.828125 56.984375 36.375 
Q 56.984375 17.96875 50.515625 8.265625 
Q 44.046875 -1.421875 31.78125 -1.421875 
Q 19.53125 -1.421875 13.0625 8.265625 
Q 6.59375 17.96875 6.59375 36.375 
Q 6.59375 54.828125 13.0625 64.515625 
Q 19.53125 74.21875 31.78125 74.21875 
z
" id="DejaVuSans-48"/>
       <path d="M 8.015625 75.875 
L 15.828125 75.875 
Q 23.140625 64.359375 26.78125 53.3125 
Q 30.421875 42.28125 30.421875 31.390625 
Q 30.421875 20.453125 26.78125 9.375 
Q 23.140625 -1.703125 15.828125 -13.1875 
L 8.015625 -13.1875 
Q 14.5 -2 17.703125 9.0625 
Q 20.90625 20.125 20.90625 31.390625 
Q 20.90625 42.671875 17.703125 53.65625 
Q 14.5 64.65625 8.015625 75.875 
z
" id="DejaVuSans-41"/>
      </defs>
      <use transform="translate(0 0.776562)" xlink:href="#DejaVuSans-88"/>
      <use transform="translate(68.505859 0.776562)" xlink:href="#DejaVuSans-32"/>
      <use transform="translate(100.292969 0.776562)" xlink:href="#DejaVuSans-40"/>
      <use transform="translate(139.306641 3.28125)scale(0.674791)" xlink:href="#STIXSizeOneSym-Regular-8730"/>
      <use transform="translate(223.121109 0.765625)" xlink:href="#DejaVuSans-Oblique-295"/>
      <use transform="translate(292.603531 0.765625)" xlink:href="#DejaVuSans-47"/>
      <use transform="translate(326.294937 0.765625)" xlink:href="#DejaVuSans-Oblique-109"/>
      <use transform="translate(423.707047 0.765625)" xlink:href="#DejaVuSans-Oblique-969"/>
      <use transform="translate(507.447281 -15.640625)scale(0.7)" xlink:href="#DejaVuSans-48"/>
      <use transform="translate(567.217789 0.776562)" xlink:href="#DejaVuSans-41"/>
      <path d="M 210.621109 101.5 
L 210.621109 107.75 
L 567.217789 107.75 
L 567.217789 101.5 
L 210.621109 101.5 
z
"/>
     </g>
    </g>
   </g>
   <g id="matplotlib.axis_2">
    <g id="ytick_1">
     <g id="line2d_10">
      <defs>
       <path d="M 0 0 
L -10 0 
" id="mb3d5033939" style="stroke:#000000;stroke-width:1.5;"/>
      </defs>
      <g>
       <use style="stroke:#000000;stroke-width:1.5;" x="442.8" xlink:href="#mb3d5033939" y="630"/>
      </g>
     </g>
    </g>
    <g id="ytick_2">
     <g id="line2d_11">
      <g>
       <use style="stroke:#000000;stroke-width:1.5;" x="442.8" xlink:href="#mb3d5033939" y="539.4"/>
      </g>
     </g>
    </g>
    <g id="ytick_3">
     <g id="line2d_12">
      <g>
       <use style="stroke:#000000;stroke-width:1.5;" x="442.8" xlink:href="#mb3d5033939" y="448.8"/>
      </g>
     </g>
    </g>
    <g id="ytick_4">
     <g id="line2d_13">
      <g>
       <use style="stroke:#000000;stroke-width:1.5;" x="442.8" xlink:href="#mb3d5033939" y="358.2"/>
      </g>
     </g>
    </g>
    <g id="ytick_5">
     <g id="line2d_14">
      <g>
       <use style="stroke:#000000;stroke-width:1.5;" x="442.8" xlink:href="#mb3d5033939" y="267.6"/>
      </g>
     </g>
    </g>
    <g id="ytick_6">
     <g id="line2d_15">
      <g>
       <use style="stroke:#000000;stroke-width:1.5;" x="442.8" xlink:href="#mb3d5033939" y="177"/>
      </g>
     </g>
    </g>
    <g id="ytick_7">
     <g id="line2d_16">
      <g>
       <use style="stroke:#000000;stroke-width:1.5;" x="442.8" xlink:href="#mb3d5033939" y="86.4"/>
      </g>
     </g>
    </g>
    <g id="text_2">
     <!-- $E/\hbar\omega_0$ -->
     <g transform="translate(421.900625 116.2)rotate(-90)scale(0.2 -0.2)">
      <defs>
       <path d="M 16.890625 72.90625 
L 62.984375 72.90625 
L 61.375 64.59375 
L 25.09375 64.59375 
L 20.90625 43.015625 
L 55.71875 43.015625 
L 54.109375 34.71875 
L 19.28125 34.71875 
L 14.203125 8.296875 
L 51.3125 8.296875 
L 49.703125 0 
L 2.6875 0 
z
" id="DejaVuSans-Oblique-69"/>
      </defs>
      <use transform="translate(0 0.015625)" xlink:href="#DejaVuSans-Oblique-69"/>
      <use transform="translate(63.183594 0.015625)" xlink:href="#DejaVuSans-47"/>
      <use transform="translate(96.875 0.015625)" xlink:href="#DejaVuSans-Oblique-295"/>
      <use transform="translate(166.357422 0.015625)" xlink:href="#DejaVuSans-Oblique-969"/>
      <use transform="translate(250.097656 -16.390625)scale(0.7)" xlink:href="#DejaVuSans-48"/>
     </g>
    </g>
   </g>
   <g id="LineCollection_1">
    <path clip-path="url(#pecd8331915)" d="M 138.436364 539.4 
L 747.163636 539.4 
" style="fill:none;stroke:#000000;stroke-dasharray:1.5,2.475;stroke-dashoffset:0;stroke-width:1.5;"/>
   </g>
   <g id="LineCollection_2">
    <path clip-path="url(#pecd8331915)" d="M 138.436364 358.2 
L 747.163636 358.2 
" style="fill:none;stroke:#000000;stroke-dasharray:1.5,2.475;stroke-dashoffset:0;stroke-width:1.5;"/>
   </g>
   <g id="LineCollection_3">
    <path clip-path="url(#pecd8331915)" d="M 138.436364 177 
L 747.163636 177 
" style="fill:none;stroke:#000000;stroke-dasharray:1.5,2.475;stroke-dashoffset:0;stroke-width:1.5;"/>
   </g>
   <g id="line2d_17">
    <path clip-path="url(#pecd8331915)" d="M 138.436364 539.377171 
L 144.585124 539.368563 
L 150.733884 539.35699 
L 156.882645 539.34154 
L 163.031405 539.321058 
L 169.180165 539.294093 
L 175.328926 539.258842 
L 181.477686 539.213082 
L 187.626446 539.154099 
L 193.775207 539.07861 
L 199.923967 538.98268 
L 206.072727 538.861644 
L 212.221488 538.710023 
L 218.370248 538.521455 
L 224.519008 538.288634 
L 230.667769 538.003265 
L 236.816529 537.656044 
L 242.965289 537.23668 
L 249.11405 536.733938 
L 255.26281 536.135748 
L 261.41157 535.429353 
L 267.560331 534.601528 
L 273.709091 533.638857 
L 279.857851 532.528074 
L 286.006612 531.256475 
L 292.155372 529.812389 
L 298.304132 528.185692 
L 304.452893 526.368374 
L 310.601653 524.355116 
L 316.750413 522.14388 
L 322.899174 519.736468 
L 329.047934 517.139034 
L 335.196694 514.362523 
L 341.345455 511.422997 
L 347.494215 508.341827 
L 353.642975 505.145732 
L 359.791736 501.866629 
L 365.940496 498.541302 
L 372.089256 495.21086 
L 378.238017 491.920005 
L 384.386777 488.716119 
L 390.535537 485.648184 
L 396.684298 482.765575 
L 402.833058 480.11676 
L 408.981818 477.747961 
L 415.130579 475.701817 
L 421.279339 474.016115 
L 427.428099 472.722627 
L 433.57686 471.846117 
L 439.72562 471.40355 
L 445.87438 471.40355 
L 452.02314 471.846117 
L 458.171901 472.722627 
L 464.320661 474.016115 
L 470.469421 475.701817 
L 476.618182 477.747961 
L 482.766942 480.11676 
L 488.915702 482.765575 
L 495.064463 485.648184 
L 501.213223 488.716119 
L 507.361983 491.920005 
L 513.510744 495.21086 
L 519.659504 498.541302 
L 525.808264 501.866629 
L 531.957025 505.145732 
L 538.105785 508.341827 
L 544.254545 511.422997 
L 550.403306 514.362523 
L 556.552066 517.139034 
L 562.700826 519.736468 
L 568.849587 522.14388 
L 574.998347 524.355116 
L 581.147107 526.368374 
L 587.295868 528.185692 
L 593.444628 529.812389 
L 599.593388 531.256475 
L 605.742149 532.528074 
L 611.890909 533.638857 
L 618.039669 534.601528 
L 624.18843 535.429353 
L 630.33719 536.135748 
L 636.48595 536.733938 
L 642.634711 537.23668 
L 648.783471 537.656044 
L 654.932231 538.003265 
L 661.080992 538.288634 
L 667.229752 538.521455 
L 673.378512 538.710023 
L 679.527273 538.861644 
L 685.676033 538.98268 
L 691.824793 539.07861 
L 697.973554 539.154099 
L 704.122314 539.213082 
L 710.271074 539.258842 
L 716.419835 539.294093 
L 722.568595 539.321058 
L 728.717355 539.34154 
L 734.866116 539.35699 
L 741.014876 539.368563 
L 747.163636 539.377171 
" style="fill:none;stroke:#1f77b4;stroke-linecap:square;stroke-width:1.5;"/>
   </g>
   <g id="line2d_18">
    <path clip-path="url(#pecd8331915)" d="M 138.436364 358.32914 
L 144.585124 358.374243 
L 150.733884 358.433471 
L 156.882645 358.510656 
L 163.031405 358.610479 
L 169.180165 358.738587 
L 175.328926 358.901723 
L 181.477686 359.107841 
L 187.626446 359.366212 
L 193.775207 359.6875 
L 199.923967 360.083805 
L 206.072727 360.568647 
L 212.221488 361.156895 
L 218.370248 361.8646 
L 224.519008 362.708739 
L 230.667769 363.706847 
L 236.816529 364.876518 
L 242.965289 366.234778 
L 249.11405 367.797332 
L 255.26281 369.577669 
L 261.41157 371.586069 
L 267.560331 373.82851 
L 273.709091 376.305527 
L 279.857851 379.011058 
L 286.006612 381.931346 
L 292.155372 385.043941 
L 298.304132 388.316889 
L 304.452893 391.708186 
L 310.601653 395.165543 
L 316.750413 398.626561 
L 322.899174 402.019351 
L 329.047934 405.263641 
L 335.196694 408.272399 
L 341.345455 410.953943 
L 347.494215 413.214528 
L 353.642975 414.96132 
L 359.791736 416.105675 
L 365.940496 416.56659 
L 372.089256 416.274193 
L 378.238017 415.173088 
L 384.386777 413.225406 
L 390.535537 410.413386 
L 396.684298 406.741316 
L 402.833058 402.236732 
L 408.981818 396.950733 
L 415.130579 390.957394 
L 421.279339 384.35222 
L 427.428099 377.249706 
L 433.57686 369.780075 
L 439.72562 362.085313 
L 445.87438 354.314687 
L 452.02314 346.619925 
L 458.171901 339.150294 
L 464.320661 332.04778 
L 470.469421 325.442606 
L 476.618182 319.449267 
L 482.766942 314.163268 
L 488.915702 309.658684 
L 495.064463 305.986614 
L 501.213223 303.174594 
L 507.361983 301.226912 
L 513.510744 300.125807 
L 519.659504 299.83341 
L 525.808264 300.294325 
L 531.957025 301.43868 
L 538.105785 303.185472 
L 544.254545 305.446057 
L 550.403306 308.127601 
L 556.552066 311.136359 
L 562.700826 314.380649 
L 568.849587 317.773439 
L 574.998347 321.234457 
L 581.147107 324.691814 
L 587.295868 328.083111 
L 593.444628 331.356059 
L 599.593388 334.468654 
L 605.742149 337.388942 
L 611.890909 340.094473 
L 618.039669 342.57149 
L 624.18843 344.813931 
L 630.33719 346.822331 
L 636.48595 348.602668 
L 642.634711 350.165222 
L 648.783471 351.523482 
L 654.932231 352.693153 
L 661.080992 353.691261 
L 667.229752 354.5354 
L 673.378512 355.243105 
L 679.527273 355.831353 
L 685.676033 356.316195 
L 691.824793 356.7125 
L 697.973554 357.033788 
L 704.122314 357.292159 
L 710.271074 357.498277 
L 716.419835 357.661413 
L 722.568595 357.789521 
L 728.717355 357.889344 
L 734.866116 357.966529 
L 741.014876 358.025757 
L 747.163636 358.07086 
" style="fill:none;stroke:#ff7f0e;stroke-linecap:square;stroke-width:1.5;"/>
   </g>
   <g id="line2d_19">
    <path clip-path="url(#pecd8331915)" d="M 138.436364 176.499584 
L 144.585124 176.339336 
L 150.733884 176.134262 
L 156.882645 175.874023 
L 163.031405 175.546585 
L 169.180165 175.138151 
L 175.328926 174.633153 
L 181.477686 174.014334 
L 187.626446 173.262945 
L 193.775207 172.359074 
L 199.923967 171.282137 
L 206.072727 170.01155 
L 212.221488 168.5276 
L 218.370248 166.812507 
L 224.519008 164.851693 
L 230.667769 162.635218 
L 236.816529 160.159357 
L 242.965289 157.42826 
L 249.11405 154.455618 
L 255.26281 151.266242 
L 261.41157 147.897445 
L 267.560331 144.400099 
L 273.709091 140.83924 
L 279.857851 137.294091 
L 286.006612 133.857385 
L 292.155372 130.633885 
L 298.304132 127.738044 
L 304.452893 125.290776 
L 310.601653 123.415376 
L 316.750413 122.232667 
L 322.899174 121.855543 
L 329.047934 122.383113 
L 335.196694 123.894717 
L 341.345455 126.444138 
L 347.494215 130.054359 
L 353.642975 134.713212 
L 359.791736 140.370274 
L 365.940496 146.93531 
L 372.089256 154.278504 
L 378.238017 162.232625 
L 384.386777 170.59719 
L 390.535537 179.144534 
L 396.684298 187.627606 
L 402.833058 195.789177 
L 408.981818 203.372027 
L 415.130579 210.129637 
L 421.279339 215.836801 
L 427.428099 220.299597 
L 433.57686 223.364164 
L 439.72562 224.923769 
L 445.87438 224.923769 
L 452.02314 223.364164 
L 458.171901 220.299597 
L 464.320661 215.836801 
L 470.469421 210.129637 
L 476.618182 203.372027 
L 482.766942 195.789177 
L 488.915702 187.627606 
L 495.064463 179.144534 
L 501.213223 170.59719 
L 507.361983 162.232625 
L 513.510744 154.278504 
L 519.659504 146.93531 
L 525.808264 140.370274 
L 531.957025 134.713212 
L 538.105785 130.054359 
L 544.254545 126.444138 
L 550.403306 123.894717 
L 556.552066 122.383113 
L 562.700826 121.855543 
L 568.849587 122.232667 
L 574.998347 123.415376 
L 581.147107 125.290776 
L 587.295868 127.738044 
L 593.444628 130.633885 
L 599.593388 133.857385 
L 605.742149 137.294091 
L 611.890909 140.83924 
L 618.039669 144.400099 
L 624.18843 147.897445 
L 630.33719 151.266242 
L 636.48595 154.455618 
L 642.634711 157.42826 
L 648.783471 160.159357 
L 654.932231 162.635218 
L 661.080992 164.851693 
L 667.229752 166.812507 
L 673.378512 168.5276 
L 679.527273 170.01155 
L 685.676033 171.282137 
L 691.824793 172.359074 
L 697.973554 173.262945 
L 704.122314 174.014334 
L 710.271074 174.633153 
L 716.419835 175.138151 
L 722.568595 175.546585 
L 728.717355 175.874023 
L 734.866116 176.134262 
L 741.014876 176.339336 
L 747.163636 176.499584 
" style="fill:none;stroke:#2ca02c;stroke-linecap:square;stroke-width:1.5;"/>
   </g>
   <g id="line2d_20">
    <path clip-path="url(#pecd8331915)" d="M 242.00334 -1 
L 242.965289 5.108662 
L 249.11405 42.971901 
L 255.26281 79.651913 
L 261.41157 115.148699 
L 267.560331 149.462259 
L 273.709091 182.592593 
L 279.857851 214.5397 
L 286.006612 245.303581 
L 292.155372 274.884236 
L 298.304132 303.281665 
L 304.452893 330.495868 
L 310.601653 356.526844 
L 316.750413 381.374594 
L 322.899174 405.039118 
L 329.047934 427.520416 
L 335.196694 448.818488 
L 341.345455 468.933333 
L 347.494215 487.864953 
L 353.642975 505.613346 
L 359.791736 522.178512 
L 365.940496 537.560453 
L 372.089256 551.759167 
L 378.238017 564.774656 
L 384.386777 576.606918 
L 390.535537 587.255953 
L 396.684298 596.721763 
L 402.833058 605.004346 
L 408.981818 612.103704 
L 415.130579 618.019835 
L 421.279339 622.75274 
L 427.428099 626.302418 
L 433.57686 628.668871 
L 439.72562 629.852097 
L 445.87438 629.852097 
L 452.02314 628.668871 
L 458.171901 626.302418 
L 464.320661 622.75274 
L 470.469421 618.019835 
L 476.618182 612.103704 
L 482.766942 605.004346 
L 488.915702 596.721763 
L 495.064463 587.255953 
L 501.213223 576.606918 
L 507.361983 564.774656 
L 513.510744 551.759167 
L 519.659504 537.560453 
L 525.808264 522.178512 
L 531.957025 505.613346 
L 538.105785 487.864953 
L 544.254545 468.933333 
L 550.403306 448.818488 
L 556.552066 427.520416 
L 562.700826 405.039118 
L 568.849587 381.374594 
L 574.998347 356.526844 
L 581.147107 330.495868 
L 587.295868 303.281665 
L 593.444628 274.884236 
L 599.593388 245.303581 
L 605.742149 214.5397 
L 611.890909 182.592593 
L 618.039669 149.462259 
L 624.18843 115.148699 
L 630.33719 79.651913 
L 636.48595 42.971901 
L 642.634711 5.108662 
L 643.59666 -1 
" style="fill:none;stroke:#000000;stroke-linecap:square;stroke-width:5;"/>
   </g>
   <g id="patch_3">
    <path d="M 442.8 630 
L 442.8 86.4 
" style="fill:none;stroke:#000000;stroke-linecap:square;stroke-linejoin:miter;stroke-width:2.5;"/>
   </g>
   <g id="patch_4">
    <path d="M 777.6 630 
L 777.6 86.4 
" style="fill:none;"/>
   </g>
   <g id="patch_5">
    <path d="M 108 630 
L 777.6 630 
" style="fill:none;stroke:#000000;stroke-linecap:square;stroke-linejoin:miter;stroke-width:2.5;"/>
   </g>
   <g id="patch_6">
    <path d="M 108 86.4 
L 777.6 86.4 
" style="fill:none;"/>
   </g>
   <g id="text_3">
    <!-- $\psi_ 0 (x)$ -->
    <g transform="translate(727.083636 521.28)scale(0.16 -0.16)">
     <defs>
      <path d="M 24.859375 -1.21875 
Q 13.921875 0.59375 9.625 5.328125 
Q 4.34375 11.140625 6.640625 23 
L 12.796875 54.6875 
L 21.875 54.6875 
L 15.765625 23.34375 
Q 14.0625 14.40625 17.484375 10.6875 
Q 20.515625 7.46875 26.421875 6.78125 
L 35.6875 54.6875 
L 44.625 54.6875 
L 35.359375 6.84375 
Q 41.890625 7.515625 45.75 10.75 
Q 50.734375 14.84375 52.390625 23.390625 
L 58.453125 54.6875 
L 67.53125 54.6875 
L 61.375 23.046875 
Q 58.984375 10.75 51.5625 5.375 
Q 44.875 0.53125 33.796875 -1.171875 
L 29.984375 -20.796875 
L 21.046875 -20.796875 
z
" id="DejaVuSans-Oblique-968"/>
      <path d="M 60.015625 54.6875 
L 34.90625 27.875 
L 50.296875 0 
L 39.984375 0 
L 28.421875 21.6875 
L 8.296875 0 
L -2.59375 0 
L 24.3125 28.8125 
L 10.015625 54.6875 
L 20.3125 54.6875 
L 30.8125 34.90625 
L 49.125 54.6875 
z
" id="DejaVuSans-Oblique-120"/>
     </defs>
     <use transform="translate(0 0.125)" xlink:href="#DejaVuSans-Oblique-968"/>
     <use transform="translate(65.966797 -16.28125)scale(0.7)" xlink:href="#DejaVuSans-48"/>
     <use transform="translate(113.237305 0.125)" xlink:href="#DejaVuSans-40"/>
     <use transform="translate(152.250977 0.125)" xlink:href="#DejaVuSans-Oblique-120"/>
     <use transform="translate(211.430664 0.125)" xlink:href="#DejaVuSans-41"/>
    </g>
   </g>
   <g id="text_4">
    <!-- $E_ 0$ -->
    <g transform="translate(452.942727 530.34)scale(0.16 -0.16)">
     <use transform="translate(0 0.09375)" xlink:href="#DejaVuSans-Oblique-69"/>
     <use transform="translate(63.183594 -16.3125)scale(0.7)" xlink:href="#DejaVuSans-48"/>
    </g>
   </g>
   <g id="text_5">
    <!-- $\frac{\hbar\omega_0}{2}$ -->
    <g transform="translate(141.414545 593.76)scale(0.16 -0.16)">
     <defs>
      <path d="M 19.1875 8.296875 
L 53.609375 8.296875 
L 53.609375 0 
L 7.328125 0 
L 7.328125 8.296875 
Q 12.9375 14.109375 22.625 23.890625 
Q 32.328125 33.6875 34.8125 36.53125 
Q 39.546875 41.84375 41.421875 45.53125 
Q 43.3125 49.21875 43.3125 52.78125 
Q 43.3125 58.59375 39.234375 62.25 
Q 35.15625 65.921875 28.609375 65.921875 
Q 23.96875 65.921875 18.8125 64.3125 
Q 13.671875 62.703125 7.8125 59.421875 
L 7.8125 69.390625 
Q 13.765625 71.78125 18.9375 73 
Q 24.125 74.21875 28.421875 74.21875 
Q 39.75 74.21875 46.484375 68.546875 
Q 53.21875 62.890625 53.21875 53.421875 
Q 53.21875 48.921875 51.53125 44.890625 
Q 49.859375 40.875 45.40625 35.40625 
Q 44.1875 33.984375 37.640625 27.21875 
Q 31.109375 20.453125 19.1875 8.296875 
z
" id="DejaVuSans-50"/>
     </defs>
     <use transform="translate(0 56.810938)scale(0.7)" xlink:href="#DejaVuSans-Oblique-295"/>
     <use transform="translate(48.637695 56.810938)scale(0.7)" xlink:href="#DejaVuSans-Oblique-969"/>
     <use transform="translate(107.255859 45.326562)scale(0.49)" xlink:href="#DejaVuSans-48"/>
     <use transform="translate(48 -38.573281)scale(0.7)" xlink:href="#DejaVuSans-50"/>
     <path d="M 0 19.629844 
L 0 25.879844 
L 140.345215 25.879844 
L 140.345215 19.629844 
L 0 19.629844 
z
"/>
    </g>
   </g>
   <g id="patch_7">
    <path d="M 176.481818 542.517051 
Q 176.481818 584.700422 176.481818 626.883793 
" style="fill:none;stroke:#000000;stroke-linecap:round;"/>
    <path d="M 173.281818 548.917051 
L 176.481818 542.517051 
L 179.681818 548.917051 
" style="fill:none;stroke:#000000;stroke-linecap:round;"/>
    <path d="M 179.681818 620.483793 
L 176.481818 626.883793 
L 173.281818 620.483793 
" style="fill:none;stroke:#000000;stroke-linecap:round;"/>
   </g>
   <g id="text_6">
    <!-- $\psi_ 1 (x)$ -->
    <g transform="translate(727.083636 340.08)scale(0.16 -0.16)">
     <defs>
      <path d="M 12.40625 8.296875 
L 28.515625 8.296875 
L 28.515625 63.921875 
L 10.984375 60.40625 
L 10.984375 69.390625 
L 28.421875 72.90625 
L 38.28125 72.90625 
L 38.28125 8.296875 
L 54.390625 8.296875 
L 54.390625 0 
L 12.40625 0 
z
" id="DejaVuSans-49"/>
     </defs>
     <use transform="translate(0 0.125)" xlink:href="#DejaVuSans-Oblique-968"/>
     <use transform="translate(65.966797 -16.28125)scale(0.7)" xlink:href="#DejaVuSans-49"/>
     <use transform="translate(113.237305 0.125)" xlink:href="#DejaVuSans-40"/>
     <use transform="translate(152.250977 0.125)" xlink:href="#DejaVuSans-Oblique-120"/>
     <use transform="translate(211.430664 0.125)" xlink:href="#DejaVuSans-41"/>
    </g>
   </g>
   <g id="text_7">
    <!-- $E_ 1$ -->
    <g transform="translate(452.942727 349.14)scale(0.16 -0.16)">
     <use transform="translate(0 0.09375)" xlink:href="#DejaVuSans-Oblique-69"/>
     <use transform="translate(63.183594 -16.3125)scale(0.7)" xlink:href="#DejaVuSans-49"/>
    </g>
   </g>
   <g id="text_8">
    <!-- $\hbar\omega_0$ -->
    <g transform="translate(137.574545 466.92)scale(0.16 -0.16)">
     <use transform="translate(0 0.015625)" xlink:href="#DejaVuSans-Oblique-295"/>
     <use transform="translate(69.482422 0.015625)" xlink:href="#DejaVuSans-Oblique-969"/>
     <use transform="translate(153.222656 -16.390625)scale(0.7)" xlink:href="#DejaVuSans-48"/>
    </g>
   </g>
   <g id="patch_8">
    <path d="M 176.481818 536.282949 
Q 176.481818 448.799911 176.481818 361.316873 
" style="fill:none;stroke:#000000;stroke-linecap:round;"/>
    <path d="M 179.681818 529.882949 
L 176.481818 536.282949 
L 173.281818 529.882949 
" style="fill:none;stroke:#000000;stroke-linecap:round;"/>
    <path d="M 173.281818 367.716873 
L 176.481818 361.316873 
L 179.681818 367.716873 
" style="fill:none;stroke:#000000;stroke-linecap:round;"/>
   </g>
   <g id="text_9">
    <!-- $\psi_ 2 (x)$ -->
    <g transform="translate(727.083636 158.88)scale(0.16 -0.16)">
     <use transform="translate(0 0.125)" xlink:href="#DejaVuSans-Oblique-968"/>
     <use transform="translate(65.966797 -16.28125)scale(0.7)" xlink:href="#DejaVuSans-50"/>
     <use transform="translate(113.237305 0.125)" xlink:href="#DejaVuSans-40"/>
     <use transform="translate(152.250977 0.125)" xlink:href="#DejaVuSans-Oblique-120"/>
     <use transform="translate(211.430664 0.125)" xlink:href="#DejaVuSans-41"/>
    </g>
   </g>
   <g id="text_10">
    <!-- $E_ 2$ -->
    <g transform="translate(452.942727 167.94)scale(0.16 -0.16)">
     <use transform="translate(0 0.09375)" xlink:href="#DejaVuSans-Oblique-69"/>
     <use transform="translate(63.183594 -16.3125)scale(0.7)" xlink:href="#DejaVuSans-50"/>
    </g>
   </g>
  </g>
 </g>
 <defs>
  <clipPath id="pecd8331915">
   <rect height="543.6" width="669.6" x="108" y="86.4"/>
  </clipPath>
 </defs>
</svg>
