<?xml version="1.0" encoding="utf-8" standalone="no"?>
<!DOCTYPE svg PUBLIC "-//W3C//DTD SVG 1.1//EN"
  "http://www.w3.org/Graphics/SVG/1.1/DTD/svg11.dtd">
<!-- Created with matplotlib (https://matplotlib.org/) -->
<svg height="504pt" version="1.1" viewBox="0 0 720 504" width="720pt" xmlns="http://www.w3.org/2000/svg" xmlns:xlink="http://www.w3.org/1999/xlink">
 <metadata>
  <rdf:RDF xmlns:cc="http://creativecommons.org/ns#" xmlns:dc="http://purl.org/dc/elements/1.1/" xmlns:rdf="http://www.w3.org/1999/02/22-rdf-syntax-ns#">
   <cc:Work>
    <dc:type rdf:resource="http://purl.org/dc/dcmitype/StillImage"/>
    <dc:date>2021-08-10T16:50:21.145992</dc:date>
    <dc:format>image/svg+xml</dc:format>
    <dc:creator>
     <cc:Agent>
      <dc:title>Matplotlib v3.3.2, https://matplotlib.org/</dc:title>
     </cc:Agent>
    </dc:creator>
   </cc:Work>
  </rdf:RDF>
 </metadata>
 <defs>
  <style type="text/css">*{stroke-linecap:butt;stroke-linejoin:round;}</style>
 </defs>
 <g id="figure_1">
  <g id="patch_1">
   <path d="M 0 504 
L 720 504 
L 720 0 
L 0 0 
z
" style="fill:#ffffff;"/>
  </g>
  <g id="axes_1">
   <g id="patch_2">
    <path d="M 90 441 
L 648 441 
L 648 60.48 
L 90 60.48 
z
" style="fill:#ffffff;"/>
   </g>
   <g id="PathCollection_1">
    <defs>
     <path d="M 0 3 
C 0.795609 3 1.55874 2.683901 2.12132 2.12132 
C 2.683901 1.55874 3 0.795609 3 0 
C 3 -0.795609 2.683901 -1.55874 2.12132 -2.12132 
C 1.55874 -2.683901 0.795609 -3 0 -3 
C -0.795609 -3 -1.55874 -2.683901 -2.12132 -2.12132 
C -2.683901 -1.55874 -3 -0.795609 -3 0 
C -3 0.795609 -2.683901 1.55874 -2.12132 2.12132 
C -1.55874 2.683901 -0.795609 3 0 3 
z
" id="m2c3eb496f8" style="stroke:#1f77b4;"/>
    </defs>
    <g clip-path="url(#p04254baf08)">
     <use style="fill:#1f77b4;stroke:#1f77b4;" x="629.817171" xlink:href="#m2c3eb496f8" y="403.448816"/>
     <use style="fill:#1f77b4;stroke:#1f77b4;" x="522.760886" xlink:href="#m2c3eb496f8" y="421.314521"/>
     <use style="fill:#1f77b4;stroke:#1f77b4;" x="409.609114" xlink:href="#m2c3eb496f8" y="433.823069"/>
     <use style="fill:#1f77b4;stroke:#1f77b4;" x="304.877829" xlink:href="#m2c3eb496f8" y="439.236416"/>
     <use style="fill:#1f77b4;stroke:#1f77b4;" x="199.790486" xlink:href="#m2c3eb496f8" y="440.800144"/>
     <use style="fill:#1f77b4;stroke:#1f77b4;" x="124.099114" xlink:href="#m2c3eb496f8" y="440.992657"/>
     <use style="fill:#1f77b4;stroke:#1f77b4;" x="680.948571" xlink:href="#m2c3eb496f8" y="392.29344"/>
     <use style="fill:#1f77b4;stroke:#1f77b4;" x="787.234286" xlink:href="#m2c3eb496f8" y="367.68648"/>
     <use style="fill:#1f77b4;stroke:#1f77b4;" x="843.831429" xlink:href="#m2c3eb496f8" y="354.36828"/>
     <use style="fill:#1f77b4;stroke:#1f77b4;" x="904.148571" xlink:href="#m2c3eb496f8" y="339.78168"/>
     <use style="fill:#1f77b4;stroke:#1f77b4;" x="970.311429" xlink:href="#m2c3eb496f8" y="323.29248"/>
     <use style="fill:#1f77b4;stroke:#1f77b4;" x="1042.585714" xlink:href="#m2c3eb496f8" y="305.40804"/>
     <use style="fill:#1f77b4;stroke:#1f77b4;" x="1187.4" xlink:href="#m2c3eb496f8" y="270.65388"/>
     <use style="fill:#1f77b4;stroke:#1f77b4;" x="1363.302857" xlink:href="#m2c3eb496f8" y="230.95296"/>
     <use style="fill:#1f77b4;stroke:#1f77b4;" x="1471.714286" xlink:href="#m2c3eb496f8" y="208.50228"/>
     <use style="fill:#1f77b4;stroke:#1f77b4;" x="2427.488571" xlink:href="#m2c3eb496f8" y="102.21036"/>
     <use style="fill:#1f77b4;stroke:#1f77b4;" x="2958.917143" xlink:href="#m2c3eb496f8" y="95.9952"/>
     <use style="fill:#1f77b4;stroke:#1f77b4;" x="3432.685714" xlink:href="#m2c3eb496f8" y="88.25796"/>
    </g>
   </g>
   <g id="PathCollection_2">
    <defs>
     <path d="M 0 3 
C 0.795609 3 1.55874 2.683901 2.12132 2.12132 
C 2.683901 1.55874 3 0.795609 3 0 
C 3 -0.795609 2.683901 -1.55874 2.12132 -2.12132 
C 1.55874 -2.683901 0.795609 -3 0 -3 
C -0.795609 -3 -1.55874 -2.683901 -2.12132 -2.12132 
C -2.683901 -1.55874 -3 -0.795609 -3 0 
C -3 0.795609 -2.683901 1.55874 -2.12132 2.12132 
C -1.55874 2.683901 -0.795609 3 0 3 
z
" id="m580d54c210" style="stroke:#ff7f0e;"/>
    </defs>
    <g clip-path="url(#p04254baf08)">
     <use style="fill:#ff7f0e;stroke:#ff7f0e;" x="93.587143" xlink:href="#m580d54c210" y="441"/>
     <use style="fill:#ff7f0e;stroke:#ff7f0e;" x="95.314286" xlink:href="#m580d54c210" y="441"/>
     <use style="fill:#ff7f0e;stroke:#ff7f0e;" x="97.971429" xlink:href="#m580d54c210" y="441"/>
     <use style="fill:#ff7f0e;stroke:#ff7f0e;" x="100.628571" xlink:href="#m580d54c210" y="441"/>
     <use style="fill:#ff7f0e;stroke:#ff7f0e;" x="103.285714" xlink:href="#m580d54c210" y="441"/>
     <use style="fill:#ff7f0e;stroke:#ff7f0e;" x="105.942857" xlink:href="#m580d54c210" y="441"/>
     <use style="fill:#ff7f0e;stroke:#ff7f0e;" x="108.6" xlink:href="#m580d54c210" y="439.902223"/>
     <use style="fill:#ff7f0e;stroke:#ff7f0e;" x="111.257143" xlink:href="#m580d54c210" y="439.359717"/>
     <use style="fill:#ff7f0e;stroke:#ff7f0e;" x="116.571429" xlink:href="#m580d54c210" y="437.796023"/>
     <use style="fill:#ff7f0e;stroke:#ff7f0e;" x="121.885714" xlink:href="#m580d54c210" y="435.447291"/>
     <use style="fill:#ff7f0e;stroke:#ff7f0e;" x="127.2" xlink:href="#m580d54c210" y="432.256079"/>
     <use style="fill:#ff7f0e;stroke:#ff7f0e;" x="132.514286" xlink:href="#m580d54c210" y="427.788382"/>
     <use style="fill:#ff7f0e;stroke:#ff7f0e;" x="143.142857" xlink:href="#m580d54c210" y="415.853249"/>
     <use style="fill:#ff7f0e;stroke:#ff7f0e;" x="165.888" xlink:href="#m580d54c210" y="376.28222"/>
     <use style="fill:#ff7f0e;stroke:#ff7f0e;" x="186.082286" xlink:href="#m580d54c210" y="333.137034"/>
     <use style="fill:#ff7f0e;stroke:#ff7f0e;" x="215.124857" xlink:href="#m580d54c210" y="275.056975"/>
     <use style="fill:#ff7f0e;stroke:#ff7f0e;" x="238.481143" xlink:href="#m580d54c210" y="235.485945"/>
     <use style="fill:#ff7f0e;stroke:#ff7f0e;" x="263.219143" xlink:href="#m580d54c210" y="202.935583"/>
     <use style="fill:#ff7f0e;stroke:#ff7f0e;" x="288.116571" xlink:href="#m580d54c210" y="177.405887"/>
     <use style="fill:#ff7f0e;stroke:#ff7f0e;" x="312.960857" xlink:href="#m580d54c210" y="156.98213"/>
     <use style="fill:#ff7f0e;stroke:#ff7f0e;" x="364.057714" xlink:href="#m580d54c210" y="130.814191"/>
     <use style="fill:#ff7f0e;stroke:#ff7f0e;" x="420.017143" xlink:href="#m580d54c210" y="111.028676"/>
     <use style="fill:#ff7f0e;stroke:#ff7f0e;" x="473.638286" xlink:href="#m580d54c210" y="98.263828"/>
     <use style="fill:#ff7f0e;stroke:#ff7f0e;" x="533.158286" xlink:href="#m580d54c210" y="89.328435"/>
     <use style="fill:#ff7f0e;stroke:#ff7f0e;" x="595.308857" xlink:href="#m580d54c210" y="82.946011"/>
     <use style="fill:#ff7f0e;stroke:#ff7f0e;" x="635.511429" xlink:href="#m580d54c210" y="79.754799"/>
    </g>
   </g>
   <g id="matplotlib.axis_1">
    <g id="xtick_1">
     <g id="line2d_1">
      <defs>
       <path d="M 0 0 
L 0 10 
" id="me7b95256b2" style="stroke:#000000;stroke-width:1.5;"/>
      </defs>
      <g>
       <use style="stroke:#000000;stroke-width:1.5;" x="90" xlink:href="#me7b95256b2" y="441"/>
      </g>
     </g>
     <g id="text_1">
      <!-- 0 -->
      <g transform="translate(84.91 466.6575)scale(0.16 -0.16)">
       <defs>
        <path d="M 31.78125 66.40625 
Q 24.171875 66.40625 20.328125 58.90625 
Q 16.5 51.421875 16.5 36.375 
Q 16.5 21.390625 20.328125 13.890625 
Q 24.171875 6.390625 31.78125 6.390625 
Q 39.453125 6.390625 43.28125 13.890625 
Q 47.125 21.390625 47.125 36.375 
Q 47.125 51.421875 43.28125 58.90625 
Q 39.453125 66.40625 31.78125 66.40625 
z
M 31.78125 74.21875 
Q 44.046875 74.21875 50.515625 64.515625 
Q 56.984375 54.828125 56.984375 36.375 
Q 56.984375 17.96875 50.515625 8.265625 
Q 44.046875 -1.421875 31.78125 -1.421875 
Q 19.53125 -1.421875 13.0625 8.265625 
Q 6.59375 17.96875 6.59375 36.375 
Q 6.59375 54.828125 13.0625 64.515625 
Q 19.53125 74.21875 31.78125 74.21875 
z
" id="DejaVuSans-48"/>
       </defs>
       <use xlink:href="#DejaVuSans-48"/>
      </g>
     </g>
    </g>
    <g id="xtick_2">
     <g id="line2d_2">
      <g>
       <use style="stroke:#000000;stroke-width:1.5;" x="156.428571" xlink:href="#me7b95256b2" y="441"/>
      </g>
     </g>
     <g id="text_2">
      <!-- 25 -->
      <g transform="translate(146.248571 466.6575)scale(0.16 -0.16)">
       <defs>
        <path d="M 19.1875 8.296875 
L 53.609375 8.296875 
L 53.609375 0 
L 7.328125 0 
L 7.328125 8.296875 
Q 12.9375 14.109375 22.625 23.890625 
Q 32.328125 33.6875 34.8125 36.53125 
Q 39.546875 41.84375 41.421875 45.53125 
Q 43.3125 49.21875 43.3125 52.78125 
Q 43.3125 58.59375 39.234375 62.25 
Q 35.15625 65.921875 28.609375 65.921875 
Q 23.96875 65.921875 18.8125 64.3125 
Q 13.671875 62.703125 7.8125 59.421875 
L 7.8125 69.390625 
Q 13.765625 71.78125 18.9375 73 
Q 24.125 74.21875 28.421875 74.21875 
Q 39.75 74.21875 46.484375 68.546875 
Q 53.21875 62.890625 53.21875 53.421875 
Q 53.21875 48.921875 51.53125 44.890625 
Q 49.859375 40.875 45.40625 35.40625 
Q 44.1875 33.984375 37.640625 27.21875 
Q 31.109375 20.453125 19.1875 8.296875 
z
" id="DejaVuSans-50"/>
        <path d="M 10.796875 72.90625 
L 49.515625 72.90625 
L 49.515625 64.59375 
L 19.828125 64.59375 
L 19.828125 46.734375 
Q 21.96875 47.46875 24.109375 47.828125 
Q 26.265625 48.1875 28.421875 48.1875 
Q 40.625 48.1875 47.75 41.5 
Q 54.890625 34.8125 54.890625 23.390625 
Q 54.890625 11.625 47.5625 5.09375 
Q 40.234375 -1.421875 26.90625 -1.421875 
Q 22.3125 -1.421875 17.546875 -0.640625 
Q 12.796875 0.140625 7.71875 1.703125 
L 7.71875 11.625 
Q 12.109375 9.234375 16.796875 8.0625 
Q 21.484375 6.890625 26.703125 6.890625 
Q 35.15625 6.890625 40.078125 11.328125 
Q 45.015625 15.765625 45.015625 23.390625 
Q 45.015625 31 40.078125 35.4375 
Q 35.15625 39.890625 26.703125 39.890625 
Q 22.75 39.890625 18.8125 39.015625 
Q 14.890625 38.140625 10.796875 36.28125 
z
" id="DejaVuSans-53"/>
       </defs>
       <use xlink:href="#DejaVuSans-50"/>
       <use x="63.623047" xlink:href="#DejaVuSans-53"/>
      </g>
     </g>
    </g>
    <g id="xtick_3">
     <g id="line2d_3">
      <g>
       <use style="stroke:#000000;stroke-width:1.5;" x="222.857143" xlink:href="#me7b95256b2" y="441"/>
      </g>
     </g>
     <g id="text_3">
      <!-- 50 -->
      <g transform="translate(212.677143 466.6575)scale(0.16 -0.16)">
       <use xlink:href="#DejaVuSans-53"/>
       <use x="63.623047" xlink:href="#DejaVuSans-48"/>
      </g>
     </g>
    </g>
    <g id="xtick_4">
     <g id="line2d_4">
      <g>
       <use style="stroke:#000000;stroke-width:1.5;" x="289.285714" xlink:href="#me7b95256b2" y="441"/>
      </g>
     </g>
     <g id="text_4">
      <!-- 75 -->
      <g transform="translate(279.105714 466.6575)scale(0.16 -0.16)">
       <defs>
        <path d="M 8.203125 72.90625 
L 55.078125 72.90625 
L 55.078125 68.703125 
L 28.609375 0 
L 18.3125 0 
L 43.21875 64.59375 
L 8.203125 64.59375 
z
" id="DejaVuSans-55"/>
       </defs>
       <use xlink:href="#DejaVuSans-55"/>
       <use x="63.623047" xlink:href="#DejaVuSans-53"/>
      </g>
     </g>
    </g>
    <g id="xtick_5">
     <g id="line2d_5">
      <g>
       <use style="stroke:#000000;stroke-width:1.5;" x="355.714286" xlink:href="#me7b95256b2" y="441"/>
      </g>
     </g>
     <g id="text_5">
      <!-- 100 -->
      <g transform="translate(340.444286 466.6575)scale(0.16 -0.16)">
       <defs>
        <path d="M 12.40625 8.296875 
L 28.515625 8.296875 
L 28.515625 63.921875 
L 10.984375 60.40625 
L 10.984375 69.390625 
L 28.421875 72.90625 
L 38.28125 72.90625 
L 38.28125 8.296875 
L 54.390625 8.296875 
L 54.390625 0 
L 12.40625 0 
z
" id="DejaVuSans-49"/>
       </defs>
       <use xlink:href="#DejaVuSans-49"/>
       <use x="63.623047" xlink:href="#DejaVuSans-48"/>
       <use x="127.246094" xlink:href="#DejaVuSans-48"/>
      </g>
     </g>
    </g>
    <g id="xtick_6">
     <g id="line2d_6">
      <g>
       <use style="stroke:#000000;stroke-width:1.5;" x="422.142857" xlink:href="#me7b95256b2" y="441"/>
      </g>
     </g>
     <g id="text_6">
      <!-- 125 -->
      <g transform="translate(406.872857 466.6575)scale(0.16 -0.16)">
       <use xlink:href="#DejaVuSans-49"/>
       <use x="63.623047" xlink:href="#DejaVuSans-50"/>
       <use x="127.246094" xlink:href="#DejaVuSans-53"/>
      </g>
     </g>
    </g>
    <g id="xtick_7">
     <g id="line2d_7">
      <g>
       <use style="stroke:#000000;stroke-width:1.5;" x="488.571429" xlink:href="#me7b95256b2" y="441"/>
      </g>
     </g>
     <g id="text_7">
      <!-- 150 -->
      <g transform="translate(473.301429 466.6575)scale(0.16 -0.16)">
       <use xlink:href="#DejaVuSans-49"/>
       <use x="63.623047" xlink:href="#DejaVuSans-53"/>
       <use x="127.246094" xlink:href="#DejaVuSans-48"/>
      </g>
     </g>
    </g>
    <g id="xtick_8">
     <g id="line2d_8">
      <g>
       <use style="stroke:#000000;stroke-width:1.5;" x="555" xlink:href="#me7b95256b2" y="441"/>
      </g>
     </g>
     <g id="text_8">
      <!-- 175 -->
      <g transform="translate(539.73 466.6575)scale(0.16 -0.16)">
       <use xlink:href="#DejaVuSans-49"/>
       <use x="63.623047" xlink:href="#DejaVuSans-55"/>
       <use x="127.246094" xlink:href="#DejaVuSans-53"/>
      </g>
     </g>
    </g>
    <g id="xtick_9">
     <g id="line2d_9">
      <g>
       <use style="stroke:#000000;stroke-width:1.5;" x="621.428571" xlink:href="#me7b95256b2" y="441"/>
      </g>
     </g>
     <g id="text_9">
      <!-- 200 -->
      <g transform="translate(606.158571 466.6575)scale(0.16 -0.16)">
       <use xlink:href="#DejaVuSans-50"/>
       <use x="63.623047" xlink:href="#DejaVuSans-48"/>
       <use x="127.246094" xlink:href="#DejaVuSans-48"/>
      </g>
     </g>
    </g>
    <g id="text_10">
     <!-- $T [K]$ -->
     <g transform="translate(352.6 486.1425)scale(0.16 -0.16)">
      <defs>
       <path d="M 5.90625 72.90625 
L 67.578125 72.90625 
L 66.015625 64.59375 
L 39.984375 64.59375 
L 27.484375 0 
L 17.578125 0 
L 30.078125 64.59375 
L 4.296875 64.59375 
z
" id="DejaVuSans-Oblique-84"/>
       <path d="M 8.59375 75.984375 
L 29.296875 75.984375 
L 29.296875 69 
L 17.578125 69 
L 17.578125 -6.203125 
L 29.296875 -6.203125 
L 29.296875 -13.1875 
L 8.59375 -13.1875 
z
" id="DejaVuSans-91"/>
       <path d="M 16.890625 72.90625 
L 26.8125 72.90625 
L 20.796875 42.1875 
L 59.078125 72.90625 
L 72.21875 72.90625 
L 28.90625 38.09375 
L 60.59375 0 
L 48.578125 0 
L 19.484375 35.5 
L 12.59375 0 
L 2.6875 0 
z
" id="DejaVuSans-Oblique-75"/>
       <path d="M 30.421875 75.984375 
L 30.421875 -13.1875 
L 9.71875 -13.1875 
L 9.71875 -6.203125 
L 21.390625 -6.203125 
L 21.390625 69 
L 9.71875 69 
L 9.71875 75.984375 
z
" id="DejaVuSans-93"/>
      </defs>
      <use transform="translate(0 0.015625)" xlink:href="#DejaVuSans-Oblique-84"/>
      <use transform="translate(61.083984 0.015625)" xlink:href="#DejaVuSans-91"/>
      <use transform="translate(100.097656 0.015625)" xlink:href="#DejaVuSans-Oblique-75"/>
      <use transform="translate(165.673828 0.015625)" xlink:href="#DejaVuSans-93"/>
     </g>
    </g>
   </g>
   <g id="matplotlib.axis_2">
    <g id="ytick_1">
     <g id="line2d_10">
      <defs>
       <path d="M 0 0 
L -10 0 
" id="mbaeb2dc014" style="stroke:#000000;stroke-width:1.5;"/>
      </defs>
      <g>
       <use style="stroke:#000000;stroke-width:1.5;" x="90" xlink:href="#mbaeb2dc014" y="441"/>
      </g>
     </g>
     <g id="text_11">
      <!-- 0.0 -->
      <g transform="translate(51.055 447.07875)scale(0.16 -0.16)">
       <defs>
        <path d="M 10.6875 12.40625 
L 21 12.40625 
L 21 0 
L 10.6875 0 
z
" id="DejaVuSans-46"/>
       </defs>
       <use xlink:href="#DejaVuSans-48"/>
       <use x="63.623047" xlink:href="#DejaVuSans-46"/>
       <use x="95.410156" xlink:href="#DejaVuSans-48"/>
      </g>
     </g>
    </g>
    <g id="ytick_2">
     <g id="line2d_11">
      <g>
       <use style="stroke:#000000;stroke-width:1.5;" x="90" xlink:href="#mbaeb2dc014" y="377.58"/>
      </g>
     </g>
     <g id="text_12">
      <!-- 0.5 -->
      <g transform="translate(51.055 383.65875)scale(0.16 -0.16)">
       <use xlink:href="#DejaVuSans-48"/>
       <use x="63.623047" xlink:href="#DejaVuSans-46"/>
       <use x="95.410156" xlink:href="#DejaVuSans-53"/>
      </g>
     </g>
    </g>
    <g id="ytick_3">
     <g id="line2d_12">
      <g>
       <use style="stroke:#000000;stroke-width:1.5;" x="90" xlink:href="#mbaeb2dc014" y="314.16"/>
      </g>
     </g>
     <g id="text_13">
      <!-- 1.0 -->
      <g transform="translate(51.055 320.23875)scale(0.16 -0.16)">
       <use xlink:href="#DejaVuSans-49"/>
       <use x="63.623047" xlink:href="#DejaVuSans-46"/>
       <use x="95.410156" xlink:href="#DejaVuSans-48"/>
      </g>
     </g>
    </g>
    <g id="ytick_4">
     <g id="line2d_13">
      <g>
       <use style="stroke:#000000;stroke-width:1.5;" x="90" xlink:href="#mbaeb2dc014" y="250.74"/>
      </g>
     </g>
     <g id="text_14">
      <!-- 1.5 -->
      <g transform="translate(51.055 256.81875)scale(0.16 -0.16)">
       <use xlink:href="#DejaVuSans-49"/>
       <use x="63.623047" xlink:href="#DejaVuSans-46"/>
       <use x="95.410156" xlink:href="#DejaVuSans-53"/>
      </g>
     </g>
    </g>
    <g id="ytick_5">
     <g id="line2d_14">
      <g>
       <use style="stroke:#000000;stroke-width:1.5;" x="90" xlink:href="#mbaeb2dc014" y="187.32"/>
      </g>
     </g>
     <g id="text_15">
      <!-- 2.0 -->
      <g transform="translate(51.055 193.39875)scale(0.16 -0.16)">
       <use xlink:href="#DejaVuSans-50"/>
       <use x="63.623047" xlink:href="#DejaVuSans-46"/>
       <use x="95.410156" xlink:href="#DejaVuSans-48"/>
      </g>
     </g>
    </g>
    <g id="ytick_6">
     <g id="line2d_15">
      <g>
       <use style="stroke:#000000;stroke-width:1.5;" x="90" xlink:href="#mbaeb2dc014" y="123.9"/>
      </g>
     </g>
     <g id="text_16">
      <!-- 2.5 -->
      <g transform="translate(51.055 129.97875)scale(0.16 -0.16)">
       <use xlink:href="#DejaVuSans-50"/>
       <use x="63.623047" xlink:href="#DejaVuSans-46"/>
       <use x="95.410156" xlink:href="#DejaVuSans-53"/>
      </g>
     </g>
    </g>
    <g id="ytick_7">
     <g id="line2d_16">
      <g>
       <use style="stroke:#000000;stroke-width:1.5;" x="90" xlink:href="#mbaeb2dc014" y="60.48"/>
      </g>
     </g>
     <g id="text_17">
      <!-- 3.0 -->
      <g transform="translate(51.055 66.55875)scale(0.16 -0.16)">
       <defs>
        <path d="M 40.578125 39.3125 
Q 47.65625 37.796875 51.625 33 
Q 55.609375 28.21875 55.609375 21.1875 
Q 55.609375 10.40625 48.1875 4.484375 
Q 40.765625 -1.421875 27.09375 -1.421875 
Q 22.515625 -1.421875 17.65625 -0.515625 
Q 12.796875 0.390625 7.625 2.203125 
L 7.625 11.71875 
Q 11.71875 9.328125 16.59375 8.109375 
Q 21.484375 6.890625 26.8125 6.890625 
Q 36.078125 6.890625 40.9375 10.546875 
Q 45.796875 14.203125 45.796875 21.1875 
Q 45.796875 27.640625 41.28125 31.265625 
Q 36.765625 34.90625 28.71875 34.90625 
L 20.21875 34.90625 
L 20.21875 43.015625 
L 29.109375 43.015625 
Q 36.375 43.015625 40.234375 45.921875 
Q 44.09375 48.828125 44.09375 54.296875 
Q 44.09375 59.90625 40.109375 62.90625 
Q 36.140625 65.921875 28.71875 65.921875 
Q 24.65625 65.921875 20.015625 65.03125 
Q 15.375 64.15625 9.8125 62.3125 
L 9.8125 71.09375 
Q 15.4375 72.65625 20.34375 73.4375 
Q 25.25 74.21875 29.59375 74.21875 
Q 40.828125 74.21875 47.359375 69.109375 
Q 53.90625 64.015625 53.90625 55.328125 
Q 53.90625 49.265625 50.4375 45.09375 
Q 46.96875 40.921875 40.578125 39.3125 
z
" id="DejaVuSans-51"/>
       </defs>
       <use xlink:href="#DejaVuSans-51"/>
       <use x="63.623047" xlink:href="#DejaVuSans-46"/>
       <use x="95.410156" xlink:href="#DejaVuSans-48"/>
      </g>
     </g>
    </g>
    <g id="text_18">
     <!-- $C/k_B$ -->
     <g transform="translate(43.7275 267.78)rotate(-90)scale(0.16 -0.16)">
      <defs>
       <path d="M 69.484375 67.28125 
L 67.484375 56.890625 
Q 62.796875 61.625 57.546875 63.921875 
Q 52.296875 66.21875 46.1875 66.21875 
Q 37.84375 66.21875 31.515625 62.203125 
Q 25.203125 58.203125 20.609375 50 
Q 17.671875 44.734375 16.125 38.84375 
Q 14.59375 32.953125 14.59375 27 
Q 14.59375 17.046875 19.75 11.8125 
Q 24.90625 6.59375 34.71875 6.59375 
Q 41.5 6.59375 47.75 8.765625 
Q 54 10.9375 59.90625 15.28125 
L 57.625 3.609375 
Q 51.8125 1.125 45.875 -0.140625 
Q 39.9375 -1.421875 33.984375 -1.421875 
Q 19.96875 -1.421875 12.078125 6.1875 
Q 4.203125 13.8125 4.203125 27.390625 
Q 4.203125 36.078125 7.203125 44.46875 
Q 10.203125 52.875 15.828125 59.8125 
Q 21.78125 67.1875 29.421875 70.703125 
Q 37.0625 74.21875 47.21875 74.21875 
Q 53.46875 74.21875 59.0625 72.484375 
Q 64.65625 70.75 69.484375 67.28125 
z
" id="DejaVuSans-Oblique-67"/>
       <path d="M 25.390625 72.90625 
L 33.6875 72.90625 
L 8.296875 -9.28125 
L 0 -9.28125 
z
" id="DejaVuSans-47"/>
       <path d="M 18.3125 75.984375 
L 27.296875 75.984375 
L 18.703125 31.6875 
L 49.515625 54.6875 
L 61.1875 54.6875 
L 26.8125 28.515625 
L 51.90625 0 
L 41.015625 0 
L 17.671875 26.703125 
L 12.5 0 
L 3.515625 0 
z
" id="DejaVuSans-Oblique-107"/>
       <path d="M 16.890625 72.90625 
L 42.09375 72.90625 
Q 52.34375 72.90625 57.421875 69.09375 
Q 62.5 65.28125 62.5 57.625 
Q 62.5 50.59375 58.125 45.484375 
Q 53.765625 40.375 46.6875 39.3125 
Q 52.734375 37.9375 55.765625 34.078125 
Q 58.796875 30.21875 58.796875 23.78125 
Q 58.796875 12.796875 50.65625 6.390625 
Q 42.53125 0 28.421875 0 
L 2.6875 0 
z
M 19.28125 34.8125 
L 14.109375 8.109375 
L 29.984375 8.109375 
Q 38.921875 8.109375 43.75 12.203125 
Q 48.578125 16.3125 48.578125 23.78125 
Q 48.578125 29.546875 45.375 32.171875 
Q 42.1875 34.8125 35.109375 34.8125 
z
M 25.09375 64.796875 
L 20.796875 42.828125 
L 35.5 42.828125 
Q 43.359375 42.828125 47.78125 46.234375 
Q 52.203125 49.65625 52.203125 55.71875 
Q 52.203125 60.453125 49.21875 62.625 
Q 46.234375 64.796875 39.703125 64.796875 
z
" id="DejaVuSans-Oblique-66"/>
      </defs>
      <use transform="translate(0 0.015625)" xlink:href="#DejaVuSans-Oblique-67"/>
      <use transform="translate(69.824219 0.015625)" xlink:href="#DejaVuSans-47"/>
      <use transform="translate(103.515625 0.015625)" xlink:href="#DejaVuSans-Oblique-107"/>
      <use transform="translate(161.425781 -16.390625)scale(0.7)" xlink:href="#DejaVuSans-Oblique-66"/>
     </g>
    </g>
   </g>
   <g id="line2d_17">
    <path clip-path="url(#p04254baf08)" d="M 116.571429 441 
L 121.939394 441 
L 127.307359 441 
L 132.675325 441 
L 138.04329 441 
L 143.411255 441 
L 148.779221 441 
L 154.147186 441 
L 159.515152 441 
L 164.883117 441 
L 170.251082 441 
L 175.619048 441 
L 180.987013 441 
L 186.354978 441 
L 191.722944 441 
L 197.090909 441 
L 202.458874 441 
L 207.82684 441 
L 213.194805 441 
L 218.562771 440.999999 
L 223.930736 440.999998 
L 229.298701 440.999995 
L 234.666667 440.999989 
L 240.034632 440.999976 
L 245.402597 440.99995 
L 250.770563 440.999902 
L 256.138528 440.999818 
L 261.506494 440.999674 
L 266.874459 440.999439 
L 272.242424 440.999065 
L 277.61039 440.99849 
L 282.978355 440.997629 
L 288.34632 440.996373 
L 293.714286 440.994582 
L 299.082251 440.992082 
L 304.450216 440.988661 
L 309.818182 440.984064 
L 315.186147 440.977989 
L 320.554113 440.970086 
L 325.922078 440.959951 
L 331.290043 440.947128 
L 336.658009 440.931104 
L 342.025974 440.911313 
L 347.393939 440.887134 
L 352.761905 440.857891 
L 358.12987 440.822859 
L 363.497835 440.781265 
L 368.865801 440.732291 
L 374.233766 440.675079 
L 379.601732 440.608735 
L 384.969697 440.532336 
L 390.337662 440.444932 
L 395.705628 440.345556 
L 401.073593 440.233225 
L 406.441558 440.106951 
L 411.809524 439.965743 
L 417.177489 439.808612 
L 422.545455 439.634584 
L 427.91342 439.442694 
L 433.281385 439.232002 
L 438.649351 439.00159 
L 444.017316 438.750571 
L 449.385281 438.478092 
L 454.753247 438.183337 
L 460.121212 437.865529 
L 465.489177 437.52394 
L 470.857143 437.157882 
L 476.225108 436.766721 
L 481.593074 436.34987 
L 486.961039 435.906796 
L 492.329004 435.437017 
L 497.69697 434.940105 
L 503.064935 434.415688 
L 508.4329 433.863446 
L 513.800866 433.283113 
L 519.168831 432.674477 
L 524.536797 432.037378 
L 529.904762 431.371708 
L 535.272727 430.67741 
L 540.640693 429.954476 
L 546.008658 429.202945 
L 551.376623 428.422903 
L 556.744589 427.614481 
L 562.112554 426.777851 
L 567.480519 425.913229 
L 572.848485 425.020866 
L 578.21645 424.101052 
L 583.584416 423.154113 
L 588.952381 422.180405 
L 594.320346 421.180318 
L 599.688312 420.154268 
L 605.056277 419.102698 
L 610.424242 418.026079 
L 615.792208 416.924901 
L 621.160173 415.799676 
L 626.528139 414.650936 
L 631.896104 413.479229 
L 637.264069 412.285118 
L 642.632035 411.069181 
L 648 409.832007 
" style="fill:none;stroke:#1f77b4;stroke-linecap:square;stroke-width:1.5;"/>
   </g>
   <g id="line2d_18">
    <path clip-path="url(#p04254baf08)" d="M 116.571429 440.98211 
L 121.939394 440.834165 
L 127.307359 440.228459 
L 132.675325 438.648581 
L 138.04329 435.567629 
L 143.411255 430.62665 
L 148.779221 423.710966 
L 154.147186 414.929588 
L 159.515152 404.546257 
L 164.883117 392.903842 
L 170.251082 380.36358 
L 175.619048 367.264944 
L 180.987013 353.903826 
L 186.354978 340.524081 
L 191.722944 327.317519 
L 197.090909 314.428547 
L 202.458874 301.960888 
L 207.82684 289.984775 
L 213.194805 278.543741 
L 218.562771 267.660612 
L 223.930736 257.342541 
L 229.298701 247.585119 
L 234.666667 238.375653 
L 240.034632 229.69572 
L 245.402597 221.523138 
L 250.770563 213.83345 
L 256.138528 206.60104 
L 261.506494 199.79994 
L 266.874459 193.404419 
L 272.242424 187.38939 
L 277.61039 181.730686 
L 282.978355 176.405238 
L 288.34632 171.391178 
L 293.714286 166.667886 
L 299.082251 162.216002 
L 304.450216 158.017407 
L 309.818182 154.055187 
L 315.186147 150.313583 
L 320.554113 146.777932 
L 325.922078 143.43461 
L 331.290043 140.270964 
L 336.658009 137.275253 
L 342.025974 134.43658 
L 347.393939 131.744841 
L 352.761905 129.190659 
L 358.12987 126.765336 
L 363.497835 124.460801 
L 368.865801 122.269562 
L 374.233766 120.184661 
L 379.601732 118.199635 
L 384.969697 116.308476 
L 390.337662 114.5056 
L 395.705628 112.785807 
L 401.073593 111.144261 
L 406.441558 109.576453 
L 411.809524 108.078182 
L 417.177489 106.645531 
L 422.545455 105.274842 
L 427.91342 103.962702 
L 433.281385 102.705918 
L 438.649351 101.501507 
L 444.017316 100.346677 
L 449.385281 99.238815 
L 454.753247 98.17547 
L 460.121212 97.154347 
L 465.489177 96.173292 
L 470.857143 95.230283 
L 476.225108 94.323421 
L 481.593074 93.450921 
L 486.961039 92.611103 
L 492.329004 91.802389 
L 497.69697 91.023291 
L 503.064935 90.272406 
L 508.4329 89.548414 
L 513.800866 88.850069 
L 519.168831 88.176193 
L 524.536797 87.525676 
L 529.904762 86.897468 
L 535.272727 86.290577 
L 540.640693 85.704063 
L 546.008658 85.137039 
L 551.376623 84.588662 
L 556.744589 84.058136 
L 562.112554 83.544704 
L 567.480519 83.04765 
L 572.848485 82.566295 
L 578.21645 82.099991 
L 583.584416 81.648127 
L 588.952381 81.210119 
L 594.320346 80.785413 
L 599.688312 80.373482 
L 605.056277 79.973825 
L 610.424242 79.585965 
L 615.792208 79.209446 
L 621.160173 78.843836 
L 626.528139 78.488722 
L 631.896104 78.143709 
L 637.264069 77.808423 
L 642.632035 77.482504 
L 648 77.16561 
" style="fill:none;stroke:#ff7f0e;stroke-linecap:square;stroke-width:1.5;"/>
   </g>
   <g id="patch_3">
    <path d="M 90 441 
L 90 60.48 
" style="fill:none;stroke:#000000;stroke-linecap:square;stroke-linejoin:miter;stroke-width:2.5;"/>
   </g>
   <g id="patch_4">
    <path d="M 648 441 
L 648 60.48 
" style="fill:none;stroke:#000000;stroke-linecap:square;stroke-linejoin:miter;stroke-width:2.5;"/>
   </g>
   <g id="patch_5">
    <path d="M 90 441 
L 648 441 
" style="fill:none;stroke:#000000;stroke-linecap:square;stroke-linejoin:miter;stroke-width:2.5;"/>
   </g>
   <g id="patch_6">
    <path d="M 90 60.48 
L 648 60.48 
" style="fill:none;stroke:#000000;stroke-linecap:square;stroke-linejoin:miter;stroke-width:2.5;"/>
   </g>
   <g id="text_19">
    <!-- Heat capacity of diamond versus silver -->
    <g transform="translate(181.6485 54.48)scale(0.192 -0.192)">
     <defs>
      <path d="M 9.8125 72.90625 
L 19.671875 72.90625 
L 19.671875 43.015625 
L 55.515625 43.015625 
L 55.515625 72.90625 
L 65.375 72.90625 
L 65.375 0 
L 55.515625 0 
L 55.515625 34.71875 
L 19.671875 34.71875 
L 19.671875 0 
L 9.8125 0 
z
" id="DejaVuSans-72"/>
      <path d="M 56.203125 29.59375 
L 56.203125 25.203125 
L 14.890625 25.203125 
Q 15.484375 15.921875 20.484375 11.0625 
Q 25.484375 6.203125 34.421875 6.203125 
Q 39.59375 6.203125 44.453125 7.46875 
Q 49.3125 8.734375 54.109375 11.28125 
L 54.109375 2.78125 
Q 49.265625 0.734375 44.1875 -0.34375 
Q 39.109375 -1.421875 33.890625 -1.421875 
Q 20.796875 -1.421875 13.15625 6.1875 
Q 5.515625 13.8125 5.515625 26.8125 
Q 5.515625 40.234375 12.765625 48.109375 
Q 20.015625 56 32.328125 56 
Q 43.359375 56 49.78125 48.890625 
Q 56.203125 41.796875 56.203125 29.59375 
z
M 47.21875 32.234375 
Q 47.125 39.59375 43.09375 43.984375 
Q 39.0625 48.390625 32.421875 48.390625 
Q 24.90625 48.390625 20.390625 44.140625 
Q 15.875 39.890625 15.1875 32.171875 
z
" id="DejaVuSans-101"/>
      <path d="M 34.28125 27.484375 
Q 23.390625 27.484375 19.1875 25 
Q 14.984375 22.515625 14.984375 16.5 
Q 14.984375 11.71875 18.140625 8.90625 
Q 21.296875 6.109375 26.703125 6.109375 
Q 34.1875 6.109375 38.703125 11.40625 
Q 43.21875 16.703125 43.21875 25.484375 
L 43.21875 27.484375 
z
M 52.203125 31.203125 
L 52.203125 0 
L 43.21875 0 
L 43.21875 8.296875 
Q 40.140625 3.328125 35.546875 0.953125 
Q 30.953125 -1.421875 24.3125 -1.421875 
Q 15.921875 -1.421875 10.953125 3.296875 
Q 6 8.015625 6 15.921875 
Q 6 25.140625 12.171875 29.828125 
Q 18.359375 34.515625 30.609375 34.515625 
L 43.21875 34.515625 
L 43.21875 35.40625 
Q 43.21875 41.609375 39.140625 45 
Q 35.0625 48.390625 27.6875 48.390625 
Q 23 48.390625 18.546875 47.265625 
Q 14.109375 46.140625 10.015625 43.890625 
L 10.015625 52.203125 
Q 14.9375 54.109375 19.578125 55.046875 
Q 24.21875 56 28.609375 56 
Q 40.484375 56 46.34375 49.84375 
Q 52.203125 43.703125 52.203125 31.203125 
z
" id="DejaVuSans-97"/>
      <path d="M 18.3125 70.21875 
L 18.3125 54.6875 
L 36.8125 54.6875 
L 36.8125 47.703125 
L 18.3125 47.703125 
L 18.3125 18.015625 
Q 18.3125 11.328125 20.140625 9.421875 
Q 21.96875 7.515625 27.59375 7.515625 
L 36.8125 7.515625 
L 36.8125 0 
L 27.59375 0 
Q 17.1875 0 13.234375 3.875 
Q 9.28125 7.765625 9.28125 18.015625 
L 9.28125 47.703125 
L 2.6875 47.703125 
L 2.6875 54.6875 
L 9.28125 54.6875 
L 9.28125 70.21875 
z
" id="DejaVuSans-116"/>
      <path id="DejaVuSans-32"/>
      <path d="M 48.78125 52.59375 
L 48.78125 44.1875 
Q 44.96875 46.296875 41.140625 47.34375 
Q 37.3125 48.390625 33.40625 48.390625 
Q 24.65625 48.390625 19.8125 42.84375 
Q 14.984375 37.3125 14.984375 27.296875 
Q 14.984375 17.28125 19.8125 11.734375 
Q 24.65625 6.203125 33.40625 6.203125 
Q 37.3125 6.203125 41.140625 7.25 
Q 44.96875 8.296875 48.78125 10.40625 
L 48.78125 2.09375 
Q 45.015625 0.34375 40.984375 -0.53125 
Q 36.96875 -1.421875 32.421875 -1.421875 
Q 20.0625 -1.421875 12.78125 6.34375 
Q 5.515625 14.109375 5.515625 27.296875 
Q 5.515625 40.671875 12.859375 48.328125 
Q 20.21875 56 33.015625 56 
Q 37.15625 56 41.109375 55.140625 
Q 45.0625 54.296875 48.78125 52.59375 
z
" id="DejaVuSans-99"/>
      <path d="M 18.109375 8.203125 
L 18.109375 -20.796875 
L 9.078125 -20.796875 
L 9.078125 54.6875 
L 18.109375 54.6875 
L 18.109375 46.390625 
Q 20.953125 51.265625 25.265625 53.625 
Q 29.59375 56 35.59375 56 
Q 45.5625 56 51.78125 48.09375 
Q 58.015625 40.1875 58.015625 27.296875 
Q 58.015625 14.40625 51.78125 6.484375 
Q 45.5625 -1.421875 35.59375 -1.421875 
Q 29.59375 -1.421875 25.265625 0.953125 
Q 20.953125 3.328125 18.109375 8.203125 
z
M 48.6875 27.296875 
Q 48.6875 37.203125 44.609375 42.84375 
Q 40.53125 48.484375 33.40625 48.484375 
Q 26.265625 48.484375 22.1875 42.84375 
Q 18.109375 37.203125 18.109375 27.296875 
Q 18.109375 17.390625 22.1875 11.75 
Q 26.265625 6.109375 33.40625 6.109375 
Q 40.53125 6.109375 44.609375 11.75 
Q 48.6875 17.390625 48.6875 27.296875 
z
" id="DejaVuSans-112"/>
      <path d="M 9.421875 54.6875 
L 18.40625 54.6875 
L 18.40625 0 
L 9.421875 0 
z
M 9.421875 75.984375 
L 18.40625 75.984375 
L 18.40625 64.59375 
L 9.421875 64.59375 
z
" id="DejaVuSans-105"/>
      <path d="M 32.171875 -5.078125 
Q 28.375 -14.84375 24.75 -17.8125 
Q 21.140625 -20.796875 15.09375 -20.796875 
L 7.90625 -20.796875 
L 7.90625 -13.28125 
L 13.1875 -13.28125 
Q 16.890625 -13.28125 18.9375 -11.515625 
Q 21 -9.765625 23.484375 -3.21875 
L 25.09375 0.875 
L 2.984375 54.6875 
L 12.5 54.6875 
L 29.59375 11.921875 
L 46.6875 54.6875 
L 56.203125 54.6875 
z
" id="DejaVuSans-121"/>
      <path d="M 30.609375 48.390625 
Q 23.390625 48.390625 19.1875 42.75 
Q 14.984375 37.109375 14.984375 27.296875 
Q 14.984375 17.484375 19.15625 11.84375 
Q 23.34375 6.203125 30.609375 6.203125 
Q 37.796875 6.203125 41.984375 11.859375 
Q 46.1875 17.53125 46.1875 27.296875 
Q 46.1875 37.015625 41.984375 42.703125 
Q 37.796875 48.390625 30.609375 48.390625 
z
M 30.609375 56 
Q 42.328125 56 49.015625 48.375 
Q 55.71875 40.765625 55.71875 27.296875 
Q 55.71875 13.875 49.015625 6.21875 
Q 42.328125 -1.421875 30.609375 -1.421875 
Q 18.84375 -1.421875 12.171875 6.21875 
Q 5.515625 13.875 5.515625 27.296875 
Q 5.515625 40.765625 12.171875 48.375 
Q 18.84375 56 30.609375 56 
z
" id="DejaVuSans-111"/>
      <path d="M 37.109375 75.984375 
L 37.109375 68.5 
L 28.515625 68.5 
Q 23.6875 68.5 21.796875 66.546875 
Q 19.921875 64.59375 19.921875 59.515625 
L 19.921875 54.6875 
L 34.71875 54.6875 
L 34.71875 47.703125 
L 19.921875 47.703125 
L 19.921875 0 
L 10.890625 0 
L 10.890625 47.703125 
L 2.296875 47.703125 
L 2.296875 54.6875 
L 10.890625 54.6875 
L 10.890625 58.5 
Q 10.890625 67.625 15.140625 71.796875 
Q 19.390625 75.984375 28.609375 75.984375 
z
" id="DejaVuSans-102"/>
      <path d="M 45.40625 46.390625 
L 45.40625 75.984375 
L 54.390625 75.984375 
L 54.390625 0 
L 45.40625 0 
L 45.40625 8.203125 
Q 42.578125 3.328125 38.25 0.953125 
Q 33.9375 -1.421875 27.875 -1.421875 
Q 17.96875 -1.421875 11.734375 6.484375 
Q 5.515625 14.40625 5.515625 27.296875 
Q 5.515625 40.1875 11.734375 48.09375 
Q 17.96875 56 27.875 56 
Q 33.9375 56 38.25 53.625 
Q 42.578125 51.265625 45.40625 46.390625 
z
M 14.796875 27.296875 
Q 14.796875 17.390625 18.875 11.75 
Q 22.953125 6.109375 30.078125 6.109375 
Q 37.203125 6.109375 41.296875 11.75 
Q 45.40625 17.390625 45.40625 27.296875 
Q 45.40625 37.203125 41.296875 42.84375 
Q 37.203125 48.484375 30.078125 48.484375 
Q 22.953125 48.484375 18.875 42.84375 
Q 14.796875 37.203125 14.796875 27.296875 
z
" id="DejaVuSans-100"/>
      <path d="M 52 44.1875 
Q 55.375 50.25 60.0625 53.125 
Q 64.75 56 71.09375 56 
Q 79.640625 56 84.28125 50.015625 
Q 88.921875 44.046875 88.921875 33.015625 
L 88.921875 0 
L 79.890625 0 
L 79.890625 32.71875 
Q 79.890625 40.578125 77.09375 44.375 
Q 74.3125 48.1875 68.609375 48.1875 
Q 61.625 48.1875 57.5625 43.546875 
Q 53.515625 38.921875 53.515625 30.90625 
L 53.515625 0 
L 44.484375 0 
L 44.484375 32.71875 
Q 44.484375 40.625 41.703125 44.40625 
Q 38.921875 48.1875 33.109375 48.1875 
Q 26.21875 48.1875 22.15625 43.53125 
Q 18.109375 38.875 18.109375 30.90625 
L 18.109375 0 
L 9.078125 0 
L 9.078125 54.6875 
L 18.109375 54.6875 
L 18.109375 46.1875 
Q 21.1875 51.21875 25.484375 53.609375 
Q 29.78125 56 35.6875 56 
Q 41.65625 56 45.828125 52.96875 
Q 50 49.953125 52 44.1875 
z
" id="DejaVuSans-109"/>
      <path d="M 54.890625 33.015625 
L 54.890625 0 
L 45.90625 0 
L 45.90625 32.71875 
Q 45.90625 40.484375 42.875 44.328125 
Q 39.84375 48.1875 33.796875 48.1875 
Q 26.515625 48.1875 22.3125 43.546875 
Q 18.109375 38.921875 18.109375 30.90625 
L 18.109375 0 
L 9.078125 0 
L 9.078125 54.6875 
L 18.109375 54.6875 
L 18.109375 46.1875 
Q 21.34375 51.125 25.703125 53.5625 
Q 30.078125 56 35.796875 56 
Q 45.21875 56 50.046875 50.171875 
Q 54.890625 44.34375 54.890625 33.015625 
z
" id="DejaVuSans-110"/>
      <path d="M 2.984375 54.6875 
L 12.5 54.6875 
L 29.59375 8.796875 
L 46.6875 54.6875 
L 56.203125 54.6875 
L 35.6875 0 
L 23.484375 0 
z
" id="DejaVuSans-118"/>
      <path d="M 41.109375 46.296875 
Q 39.59375 47.171875 37.8125 47.578125 
Q 36.03125 48 33.890625 48 
Q 26.265625 48 22.1875 43.046875 
Q 18.109375 38.09375 18.109375 28.8125 
L 18.109375 0 
L 9.078125 0 
L 9.078125 54.6875 
L 18.109375 54.6875 
L 18.109375 46.1875 
Q 20.953125 51.171875 25.484375 53.578125 
Q 30.03125 56 36.53125 56 
Q 37.453125 56 38.578125 55.875 
Q 39.703125 55.765625 41.0625 55.515625 
z
" id="DejaVuSans-114"/>
      <path d="M 44.28125 53.078125 
L 44.28125 44.578125 
Q 40.484375 46.53125 36.375 47.5 
Q 32.28125 48.484375 27.875 48.484375 
Q 21.1875 48.484375 17.84375 46.4375 
Q 14.5 44.390625 14.5 40.28125 
Q 14.5 37.15625 16.890625 35.375 
Q 19.28125 33.59375 26.515625 31.984375 
L 29.59375 31.296875 
Q 39.15625 29.25 43.1875 25.515625 
Q 47.21875 21.78125 47.21875 15.09375 
Q 47.21875 7.46875 41.1875 3.015625 
Q 35.15625 -1.421875 24.609375 -1.421875 
Q 20.21875 -1.421875 15.453125 -0.5625 
Q 10.6875 0.296875 5.421875 2 
L 5.421875 11.28125 
Q 10.40625 8.6875 15.234375 7.390625 
Q 20.0625 6.109375 24.8125 6.109375 
Q 31.15625 6.109375 34.5625 8.28125 
Q 37.984375 10.453125 37.984375 14.40625 
Q 37.984375 18.0625 35.515625 20.015625 
Q 33.0625 21.96875 24.703125 23.78125 
L 21.578125 24.515625 
Q 13.234375 26.265625 9.515625 29.90625 
Q 5.8125 33.546875 5.8125 39.890625 
Q 5.8125 47.609375 11.28125 51.796875 
Q 16.75 56 26.8125 56 
Q 31.78125 56 36.171875 55.265625 
Q 40.578125 54.546875 44.28125 53.078125 
z
" id="DejaVuSans-115"/>
      <path d="M 8.5 21.578125 
L 8.5 54.6875 
L 17.484375 54.6875 
L 17.484375 21.921875 
Q 17.484375 14.15625 20.5 10.265625 
Q 23.53125 6.390625 29.59375 6.390625 
Q 36.859375 6.390625 41.078125 11.03125 
Q 45.3125 15.671875 45.3125 23.6875 
L 45.3125 54.6875 
L 54.296875 54.6875 
L 54.296875 0 
L 45.3125 0 
L 45.3125 8.40625 
Q 42.046875 3.421875 37.71875 1 
Q 33.40625 -1.421875 27.6875 -1.421875 
Q 18.265625 -1.421875 13.375 4.4375 
Q 8.5 10.296875 8.5 21.578125 
z
M 31.109375 56 
z
" id="DejaVuSans-117"/>
      <path d="M 9.421875 75.984375 
L 18.40625 75.984375 
L 18.40625 0 
L 9.421875 0 
z
" id="DejaVuSans-108"/>
     </defs>
     <use xlink:href="#DejaVuSans-72"/>
     <use x="75.195312" xlink:href="#DejaVuSans-101"/>
     <use x="136.71875" xlink:href="#DejaVuSans-97"/>
     <use x="197.998047" xlink:href="#DejaVuSans-116"/>
     <use x="237.207031" xlink:href="#DejaVuSans-32"/>
     <use x="268.994141" xlink:href="#DejaVuSans-99"/>
     <use x="323.974609" xlink:href="#DejaVuSans-97"/>
     <use x="385.253906" xlink:href="#DejaVuSans-112"/>
     <use x="448.730469" xlink:href="#DejaVuSans-97"/>
     <use x="510.009766" xlink:href="#DejaVuSans-99"/>
     <use x="564.990234" xlink:href="#DejaVuSans-105"/>
     <use x="592.773438" xlink:href="#DejaVuSans-116"/>
     <use x="631.982422" xlink:href="#DejaVuSans-121"/>
     <use x="691.162109" xlink:href="#DejaVuSans-32"/>
     <use x="722.949219" xlink:href="#DejaVuSans-111"/>
     <use x="784.130859" xlink:href="#DejaVuSans-102"/>
     <use x="819.335938" xlink:href="#DejaVuSans-32"/>
     <use x="851.123047" xlink:href="#DejaVuSans-100"/>
     <use x="914.599609" xlink:href="#DejaVuSans-105"/>
     <use x="942.382812" xlink:href="#DejaVuSans-97"/>
     <use x="1003.662109" xlink:href="#DejaVuSans-109"/>
     <use x="1101.074219" xlink:href="#DejaVuSans-111"/>
     <use x="1162.255859" xlink:href="#DejaVuSans-110"/>
     <use x="1225.634766" xlink:href="#DejaVuSans-100"/>
     <use x="1289.111328" xlink:href="#DejaVuSans-32"/>
     <use x="1320.898438" xlink:href="#DejaVuSans-118"/>
     <use x="1380.078125" xlink:href="#DejaVuSans-101"/>
     <use x="1441.601562" xlink:href="#DejaVuSans-114"/>
     <use x="1482.714844" xlink:href="#DejaVuSans-115"/>
     <use x="1534.814453" xlink:href="#DejaVuSans-117"/>
     <use x="1598.193359" xlink:href="#DejaVuSans-115"/>
     <use x="1650.292969" xlink:href="#DejaVuSans-32"/>
     <use x="1682.080078" xlink:href="#DejaVuSans-115"/>
     <use x="1734.179688" xlink:href="#DejaVuSans-105"/>
     <use x="1761.962891" xlink:href="#DejaVuSans-108"/>
     <use x="1789.746094" xlink:href="#DejaVuSans-118"/>
     <use x="1848.925781" xlink:href="#DejaVuSans-101"/>
     <use x="1910.449219" xlink:href="#DejaVuSans-114"/>
    </g>
   </g>
   <g id="legend_1">
    <g id="patch_7">
     <path d="M 357.92 300.11 
L 636.8 300.11 
Q 640 300.11 640 296.91 
L 640 204.57 
Q 640 201.37 636.8 201.37 
L 357.92 201.37 
Q 354.72 201.37 354.72 204.57 
L 354.72 296.91 
Q 354.72 300.11 357.92 300.11 
z
" style="fill:#ffffff;opacity:0.8;stroke:#cccccc;stroke-linejoin:miter;"/>
    </g>
    <g id="line2d_19">
     <path d="M 361.12 214.3275 
L 393.12 214.3275 
" style="fill:none;stroke:#1f77b4;stroke-linecap:square;stroke-width:1.5;"/>
    </g>
    <g id="line2d_20"/>
    <g id="text_20">
     <!-- Einstein model, $\omega=169$ THz -->
     <g transform="translate(405.92 219.9275)scale(0.16 -0.16)">
      <defs>
       <path d="M 9.8125 72.90625 
L 55.90625 72.90625 
L 55.90625 64.59375 
L 19.671875 64.59375 
L 19.671875 43.015625 
L 54.390625 43.015625 
L 54.390625 34.71875 
L 19.671875 34.71875 
L 19.671875 8.296875 
L 56.78125 8.296875 
L 56.78125 0 
L 9.8125 0 
z
" id="DejaVuSans-69"/>
       <path d="M 11.71875 12.40625 
L 22.015625 12.40625 
L 22.015625 4 
L 14.015625 -11.625 
L 7.71875 -11.625 
L 11.71875 4 
z
" id="DejaVuSans-44"/>
       <path d="M 21.390625 -1.421875 
Q 1.125 -1.421875 6.78125 27.59375 
Q 8.984375 39.0625 19.625 54.6875 
L 29.296875 54.6875 
Q 19.234375 39.0625 17 27.34375 
Q 12.796875 6.203125 23.734375 6.203125 
Q 33.84375 6.203125 38.71875 32.46875 
L 47.015625 32.46875 
Q 41.703125 6.0625 51.8125 6.203125 
Q 62.703125 6.296875 66.796875 27.34375 
Q 69.046875 39.0625 65.140625 54.6875 
L 74.8125 54.6875 
Q 79.296875 39.0625 77.09375 27.59375 
Q 71.53125 -1.46875 51.21875 -1.421875 
Q 37.9375 -1.375 39.109375 13.1875 
Q 34.28125 -1.421875 21.390625 -1.421875 
z
" id="DejaVuSans-Oblique-969"/>
       <path d="M 10.59375 45.40625 
L 73.1875 45.40625 
L 73.1875 37.203125 
L 10.59375 37.203125 
z
M 10.59375 25.484375 
L 73.1875 25.484375 
L 73.1875 17.1875 
L 10.59375 17.1875 
z
" id="DejaVuSans-61"/>
       <path d="M 33.015625 40.375 
Q 26.375 40.375 22.484375 35.828125 
Q 18.609375 31.296875 18.609375 23.390625 
Q 18.609375 15.53125 22.484375 10.953125 
Q 26.375 6.390625 33.015625 6.390625 
Q 39.65625 6.390625 43.53125 10.953125 
Q 47.40625 15.53125 47.40625 23.390625 
Q 47.40625 31.296875 43.53125 35.828125 
Q 39.65625 40.375 33.015625 40.375 
z
M 52.59375 71.296875 
L 52.59375 62.3125 
Q 48.875 64.0625 45.09375 64.984375 
Q 41.3125 65.921875 37.59375 65.921875 
Q 27.828125 65.921875 22.671875 59.328125 
Q 17.53125 52.734375 16.796875 39.40625 
Q 19.671875 43.65625 24.015625 45.921875 
Q 28.375 48.1875 33.59375 48.1875 
Q 44.578125 48.1875 50.953125 41.515625 
Q 57.328125 34.859375 57.328125 23.390625 
Q 57.328125 12.15625 50.6875 5.359375 
Q 44.046875 -1.421875 33.015625 -1.421875 
Q 20.359375 -1.421875 13.671875 8.265625 
Q 6.984375 17.96875 6.984375 36.375 
Q 6.984375 53.65625 15.1875 63.9375 
Q 23.390625 74.21875 37.203125 74.21875 
Q 40.921875 74.21875 44.703125 73.484375 
Q 48.484375 72.75 52.59375 71.296875 
z
" id="DejaVuSans-54"/>
       <path d="M 10.984375 1.515625 
L 10.984375 10.5 
Q 14.703125 8.734375 18.5 7.8125 
Q 22.3125 6.890625 25.984375 6.890625 
Q 35.75 6.890625 40.890625 13.453125 
Q 46.046875 20.015625 46.78125 33.40625 
Q 43.953125 29.203125 39.59375 26.953125 
Q 35.25 24.703125 29.984375 24.703125 
Q 19.046875 24.703125 12.671875 31.3125 
Q 6.296875 37.9375 6.296875 49.421875 
Q 6.296875 60.640625 12.9375 67.421875 
Q 19.578125 74.21875 30.609375 74.21875 
Q 43.265625 74.21875 49.921875 64.515625 
Q 56.59375 54.828125 56.59375 36.375 
Q 56.59375 19.140625 48.40625 8.859375 
Q 40.234375 -1.421875 26.421875 -1.421875 
Q 22.703125 -1.421875 18.890625 -0.6875 
Q 15.09375 0.046875 10.984375 1.515625 
z
M 30.609375 32.421875 
Q 37.25 32.421875 41.125 36.953125 
Q 45.015625 41.5 45.015625 49.421875 
Q 45.015625 57.28125 41.125 61.84375 
Q 37.25 66.40625 30.609375 66.40625 
Q 23.96875 66.40625 20.09375 61.84375 
Q 16.21875 57.28125 16.21875 49.421875 
Q 16.21875 41.5 20.09375 36.953125 
Q 23.96875 32.421875 30.609375 32.421875 
z
" id="DejaVuSans-57"/>
       <path d="M -0.296875 72.90625 
L 61.375 72.90625 
L 61.375 64.59375 
L 35.5 64.59375 
L 35.5 0 
L 25.59375 0 
L 25.59375 64.59375 
L -0.296875 64.59375 
z
" id="DejaVuSans-84"/>
       <path d="M 5.515625 54.6875 
L 48.1875 54.6875 
L 48.1875 46.484375 
L 14.40625 7.171875 
L 48.1875 7.171875 
L 48.1875 0 
L 4.296875 0 
L 4.296875 8.203125 
L 38.09375 47.515625 
L 5.515625 47.515625 
z
" id="DejaVuSans-122"/>
      </defs>
      <use transform="translate(0 0.015625)" xlink:href="#DejaVuSans-69"/>
      <use transform="translate(63.183594 0.015625)" xlink:href="#DejaVuSans-105"/>
      <use transform="translate(90.966797 0.015625)" xlink:href="#DejaVuSans-110"/>
      <use transform="translate(154.345703 0.015625)" xlink:href="#DejaVuSans-115"/>
      <use transform="translate(206.445312 0.015625)" xlink:href="#DejaVuSans-116"/>
      <use transform="translate(245.654297 0.015625)" xlink:href="#DejaVuSans-101"/>
      <use transform="translate(307.177734 0.015625)" xlink:href="#DejaVuSans-105"/>
      <use transform="translate(334.960938 0.015625)" xlink:href="#DejaVuSans-110"/>
      <use transform="translate(398.339844 0.015625)" xlink:href="#DejaVuSans-32"/>
      <use transform="translate(430.126953 0.015625)" xlink:href="#DejaVuSans-109"/>
      <use transform="translate(527.539062 0.015625)" xlink:href="#DejaVuSans-111"/>
      <use transform="translate(588.720703 0.015625)" xlink:href="#DejaVuSans-100"/>
      <use transform="translate(652.197266 0.015625)" xlink:href="#DejaVuSans-101"/>
      <use transform="translate(713.720703 0.015625)" xlink:href="#DejaVuSans-108"/>
      <use transform="translate(741.503906 0.015625)" xlink:href="#DejaVuSans-44"/>
      <use transform="translate(773.291016 0.015625)" xlink:href="#DejaVuSans-32"/>
      <use transform="translate(805.078125 0.015625)" xlink:href="#DejaVuSans-Oblique-969"/>
      <use transform="translate(908.300781 0.015625)" xlink:href="#DejaVuSans-61"/>
      <use transform="translate(1011.572266 0.015625)" xlink:href="#DejaVuSans-49"/>
      <use transform="translate(1075.195312 0.015625)" xlink:href="#DejaVuSans-54"/>
      <use transform="translate(1138.818359 0.015625)" xlink:href="#DejaVuSans-57"/>
      <use transform="translate(1202.441406 0.015625)" xlink:href="#DejaVuSans-32"/>
      <use transform="translate(1234.228516 0.015625)" xlink:href="#DejaVuSans-84"/>
      <use transform="translate(1295.3125 0.015625)" xlink:href="#DejaVuSans-72"/>
      <use transform="translate(1370.507812 0.015625)" xlink:href="#DejaVuSans-122"/>
     </g>
    </g>
    <g id="line2d_21">
     <path d="M 361.12 237.8125 
L 393.12 237.8125 
" style="fill:none;stroke:#ff7f0e;stroke-linecap:square;stroke-width:1.5;"/>
    </g>
    <g id="line2d_22"/>
    <g id="text_21">
     <!-- Einstein model, $\omega=20$ THz -->
     <g transform="translate(405.92 243.4125)scale(0.16 -0.16)">
      <use transform="translate(0 0.015625)" xlink:href="#DejaVuSans-69"/>
      <use transform="translate(63.183594 0.015625)" xlink:href="#DejaVuSans-105"/>
      <use transform="translate(90.966797 0.015625)" xlink:href="#DejaVuSans-110"/>
      <use transform="translate(154.345703 0.015625)" xlink:href="#DejaVuSans-115"/>
      <use transform="translate(206.445312 0.015625)" xlink:href="#DejaVuSans-116"/>
      <use transform="translate(245.654297 0.015625)" xlink:href="#DejaVuSans-101"/>
      <use transform="translate(307.177734 0.015625)" xlink:href="#DejaVuSans-105"/>
      <use transform="translate(334.960938 0.015625)" xlink:href="#DejaVuSans-110"/>
      <use transform="translate(398.339844 0.015625)" xlink:href="#DejaVuSans-32"/>
      <use transform="translate(430.126953 0.015625)" xlink:href="#DejaVuSans-109"/>
      <use transform="translate(527.539062 0.015625)" xlink:href="#DejaVuSans-111"/>
      <use transform="translate(588.720703 0.015625)" xlink:href="#DejaVuSans-100"/>
      <use transform="translate(652.197266 0.015625)" xlink:href="#DejaVuSans-101"/>
      <use transform="translate(713.720703 0.015625)" xlink:href="#DejaVuSans-108"/>
      <use transform="translate(741.503906 0.015625)" xlink:href="#DejaVuSans-44"/>
      <use transform="translate(773.291016 0.015625)" xlink:href="#DejaVuSans-32"/>
      <use transform="translate(805.078125 0.015625)" xlink:href="#DejaVuSans-Oblique-969"/>
      <use transform="translate(908.300781 0.015625)" xlink:href="#DejaVuSans-61"/>
      <use transform="translate(1011.572266 0.015625)" xlink:href="#DejaVuSans-50"/>
      <use transform="translate(1075.195312 0.015625)" xlink:href="#DejaVuSans-48"/>
      <use transform="translate(1138.818359 0.015625)" xlink:href="#DejaVuSans-32"/>
      <use transform="translate(1170.605469 0.015625)" xlink:href="#DejaVuSans-84"/>
      <use transform="translate(1231.689453 0.015625)" xlink:href="#DejaVuSans-72"/>
      <use transform="translate(1306.884766 0.015625)" xlink:href="#DejaVuSans-122"/>
     </g>
    </g>
    <g id="PathCollection_3">
     <g>
      <use style="fill:#1f77b4;stroke:#1f77b4;" x="377.12" xlink:href="#m2c3eb496f8" y="262.6975"/>
     </g>
    </g>
    <g id="text_22">
     <!-- Diamond -->
     <g transform="translate(405.92 266.8975)scale(0.16 -0.16)">
      <defs>
       <path d="M 19.671875 64.796875 
L 19.671875 8.109375 
L 31.59375 8.109375 
Q 46.6875 8.109375 53.6875 14.9375 
Q 60.6875 21.78125 60.6875 36.53125 
Q 60.6875 51.171875 53.6875 57.984375 
Q 46.6875 64.796875 31.59375 64.796875 
z
M 9.8125 72.90625 
L 30.078125 72.90625 
Q 51.265625 72.90625 61.171875 64.09375 
Q 71.09375 55.28125 71.09375 36.53125 
Q 71.09375 17.671875 61.125 8.828125 
Q 51.171875 0 30.078125 0 
L 9.8125 0 
z
" id="DejaVuSans-68"/>
      </defs>
      <use xlink:href="#DejaVuSans-68"/>
      <use x="77.001953" xlink:href="#DejaVuSans-105"/>
      <use x="104.785156" xlink:href="#DejaVuSans-97"/>
      <use x="166.064453" xlink:href="#DejaVuSans-109"/>
      <use x="263.476562" xlink:href="#DejaVuSans-111"/>
      <use x="324.658203" xlink:href="#DejaVuSans-110"/>
      <use x="388.037109" xlink:href="#DejaVuSans-100"/>
     </g>
    </g>
    <g id="PathCollection_4">
     <g>
      <use style="fill:#ff7f0e;stroke:#ff7f0e;" x="377.12" xlink:href="#m580d54c210" y="286.1825"/>
     </g>
    </g>
    <g id="text_23">
     <!-- Silver -->
     <g transform="translate(405.92 290.3825)scale(0.16 -0.16)">
      <defs>
       <path d="M 53.515625 70.515625 
L 53.515625 60.890625 
Q 47.90625 63.578125 42.921875 64.890625 
Q 37.9375 66.21875 33.296875 66.21875 
Q 25.25 66.21875 20.875 63.09375 
Q 16.5 59.96875 16.5 54.203125 
Q 16.5 49.359375 19.40625 46.890625 
Q 22.3125 44.4375 30.421875 42.921875 
L 36.375 41.703125 
Q 47.40625 39.59375 52.65625 34.296875 
Q 57.90625 29 57.90625 20.125 
Q 57.90625 9.515625 50.796875 4.046875 
Q 43.703125 -1.421875 29.984375 -1.421875 
Q 24.8125 -1.421875 18.96875 -0.25 
Q 13.140625 0.921875 6.890625 3.21875 
L 6.890625 13.375 
Q 12.890625 10.015625 18.65625 8.296875 
Q 24.421875 6.59375 29.984375 6.59375 
Q 38.421875 6.59375 43.015625 9.90625 
Q 47.609375 13.234375 47.609375 19.390625 
Q 47.609375 24.75 44.3125 27.78125 
Q 41.015625 30.8125 33.5 32.328125 
L 27.484375 33.5 
Q 16.453125 35.6875 11.515625 40.375 
Q 6.59375 45.0625 6.59375 53.421875 
Q 6.59375 63.09375 13.40625 68.65625 
Q 20.21875 74.21875 32.171875 74.21875 
Q 37.3125 74.21875 42.625 73.28125 
Q 47.953125 72.359375 53.515625 70.515625 
z
" id="DejaVuSans-83"/>
      </defs>
      <use xlink:href="#DejaVuSans-83"/>
      <use x="63.476562" xlink:href="#DejaVuSans-105"/>
      <use x="91.259766" xlink:href="#DejaVuSans-108"/>
      <use x="119.042969" xlink:href="#DejaVuSans-118"/>
      <use x="178.222656" xlink:href="#DejaVuSans-101"/>
      <use x="239.746094" xlink:href="#DejaVuSans-114"/>
     </g>
    </g>
   </g>
  </g>
 </g>
 <defs>
  <clipPath id="p04254baf08">
   <rect height="380.52" width="558" x="90" y="60.48"/>
  </clipPath>
 </defs>
</svg>
