<?xml version="1.0" encoding="utf-8" standalone="no"?>
<!DOCTYPE svg PUBLIC "-//W3C//DTD SVG 1.1//EN"
  "http://www.w3.org/Graphics/SVG/1.1/DTD/svg11.dtd">
<!-- Created with matplotlib (https://matplotlib.org/) -->
<svg height="504pt" version="1.1" viewBox="0 0 720 504" width="720pt" xmlns="http://www.w3.org/2000/svg" xmlns:xlink="http://www.w3.org/1999/xlink">
 <metadata>
  <rdf:RDF xmlns:cc="http://creativecommons.org/ns#" xmlns:dc="http://purl.org/dc/elements/1.1/" xmlns:rdf="http://www.w3.org/1999/02/22-rdf-syntax-ns#">
   <cc:Work>
    <dc:type rdf:resource="http://purl.org/dc/dcmitype/StillImage"/>
    <dc:date>2021-08-14T14:15:12.660628</dc:date>
    <dc:format>image/svg+xml</dc:format>
    <dc:creator>
     <cc:Agent>
      <dc:title>Matplotlib v3.3.2, https://matplotlib.org/</dc:title>
     </cc:Agent>
    </dc:creator>
   </cc:Work>
  </rdf:RDF>
 </metadata>
 <defs>
  <style type="text/css">*{stroke-linecap:butt;stroke-linejoin:round;}</style>
 </defs>
 <g id="figure_1">
  <g id="patch_1">
   <path d="M 0 504 
L 720 504 
L 720 0 
L 0 0 
z
" style="fill:#ffffff;"/>
  </g>
  <g id="axes_1">
   <g id="line2d_1">
    <path clip-path="url(#p3b6ee03174)" d="M 578.25 441 
L 578.25 155.61 
" style="fill:none;stroke:#000000;stroke-dasharray:1.5,2.475;stroke-dashoffset:0;stroke-width:1.5;"/>
   </g>
   <g id="line2d_2">
    <path clip-path="url(#p3b6ee03174)" d="M 108.590822 -1 
L 115.719439 22.869799 
L 123.547094 48.315125 
L 131.374749 72.961719 
L 139.202405 96.809581 
L 147.03006 119.85871 
L 153.739479 138.979382 
L 160.448898 157.513229 
L 167.158317 175.460253 
L 173.867735 192.820453 
L 180.577154 209.59383 
L 187.286573 225.780382 
L 193.995992 241.380112 
L 200.705411 256.393017 
L 207.41483 270.819099 
L 214.124248 284.658357 
L 220.833667 297.910792 
L 226.42485 308.506219 
L 232.016032 318.69413 
L 237.607214 328.474524 
L 243.198397 337.847402 
L 248.789579 346.812764 
L 254.380762 355.370609 
L 259.971944 363.520938 
L 265.563126 371.26375 
L 271.154309 378.599046 
L 276.745491 385.526825 
L 282.336673 392.047088 
L 287.927856 398.159835 
L 292.400802 402.75662 
L 296.873747 407.092595 
L 301.346693 411.167759 
L 305.819639 414.982113 
L 310.292585 418.535656 
L 314.765531 421.828389 
L 319.238477 424.860312 
L 323.711423 427.631423 
L 328.184369 430.141725 
L 332.657315 432.391215 
L 337.130261 434.379896 
L 341.603206 436.107765 
L 346.076152 437.574824 
L 350.549098 438.781073 
L 355.022044 439.726511 
L 359.49499 440.411139 
L 363.967936 440.834956 
L 368.440882 440.997962 
L 372.913828 440.900158 
L 377.386774 440.541544 
L 381.859719 439.922119 
L 386.332665 439.041884 
L 390.805611 437.900838 
L 395.278557 436.498981 
L 399.751503 434.836314 
L 404.224449 432.912836 
L 408.697395 430.728548 
L 413.170341 428.28345 
L 417.643287 425.57754 
L 422.116232 422.610821 
L 426.589178 419.383291 
L 431.062124 415.89495 
L 435.53507 412.145799 
L 440.008016 408.135837 
L 444.480962 403.865065 
L 448.953908 399.333482 
L 453.426854 394.541089 
L 459.018036 388.183832 
L 464.609218 381.41906 
L 470.200401 374.24677 
L 475.791583 366.666965 
L 481.382766 358.679642 
L 486.973948 350.284804 
L 492.56513 341.482449 
L 498.156313 332.272577 
L 503.747495 322.655189 
L 509.338677 312.630285 
L 514.92986 302.197864 
L 520.521042 291.357927 
L 527.230461 277.812081 
L 533.93988 263.679411 
L 540.649299 248.959917 
L 547.358717 233.6536 
L 554.068136 217.760459 
L 560.777555 201.280494 
L 567.486974 184.213706 
L 574.196393 166.560094 
L 580.905812 148.319658 
L 587.61523 129.492399 
L 594.324649 110.078316 
L 602.152305 86.686873 
L 609.97996 62.496697 
L 617.807615 37.507789 
L 625.635271 11.720149 
L 629.409178 -1 
L 629.409178 -1 
" style="fill:none;stroke:#add8e6;stroke-linecap:square;stroke-width:1.5;"/>
   </g>
   <g id="line2d_3">
    <path clip-path="url(#p3b6ee03174)" d="M 90 155.61 
L 648 155.61 
" style="fill:none;stroke:#000000;stroke-dasharray:1.5,2.475;stroke-dashoffset:0;stroke-width:1.5;"/>
   </g>
   <g id="patch_2">
    <path d="M 642.883357 441 
Q 368.000309 441 91.999227 441 
" style="fill:none;stroke:#000000;stroke-linecap:round;"/>
    <path d="M 636.483357 437.8 
L 642.883357 441 
L 636.483357 444.2 
" style="fill:none;stroke:#000000;stroke-linecap:round;"/>
   </g>
   <g id="text_1">
    <!-- $k$ -->
    <g transform="translate(648 445.415)scale(0.16 -0.16)">
     <defs>
      <path d="M 18.3125 75.984375 
L 27.296875 75.984375 
L 18.703125 31.6875 
L 49.515625 54.6875 
L 61.1875 54.6875 
L 26.8125 28.515625 
L 51.90625 0 
L 41.015625 0 
L 17.671875 26.703125 
L 12.5 0 
L 3.515625 0 
z
" id="DejaVuSans-Oblique-107"/>
     </defs>
     <use transform="translate(0 0.015625)" xlink:href="#DejaVuSans-Oblique-107"/>
    </g>
   </g>
   <g id="patch_3">
    <path d="M 369 68.925357 
Q 369 253.402858 369 438.998394 
" style="fill:none;stroke:#000000;stroke-linecap:round;"/>
    <path d="M 365.8 75.325357 
L 369 68.925357 
L 372.2 75.325357 
" style="fill:none;stroke:#000000;stroke-linecap:round;"/>
   </g>
   <g id="text_2">
    <!-- $ε$ -->
    <g transform="translate(364.6 60.48)scale(0.16 -0.16)">
     <defs>
      <path d="M 19.734375 29.5 
Q 14.453125 30.671875 12.15625 33.84375 
Q 10.453125 36.078125 10.453125 39.109375 
Q 10.453125 47.40625 18.359375 52.25 
Q 24.609375 56.0625 34.1875 56.0625 
Q 37.890625 56.0625 41.9375 55.46875 
Q 46 54.890625 50.53125 53.71875 
L 48.96875 45.5625 
Q 44.484375 46.96875 40.71875 47.609375 
Q 36.859375 48.25 33.40625 48.25 
Q 27.59375 48.25 23.78125 46 
Q 19.1875 43.3125 19.1875 39.40625 
Q 19.1875 36.8125 21.578125 35.015625 
Q 24.421875 32.859375 30.078125 32.859375 
L 37.640625 32.859375 
L 36.234375 25.4375 
L 29 25.4375 
Q 22.265625 25.4375 18.3125 22.953125 
Q 12.9375 19.578125 12.9375 14.3125 
Q 12.9375 10.984375 15.828125 8.796875 
Q 19.4375 6.0625 26.8125 6.0625 
Q 31.34375 6.0625 35.6875 6.9375 
Q 40.046875 7.859375 43.84375 9.671875 
L 42.1875 1.3125 
Q 37.546875 -0.046875 33.296875 -0.734375 
Q 29.046875 -1.421875 25.140625 -1.421875 
Q 13.53125 -1.421875 8.0625 3.03125 
Q 3.90625 6.453125 3.90625 12.203125 
Q 3.90625 19.96875 9.375 24.75 
Q 13.421875 28.328125 19.734375 29.5 
z
" id="DejaVuSans-Oblique-949"/>
     </defs>
     <use transform="translate(0 0.9375)" xlink:href="#DejaVuSans-Oblique-949"/>
    </g>
   </g>
   <g id="text_3">
    <!-- $k_F$ -->
    <g transform="translate(570.17 456.6985)scale(0.16 -0.16)">
     <defs>
      <path d="M 16.890625 72.90625 
L 58.6875 72.90625 
L 57.078125 64.59375 
L 25.09375 64.59375 
L 20.90625 43.109375 
L 49.8125 43.109375 
L 48.1875 34.8125 
L 19.28125 34.8125 
L 12.5 0 
L 2.6875 0 
z
" id="DejaVuSans-Oblique-70"/>
     </defs>
     <use transform="translate(0 0.015625)" xlink:href="#DejaVuSans-Oblique-107"/>
     <use transform="translate(57.910156 -16.390625)scale(0.7)" xlink:href="#DejaVuSans-Oblique-70"/>
    </g>
   </g>
   <g id="text_4">
    <!-- $ε_F$ -->
    <g transform="translate(348.4375 147.341)scale(0.16 -0.16)">
     <use transform="translate(0 0.9375)" xlink:href="#DejaVuSans-Oblique-949"/>
     <use transform="translate(54.052734 -15.46875)scale(0.7)" xlink:href="#DejaVuSans-Oblique-70"/>
    </g>
   </g>
   <g id="PathCollection_1">
    <defs>
     <path d="M 0 1.65 
C 0.437585 1.65 0.857307 1.476146 1.166726 1.166726 
C 1.476146 0.857307 1.65 0.437585 1.65 0 
C 1.65 -0.437585 1.476146 -0.857307 1.166726 -1.166726 
C 0.857307 -1.476146 0.437585 -1.65 0 -1.65 
C -0.437585 -1.65 -0.857307 -1.476146 -1.166726 -1.166726 
C -1.476146 -0.857307 -1.65 -0.437585 -1.65 0 
C -1.65 0.437585 -1.476146 0.857307 -1.166726 1.166726 
C -0.857307 1.476146 -0.437585 1.65 0 1.65 
z
" id="m01796c0408" style="stroke:#000000;"/>
    </defs>
    <g clip-path="url(#p3b6ee03174)">
     <use style="stroke:#000000;" x="163.272727" xlink:href="#m01796c0408" y="165.138206"/>
     <use style="stroke:#000000;" x="168.909091" xlink:href="#m01796c0408" y="180.046856"/>
     <use style="stroke:#000000;" x="174.545455" xlink:href="#m01796c0408" y="194.541377"/>
     <use style="stroke:#000000;" x="180.181818" xlink:href="#m01796c0408" y="208.621769"/>
     <use style="stroke:#000000;" x="185.818182" xlink:href="#m01796c0408" y="222.288032"/>
     <use style="stroke:#000000;" x="191.454545" xlink:href="#m01796c0408" y="235.540165"/>
     <use style="stroke:#000000;" x="197.090909" xlink:href="#m01796c0408" y="248.37817"/>
     <use style="stroke:#000000;" x="202.727273" xlink:href="#m01796c0408" y="260.802045"/>
     <use style="stroke:#000000;" x="208.363636" xlink:href="#m01796c0408" y="272.811791"/>
     <use style="stroke:#000000;" x="214" xlink:href="#m01796c0408" y="284.407407"/>
     <use style="stroke:#000000;" x="219.636364" xlink:href="#m01796c0408" y="295.588895"/>
     <use style="stroke:#000000;" x="225.272727" xlink:href="#m01796c0408" y="306.356253"/>
     <use style="stroke:#000000;" x="230.909091" xlink:href="#m01796c0408" y="316.709483"/>
     <use style="stroke:#000000;" x="236.545455" xlink:href="#m01796c0408" y="326.648583"/>
     <use style="stroke:#000000;" x="242.181818" xlink:href="#m01796c0408" y="336.173554"/>
     <use style="stroke:#000000;" x="247.818182" xlink:href="#m01796c0408" y="345.284395"/>
     <use style="stroke:#000000;" x="253.454545" xlink:href="#m01796c0408" y="353.981108"/>
     <use style="stroke:#000000;" x="259.090909" xlink:href="#m01796c0408" y="362.263691"/>
     <use style="stroke:#000000;" x="264.727273" xlink:href="#m01796c0408" y="370.132146"/>
     <use style="stroke:#000000;" x="270.363636" xlink:href="#m01796c0408" y="377.586471"/>
     <use style="stroke:#000000;" x="276" xlink:href="#m01796c0408" y="384.626667"/>
     <use style="stroke:#000000;" x="281.636364" xlink:href="#m01796c0408" y="391.252733"/>
     <use style="stroke:#000000;" x="287.272727" xlink:href="#m01796c0408" y="397.464671"/>
     <use style="stroke:#000000;" x="292.909091" xlink:href="#m01796c0408" y="403.262479"/>
     <use style="stroke:#000000;" x="298.545455" xlink:href="#m01796c0408" y="408.646159"/>
     <use style="stroke:#000000;" x="304.181818" xlink:href="#m01796c0408" y="413.615709"/>
     <use style="stroke:#000000;" x="309.818182" xlink:href="#m01796c0408" y="418.171129"/>
     <use style="stroke:#000000;" x="315.454545" xlink:href="#m01796c0408" y="422.312421"/>
     <use style="stroke:#000000;" x="321.090909" xlink:href="#m01796c0408" y="426.039584"/>
     <use style="stroke:#000000;" x="326.727273" xlink:href="#m01796c0408" y="429.352617"/>
     <use style="stroke:#000000;" x="332.363636" xlink:href="#m01796c0408" y="432.251521"/>
     <use style="stroke:#000000;" x="338" xlink:href="#m01796c0408" y="434.736296"/>
     <use style="stroke:#000000;" x="343.636364" xlink:href="#m01796c0408" y="436.806942"/>
     <use style="stroke:#000000;" x="349.272727" xlink:href="#m01796c0408" y="438.463459"/>
     <use style="stroke:#000000;" x="354.909091" xlink:href="#m01796c0408" y="439.705846"/>
     <use style="stroke:#000000;" x="360.545455" xlink:href="#m01796c0408" y="440.534105"/>
     <use style="stroke:#000000;" x="366.181818" xlink:href="#m01796c0408" y="440.948234"/>
     <use style="stroke:#000000;" x="371.818182" xlink:href="#m01796c0408" y="440.948234"/>
     <use style="stroke:#000000;" x="377.454545" xlink:href="#m01796c0408" y="440.534105"/>
     <use style="stroke:#000000;" x="383.090909" xlink:href="#m01796c0408" y="439.705846"/>
     <use style="stroke:#000000;" x="388.727273" xlink:href="#m01796c0408" y="438.463459"/>
     <use style="stroke:#000000;" x="394.363636" xlink:href="#m01796c0408" y="436.806942"/>
     <use style="stroke:#000000;" x="400" xlink:href="#m01796c0408" y="434.736296"/>
     <use style="stroke:#000000;" x="405.636364" xlink:href="#m01796c0408" y="432.251521"/>
     <use style="stroke:#000000;" x="411.272727" xlink:href="#m01796c0408" y="429.352617"/>
     <use style="stroke:#000000;" x="416.909091" xlink:href="#m01796c0408" y="426.039584"/>
     <use style="stroke:#000000;" x="422.545455" xlink:href="#m01796c0408" y="422.312421"/>
     <use style="stroke:#000000;" x="428.181818" xlink:href="#m01796c0408" y="418.171129"/>
     <use style="stroke:#000000;" x="433.818182" xlink:href="#m01796c0408" y="413.615709"/>
     <use style="stroke:#000000;" x="439.454545" xlink:href="#m01796c0408" y="408.646159"/>
     <use style="stroke:#000000;" x="445.090909" xlink:href="#m01796c0408" y="403.262479"/>
     <use style="stroke:#000000;" x="450.727273" xlink:href="#m01796c0408" y="397.464671"/>
     <use style="stroke:#000000;" x="456.363636" xlink:href="#m01796c0408" y="391.252733"/>
     <use style="stroke:#000000;" x="462" xlink:href="#m01796c0408" y="384.626667"/>
     <use style="stroke:#000000;" x="467.636364" xlink:href="#m01796c0408" y="377.586471"/>
     <use style="stroke:#000000;" x="473.272727" xlink:href="#m01796c0408" y="370.132146"/>
     <use style="stroke:#000000;" x="478.909091" xlink:href="#m01796c0408" y="362.263691"/>
     <use style="stroke:#000000;" x="484.545455" xlink:href="#m01796c0408" y="353.981108"/>
     <use style="stroke:#000000;" x="490.181818" xlink:href="#m01796c0408" y="345.284395"/>
     <use style="stroke:#000000;" x="495.818182" xlink:href="#m01796c0408" y="336.173554"/>
     <use style="stroke:#000000;" x="501.454545" xlink:href="#m01796c0408" y="326.648583"/>
     <use style="stroke:#000000;" x="507.090909" xlink:href="#m01796c0408" y="316.709483"/>
     <use style="stroke:#000000;" x="512.727273" xlink:href="#m01796c0408" y="306.356253"/>
     <use style="stroke:#000000;" x="518.363636" xlink:href="#m01796c0408" y="295.588895"/>
     <use style="stroke:#000000;" x="524" xlink:href="#m01796c0408" y="284.407407"/>
     <use style="stroke:#000000;" x="529.636364" xlink:href="#m01796c0408" y="272.811791"/>
     <use style="stroke:#000000;" x="535.272727" xlink:href="#m01796c0408" y="260.802045"/>
     <use style="stroke:#000000;" x="540.909091" xlink:href="#m01796c0408" y="248.37817"/>
     <use style="stroke:#000000;" x="546.545455" xlink:href="#m01796c0408" y="235.540165"/>
     <use style="stroke:#000000;" x="552.181818" xlink:href="#m01796c0408" y="222.288032"/>
     <use style="stroke:#000000;" x="557.818182" xlink:href="#m01796c0408" y="208.621769"/>
     <use style="stroke:#000000;" x="563.454545" xlink:href="#m01796c0408" y="194.541377"/>
     <use style="stroke:#000000;" x="569.090909" xlink:href="#m01796c0408" y="180.046856"/>
     <use style="stroke:#000000;" x="574.727273" xlink:href="#m01796c0408" y="165.138206"/>
    </g>
   </g>
   <g id="PathCollection_2">
    <defs>
     <path d="M 0 1.65 
C 0.437585 1.65 0.857307 1.476146 1.166726 1.166726 
C 1.476146 0.857307 1.65 0.437585 1.65 -0 
C 1.65 -0.437585 1.476146 -0.857307 1.166726 -1.166726 
C 0.857307 -1.476146 0.437585 -1.65 0 -1.65 
C -0.437585 -1.65 -0.857307 -1.476146 -1.166726 -1.166726 
C -1.476146 -0.857307 -1.65 -0.437585 -1.65 0 
C -1.65 0.437585 -1.476146 0.857307 -1.166726 1.166726 
C -0.857307 1.476146 -0.437585 1.65 0 1.65 
z
" id="C0_0_19672d8302"/>
    </defs>
    <g clip-path="url(#p3b6ee03174)">
     <use style="fill:none;stroke:#000000;" x="90" xlink:href="#C0_0_19672d8302" y="-66.36"/>
    </g>
    <g clip-path="url(#p3b6ee03174)">
     <use style="fill:none;stroke:#000000;" x="95.636364" xlink:href="#C0_0_19672d8302" y="-46.067671"/>
    </g>
    <g clip-path="url(#p3b6ee03174)">
     <use style="fill:none;stroke:#000000;" x="101.272727" xlink:href="#C0_0_19672d8302" y="-26.18947"/>
    </g>
    <g clip-path="url(#p3b6ee03174)">
     <use style="fill:none;stroke:#000000;" x="106.909091" xlink:href="#C0_0_19672d8302" y="-6.725399"/>
    </g>
    <g clip-path="url(#p3b6ee03174)">
     <use style="fill:none;stroke:#000000;" x="112.545455" xlink:href="#C0_0_19672d8302" y="12.324542"/>
    </g>
    <g clip-path="url(#p3b6ee03174)">
     <use style="fill:none;stroke:#000000;" x="118.181818" xlink:href="#C0_0_19672d8302" y="30.960355"/>
    </g>
    <g clip-path="url(#p3b6ee03174)">
     <use style="fill:none;stroke:#000000;" x="123.818182" xlink:href="#C0_0_19672d8302" y="49.182039"/>
    </g>
    <g clip-path="url(#p3b6ee03174)">
     <use style="fill:none;stroke:#000000;" x="129.454545" xlink:href="#C0_0_19672d8302" y="66.989593"/>
    </g>
    <g clip-path="url(#p3b6ee03174)">
     <use style="fill:none;stroke:#000000;" x="135.090909" xlink:href="#C0_0_19672d8302" y="84.383018"/>
    </g>
    <g clip-path="url(#p3b6ee03174)">
     <use style="fill:none;stroke:#000000;" x="140.727273" xlink:href="#C0_0_19672d8302" y="101.362314"/>
    </g>
    <g clip-path="url(#p3b6ee03174)">
     <use style="fill:none;stroke:#000000;" x="146.363636" xlink:href="#C0_0_19672d8302" y="117.927481"/>
    </g>
    <g clip-path="url(#p3b6ee03174)">
     <use style="fill:none;stroke:#000000;" x="152" xlink:href="#C0_0_19672d8302" y="134.078519"/>
    </g>
    <g clip-path="url(#p3b6ee03174)">
     <use style="fill:none;stroke:#000000;" x="157.636364" xlink:href="#C0_0_19672d8302" y="149.815427"/>
    </g>
    <g clip-path="url(#p3b6ee03174)">
     <use style="fill:none;stroke:#000000;" x="163.272727" xlink:href="#C0_0_19672d8302" y="165.138206"/>
    </g>
    <g clip-path="url(#p3b6ee03174)">
     <use style="fill:none;stroke:#000000;" x="168.909091" xlink:href="#C0_0_19672d8302" y="180.046856"/>
    </g>
    <g clip-path="url(#p3b6ee03174)">
     <use style="fill:none;stroke:#000000;" x="174.545455" xlink:href="#C0_0_19672d8302" y="194.541377"/>
    </g>
    <g clip-path="url(#p3b6ee03174)">
     <use style="fill:none;stroke:#000000;" x="180.181818" xlink:href="#C0_0_19672d8302" y="208.621769"/>
    </g>
    <g clip-path="url(#p3b6ee03174)">
     <use style="fill:none;stroke:#000000;" x="185.818182" xlink:href="#C0_0_19672d8302" y="222.288032"/>
    </g>
    <g clip-path="url(#p3b6ee03174)">
     <use style="fill:none;stroke:#000000;" x="191.454545" xlink:href="#C0_0_19672d8302" y="235.540165"/>
    </g>
    <g clip-path="url(#p3b6ee03174)">
     <use style="fill:none;stroke:#000000;" x="197.090909" xlink:href="#C0_0_19672d8302" y="248.37817"/>
    </g>
    <g clip-path="url(#p3b6ee03174)">
     <use style="fill:none;stroke:#000000;" x="202.727273" xlink:href="#C0_0_19672d8302" y="260.802045"/>
    </g>
    <g clip-path="url(#p3b6ee03174)">
     <use style="fill:none;stroke:#000000;" x="208.363636" xlink:href="#C0_0_19672d8302" y="272.811791"/>
    </g>
    <g clip-path="url(#p3b6ee03174)">
     <use style="fill:none;stroke:#000000;" x="214" xlink:href="#C0_0_19672d8302" y="284.407407"/>
    </g>
    <g clip-path="url(#p3b6ee03174)">
     <use style="fill:none;stroke:#000000;" x="219.636364" xlink:href="#C0_0_19672d8302" y="295.588895"/>
    </g>
    <g clip-path="url(#p3b6ee03174)">
     <use style="fill:none;stroke:#000000;" x="225.272727" xlink:href="#C0_0_19672d8302" y="306.356253"/>
    </g>
    <g clip-path="url(#p3b6ee03174)">
     <use style="fill:none;stroke:#000000;" x="230.909091" xlink:href="#C0_0_19672d8302" y="316.709483"/>
    </g>
    <g clip-path="url(#p3b6ee03174)">
     <use style="fill:none;stroke:#000000;" x="236.545455" xlink:href="#C0_0_19672d8302" y="326.648583"/>
    </g>
    <g clip-path="url(#p3b6ee03174)">
     <use style="fill:none;stroke:#000000;" x="242.181818" xlink:href="#C0_0_19672d8302" y="336.173554"/>
    </g>
    <g clip-path="url(#p3b6ee03174)">
     <use style="fill:none;stroke:#000000;" x="247.818182" xlink:href="#C0_0_19672d8302" y="345.284395"/>
    </g>
    <g clip-path="url(#p3b6ee03174)">
     <use style="fill:none;stroke:#000000;" x="253.454545" xlink:href="#C0_0_19672d8302" y="353.981108"/>
    </g>
    <g clip-path="url(#p3b6ee03174)">
     <use style="fill:none;stroke:#000000;" x="259.090909" xlink:href="#C0_0_19672d8302" y="362.263691"/>
    </g>
    <g clip-path="url(#p3b6ee03174)">
     <use style="fill:none;stroke:#000000;" x="264.727273" xlink:href="#C0_0_19672d8302" y="370.132146"/>
    </g>
    <g clip-path="url(#p3b6ee03174)">
     <use style="fill:none;stroke:#000000;" x="270.363636" xlink:href="#C0_0_19672d8302" y="377.586471"/>
    </g>
    <g clip-path="url(#p3b6ee03174)">
     <use style="fill:none;stroke:#000000;" x="276" xlink:href="#C0_0_19672d8302" y="384.626667"/>
    </g>
    <g clip-path="url(#p3b6ee03174)">
     <use style="fill:none;stroke:#000000;" x="281.636364" xlink:href="#C0_0_19672d8302" y="391.252733"/>
    </g>
    <g clip-path="url(#p3b6ee03174)">
     <use style="fill:none;stroke:#000000;" x="287.272727" xlink:href="#C0_0_19672d8302" y="397.464671"/>
    </g>
    <g clip-path="url(#p3b6ee03174)">
     <use style="fill:none;stroke:#000000;" x="292.909091" xlink:href="#C0_0_19672d8302" y="403.262479"/>
    </g>
    <g clip-path="url(#p3b6ee03174)">
     <use style="fill:none;stroke:#000000;" x="298.545455" xlink:href="#C0_0_19672d8302" y="408.646159"/>
    </g>
    <g clip-path="url(#p3b6ee03174)">
     <use style="fill:none;stroke:#000000;" x="304.181818" xlink:href="#C0_0_19672d8302" y="413.615709"/>
    </g>
    <g clip-path="url(#p3b6ee03174)">
     <use style="fill:none;stroke:#000000;" x="309.818182" xlink:href="#C0_0_19672d8302" y="418.171129"/>
    </g>
    <g clip-path="url(#p3b6ee03174)">
     <use style="fill:none;stroke:#000000;" x="315.454545" xlink:href="#C0_0_19672d8302" y="422.312421"/>
    </g>
    <g clip-path="url(#p3b6ee03174)">
     <use style="fill:none;stroke:#000000;" x="321.090909" xlink:href="#C0_0_19672d8302" y="426.039584"/>
    </g>
    <g clip-path="url(#p3b6ee03174)">
     <use style="fill:none;stroke:#000000;" x="326.727273" xlink:href="#C0_0_19672d8302" y="429.352617"/>
    </g>
    <g clip-path="url(#p3b6ee03174)">
     <use style="fill:none;stroke:#000000;" x="332.363636" xlink:href="#C0_0_19672d8302" y="432.251521"/>
    </g>
    <g clip-path="url(#p3b6ee03174)">
     <use style="fill:none;stroke:#000000;" x="338" xlink:href="#C0_0_19672d8302" y="434.736296"/>
    </g>
    <g clip-path="url(#p3b6ee03174)">
     <use style="fill:none;stroke:#000000;" x="343.636364" xlink:href="#C0_0_19672d8302" y="436.806942"/>
    </g>
    <g clip-path="url(#p3b6ee03174)">
     <use style="fill:none;stroke:#000000;" x="349.272727" xlink:href="#C0_0_19672d8302" y="438.463459"/>
    </g>
    <g clip-path="url(#p3b6ee03174)">
     <use style="fill:none;stroke:#000000;" x="354.909091" xlink:href="#C0_0_19672d8302" y="439.705846"/>
    </g>
    <g clip-path="url(#p3b6ee03174)">
     <use style="fill:none;stroke:#000000;" x="360.545455" xlink:href="#C0_0_19672d8302" y="440.534105"/>
    </g>
    <g clip-path="url(#p3b6ee03174)">
     <use style="fill:none;stroke:#000000;" x="366.181818" xlink:href="#C0_0_19672d8302" y="440.948234"/>
    </g>
    <g clip-path="url(#p3b6ee03174)">
     <use style="fill:none;stroke:#000000;" x="371.818182" xlink:href="#C0_0_19672d8302" y="440.948234"/>
    </g>
    <g clip-path="url(#p3b6ee03174)">
     <use style="fill:none;stroke:#000000;" x="377.454545" xlink:href="#C0_0_19672d8302" y="440.534105"/>
    </g>
    <g clip-path="url(#p3b6ee03174)">
     <use style="fill:none;stroke:#000000;" x="383.090909" xlink:href="#C0_0_19672d8302" y="439.705846"/>
    </g>
    <g clip-path="url(#p3b6ee03174)">
     <use style="fill:none;stroke:#000000;" x="388.727273" xlink:href="#C0_0_19672d8302" y="438.463459"/>
    </g>
    <g clip-path="url(#p3b6ee03174)">
     <use style="fill:none;stroke:#000000;" x="394.363636" xlink:href="#C0_0_19672d8302" y="436.806942"/>
    </g>
    <g clip-path="url(#p3b6ee03174)">
     <use style="fill:none;stroke:#000000;" x="400" xlink:href="#C0_0_19672d8302" y="434.736296"/>
    </g>
    <g clip-path="url(#p3b6ee03174)">
     <use style="fill:none;stroke:#000000;" x="405.636364" xlink:href="#C0_0_19672d8302" y="432.251521"/>
    </g>
    <g clip-path="url(#p3b6ee03174)">
     <use style="fill:none;stroke:#000000;" x="411.272727" xlink:href="#C0_0_19672d8302" y="429.352617"/>
    </g>
    <g clip-path="url(#p3b6ee03174)">
     <use style="fill:none;stroke:#000000;" x="416.909091" xlink:href="#C0_0_19672d8302" y="426.039584"/>
    </g>
    <g clip-path="url(#p3b6ee03174)">
     <use style="fill:none;stroke:#000000;" x="422.545455" xlink:href="#C0_0_19672d8302" y="422.312421"/>
    </g>
    <g clip-path="url(#p3b6ee03174)">
     <use style="fill:none;stroke:#000000;" x="428.181818" xlink:href="#C0_0_19672d8302" y="418.171129"/>
    </g>
    <g clip-path="url(#p3b6ee03174)">
     <use style="fill:none;stroke:#000000;" x="433.818182" xlink:href="#C0_0_19672d8302" y="413.615709"/>
    </g>
    <g clip-path="url(#p3b6ee03174)">
     <use style="fill:none;stroke:#000000;" x="439.454545" xlink:href="#C0_0_19672d8302" y="408.646159"/>
    </g>
    <g clip-path="url(#p3b6ee03174)">
     <use style="fill:none;stroke:#000000;" x="445.090909" xlink:href="#C0_0_19672d8302" y="403.262479"/>
    </g>
    <g clip-path="url(#p3b6ee03174)">
     <use style="fill:none;stroke:#000000;" x="450.727273" xlink:href="#C0_0_19672d8302" y="397.464671"/>
    </g>
    <g clip-path="url(#p3b6ee03174)">
     <use style="fill:none;stroke:#000000;" x="456.363636" xlink:href="#C0_0_19672d8302" y="391.252733"/>
    </g>
    <g clip-path="url(#p3b6ee03174)">
     <use style="fill:none;stroke:#000000;" x="462" xlink:href="#C0_0_19672d8302" y="384.626667"/>
    </g>
    <g clip-path="url(#p3b6ee03174)">
     <use style="fill:none;stroke:#000000;" x="467.636364" xlink:href="#C0_0_19672d8302" y="377.586471"/>
    </g>
    <g clip-path="url(#p3b6ee03174)">
     <use style="fill:none;stroke:#000000;" x="473.272727" xlink:href="#C0_0_19672d8302" y="370.132146"/>
    </g>
    <g clip-path="url(#p3b6ee03174)">
     <use style="fill:none;stroke:#000000;" x="478.909091" xlink:href="#C0_0_19672d8302" y="362.263691"/>
    </g>
    <g clip-path="url(#p3b6ee03174)">
     <use style="fill:none;stroke:#000000;" x="484.545455" xlink:href="#C0_0_19672d8302" y="353.981108"/>
    </g>
    <g clip-path="url(#p3b6ee03174)">
     <use style="fill:none;stroke:#000000;" x="490.181818" xlink:href="#C0_0_19672d8302" y="345.284395"/>
    </g>
    <g clip-path="url(#p3b6ee03174)">
     <use style="fill:none;stroke:#000000;" x="495.818182" xlink:href="#C0_0_19672d8302" y="336.173554"/>
    </g>
    <g clip-path="url(#p3b6ee03174)">
     <use style="fill:none;stroke:#000000;" x="501.454545" xlink:href="#C0_0_19672d8302" y="326.648583"/>
    </g>
    <g clip-path="url(#p3b6ee03174)">
     <use style="fill:none;stroke:#000000;" x="507.090909" xlink:href="#C0_0_19672d8302" y="316.709483"/>
    </g>
    <g clip-path="url(#p3b6ee03174)">
     <use style="fill:none;stroke:#000000;" x="512.727273" xlink:href="#C0_0_19672d8302" y="306.356253"/>
    </g>
    <g clip-path="url(#p3b6ee03174)">
     <use style="fill:none;stroke:#000000;" x="518.363636" xlink:href="#C0_0_19672d8302" y="295.588895"/>
    </g>
    <g clip-path="url(#p3b6ee03174)">
     <use style="fill:none;stroke:#000000;" x="524" xlink:href="#C0_0_19672d8302" y="284.407407"/>
    </g>
    <g clip-path="url(#p3b6ee03174)">
     <use style="fill:none;stroke:#000000;" x="529.636364" xlink:href="#C0_0_19672d8302" y="272.811791"/>
    </g>
    <g clip-path="url(#p3b6ee03174)">
     <use style="fill:none;stroke:#000000;" x="535.272727" xlink:href="#C0_0_19672d8302" y="260.802045"/>
    </g>
    <g clip-path="url(#p3b6ee03174)">
     <use style="fill:none;stroke:#000000;" x="540.909091" xlink:href="#C0_0_19672d8302" y="248.37817"/>
    </g>
    <g clip-path="url(#p3b6ee03174)">
     <use style="fill:none;stroke:#000000;" x="546.545455" xlink:href="#C0_0_19672d8302" y="235.540165"/>
    </g>
    <g clip-path="url(#p3b6ee03174)">
     <use style="fill:none;stroke:#000000;" x="552.181818" xlink:href="#C0_0_19672d8302" y="222.288032"/>
    </g>
    <g clip-path="url(#p3b6ee03174)">
     <use style="fill:none;stroke:#000000;" x="557.818182" xlink:href="#C0_0_19672d8302" y="208.621769"/>
    </g>
    <g clip-path="url(#p3b6ee03174)">
     <use style="fill:none;stroke:#000000;" x="563.454545" xlink:href="#C0_0_19672d8302" y="194.541377"/>
    </g>
    <g clip-path="url(#p3b6ee03174)">
     <use style="fill:none;stroke:#000000;" x="569.090909" xlink:href="#C0_0_19672d8302" y="180.046856"/>
    </g>
    <g clip-path="url(#p3b6ee03174)">
     <use style="fill:none;stroke:#000000;" x="574.727273" xlink:href="#C0_0_19672d8302" y="165.138206"/>
    </g>
    <g clip-path="url(#p3b6ee03174)">
     <use style="fill:none;stroke:#000000;" x="580.363636" xlink:href="#C0_0_19672d8302" y="149.815427"/>
    </g>
    <g clip-path="url(#p3b6ee03174)">
     <use style="fill:none;stroke:#000000;" x="586" xlink:href="#C0_0_19672d8302" y="134.078519"/>
    </g>
    <g clip-path="url(#p3b6ee03174)">
     <use style="fill:none;stroke:#000000;" x="591.636364" xlink:href="#C0_0_19672d8302" y="117.927481"/>
    </g>
    <g clip-path="url(#p3b6ee03174)">
     <use style="fill:none;stroke:#000000;" x="597.272727" xlink:href="#C0_0_19672d8302" y="101.362314"/>
    </g>
    <g clip-path="url(#p3b6ee03174)">
     <use style="fill:none;stroke:#000000;" x="602.909091" xlink:href="#C0_0_19672d8302" y="84.383018"/>
    </g>
    <g clip-path="url(#p3b6ee03174)">
     <use style="fill:none;stroke:#000000;" x="608.545455" xlink:href="#C0_0_19672d8302" y="66.989593"/>
    </g>
    <g clip-path="url(#p3b6ee03174)">
     <use style="fill:none;stroke:#000000;" x="614.181818" xlink:href="#C0_0_19672d8302" y="49.182039"/>
    </g>
    <g clip-path="url(#p3b6ee03174)">
     <use style="fill:none;stroke:#000000;" x="619.818182" xlink:href="#C0_0_19672d8302" y="30.960355"/>
    </g>
    <g clip-path="url(#p3b6ee03174)">
     <use style="fill:none;stroke:#000000;" x="625.454545" xlink:href="#C0_0_19672d8302" y="12.324542"/>
    </g>
    <g clip-path="url(#p3b6ee03174)">
     <use style="fill:none;stroke:#000000;" x="631.090909" xlink:href="#C0_0_19672d8302" y="-6.725399"/>
    </g>
    <g clip-path="url(#p3b6ee03174)">
     <use style="fill:none;stroke:#000000;" x="636.727273" xlink:href="#C0_0_19672d8302" y="-26.18947"/>
    </g>
    <g clip-path="url(#p3b6ee03174)">
     <use style="fill:none;stroke:#000000;" x="642.363636" xlink:href="#C0_0_19672d8302" y="-46.067671"/>
    </g>
    <g clip-path="url(#p3b6ee03174)">
     <use style="fill:none;stroke:#000000;" x="648" xlink:href="#C0_0_19672d8302" y="-66.36"/>
    </g>
   </g>
  </g>
 </g>
 <defs>
  <clipPath id="p3b6ee03174">
   <rect height="380.52" width="558" x="90" y="60.48"/>
  </clipPath>
 </defs>
</svg>
