<?xml version="1.0" encoding="UTF-8" standalone="no"?>
<!-- Created with Inkscape (http://www.inkscape.org/) -->

<svg
   xmlns:dc="http://purl.org/dc/elements/1.1/"
   xmlns:cc="http://creativecommons.org/ns#"
   xmlns:rdf="http://www.w3.org/1999/02/22-rdf-syntax-ns#"
   xmlns:svg="http://www.w3.org/2000/svg"
   xmlns="http://www.w3.org/2000/svg"
   xmlns:sodipodi="http://sodipodi.sourceforge.net/DTD/sodipodi-0.dtd"
   xmlns:inkscape="http://www.inkscape.org/namespaces/inkscape"
   width="87.968025mm"
   height="54.120308mm"
   viewBox="0 0 311.69773 191.76487"
   id="svg2"
   version="1.1"
   inkscape:version="0.91 r13725"
   sodipodi:docname="holes.svg">
  <sodipodi:namedview
     id="base"
     pagecolor="#ffffff"
     bordercolor="#666666"
     borderopacity="1.0"
     inkscape:pageopacity="0.0"
     inkscape:pageshadow="2"
     inkscape:zoom="3.959798"
     inkscape:cx="170.90092"
     inkscape:cy="119.6763"
     inkscape:document-units="px"
     inkscape:current-layer="layer1"
     showgrid="false"
     inkscape:window-width="1855"
     inkscape:window-height="1056"
     inkscape:window-x="65"
     inkscape:window-y="24"
     inkscape:window-maximized="1"
     inkscape:object-nodes="true"
     fit-margin-top="0"
     fit-margin-left="0"
     fit-margin-right="0"
     fit-margin-bottom="0"
     inkscape:object-paths="true"
     inkscape:snap-object-midpoints="true" />
  <defs
     id="defs4">
    <marker
       inkscape:isstock="true"
       style="overflow:visible"
       id="marker5527"
       refX="0"
       refY="0"
       orient="auto"
       inkscape:stockid="Arrow1Lend">
      <path
         transform="matrix(-0.8,0,0,-0.8,-10,0)"
         style="fill:#000000;fill-opacity:1;fill-rule:evenodd;stroke:#000000;stroke-width:1pt;stroke-opacity:1"
         d="M 0,0 5,-5 -12.5,0 5,5 0,0 Z"
         id="path5529"
         inkscape:connector-curvature="0" />
    </marker>
    <marker
       inkscape:stockid="Arrow1Lend"
       orient="auto"
       refY="0"
       refX="0"
       id="marker5181"
       style="overflow:visible"
       inkscape:isstock="true">
      <path
         inkscape:connector-curvature="0"
         id="path5183"
         d="M 0,0 5,-5 -12.5,0 5,5 0,0 Z"
         style="fill:#000000;fill-opacity:1;fill-rule:evenodd;stroke:#000000;stroke-width:1pt;stroke-opacity:1"
         transform="matrix(-0.8,0,0,-0.8,-10,0)" />
    </marker>
    <marker
       inkscape:collect="always"
       inkscape:isstock="true"
       style="overflow:visible"
       id="Arrow1Lend"
       refX="0"
       refY="0"
       orient="auto"
       inkscape:stockid="Arrow1Lend">
      <path
         transform="matrix(-0.8,0,0,-0.8,-10,0)"
         style="fill:#000000;fill-opacity:1;fill-rule:evenodd;stroke:#000000;stroke-width:1pt;stroke-opacity:1"
         d="M 0,0 5,-5 -12.5,0 5,5 0,0 Z"
         id="path4164"
         inkscape:connector-curvature="0" />
    </marker>
    <marker
       inkscape:collect="always"
       inkscape:isstock="true"
       style="overflow:visible"
       id="Arrow1Lend-3"
       refX="0"
       refY="0"
       orient="auto"
       inkscape:stockid="Arrow1Lend">
      <path
         transform="matrix(-0.8,0,0,-0.8,-10,0)"
         style="fill:#000000;fill-opacity:1;fill-rule:evenodd;stroke:#000000;stroke-width:1pt;stroke-opacity:1"
         d="M 0,0 5,-5 -12.5,0 5,5 0,0 Z"
         id="path4164-6"
         inkscape:connector-curvature="0" />
    </marker>
  </defs>
  <metadata
     id="metadata7">
    <rdf:RDF>
      <cc:Work
         rdf:about="">
        <dc:format>image/svg+xml</dc:format>
        <dc:type
           rdf:resource="http://purl.org/dc/dcmitype/StillImage" />
        <dc:title></dc:title>
      </cc:Work>
    </rdf:RDF>
  </metadata>
  <g
     transform="translate(29.383135,-262.0179)"
     inkscape:label="Layer 1"
     inkscape:groupmode="layer"
     id="layer1">
    <path
       inkscape:connector-curvature="0"
       id="path4155"
       d="m 111.17501,453.78276 0,-187.17646"
       style="fill:none;fill-rule:evenodd;stroke:#000000;stroke-width:1.48831511;stroke-linecap:butt;stroke-linejoin:miter;stroke-miterlimit:4;stroke-dasharray:none;stroke-opacity:1;marker-end:url(#Arrow1Lend)" />
    <path
       sodipodi:nodetypes="cc"
       inkscape:connector-curvature="0"
       id="path4155-7"
       d="m -22.582644,418.84014 302.188474,0"
       style="fill:none;fill-rule:evenodd;stroke:#000000;stroke-width:1.48831511;stroke-linecap:butt;stroke-linejoin:miter;stroke-miterlimit:4;stroke-dasharray:none;stroke-opacity:1;marker-end:url(#Arrow1Lend-3)" />
    <path
       style="fill:none;fill-rule:evenodd;stroke:#000000;stroke-width:1px;stroke-linecap:butt;stroke-linejoin:miter;stroke-opacity:1"
       d="m 229.8097,410.75892 0,16.16244"
       id="path4868"
       inkscape:connector-curvature="0" />
    <path
       style="fill:none;fill-rule:evenodd;stroke:#000000;stroke-width:1px;stroke-linecap:butt;stroke-linejoin:miter;stroke-opacity:1"
       d="m -4.708127,410.75892 0,16.16244"
       id="path4868-3"
       inkscape:connector-curvature="0" />
    <path
       style="font-style:normal;font-variant:normal;font-weight:normal;font-stretch:normal;letter-spacing:normal;word-spacing:normal;text-anchor:start;fill:#000000;fill-opacity:1;fill-rule:evenodd;stroke:#000000;stroke-width:0;stroke-linecap:butt;stroke-linejoin:miter;stroke-miterlimit:10.43299961;stroke-dasharray:none;stroke-dashoffset:0;stroke-opacity:1"
       inkscape:connector-curvature="0"
       d="m 98.03571,270.0679 0,0 0.0125,0 0,-0.0125 0,0 0,-0.0125 0,-0.0125 0.0125,0 0,-0.0125 0,0 0,-0.0125 0.0125,-0.0125 0,0 0,-0.025 0.0125,-0.0125 0,-0.025 0.0125,-0.0125 0,-0.0125 0,-0.0125 0,-0.0125 0.0125,0 0,-0.0125 0,-0.0125 0,0 0,-0.0125 0,-0.0125 0,0 0,-0.0125 c 0,-0.0875 -0.075,-0.175 -0.175,-0.175 -0.075,0 -0.1125,0.0125 -0.1625,0.075 -0.0375,0.0125 -0.0375,0.05 -0.2,0.4125 -1.0625,2.5125 -1.825,3.5875 -4.7,3.5875 l -2.6125,0 c -0.25,0 -0.2875,0 -0.4,-0.025 -0.2,-0.0125 -0.2125,-0.05 -0.2125,-0.2 0,-0.125 0.0375,-0.225 0.075,-0.3875 l 1.2375,-4.95 1.775,0 c 1.4,0 1.5,0.3 1.5,0.8375 0,0.1875 0,0.35 -0.125,0.8875 -0.0375,0.0625 -0.05,0.1375 -0.05,0.1875 0,0.1375 0.0875,0.1875 0.2,0.1875 0.1625,0 0.175,-0.125 0.25,-0.375 l 1.025,-4.1625 c 0,-0.0875 -0.075,-0.175 -0.1875,-0.175 -0.1625,0 -0.175,0.0625 -0.25,0.3125 -0.3625,1.3875 -0.7125,1.775 -2.3125,1.775 l -1.7,0 1.1125,-4.4125 c 0.15,-0.625 0.1875,-0.675 0.925,-0.675 l 2.5625,0 c 2.2125,0 2.6625,0.5875 2.6625,1.95 0,0.025 0,0.525 -0.075,1.1125 -0.025,0.075 -0.0375,0.175 -0.0375,0.2125 0,0.15 0.0875,0.2 0.2,0.2 0.125,0 0.2,-0.075 0.225,-0.3875 l 0.3875,-3.1375 c 0,-0.0625 0.0375,-0.2375 0.0375,-0.275 0,-0.2 -0.1625,-0.2 -0.4875,-0.2 l -8.75,0 c -0.35,0 -0.525,0 -0.525,0.325 0,0.2 0.125,0.2 0.425,0.2 1.1125,0 1.1125,0.125 1.1125,0.325 0,0.0875 -0.0125,0.1625 -0.0625,0.35 l -2.425,9.6875 c -0.1625,0.625 -0.2,0.8125 -1.45,0.8125 -0.3375,0 -0.525,0 -0.525,0.325 0,0.1875 0.1125,0.1875 0.4625,0.1875 l 9.0125,0 c 0.3875,0 0.4125,-0.0125 0.5375,-0.3 z"
       id="path5267" />
    <path
       style="font-style:normal;font-variant:normal;font-weight:normal;font-stretch:normal;letter-spacing:normal;word-spacing:normal;text-anchor:start;fill:#000000;fill-opacity:1;fill-rule:evenodd;stroke:#000000;stroke-width:0;stroke-linecap:butt;stroke-linejoin:miter;stroke-miterlimit:10.43299961;stroke-dasharray:none;stroke-dashoffset:0;stroke-opacity:1"
       inkscape:connector-curvature="0"
       d="m 276.11742,429.82925 0,-0.0125 0,-0.0125 0,0 0,-0.0125 0.0125,-0.0125 0,-0.0125 0,-0.025 0.0125,-0.0125 0,-0.0125 0,-0.025 0.0125,-0.0125 0,-0.025 0,-0.0125 0,-0.0125 0.0125,-0.025 0,-0.0125 0,-0.0125 0,-0.0125 0,0 0,-0.0125 c 0,-0.175 -0.175,-0.175 -0.2125,-0.175 -0.025,0 -0.6625,0.05 -0.9875,0.0875 -0.3125,0.0125 -0.575,0.05 -0.9,0.0625 -0.425,0.0375 -0.55,0.0625 -0.55,0.3875 0,0.175 0.175,0.175 0.35,0.175 0.925,0 0.925,0.1625 0.925,0.3375 0,0.075 0,0.1125 -0.1,0.4375 l -2.5625,10.25 c -0.075,0.275 -0.075,0.3125 -0.075,0.4125 0,0.4 0.3125,0.475 0.4875,0.475 0.5,0 0.6125,-0.4 0.75,-0.95 l 0.85,-3.3625 c 1.2875,0.15 2.0625,0.6875 2.0625,1.55 0,0.1 0,0.175 -0.05,0.45 -0.075,0.2625 -0.075,0.475 -0.075,0.5625 0,1.05 0.675,1.75 1.5875,1.75 0.825,0 1.2625,-0.7625 1.4,-1.0125 0.3875,-0.6625 0.6125,-1.6625 0.6125,-1.7375 0,-0.0875 -0.075,-0.1625 -0.175,-0.1625 -0.1625,0 -0.1875,0.075 -0.25,0.3625 -0.25,0.9375 -0.6375,2.1875 -1.55,2.1875 -0.35,0 -0.5875,-0.175 -0.5875,-0.8625 0,-0.3375 0.075,-0.7375 0.1375,-1 0.075,-0.325 0.075,-0.35 0.075,-0.5625 0,-1.05 -0.95,-1.65 -2.6,-1.8625 0.65,-0.4 1.2875,-1.1 1.55,-1.3625 1.0125,-1.15 1.7125,-1.725 2.5375,-1.725 0.4125,0 0.525,0.1125 0.65,0.2125 -0.6625,0.075 -0.9125,0.5375 -0.9125,0.9 0,0.4375 0.3375,0.575 0.5875,0.575 0.4875,0 0.9125,-0.4125 0.9125,-0.9875 0,-0.5125 -0.4125,-1.05 -1.2125,-1.05 -0.9875,0 -1.8,0.7 -3.075,2.125 -0.175,0.2125 -0.8375,0.9 -1.5,1.15 z"
       id="path5269" />
    <g
       id="g5349"
       transform="translate(128.04899,205.45346)">
      <path
         id="path5271"
         d="m 92.01071,227.4679 2.025,0 c -0.4875,2.0125 -0.7875,3.325 -0.7875,4.7625 0,0.25 0,2.1875 0.725,2.1875 0.375,0 0.7,-0.35 0.7,-0.65 0,-0.0875 0,-0.125 -0.125,-0.4 -0.475,-1.2375 -0.475,-2.775 -0.475,-2.9 0,-0.1125 0,-1.3875 0.375,-3 l 2,0 c 0.2375,0 0.825,0 0.825,-0.575 0,-0.3875 -0.3375,-0.3875 -0.6625,-0.3875 l -5.9,0 c -0.4125,0 -1.025,0 -1.85,0.875 -0.4625,0.525 -1.0375,1.475 -1.0375,1.5875 0,0.1 0.0875,0.1375 0.2,0.1375 0.125,0 0.15,-0.05 0.2375,-0.1625 0.925,-1.475 1.8625,-1.475 2.3125,-1.475 l 1.025,0 c -0.4,1.35 -0.85,2.9125 -2.325,6.05 -0.1375,0.2875 -0.1375,0.325 -0.1375,0.425 0,0.375 0.325,0.475 0.4875,0.475 0.5125,0 0.6625,-0.475 0.875,-1.225 0.2875,-0.9125 0.2875,-0.95 0.4625,-1.6625 z"
         inkscape:connector-curvature="0"
         style="font-style:normal;font-variant:normal;font-weight:normal;font-stretch:normal;letter-spacing:normal;word-spacing:normal;text-anchor:start;fill:#000000;fill-opacity:1;fill-rule:evenodd;stroke:#000000;stroke-width:0;stroke-linecap:butt;stroke-linejoin:miter;stroke-miterlimit:10.43299961;stroke-dasharray:none;stroke-dashoffset:0;stroke-opacity:1" />
      <path
         id="path5273"
         d="m 105.66071,221.4429 0,0 0,0 0,0 0,0 0,0 0,-0.0125 0,0 0,0 0,0 0,-0.0125 0,0 0,0 0.0125,-0.0125 0,-0.0125 0,-0.0125 0.0125,-0.0125 0,-0.0125 0,-0.0125 0.0125,-0.0125 0,-0.0125 0.0125,-0.025 0.0125,-0.025 0,-0.0125 0.0125,-0.0125 0,-0.0125 0,-0.025 0.0125,0 0,-0.0125 0,-0.0125 0.0125,-0.0125 0,-0.0125 0,0 0,-0.0125 0,0 0,0 0,0 0,-0.0125 0,0 0,0 0,0 0,-0.0125 c 0,-0.2125 -0.175,-0.3375 -0.325,-0.3375 -0.0875,0 -0.25,0 -0.3875,0.4 l -6.0125,16.875 c 0,0.0125 -0.1,0.2875 -0.1,0.325 0,0.2125 0.175,0.3375 0.325,0.3375 0.1,0 0.2625,-0.025 0.3875,-0.4 z"
         inkscape:connector-curvature="0"
         style="font-style:normal;font-variant:normal;font-weight:normal;font-stretch:normal;letter-spacing:normal;word-spacing:normal;text-anchor:start;fill:#000000;fill-opacity:1;fill-rule:evenodd;stroke:#000000;stroke-width:0;stroke-linecap:butt;stroke-linejoin:miter;stroke-miterlimit:10.43299961;stroke-dasharray:none;stroke-dashoffset:0;stroke-opacity:1" />
      <path
         id="path5275"
         d="m 113.28571,227.5054 -0.025,-0.0375 -0.0125,-0.05 -0.025,-0.05 -0.025,-0.0375 -0.025,-0.05 -0.025,-0.05 -0.0375,-0.05 -0.025,-0.05 -0.0375,-0.05 -0.0375,-0.05 -0.0375,-0.05 -0.0375,-0.05 -0.05,-0.05 -0.0375,-0.05 -0.05,-0.0375 -0.05,-0.05 -0.05,-0.05 -0.05,-0.0375 -0.05,-0.0375 -0.0625,-0.0375 -0.05,-0.0375 -0.0625,-0.0375 -0.0625,-0.0375 -0.075,-0.025 -0.0625,-0.025 -0.075,-0.025 -0.075,-0.0125 -0.075,-0.025 -0.075,-0.0125 -0.0875,-0.0125 -0.075,0 -0.0875,0 0,0.35 c 1.1875,0 1.4125,1.475 1.4125,1.6125 0,0.025 -0.05,0.25 -0.075,0.2875 l -0.875,3.525 c -0.0875,0.3 -0.0875,0.3375 -0.3375,0.675 -0.4,0.5 -1.1875,1.275 -2.025,1.275 -0.7375,0 -1.15,-0.6625 -1.15,-1.725 0,-0.9875 0.55,-2.9875 0.9,-3.75 0.6,-1.25 1.45,-1.9 2.15,-1.9 l 0,-0.35 c -2.025,0 -4.2125,2.6125 -4.2125,5.2625 0,1.775 1.0375,2.825 2.25,2.825 0.9875,0 1.8375,-0.775 2.3375,-1.3625 0.175,1.05 1.025,1.3625 1.5625,1.3625 0.5375,0 0.9625,-0.325 1.2875,-0.975 0.2875,-0.6125 0.5375,-1.7 0.5375,-1.775 0,-0.0875 -0.075,-0.1625 -0.175,-0.1625 -0.1625,0 -0.1875,0.0875 -0.25,0.3625 -0.275,1.05 -0.6125,2.1875 -1.35,2.1875 -0.525,0 -0.5625,-0.4625 -0.5625,-0.825 0,-0.4125 0.0625,-0.6125 0.225,-1.3125 0.125,-0.45 0.2125,-0.8375 0.35,-1.3625 0.675,-2.6875 0.825,-3.3375 0.825,-3.4375 0,-0.25 -0.1875,-0.45 -0.4625,-0.45 -0.575,0 -0.7125,0.625 -0.75,0.8375 z"
         inkscape:connector-curvature="0"
         style="font-style:normal;font-variant:normal;font-weight:normal;font-stretch:normal;letter-spacing:normal;word-spacing:normal;text-anchor:start;fill:#000000;fill-opacity:1;fill-rule:evenodd;stroke:#000000;stroke-width:0;stroke-linecap:butt;stroke-linejoin:miter;stroke-miterlimit:10.43299961;stroke-dasharray:none;stroke-dashoffset:0;stroke-opacity:1" />
    </g>
    <g
       id="g5343"
       transform="translate(-154.81884,205.45346)">
      <path
         id="path5277"
         d="m 135.76071,230.1054 0.0625,0 0.0625,0 0.05,0 0.025,0 0.0375,0 0.025,0 0.025,-0.0125 0.025,0 0.025,0 0.025,-0.0125 0.025,0 0.025,-0.0125 0.025,0 0.0125,-0.0125 0.025,-0.0125 0.025,-0.0125 0.0125,-0.0125 0.025,-0.0125 0.0125,-0.0125 0.0125,-0.0125 0.0125,-0.025 0.0125,-0.0125 0,0 0.0125,-0.0125 0,-0.0125 0,-0.0125 0.0125,-0.0125 0,-0.0125 0,-0.0125 0.0125,-0.0125 0,-0.0125 0,-0.0125 0,-0.0125 0,-0.025 0.0125,-0.0125 0,-0.0125 0,-0.0125 c 0,-0.3625 -0.325,-0.3625 -0.6375,-0.3625 l -9.7,0 c -0.3,0 -0.625,0 -0.625,0.3625 0,0.35 0.325,0.35 0.625,0.35 z"
         inkscape:connector-curvature="0"
         style="font-style:normal;font-variant:normal;font-weight:normal;font-stretch:normal;letter-spacing:normal;word-spacing:normal;text-anchor:start;fill:#000000;fill-opacity:1;fill-rule:evenodd;stroke:#000000;stroke-width:0;stroke-linecap:butt;stroke-linejoin:miter;stroke-miterlimit:10.43299961;stroke-dasharray:none;stroke-dashoffset:0;stroke-opacity:1" />
      <path
         id="path5279"
         d="m 142.52321,227.4679 2.025,0 c -0.475,2.0125 -0.7875,3.325 -0.7875,4.7625 0,0.25 0,2.1875 0.7375,2.1875 0.375,0 0.7,-0.35 0.7,-0.65 0,-0.0875 0,-0.125 -0.125,-0.4 -0.4875,-1.2375 -0.4875,-2.775 -0.4875,-2.9 0,-0.1125 0,-1.3875 0.375,-3 l 2.0125,0 c 0.2375,0 0.825,0 0.825,-0.575 0,-0.3875 -0.3375,-0.3875 -0.6625,-0.3875 l -5.9,0 c -0.4125,0 -1.025,0 -1.85,0.875 -0.4625,0.525 -1.0375,1.475 -1.0375,1.5875 0,0.1 0.0875,0.1375 0.2,0.1375 0.125,0 0.1375,-0.05 0.2375,-0.1625 0.925,-1.475 1.8625,-1.475 2.3125,-1.475 l 1.0125,0 c -0.3875,1.35 -0.8375,2.9125 -2.3125,6.05 -0.1375,0.2875 -0.1375,0.325 -0.1375,0.425 0,0.375 0.325,0.475 0.475,0.475 0.525,0 0.675,-0.475 0.8875,-1.225 0.2875,-0.9125 0.2875,-0.95 0.4625,-1.6625 z"
         inkscape:connector-curvature="0"
         style="font-style:normal;font-variant:normal;font-weight:normal;font-stretch:normal;letter-spacing:normal;word-spacing:normal;text-anchor:start;fill:#000000;fill-opacity:1;fill-rule:evenodd;stroke:#000000;stroke-width:0;stroke-linecap:butt;stroke-linejoin:miter;stroke-miterlimit:10.43299961;stroke-dasharray:none;stroke-dashoffset:0;stroke-opacity:1" />
      <path
         id="path5281"
         d="m 156.18571,221.4429 0,0 0,0 0,0 0,0 0,0 0,-0.0125 0,0 0,0 0,0 0,-0.0125 0,0 0,0 0.0125,-0.0125 0,-0.0125 0,-0.0125 0,-0.0125 0.0125,-0.0125 0,-0.0125 0.0125,-0.0125 0,-0.0125 0.0125,-0.025 0.0125,-0.025 0,-0.0125 0,-0.0125 0.0125,-0.0125 0,-0.025 0,0 0.0125,-0.0125 0,-0.0125 0,-0.0125 0.0125,-0.0125 0,0 0,-0.0125 0,0 0,0 0,0 0,-0.0125 0,0 0,0 0,0 0,-0.0125 c 0,-0.2125 -0.175,-0.3375 -0.325,-0.3375 -0.0875,0 -0.25,0 -0.3875,0.4 l -6.0125,16.875 c 0,0.0125 -0.1,0.2875 -0.1,0.325 0,0.2125 0.175,0.3375 0.3125,0.3375 0.1125,0 0.275,-0.025 0.4,-0.4 z"
         inkscape:connector-curvature="0"
         style="font-style:normal;font-variant:normal;font-weight:normal;font-stretch:normal;letter-spacing:normal;word-spacing:normal;text-anchor:start;fill:#000000;fill-opacity:1;fill-rule:evenodd;stroke:#000000;stroke-width:0;stroke-linecap:butt;stroke-linejoin:miter;stroke-miterlimit:10.43299961;stroke-dasharray:none;stroke-dashoffset:0;stroke-opacity:1" />
      <path
         id="path5283"
         d="m 163.81071,227.5054 -0.025,-0.0375 -0.025,-0.05 -0.0125,-0.05 -0.025,-0.0375 -0.025,-0.05 -0.0375,-0.05 -0.025,-0.05 -0.0375,-0.05 -0.025,-0.05 -0.0375,-0.05 -0.0375,-0.05 -0.0375,-0.05 -0.05,-0.05 -0.0375,-0.05 -0.05,-0.0375 -0.05,-0.05 -0.05,-0.05 -0.05,-0.0375 -0.05,-0.0375 -0.0625,-0.0375 -0.0625,-0.0375 -0.0625,-0.0375 -0.0625,-0.0375 -0.0625,-0.025 -0.075,-0.025 -0.0625,-0.025 -0.075,-0.0125 -0.075,-0.025 -0.075,-0.0125 -0.0875,-0.0125 -0.0875,0 -0.075,0 0,0.35 c 1.175,0 1.4125,1.475 1.4125,1.6125 0,0.025 -0.05,0.25 -0.075,0.2875 l -0.875,3.525 c -0.0875,0.3 -0.0875,0.3375 -0.3375,0.675 -0.4,0.5 -1.1875,1.275 -2.0375,1.275 -0.725,0 -1.1375,-0.6625 -1.1375,-1.725 0,-0.9875 0.55,-2.9875 0.8875,-3.75 0.6125,-1.25 1.4625,-1.9 2.1625,-1.9 l 0,-0.35 c -2.0375,0 -4.225,2.6125 -4.225,5.2625 0,1.775 1.05,2.825 2.2625,2.825 0.9875,0 1.8375,-0.775 2.3375,-1.3625 0.175,1.05 1.0125,1.3625 1.5625,1.3625 0.525,0 0.9625,-0.325 1.2875,-0.975 0.2875,-0.6125 0.5375,-1.7 0.5375,-1.775 0,-0.0875 -0.075,-0.1625 -0.1875,-0.1625 -0.15,0 -0.175,0.0875 -0.25,0.3625 -0.2625,1.05 -0.6,2.1875 -1.3375,2.1875 -0.525,0 -0.5625,-0.4625 -0.5625,-0.825 0,-0.4125 0.0625,-0.6125 0.2125,-1.3125 0.1375,-0.45 0.225,-0.8375 0.3625,-1.3625 0.6625,-2.6875 0.825,-3.3375 0.825,-3.4375 0,-0.25 -0.2,-0.45 -0.4625,-0.45 -0.575,0 -0.725,0.625 -0.75,0.8375 z"
         inkscape:connector-curvature="0"
         style="font-style:normal;font-variant:normal;font-weight:normal;font-stretch:normal;letter-spacing:normal;word-spacing:normal;text-anchor:start;fill:#000000;fill-opacity:1;fill-rule:evenodd;stroke:#000000;stroke-width:0;stroke-linecap:butt;stroke-linejoin:miter;stroke-miterlimit:10.43299961;stroke-dasharray:none;stroke-dashoffset:0;stroke-opacity:1" />
    </g>
    <circle
       r="3.5916555"
       cy="397.01553"
       cx="123.18481"
       id="circle11749"
       style="color:#000000;display:inline;overflow:visible;visibility:visible;fill:#000000;fill-opacity:0.50595236;fill-rule:nonzero;stroke:#000000;stroke-width:0.80453128;stroke-linecap:butt;stroke-miterlimit:4;stroke-dasharray:none;stroke-dashoffset:0;stroke-opacity:1;marker:none;enable-background:accumulate" />
    <path
       sodipodi:nodetypes="cc"
       inkscape:connector-curvature="0"
       id="path10527"
       d="m 227.4012,328.17201 c -62.85714,0 -45.35437,69.53933 -115.78434,69.53933"
       style="fill:none;fill-rule:evenodd;stroke:#000000;stroke-width:1.48438072px;stroke-linecap:butt;stroke-linejoin:miter;stroke-opacity:1" />
    <circle
       style="color:#000000;display:inline;overflow:visible;visibility:visible;fill:#000000;fill-opacity:0.50595236;fill-rule:nonzero;stroke:#000000;stroke-width:0.80453128;stroke-linecap:butt;stroke-miterlimit:4;stroke-dasharray:none;stroke-dashoffset:0;stroke-opacity:1;marker:none;enable-background:accumulate"
       id="path11738"
       cx="111.40118"
       cy="397.71133"
       r="3.5916555" />
    <circle
       style="color:#000000;display:inline;overflow:visible;visibility:visible;fill:#000000;fill-opacity:0.50595236;fill-rule:nonzero;stroke:#000000;stroke-width:0.80453128;stroke-linecap:butt;stroke-miterlimit:4;stroke-dasharray:none;stroke-dashoffset:0;stroke-opacity:1;marker:none;enable-background:accumulate"
       id="circle11751"
       cx="135.18481"
       cy="394.43204"
       r="3.5916555" />
    <circle
       r="3.5916555"
       cy="389.05917"
       cx="147.18481"
       id="circle11753"
       style="color:#000000;display:inline;overflow:visible;visibility:visible;fill:#000000;fill-opacity:0.50595236;fill-rule:nonzero;stroke:#000000;stroke-width:0.80453128;stroke-linecap:butt;stroke-miterlimit:4;stroke-dasharray:none;stroke-dashoffset:0;stroke-opacity:1;marker:none;enable-background:accumulate" />
    <circle
       style="color:#000000;display:inline;overflow:visible;visibility:visible;fill:#ffffff;fill-opacity:0.50595236;fill-rule:nonzero;stroke:#000000;stroke-width:0.80453128;stroke-linecap:butt;stroke-miterlimit:4;stroke-dasharray:none;stroke-dashoffset:0;stroke-opacity:1;marker:none;enable-background:accumulate"
       id="circle11761"
       cx="159.18481"
       cy="379.46304"
       r="3.5916555" />
    <circle
       r="3.5916555"
       cy="364.58344"
       cx="171.18481"
       id="circle11763"
       style="color:#000000;display:inline;overflow:visible;visibility:visible;fill:#ffffff;fill-opacity:0.50595236;fill-rule:nonzero;stroke:#000000;stroke-width:0.80453128;stroke-linecap:butt;stroke-miterlimit:4;stroke-dasharray:none;stroke-dashoffset:0;stroke-opacity:1;marker:none;enable-background:accumulate" />
    <circle
       style="color:#000000;display:inline;overflow:visible;visibility:visible;fill:#ffffff;fill-opacity:0.50595236;fill-rule:nonzero;stroke:#000000;stroke-width:0.80453128;stroke-linecap:butt;stroke-miterlimit:4;stroke-dasharray:none;stroke-dashoffset:0;stroke-opacity:1;marker:none;enable-background:accumulate"
       id="circle11765"
       cx="183.18481"
       cy="348.3902"
       r="3.5916555" />
    <circle
       r="3.5916555"
       cy="335.88953"
       cx="197.18481"
       id="circle11767"
       style="color:#000000;display:inline;overflow:visible;visibility:visible;fill:#ffffff;fill-opacity:0.50595236;fill-rule:nonzero;stroke:#000000;stroke-width:0.80453128;stroke-linecap:butt;stroke-miterlimit:4;stroke-dasharray:none;stroke-dashoffset:0;stroke-opacity:1;marker:none;enable-background:accumulate" />
    <circle
       style="color:#000000;display:inline;overflow:visible;visibility:visible;fill:#ffffff;fill-opacity:0.50595236;fill-rule:nonzero;stroke:#000000;stroke-width:0.80453128;stroke-linecap:butt;stroke-miterlimit:4;stroke-dasharray:none;stroke-dashoffset:0;stroke-opacity:1;marker:none;enable-background:accumulate"
       id="circle11769"
       cx="211.18481"
       cy="330.55951"
       r="3.5916555" />
    <circle
       style="color:#000000;display:inline;overflow:visible;visibility:visible;fill:#000000;fill-opacity:0.50595236;fill-rule:nonzero;stroke:#000000;stroke-width:0.80453128;stroke-linecap:butt;stroke-miterlimit:4;stroke-dasharray:none;stroke-dashoffset:0;stroke-opacity:1;marker:none;enable-background:accumulate"
       id="circle11788"
       cx="-99.401184"
       cy="397.01553"
       r="3.5916555"
       transform="scale(-1,1)" />
    <path
       style="fill:none;fill-rule:evenodd;stroke:#000000;stroke-width:1.48438072px;stroke-linecap:butt;stroke-linejoin:miter;stroke-opacity:1"
       d="m -4.81521,328.17201 c 62.85714,0 45.35437,69.53933 115.78434,69.53933"
       id="path11790"
       inkscape:connector-curvature="0"
       sodipodi:nodetypes="cc" />
    <circle
       r="3.5916555"
       cy="394.43204"
       cx="-87.401176"
       id="circle11794"
       style="color:#000000;display:inline;overflow:visible;visibility:visible;fill:#000000;fill-opacity:0.50595236;fill-rule:nonzero;stroke:#000000;stroke-width:0.80453128;stroke-linecap:butt;stroke-miterlimit:4;stroke-dasharray:none;stroke-dashoffset:0;stroke-opacity:1;marker:none;enable-background:accumulate"
       transform="scale(-1,1)" />
    <circle
       style="color:#000000;display:inline;overflow:visible;visibility:visible;fill:#000000;fill-opacity:0.50595236;fill-rule:nonzero;stroke:#000000;stroke-width:0.80453128;stroke-linecap:butt;stroke-miterlimit:4;stroke-dasharray:none;stroke-dashoffset:0;stroke-opacity:1;marker:none;enable-background:accumulate"
       id="circle11796"
       cx="-75.401176"
       cy="389.05917"
       r="3.5916555"
       transform="scale(-1,1)" />
    <circle
       r="3.5916555"
       cy="379.46304"
       cx="-63.401176"
       id="circle11798"
       style="color:#000000;display:inline;overflow:visible;visibility:visible;fill:#000000;fill-opacity:0.50595236;fill-rule:nonzero;stroke:#000000;stroke-width:0.80453128;stroke-linecap:butt;stroke-miterlimit:4;stroke-dasharray:none;stroke-dashoffset:0;stroke-opacity:1;marker:none;enable-background:accumulate"
       transform="scale(-1,1)" />
    <circle
       style="color:#000000;display:inline;overflow:visible;visibility:visible;fill:#ffffff;fill-opacity:0.50595236;fill-rule:nonzero;stroke:#000000;stroke-width:0.80453128;stroke-linecap:butt;stroke-miterlimit:4;stroke-dasharray:none;stroke-dashoffset:0;stroke-opacity:1;marker:none;enable-background:accumulate"
       id="circle11800"
       cx="-51.401176"
       cy="364.58344"
       r="3.5916555"
       transform="scale(-1,1)" />
    <circle
       r="3.5916555"
       cy="348.3902"
       cx="-39.401176"
       id="circle11802"
       style="color:#000000;display:inline;overflow:visible;visibility:visible;fill:#ffffff;fill-opacity:0.50595236;fill-rule:nonzero;stroke:#000000;stroke-width:0.80453128;stroke-linecap:butt;stroke-miterlimit:4;stroke-dasharray:none;stroke-dashoffset:0;stroke-opacity:1;marker:none;enable-background:accumulate"
       transform="scale(-1,1)" />
    <circle
       style="color:#000000;display:inline;overflow:visible;visibility:visible;fill:#ffffff;fill-opacity:0.50595236;fill-rule:nonzero;stroke:#000000;stroke-width:0.80453128;stroke-linecap:butt;stroke-miterlimit:4;stroke-dasharray:none;stroke-dashoffset:0;stroke-opacity:1;marker:none;enable-background:accumulate"
       id="circle11804"
       cx="-25.401176"
       cy="335.88953"
       r="3.5916555"
       transform="scale(-1,1)" />
    <circle
       r="3.5916555"
       cy="330.55951"
       cx="-11.401175"
       id="circle11806"
       style="color:#000000;display:inline;overflow:visible;visibility:visible;fill:#ffffff;fill-opacity:0.50595236;fill-rule:nonzero;stroke:#000000;stroke-width:0.80453128;stroke-linecap:butt;stroke-miterlimit:4;stroke-dasharray:none;stroke-dashoffset:0;stroke-opacity:1;marker:none;enable-background:accumulate"
       transform="scale(-1,1)" />
    <circle
       style="color:#000000;display:inline;overflow:visible;visibility:visible;fill:#ffffff;fill-opacity:0.50595236;fill-rule:nonzero;stroke:#000000;stroke-width:0.80453128;stroke-linecap:butt;stroke-miterlimit:4;stroke-dasharray:none;stroke-dashoffset:0;stroke-opacity:1;marker:none;enable-background:accumulate"
       id="circle11808"
       cx="4.5988245"
       cy="328.60385"
       r="3.5916555"
       transform="scale(-1,1)" />
  </g>
</svg>
