<?xml version="1.0" encoding="UTF-8" standalone="no"?>
<!-- Created with Inkscape (http://www.inkscape.org/) -->

<svg
   xmlns:dc="http://purl.org/dc/elements/1.1/"
   xmlns:cc="http://creativecommons.org/ns#"
   xmlns:rdf="http://www.w3.org/1999/02/22-rdf-syntax-ns#"
   xmlns:svg="http://www.w3.org/2000/svg"
   xmlns="http://www.w3.org/2000/svg"
   xmlns:sodipodi="http://sodipodi.sourceforge.net/DTD/sodipodi-0.dtd"
   xmlns:inkscape="http://www.inkscape.org/namespaces/inkscape"
   width="156.71555mm"
   height="190.30801mm"
   viewBox="0 0 555.2913 674.31972"
   id="svg2"
   version="1.1"
   inkscape:version="0.91 r13725"
   sodipodi:docname="E_F_and_carrier_density.svg">
  <sodipodi:namedview
     id="base"
     pagecolor="#ffffff"
     bordercolor="#666666"
     borderopacity="1.0"
     inkscape:pageopacity="0.0"
     inkscape:pageshadow="2"
     inkscape:zoom="1.979899"
     inkscape:cx="315.10102"
     inkscape:cy="206.2819"
     inkscape:document-units="px"
     inkscape:current-layer="layer1"
     showgrid="false"
     inkscape:window-width="1855"
     inkscape:window-height="1056"
     inkscape:window-x="65"
     inkscape:window-y="24"
     inkscape:window-maximized="1"
     fit-margin-top="0"
     fit-margin-left="0"
     fit-margin-right="0"
     fit-margin-bottom="0" />
  <defs
     id="defs4">
    <marker
       inkscape:stockid="Arrow1Lend"
       orient="auto"
       refY="0"
       refX="0"
       id="marker19373"
       style="overflow:visible"
       inkscape:isstock="true">
      <path
         id="path19375"
         d="M 0,0 5,-5 -12.5,0 5,5 0,0 Z"
         style="fill:#000000;fill-opacity:1;fill-rule:evenodd;stroke:#000000;stroke-width:1pt;stroke-opacity:1"
         transform="matrix(-0.8,0,0,-0.8,-10,0)"
         inkscape:connector-curvature="0" />
    </marker>
    <marker
       inkscape:stockid="Arrow1Lstart"
       orient="auto"
       refY="0"
       refX="0"
       id="marker19363"
       style="overflow:visible"
       inkscape:isstock="true">
      <path
         id="path19365"
         d="M 0,0 5,-5 -12.5,0 5,5 0,0 Z"
         style="fill:#000000;fill-opacity:1;fill-rule:evenodd;stroke:#000000;stroke-width:1pt;stroke-opacity:1"
         transform="matrix(0.8,0,0,0.8,10,0)"
         inkscape:connector-curvature="0" />
    </marker>
    <marker
       inkscape:stockid="Arrow1Lstart"
       orient="auto"
       refY="0"
       refX="0"
       id="marker18397"
       style="overflow:visible"
       inkscape:isstock="true">
      <path
         id="path18399"
         d="M 0,0 5,-5 -12.5,0 5,5 0,0 Z"
         style="fill:#000000;fill-opacity:1;fill-rule:evenodd;stroke:#000000;stroke-width:1pt;stroke-opacity:1"
         transform="matrix(0.8,0,0,0.8,10,0)"
         inkscape:connector-curvature="0" />
    </marker>
    <marker
       inkscape:stockid="Arrow1Lstart"
       orient="auto"
       refY="0"
       refX="0"
       id="marker17841"
       style="overflow:visible"
       inkscape:isstock="true">
      <path
         id="path17843"
         d="M 0,0 5,-5 -12.5,0 5,5 0,0 Z"
         style="fill:#000000;fill-opacity:1;fill-rule:evenodd;stroke:#000000;stroke-width:1pt;stroke-opacity:1"
         transform="matrix(0.8,0,0,0.8,10,0)"
         inkscape:connector-curvature="0" />
    </marker>
    <marker
       inkscape:stockid="Arrow1Lstart"
       orient="auto"
       refY="0"
       refX="0"
       id="marker17297"
       style="overflow:visible"
       inkscape:isstock="true">
      <path
         id="path17299"
         d="M 0,0 5,-5 -12.5,0 5,5 0,0 Z"
         style="fill:#000000;fill-opacity:1;fill-rule:evenodd;stroke:#000000;stroke-width:1pt;stroke-opacity:1"
         transform="matrix(0.8,0,0,0.8,10,0)"
         inkscape:connector-curvature="0" />
    </marker>
    <marker
       inkscape:stockid="Arrow1Lstart"
       orient="auto"
       refY="0"
       refX="0"
       id="marker16765"
       style="overflow:visible"
       inkscape:isstock="true">
      <path
         id="path16767"
         d="M 0,0 5,-5 -12.5,0 5,5 0,0 Z"
         style="fill:#000000;fill-opacity:1;fill-rule:evenodd;stroke:#000000;stroke-width:1pt;stroke-opacity:1"
         transform="matrix(0.8,0,0,0.8,10,0)"
         inkscape:connector-curvature="0" />
    </marker>
    <marker
       inkscape:stockid="Arrow1Lstart"
       orient="auto"
       refY="0"
       refX="0"
       id="marker16245"
       style="overflow:visible"
       inkscape:isstock="true">
      <path
         id="path16247"
         d="M 0,0 5,-5 -12.5,0 5,5 0,0 Z"
         style="fill:#000000;fill-opacity:1;fill-rule:evenodd;stroke:#000000;stroke-width:1pt;stroke-opacity:1"
         transform="matrix(0.8,0,0,0.8,10,0)"
         inkscape:connector-curvature="0" />
    </marker>
    <marker
       inkscape:stockid="Arrow1Lstart"
       orient="auto"
       refY="0"
       refX="0"
       id="marker15737"
       style="overflow:visible"
       inkscape:isstock="true">
      <path
         id="path15739"
         d="M 0,0 5,-5 -12.5,0 5,5 0,0 Z"
         style="fill:#000000;fill-opacity:1;fill-rule:evenodd;stroke:#000000;stroke-width:1pt;stroke-opacity:1"
         transform="matrix(0.8,0,0,0.8,10,0)"
         inkscape:connector-curvature="0" />
    </marker>
    <marker
       inkscape:stockid="Arrow1Lstart"
       orient="auto"
       refY="0"
       refX="0"
       id="marker15241"
       style="overflow:visible"
       inkscape:isstock="true">
      <path
         id="path15243"
         d="M 0,0 5,-5 -12.5,0 5,5 0,0 Z"
         style="fill:#000000;fill-opacity:1;fill-rule:evenodd;stroke:#000000;stroke-width:1pt;stroke-opacity:1"
         transform="matrix(0.8,0,0,0.8,10,0)"
         inkscape:connector-curvature="0" />
    </marker>
    <marker
       inkscape:stockid="Arrow1Lstart"
       orient="auto"
       refY="0"
       refX="0"
       id="marker14757"
       style="overflow:visible"
       inkscape:isstock="true">
      <path
         id="path14759"
         d="M 0,0 5,-5 -12.5,0 5,5 0,0 Z"
         style="fill:#000000;fill-opacity:1;fill-rule:evenodd;stroke:#000000;stroke-width:1pt;stroke-opacity:1"
         transform="matrix(0.8,0,0,0.8,10,0)"
         inkscape:connector-curvature="0" />
    </marker>
    <marker
       inkscape:stockid="Arrow1Lstart"
       orient="auto"
       refY="0"
       refX="0"
       id="marker14285"
       style="overflow:visible"
       inkscape:isstock="true">
      <path
         id="path14287"
         d="M 0,0 5,-5 -12.5,0 5,5 0,0 Z"
         style="fill:#000000;fill-opacity:1;fill-rule:evenodd;stroke:#000000;stroke-width:1pt;stroke-opacity:1"
         transform="matrix(0.8,0,0,0.8,10,0)"
         inkscape:connector-curvature="0" />
    </marker>
    <marker
       inkscape:stockid="Arrow1Lstart"
       orient="auto"
       refY="0"
       refX="0"
       id="marker13825"
       style="overflow:visible"
       inkscape:isstock="true">
      <path
         id="path13827"
         d="M 0,0 5,-5 -12.5,0 5,5 0,0 Z"
         style="fill:#000000;fill-opacity:1;fill-rule:evenodd;stroke:#000000;stroke-width:1pt;stroke-opacity:1"
         transform="matrix(0.8,0,0,0.8,10,0)"
         inkscape:connector-curvature="0" />
    </marker>
    <marker
       inkscape:stockid="Arrow1Lstart"
       orient="auto"
       refY="0"
       refX="0"
       id="marker13377"
       style="overflow:visible"
       inkscape:isstock="true">
      <path
         id="path13379"
         d="M 0,0 5,-5 -12.5,0 5,5 0,0 Z"
         style="fill:#000000;fill-opacity:1;fill-rule:evenodd;stroke:#000000;stroke-width:1pt;stroke-opacity:1"
         transform="matrix(0.8,0,0,0.8,10,0)"
         inkscape:connector-curvature="0" />
    </marker>
    <marker
       inkscape:stockid="Arrow1Lstart"
       orient="auto"
       refY="0"
       refX="0"
       id="marker12941"
       style="overflow:visible"
       inkscape:isstock="true">
      <path
         id="path12943"
         d="M 0,0 5,-5 -12.5,0 5,5 0,0 Z"
         style="fill:#000000;fill-opacity:1;fill-rule:evenodd;stroke:#000000;stroke-width:1pt;stroke-opacity:1"
         transform="matrix(0.8,0,0,0.8,10,0)"
         inkscape:connector-curvature="0" />
    </marker>
    <marker
       inkscape:stockid="Arrow1Lstart"
       orient="auto"
       refY="0"
       refX="0"
       id="marker12517"
       style="overflow:visible"
       inkscape:isstock="true">
      <path
         id="path12519"
         d="M 0,0 5,-5 -12.5,0 5,5 0,0 Z"
         style="fill:#000000;fill-opacity:1;fill-rule:evenodd;stroke:#000000;stroke-width:1pt;stroke-opacity:1"
         transform="matrix(0.8,0,0,0.8,10,0)"
         inkscape:connector-curvature="0" />
    </marker>
    <marker
       inkscape:stockid="Arrow1Lstart"
       orient="auto"
       refY="0"
       refX="0"
       id="marker12105"
       style="overflow:visible"
       inkscape:isstock="true">
      <path
         id="path12107"
         d="M 0,0 5,-5 -12.5,0 5,5 0,0 Z"
         style="fill:#000000;fill-opacity:1;fill-rule:evenodd;stroke:#000000;stroke-width:1pt;stroke-opacity:1"
         transform="matrix(0.8,0,0,0.8,10,0)"
         inkscape:connector-curvature="0" />
    </marker>
    <marker
       inkscape:stockid="Arrow1Lstart"
       orient="auto"
       refY="0"
       refX="0"
       id="marker11705"
       style="overflow:visible"
       inkscape:isstock="true">
      <path
         id="path11707"
         d="M 0,0 5,-5 -12.5,0 5,5 0,0 Z"
         style="fill:#000000;fill-opacity:1;fill-rule:evenodd;stroke:#000000;stroke-width:1pt;stroke-opacity:1"
         transform="matrix(0.8,0,0,0.8,10,0)"
         inkscape:connector-curvature="0" />
    </marker>
    <marker
       inkscape:stockid="Arrow1Lstart"
       orient="auto"
       refY="0"
       refX="0"
       id="marker11317"
       style="overflow:visible"
       inkscape:isstock="true">
      <path
         id="path11319"
         d="M 0,0 5,-5 -12.5,0 5,5 0,0 Z"
         style="fill:#000000;fill-opacity:1;fill-rule:evenodd;stroke:#000000;stroke-width:1pt;stroke-opacity:1"
         transform="matrix(0.8,0,0,0.8,10,0)"
         inkscape:connector-curvature="0" />
    </marker>
    <marker
       inkscape:stockid="Arrow1Lstart"
       orient="auto"
       refY="0"
       refX="0"
       id="marker10941"
       style="overflow:visible"
       inkscape:isstock="true">
      <path
         id="path10943"
         d="M 0,0 5,-5 -12.5,0 5,5 0,0 Z"
         style="fill:#000000;fill-opacity:1;fill-rule:evenodd;stroke:#000000;stroke-width:1pt;stroke-opacity:1"
         transform="matrix(0.8,0,0,0.8,10,0)"
         inkscape:connector-curvature="0" />
    </marker>
    <marker
       inkscape:stockid="Arrow1Lstart"
       orient="auto"
       refY="0"
       refX="0"
       id="marker10577"
       style="overflow:visible"
       inkscape:isstock="true">
      <path
         id="path10579"
         d="M 0,0 5,-5 -12.5,0 5,5 0,0 Z"
         style="fill:#000000;fill-opacity:1;fill-rule:evenodd;stroke:#000000;stroke-width:1pt;stroke-opacity:1"
         transform="matrix(0.8,0,0,0.8,10,0)"
         inkscape:connector-curvature="0" />
    </marker>
    <marker
       inkscape:stockid="Arrow1Lstart"
       orient="auto"
       refY="0"
       refX="0"
       id="marker10225"
       style="overflow:visible"
       inkscape:isstock="true">
      <path
         id="path10227"
         d="M 0,0 5,-5 -12.5,0 5,5 0,0 Z"
         style="fill:#000000;fill-opacity:1;fill-rule:evenodd;stroke:#000000;stroke-width:1pt;stroke-opacity:1"
         transform="matrix(0.8,0,0,0.8,10,0)"
         inkscape:connector-curvature="0" />
    </marker>
    <marker
       inkscape:stockid="Arrow1Lstart"
       orient="auto"
       refY="0"
       refX="0"
       id="marker9885"
       style="overflow:visible"
       inkscape:isstock="true">
      <path
         id="path9887"
         d="M 0,0 5,-5 -12.5,0 5,5 0,0 Z"
         style="fill:#000000;fill-opacity:1;fill-rule:evenodd;stroke:#000000;stroke-width:1pt;stroke-opacity:1"
         transform="matrix(0.8,0,0,0.8,10,0)"
         inkscape:connector-curvature="0" />
    </marker>
    <marker
       inkscape:stockid="Arrow1Lstart"
       orient="auto"
       refY="0"
       refX="0"
       id="marker9557"
       style="overflow:visible"
       inkscape:isstock="true">
      <path
         id="path9559"
         d="M 0,0 5,-5 -12.5,0 5,5 0,0 Z"
         style="fill:#000000;fill-opacity:1;fill-rule:evenodd;stroke:#000000;stroke-width:1pt;stroke-opacity:1"
         transform="matrix(0.8,0,0,0.8,10,0)"
         inkscape:connector-curvature="0" />
    </marker>
    <marker
       inkscape:stockid="Arrow1Lstart"
       orient="auto"
       refY="0"
       refX="0"
       id="marker9241"
       style="overflow:visible"
       inkscape:isstock="true">
      <path
         id="path9243"
         d="M 0,0 5,-5 -12.5,0 5,5 0,0 Z"
         style="fill:#000000;fill-opacity:1;fill-rule:evenodd;stroke:#000000;stroke-width:1pt;stroke-opacity:1"
         transform="matrix(0.8,0,0,0.8,10,0)"
         inkscape:connector-curvature="0" />
    </marker>
    <marker
       inkscape:stockid="Arrow1Lstart"
       orient="auto"
       refY="0"
       refX="0"
       id="marker8937"
       style="overflow:visible"
       inkscape:isstock="true">
      <path
         id="path8939"
         d="M 0,0 5,-5 -12.5,0 5,5 0,0 Z"
         style="fill:#000000;fill-opacity:1;fill-rule:evenodd;stroke:#000000;stroke-width:1pt;stroke-opacity:1"
         transform="matrix(0.8,0,0,0.8,10,0)"
         inkscape:connector-curvature="0" />
    </marker>
    <marker
       inkscape:stockid="Arrow1Lstart"
       orient="auto"
       refY="0"
       refX="0"
       id="marker8645"
       style="overflow:visible"
       inkscape:isstock="true">
      <path
         id="path8647"
         d="M 0,0 5,-5 -12.5,0 5,5 0,0 Z"
         style="fill:#000000;fill-opacity:1;fill-rule:evenodd;stroke:#000000;stroke-width:1pt;stroke-opacity:1"
         transform="matrix(0.8,0,0,0.8,10,0)"
         inkscape:connector-curvature="0" />
    </marker>
    <marker
       inkscape:stockid="Arrow1Lstart"
       orient="auto"
       refY="0"
       refX="0"
       id="marker8365"
       style="overflow:visible"
       inkscape:isstock="true">
      <path
         id="path8367"
         d="M 0,0 5,-5 -12.5,0 5,5 0,0 Z"
         style="fill:#000000;fill-opacity:1;fill-rule:evenodd;stroke:#000000;stroke-width:1pt;stroke-opacity:1"
         transform="matrix(0.8,0,0,0.8,10,0)"
         inkscape:connector-curvature="0" />
    </marker>
    <marker
       inkscape:stockid="Arrow1Lstart"
       orient="auto"
       refY="0"
       refX="0"
       id="marker8097"
       style="overflow:visible"
       inkscape:isstock="true">
      <path
         id="path8099"
         d="M 0,0 5,-5 -12.5,0 5,5 0,0 Z"
         style="fill:#000000;fill-opacity:1;fill-rule:evenodd;stroke:#000000;stroke-width:1pt;stroke-opacity:1"
         transform="matrix(0.8,0,0,0.8,10,0)"
         inkscape:connector-curvature="0" />
    </marker>
    <marker
       inkscape:stockid="Arrow1Lstart"
       orient="auto"
       refY="0"
       refX="0"
       id="marker7841"
       style="overflow:visible"
       inkscape:isstock="true">
      <path
         id="path7843"
         d="M 0,0 5,-5 -12.5,0 5,5 0,0 Z"
         style="fill:#000000;fill-opacity:1;fill-rule:evenodd;stroke:#000000;stroke-width:1pt;stroke-opacity:1"
         transform="matrix(0.8,0,0,0.8,10,0)"
         inkscape:connector-curvature="0" />
    </marker>
    <marker
       inkscape:stockid="Arrow1Lstart"
       orient="auto"
       refY="0"
       refX="0"
       id="marker7597"
       style="overflow:visible"
       inkscape:isstock="true">
      <path
         id="path7599"
         d="M 0,0 5,-5 -12.5,0 5,5 0,0 Z"
         style="fill:#000000;fill-opacity:1;fill-rule:evenodd;stroke:#000000;stroke-width:1pt;stroke-opacity:1"
         transform="matrix(0.8,0,0,0.8,10,0)"
         inkscape:connector-curvature="0" />
    </marker>
    <marker
       inkscape:stockid="Arrow1Lstart"
       orient="auto"
       refY="0"
       refX="0"
       id="marker7365"
       style="overflow:visible"
       inkscape:isstock="true">
      <path
         id="path7367"
         d="M 0,0 5,-5 -12.5,0 5,5 0,0 Z"
         style="fill:#000000;fill-opacity:1;fill-rule:evenodd;stroke:#000000;stroke-width:1pt;stroke-opacity:1"
         transform="matrix(0.8,0,0,0.8,10,0)"
         inkscape:connector-curvature="0" />
    </marker>
    <marker
       inkscape:stockid="Arrow1Lstart"
       orient="auto"
       refY="0"
       refX="0"
       id="marker7145"
       style="overflow:visible"
       inkscape:isstock="true">
      <path
         id="path7147"
         d="M 0,0 5,-5 -12.5,0 5,5 0,0 Z"
         style="fill:#000000;fill-opacity:1;fill-rule:evenodd;stroke:#000000;stroke-width:1pt;stroke-opacity:1"
         transform="matrix(0.8,0,0,0.8,10,0)"
         inkscape:connector-curvature="0" />
    </marker>
    <marker
       inkscape:stockid="Arrow1Lstart"
       orient="auto"
       refY="0"
       refX="0"
       id="marker6937"
       style="overflow:visible"
       inkscape:isstock="true">
      <path
         id="path6939"
         d="M 0,0 5,-5 -12.5,0 5,5 0,0 Z"
         style="fill:#000000;fill-opacity:1;fill-rule:evenodd;stroke:#000000;stroke-width:1pt;stroke-opacity:1"
         transform="matrix(0.8,0,0,0.8,10,0)"
         inkscape:connector-curvature="0" />
    </marker>
    <marker
       inkscape:stockid="Arrow1Lstart"
       orient="auto"
       refY="0"
       refX="0"
       id="marker6741"
       style="overflow:visible"
       inkscape:isstock="true">
      <path
         id="path6743"
         d="M 0,0 5,-5 -12.5,0 5,5 0,0 Z"
         style="fill:#000000;fill-opacity:1;fill-rule:evenodd;stroke:#000000;stroke-width:1pt;stroke-opacity:1"
         transform="matrix(0.8,0,0,0.8,10,0)"
         inkscape:connector-curvature="0" />
    </marker>
    <marker
       inkscape:stockid="Arrow1Lstart"
       orient="auto"
       refY="0"
       refX="0"
       id="marker6557"
       style="overflow:visible"
       inkscape:isstock="true">
      <path
         id="path6559"
         d="M 0,0 5,-5 -12.5,0 5,5 0,0 Z"
         style="fill:#000000;fill-opacity:1;fill-rule:evenodd;stroke:#000000;stroke-width:1pt;stroke-opacity:1"
         transform="matrix(0.8,0,0,0.8,10,0)"
         inkscape:connector-curvature="0" />
    </marker>
    <marker
       inkscape:stockid="Arrow1Lstart"
       orient="auto"
       refY="0"
       refX="0"
       id="marker6385"
       style="overflow:visible"
       inkscape:isstock="true">
      <path
         id="path6387"
         d="M 0,0 5,-5 -12.5,0 5,5 0,0 Z"
         style="fill:#000000;fill-opacity:1;fill-rule:evenodd;stroke:#000000;stroke-width:1pt;stroke-opacity:1"
         transform="matrix(0.8,0,0,0.8,10,0)"
         inkscape:connector-curvature="0" />
    </marker>
    <marker
       inkscape:stockid="Arrow1Lstart"
       orient="auto"
       refY="0"
       refX="0"
       id="marker6225"
       style="overflow:visible"
       inkscape:isstock="true">
      <path
         id="path6227"
         d="M 0,0 5,-5 -12.5,0 5,5 0,0 Z"
         style="fill:#000000;fill-opacity:1;fill-rule:evenodd;stroke:#000000;stroke-width:1pt;stroke-opacity:1"
         transform="matrix(0.8,0,0,0.8,10,0)"
         inkscape:connector-curvature="0" />
    </marker>
    <marker
       inkscape:stockid="Arrow1Lend"
       orient="auto"
       refY="0"
       refX="0"
       id="marker6109"
       style="overflow:visible"
       inkscape:isstock="true">
      <path
         id="path6111"
         d="M 0,0 5,-5 -12.5,0 5,5 0,0 Z"
         style="fill:#000000;fill-opacity:1;fill-rule:evenodd;stroke:#000000;stroke-width:1pt;stroke-opacity:1"
         transform="matrix(-0.8,0,0,-0.8,-10,0)"
         inkscape:connector-curvature="0" />
    </marker>
    <marker
       inkscape:stockid="Arrow1Lstart"
       orient="auto"
       refY="0"
       refX="0"
       id="marker5985"
       style="overflow:visible"
       inkscape:isstock="true">
      <path
         id="path5987"
         d="M 0,0 5,-5 -12.5,0 5,5 0,0 Z"
         style="fill:#000000;fill-opacity:1;fill-rule:evenodd;stroke:#000000;stroke-width:1pt;stroke-opacity:1"
         transform="matrix(0.8,0,0,0.8,10,0)"
         inkscape:connector-curvature="0" />
    </marker>
    <marker
       inkscape:isstock="true"
       style="overflow:visible"
       id="marker5793"
       refX="0"
       refY="0"
       orient="auto"
       inkscape:stockid="Arrow1Lend"
       inkscape:collect="always">
      <path
         transform="matrix(-0.8,0,0,-0.8,-10,0)"
         style="fill:#000000;fill-opacity:1;fill-rule:evenodd;stroke:#000000;stroke-width:1pt;stroke-opacity:1"
         d="M 0,0 5,-5 -12.5,0 5,5 0,0 Z"
         id="path5795"
         inkscape:connector-curvature="0" />
    </marker>
    <marker
       inkscape:isstock="true"
       style="overflow:visible"
       id="marker5681"
       refX="0"
       refY="0"
       orient="auto"
       inkscape:stockid="Arrow1Lstart"
       inkscape:collect="always">
      <path
         transform="matrix(0.8,0,0,0.8,10,0)"
         style="fill:#000000;fill-opacity:1;fill-rule:evenodd;stroke:#000000;stroke-width:1pt;stroke-opacity:1"
         d="M 0,0 5,-5 -12.5,0 5,5 0,0 Z"
         id="path5683"
         inkscape:connector-curvature="0" />
    </marker>
    <marker
       inkscape:isstock="true"
       style="overflow:visible"
       id="marker5581"
       refX="0"
       refY="0"
       orient="auto"
       inkscape:stockid="Arrow1Lstart">
      <path
         transform="matrix(0.8,0,0,0.8,10,0)"
         style="fill:#000000;fill-opacity:1;fill-rule:evenodd;stroke:#000000;stroke-width:1pt;stroke-opacity:1"
         d="M 0,0 5,-5 -12.5,0 5,5 0,0 Z"
         id="path5583"
         inkscape:connector-curvature="0" />
    </marker>
    <marker
       inkscape:isstock="true"
       style="overflow:visible"
       id="marker5481"
       refX="0"
       refY="0"
       orient="auto"
       inkscape:stockid="Arrow1Lend">
      <path
         transform="matrix(-0.8,0,0,-0.8,-10,0)"
         style="fill:#000000;fill-opacity:1;fill-rule:evenodd;stroke:#000000;stroke-width:1pt;stroke-opacity:1"
         d="M 0,0 5,-5 -12.5,0 5,5 0,0 Z"
         id="path5483"
         inkscape:connector-curvature="0" />
    </marker>
    <marker
       inkscape:isstock="true"
       style="overflow:visible"
       id="Arrow1Lstart"
       refX="0"
       refY="0"
       orient="auto"
       inkscape:stockid="Arrow1Lstart">
      <path
         transform="matrix(0.8,0,0,0.8,10,0)"
         style="fill:#000000;fill-opacity:1;fill-rule:evenodd;stroke:#000000;stroke-width:1pt;stroke-opacity:1"
         d="M 0,0 5,-5 -12.5,0 5,5 0,0 Z"
         id="path4997"
         inkscape:connector-curvature="0" />
    </marker>
    <marker
       inkscape:isstock="true"
       style="overflow:visible"
       id="marker5343"
       refX="0"
       refY="0"
       orient="auto"
       inkscape:stockid="Arrow1Lend">
      <path
         transform="matrix(-0.8,0,0,-0.8,-10,0)"
         style="fill:#000000;fill-opacity:1;fill-rule:evenodd;stroke:#000000;stroke-width:1pt;stroke-opacity:1"
         d="M 0,0 5,-5 -12.5,0 5,5 0,0 Z"
         id="path5345"
         inkscape:connector-curvature="0" />
    </marker>
    <marker
       inkscape:isstock="true"
       style="overflow:visible"
       id="marker5291"
       refX="0"
       refY="0"
       orient="auto"
       inkscape:stockid="Arrow1Lend">
      <path
         transform="matrix(-0.8,0,0,-0.8,-10,0)"
         style="fill:#000000;fill-opacity:1;fill-rule:evenodd;stroke:#000000;stroke-width:1pt;stroke-opacity:1"
         d="M 0,0 5,-5 -12.5,0 5,5 0,0 Z"
         id="path5293"
         inkscape:connector-curvature="0" />
    </marker>
    <marker
       inkscape:isstock="true"
       style="overflow:visible"
       id="Arrow1Lend"
       refX="0"
       refY="0"
       orient="auto"
       inkscape:stockid="Arrow1Lend">
      <path
         transform="matrix(-0.8,0,0,-0.8,-10,0)"
         style="fill:#000000;fill-opacity:1;fill-rule:evenodd;stroke:#000000;stroke-width:1pt;stroke-opacity:1"
         d="M 0,0 5,-5 -12.5,0 5,5 0,0 Z"
         id="path5000"
         inkscape:connector-curvature="0" />
    </marker>
  </defs>
  <metadata
     id="metadata7">
    <rdf:RDF>
      <cc:Work
         rdf:about="">
        <dc:format>image/svg+xml</dc:format>
        <dc:type
           rdf:resource="http://purl.org/dc/dcmitype/StillImage" />
        <dc:title></dc:title>
      </cc:Work>
    </rdf:RDF>
  </metadata>
  <g
     id="layer1"
     inkscape:groupmode="layer"
     inkscape:label="Layer 1"
     transform="translate(-65.481405,-113.21808)">
    <path
       inkscape:connector-curvature="0"
       id="path4991"
       d="m 162.85714,136.64792 0,248.57143 448.57143,0"
       style="fill:none;fill-rule:evenodd;stroke:#000000;stroke-width:3;stroke-linecap:butt;stroke-linejoin:miter;stroke-miterlimit:4;stroke-dasharray:none;stroke-opacity:1;marker-start:url(#marker5681);marker-end:url(#marker5793)" />
    <g
       id="g19292"
       transform="translate(22.857143,257.14286)">
      <path
         id="path19081"
         d="m 103.03288,-128.07051 0,0 0.0246,0 0,-0.0246 0,0 0,-0.0246 0,-0.0246 0.0246,0 0,-0.0246 0,0 0,-0.0246 0.0246,-0.0246 0,0 0,-0.0492 0.0246,-0.0246 0,-0.0492 0.0246,-0.0246 0,-0.0246 0,-0.0246 0,-0.0246 0.0246,0 0,-0.0246 0,-0.0246 0,0 0,-0.0246 0,-0.0246 0,0 0,-0.0246 c 0,-0.17233 -0.14771,-0.34466 -0.34467,-0.34466 -0.14771,0 -0.22157,0.0246 -0.32004,0.14771 -0.0739,0.0246 -0.0739,0.0985 -0.39391,0.81243 -2.09262,4.94843 -3.594383,7.06567 -9.25677,7.06567 l -5.145387,0 c -0.492381,0 -0.566239,0 -0.78781,-0.0492 -0.393905,-0.0246 -0.418524,-0.0985 -0.418524,-0.39391 0,-0.24619 0.07386,-0.44314 0.147714,-0.76319 l 2.437288,-9.74915 3.495909,0 c 2.757336,0 2.954289,0.59085 2.954289,1.64947 0,0.36929 0,0.68934 -0.246191,1.74796 -0.07386,0.12309 -0.09848,0.27081 -0.09848,0.36928 0,0.27081 0.172333,0.36929 0.393905,0.36929 0.320048,0 0.344667,-0.24619 0.492381,-0.73857 l 2.018764,-8.19815 c 0,-0.17234 -0.147714,-0.34467 -0.369286,-0.34467 -0.320048,0 -0.344667,0.1231 -0.492381,0.61548 -0.713953,2.73271 -1.403287,3.49591 -4.554529,3.49591 l -3.348194,0 2.191098,-8.69054 c 0.295428,-1.23095 0.369286,-1.32943 1.821811,-1.32943 l 5.04691,0 c 4.357583,0 5.243863,1.1571 5.243863,3.84058 0,0.0492 0,1.034 -0.14771,2.1911 -0.0492,0.14771 -0.0739,0.34466 -0.0739,0.41852 0,0.29543 0.17234,0.3939 0.39391,0.3939 0.24619,0 0.3939,-0.14771 0.44314,-0.76319 l 0.76319,-6.17938 c 0,-0.1231 0.0739,-0.46777 0.0739,-0.54162 0,-0.39391 -0.32005,-0.39391 -0.96014,-0.39391 l -17.23336,0 c -0.689334,0 -1.034001,0 -1.034001,0.6401 0,0.3939 0.24619,0.3939 0.837048,0.3939 2.191098,0 2.191098,0.24619 2.191098,0.6401 0,0.17233 -0.02462,0.32005 -0.123096,0.68933 l -4.7761,19.07978 c -0.320048,1.23096 -0.393905,1.60024 -2.855813,1.60024 -0.664715,0 -1.034001,0 -1.034001,0.6401 0,0.36929 0.221572,0.36929 0.910906,0.36929 l 17.750352,0 c 0.763192,0 0.81243,-0.0246 1.058621,-0.59086 z"
         inkscape:connector-curvature="0"
         style="font-style:normal;font-variant:normal;font-weight:normal;font-stretch:normal;letter-spacing:normal;word-spacing:normal;text-anchor:start;fill:#000000;fill-opacity:1;fill-rule:evenodd;stroke:#000000;stroke-width:0;stroke-linecap:butt;stroke-linejoin:miter;stroke-miterlimit:10.43299961;stroke-dasharray:none;stroke-dashoffset:0;stroke-opacity:1" />
      <path
         id="path19083"
         d="m 111.52646,-122.53121 2.36343,0 c 1.84643,0 2.04338,0.3939 2.04338,1.08324 0,0.17233 0,0.46776 -0.17233,1.20633 -0.0492,0.1231 -0.0739,0.22157 -0.0739,0.27081 0,0.19695 0.14772,0.29543 0.29543,0.29543 0.24619,0 0.24619,-0.0739 0.36929,-0.517 l 1.35405,-5.31772 c 0.0739,-0.27081 0.0739,-0.32005 0.0739,-0.39391 0,-0.0492 -0.0492,-0.27081 -0.29543,-0.27081 -0.24619,0 -0.27081,0.1231 -0.36928,0.517 -0.517,1.92029 -1.08324,2.36343 -3.17586,2.36343 l -2.21572,0 1.551,-6.22862 c 0.22157,-0.86167 0.24619,-0.96014 1.32943,-0.96014 l 3.24972,0 c 3.00353,0 3.56977,0.81242 3.56977,2.70809 0,0.54162 0,0.6401 -0.0739,1.30481 -0.0492,0.32005 -0.0492,0.36929 -0.0492,0.44315 0,0.12309 0.0739,0.29543 0.29543,0.29543 0.27081,0 0.29543,-0.14772 0.34467,-0.61548 l 0.49238,-4.23448 c 0.0738,-0.66472 -0.0492,-0.66472 -0.66472,-0.66472 l -12.01411,0 c -0.49238,0 -0.73857,0 -0.73857,0.49239 0,0.27081 0.22157,0.27081 0.68934,0.27081 0.9109,0 1.60024,0 1.60024,0.44314 0,0.0985 0,0.14771 -0.1231,0.59086 l -3.24972,12.97425 c -0.24619,0.96014 -0.29543,1.15709 -2.21571,1.15709 -0.41853,0 -0.68934,0 -0.68934,0.46777 0,0.29543 0.29543,0.29543 0.36929,0.29543 0.68933,0 2.51114,-0.0985 3.2251,-0.0985 0.81243,0 2.85581,0.0985 3.64362,0.0985 0.22157,0 0.517,0 0.517,-0.46777 0,-0.19695 -0.14771,-0.24619 -0.14771,-0.27081 -0.0739,-0.0246 -0.0985,-0.0246 -0.68934,-0.0246 -0.517,0 -0.64009,0 -1.25557,-0.0492 -0.71395,-0.0739 -0.78781,-0.17234 -0.78781,-0.49238 0,-0.0492 0,-0.19696 0.0985,-0.56624 z"
         inkscape:connector-curvature="0"
         style="font-style:normal;font-variant:normal;font-weight:normal;font-stretch:normal;letter-spacing:normal;word-spacing:normal;text-anchor:start;fill:#000000;fill-opacity:1;fill-rule:evenodd;stroke:#000000;stroke-width:0;stroke-linecap:butt;stroke-linejoin:miter;stroke-miterlimit:10.43299961;stroke-dasharray:none;stroke-dashoffset:0;stroke-opacity:1" />
    </g>
    <g
       id="g19287"
       transform="translate(425.71429,558.57143)">
      <path
         id="path19085"
         d="m 146.19011,-142.49728 0,-0.0492 0,-0.0246 0,-0.0492 0,-0.0246 0,-0.0246 0,-0.0492 0,-0.0246 0,-0.0246 0,-0.0246 0,-0.0492 0,-0.0246 0,-0.0246 0,-0.0246 0,-0.0246 0,-0.0246 0,-0.0246 0,0 0,-0.0246 0,-0.0246 0,-0.0246 -0.0246,-0.0246 0,0 0,-0.0246 0,-0.0246 -0.0246,-0.0246 0,-0.0246 -0.0246,-0.0246 0,-0.0246 -0.0246,-0.0246 -0.0246,0 -0.0246,-0.0246 -0.0246,-0.0246 -0.0246,0 -0.0246,0 -0.0246,-0.0246 -0.0246,0 -0.0246,0 0,0 -0.0246,0 -0.0246,0 -0.0246,0 -0.0246,-0.0246 -0.0246,0 -0.0246,0 -0.0246,0 -0.0246,0 -0.0246,0 -0.0246,0 -0.0246,0 -0.0246,0 -0.0492,0 -0.0246,0 -0.0246,0 c -0.86167,0.96014 -2.60962,2.26495 -6.25324,2.26495 l 0,1.03401 c 0.81242,0 2.56038,0 4.50529,-0.93553 l 0,18.41507 c 0,1.25557 -0.0985,1.69871 -3.20048,1.69871 l -1.10786,0 0,1.00939 c 0.96014,-0.0739 4.38219,-0.0739 5.56391,-0.0739 1.15709,0 4.55453,0 5.49005,0.0739 l 0,-1.00939 -1.08324,0 c -3.102,0 -3.2251,-0.44314 -3.2251,-1.69871 z"
         inkscape:connector-curvature="0"
         style="font-style:normal;font-variant:normal;font-weight:normal;font-stretch:normal;letter-spacing:normal;word-spacing:normal;text-anchor:start;fill:#000000;fill-opacity:1;fill-rule:evenodd;stroke:#000000;stroke-width:0;stroke-linecap:butt;stroke-linejoin:miter;stroke-miterlimit:10.43299961;stroke-dasharray:none;stroke-dashoffset:0;stroke-opacity:1" />
      <path
         id="path19087"
         d="m 168.47038,-145.05767 0,0 0,0 0,0 0,0 0,0 0,-0.0246 0,0 0,0 0,0 0,-0.0246 0,0 0,0 0.0246,-0.0246 0,-0.0246 0,-0.0246 0.0246,-0.0246 0,-0.0246 0,-0.0246 0.0246,-0.0246 0,-0.0246 0.0246,-0.0492 0.0246,-0.0492 0,-0.0246 0.0246,-0.0246 0,-0.0246 0,-0.0492 0.0246,0 0,-0.0246 0,-0.0246 0.0246,-0.0246 0,-0.0246 0,0 0,-0.0246 0,0 0,0 0,0 0,-0.0246 0,0 0,0 0,0 0,-0.0246 c 0,-0.41853 -0.34467,-0.66472 -0.6401,-0.66472 -0.17233,0 -0.49238,0 -0.76319,0.78781 l -11.84177,33.23575 c 0,0.0246 -0.19696,0.56624 -0.19696,0.6401 0,0.41852 0.34467,0.66471 0.61548,0.66471 0.22157,0 0.54162,-0.0492 0.78781,-0.78781 z"
         inkscape:connector-curvature="0"
         style="font-style:normal;font-variant:normal;font-weight:normal;font-stretch:normal;letter-spacing:normal;word-spacing:normal;text-anchor:start;fill:#000000;fill-opacity:1;fill-rule:evenodd;stroke:#000000;stroke-width:0;stroke-linecap:butt;stroke-linejoin:miter;stroke-miterlimit:10.43299961;stroke-dasharray:none;stroke-dashoffset:0;stroke-opacity:1" />
      <path
         id="path19089"
         d="m 185.33444,-141.41404 0.0246,-0.0739 0.0246,-0.0739 0,-0.0739 0.0246,-0.0739 0.0246,-0.0739 0.0246,-0.0492 0,-0.0739 0.0246,-0.0492 0.0246,-0.0492 0,-0.0492 0.0246,-0.0492 0.0246,-0.0492 0,-0.0492 0.0246,-0.0492 0.0246,-0.0492 0.0246,-0.0246 0.0246,-0.0492 0.0246,-0.0246 0.0246,-0.0246 0.0246,-0.0492 0.0246,-0.0246 0.0246,-0.0246 0.0246,-0.0246 0.0246,-0.0246 0.0492,-0.0246 0.0246,-0.0246 0.0246,-0.0246 0.0492,0 0.0492,-0.0246 0.0246,-0.0246 0.0492,0 0.0492,-0.0246 c 0.29543,-0.0739 1.45253,-0.0739 2.1911,-0.0739 3.54515,0 5.19462,0.14771 5.19462,2.90505 0,0.517 -0.14771,1.87105 -0.34466,3.17586 l -0.0492,0.41852 c 0,0.14772 0.14771,0.36929 0.36928,0.36929 0.34467,0 0.34467,-0.19695 0.44315,-0.76319 l 1.034,-6.25325 c 0.0739,-0.32004 0.0739,-0.36928 0.0739,-0.49238 0,-0.36928 -0.22158,-0.36928 -0.93553,-0.36928 l -19.30135,0 c -0.81243,0 -0.86167,0.0246 -1.05862,0.66471 l -2.16648,6.35172 c -0.0246,0.0739 -0.14772,0.46776 -0.14772,0.49238 0,0.17234 0.14772,0.36929 0.36929,0.36929 0.27081,0 0.34467,-0.14771 0.49238,-0.61548 1.47715,-4.28372 2.21572,-6.25324 6.91796,-6.25324 l 2.36343,0 c 0.86167,0 1.20634,0 1.20634,0.3939 0,0.0985 0,0.17234 -0.17234,0.81243 l -4.75148,18.95669 c -0.34466,1.37867 -0.41852,1.74795 -4.16062,1.74795 -0.88629,0 -1.13248,0 -1.13248,0.66472 0,0.34467 0.39391,0.34467 0.56624,0.34467 0.88629,0 1.79719,-0.0739 2.68348,-0.0739 l 5.51467,0 c 0.88629,0 1.84643,0.0739 2.73272,0.0739 0.36928,0 0.73857,0 0.73857,-0.66472 0,-0.34467 -0.24619,-0.34467 -1.18171,-0.34467 -3.17587,0 -3.17587,-0.32004 -3.17587,-0.86166 0,-0.0246 0,-0.27081 0.14772,-0.83705 z"
         inkscape:connector-curvature="0"
         style="font-style:normal;font-variant:normal;font-weight:normal;font-stretch:normal;letter-spacing:normal;word-spacing:normal;text-anchor:start;fill:#000000;fill-opacity:1;fill-rule:evenodd;stroke:#000000;stroke-width:0;stroke-linecap:butt;stroke-linejoin:miter;stroke-miterlimit:10.43299961;stroke-dasharray:none;stroke-dashoffset:0;stroke-opacity:1" />
    </g>
    <g
       id="g20215"
       transform="translate(196.97975,27.779195)">
      <path
         id="path19091"
         d="m 309.41315,615.28022 0.0246,-0.0246 0,-0.0246 0.0246,-0.0492 0.0246,-0.0492 0.0246,-0.0492 0.0246,-0.0738 0.0492,-0.0739 0.0246,-0.0739 0.0492,-0.0739 0.0492,-0.0985 0.0492,-0.0985 0.0739,-0.0985 0.0492,-0.0985 0.0739,-0.0985 0.0492,-0.12309 0.0739,-0.0985 0.0739,-0.12309 0.0985,-0.1231 0.0739,-0.1231 0.0739,-0.0985 0.0985,-0.1231 0.0985,-0.12309 0.0985,-0.1231 0.0985,-0.12309 0.0985,-0.1231 0.0985,-0.12309 0.12309,-0.1231 0.0985,-0.12309 0.12309,-0.1231 0.0985,-0.0985 0.1231,-0.12309 0.12309,-0.0985 c 0.91091,-0.86167 2.11724,-1.4279 3.49591,-1.4279 1.42791,0 1.92029,1.05862 1.92029,2.48652 0,2.01877 -1.45253,6.03168 -2.16648,7.92734 -0.32005,0.86167 -0.49238,1.32943 -0.49238,1.94491 0,1.60024 1.08324,2.88043 2.78195,2.88043 3.29896,0 4.52991,-5.19462 4.52991,-5.41619 0,-0.17234 -0.14771,-0.32005 -0.34466,-0.32005 -0.32005,0 -0.36929,0.0985 -0.54162,0.71395 -0.81243,2.90505 -2.14186,4.30834 -3.52053,4.30834 -0.36929,0 -0.93553,-0.0246 -0.93553,-1.1571 0,-0.88628 0.39391,-1.9449 0.61548,-2.43729 0.68933,-1.9449 2.1911,-5.90857 2.1911,-7.92734 0,-2.11724 -1.23096,-3.69286 -3.93905,-3.69286 -3.12663,0 -4.80072,2.21572 -5.44082,3.102 -0.0985,-2.01876 -1.551,-3.102 -3.102,-3.102 -1.13248,0 -1.89567,0.66472 -2.51115,1.87105 -0.61548,1.25557 -1.10786,3.37281 -1.10786,3.52053 0,0.14771 0.1231,0.32005 0.36929,0.32005 0.29543,0 0.32005,-0.0246 0.54162,-0.83705 0.56624,-2.16648 1.20633,-4.18524 2.60962,-4.18524 0.81243,0 1.08324,0.56623 1.08324,1.62485 0,0.78781 -0.34467,2.16648 -0.59086,3.24972 l -0.98476,3.81596 c -0.14772,0.66471 -0.54162,2.26495 -0.71395,2.90505 -0.24619,0.91091 -0.6401,2.585 -0.6401,2.75734 0,0.49238 0.39391,0.88628 0.93552,0.88628 0.41853,0 0.91091,-0.22157 1.18172,-0.73857 0.0739,-0.19695 0.39391,-1.42791 0.56624,-2.14186 l 0.78781,-3.17586 z"
         inkscape:connector-curvature="0"
         style="font-style:normal;font-variant:normal;font-weight:normal;font-stretch:normal;letter-spacing:normal;word-spacing:normal;text-anchor:start;fill:#000000;fill-opacity:1;fill-rule:evenodd;stroke:#000000;stroke-width:0;stroke-linecap:butt;stroke-linejoin:miter;stroke-miterlimit:10.43299961;stroke-dasharray:none;stroke-dashoffset:0;stroke-opacity:1" />
      <path
         id="path19093"
         d="m 327.38507,625.25094 0.0739,0 0.0738,0 0.0985,0 0.0739,0 0.0985,0 0.0985,0 0.0985,0 0.0985,0 0.1231,0 0.0985,-0.0246 0.1231,0 0.1231,0 0.12309,-0.0246 0.1231,0 0.27081,-0.0246 0.24619,-0.0492 0.27081,-0.0246 0.27081,-0.0492 0.27081,-0.0492 0.27081,-0.0739 0.12309,-0.0246 0.1231,-0.0492 0.12309,-0.0246 0.1231,-0.0492 0.12309,-0.0492 0.1231,-0.0492 c 1.69871,-0.71395 1.82181,-2.16648 1.82181,-2.51114 0,-1.08324 -0.91091,-2.09263 -2.60962,-2.09263 l 0,0.54162 c 1.15709,0 1.82181,0.71396 1.82181,1.55101 0,2.53576 -3.93905,2.53576 -4.94843,2.53576 l -1.00939,0 c 0.96015,-3.71748 3.49591,-4.08677 4.13601,-4.08677 l 0,-0.54162 c -2.73272,0 -6.42558,2.38805 -6.42558,6.67177 0,2.51115 1.45253,4.43144 3.84058,4.43144 3.52052,0 5.56391,-2.58501 5.56391,-2.88043 0,-0.14772 -0.14772,-0.32005 -0.29543,-0.32005 -0.1231,0 -0.14772,0.0492 -0.29543,0.24619 -1.94491,2.43729 -4.62839,2.43729 -4.92382,2.43729 -1.92028,0 -2.11724,-2.06801 -2.11724,-2.85582 0,-0.29543 0.0246,-1.05862 0.36929,-2.56038 z"
         inkscape:connector-curvature="0"
         style="font-style:normal;font-variant:normal;font-weight:normal;font-stretch:normal;letter-spacing:normal;word-spacing:normal;text-anchor:start;fill:#000000;fill-opacity:1;fill-rule:evenodd;stroke:#000000;stroke-width:0;stroke-linecap:butt;stroke-linejoin:miter;stroke-miterlimit:10.43299961;stroke-dasharray:none;stroke-dashoffset:0;stroke-opacity:1" />
    </g>
    <g
       id="g19314"
       transform="translate(-31.819806,806.10173)">
      <path
         id="path19095"
         d="m 247.76841,-130.21236 0.0246,-0.0246 0,-0.0246 0.0246,-0.0492 0.0246,-0.0492 0.0246,-0.0492 0.0246,-0.0738 0.0492,-0.0739 0.0246,-0.0739 0.0492,-0.0739 0.0492,-0.0985 0.0492,-0.0985 0.0739,-0.0985 0.0492,-0.0985 0.0739,-0.0985 0.0492,-0.12309 0.0739,-0.0985 0.0739,-0.12309 0.0985,-0.1231 0.0739,-0.1231 0.0739,-0.0985 0.0985,-0.1231 0.0985,-0.12309 0.0985,-0.1231 0.0985,-0.12309 0.0985,-0.1231 0.0985,-0.12309 0.1231,-0.1231 0.0985,-0.12309 0.12309,-0.1231 0.0985,-0.0985 0.12309,-0.12309 0.1231,-0.0985 c 0.9109,-0.86167 2.11724,-1.4279 3.49591,-1.4279 1.4279,0 1.92028,1.05862 1.92028,2.48652 0,2.01877 -1.45252,6.03168 -2.16647,7.92734 -0.32005,0.86167 -0.49239,1.32943 -0.49239,1.94491 0,1.60024 1.08324,2.88043 2.78196,2.88043 3.29896,0 4.52991,-5.19462 4.52991,-5.41619 0,-0.17234 -0.14772,-0.32005 -0.34467,-0.32005 -0.32005,0 -0.36928,0.0985 -0.54162,0.71395 -0.81243,2.90505 -2.14186,4.30834 -3.52052,4.30834 -0.36929,0 -0.93553,-0.0246 -0.93553,-1.1571 0,-0.88628 0.39391,-1.9449 0.61548,-2.43729 0.68933,-1.9449 2.19109,-5.90857 2.19109,-7.92734 0,-2.11724 -1.23095,-3.69286 -3.93905,-3.69286 -3.12662,0 -4.80072,2.21572 -5.44081,3.102 -0.0985,-2.01876 -1.551,-3.102 -3.10201,-3.102 -1.13247,0 -1.89566,0.66472 -2.51114,1.87105 -0.61548,1.25557 -1.13248,3.37281 -1.13248,3.52053 0,0.14771 0.14772,0.32005 0.39391,0.32005 0.29543,0 0.32004,-0.0246 0.54162,-0.83705 0.56623,-2.16648 1.20633,-4.18524 2.60962,-4.18524 0.81243,0 1.08324,0.56623 1.08324,1.62485 0,0.78781 -0.34467,2.16648 -0.59086,3.24972 l -0.98476,3.81596 c -0.14772,0.66471 -0.54162,2.26495 -0.71396,2.90505 -0.24619,0.91091 -0.64009,2.585 -0.64009,2.75734 0,0.49238 0.3939,0.88628 0.93552,0.88628 0.41853,0 0.91091,-0.22157 1.18172,-0.73857 0.0738,-0.19695 0.3939,-1.42791 0.56624,-2.14186 l 0.78781,-3.17586 z"
         inkscape:connector-curvature="0"
         style="font-style:normal;font-variant:normal;font-weight:normal;font-stretch:normal;letter-spacing:normal;word-spacing:normal;text-anchor:start;fill:#000000;fill-opacity:1;fill-rule:evenodd;stroke:#000000;stroke-width:0;stroke-linecap:butt;stroke-linejoin:miter;stroke-miterlimit:10.43299961;stroke-dasharray:none;stroke-dashoffset:0;stroke-opacity:1" />
      <path
         id="path19097"
         d="m 268.17763,-131.32022 0,0 0,0 0,0 0,0 0,-0.0246 0,0 0,0 0,-0.0246 0,0 0,0 0,-0.0246 0,0 0,-0.0246 -0.0246,0 0,-0.0246 0,0 0,-0.0246 -0.0246,0 0,-0.0246 -0.0246,0 0,-0.0246 0,0 0,0 -0.0246,0 0,-0.0246 0,0 -0.0246,0 0,0 0,0 -0.0246,0 0,-0.0246 0,0 -0.0246,0 0,0 -0.0246,0 0,0 -0.0246,0 0,-0.0246 0,0 -0.0246,0 -0.0246,0 0,0 -0.0246,0 0,0 -0.0246,0 c -0.56624,0 -2.33881,0.19695 -2.97891,0.24619 -0.19695,0.0246 -0.46776,0.0492 -0.46776,0.49238 0,0.29543 0.22157,0.29543 0.59086,0.29543 1.18171,0 1.20633,0.17233 1.20633,0.41852 l -0.0739,0.49238 -3.54514,14.13135 c -0.0985,0.34467 -0.0985,0.39391 -0.0985,0.54162 0,0.56624 0.49238,0.66472 0.71395,0.66472 0.39391,0 0.78781,-0.27081 0.91091,-0.61548 l 0.46776,-1.87105 0.54162,-2.21572 c 0.14771,-0.54162 0.29543,-1.08324 0.41852,-1.64947 0.0492,-0.14772 0.2462,-0.93553 0.27081,-1.08324 0.0739,-0.22158 0.81243,-1.60024 1.64948,-2.26496 0.54162,-0.3939 1.30481,-0.86167 2.36343,-0.86167 1.05862,0 1.32943,0.83705 1.32943,1.72334 0,1.32943 -0.93552,3.98829 -1.52638,5.49005 -0.19695,0.56624 -0.32005,0.86167 -0.32005,1.35405 0,1.1571 0.86167,1.99415 2.01877,1.99415 2.28957,0 3.20048,-3.56977 3.20048,-3.76672 0,-0.24619 -0.22158,-0.24619 -0.29543,-0.24619 -0.24619,0 -0.24619,0.0739 -0.36929,0.44314 -0.36928,1.30481 -1.13248,3.05277 -2.48652,3.05277 -0.41853,0 -0.59086,-0.24619 -0.59086,-0.81243 0,-0.61548 0.22157,-1.20634 0.44314,-1.74796 0.39391,-1.05862 1.50176,-3.96367 1.50176,-5.39157 0,-1.60024 -0.98476,-2.63425 -2.83119,-2.63425 -1.551,0 -2.73272,0.7632 -3.64362,1.89567 z"
         inkscape:connector-curvature="0"
         style="font-style:normal;font-variant:normal;font-weight:normal;font-stretch:normal;letter-spacing:normal;word-spacing:normal;text-anchor:start;fill:#000000;fill-opacity:1;fill-rule:evenodd;stroke:#000000;stroke-width:0;stroke-linecap:butt;stroke-linejoin:miter;stroke-miterlimit:10.43299961;stroke-dasharray:none;stroke-dashoffset:0;stroke-opacity:1" />
    </g>
    <path
       style="font-style:normal;font-variant:normal;font-weight:normal;font-stretch:normal;letter-spacing:normal;word-spacing:normal;text-anchor:start;fill:#000000;fill-opacity:1;fill-rule:evenodd;stroke:#000000;stroke-width:0;stroke-linecap:butt;stroke-linejoin:miter;stroke-miterlimit:10.43299961;stroke-dasharray:none;stroke-dashoffset:0;stroke-opacity:1"
       inkscape:connector-curvature="0"
       d="m 133.78612,468.35907 0,-0.0246 0.0246,-0.0246 0,-0.0492 0.0246,-0.0492 0.0492,-0.0492 0.0246,-0.0738 0.0246,-0.0739 0.0492,-0.0739 0.0492,-0.0739 0.0492,-0.0985 0.0492,-0.0985 0.0492,-0.0985 0.0739,-0.0985 0.0492,-0.0985 0.0739,-0.12309 0.0738,-0.0985 0.0739,-0.12309 0.0739,-0.1231 0.0739,-0.1231 0.0985,-0.0985 0.0985,-0.1231 0.0739,-0.12309 0.0985,-0.1231 0.0985,-0.12309 0.0985,-0.1231 0.1231,-0.12309 0.0985,-0.1231 0.12309,-0.12309 0.0985,-0.1231 0.12309,-0.0985 0.1231,-0.12309 0.12309,-0.0985 c 0.91091,-0.86167 2.11724,-1.4279 3.49591,-1.4279 1.40329,0 1.89567,1.05862 1.89567,2.48652 0,2.01877 -1.45252,6.03168 -2.14186,7.92734 -0.32005,0.86167 -0.49238,1.32943 -0.49238,1.94491 0,1.60024 1.08324,2.88043 2.78195,2.88043 3.27434,0 4.52991,-5.19462 4.52991,-5.41619 0,-0.17234 -0.14771,-0.32005 -0.36928,-0.32005 -0.32005,0 -0.34467,0.0985 -0.517,0.71395 -0.81243,2.90505 -2.16648,4.30834 -3.54515,4.30834 -0.34467,0 -0.9109,-0.0246 -0.9109,-1.1571 0,-0.88628 0.3939,-1.9449 0.59085,-2.43729 0.71396,-1.9449 2.1911,-5.90857 2.1911,-7.92734 0,-2.11724 -1.23095,-3.69286 -3.91443,-3.69286 -3.15124,0 -4.80072,2.21572 -5.44082,3.102 -0.0985,-2.01876 -1.551,-3.102 -3.102,-3.102 -1.13248,0 -1.92029,0.66472 -2.51115,1.87105 -0.64009,1.25557 -1.13247,3.37281 -1.13247,3.52053 0,0.14771 0.14771,0.32005 0.3939,0.32005 0.27081,0 0.32005,-0.0246 0.517,-0.83705 0.56624,-2.16648 1.20634,-4.18524 2.60962,-4.18524 0.81243,0 1.10786,0.56623 1.10786,1.62485 0,0.78781 -0.34466,2.16648 -0.59086,3.24972 l -1.00938,3.81596 c -0.12309,0.66471 -0.517,2.26495 -0.68933,2.90505 -0.24619,0.91091 -0.6401,2.585 -0.6401,2.75734 0,0.49238 0.39391,0.88628 0.91091,0.88628 0.41852,0 0.9109,-0.22157 1.20633,-0.73857 0.0739,-0.19695 0.39391,-1.42791 0.56624,-2.14186 l 0.76319,-3.17586 z"
       id="path19099" />
    <g
       id="g19280"
       transform="translate(-62.629458,710.7819)">
      <path
         id="path19101"
         d="m 340.79684,-140.28157 0.0739,-0.27081 0.0246,-0.14771 0.0492,-0.1231 0.0492,-0.12309 0.0492,-0.14772 0.0492,-0.12309 0.0492,-0.0985 0.0492,-0.12309 0.0739,-0.1231 0.0739,-0.0985 0.0739,-0.0985 0.0738,-0.1231 0.0739,-0.0985 0.0985,-0.0739 0.0985,-0.0985 0.0985,-0.0985 0.0985,-0.0739 0.12309,-0.0739 0.1231,-0.0738 0.12309,-0.0739 0.14772,-0.0492 0.14771,-0.0739 0.17233,-0.0492 0.14772,-0.0492 0.19695,-0.0492 0.17234,-0.0246 0.19695,-0.0492 0.22157,-0.0246 0.22157,-0.0246 0.22157,0 0.1231,-0.0246 0.12309,0 c 0.1231,0 0.54162,-0.0246 0.54162,-0.64009 0,-0.39391 -0.32004,-0.39391 -0.46776,-0.39391 -0.68933,0 -2.51114,0.0739 -3.20048,0.0739 l -1.69871,0 c -0.49239,0 -1.13248,-0.0739 -1.62486,-0.0739 -0.22158,0 -0.6401,0 -0.6401,0.68934 0,0.34466 0.27081,0.34466 0.54162,0.34466 2.11724,0.0739 2.24034,0.88629 2.24034,1.52639 0,0.32005 -0.0246,0.41852 -0.1231,0.9109 l -4.01291,15.92854 -7.53344,-18.78435 c -0.24619,-0.56624 -0.29542,-0.61548 -1.08323,-0.61548 l -4.30834,0 c -0.68934,0 -1.00938,0 -1.00938,0.68934 0,0.34466 0.24619,0.34466 0.9109,0.34466 0.17233,0 2.26496,0 2.26496,0.32005 0,0.0739 -0.0739,0.34467 -0.0985,0.46777 l -4.70224,18.71049 c -0.41853,1.72334 -1.2802,2.46191 -3.59439,2.585 -0.19695,0 -0.54162,0.0246 -0.54162,0.66472 0,0.34467 0.34467,0.34467 0.46776,0.34467 0.68934,0 2.51115,-0.0739 3.20048,-0.0739 l 1.69872,0 c 0.49238,0 1.08324,0.0739 1.60024,0.0739 0.24619,0 0.61548,0 0.61548,-0.66472 0,-0.32005 -0.34467,-0.34467 -0.49238,-0.34467 -1.1571,-0.0492 -2.28958,-0.24619 -2.28958,-1.52638 0,-0.27081 0.0739,-0.59086 0.14772,-0.88629 l 4.75148,-18.88282 c 0.22157,0.34466 0.22157,0.41852 0.36928,0.73857 l 8.39511,20.92621 c 0.17233,0.44314 0.24619,0.6401 0.56624,0.6401 0.36928,0 0.3939,-0.0985 0.54162,-0.68934 z"
         inkscape:connector-curvature="0"
         style="font-style:normal;font-variant:normal;font-weight:normal;font-stretch:normal;letter-spacing:normal;word-spacing:normal;text-anchor:start;fill:#000000;fill-opacity:1;fill-rule:evenodd;stroke:#000000;stroke-width:0;stroke-linecap:butt;stroke-linejoin:miter;stroke-miterlimit:10.43299961;stroke-dasharray:none;stroke-dashoffset:0;stroke-opacity:1" />
      <path
         id="path19103"
         d="m 346.26227,-116.47492 -0.0246,0.0739 -0.0246,0.0985 0,0.0739 -0.0246,0.0739 -0.0246,0.0739 -0.0246,0.0739 -0.0246,0.0492 -0.0246,0.0492 -0.0246,0.0739 -0.0246,0.0492 -0.0492,0.0492 -0.0246,0.0492 -0.0492,0.0246 -0.0246,0.0492 -0.0492,0.0246 -0.0492,0.0492 -0.0739,0.0246 -0.0492,0.0246 -0.0739,0.0246 -0.0739,0.0246 -0.0739,0.0246 -0.0492,0 -0.0492,0.0246 -0.0246,0 -0.0492,0 -0.0492,0 -0.0738,0.0246 -0.0492,0 -0.0492,0 -0.0492,0 -0.0739,0.0246 -0.0492,0 -0.0739,0 -0.0739,0 -0.0492,0 -0.0738,0 -0.0739,0 -0.0739,0 -0.0985,0 -0.0739,0.0246 -0.0739,0 -0.0985,0 -0.0738,0 c -0.41853,0 -0.68934,0 -0.68934,0.46777 0,0.29543 0.22158,0.29543 0.68934,0.29543 l 8.09967,0 -0.44314,-0.7632 -2.75734,0 c -0.34466,0 -0.3939,0 -0.54162,-0.0246 -0.24619,-0.0246 -0.32004,-0.0492 -0.32004,-0.24619 0,-0.0739 0,-0.1231 0.12309,-0.56624 l 3.3482,-13.46664 c 0.22157,-0.86166 0.2708,-0.93552 1.32943,-0.93552 l 2.63424,0 c 2.38805,0 4.43143,1.30481 4.43143,4.52991 0,1.20633 -0.49238,5.21924 -2.585,7.92734 -0.68934,0.91091 -2.63424,2.78195 -5.66239,2.78195 l 0.44314,0.7632 c 5.12077,0 9.94611,-5.19463 9.94611,-10.56159 0,-3.44667 -2.09262,-6.204 -5.76086,-6.204 l -8.24739,0 c -0.46777,0 -0.73858,0 -0.73858,0.46776 0,0.29543 0.22158,0.29543 0.71396,0.29543 0.32004,0 0.76319,0.0246 1.05862,0.0492 0.3939,0.0492 0.54162,0.12309 0.54162,0.3939 0,0.0985 -0.0246,0.17233 -0.0985,0.46776 z"
         inkscape:connector-curvature="0"
         style="font-style:normal;font-variant:normal;font-weight:normal;font-stretch:normal;letter-spacing:normal;word-spacing:normal;text-anchor:start;fill:#000000;fill-opacity:1;fill-rule:evenodd;stroke:#000000;stroke-width:0;stroke-linecap:butt;stroke-linejoin:miter;stroke-miterlimit:10.43299961;stroke-dasharray:none;stroke-dashoffset:0;stroke-opacity:1" />
      <path
         id="path19105"
         d="m 389.69737,-127.99665 0.1231,0 0.0985,0 0.12309,0 0.0492,0 0.0492,0 0.0739,0 0.0492,-0.0246 0.0492,0 0.0492,0 0.0492,-0.0246 0.0492,0 0.0492,-0.0246 0.0246,0 0.0492,-0.0246 0.0492,-0.0246 0.0246,-0.0246 0.0492,-0.0246 0.0246,-0.0246 0.0492,-0.0246 0.0246,-0.0246 0.0246,-0.0492 0,-0.0246 0.0246,0 0,-0.0246 0.0246,-0.0246 0,-0.0246 0.0246,-0.0246 0,-0.0246 0,-0.0246 0.0246,-0.0246 0,-0.0246 0,-0.0246 0,-0.0246 0,-0.0492 0,-0.0246 0,-0.0246 0,-0.0246 c 0,-0.71396 -0.61548,-0.71396 -1.23096,-0.71396 l -19.1044,0 c -0.59085,0 -1.23095,0 -1.23095,0.71396 0,0.68933 0.6401,0.68933 1.23095,0.68933 z"
         inkscape:connector-curvature="0"
         style="font-style:normal;font-variant:normal;font-weight:normal;font-stretch:normal;letter-spacing:normal;word-spacing:normal;text-anchor:start;fill:#000000;fill-opacity:1;fill-rule:evenodd;stroke:#000000;stroke-width:0;stroke-linecap:butt;stroke-linejoin:miter;stroke-miterlimit:10.43299961;stroke-dasharray:none;stroke-dashoffset:0;stroke-opacity:1" />
      <path
         id="path19107"
         d="m 421.88156,-140.28157 0.0739,-0.27081 0.0492,-0.14771 0.0492,-0.1231 0.0246,-0.12309 0.0492,-0.14772 0.0492,-0.12309 0.0738,-0.0985 0.0492,-0.12309 0.0492,-0.1231 0.0739,-0.0985 0.0739,-0.0985 0.0738,-0.1231 0.0985,-0.0985 0.0739,-0.0739 0.0985,-0.0985 0.0985,-0.0985 0.12309,-0.0739 0.0985,-0.0739 0.1231,-0.0738 0.14771,-0.0739 0.14771,-0.0492 0.14772,-0.0739 0.14771,-0.0492 0.17234,-0.0492 0.17233,-0.0492 0.19695,-0.0246 0.19696,-0.0492 0.19695,-0.0246 0.22157,-0.0246 0.24619,0 0.1231,-0.0246 0.12309,0 c 0.0985,0 0.517,-0.0246 0.517,-0.64009 0,-0.39391 -0.29543,-0.39391 -0.44314,-0.39391 -0.71395,0 -2.51115,0.0739 -3.2251,0.0739 l -1.69872,0 c -0.49238,0 -1.13247,-0.0739 -1.62485,-0.0739 -0.19696,0 -0.61548,0 -0.61548,0.68934 0,0.34466 0.27081,0.34466 0.517,0.34466 2.11724,0.0739 2.26495,0.88629 2.26495,1.52639 0,0.32005 -0.0492,0.41852 -0.14771,0.9109 l -3.98829,15.92854 -7.55806,-18.78435 c -0.24619,-0.56624 -0.29543,-0.61548 -1.05862,-0.61548 l -4.30833,0 c -0.71396,0 -1.03401,0 -1.03401,0.68934 0,0.34466 0.24619,0.34466 0.93553,0.34466 0.17233,0 2.24033,0 2.24033,0.32005 0,0.0739 -0.0492,0.34467 -0.0985,0.46777 l -4.70224,18.71049 c -0.41853,1.72334 -1.25558,2.46191 -3.59439,2.585 -0.17233,0 -0.54162,0.0246 -0.54162,0.66472 0,0.34467 0.36929,0.34467 0.46776,0.34467 0.71396,0 2.51115,-0.0739 3.2251,-0.0739 l 1.69872,0 c 0.49238,0 1.08324,0.0739 1.57562,0.0739 0.24619,0 0.64009,0 0.64009,-0.66472 0,-0.32005 -0.34466,-0.34467 -0.49238,-0.34467 -1.18171,-0.0492 -2.28957,-0.24619 -2.28957,-1.52638 0,-0.27081 0.0739,-0.59086 0.12309,-0.88629 l 4.77611,-18.88282 c 0.22157,0.34466 0.22157,0.41852 0.34466,0.73857 l 8.41973,20.92621 c 0.17233,0.44314 0.24619,0.6401 0.56623,0.6401 0.34467,0 0.39391,-0.0985 0.517,-0.68934 z"
         inkscape:connector-curvature="0"
         style="font-style:normal;font-variant:normal;font-weight:normal;font-stretch:normal;letter-spacing:normal;word-spacing:normal;text-anchor:start;fill:#000000;fill-opacity:1;fill-rule:evenodd;stroke:#000000;stroke-width:0;stroke-linecap:butt;stroke-linejoin:miter;stroke-miterlimit:10.43299961;stroke-dasharray:none;stroke-dashoffset:0;stroke-opacity:1" />
      <path
         id="path19109"
         d="m 427.83937,-117.38583 -0.0985,0.14772 -0.0985,0.14771 -0.0739,0.1231 -0.0985,0.14771 -0.0985,0.0985 -0.0985,0.12309 -0.0739,0.1231 -0.0985,0.0985 -0.0985,0.0985 -0.0739,0.0739 -0.0985,0.0985 -0.0985,0.0739 -0.0985,0.0739 -0.0739,0.0739 -0.0985,0.0492 -0.0985,0.0739 -0.0985,0.0492 -0.0985,0.0492 -0.0739,0.0492 -0.0985,0.0246 -0.0985,0.0492 -0.0985,0.0246 -0.0985,0.0492 -0.0985,0.0246 -0.0985,0.0246 -0.0985,0 -0.0985,0.0246 -0.0739,0.0246 -0.22157,0.0246 -0.19695,0.0246 c -0.29543,0.0246 -0.517,0.0246 -0.517,0.49239 0,0.14771 0.12309,0.27081 0.32005,0.27081 0.66471,0 1.4279,-0.0985 2.11724,-0.0985 0.81243,0 1.67409,0.0985 2.4619,0.0985 0.14772,0 0.46777,0 0.46777,-0.46777 0,-0.27081 -0.22158,-0.29543 -0.39391,-0.29543 -0.56624,-0.0492 -1.1571,-0.24619 -1.1571,-0.86166 0,-0.29543 0.14772,-0.56624 0.34467,-0.91091 l 1.84643,-3.15124 6.15477,0 -0.0739,-0.73857 -5.61315,0 4.84996,-8.09968 0.76319,8.09968 0.0739,0.73857 c 0.0739,0.517 0.39391,3.86519 0.39391,4.11139 0,0.73857 -1.25558,0.81242 -1.74796,0.81242 -0.34467,0 -0.59086,0 -0.59086,0.49239 0,0.27081 0.29543,0.27081 0.34467,0.27081 1.00938,0 2.04338,-0.0985 3.05277,-0.0985 0.61547,0 2.16647,0.0985 2.78195,0.0985 0.14772,0 0.44314,0 0.44314,-0.49239 0,-0.27081 -0.24619,-0.27081 -0.56623,-0.27081 -1.52639,0 -1.52639,-0.17233 -1.60024,-0.88628 l -1.50177,-15.33768 c -0.0492,-0.49239 -0.0492,-0.59086 -0.46776,-0.59086 -0.39391,0 -0.46776,0.17233 -0.6401,0.41852 z"
         inkscape:connector-curvature="0"
         style="font-style:normal;font-variant:normal;font-weight:normal;font-stretch:normal;letter-spacing:normal;word-spacing:normal;text-anchor:start;fill:#000000;fill-opacity:1;fill-rule:evenodd;stroke:#000000;stroke-width:0;stroke-linecap:butt;stroke-linejoin:miter;stroke-miterlimit:10.43299961;stroke-dasharray:none;stroke-dashoffset:0;stroke-opacity:1" />
    </g>
    <g
       id="g19318"
       transform="translate(-268.68027,642.41641)">
      <path
         id="path19111"
         d="m 467.86293,-130.21236 0.0246,-0.0246 0,-0.0246 0.0246,-0.0492 0.0246,-0.0492 0.0246,-0.0492 0.0246,-0.0738 0.0492,-0.0739 0.0246,-0.0739 0.0492,-0.0739 0.0492,-0.0985 0.0492,-0.0985 0.0739,-0.0985 0.0492,-0.0985 0.0738,-0.0985 0.0492,-0.12309 0.0739,-0.0985 0.0739,-0.12309 0.0985,-0.1231 0.0739,-0.1231 0.0739,-0.0985 0.0985,-0.1231 0.0985,-0.12309 0.0985,-0.1231 0.0985,-0.12309 0.0985,-0.1231 0.0985,-0.12309 0.12309,-0.1231 0.0985,-0.12309 0.12309,-0.1231 0.0985,-0.0985 0.12309,-0.12309 0.1231,-0.0985 c 0.91091,-0.86167 2.11724,-1.4279 3.49591,-1.4279 1.4279,0 1.92029,1.05862 1.92029,2.48652 0,2.01877 -1.45253,6.03168 -2.16648,7.92734 -0.32005,0.86167 -0.49238,1.32943 -0.49238,1.94491 0,1.60024 1.10785,2.88043 2.78195,2.88043 3.29896,0 4.52991,-5.19462 4.52991,-5.41619 0,-0.17234 -0.14771,-0.32005 -0.34467,-0.32005 -0.32004,0 -0.36928,0.0985 -0.54162,0.71395 -0.81243,2.90505 -2.14186,4.30834 -3.52052,4.30834 -0.36929,0 -0.93553,-0.0246 -0.93553,-1.1571 0,-0.88628 0.39391,-1.9449 0.61548,-2.43729 0.68933,-1.9449 2.1911,-5.90857 2.1911,-7.92734 0,-2.11724 -1.23096,-3.69286 -3.93906,-3.69286 -3.12662,0 -4.80072,2.21572 -5.41619,3.102 -0.1231,-2.01876 -1.57562,-3.102 -3.12662,-3.102 -1.13248,0 -1.89567,0.66472 -2.51115,1.87105 -0.61548,1.25557 -1.13248,3.37281 -1.13248,3.52053 0,0.14771 0.14772,0.32005 0.39391,0.32005 0.29543,0 0.32005,-0.0246 0.54162,-0.83705 0.56624,-2.16648 1.20633,-4.18524 2.60962,-4.18524 0.81243,0 1.08324,0.56623 1.08324,1.62485 0,0.78781 -0.34467,2.16648 -0.59086,3.24972 l -0.98476,3.81596 c -0.14772,0.66471 -0.54162,2.26495 -0.71396,2.90505 -0.24619,0.91091 -0.64009,2.585 -0.64009,2.75734 0,0.49238 0.3939,0.88628 0.93552,0.88628 0.41853,0 0.91091,-0.22157 1.18172,-0.73857 0.0739,-0.19695 0.3939,-1.42791 0.56624,-2.14186 l 0.78781,-3.17586 z"
         inkscape:connector-curvature="0"
         style="font-style:normal;font-variant:normal;font-weight:normal;font-stretch:normal;letter-spacing:normal;word-spacing:normal;text-anchor:start;fill:#000000;fill-opacity:1;fill-rule:evenodd;stroke:#000000;stroke-width:0;stroke-linecap:butt;stroke-linejoin:miter;stroke-miterlimit:10.43299961;stroke-dasharray:none;stroke-dashoffset:0;stroke-opacity:1" />
      <path
         id="path19113"
         d="m 488.19829,-129.89232 0,-0.0492 0,-0.0492 0,-0.0492 0,-0.0246 -0.0246,-0.0492 0,-0.0492 -0.0246,-0.0492 0,-0.0246 -0.0246,-0.0492 -0.0246,-0.0246 -0.0246,-0.0492 0,-0.0246 -0.0246,-0.0492 -0.0246,-0.0246 -0.0492,-0.0246 -0.0246,-0.0492 -0.0246,-0.0246 -0.0246,-0.0246 -0.0492,-0.0246 -0.0246,-0.0246 -0.0246,-0.0246 -0.0492,-0.0246 -0.0492,0 -0.0246,-0.0246 -0.0492,-0.0246 -0.0492,0 -0.0492,-0.0246 -0.0492,0 -0.0246,-0.0246 -0.0739,0 -0.0492,0 -0.0492,0 c -0.66471,0 -1.30481,0.64009 -1.30481,1.30481 0,0.46776 0.32005,0.88628 0.91091,0.88628 0.56624,0 1.30481,-0.56623 1.30481,-1.30481 z"
         inkscape:connector-curvature="0"
         style="font-style:normal;font-variant:normal;font-weight:normal;font-stretch:normal;letter-spacing:normal;word-spacing:normal;text-anchor:start;fill:#000000;fill-opacity:1;fill-rule:evenodd;stroke:#000000;stroke-width:0;stroke-linecap:butt;stroke-linejoin:miter;stroke-miterlimit:10.43299961;stroke-dasharray:none;stroke-dashoffset:0;stroke-opacity:1" />
      <path
         id="path19115"
         d="m 486.35186,-120.68478 0.0246,-0.0492 0.0246,-0.0739 0.0246,-0.0492 0,-0.0492 0.0246,-0.0492 0.0246,-0.0492 0.0246,-0.0492 0.0246,-0.0492 0,-0.0492 0.0246,-0.0246 0,-0.0492 0.0246,-0.0246 0.0246,-0.0492 0,-0.0246 0.0246,-0.0739 0.0246,-0.0738 0.0246,-0.0739 0.0246,-0.0246 0,-0.0492 0.0246,-0.0246 0,-0.0492 0.0246,-0.0492 0.0246,-0.0492 0,-0.0246 0.0246,-0.0492 0.0246,-0.0492 0.0246,-0.0739 0,-0.0492 0.0246,-0.0492 c 0.19695,-0.49238 0.32005,-0.83705 0.32005,-1.30481 0,-1.10786 -0.78781,-2.01877 -1.99415,-2.01877 -2.31419,0 -3.24971,3.56977 -3.24971,3.79134 0,0.22157 0.24619,0.22157 0.29542,0.22157 0.24619,0 0.27081,-0.0492 0.39391,-0.41852 0.66471,-2.31419 1.64948,-3.05277 2.48653,-3.05277 0.19695,0 0.61547,0 0.61547,0.78781 0,0.51701 -0.17233,1.03401 -0.27081,1.2802 -0.19695,0.64009 -1.30481,3.47129 -1.69871,4.52991 -0.24619,0.64009 -0.56624,1.45252 -0.56624,1.96952 0,1.1571 0.83705,1.99415 2.01876,1.99415 2.28958,0 3.20048,-3.54515 3.20048,-3.76672 0,-0.24619 -0.22157,-0.24619 -0.29543,-0.24619 -0.24619,0 -0.24619,0.0739 -0.36928,0.44314 -0.44315,1.551 -1.25558,3.05277 -2.48653,3.05277 -0.41852,0 -0.59086,-0.24619 -0.59086,-0.81243 0,-0.61548 0.14772,-0.96015 0.71396,-2.46191 z"
         inkscape:connector-curvature="0"
         style="font-style:normal;font-variant:normal;font-weight:normal;font-stretch:normal;letter-spacing:normal;word-spacing:normal;text-anchor:start;fill:#000000;fill-opacity:1;fill-rule:evenodd;stroke:#000000;stroke-width:0;stroke-linecap:butt;stroke-linejoin:miter;stroke-miterlimit:10.43299961;stroke-dasharray:none;stroke-dashoffset:0;stroke-opacity:1" />
    </g>
    <g
       id="g19323"
       transform="translate(-425.94452,434.84771)">
      <path
         id="path19117"
         d="m 526.97333,-128.07051 0,0 0.0246,0 0,-0.0246 0,0 0,-0.0246 0,-0.0246 0.0246,0 0,-0.0246 0,0 0,-0.0246 0.0246,-0.0246 0,0 0,-0.0492 0.0246,-0.0246 0,-0.0492 0.0246,-0.0246 0,-0.0246 0,-0.0246 0,-0.0246 0.0246,0 0,-0.0246 0,-0.0246 0,0 0,-0.0246 0,-0.0246 0,0 0,-0.0246 c 0,-0.17233 -0.14772,-0.34466 -0.34467,-0.34466 -0.14772,0 -0.22157,0.0246 -0.32005,0.14771 -0.0739,0.0246 -0.0739,0.0985 -0.3939,0.81243 -2.09263,4.94843 -3.59439,7.06567 -9.25678,7.06567 l -5.14538,0 c -0.49238,0 -0.56624,0 -0.78781,-0.0492 -0.39391,-0.0246 -0.41853,-0.0985 -0.41853,-0.39391 0,-0.24619 0.0739,-0.44314 0.14772,-0.76319 l 2.43729,-9.74915 3.4959,0 c 2.75734,0 2.95429,0.59085 2.95429,1.64947 0,0.36929 0,0.68934 -0.24619,1.74796 -0.0739,0.12309 -0.0985,0.27081 -0.0985,0.36928 0,0.27081 0.17233,0.36929 0.3939,0.36929 0.29543,0 0.34467,-0.24619 0.49238,-0.73857 l 2.01877,-8.19815 c 0,-0.17234 -0.14772,-0.34467 -0.36929,-0.34467 -0.32005,0 -0.34467,0.1231 -0.49238,0.61548 -0.71395,2.73271 -1.40329,3.49591 -4.55453,3.49591 l -3.34819,0 2.19109,-8.69054 c 0.29543,-1.23095 0.36929,-1.32943 1.82182,-1.32943 l 5.04691,0 c 4.35757,0 5.24386,1.1571 5.24386,3.84058 0,0.0492 0,1.034 -0.14772,2.1911 -0.0492,0.14771 -0.0738,0.34466 -0.0738,0.41852 0,0.29543 0.17233,0.3939 0.3939,0.3939 0.24619,0 0.39391,-0.14771 0.46776,-0.76319 l 0.73858,-6.17938 c 0,-0.1231 0.0492,-0.46777 0.0492,-0.54162 0,-0.39391 -0.29542,-0.39391 -0.93552,-0.39391 l -17.23335,0 c -0.68934,0 -1.034,0 -1.034,0.6401 0,0.3939 0.24619,0.3939 0.86166,0.3939 2.16648,0 2.16648,0.24619 2.16648,0.6401 0,0.17233 -0.0246,0.32005 -0.12309,0.68933 l -4.7761,19.07978 c -0.32005,1.23096 -0.39391,1.60024 -2.85582,1.60024 -0.66471,0 -1.034,0 -1.034,0.6401 0,0.36929 0.22158,0.36929 0.93553,0.36929 l 17.72573,0 c 0.76319,0 0.81243,-0.0246 1.05862,-0.59086 z"
         inkscape:connector-curvature="0"
         style="font-style:normal;font-variant:normal;font-weight:normal;font-stretch:normal;letter-spacing:normal;word-spacing:normal;text-anchor:start;fill:#000000;fill-opacity:1;fill-rule:evenodd;stroke:#000000;stroke-width:0;stroke-linecap:butt;stroke-linejoin:miter;stroke-miterlimit:10.43299961;stroke-dasharray:none;stroke-dashoffset:0;stroke-opacity:1" />
      <path
         id="path19119"
         d="m 546.66859,-131.61565 0,0 0,-0.0246 0,0 0,0 0,-0.0246 0,0 0,0 -0.0246,-0.0246 0,0 0,-0.0246 0,0 0,0 0,-0.0246 -0.0246,0 0,-0.0246 0,0 -0.0246,0 0,-0.0246 0,0 -0.0246,-0.0246 0,0 -0.0246,0 0,0 -0.0246,-0.0246 0,0 0,0 -0.0246,0 0,0 0,0 -0.0246,-0.0246 0,0 0,0 -0.0246,0 0,0 0,0 -0.0246,0 0,0 -0.0246,0 0,0 c -0.0739,0 -0.0985,0.0246 -0.36929,0.29543 l -1.72333,1.89566 c -0.22157,-0.34466 -1.32943,-2.19109 -4.06215,-2.19109 -5.46543,0 -10.9801,5.41619 -10.9801,11.1032 0,3.91443 2.70809,6.72101 6.67176,6.72101 1.08324,0 2.1911,-0.22157 3.07739,-0.59086 1.23095,-0.46776 1.69871,-0.98476 2.14186,-1.47715 0.22157,0.61548 0.86167,1.52639 1.10786,1.52639 0.12309,0 0.17233,-0.0985 0.17233,-0.0985 0.0246,-0.0492 0.27081,-0.98476 0.41852,-1.50176 l 0.44315,-1.89567 c 0.0985,-0.41853 0.22157,-0.83705 0.32005,-1.25557 0.27081,-1.10786 0.29542,-1.1571 1.69871,-1.18172 0.1231,0 0.39391,-0.0246 0.39391,-0.46776 0,-0.17234 -0.1231,-0.29543 -0.32005,-0.29543 -0.56624,0 -2.01877,0.0985 -2.56038,0.0985 -0.7632,0 -2.68348,-0.0985 -3.44668,-0.0985 -0.22157,0 -0.517,0 -0.517,0.49238 0,0.27081 0.19696,0.27081 0.73858,0.27081 0.0246,0 0.73857,0 1.30481,0.0492 0.64009,0.0739 0.76319,0.14771 0.76319,0.46776 0,0.22157 -0.27081,1.32943 -0.517,2.24034 -0.68934,2.70809 -3.88982,2.95429 -4.75148,2.95429 -2.33882,0 -4.92382,-1.37867 -4.92382,-5.14539 0,-0.76319 0.24619,-4.80072 2.8312,-7.97658 1.32943,-1.6741 3.69286,-3.17586 6.13014,-3.17586 2.48653,0 3.93906,1.89567 3.93906,4.72686 0,0.98476 -0.0739,1.00938 -0.0739,1.25557 0,0.24619 0.27081,0.24619 0.36929,0.24619 0.32004,0 0.32004,-0.0492 0.44314,-0.49238 z"
         inkscape:connector-curvature="0"
         style="font-style:normal;font-variant:normal;font-weight:normal;font-stretch:normal;letter-spacing:normal;word-spacing:normal;text-anchor:start;fill:#000000;fill-opacity:1;fill-rule:evenodd;stroke:#000000;stroke-width:0;stroke-linecap:butt;stroke-linejoin:miter;stroke-miterlimit:10.43299961;stroke-dasharray:none;stroke-dashoffset:0;stroke-opacity:1" />
      <path
         id="path19121"
         d="m 563.70499,-145.05767 0,0 0,0 0,0 0,0 0,0 0,-0.0246 0,0 0,0 0,0 0,-0.0246 0,0 0,0 0.0246,-0.0246 0,-0.0246 0,-0.0246 0,-0.0246 0.0246,-0.0246 0,-0.0246 0.0246,-0.0246 0,-0.0246 0.0246,-0.0492 0.0246,-0.0492 0,-0.0246 0,-0.0246 0.0246,-0.0246 0,-0.0492 0,0 0.0246,-0.0246 0,-0.0246 0,-0.0246 0.0246,-0.0246 0,0 0,-0.0246 0,0 0,0 0,0 0,-0.0246 0,0 0,0 0,0 0,-0.0246 c 0,-0.41853 -0.34466,-0.66472 -0.64009,-0.66472 -0.17234,0 -0.49238,0 -0.76319,0.78781 l -11.84178,33.23575 c 0,0.0246 -0.19695,0.56624 -0.19695,0.6401 0,0.41852 0.34467,0.66471 0.61547,0.66471 0.22158,0 0.54162,-0.0492 0.78782,-0.78781 z"
         inkscape:connector-curvature="0"
         style="font-style:normal;font-variant:normal;font-weight:normal;font-stretch:normal;letter-spacing:normal;word-spacing:normal;text-anchor:start;fill:#000000;fill-opacity:1;fill-rule:evenodd;stroke:#000000;stroke-width:0;stroke-linecap:butt;stroke-linejoin:miter;stroke-miterlimit:10.43299961;stroke-dasharray:none;stroke-dashoffset:0;stroke-opacity:1" />
      <path
         id="path19123"
         d="m 581.38148,-125.80555 -0.78781,0 c -0.0985,0.61548 -0.36928,2.53576 -0.73857,3.12662 -0.24619,0.29543 -2.24033,0.29543 -3.32357,0.29543 l -6.52406,0 c 0.96015,-0.81243 3.10201,-3.05276 4.03753,-3.91443 5.36696,-4.94844 7.33648,-6.77025 7.33648,-10.26616 0,-4.06214 -3.22509,-6.79486 -7.31186,-6.79486 -4.08677,0 -6.49944,3.49591 -6.49944,6.54867 0,1.7972 1.55101,1.7972 1.6741,1.7972 0.73857,0 1.64948,-0.54162 1.64948,-1.6741 0,-0.98476 -0.66472,-1.64948 -1.64948,-1.64948 -0.32005,0 -0.3939,0 -0.517,0.0246 0.68934,-2.38805 2.585,-4.01291 4.87458,-4.01291 3.00352,0 4.84996,2.51115 4.84996,5.76086 0,3.00353 -1.72334,5.61315 -3.7421,7.87811 l -7.13954,7.97658 0,0.83705 12.9004,0 z"
         inkscape:connector-curvature="0"
         style="font-style:normal;font-variant:normal;font-weight:normal;font-stretch:normal;letter-spacing:normal;word-spacing:normal;text-anchor:start;fill:#000000;fill-opacity:1;fill-rule:evenodd;stroke:#000000;stroke-width:0;stroke-linecap:butt;stroke-linejoin:miter;stroke-miterlimit:10.43299961;stroke-dasharray:none;stroke-dashoffset:0;stroke-opacity:1" />
    </g>
    <g
       id="g19300"
       transform="translate(-491.71429,362.57143)">
      <path
         id="path19125"
         d="m 619.221,-128.07051 0,0 0,0 0,-0.0246 0,0 0,-0.0246 0.0246,-0.0246 0,0 0,-0.0246 0,0 0.0246,-0.0246 0,-0.0246 0,0 0,-0.0492 0.0246,-0.0246 0,-0.0492 0.0246,-0.0246 0,-0.0246 0,-0.0246 0.0246,-0.0246 0,0 0,-0.0246 0,-0.0246 0,0 0,-0.0246 0,-0.0246 0,0 0,-0.0246 c 0,-0.17233 -0.1231,-0.34466 -0.34467,-0.34466 -0.14771,0 -0.22157,0.0246 -0.32005,0.14771 -0.0739,0.0246 -0.0739,0.0985 -0.3939,0.81243 -2.06801,4.94843 -3.59439,7.06567 -9.25677,7.06567 l -5.14539,0 c -0.49238,0 -0.56624,0 -0.78781,-0.0492 -0.36929,-0.0246 -0.41853,-0.0985 -0.41853,-0.39391 0,-0.24619 0.0739,-0.44314 0.14772,-0.76319 l 2.43729,-9.74915 3.49591,0 c 2.75733,0 2.95428,0.59085 2.95428,1.64947 0,0.36929 0,0.68934 -0.24619,1.74796 -0.0738,0.12309 -0.0985,0.27081 -0.0985,0.36928 0,0.27081 0.17233,0.36929 0.3939,0.36929 0.32005,0 0.34467,-0.24619 0.49238,-0.73857 l 2.01877,-8.19815 c 0,-0.17234 -0.14772,-0.34467 -0.36929,-0.34467 -0.29543,0 -0.34467,0.1231 -0.49238,0.61548 -0.68933,2.73271 -1.40329,3.49591 -4.55453,3.49591 l -3.34819,0 2.1911,-8.69054 c 0.32004,-1.23095 0.3939,-1.32943 1.84643,-1.32943 l 5.04691,0 c 4.33295,0 5.21924,1.1571 5.21924,3.84058 0,0.0492 0,1.034 -0.14771,2.1911 -0.0246,0.14771 -0.0739,0.34466 -0.0739,0.41852 0,0.29543 0.19695,0.3939 0.3939,0.3939 0.24619,0 0.39391,-0.14771 0.46777,-0.76319 l 0.73857,-6.17938 c 0,-0.1231 0.0738,-0.46777 0.0738,-0.54162 0,-0.39391 -0.32004,-0.39391 -0.96014,-0.39391 l -17.23335,0 c -0.66472,0 -1.034,0 -1.034,0.6401 0,0.3939 0.24619,0.3939 0.86167,0.3939 2.19109,0 2.19109,0.24619 2.19109,0.6401 0,0.17233 -0.0492,0.32005 -0.14771,0.68933 l -4.7761,19.07978 c -0.32005,1.23096 -0.39391,1.60024 -2.85581,1.60024 -0.66472,0 -1.00939,0 -1.00939,0.6401 0,0.36929 0.19696,0.36929 0.91091,0.36929 l 17.72573,0 c 0.76319,0 0.81243,-0.0246 1.05862,-0.59086 z"
         inkscape:connector-curvature="0"
         style="font-style:normal;font-variant:normal;font-weight:normal;font-stretch:normal;letter-spacing:normal;word-spacing:normal;text-anchor:start;fill:#000000;fill-opacity:1;fill-rule:evenodd;stroke:#000000;stroke-width:0;stroke-linecap:butt;stroke-linejoin:miter;stroke-miterlimit:10.43299961;stroke-dasharray:none;stroke-dashoffset:0;stroke-opacity:1" />
      <path
         id="path19127"
         d="m 624.14482,-116.47492 -0.0246,0.0739 0,0.0985 -0.0246,0.0739 -0.0246,0.0739 -0.0246,0.0739 -0.0246,0.0739 -0.0246,0.0492 -0.0246,0.0492 -0.0246,0.0739 -0.0246,0.0492 -0.0492,0.0492 -0.0246,0.0492 -0.0492,0.0246 -0.0246,0.0492 -0.0492,0.0246 -0.0492,0.0492 -0.0492,0.0246 -0.0739,0.0246 -0.0739,0.0246 -0.0739,0.0246 -0.0738,0.0246 -0.0492,0 -0.0246,0.0246 -0.0492,0 -0.0492,0 -0.0492,0 -0.0492,0.0246 -0.0739,0 -0.0492,0 -0.0492,0 -0.0738,0.0246 -0.0492,0 -0.0739,0 -0.0492,0 -0.0738,0 -0.0739,0 -0.0739,0 -0.0739,0 -0.0738,0 -0.0985,0.0246 -0.0739,0 -0.0985,0 -0.0739,0 c -0.41852,0 -0.68933,0 -0.68933,0.46777 0,0.29543 0.22157,0.29543 0.68933,0.29543 l 8.09968,0 -0.41853,-0.7632 -2.78195,0 c -0.34467,0 -0.39391,0 -0.54162,-0.0246 -0.24619,-0.0246 -0.32005,-0.0492 -0.32005,-0.24619 0,-0.0739 0,-0.1231 0.12309,-0.56624 l 3.37282,-13.46664 c 0.22157,-0.86166 0.27081,-0.93552 1.30481,-0.93552 l 2.63424,0 c 2.41267,0 4.43143,1.30481 4.43143,4.52991 0,1.20633 -0.49238,5.21924 -2.56038,7.92734 -0.71396,0.91091 -2.65886,2.78195 -5.66239,2.78195 l 0.41853,0.7632 c 5.12076,0 9.9461,-5.19463 9.9461,-10.56159 0,-3.44667 -2.09262,-6.204 -5.76086,-6.204 l -8.24739,0 c -0.46776,0 -0.73857,0 -0.73857,0.46776 0,0.29543 0.22157,0.29543 0.71395,0.29543 0.32005,0 0.76319,0.0246 1.05862,0.0492 0.3939,0.0492 0.54162,0.12309 0.54162,0.3939 0,0.0985 -0.0246,0.17233 -0.0985,0.46776 z"
         inkscape:connector-curvature="0"
         style="font-style:normal;font-variant:normal;font-weight:normal;font-stretch:normal;letter-spacing:normal;word-spacing:normal;text-anchor:start;fill:#000000;fill-opacity:1;fill-rule:evenodd;stroke:#000000;stroke-width:0;stroke-linecap:butt;stroke-linejoin:miter;stroke-miterlimit:10.43299961;stroke-dasharray:none;stroke-dashoffset:0;stroke-opacity:1" />
    </g>
    <g
       id="g19296"
       transform="translate(-547.42857,323.42857)">
      <path
         id="path19129"
         d="m 678.52835,-128.07051 0,0 0.0246,0 0,-0.0246 0,0 0,-0.0246 0,-0.0246 0.0246,0 0,-0.0246 0,0 0,-0.0246 0.0246,-0.0246 0,0 0,-0.0492 0.0246,-0.0246 0,-0.0492 0.0246,-0.0246 0,-0.0246 0,-0.0246 0,-0.0246 0.0246,0 0,-0.0246 0,-0.0246 0,0 0,-0.0246 0,-0.0246 0,0 0,-0.0246 c 0,-0.17233 -0.14772,-0.34466 -0.34467,-0.34466 -0.14772,0 -0.22157,0.0246 -0.32005,0.14771 -0.0739,0.0246 -0.0739,0.0985 -0.3939,0.81243 -2.09263,4.94843 -3.59439,7.06567 -9.25678,7.06567 l -5.14538,0 c -0.49238,0 -0.56624,0 -0.78781,-0.0492 -0.39391,-0.0246 -0.41853,-0.0985 -0.41853,-0.39391 0,-0.24619 0.0739,-0.44314 0.14772,-0.76319 l 2.43729,-9.74915 3.4959,0 c 2.75734,0 2.95429,0.59085 2.95429,1.64947 0,0.36929 0,0.68934 -0.24619,1.74796 -0.0739,0.12309 -0.0985,0.27081 -0.0985,0.36928 0,0.27081 0.17233,0.36929 0.3939,0.36929 0.32005,0 0.34467,-0.24619 0.49238,-0.73857 l 1.99415,-8.19815 c 0,-0.17234 -0.1231,-0.34467 -0.34467,-0.34467 -0.32005,0 -0.34467,0.1231 -0.49238,0.61548 -0.71395,2.73271 -1.40329,3.49591 -4.55453,3.49591 l -3.34819,0 2.19109,-8.69054 c 0.29543,-1.23095 0.36929,-1.32943 1.82181,-1.32943 l 5.04692,0 c 4.35757,0 5.24386,1.1571 5.24386,3.84058 0,0.0492 0,1.034 -0.14772,2.1911 -0.0492,0.14771 -0.0738,0.34466 -0.0738,0.41852 0,0.29543 0.17233,0.3939 0.3939,0.3939 0.24619,0 0.39391,-0.14771 0.46776,-0.76319 l 0.73858,-6.17938 c 0,-0.1231 0.0492,-0.46777 0.0492,-0.54162 0,-0.39391 -0.29542,-0.39391 -0.93552,-0.39391 l -17.23335,0 c -0.68934,0 -1.034,0 -1.034,0.6401 0,0.3939 0.24619,0.3939 0.86166,0.3939 2.16648,0 2.16648,0.24619 2.16648,0.6401 0,0.17233 -0.0246,0.32005 -0.12309,0.68933 l -4.7761,19.07978 c -0.32005,1.23096 -0.39391,1.60024 -2.85582,1.60024 -0.66471,0 -1.034,0 -1.034,0.6401 0,0.36929 0.22157,0.36929 0.93553,0.36929 l 17.72573,0 c 0.76319,0 0.81243,-0.0246 1.05862,-0.59086 z"
         inkscape:connector-curvature="0"
         style="font-style:normal;font-variant:normal;font-weight:normal;font-stretch:normal;letter-spacing:normal;word-spacing:normal;text-anchor:start;fill:#000000;fill-opacity:1;fill-rule:evenodd;stroke:#000000;stroke-width:0;stroke-linecap:butt;stroke-linejoin:miter;stroke-miterlimit:10.43299961;stroke-dasharray:none;stroke-dashoffset:0;stroke-opacity:1" />
      <path
         id="path19131"
         d="m 698.24823,-131.61565 0,0 0,-0.0246 0,0 0,0 0,-0.0246 -0.0246,0 0,0 0,-0.0246 0,0 0,-0.0246 0,0 0,0 -0.0246,-0.0246 0,0 0,-0.0246 0,0 -0.0246,0 0,-0.0246 0,0 -0.0246,-0.0246 0,0 -0.0246,0 0,0 -0.0246,-0.0246 0,0 -0.0246,0 0,0 0,0 -0.0246,0 0,-0.0246 0,0 -0.0246,0 0,0 0,0 -0.0246,0 0,0 0,0 -0.0246,0 0,0 c -0.0739,0 -0.0985,0.0246 -0.36929,0.29543 l -1.72333,1.89566 c -0.22157,-0.34466 -1.35405,-2.19109 -4.06215,-2.19109 -5.49005,0 -11.00473,5.41619 -11.00473,11.1032 0,3.91443 2.73272,6.72101 6.69639,6.72101 1.08324,0 2.1911,-0.22157 3.07739,-0.59086 1.23095,-0.46776 1.69871,-0.98476 2.11724,-1.47715 0.24619,0.61548 0.86167,1.52639 1.10786,1.52639 0.12309,0 0.17233,-0.0985 0.17233,-0.0985 0.0492,-0.0492 0.29543,-0.98476 0.41852,-1.50176 l 0.46777,-1.89567 c 0.0985,-0.41853 0.22157,-0.83705 0.32004,-1.25557 0.27081,-1.10786 0.29543,-1.1571 1.69872,-1.18172 0.1231,0 0.39391,-0.0246 0.39391,-0.46776 0,-0.17234 -0.1231,-0.29543 -0.32005,-0.29543 -0.56624,0 -2.01877,0.0985 -2.58501,0.0985 -0.76319,0 -2.65886,-0.0985 -3.42205,-0.0985 -0.22157,0 -0.517,0 -0.517,0.49238 0,0.27081 0.19696,0.27081 0.73858,0.27081 0.0246,0 0.73857,0 1.30481,0.0492 0.61547,0.0739 0.73857,0.14771 0.73857,0.46776 0,0.22157 -0.27081,1.32943 -0.517,2.24034 -0.66472,2.70809 -3.8652,2.95429 -4.72686,2.95429 -2.33882,0 -4.92382,-1.37867 -4.92382,-5.14539 0,-0.76319 0.24619,-4.80072 2.80658,-7.97658 1.32943,-1.6741 3.71748,-3.17586 6.15476,-3.17586 2.48653,0 3.93906,1.89567 3.93906,4.72686 0,0.98476 -0.0739,1.00938 -0.0739,1.25557 0,0.24619 0.27081,0.24619 0.36928,0.24619 0.32005,0 0.32005,-0.0492 0.44315,-0.49238 z"
         inkscape:connector-curvature="0"
         style="font-style:normal;font-variant:normal;font-weight:normal;font-stretch:normal;letter-spacing:normal;word-spacing:normal;text-anchor:start;fill:#000000;fill-opacity:1;fill-rule:evenodd;stroke:#000000;stroke-width:0;stroke-linecap:butt;stroke-linejoin:miter;stroke-miterlimit:10.43299961;stroke-dasharray:none;stroke-dashoffset:0;stroke-opacity:1" />
    </g>
    <path
       style="fill:none;fill-rule:evenodd;stroke:#000000;stroke-width:3;stroke-linecap:butt;stroke-linejoin:miter;stroke-miterlimit:4;stroke-dasharray:none;stroke-opacity:1;marker-start:url(#marker19363);marker-end:url(#marker19373)"
       d="m 162.85714,476.64792 0,248.57143 448.57143,0"
       id="path19353"
       inkscape:connector-curvature="0" />
    <g
       transform="translate(425.71429,898.57143)"
       id="g19355">
      <path
         style="font-style:normal;font-variant:normal;font-weight:normal;font-stretch:normal;letter-spacing:normal;word-spacing:normal;text-anchor:start;fill:#000000;fill-opacity:1;fill-rule:evenodd;stroke:#000000;stroke-width:0;stroke-linecap:butt;stroke-linejoin:miter;stroke-miterlimit:10.43299961;stroke-dasharray:none;stroke-dashoffset:0;stroke-opacity:1"
         inkscape:connector-curvature="0"
         d="m 146.19011,-142.49728 0,-0.0492 0,-0.0246 0,-0.0492 0,-0.0246 0,-0.0246 0,-0.0492 0,-0.0246 0,-0.0246 0,-0.0246 0,-0.0492 0,-0.0246 0,-0.0246 0,-0.0246 0,-0.0246 0,-0.0246 0,-0.0246 0,0 0,-0.0246 0,-0.0246 0,-0.0246 -0.0246,-0.0246 0,0 0,-0.0246 0,-0.0246 -0.0246,-0.0246 0,-0.0246 -0.0246,-0.0246 0,-0.0246 -0.0246,-0.0246 -0.0246,0 -0.0246,-0.0246 -0.0246,-0.0246 -0.0246,0 -0.0246,0 -0.0246,-0.0246 -0.0246,0 -0.0246,0 0,0 -0.0246,0 -0.0246,0 -0.0246,0 -0.0246,-0.0246 -0.0246,0 -0.0246,0 -0.0246,0 -0.0246,0 -0.0246,0 -0.0246,0 -0.0246,0 -0.0246,0 -0.0492,0 -0.0246,0 -0.0246,0 c -0.86167,0.96014 -2.60962,2.26495 -6.25324,2.26495 l 0,1.03401 c 0.81242,0 2.56038,0 4.50529,-0.93553 l 0,18.41507 c 0,1.25557 -0.0985,1.69871 -3.20048,1.69871 l -1.10786,0 0,1.00939 c 0.96014,-0.0739 4.38219,-0.0739 5.56391,-0.0739 1.15709,0 4.55453,0 5.49005,0.0739 l 0,-1.00939 -1.08324,0 c -3.102,0 -3.2251,-0.44314 -3.2251,-1.69871 z"
         id="path19357" />
      <path
         style="font-style:normal;font-variant:normal;font-weight:normal;font-stretch:normal;letter-spacing:normal;word-spacing:normal;text-anchor:start;fill:#000000;fill-opacity:1;fill-rule:evenodd;stroke:#000000;stroke-width:0;stroke-linecap:butt;stroke-linejoin:miter;stroke-miterlimit:10.43299961;stroke-dasharray:none;stroke-dashoffset:0;stroke-opacity:1"
         inkscape:connector-curvature="0"
         d="m 168.47038,-145.05767 0,0 0,0 0,0 0,0 0,0 0,-0.0246 0,0 0,0 0,0 0,-0.0246 0,0 0,0 0.0246,-0.0246 0,-0.0246 0,-0.0246 0.0246,-0.0246 0,-0.0246 0,-0.0246 0.0246,-0.0246 0,-0.0246 0.0246,-0.0492 0.0246,-0.0492 0,-0.0246 0.0246,-0.0246 0,-0.0246 0,-0.0492 0.0246,0 0,-0.0246 0,-0.0246 0.0246,-0.0246 0,-0.0246 0,0 0,-0.0246 0,0 0,0 0,0 0,-0.0246 0,0 0,0 0,0 0,-0.0246 c 0,-0.41853 -0.34467,-0.66472 -0.6401,-0.66472 -0.17233,0 -0.49238,0 -0.76319,0.78781 l -11.84177,33.23575 c 0,0.0246 -0.19696,0.56624 -0.19696,0.6401 0,0.41852 0.34467,0.66471 0.61548,0.66471 0.22157,0 0.54162,-0.0492 0.78781,-0.78781 z"
         id="path19359" />
      <path
         style="font-style:normal;font-variant:normal;font-weight:normal;font-stretch:normal;letter-spacing:normal;word-spacing:normal;text-anchor:start;fill:#000000;fill-opacity:1;fill-rule:evenodd;stroke:#000000;stroke-width:0;stroke-linecap:butt;stroke-linejoin:miter;stroke-miterlimit:10.43299961;stroke-dasharray:none;stroke-dashoffset:0;stroke-opacity:1"
         inkscape:connector-curvature="0"
         d="m 185.33444,-141.41404 0.0246,-0.0739 0.0246,-0.0739 0,-0.0739 0.0246,-0.0739 0.0246,-0.0739 0.0246,-0.0492 0,-0.0739 0.0246,-0.0492 0.0246,-0.0492 0,-0.0492 0.0246,-0.0492 0.0246,-0.0492 0,-0.0492 0.0246,-0.0492 0.0246,-0.0492 0.0246,-0.0246 0.0246,-0.0492 0.0246,-0.0246 0.0246,-0.0246 0.0246,-0.0492 0.0246,-0.0246 0.0246,-0.0246 0.0246,-0.0246 0.0246,-0.0246 0.0492,-0.0246 0.0246,-0.0246 0.0246,-0.0246 0.0492,0 0.0492,-0.0246 0.0246,-0.0246 0.0492,0 0.0492,-0.0246 c 0.29543,-0.0739 1.45253,-0.0739 2.1911,-0.0739 3.54515,0 5.19462,0.14771 5.19462,2.90505 0,0.517 -0.14771,1.87105 -0.34466,3.17586 l -0.0492,0.41852 c 0,0.14772 0.14771,0.36929 0.36928,0.36929 0.34467,0 0.34467,-0.19695 0.44315,-0.76319 l 1.034,-6.25325 c 0.0739,-0.32004 0.0739,-0.36928 0.0739,-0.49238 0,-0.36928 -0.22158,-0.36928 -0.93553,-0.36928 l -19.30135,0 c -0.81243,0 -0.86167,0.0246 -1.05862,0.66471 l -2.16648,6.35172 c -0.0246,0.0739 -0.14772,0.46776 -0.14772,0.49238 0,0.17234 0.14772,0.36929 0.36929,0.36929 0.27081,0 0.34467,-0.14771 0.49238,-0.61548 1.47715,-4.28372 2.21572,-6.25324 6.91796,-6.25324 l 2.36343,0 c 0.86167,0 1.20634,0 1.20634,0.3939 0,0.0985 0,0.17234 -0.17234,0.81243 l -4.75148,18.95669 c -0.34466,1.37867 -0.41852,1.74795 -4.16062,1.74795 -0.88629,0 -1.13248,0 -1.13248,0.66472 0,0.34467 0.39391,0.34467 0.56624,0.34467 0.88629,0 1.79719,-0.0739 2.68348,-0.0739 l 5.51467,0 c 0.88629,0 1.84643,0.0739 2.73272,0.0739 0.36928,0 0.73857,0 0.73857,-0.66472 0,-0.34467 -0.24619,-0.34467 -1.18171,-0.34467 -3.17587,0 -3.17587,-0.32004 -3.17587,-0.86166 0,-0.0246 0,-0.27081 0.14772,-0.83705 z"
         id="path19361" />
    </g>
    <path
       style="fill:none;fill-rule:evenodd;stroke:#000000;stroke-width:2;stroke-linecap:butt;stroke-linejoin:miter;stroke-opacity:1;stroke-miterlimit:4;stroke-dasharray:6,2;stroke-dashoffset:0"
       d="m 163.97128,198.1138 401.03056,0"
       id="path20203"
       inkscape:connector-curvature="0" />
    <path
       inkscape:connector-curvature="0"
       id="path20205"
       d="m 163.97128,228.1138 401.03056,0"
       style="fill:none;fill-rule:evenodd;stroke:#000000;stroke-width:2;stroke-linecap:butt;stroke-linejoin:miter;stroke-miterlimit:4;stroke-dasharray:6, 2;stroke-dashoffset:0;stroke-opacity:1" />
    <path
       inkscape:connector-curvature="0"
       id="path20207"
       d="m 163.97128,298.1138 401.03056,0"
       style="fill:none;fill-rule:evenodd;stroke:#000000;stroke-width:2;stroke-linecap:butt;stroke-linejoin:miter;stroke-miterlimit:4;stroke-dasharray:6, 2;stroke-dashoffset:0;stroke-opacity:1" />
    <path
       style="fill:none;fill-rule:evenodd;stroke:#000000;stroke-width:4;stroke-linecap:butt;stroke-linejoin:miter;stroke-opacity:1;stroke-miterlimit:4;stroke-dasharray:none"
       d="m 169.52711,274.8854 c 2.52539,57.07361 28.28427,-47.98225 391.43412,-46.9721"
       id="path20209"
       inkscape:connector-curvature="0"
       sodipodi:nodetypes="cc" />
    <path
       inkscape:connector-curvature="0"
       id="path20213"
       d="M 178.61849,512.77632 C 195.286,596.11391 202.35707,709.251 210.94337,716.82714"
       style="fill:none;fill-rule:evenodd;stroke:#000080;stroke-width:4;stroke-linecap:butt;stroke-linejoin:miter;stroke-opacity:1;stroke-miterlimit:4;stroke-dasharray:none"
       sodipodi:nodetypes="cc" />
    <path
       style="fill:none;fill-rule:evenodd;stroke:#ff0000;stroke-width:4;stroke-linecap:butt;stroke-linejoin:miter;stroke-miterlimit:4;stroke-dasharray:none;stroke-opacity:1"
       d="m 182.61849,512.77632 c 16.66751,83.33759 17.17259,83.33759 25.75889,90.91373 8.58629,7.57614 171.22086,-4.54569 231.83001,4.54569 60.60916,9.09137 152.02796,35.86041 152.02796,35.86041"
       id="path20211"
       inkscape:connector-curvature="0" />
  </g>
</svg>
