<?xml version="1.0" encoding="utf-8" standalone="no"?>
<!DOCTYPE svg PUBLIC "-//W3C//DTD SVG 1.1//EN"
  "http://www.w3.org/Graphics/SVG/1.1/DTD/svg11.dtd">
<!-- Created with matplotlib (https://matplotlib.org/) -->
<svg height="427.41063pt" version="1.1" viewBox="0 0 591.6 427.41063" width="591.6pt" xmlns="http://www.w3.org/2000/svg" xmlns:xlink="http://www.w3.org/1999/xlink">
 <metadata>
  <rdf:RDF xmlns:cc="http://creativecommons.org/ns#" xmlns:dc="http://purl.org/dc/elements/1.1/" xmlns:rdf="http://www.w3.org/1999/02/22-rdf-syntax-ns#">
   <cc:Work>
    <dc:type rdf:resource="http://purl.org/dc/dcmitype/StillImage"/>
    <dc:date>2021-09-29T14:44:09.981338</dc:date>
    <dc:format>image/svg+xml</dc:format>
    <dc:creator>
     <cc:Agent>
      <dc:title>Matplotlib v3.3.2, https://matplotlib.org/</dc:title>
     </cc:Agent>
    </dc:creator>
   </cc:Work>
  </rdf:RDF>
 </metadata>
 <defs>
  <style type="text/css">*{stroke-linecap:butt;stroke-linejoin:round;}</style>
 </defs>
 <g id="figure_1">
  <g id="patch_1">
   <path d="M 0 427.41063 
L 591.6 427.41063 
L 591.6 0 
L 0 0 
z
" style="fill:#ffffff;"/>
  </g>
  <g id="axes_1">
   <g id="line2d_1">
    <path clip-path="url(#pdf4cf28796)" d="M 32.563636 339.635639 
L 37.649077 346.325889 
L 42.734518 352.60124 
L 47.819959 358.461692 
L 52.9054 363.907244 
L 57.990841 368.937897 
L 61.804921 372.438609 
L 65.619002 375.705941 
L 69.433083 378.739891 
L 73.247163 381.540461 
L 77.061244 384.10765 
L 80.875325 386.441458 
L 84.689405 388.541885 
L 88.503486 390.408932 
L 92.317567 392.042598 
L 96.131647 393.442882 
L 99.945728 394.609786 
L 103.759809 395.54331 
L 107.573889 396.243452 
L 111.38797 396.710214 
L 115.202051 396.943595 
L 119.016131 396.943595 
L 122.830212 396.710214 
L 126.644293 396.243452 
L 130.458373 395.54331 
L 134.272454 394.609786 
L 138.086535 393.442882 
L 141.900615 392.042598 
L 145.714696 390.408932 
L 149.528776 388.541885 
L 153.342857 386.441458 
L 157.156938 384.10765 
L 160.971018 381.540461 
L 164.785099 378.739891 
L 168.59918 375.705941 
L 172.41326 372.438609 
L 176.227341 368.937897 
L 180.041422 365.203804 
L 185.126863 359.861977 
L 190.212303 354.10525 
L 195.297744 347.933624 
L 200.383185 341.347099 
L 201.654545 339.635639 
L 206.739986 346.325889 
L 211.825427 352.60124 
L 216.910868 358.461692 
L 221.996309 363.907244 
L 227.08175 368.937897 
L 230.89583 372.438609 
L 234.709911 375.705941 
L 238.523992 378.739891 
L 242.338072 381.540461 
L 246.152153 384.10765 
L 249.966234 386.441458 
L 253.780314 388.541885 
L 257.594395 390.408932 
L 261.408476 392.042598 
L 265.222556 393.442882 
L 269.036637 394.609786 
L 272.850718 395.54331 
L 276.664798 396.243452 
L 280.478879 396.710214 
L 284.29296 396.943595 
L 288.10704 396.943595 
L 291.921121 396.710214 
L 295.735202 396.243452 
L 299.549282 395.54331 
L 303.363363 394.609786 
L 307.177444 393.442882 
L 310.991524 392.042598 
L 314.805605 390.408932 
L 318.619686 388.541885 
L 322.433766 386.441458 
L 326.247847 384.10765 
L 330.061928 381.540461 
L 333.876008 378.739891 
L 337.690089 375.705941 
L 341.50417 372.438609 
L 345.31825 368.937897 
L 349.132331 365.203804 
L 354.217772 359.861977 
L 359.303213 354.10525 
L 364.388653 347.933624 
L 369.474094 341.347099 
L 370.745455 339.635639 
L 375.830895 346.325889 
L 380.916336 352.60124 
L 386.001777 358.461692 
L 391.087218 363.907244 
L 396.172659 368.937897 
L 399.98674 372.438609 
L 403.80082 375.705941 
L 407.614901 378.739891 
L 411.428982 381.540461 
L 415.243062 384.10765 
L 419.057143 386.441458 
L 422.871224 388.541885 
L 426.685304 390.408932 
L 430.499385 392.042598 
L 434.313465 393.442882 
L 438.127546 394.609786 
L 441.941627 395.54331 
L 445.755707 396.243452 
L 449.569788 396.710214 
L 453.383869 396.943595 
L 457.197949 396.943595 
L 461.01203 396.710214 
L 464.826111 396.243452 
L 468.640191 395.54331 
L 472.454272 394.609786 
L 476.268353 393.442882 
L 480.082433 392.042598 
L 483.896514 390.408932 
L 487.710595 388.541885 
L 491.524675 386.441458 
L 495.338756 384.10765 
L 499.152837 381.540461 
L 502.966917 378.739891 
L 506.780998 375.705941 
L 510.595079 372.438609 
L 514.409159 368.937897 
L 518.22324 365.203804 
L 523.308681 359.861977 
L 528.394122 354.10525 
L 533.479563 347.933624 
L 538.565003 341.347099 
L 539.836364 339.635639 
L 539.836364 339.635639 
" style="fill:none;stroke:#1f77b4;stroke-linecap:square;stroke-width:1.5;"/>
   </g>
   <g id="line2d_2">
    <path clip-path="url(#pdf4cf28796)" d="M 32.563636 339.635639 
L 37.649077 332.53049 
L 42.734518 325.010442 
L 47.819959 317.075494 
L 52.9054 308.725647 
L 57.990841 299.960901 
L 63.076282 290.781256 
L 68.161722 281.186711 
L 73.247163 271.177268 
L 78.332604 260.752925 
L 83.418045 249.913683 
L 89.774846 235.781178 
L 96.131647 221.000393 
L 102.488448 205.571328 
L 108.845249 189.493983 
L 115.202051 172.768358 
L 116.473411 169.34544 
L 117.744771 169.34544 
L 124.101572 186.200721 
L 130.458373 202.407722 
L 136.815174 217.966442 
L 143.171975 232.876883 
L 149.528776 247.139044 
L 155.885578 260.752925 
L 160.971018 271.177268 
L 166.056459 281.186711 
L 171.1419 290.781256 
L 176.227341 299.960901 
L 181.312782 308.725647 
L 186.398223 317.075494 
L 191.483664 325.010442 
L 196.569105 332.53049 
L 201.654545 339.635639 
L 206.739986 332.53049 
L 211.825427 325.010442 
L 216.910868 317.075494 
L 221.996309 308.725647 
L 227.08175 299.960901 
L 232.167191 290.781256 
L 237.252632 281.186711 
L 242.338072 271.177268 
L 247.423513 260.752925 
L 252.508954 249.913683 
L 258.865755 235.781178 
L 265.222556 221.000393 
L 271.579357 205.571328 
L 277.936159 189.493983 
L 284.29296 172.768358 
L 285.56432 169.34544 
L 286.83568 169.34544 
L 293.192481 186.200721 
L 299.549282 202.407722 
L 305.906083 217.966442 
L 312.262884 232.876883 
L 318.619686 247.139044 
L 324.976487 260.752925 
L 330.061928 271.177268 
L 335.147368 281.186711 
L 340.232809 290.781256 
L 345.31825 299.960901 
L 350.403691 308.725647 
L 355.489132 317.075494 
L 360.574573 325.010442 
L 365.660014 332.53049 
L 370.745455 339.635639 
L 375.830895 332.53049 
L 380.916336 325.010442 
L 386.001777 317.075494 
L 391.087218 308.725647 
L 396.172659 299.960901 
L 401.2581 290.781256 
L 406.343541 281.186711 
L 411.428982 271.177268 
L 416.514422 260.752925 
L 421.599863 249.913683 
L 427.956664 235.781178 
L 434.313465 221.000393 
L 440.670267 205.571328 
L 447.027068 189.493983 
L 453.383869 172.768358 
L 454.655229 169.34544 
L 455.926589 169.34544 
L 462.28339 186.200721 
L 468.640191 202.407722 
L 474.996992 217.966442 
L 481.353794 232.876883 
L 487.710595 247.139044 
L 494.067396 260.752925 
L 499.152837 271.177268 
L 504.238278 281.186711 
L 509.323718 290.781256 
L 514.409159 299.960901 
L 519.4946 308.725647 
L 524.580041 317.075494 
L 529.665482 325.010442 
L 534.750923 332.53049 
L 539.836364 339.635639 
L 539.836364 339.635639 
" style="fill:none;stroke:#1f77b4;stroke-linecap:square;stroke-width:1.5;"/>
   </g>
   <g id="line2d_3">
    <path clip-path="url(#pdf4cf28796)" d="M 78.332604 50.373088 
L 84.689405 71.247705 
L 91.046206 91.474042 
L 97.403008 111.052099 
L 103.759809 129.981876 
L 110.11661 148.263373 
L 116.473411 165.89659 
L 117.744771 165.89659 
L 124.101572 148.263373 
L 130.458373 129.981876 
L 136.815174 111.052099 
L 143.171975 91.474042 
L 149.528776 71.247705 
L 155.885578 50.373088 
M 247.423513 50.373088 
L 253.780314 71.247705 
L 260.137116 91.474042 
L 266.493917 111.052099 
L 272.850718 129.981876 
L 279.207519 148.263373 
L 285.56432 165.89659 
L 286.83568 165.89659 
L 293.192481 148.263373 
L 299.549282 129.981876 
L 305.906083 111.052099 
L 312.262884 91.474042 
L 318.619686 71.247705 
L 324.976487 50.373088 
M 416.514422 50.373088 
L 422.871224 71.247705 
L 429.228025 91.474042 
L 435.584826 111.052099 
L 441.941627 129.981876 
L 448.298428 148.263373 
L 454.655229 165.89659 
L 455.926589 165.89659 
L 462.28339 148.263373 
L 468.640191 129.981876 
L 474.996992 111.052099 
L 481.353794 91.474042 
L 487.710595 71.247705 
L 494.067396 50.373088 
L 494.067396 50.373088 
" style="fill:none;stroke:#1f77b4;stroke-linecap:square;stroke-width:1.5;"/>
   </g>
   <g id="line2d_4">
    <path clip-path="url(#pdf4cf28796)" d="M 32.563636 357.064036 
L 33.834997 357.139426 
L 35.106357 357.363001 
L 36.377717 357.727149 
L 38.920437 358.828015 
L 41.463158 360.326187 
L 44.005878 362.103628 
L 47.819959 365.083813 
L 64.347642 378.543021 
L 69.433083 382.258455 
L 74.518524 385.654081 
L 78.332604 387.97396 
L 82.146685 390.090571 
L 85.960766 391.9983 
L 89.774846 393.692995 
L 93.588927 395.171548 
L 97.403008 396.431622 
L 101.217088 397.471457 
L 105.031169 398.289745 
L 108.845249 398.88554 
L 112.65933 399.258191 
L 116.473411 399.407311 
L 120.287491 399.332747 
L 124.101572 399.034575 
L 127.915653 398.513103 
L 131.729733 397.768889 
L 135.543814 396.802777 
L 139.357895 395.615946 
L 143.171975 394.209991 
L 146.986056 392.587041 
L 150.800137 390.74992 
L 154.614217 388.702395 
L 158.428298 386.449535 
L 163.513739 383.138642 
L 168.59918 379.4998 
L 173.684621 375.572687 
L 180.041422 370.365969 
L 188.940943 363.065239 
L 191.483664 361.18674 
L 194.026384 359.535116 
L 196.569105 358.220231 
L 197.840465 357.727149 
L 199.111825 357.363001 
L 200.383185 357.139426 
L 201.654545 357.064036 
L 202.925906 357.139426 
L 204.197266 357.363001 
L 205.468626 357.727149 
L 208.011347 358.828015 
L 210.554067 360.326187 
L 213.096787 362.103628 
L 216.910868 365.083813 
L 233.438551 378.543021 
L 238.523992 382.258455 
L 243.609433 385.654081 
L 247.423513 387.97396 
L 251.237594 390.090571 
L 255.051675 391.9983 
L 258.865755 393.692995 
L 262.679836 395.171548 
L 266.493917 396.431622 
L 270.307997 397.471457 
L 274.122078 398.289745 
L 277.936159 398.88554 
L 281.750239 399.258191 
L 285.56432 399.407311 
L 289.378401 399.332747 
L 293.192481 399.034575 
L 297.006562 398.513103 
L 300.820643 397.768889 
L 304.634723 396.802777 
L 308.448804 395.615946 
L 312.262884 394.209991 
L 316.076965 392.587041 
L 319.891046 390.74992 
L 323.705126 388.702395 
L 327.519207 386.449535 
L 332.604648 383.138642 
L 337.690089 379.4998 
L 342.77553 375.572687 
L 349.132331 370.365969 
L 358.031852 363.065239 
L 360.574573 361.18674 
L 363.117293 359.535116 
L 365.660014 358.220231 
L 366.931374 357.727149 
L 368.202734 357.363001 
L 369.474094 357.139426 
L 370.745455 357.064036 
L 372.016815 357.139426 
L 373.288175 357.363001 
L 374.559535 357.727149 
L 377.102256 358.828015 
L 379.644976 360.326187 
L 382.187697 362.103628 
L 386.001777 365.083813 
L 402.52946 378.543021 
L 407.614901 382.258455 
L 412.700342 385.654081 
L 416.514422 387.97396 
L 420.328503 390.090571 
L 424.142584 391.9983 
L 427.956664 393.692995 
L 431.770745 395.171548 
L 435.584826 396.431622 
L 439.398906 397.471457 
L 443.212987 398.289745 
L 447.027068 398.88554 
L 450.841148 399.258191 
L 454.655229 399.407311 
L 458.46931 399.332747 
L 462.28339 399.034575 
L 466.097471 398.513103 
L 469.911552 397.768889 
L 473.725632 396.802777 
L 477.539713 395.615946 
L 481.353794 394.209991 
L 485.167874 392.587041 
L 488.981955 390.74992 
L 492.796036 388.702395 
L 496.610116 386.449535 
L 501.695557 383.138642 
L 506.780998 379.4998 
L 511.866439 375.572687 
L 518.22324 370.365969 
L 527.122761 363.065239 
L 529.665482 361.18674 
L 532.208202 359.535116 
L 534.750923 358.220231 
L 536.022283 357.727149 
L 537.293643 357.363001 
L 538.565003 357.139426 
L 539.836364 357.064036 
L 539.836364 357.064036 
" style="fill:none;stroke:#ff7f0e;stroke-linecap:square;stroke-width:1.5;"/>
   </g>
   <g id="line2d_5">
    <path clip-path="url(#pdf4cf28796)" d="M 32.563636 323.579682 
L 33.834997 323.494559 
L 35.106357 323.209816 
L 36.377717 322.733084 
L 37.649077 322.07602 
L 38.920437 321.252878 
L 41.463158 319.169949 
L 44.005878 316.602527 
L 46.548599 313.649667 
L 49.091319 310.386593 
L 52.9054 305.025522 
L 56.719481 299.209633 
L 60.533561 293.01498 
L 65.619002 284.247466 
L 70.704443 274.964524 
L 75.789884 265.214733 
L 80.875325 255.036206 
L 87.232126 241.768417 
L 93.588927 227.992229 
L 107.573889 197.435899 
L 110.11661 192.532682 
L 111.38797 190.345602 
L 112.65933 188.421873 
L 113.93069 186.847726 
L 115.202051 185.719896 
L 116.473411 185.128073 
L 117.744771 185.128073 
L 119.016131 185.719896 
L 120.287491 186.847726 
L 121.558852 188.421873 
L 122.830212 190.345602 
L 125.372932 194.913747 
L 127.915653 200.05975 
L 133.001094 211.090645 
L 145.714696 239.049555 
L 152.071497 252.428875 
L 158.428298 265.214733 
L 163.513739 274.964524 
L 168.59918 284.247466 
L 173.684621 293.01498 
L 177.498701 299.209633 
L 181.312782 305.025522 
L 185.126863 310.386593 
L 187.669583 313.649667 
L 190.212303 316.602527 
L 192.755024 319.169949 
L 195.297744 321.252878 
L 196.569105 322.07602 
L 197.840465 322.733084 
L 199.111825 323.209816 
L 200.383185 323.494559 
L 201.654545 323.579682 
L 202.925906 323.494559 
L 204.197266 323.209816 
L 205.468626 322.733084 
L 206.739986 322.07602 
L 208.011347 321.252878 
L 210.554067 319.169949 
L 213.096787 316.602527 
L 215.639508 313.649667 
L 218.182228 310.386593 
L 221.996309 305.025522 
L 225.81039 299.209633 
L 229.62447 293.01498 
L 234.709911 284.247466 
L 239.795352 274.964524 
L 244.880793 265.214733 
L 249.966234 255.036206 
L 256.323035 241.768417 
L 262.679836 227.992229 
L 276.664798 197.435899 
L 279.207519 192.532682 
L 280.478879 190.345602 
L 281.750239 188.421873 
L 283.021599 186.847726 
L 284.29296 185.719896 
L 285.56432 185.128073 
L 286.83568 185.128073 
L 288.10704 185.719896 
L 289.378401 186.847726 
L 290.649761 188.421873 
L 291.921121 190.345602 
L 294.463841 194.913747 
L 297.006562 200.05975 
L 302.092003 211.090645 
L 314.805605 239.049555 
L 321.162406 252.428875 
L 327.519207 265.214733 
L 332.604648 274.964524 
L 337.690089 284.247466 
L 342.77553 293.01498 
L 346.58961 299.209633 
L 350.403691 305.025522 
L 354.217772 310.386593 
L 356.760492 313.649667 
L 359.303213 316.602527 
L 361.845933 319.169949 
L 364.388653 321.252878 
L 365.660014 322.07602 
L 366.931374 322.733084 
L 368.202734 323.209816 
L 369.474094 323.494559 
L 370.745455 323.579682 
L 372.016815 323.494559 
L 373.288175 323.209816 
L 374.559535 322.733084 
L 375.830895 322.07602 
L 377.102256 321.252878 
L 379.644976 319.169949 
L 382.187697 316.602527 
L 384.730417 313.649667 
L 387.273137 310.386593 
L 391.087218 305.025522 
L 394.901299 299.209633 
L 398.715379 293.01498 
L 403.80082 284.247466 
L 408.886261 274.964524 
L 413.971702 265.214733 
L 419.057143 255.036206 
L 425.413944 241.768417 
L 431.770745 227.992229 
L 445.755707 197.435899 
L 448.298428 192.532682 
L 449.569788 190.345602 
L 450.841148 188.421873 
L 452.112509 186.847726 
L 453.383869 185.719896 
L 454.655229 185.128073 
L 455.926589 185.128073 
L 457.197949 185.719896 
L 458.46931 186.847726 
L 459.74067 188.421873 
L 461.01203 190.345602 
L 463.554751 194.913747 
L 466.097471 200.05975 
L 471.182912 211.090645 
L 483.896514 239.049555 
L 490.253315 252.428875 
L 496.610116 265.214733 
L 501.695557 274.964524 
L 506.780998 284.247466 
L 511.866439 293.01498 
L 515.680519 299.209633 
L 519.4946 305.025522 
L 523.308681 310.386593 
L 525.851401 313.649667 
L 528.394122 316.602527 
L 530.936842 319.169949 
L 533.479563 321.252878 
L 534.750923 322.07602 
L 536.022283 322.733084 
L 537.293643 323.209816 
L 538.565003 323.494559 
L 539.836364 323.579682 
L 539.836364 323.579682 
" style="fill:none;stroke:#ff7f0e;stroke-linecap:square;stroke-width:1.5;"/>
   </g>
   <g id="line2d_6">
    <path clip-path="url(#pdf4cf28796)" d="M 79.603964 52.049891 
L 85.960766 72.4085 
L 92.317567 91.946965 
L 97.403008 106.887269 
L 101.217088 117.581552 
L 105.031169 127.664922 
L 107.573889 133.885726 
L 110.11661 139.477395 
L 111.38797 141.929221 
L 112.65933 144.06473 
L 113.93069 145.797702 
L 115.202051 147.03141 
L 116.473411 147.676172 
L 117.744771 147.676172 
L 119.016131 147.03141 
L 120.287491 145.797702 
L 121.558852 144.06473 
L 122.830212 141.929221 
L 124.101572 139.477395 
L 126.644293 133.885726 
L 129.187013 127.664922 
L 133.001094 117.581552 
L 136.815174 106.887269 
L 141.900615 91.946965 
L 146.986056 76.385063 
L 153.342857 56.183145 
L 154.614217 52.049891 
M 248.694874 52.049891 
L 255.051675 72.4085 
L 261.408476 91.946965 
L 266.493917 106.887269 
L 270.307997 117.581552 
L 274.122078 127.664922 
L 276.664798 133.885726 
L 279.207519 139.477395 
L 280.478879 141.929221 
L 281.750239 144.06473 
L 283.021599 145.797702 
L 284.29296 147.03141 
L 285.56432 147.676172 
L 286.83568 147.676172 
L 288.10704 147.03141 
L 289.378401 145.797702 
L 290.649761 144.06473 
L 291.921121 141.929221 
L 293.192481 139.477395 
L 295.735202 133.885726 
L 298.277922 127.664922 
L 302.092003 117.581552 
L 305.906083 106.887269 
L 310.991524 91.946965 
L 316.076965 76.385063 
L 322.433766 56.183145 
L 323.705126 52.049891 
M 417.785783 52.049891 
L 424.142584 72.4085 
L 430.499385 91.946965 
L 435.584826 106.887269 
L 439.398906 117.581552 
L 443.212987 127.664922 
L 445.755707 133.885726 
L 448.298428 139.477395 
L 449.569788 141.929221 
L 450.841148 144.06473 
L 452.112509 145.797702 
L 453.383869 147.03141 
L 454.655229 147.676172 
L 455.926589 147.676172 
L 457.197949 147.03141 
L 458.46931 145.797702 
L 459.74067 144.06473 
L 461.01203 141.929221 
L 462.28339 139.477395 
L 464.826111 133.885726 
L 467.368831 127.664922 
L 471.182912 117.581552 
L 474.996992 106.887269 
L 480.082433 91.946965 
L 485.167874 76.385063 
L 491.524675 56.183145 
L 492.796036 52.049891 
L 492.796036 52.049891 
" style="fill:none;stroke:#ff7f0e;stroke-linecap:square;stroke-width:1.5;"/>
   </g>
   <g id="patch_2">
    <path d="M 560.082755 396.972767 
Q 285.200007 396.972767 9.199225 396.972767 
" style="fill:none;stroke:#000000;stroke-linecap:round;"/>
    <path d="M 553.682755 393.772767 
L 560.082755 396.972767 
L 553.682755 400.172767 
" style="fill:none;stroke:#000000;stroke-linecap:round;"/>
   </g>
   <g id="text_1">
    <!-- $ka$ -->
    <g transform="translate(565.2 401.387767)scale(0.16 -0.16)">
     <defs>
      <path d="M 18.3125 75.984375 
L 27.296875 75.984375 
L 18.703125 31.6875 
L 49.515625 54.6875 
L 61.1875 54.6875 
L 26.8125 28.515625 
L 51.90625 0 
L 41.015625 0 
L 17.671875 26.703125 
L 12.5 0 
L 3.515625 0 
z
" id="DejaVuSans-Oblique-107"/>
      <path d="M 53.71875 31.203125 
L 47.609375 0 
L 38.625 0 
L 40.28125 8.296875 
Q 36.328125 3.421875 31.265625 1 
Q 26.21875 -1.421875 20.015625 -1.421875 
Q 13.03125 -1.421875 8.5625 2.84375 
Q 4.109375 7.125 4.109375 13.8125 
Q 4.109375 23.390625 11.75 28.953125 
Q 19.390625 34.515625 32.8125 34.515625 
L 45.3125 34.515625 
L 45.796875 36.921875 
Q 45.90625 37.3125 45.953125 37.765625 
Q 46 38.234375 46 39.203125 
Q 46 43.5625 42.453125 45.96875 
Q 38.921875 48.390625 32.515625 48.390625 
Q 28.125 48.390625 23.5 47.265625 
Q 18.890625 46.140625 14.015625 43.890625 
L 15.578125 52.203125 
Q 20.65625 54.109375 25.515625 55.046875 
Q 30.375 56 34.90625 56 
Q 44.578125 56 49.625 51.796875 
Q 54.6875 47.609375 54.6875 39.59375 
Q 54.6875 37.984375 54.4375 35.8125 
Q 54.203125 33.640625 53.71875 31.203125 
z
M 44 27.484375 
L 35.015625 27.484375 
Q 23.96875 27.484375 18.671875 24.53125 
Q 13.375 21.578125 13.375 15.375 
Q 13.375 11.078125 16.078125 8.640625 
Q 18.796875 6.203125 23.578125 6.203125 
Q 30.90625 6.203125 36.375 11.453125 
Q 41.84375 16.703125 43.609375 25.484375 
z
" id="DejaVuSans-Oblique-97"/>
     </defs>
     <use transform="translate(0 0.015625)" xlink:href="#DejaVuSans-Oblique-107"/>
     <use transform="translate(57.910156 0.015625)" xlink:href="#DejaVuSans-Oblique-97"/>
    </g>
   </g>
   <g id="patch_3">
    <path d="M 286.2 27.802857 
Q 286.2 212.280358 286.2 397.875894 
" style="fill:none;stroke:#000000;stroke-linecap:round;"/>
    <path d="M 283 34.202857 
L 286.2 27.802857 
L 289.4 34.202857 
" style="fill:none;stroke:#000000;stroke-linecap:round;"/>
   </g>
   <g id="text_2">
    <!-- $E$ -->
    <g transform="translate(281.08 19.3575)scale(0.16 -0.16)">
     <defs>
      <path d="M 16.890625 72.90625 
L 62.984375 72.90625 
L 61.375 64.59375 
L 25.09375 64.59375 
L 20.90625 43.015625 
L 55.71875 43.015625 
L 54.109375 34.71875 
L 19.28125 34.71875 
L 14.203125 8.296875 
L 51.3125 8.296875 
L 49.703125 0 
L 2.6875 0 
z
" id="DejaVuSans-Oblique-69"/>
     </defs>
     <use transform="translate(0 0.09375)" xlink:href="#DejaVuSans-Oblique-69"/>
    </g>
   </g>
   <g id="text_3">
    <!-- $-3\pi$ -->
    <g transform="translate(15.923636 416.88313)scale(0.16 -0.16)">
     <defs>
      <path d="M 10.59375 35.5 
L 73.1875 35.5 
L 73.1875 27.203125 
L 10.59375 27.203125 
z
" id="DejaVuSans-8722"/>
      <path d="M 40.578125 39.3125 
Q 47.65625 37.796875 51.625 33 
Q 55.609375 28.21875 55.609375 21.1875 
Q 55.609375 10.40625 48.1875 4.484375 
Q 40.765625 -1.421875 27.09375 -1.421875 
Q 22.515625 -1.421875 17.65625 -0.515625 
Q 12.796875 0.390625 7.625 2.203125 
L 7.625 11.71875 
Q 11.71875 9.328125 16.59375 8.109375 
Q 21.484375 6.890625 26.8125 6.890625 
Q 36.078125 6.890625 40.9375 10.546875 
Q 45.796875 14.203125 45.796875 21.1875 
Q 45.796875 27.640625 41.28125 31.265625 
Q 36.765625 34.90625 28.71875 34.90625 
L 20.21875 34.90625 
L 20.21875 43.015625 
L 29.109375 43.015625 
Q 36.375 43.015625 40.234375 45.921875 
Q 44.09375 48.828125 44.09375 54.296875 
Q 44.09375 59.90625 40.109375 62.90625 
Q 36.140625 65.921875 28.71875 65.921875 
Q 24.65625 65.921875 20.015625 65.03125 
Q 15.375 64.15625 9.8125 62.3125 
L 9.8125 71.09375 
Q 15.4375 72.65625 20.34375 73.4375 
Q 25.25 74.21875 29.59375 74.21875 
Q 40.828125 74.21875 47.359375 69.109375 
Q 53.90625 64.015625 53.90625 55.328125 
Q 53.90625 49.265625 50.4375 45.09375 
Q 46.96875 40.921875 40.578125 39.3125 
z
" id="DejaVuSans-51"/>
      <path d="M 9.125 54.6875 
L 61.53125 54.6875 
L 59.765625 45.703125 
L 52.875 45.703125 
L 46.34375 12.109375 
Q 45.65625 8.59375 46.578125 7.03125 
Q 47.46875 5.515625 50.140625 5.515625 
Q 50.875 5.515625 51.953125 5.671875 
Q 53.078125 5.765625 53.421875 5.8125 
L 52.15625 -0.6875 
Q 50.34375 -1.3125 48.484375 -1.609375 
Q 46.578125 -1.90625 44.78125 -1.90625 
Q 38.921875 -1.90625 37.3125 1.265625 
Q 35.6875 4.5 37.359375 13.09375 
L 43.703125 45.703125 
L 23.53125 45.703125 
L 14.65625 0 
L 5.46875 0 
L 14.359375 45.703125 
L 7.375 45.703125 
z
" id="DejaVuSans-Oblique-960"/>
     </defs>
     <use transform="translate(0 0.78125)" xlink:href="#DejaVuSans-8722"/>
     <use transform="translate(83.789062 0.78125)" xlink:href="#DejaVuSans-51"/>
     <use transform="translate(147.412109 0.78125)" xlink:href="#DejaVuSans-Oblique-960"/>
    </g>
   </g>
   <g id="text_4">
    <!-- $-2\pi$ -->
    <g transform="translate(100.469091 416.88313)scale(0.16 -0.16)">
     <defs>
      <path d="M 19.1875 8.296875 
L 53.609375 8.296875 
L 53.609375 0 
L 7.328125 0 
L 7.328125 8.296875 
Q 12.9375 14.109375 22.625 23.890625 
Q 32.328125 33.6875 34.8125 36.53125 
Q 39.546875 41.84375 41.421875 45.53125 
Q 43.3125 49.21875 43.3125 52.78125 
Q 43.3125 58.59375 39.234375 62.25 
Q 35.15625 65.921875 28.609375 65.921875 
Q 23.96875 65.921875 18.8125 64.3125 
Q 13.671875 62.703125 7.8125 59.421875 
L 7.8125 69.390625 
Q 13.765625 71.78125 18.9375 73 
Q 24.125 74.21875 28.421875 74.21875 
Q 39.75 74.21875 46.484375 68.546875 
Q 53.21875 62.890625 53.21875 53.421875 
Q 53.21875 48.921875 51.53125 44.890625 
Q 49.859375 40.875 45.40625 35.40625 
Q 44.1875 33.984375 37.640625 27.21875 
Q 31.109375 20.453125 19.1875 8.296875 
z
" id="DejaVuSans-50"/>
     </defs>
     <use transform="translate(0 0.78125)" xlink:href="#DejaVuSans-8722"/>
     <use transform="translate(83.789062 0.78125)" xlink:href="#DejaVuSans-50"/>
     <use transform="translate(147.412109 0.78125)" xlink:href="#DejaVuSans-Oblique-960"/>
    </g>
   </g>
   <g id="text_5">
    <!-- $-\pi$ -->
    <g transform="translate(190.134545 416.88313)scale(0.16 -0.16)">
     <use transform="translate(0 0.3125)" xlink:href="#DejaVuSans-8722"/>
     <use transform="translate(83.789062 0.3125)" xlink:href="#DejaVuSans-Oblique-960"/>
    </g>
   </g>
   <g id="text_6">
    <!-- $0$ -->
    <g transform="translate(281.08 416.88313)scale(0.16 -0.16)">
     <defs>
      <path d="M 31.78125 66.40625 
Q 24.171875 66.40625 20.328125 58.90625 
Q 16.5 51.421875 16.5 36.375 
Q 16.5 21.390625 20.328125 13.890625 
Q 24.171875 6.390625 31.78125 6.390625 
Q 39.453125 6.390625 43.28125 13.890625 
Q 47.125 21.390625 47.125 36.375 
Q 47.125 51.421875 43.28125 58.90625 
Q 39.453125 66.40625 31.78125 66.40625 
z
M 31.78125 74.21875 
Q 44.046875 74.21875 50.515625 64.515625 
Q 56.984375 54.828125 56.984375 36.375 
Q 56.984375 17.96875 50.515625 8.265625 
Q 44.046875 -1.421875 31.78125 -1.421875 
Q 19.53125 -1.421875 13.0625 8.265625 
Q 6.59375 17.96875 6.59375 36.375 
Q 6.59375 54.828125 13.0625 64.515625 
Q 19.53125 74.21875 31.78125 74.21875 
z
" id="DejaVuSans-48"/>
     </defs>
     <use transform="translate(0 0.78125)" xlink:href="#DejaVuSans-48"/>
    </g>
   </g>
   <g id="text_7">
    <!-- $\pi$ -->
    <g transform="translate(365.865455 416.88313)scale(0.16 -0.16)">
     <use transform="translate(0 0.3125)" xlink:href="#DejaVuSans-Oblique-960"/>
    </g>
   </g>
   <g id="text_8">
    <!-- $2\pi$ -->
    <g transform="translate(445.370909 416.88313)scale(0.16 -0.16)">
     <use transform="translate(0 0.78125)" xlink:href="#DejaVuSans-50"/>
     <use transform="translate(63.623047 0.78125)" xlink:href="#DejaVuSans-Oblique-960"/>
    </g>
   </g>
   <g id="text_9">
    <!-- $3\pi$ -->
    <g transform="translate(529.916364 416.88313)scale(0.16 -0.16)">
     <use transform="translate(0 0.78125)" xlink:href="#DejaVuSans-51"/>
     <use transform="translate(63.623047 0.78125)" xlink:href="#DejaVuSans-Oblique-960"/>
    </g>
   </g>
  </g>
 </g>
 <defs>
  <clipPath id="pdf4cf28796">
   <rect height="380.52" width="558" x="7.2" y="19.3575"/>
  </clipPath>
 </defs>
</svg>
