<?xml version="1.0" encoding="utf-8" standalone="no"?>
<!DOCTYPE svg PUBLIC "-//W3C//DTD SVG 1.1//EN"
  "http://www.w3.org/Graphics/SVG/1.1/DTD/svg11.dtd">
<!-- Created with matplotlib (https://matplotlib.org/) -->
<svg height="334.67pt" version="1.1" viewBox="0 0 703.485 334.67" width="703.485pt" xmlns="http://www.w3.org/2000/svg" xmlns:xlink="http://www.w3.org/1999/xlink">
 <metadata>
  <rdf:RDF xmlns:cc="http://creativecommons.org/ns#" xmlns:dc="http://purl.org/dc/elements/1.1/" xmlns:rdf="http://www.w3.org/1999/02/22-rdf-syntax-ns#">
   <cc:Work>
    <dc:type rdf:resource="http://purl.org/dc/dcmitype/StillImage"/>
    <dc:date>2021-10-26T16:50:28.823346</dc:date>
    <dc:format>image/svg+xml</dc:format>
    <dc:creator>
     <cc:Agent>
      <dc:title>Matplotlib v3.3.2, https://matplotlib.org/</dc:title>
     </cc:Agent>
    </dc:creator>
   </cc:Work>
  </rdf:RDF>
 </metadata>
 <defs>
  <style type="text/css">*{stroke-linecap:butt;stroke-linejoin:round;}</style>
 </defs>
 <g id="figure_1">
  <g id="patch_1">
   <path d="M 0 334.67 
L 703.485 334.67 
L 703.485 0 
L 0 0 
z
" style="fill:#ffffff;"/>
  </g>
  <g id="axes_1">
   <g id="patch_2">
    <path d="M 26.685 279 
L 331.048636 279 
L 331.048636 7.2 
L 26.685 7.2 
z
" style="fill:#ffffff;"/>
   </g>
   <g id="matplotlib.axis_1">
    <g id="xtick_1">
     <g id="line2d_1">
      <defs>
       <path d="M 0 0 
L 0 10 
" id="m6619a14480" style="stroke:#000000;stroke-width:2.5;"/>
      </defs>
      <g>
       <use style="stroke:#000000;stroke-width:2.5;" x="31.394189" xlink:href="#m6619a14480" y="279"/>
      </g>
     </g>
     <g id="text_1">
      <!-- $0$ -->
      <g transform="translate(26.274189 304.6575)scale(0.16 -0.16)">
       <defs>
        <path d="M 31.78125 66.40625 
Q 24.171875 66.40625 20.328125 58.90625 
Q 16.5 51.421875 16.5 36.375 
Q 16.5 21.390625 20.328125 13.890625 
Q 24.171875 6.390625 31.78125 6.390625 
Q 39.453125 6.390625 43.28125 13.890625 
Q 47.125 21.390625 47.125 36.375 
Q 47.125 51.421875 43.28125 58.90625 
Q 39.453125 66.40625 31.78125 66.40625 
z
M 31.78125 74.21875 
Q 44.046875 74.21875 50.515625 64.515625 
Q 56.984375 54.828125 56.984375 36.375 
Q 56.984375 17.96875 50.515625 8.265625 
Q 44.046875 -1.421875 31.78125 -1.421875 
Q 19.53125 -1.421875 13.0625 8.265625 
Q 6.59375 17.96875 6.59375 36.375 
Q 6.59375 54.828125 13.0625 64.515625 
Q 19.53125 74.21875 31.78125 74.21875 
z
" id="DejaVuSans-48"/>
       </defs>
       <use transform="translate(0 0.78125)" xlink:href="#DejaVuSans-48"/>
      </g>
     </g>
    </g>
    <g id="xtick_2">
     <g id="line2d_2">
      <g>
       <use style="stroke:#000000;stroke-width:2.5;" x="179.337737" xlink:href="#m6619a14480" y="279"/>
      </g>
     </g>
     <g id="text_2">
      <!-- $\pi/a$ -->
      <g transform="translate(166.857737 304.6575)scale(0.16 -0.16)">
       <defs>
        <path d="M 9.125 54.6875 
L 61.53125 54.6875 
L 59.765625 45.703125 
L 52.875 45.703125 
L 46.34375 12.109375 
Q 45.65625 8.59375 46.578125 7.03125 
Q 47.46875 5.515625 50.140625 5.515625 
Q 50.875 5.515625 51.953125 5.671875 
Q 53.078125 5.765625 53.421875 5.8125 
L 52.15625 -0.6875 
Q 50.34375 -1.3125 48.484375 -1.609375 
Q 46.578125 -1.90625 44.78125 -1.90625 
Q 38.921875 -1.90625 37.3125 1.265625 
Q 35.6875 4.5 37.359375 13.09375 
L 43.703125 45.703125 
L 23.53125 45.703125 
L 14.65625 0 
L 5.46875 0 
L 14.359375 45.703125 
L 7.375 45.703125 
z
" id="DejaVuSans-Oblique-960"/>
        <path d="M 25.390625 72.90625 
L 33.6875 72.90625 
L 8.296875 -9.28125 
L 0 -9.28125 
z
" id="DejaVuSans-47"/>
        <path d="M 53.71875 31.203125 
L 47.609375 0 
L 38.625 0 
L 40.28125 8.296875 
Q 36.328125 3.421875 31.265625 1 
Q 26.21875 -1.421875 20.015625 -1.421875 
Q 13.03125 -1.421875 8.5625 2.84375 
Q 4.109375 7.125 4.109375 13.8125 
Q 4.109375 23.390625 11.75 28.953125 
Q 19.390625 34.515625 32.8125 34.515625 
L 45.3125 34.515625 
L 45.796875 36.921875 
Q 45.90625 37.3125 45.953125 37.765625 
Q 46 38.234375 46 39.203125 
Q 46 43.5625 42.453125 45.96875 
Q 38.921875 48.390625 32.515625 48.390625 
Q 28.125 48.390625 23.5 47.265625 
Q 18.890625 46.140625 14.015625 43.890625 
L 15.578125 52.203125 
Q 20.65625 54.109375 25.515625 55.046875 
Q 30.375 56 34.90625 56 
Q 44.578125 56 49.625 51.796875 
Q 54.6875 47.609375 54.6875 39.59375 
Q 54.6875 37.984375 54.4375 35.8125 
Q 54.203125 33.640625 53.71875 31.203125 
z
M 44 27.484375 
L 35.015625 27.484375 
Q 23.96875 27.484375 18.671875 24.53125 
Q 13.375 21.578125 13.375 15.375 
Q 13.375 11.078125 16.078125 8.640625 
Q 18.796875 6.203125 23.578125 6.203125 
Q 30.90625 6.203125 36.375 11.453125 
Q 41.84375 16.703125 43.609375 25.484375 
z
" id="DejaVuSans-Oblique-97"/>
       </defs>
       <use transform="translate(0 0.09375)" xlink:href="#DejaVuSans-Oblique-960"/>
       <use transform="translate(60.205078 0.09375)" xlink:href="#DejaVuSans-47"/>
       <use transform="translate(93.896484 0.09375)" xlink:href="#DejaVuSans-Oblique-97"/>
      </g>
     </g>
    </g>
    <g id="text_3">
     <!-- $k$ -->
     <g transform="translate(174.226818 324.1425)scale(0.16 -0.16)">
      <defs>
       <path d="M 18.3125 75.984375 
L 27.296875 75.984375 
L 18.703125 31.6875 
L 49.515625 54.6875 
L 61.1875 54.6875 
L 26.8125 28.515625 
L 51.90625 0 
L 41.015625 0 
L 17.671875 26.703125 
L 12.5 0 
L 3.515625 0 
z
" id="DejaVuSans-Oblique-107"/>
      </defs>
      <use transform="translate(0 0.015625)" xlink:href="#DejaVuSans-Oblique-107"/>
     </g>
    </g>
   </g>
   <g id="matplotlib.axis_2">
    <g id="text_4">
     <!-- $ω$ -->
     <g transform="translate(19.3575 149.82)rotate(-90)scale(0.16 -0.16)">
      <defs>
       <path d="M 21.390625 -1.421875 
Q 1.125 -1.421875 6.78125 27.59375 
Q 8.984375 39.0625 19.625 54.6875 
L 29.296875 54.6875 
Q 19.234375 39.0625 17 27.34375 
Q 12.796875 6.203125 23.734375 6.203125 
Q 33.84375 6.203125 38.71875 32.46875 
L 47.015625 32.46875 
Q 41.703125 6.0625 51.8125 6.203125 
Q 62.703125 6.296875 66.796875 27.34375 
Q 69.046875 39.0625 65.140625 54.6875 
L 74.8125 54.6875 
Q 79.296875 39.0625 77.09375 27.59375 
Q 71.53125 -1.46875 51.21875 -1.421875 
Q 37.9375 -1.375 39.109375 13.1875 
Q 34.28125 -1.421875 21.390625 -1.421875 
z
" id="DejaVuSans-Oblique-969"/>
      </defs>
      <use transform="translate(0 0.3125)" xlink:href="#DejaVuSans-Oblique-969"/>
     </g>
    </g>
   </g>
   <g id="LineCollection_1">
    <path clip-path="url(#p6122ca3ce5)" d="M 31.394189 266.645455 
L 31.394189 266.645455 
" style="fill:none;stroke:#808080;stroke-opacity:0.5;stroke-width:1.5;"/>
    <path clip-path="url(#p6122ca3ce5)" d="M 43.722818 266.645455 
L 43.722818 238.479337 
" style="fill:none;stroke:#808080;stroke-opacity:0.5;stroke-width:1.5;"/>
    <path clip-path="url(#p6122ca3ce5)" d="M 56.051447 266.645455 
L 56.051447 210.708628 
" style="fill:none;stroke:#808080;stroke-opacity:0.5;stroke-width:1.5;"/>
    <path clip-path="url(#p6122ca3ce5)" d="M 68.380076 266.645455 
L 68.380076 183.720919 
" style="fill:none;stroke:#808080;stroke-opacity:0.5;stroke-width:1.5;"/>
    <path clip-path="url(#p6122ca3ce5)" d="M 80.708705 266.645455 
L 80.708705 157.888265 
" style="fill:none;stroke:#808080;stroke-opacity:0.5;stroke-width:1.5;"/>
    <path clip-path="url(#p6122ca3ce5)" d="M 93.037334 266.645455 
L 93.037334 133.559648 
" style="fill:none;stroke:#808080;stroke-opacity:0.5;stroke-width:1.5;"/>
    <path clip-path="url(#p6122ca3ce5)" d="M 105.365963 266.645455 
L 105.365963 111.053713 
" style="fill:none;stroke:#808080;stroke-opacity:0.5;stroke-width:1.5;"/>
    <path clip-path="url(#p6122ca3ce5)" d="M 117.694592 266.645455 
L 117.694592 90.651847 
" style="fill:none;stroke:#808080;stroke-opacity:0.5;stroke-width:1.5;"/>
    <path clip-path="url(#p6122ca3ce5)" d="M 130.023221 266.645455 
L 130.023221 72.591661 
" style="fill:none;stroke:#808080;stroke-opacity:0.5;stroke-width:1.5;"/>
    <path clip-path="url(#p6122ca3ce5)" d="M 142.35185 266.645455 
L 142.35185 57.060911 
" style="fill:none;stroke:#808080;stroke-opacity:0.5;stroke-width:1.5;"/>
    <path clip-path="url(#p6122ca3ce5)" d="M 154.680479 266.645455 
L 154.680479 44.191882 
" style="fill:none;stroke:#808080;stroke-opacity:0.5;stroke-width:1.5;"/>
    <path clip-path="url(#p6122ca3ce5)" d="M 167.009108 266.645455 
L 167.009108 34.056238 
" style="fill:none;stroke:#808080;stroke-opacity:0.5;stroke-width:1.5;"/>
    <path clip-path="url(#p6122ca3ce5)" d="M 179.337737 266.645455 
L 179.337737 26.660315 
" style="fill:none;stroke:#808080;stroke-opacity:0.5;stroke-width:1.5;"/>
    <path clip-path="url(#p6122ca3ce5)" d="M 191.666366 266.645455 
L 191.666366 21.940853 
" style="fill:none;stroke:#808080;stroke-opacity:0.5;stroke-width:1.5;"/>
    <path clip-path="url(#p6122ca3ce5)" d="M 203.994995 266.645455 
L 203.994995 19.761177 
" style="fill:none;stroke:#808080;stroke-opacity:0.5;stroke-width:1.5;"/>
    <path clip-path="url(#p6122ca3ce5)" d="M 216.323624 266.645455 
L 216.323624 19.90794 
" style="fill:none;stroke:#808080;stroke-opacity:0.5;stroke-width:1.5;"/>
    <path clip-path="url(#p6122ca3ce5)" d="M 228.652253 266.645455 
L 228.652253 22.088759 
" style="fill:none;stroke:#808080;stroke-opacity:0.5;stroke-width:1.5;"/>
    <path clip-path="url(#p6122ca3ce5)" d="M 240.980882 266.645455 
L 240.980882 25.931467 
" style="fill:none;stroke:#808080;stroke-opacity:0.5;stroke-width:1.5;"/>
    <path clip-path="url(#p6122ca3ce5)" d="M 253.309511 266.645455 
L 253.309511 30.986421 
" style="fill:none;stroke:#808080;stroke-opacity:0.5;stroke-width:1.5;"/>
    <path clip-path="url(#p6122ca3ce5)" d="M 265.63814 266.645455 
L 265.63814 36.734309 
" style="fill:none;stroke:#808080;stroke-opacity:0.5;stroke-width:1.5;"/>
    <path clip-path="url(#p6122ca3ce5)" d="M 277.966769 266.645455 
L 277.966769 42.603133 
" style="fill:none;stroke:#808080;stroke-opacity:0.5;stroke-width:1.5;"/>
    <path clip-path="url(#p6122ca3ce5)" d="M 290.295398 266.645455 
L 290.295398 47.998754 
" style="fill:none;stroke:#808080;stroke-opacity:0.5;stroke-width:1.5;"/>
    <path clip-path="url(#p6122ca3ce5)" d="M 302.624027 266.645455 
L 302.624027 52.35226 
" style="fill:none;stroke:#808080;stroke-opacity:0.5;stroke-width:1.5;"/>
    <path clip-path="url(#p6122ca3ce5)" d="M 314.952656 266.645455 
L 314.952656 55.182634 
" style="fill:none;stroke:#808080;stroke-opacity:0.5;stroke-width:1.5;"/>
    <path clip-path="url(#p6122ca3ce5)" d="M 327.281285 266.645455 
L 327.281285 56.164563 
" style="fill:none;stroke:#808080;stroke-opacity:0.5;stroke-width:1.5;"/>
   </g>
   <g id="LineCollection_2">
    <path clip-path="url(#p6122ca3ce5)" d="M 31.394189 266.645455 
L 327.281285 266.645455 
" style="fill:none;stroke:#808080;stroke-opacity:0.5;stroke-width:1.5;"/>
    <path clip-path="url(#p6122ca3ce5)" d="M 43.722818 238.479337 
L 327.281285 238.479337 
" style="fill:none;stroke:#808080;stroke-opacity:0.5;stroke-width:1.5;"/>
    <path clip-path="url(#p6122ca3ce5)" d="M 56.051447 210.708628 
L 327.281285 210.708628 
" style="fill:none;stroke:#808080;stroke-opacity:0.5;stroke-width:1.5;"/>
    <path clip-path="url(#p6122ca3ce5)" d="M 68.380076 183.720919 
L 327.281285 183.720919 
" style="fill:none;stroke:#808080;stroke-opacity:0.5;stroke-width:1.5;"/>
    <path clip-path="url(#p6122ca3ce5)" d="M 80.708705 157.888265 
L 327.281285 157.888265 
" style="fill:none;stroke:#808080;stroke-opacity:0.5;stroke-width:1.5;"/>
    <path clip-path="url(#p6122ca3ce5)" d="M 93.037334 133.559648 
L 327.281285 133.559648 
" style="fill:none;stroke:#808080;stroke-opacity:0.5;stroke-width:1.5;"/>
    <path clip-path="url(#p6122ca3ce5)" d="M 105.365963 111.053713 
L 327.281285 111.053713 
" style="fill:none;stroke:#808080;stroke-opacity:0.5;stroke-width:1.5;"/>
    <path clip-path="url(#p6122ca3ce5)" d="M 117.694592 90.651847 
L 327.281285 90.651847 
" style="fill:none;stroke:#808080;stroke-opacity:0.5;stroke-width:1.5;"/>
    <path clip-path="url(#p6122ca3ce5)" d="M 130.023221 72.591661 
L 327.281285 72.591661 
" style="fill:none;stroke:#808080;stroke-opacity:0.5;stroke-width:1.5;"/>
    <path clip-path="url(#p6122ca3ce5)" d="M 142.35185 57.060911 
L 327.281285 57.060911 
" style="fill:none;stroke:#808080;stroke-opacity:0.5;stroke-width:1.5;"/>
    <path clip-path="url(#p6122ca3ce5)" d="M 154.680479 44.191882 
L 327.281285 44.191882 
" style="fill:none;stroke:#808080;stroke-opacity:0.5;stroke-width:1.5;"/>
    <path clip-path="url(#p6122ca3ce5)" d="M 167.009108 34.056238 
L 327.281285 34.056238 
" style="fill:none;stroke:#808080;stroke-opacity:0.5;stroke-width:1.5;"/>
    <path clip-path="url(#p6122ca3ce5)" d="M 179.337737 26.660315 
L 327.281285 26.660315 
" style="fill:none;stroke:#808080;stroke-opacity:0.5;stroke-width:1.5;"/>
    <path clip-path="url(#p6122ca3ce5)" d="M 191.666366 21.940853 
L 327.281285 21.940853 
" style="fill:none;stroke:#808080;stroke-opacity:0.5;stroke-width:1.5;"/>
    <path clip-path="url(#p6122ca3ce5)" d="M 203.994995 19.761177 
L 327.281285 19.761177 
" style="fill:none;stroke:#808080;stroke-opacity:0.5;stroke-width:1.5;"/>
    <path clip-path="url(#p6122ca3ce5)" d="M 216.323624 19.90794 
L 327.281285 19.90794 
" style="fill:none;stroke:#808080;stroke-opacity:0.5;stroke-width:1.5;"/>
    <path clip-path="url(#p6122ca3ce5)" d="M 228.652253 22.088759 
L 327.281285 22.088759 
" style="fill:none;stroke:#808080;stroke-opacity:0.5;stroke-width:1.5;"/>
    <path clip-path="url(#p6122ca3ce5)" d="M 240.980882 25.931467 
L 327.281285 25.931467 
" style="fill:none;stroke:#808080;stroke-opacity:0.5;stroke-width:1.5;"/>
    <path clip-path="url(#p6122ca3ce5)" d="M 253.309511 30.986421 
L 327.281285 30.986421 
" style="fill:none;stroke:#808080;stroke-opacity:0.5;stroke-width:1.5;"/>
    <path clip-path="url(#p6122ca3ce5)" d="M 265.63814 36.734309 
L 327.281285 36.734309 
" style="fill:none;stroke:#808080;stroke-opacity:0.5;stroke-width:1.5;"/>
    <path clip-path="url(#p6122ca3ce5)" d="M 277.966769 42.603133 
L 327.281285 42.603133 
" style="fill:none;stroke:#808080;stroke-opacity:0.5;stroke-width:1.5;"/>
    <path clip-path="url(#p6122ca3ce5)" d="M 290.295398 47.998754 
L 327.281285 47.998754 
" style="fill:none;stroke:#808080;stroke-opacity:0.5;stroke-width:1.5;"/>
    <path clip-path="url(#p6122ca3ce5)" d="M 302.624027 52.35226 
L 327.281285 52.35226 
" style="fill:none;stroke:#808080;stroke-opacity:0.5;stroke-width:1.5;"/>
    <path clip-path="url(#p6122ca3ce5)" d="M 314.952656 55.182634 
L 327.281285 55.182634 
" style="fill:none;stroke:#808080;stroke-opacity:0.5;stroke-width:1.5;"/>
    <path clip-path="url(#p6122ca3ce5)" d="M 327.281285 56.164563 
L 327.281285 56.164563 
" style="fill:none;stroke:#808080;stroke-opacity:0.5;stroke-width:1.5;"/>
   </g>
   <g id="line2d_3">
    <path clip-path="url(#p6122ca3ce5)" d="M -1 193.686149 
L 1.80548 199.798319 
L 7.723222 212.906527 
L 13.640964 226.188322 
L 19.558706 239.601007 
L 25.476447 253.101283 
L 31.394189 266.645455 
L 37.311931 253.101283 
L 43.229673 239.601007 
L 49.147415 226.188322 
L 55.065157 212.906527 
L 60.982899 199.798319 
L 66.900641 186.905607 
L 72.818383 174.269308 
L 78.736125 161.929161 
L 84.653867 149.923539 
L 90.571608 138.28926 
L 96.48935 127.061413 
L 102.407092 116.273174 
L 108.324834 105.955644 
L 114.242576 96.137675 
L 120.160318 86.845712 
L 126.07806 78.103641 
L 131.995802 69.932635 
L 137.913544 62.351011 
L 143.831286 55.374095 
L 149.749028 49.014086 
L 155.666769 43.279931 
L 161.584511 38.177203 
L 167.502253 33.707987 
L 173.419995 29.870765 
L 179.337737 26.660315 
L 185.255479 24.067607 
L 191.173221 22.079712 
L 197.090963 20.67971 
L 203.008705 19.846614 
L 208.926447 19.555295 
L 214.844189 19.776426 
L 220.76193 20.476445 
L 226.679672 21.61753 
L 232.597414 23.157623 
L 238.515156 25.050483 
L 244.432898 27.245806 
L 250.35064 29.689421 
L 256.268382 32.323581 
L 262.186124 35.087382 
L 268.103866 37.917341 
L 274.021608 40.748144 
L 279.93935 43.513608 
L 285.857091 46.147866 
L 291.774833 48.586764 
L 297.692575 50.76947 
L 303.610317 52.640215 
L 309.528059 54.15011 
L 315.445801 55.258909 
L 321.363543 55.93658 
L 327.281285 56.164563 
" style="fill:none;stroke:#1f77b4;stroke-linecap:square;stroke-width:1.5;"/>
   </g>
   <g id="patch_3">
    <path d="M 26.685 279 
L 26.685 7.2 
" style="fill:none;stroke:#000000;stroke-linecap:square;stroke-linejoin:miter;stroke-width:2.5;"/>
   </g>
   <g id="patch_4">
    <path d="M 331.048636 279 
L 331.048636 7.2 
" style="fill:none;stroke:#000000;stroke-linecap:square;stroke-linejoin:miter;stroke-width:2.5;"/>
   </g>
   <g id="patch_5">
    <path d="M 26.685 279 
L 331.048636 279 
" style="fill:none;stroke:#000000;stroke-linecap:square;stroke-linejoin:miter;stroke-width:2.5;"/>
   </g>
   <g id="patch_6">
    <path d="M 26.685 7.2 
L 331.048636 7.2 
" style="fill:none;stroke:#000000;stroke-linecap:square;stroke-linejoin:miter;stroke-width:2.5;"/>
   </g>
  </g>
  <g id="axes_2">
   <g id="patch_7">
    <path d="M 391.921364 279 
L 696.285 279 
L 696.285 7.2 
L 391.921364 7.2 
z
" style="fill:#ffffff;"/>
   </g>
   <g id="patch_8">
    <path clip-path="url(#pefbb23c7ce)" d="M 391.921364 266.645455 
L 401.916885 266.645455 
L 401.916885 263.350909 
L 391.921364 263.350909 
z
" style="fill:#1f77b4;"/>
   </g>
   <g id="patch_9">
    <path clip-path="url(#pefbb23c7ce)" d="M 391.921364 263.350909 
L 401.916885 263.350909 
L 401.916885 260.056364 
L 391.921364 260.056364 
z
" style="fill:#1f77b4;"/>
   </g>
   <g id="patch_10">
    <path clip-path="url(#pefbb23c7ce)" d="M 391.921364 260.056364 
L 401.916885 260.056364 
L 401.916885 256.761818 
L 391.921364 256.761818 
z
" style="fill:#1f77b4;"/>
   </g>
   <g id="patch_11">
    <path clip-path="url(#pefbb23c7ce)" d="M 391.921364 256.761818 
L 401.916885 256.761818 
L 401.916885 253.467273 
L 391.921364 253.467273 
z
" style="fill:#1f77b4;"/>
   </g>
   <g id="patch_12">
    <path clip-path="url(#pefbb23c7ce)" d="M 391.921364 253.467273 
L 401.916885 253.467273 
L 401.916885 250.172727 
L 391.921364 250.172727 
z
" style="fill:#1f77b4;"/>
   </g>
   <g id="patch_13">
    <path clip-path="url(#pefbb23c7ce)" d="M 391.921364 250.172727 
L 401.916885 250.172727 
L 401.916885 246.878182 
L 391.921364 246.878182 
z
" style="fill:#1f77b4;"/>
   </g>
   <g id="patch_14">
    <path clip-path="url(#pefbb23c7ce)" d="M 391.921364 246.878182 
L 401.916885 246.878182 
L 401.916885 243.583636 
L 391.921364 243.583636 
z
" style="fill:#1f77b4;"/>
   </g>
   <g id="patch_15">
    <path clip-path="url(#pefbb23c7ce)" d="M 391.921364 243.583636 
L 399.917781 243.583636 
L 399.917781 240.289091 
L 391.921364 240.289091 
z
" style="fill:#1f77b4;"/>
   </g>
   <g id="patch_16">
    <path clip-path="url(#pefbb23c7ce)" d="M 391.921364 240.289091 
L 401.916885 240.289091 
L 401.916885 236.994545 
L 391.921364 236.994545 
z
" style="fill:#1f77b4;"/>
   </g>
   <g id="patch_17">
    <path clip-path="url(#pefbb23c7ce)" d="M 391.921364 236.994545 
L 401.916885 236.994545 
L 401.916885 233.7 
L 391.921364 233.7 
z
" style="fill:#1f77b4;"/>
   </g>
   <g id="patch_18">
    <path clip-path="url(#pefbb23c7ce)" d="M 391.921364 233.7 
L 401.916885 233.7 
L 401.916885 230.405455 
L 391.921364 230.405455 
z
" style="fill:#1f77b4;"/>
   </g>
   <g id="patch_19">
    <path clip-path="url(#pefbb23c7ce)" d="M 391.921364 230.405455 
L 401.916885 230.405455 
L 401.916885 227.110909 
L 391.921364 227.110909 
z
" style="fill:#1f77b4;"/>
   </g>
   <g id="patch_20">
    <path clip-path="url(#pefbb23c7ce)" d="M 391.921364 227.110909 
L 401.916885 227.110909 
L 401.916885 223.816364 
L 391.921364 223.816364 
z
" style="fill:#1f77b4;"/>
   </g>
   <g id="patch_21">
    <path clip-path="url(#pefbb23c7ce)" d="M 391.921364 223.816364 
L 401.916885 223.816364 
L 401.916885 220.521818 
L 391.921364 220.521818 
z
" style="fill:#1f77b4;"/>
   </g>
   <g id="patch_22">
    <path clip-path="url(#pefbb23c7ce)" d="M 391.921364 220.521818 
L 401.916885 220.521818 
L 401.916885 217.227273 
L 391.921364 217.227273 
z
" style="fill:#1f77b4;"/>
   </g>
   <g id="patch_23">
    <path clip-path="url(#pefbb23c7ce)" d="M 391.921364 217.227273 
L 401.916885 217.227273 
L 401.916885 213.932727 
L 391.921364 213.932727 
z
" style="fill:#1f77b4;"/>
   </g>
   <g id="patch_24">
    <path clip-path="url(#pefbb23c7ce)" d="M 391.921364 213.932727 
L 401.916885 213.932727 
L 401.916885 210.638182 
L 391.921364 210.638182 
z
" style="fill:#1f77b4;"/>
   </g>
   <g id="patch_25">
    <path clip-path="url(#pefbb23c7ce)" d="M 391.921364 210.638182 
L 401.916885 210.638182 
L 401.916885 207.343636 
L 391.921364 207.343636 
z
" style="fill:#1f77b4;"/>
   </g>
   <g id="patch_26">
    <path clip-path="url(#pefbb23c7ce)" d="M 391.921364 207.343636 
L 401.916885 207.343636 
L 401.916885 204.049091 
L 391.921364 204.049091 
z
" style="fill:#1f77b4;"/>
   </g>
   <g id="patch_27">
    <path clip-path="url(#pefbb23c7ce)" d="M 391.921364 204.049091 
L 401.916885 204.049091 
L 401.916885 200.754545 
L 391.921364 200.754545 
z
" style="fill:#1f77b4;"/>
   </g>
   <g id="patch_28">
    <path clip-path="url(#pefbb23c7ce)" d="M 391.921364 200.754545 
L 401.916885 200.754545 
L 401.916885 197.46 
L 391.921364 197.46 
z
" style="fill:#1f77b4;"/>
   </g>
   <g id="patch_29">
    <path clip-path="url(#pefbb23c7ce)" d="M 391.921364 197.46 
L 401.916885 197.46 
L 401.916885 194.165455 
L 391.921364 194.165455 
z
" style="fill:#1f77b4;"/>
   </g>
   <g id="patch_30">
    <path clip-path="url(#pefbb23c7ce)" d="M 391.921364 194.165455 
L 401.916885 194.165455 
L 401.916885 190.870909 
L 391.921364 190.870909 
z
" style="fill:#1f77b4;"/>
   </g>
   <g id="patch_31">
    <path clip-path="url(#pefbb23c7ce)" d="M 391.921364 190.870909 
L 401.916885 190.870909 
L 401.916885 187.576364 
L 391.921364 187.576364 
z
" style="fill:#1f77b4;"/>
   </g>
   <g id="patch_32">
    <path clip-path="url(#pefbb23c7ce)" d="M 391.921364 187.576364 
L 401.916885 187.576364 
L 401.916885 184.281818 
L 391.921364 184.281818 
z
" style="fill:#1f77b4;"/>
   </g>
   <g id="patch_33">
    <path clip-path="url(#pefbb23c7ce)" d="M 391.921364 184.281818 
L 403.91599 184.281818 
L 403.91599 180.987273 
L 391.921364 180.987273 
z
" style="fill:#1f77b4;"/>
   </g>
   <g id="patch_34">
    <path clip-path="url(#pefbb23c7ce)" d="M 391.921364 180.987273 
L 401.916885 180.987273 
L 401.916885 177.692727 
L 391.921364 177.692727 
z
" style="fill:#1f77b4;"/>
   </g>
   <g id="patch_35">
    <path clip-path="url(#pefbb23c7ce)" d="M 391.921364 177.692727 
L 401.916885 177.692727 
L 401.916885 174.398182 
L 391.921364 174.398182 
z
" style="fill:#1f77b4;"/>
   </g>
   <g id="patch_36">
    <path clip-path="url(#pefbb23c7ce)" d="M 391.921364 174.398182 
L 401.916885 174.398182 
L 401.916885 171.103636 
L 391.921364 171.103636 
z
" style="fill:#1f77b4;"/>
   </g>
   <g id="patch_37">
    <path clip-path="url(#pefbb23c7ce)" d="M 391.921364 171.103636 
L 403.91599 171.103636 
L 403.91599 167.809091 
L 391.921364 167.809091 
z
" style="fill:#1f77b4;"/>
   </g>
   <g id="patch_38">
    <path clip-path="url(#pefbb23c7ce)" d="M 391.921364 167.809091 
L 401.916885 167.809091 
L 401.916885 164.514545 
L 391.921364 164.514545 
z
" style="fill:#1f77b4;"/>
   </g>
   <g id="patch_39">
    <path clip-path="url(#pefbb23c7ce)" d="M 391.921364 164.514545 
L 403.91599 164.514545 
L 403.91599 161.22 
L 391.921364 161.22 
z
" style="fill:#1f77b4;"/>
   </g>
   <g id="patch_40">
    <path clip-path="url(#pefbb23c7ce)" d="M 391.921364 161.22 
L 401.916885 161.22 
L 401.916885 157.925455 
L 391.921364 157.925455 
z
" style="fill:#1f77b4;"/>
   </g>
   <g id="patch_41">
    <path clip-path="url(#pefbb23c7ce)" d="M 391.921364 157.925455 
L 401.916885 157.925455 
L 401.916885 154.630909 
L 391.921364 154.630909 
z
" style="fill:#1f77b4;"/>
   </g>
   <g id="patch_42">
    <path clip-path="url(#pefbb23c7ce)" d="M 391.921364 154.630909 
L 403.91599 154.630909 
L 403.91599 151.336364 
L 391.921364 151.336364 
z
" style="fill:#1f77b4;"/>
   </g>
   <g id="patch_43">
    <path clip-path="url(#pefbb23c7ce)" d="M 391.921364 151.336364 
L 403.91599 151.336364 
L 403.91599 148.041818 
L 391.921364 148.041818 
z
" style="fill:#1f77b4;"/>
   </g>
   <g id="patch_44">
    <path clip-path="url(#pefbb23c7ce)" d="M 391.921364 148.041818 
L 401.916885 148.041818 
L 401.916885 144.747273 
L 391.921364 144.747273 
z
" style="fill:#1f77b4;"/>
   </g>
   <g id="patch_45">
    <path clip-path="url(#pefbb23c7ce)" d="M 391.921364 144.747273 
L 403.91599 144.747273 
L 403.91599 141.452727 
L 391.921364 141.452727 
z
" style="fill:#1f77b4;"/>
   </g>
   <g id="patch_46">
    <path clip-path="url(#pefbb23c7ce)" d="M 391.921364 141.452727 
L 403.91599 141.452727 
L 403.91599 138.158182 
L 391.921364 138.158182 
z
" style="fill:#1f77b4;"/>
   </g>
   <g id="patch_47">
    <path clip-path="url(#pefbb23c7ce)" d="M 391.921364 138.158182 
L 401.916885 138.158182 
L 401.916885 134.863636 
L 391.921364 134.863636 
z
" style="fill:#1f77b4;"/>
   </g>
   <g id="patch_48">
    <path clip-path="url(#pefbb23c7ce)" d="M 391.921364 134.863636 
L 403.91599 134.863636 
L 403.91599 131.569091 
L 391.921364 131.569091 
z
" style="fill:#1f77b4;"/>
   </g>
   <g id="patch_49">
    <path clip-path="url(#pefbb23c7ce)" d="M 391.921364 131.569091 
L 403.91599 131.569091 
L 403.91599 128.274545 
L 391.921364 128.274545 
z
" style="fill:#1f77b4;"/>
   </g>
   <g id="patch_50">
    <path clip-path="url(#pefbb23c7ce)" d="M 391.921364 128.274545 
L 403.91599 128.274545 
L 403.91599 124.98 
L 391.921364 124.98 
z
" style="fill:#1f77b4;"/>
   </g>
   <g id="patch_51">
    <path clip-path="url(#pefbb23c7ce)" d="M 391.921364 124.98 
L 403.91599 124.98 
L 403.91599 121.685455 
L 391.921364 121.685455 
z
" style="fill:#1f77b4;"/>
   </g>
   <g id="patch_52">
    <path clip-path="url(#pefbb23c7ce)" d="M 391.921364 121.685455 
L 403.91599 121.685455 
L 403.91599 118.390909 
L 391.921364 118.390909 
z
" style="fill:#1f77b4;"/>
   </g>
   <g id="patch_53">
    <path clip-path="url(#pefbb23c7ce)" d="M 391.921364 118.390909 
L 403.91599 118.390909 
L 403.91599 115.096364 
L 391.921364 115.096364 
z
" style="fill:#1f77b4;"/>
   </g>
   <g id="patch_54">
    <path clip-path="url(#pefbb23c7ce)" d="M 391.921364 115.096364 
L 405.915094 115.096364 
L 405.915094 111.801818 
L 391.921364 111.801818 
z
" style="fill:#1f77b4;"/>
   </g>
   <g id="patch_55">
    <path clip-path="url(#pefbb23c7ce)" d="M 391.921364 111.801818 
L 403.91599 111.801818 
L 403.91599 108.507273 
L 391.921364 108.507273 
z
" style="fill:#1f77b4;"/>
   </g>
   <g id="patch_56">
    <path clip-path="url(#pefbb23c7ce)" d="M 391.921364 108.507273 
L 405.915094 108.507273 
L 405.915094 105.212727 
L 391.921364 105.212727 
z
" style="fill:#1f77b4;"/>
   </g>
   <g id="patch_57">
    <path clip-path="url(#pefbb23c7ce)" d="M 391.921364 105.212727 
L 403.91599 105.212727 
L 403.91599 101.918182 
L 391.921364 101.918182 
z
" style="fill:#1f77b4;"/>
   </g>
   <g id="patch_58">
    <path clip-path="url(#pefbb23c7ce)" d="M 391.921364 101.918182 
L 405.915094 101.918182 
L 405.915094 98.623636 
L 391.921364 98.623636 
z
" style="fill:#1f77b4;"/>
   </g>
   <g id="patch_59">
    <path clip-path="url(#pefbb23c7ce)" d="M 391.921364 98.623636 
L 405.915094 98.623636 
L 405.915094 95.329091 
L 391.921364 95.329091 
z
" style="fill:#1f77b4;"/>
   </g>
   <g id="patch_60">
    <path clip-path="url(#pefbb23c7ce)" d="M 391.921364 95.329091 
L 405.915094 95.329091 
L 405.915094 92.034545 
L 391.921364 92.034545 
z
" style="fill:#1f77b4;"/>
   </g>
   <g id="patch_61">
    <path clip-path="url(#pefbb23c7ce)" d="M 391.921364 92.034545 
L 405.915094 92.034545 
L 405.915094 88.74 
L 391.921364 88.74 
z
" style="fill:#1f77b4;"/>
   </g>
   <g id="patch_62">
    <path clip-path="url(#pefbb23c7ce)" d="M 391.921364 88.74 
L 405.915094 88.74 
L 405.915094 85.445455 
L 391.921364 85.445455 
z
" style="fill:#1f77b4;"/>
   </g>
   <g id="patch_63">
    <path clip-path="url(#pefbb23c7ce)" d="M 391.921364 85.445455 
L 407.914198 85.445455 
L 407.914198 82.150909 
L 391.921364 82.150909 
z
" style="fill:#1f77b4;"/>
   </g>
   <g id="patch_64">
    <path clip-path="url(#pefbb23c7ce)" d="M 391.921364 82.150909 
L 405.915094 82.150909 
L 405.915094 78.856364 
L 391.921364 78.856364 
z
" style="fill:#1f77b4;"/>
   </g>
   <g id="patch_65">
    <path clip-path="url(#pefbb23c7ce)" d="M 391.921364 78.856364 
L 407.914198 78.856364 
L 407.914198 75.561818 
L 391.921364 75.561818 
z
" style="fill:#1f77b4;"/>
   </g>
   <g id="patch_66">
    <path clip-path="url(#pefbb23c7ce)" d="M 391.921364 75.561818 
L 407.914198 75.561818 
L 407.914198 72.267273 
L 391.921364 72.267273 
z
" style="fill:#1f77b4;"/>
   </g>
   <g id="patch_67">
    <path clip-path="url(#pefbb23c7ce)" d="M 391.921364 72.267273 
L 409.913303 72.267273 
L 409.913303 68.972727 
L 391.921364 68.972727 
z
" style="fill:#1f77b4;"/>
   </g>
   <g id="patch_68">
    <path clip-path="url(#pefbb23c7ce)" d="M 391.921364 68.972727 
L 407.914198 68.972727 
L 407.914198 65.678182 
L 391.921364 65.678182 
z
" style="fill:#1f77b4;"/>
   </g>
   <g id="patch_69">
    <path clip-path="url(#pefbb23c7ce)" d="M 391.921364 65.678182 
L 409.913303 65.678182 
L 409.913303 62.383636 
L 391.921364 62.383636 
z
" style="fill:#1f77b4;"/>
   </g>
   <g id="patch_70">
    <path clip-path="url(#pefbb23c7ce)" d="M 391.921364 62.383636 
L 409.913303 62.383636 
L 409.913303 59.089091 
L 391.921364 59.089091 
z
" style="fill:#1f77b4;"/>
   </g>
   <g id="patch_71">
    <path clip-path="url(#pefbb23c7ce)" d="M 391.921364 59.089091 
L 463.88912 59.089091 
L 463.88912 55.794545 
L 391.921364 55.794545 
z
" style="fill:#1f77b4;"/>
   </g>
   <g id="patch_72">
    <path clip-path="url(#pefbb23c7ce)" d="M 391.921364 55.794545 
L 523.86225 55.794545 
L 523.86225 52.5 
L 391.921364 52.5 
z
" style="fill:#1f77b4;"/>
   </g>
   <g id="patch_73">
    <path clip-path="url(#pefbb23c7ce)" d="M 391.921364 52.5 
L 477.88285 52.5 
L 477.88285 49.205455 
L 391.921364 49.205455 
z
" style="fill:#1f77b4;"/>
   </g>
   <g id="patch_74">
    <path clip-path="url(#pefbb23c7ce)" d="M 391.921364 49.205455 
L 469.886433 49.205455 
L 469.886433 45.910909 
L 391.921364 45.910909 
z
" style="fill:#1f77b4;"/>
   </g>
   <g id="patch_75">
    <path clip-path="url(#pefbb23c7ce)" d="M 391.921364 45.910909 
L 465.888224 45.910909 
L 465.888224 42.616364 
L 391.921364 42.616364 
z
" style="fill:#1f77b4;"/>
   </g>
   <g id="patch_76">
    <path clip-path="url(#pefbb23c7ce)" d="M 391.921364 42.616364 
L 461.890016 42.616364 
L 461.890016 39.321818 
L 391.921364 39.321818 
z
" style="fill:#1f77b4;"/>
   </g>
   <g id="patch_77">
    <path clip-path="url(#pefbb23c7ce)" d="M 391.921364 39.321818 
L 467.887329 39.321818 
L 467.887329 36.027273 
L 391.921364 36.027273 
z
" style="fill:#1f77b4;"/>
   </g>
   <g id="patch_78">
    <path clip-path="url(#pefbb23c7ce)" d="M 391.921364 36.027273 
L 469.886433 36.027273 
L 469.886433 32.732727 
L 391.921364 32.732727 
z
" style="fill:#1f77b4;"/>
   </g>
   <g id="patch_79">
    <path clip-path="url(#pefbb23c7ce)" d="M 391.921364 32.732727 
L 477.88285 32.732727 
L 477.88285 29.438182 
L 391.921364 29.438182 
z
" style="fill:#1f77b4;"/>
   </g>
   <g id="patch_80">
    <path clip-path="url(#pefbb23c7ce)" d="M 391.921364 29.438182 
L 489.877476 29.438182 
L 489.877476 26.143636 
L 391.921364 26.143636 
z
" style="fill:#1f77b4;"/>
   </g>
   <g id="patch_81">
    <path clip-path="url(#pefbb23c7ce)" d="M 391.921364 26.143636 
L 513.866729 26.143636 
L 513.866729 22.849091 
L 391.921364 22.849091 
z
" style="fill:#1f77b4;"/>
   </g>
   <g id="patch_82">
    <path clip-path="url(#pefbb23c7ce)" d="M 391.921364 22.849091 
L 681.791494 22.849091 
L 681.791494 19.554545 
L 391.921364 19.554545 
z
" style="fill:#1f77b4;"/>
   </g>
   <g id="matplotlib.axis_3">
    <g id="text_5">
     <!-- $g(ω)$ -->
     <g transform="translate(526.023182 295.16)scale(0.16 -0.16)">
      <defs>
       <path d="M 59.625 54.6875 
L 50.296875 6.78125 
Q 47.609375 -7.125 40.015625 -13.953125 
Q 32.421875 -20.796875 19.578125 -20.796875 
Q 14.84375 -20.796875 10.78125 -20.09375 
Q 6.734375 -19.390625 3.21875 -17.921875 
L 4.890625 -9.1875 
Q 8.203125 -11.328125 11.90625 -12.34375 
Q 15.625 -13.375 19.828125 -13.375 
Q 28.375 -13.375 33.859375 -8.703125 
Q 39.359375 -4.046875 41.109375 4.6875 
L 41.890625 8.796875 
Q 38.140625 4.5 33.15625 2.25 
Q 28.171875 0 22.40625 0 
Q 14.109375 0 9.34375 5.484375 
Q 4.59375 10.984375 4.59375 20.609375 
Q 4.59375 28.171875 7.46875 35.421875 
Q 10.359375 42.671875 15.578125 48.296875 
Q 19.046875 52 23.65625 54 
Q 28.265625 56 33.296875 56 
Q 38.8125 56 42.90625 53.4375 
Q 47.015625 50.875 49.03125 46.1875 
L 50.59375 54.6875 
z
M 46.09375 34.625 
Q 46.09375 41.265625 42.96875 44.875 
Q 39.84375 48.484375 34.078125 48.484375 
Q 30.515625 48.484375 27.296875 47.0625 
Q 24.078125 45.65625 21.78125 43.109375 
Q 18.0625 38.921875 15.984375 33.234375 
Q 13.921875 27.546875 13.921875 21.484375 
Q 13.921875 14.75 17.0625 11.125 
Q 20.21875 7.515625 26.125 7.515625 
Q 34.671875 7.515625 40.375 15.25 
Q 46.09375 23 46.09375 34.625 
z
" id="DejaVuSans-Oblique-103"/>
       <path d="M 31 75.875 
Q 24.46875 64.65625 21.28125 53.65625 
Q 18.109375 42.671875 18.109375 31.390625 
Q 18.109375 20.125 21.3125 9.0625 
Q 24.515625 -2 31 -13.1875 
L 23.1875 -13.1875 
Q 15.875 -1.703125 12.234375 9.375 
Q 8.59375 20.453125 8.59375 31.390625 
Q 8.59375 42.28125 12.203125 53.3125 
Q 15.828125 64.359375 23.1875 75.875 
z
" id="DejaVuSans-40"/>
       <path d="M 8.015625 75.875 
L 15.828125 75.875 
Q 23.140625 64.359375 26.78125 53.3125 
Q 30.421875 42.28125 30.421875 31.390625 
Q 30.421875 20.453125 26.78125 9.375 
Q 23.140625 -1.703125 15.828125 -13.1875 
L 8.015625 -13.1875 
Q 14.5 -2 17.703125 9.0625 
Q 20.90625 20.125 20.90625 31.390625 
Q 20.90625 42.671875 17.703125 53.65625 
Q 14.5 64.65625 8.015625 75.875 
z
" id="DejaVuSans-41"/>
      </defs>
      <use transform="translate(0 0.125)" xlink:href="#DejaVuSans-Oblique-103"/>
      <use transform="translate(63.476562 0.125)" xlink:href="#DejaVuSans-40"/>
      <use transform="translate(102.490234 0.125)" xlink:href="#DejaVuSans-Oblique-969"/>
      <use transform="translate(186.230469 0.125)" xlink:href="#DejaVuSans-41"/>
     </g>
    </g>
   </g>
   <g id="matplotlib.axis_4"/>
   <g id="patch_83">
    <path d="M 391.921364 279 
L 391.921364 7.2 
" style="fill:none;stroke:#000000;stroke-linecap:square;stroke-linejoin:miter;stroke-width:2.5;"/>
   </g>
   <g id="patch_84">
    <path d="M 696.285 279 
L 696.285 7.2 
" style="fill:none;stroke:#000000;stroke-linecap:square;stroke-linejoin:miter;stroke-width:2.5;"/>
   </g>
   <g id="patch_85">
    <path d="M 391.921364 279 
L 696.285 279 
" style="fill:none;stroke:#000000;stroke-linecap:square;stroke-linejoin:miter;stroke-width:2.5;"/>
   </g>
   <g id="patch_86">
    <path d="M 391.921364 7.2 
L 696.285 7.2 
" style="fill:none;stroke:#000000;stroke-linecap:square;stroke-linejoin:miter;stroke-width:2.5;"/>
   </g>
  </g>
 </g>
 <defs>
  <clipPath id="p6122ca3ce5">
   <rect height="271.8" width="304.363636" x="26.685" y="7.2"/>
  </clipPath>
  <clipPath id="pefbb23c7ce">
   <rect height="271.8" width="304.363636" x="391.921364" y="7.2"/>
  </clipPath>
 </defs>
</svg>
