<?xml version="1.0" encoding="utf-8" standalone="no"?>
<!DOCTYPE svg PUBLIC "-//W3C//DTD SVG 1.1//EN"
  "http://www.w3.org/Graphics/SVG/1.1/DTD/svg11.dtd">
<!-- Created with matplotlib (https://matplotlib.org/) -->
<svg height="504pt" version="1.1" viewBox="0 0 720 504" width="720pt" xmlns="http://www.w3.org/2000/svg" xmlns:xlink="http://www.w3.org/1999/xlink">
 <metadata>
  <rdf:RDF xmlns:cc="http://creativecommons.org/ns#" xmlns:dc="http://purl.org/dc/elements/1.1/" xmlns:rdf="http://www.w3.org/1999/02/22-rdf-syntax-ns#">
   <cc:Work>
    <dc:type rdf:resource="http://purl.org/dc/dcmitype/StillImage"/>
    <dc:date>2021-08-14T13:35:14.201323</dc:date>
    <dc:format>image/svg+xml</dc:format>
    <dc:creator>
     <cc:Agent>
      <dc:title>Matplotlib v3.3.2, https://matplotlib.org/</dc:title>
     </cc:Agent>
    </dc:creator>
   </cc:Work>
  </rdf:RDF>
 </metadata>
 <defs>
  <style type="text/css">*{stroke-linecap:butt;stroke-linejoin:round;}</style>
 </defs>
 <g id="figure_1">
  <g id="patch_1">
   <path d="M 0 504 
L 720 504 
L 720 0 
L 0 0 
z
" style="fill:#ffffff;"/>
  </g>
  <g id="axes_1">
   <g id="line2d_1">
    <path clip-path="url(#p11ac32b487)" d="M 123.48 64.2852 
L 130.882613 86.659211 
L 138.285226 108.348303 
L 145.687839 129.352477 
L 153.090452 149.671732 
L 160.493065 169.306068 
L 167.895678 188.255485 
L 175.298291 206.519984 
L 182.700905 224.099564 
L 190.103518 240.994226 
L 197.506131 257.203968 
L 204.908744 272.728792 
L 212.311357 287.568698 
L 219.71397 301.723684 
L 227.116583 315.193752 
L 232.051658 323.793287 
L 236.986734 332.088413 
L 241.921809 340.079132 
L 246.856884 347.765441 
L 251.79196 355.147343 
L 256.727035 362.224836 
L 261.662111 368.997921 
L 266.597186 375.466598 
L 271.532261 381.630866 
L 276.467337 387.490726 
L 281.402412 393.046178 
L 286.337487 398.297221 
L 291.272563 403.243856 
L 296.207638 407.886083 
L 301.142714 412.223902 
L 306.077789 416.257312 
L 311.012864 419.986314 
L 315.94794 423.410907 
L 320.883015 426.531092 
L 325.81809 429.346869 
L 330.753166 431.858238 
L 335.688241 434.065198 
L 340.623317 435.96775 
L 345.558392 437.565894 
L 350.493467 438.859629 
L 355.428543 439.848956 
L 360.363618 440.533875 
L 365.298693 440.914385 
L 370.233769 440.990487 
L 375.168844 440.762181 
L 380.10392 440.229466 
L 385.038995 439.392344 
L 389.97407 438.250812 
L 394.909146 436.804873 
L 399.844221 435.054525 
L 404.779296 432.999769 
L 409.714372 430.640605 
L 414.649447 427.977032 
L 419.584523 425.009051 
L 424.519598 421.736661 
L 429.454673 418.159864 
L 434.389749 414.278658 
L 439.324824 410.093043 
L 444.259899 405.603021 
L 449.194975 400.80859 
L 454.13005 395.709751 
L 459.065126 390.306503 
L 464.000201 384.598847 
L 468.935276 378.586783 
L 473.870352 372.270311 
L 478.805427 365.64943 
L 483.740503 358.724141 
L 488.675578 351.494443 
L 493.610653 343.960337 
L 498.545729 336.121823 
L 503.480804 327.978901 
L 508.415879 319.53157 
L 513.350955 310.779831 
L 520.753568 297.081457 
L 528.156181 282.698165 
L 535.558794 267.629953 
L 542.961407 251.876823 
L 550.36402 235.438774 
L 557.766633 218.315806 
L 565.169246 200.50792 
L 572.571859 182.015115 
L 579.974472 162.837391 
L 587.377085 142.974749 
L 594.779698 122.427188 
L 602.182312 101.194708 
L 609.584925 79.277309 
L 614.52 64.2852 
L 614.52 64.2852 
" style="fill:none;stroke:#1f77b4;stroke-linecap:square;stroke-width:1.5;"/>
   </g>
   <g id="line2d_2">
    <defs>
     <path d="M 0 2.5 
C 0.663008 2.5 1.29895 2.236584 1.767767 1.767767 
C 2.236584 1.29895 2.5 0.663008 2.5 0 
C 2.5 -0.663008 2.236584 -1.29895 1.767767 -1.767767 
C 1.29895 -2.236584 0.663008 -2.5 0 -2.5 
C -0.663008 -2.5 -1.29895 -2.236584 -1.767767 -1.767767 
C -2.236584 -1.29895 -2.5 -0.663008 -2.5 0 
C -2.5 0.663008 -2.236584 1.29895 -1.767767 1.767767 
C -1.29895 2.236584 -0.663008 2.5 0 2.5 
z
" id="m0da22c7a8c" style="stroke:#000000;"/>
    </defs>
    <g clip-path="url(#p11ac32b487)">
     <use style="stroke:#000000;" x="145.8" xlink:href="#m0da22c7a8c" y="129.665455"/>
     <use style="stroke:#000000;" x="220.2" xlink:href="#m0da22c7a8c" y="302.629091"/>
     <use style="stroke:#000000;" x="294.6" xlink:href="#m0da22c7a8c" y="406.407273"/>
     <use style="stroke:#000000;" x="369" xlink:href="#m0da22c7a8c" y="441"/>
     <use style="stroke:#000000;" x="443.4" xlink:href="#m0da22c7a8c" y="406.407273"/>
     <use style="stroke:#000000;" x="517.8" xlink:href="#m0da22c7a8c" y="302.629091"/>
     <use style="stroke:#000000;" x="592.2" xlink:href="#m0da22c7a8c" y="129.665455"/>
    </g>
   </g>
   <g id="line2d_3">
    <path clip-path="url(#p11ac32b487)" d="M 145.8 441 
L 145.8 129.665455 
" style="fill:none;stroke:#000000;stroke-dasharray:1.5,2.475;stroke-dashoffset:0;stroke-width:1.5;"/>
   </g>
   <g id="line2d_4">
    <path clip-path="url(#p11ac32b487)" d="M 220.2 441 
L 220.2 302.629091 
" style="fill:none;stroke:#000000;stroke-dasharray:1.5,2.475;stroke-dashoffset:0;stroke-width:1.5;"/>
   </g>
   <g id="line2d_5">
    <path clip-path="url(#p11ac32b487)" d="M 294.6 441 
L 294.6 406.407273 
" style="fill:none;stroke:#000000;stroke-dasharray:1.5,2.475;stroke-dashoffset:0;stroke-width:1.5;"/>
   </g>
   <g id="line2d_6">
    <path clip-path="url(#p11ac32b487)" d="M 369 441 
L 369 441 
" style="fill:none;stroke:#000000;stroke-dasharray:1.5,2.475;stroke-dashoffset:0;stroke-width:1.5;"/>
   </g>
   <g id="line2d_7">
    <path clip-path="url(#p11ac32b487)" d="M 443.4 441 
L 443.4 406.407273 
" style="fill:none;stroke:#000000;stroke-dasharray:1.5,2.475;stroke-dashoffset:0;stroke-width:1.5;"/>
   </g>
   <g id="line2d_8">
    <path clip-path="url(#p11ac32b487)" d="M 517.8 441 
L 517.8 302.629091 
" style="fill:none;stroke:#000000;stroke-dasharray:1.5,2.475;stroke-dashoffset:0;stroke-width:1.5;"/>
   </g>
   <g id="line2d_9">
    <path clip-path="url(#p11ac32b487)" d="M 592.2 441 
L 592.2 129.665455 
" style="fill:none;stroke:#000000;stroke-dasharray:1.5,2.475;stroke-dashoffset:0;stroke-width:1.5;"/>
   </g>
   <g id="patch_2">
    <path d="M 642.881925 441 
Q 367.99959 441 91.999222 441 
" style="fill:none;stroke:#000000;stroke-linecap:round;"/>
    <path d="M 636.481925 437.8 
L 642.881925 441 
L 636.481925 444.2 
" style="fill:none;stroke:#000000;stroke-linecap:round;"/>
   </g>
   <g id="text_1">
    <!-- $k \: \left[ \frac{2 \pi}{L} \right]$ -->
    <g transform="translate(648 445.72)scale(0.16 -0.16)">
     <defs>
      <path d="M 18.3125 75.984375 
L 27.296875 75.984375 
L 18.703125 31.6875 
L 49.515625 54.6875 
L 61.1875 54.6875 
L 26.8125 28.515625 
L 51.90625 0 
L 41.015625 0 
L 17.671875 26.703125 
L 12.5 0 
L 3.515625 0 
z
" id="DejaVuSans-Oblique-107"/>
      <path d="M 42.203125 -27.90625 
L 19 -27.90625 
L 19 156.59375 
L 42.203125 156.59375 
L 42.203125 152.59375 
L 26.59375 152.59375 
L 26.59375 -23.90625 
L 42.203125 -23.90625 
z
" id="STIXSizeTwoSym-Regular-91"/>
      <path d="M 19.1875 8.296875 
L 53.609375 8.296875 
L 53.609375 0 
L 7.328125 0 
L 7.328125 8.296875 
Q 12.9375 14.109375 22.625 23.890625 
Q 32.328125 33.6875 34.8125 36.53125 
Q 39.546875 41.84375 41.421875 45.53125 
Q 43.3125 49.21875 43.3125 52.78125 
Q 43.3125 58.59375 39.234375 62.25 
Q 35.15625 65.921875 28.609375 65.921875 
Q 23.96875 65.921875 18.8125 64.3125 
Q 13.671875 62.703125 7.8125 59.421875 
L 7.8125 69.390625 
Q 13.765625 71.78125 18.9375 73 
Q 24.125 74.21875 28.421875 74.21875 
Q 39.75 74.21875 46.484375 68.546875 
Q 53.21875 62.890625 53.21875 53.421875 
Q 53.21875 48.921875 51.53125 44.890625 
Q 49.859375 40.875 45.40625 35.40625 
Q 44.1875 33.984375 37.640625 27.21875 
Q 31.109375 20.453125 19.1875 8.296875 
z
" id="DejaVuSans-50"/>
      <path d="M 9.125 54.6875 
L 61.53125 54.6875 
L 59.765625 45.703125 
L 52.875 45.703125 
L 46.34375 12.109375 
Q 45.65625 8.59375 46.578125 7.03125 
Q 47.46875 5.515625 50.140625 5.515625 
Q 50.875 5.515625 51.953125 5.671875 
Q 53.078125 5.765625 53.421875 5.8125 
L 52.15625 -0.6875 
Q 50.34375 -1.3125 48.484375 -1.609375 
Q 46.578125 -1.90625 44.78125 -1.90625 
Q 38.921875 -1.90625 37.3125 1.265625 
Q 35.6875 4.5 37.359375 13.09375 
L 43.703125 45.703125 
L 23.53125 45.703125 
L 14.65625 0 
L 5.46875 0 
L 14.359375 45.703125 
L 7.375 45.703125 
z
" id="DejaVuSans-Oblique-960"/>
      <path d="M 16.796875 72.90625 
L 26.703125 72.90625 
L 14.203125 8.203125 
L 49.703125 8.203125 
L 48.09375 0 
L 2.6875 0 
z
" id="DejaVuSans-Oblique-76"/>
      <path d="M 26.90625 -27.90625 
L 3.703125 -27.90625 
L 3.703125 -23.90625 
L 19.296875 -23.90625 
L 19.296875 152.59375 
L 3.703125 152.59375 
L 3.703125 156.59375 
L 26.90625 156.59375 
z
" id="STIXSizeTwoSym-Regular-93"/>
     </defs>
     <use transform="translate(0 0.915625)" xlink:href="#DejaVuSans-Oblique-107"/>
     <use transform="translate(79.557075 -17.071875)scale(0.734807)" xlink:href="#STIXSizeTwoSym-Regular-91"/>
     <use transform="translate(113.279228 46.046875)scale(0.7)" xlink:href="#DejaVuSans-50"/>
     <use transform="translate(157.815361 46.046875)scale(0.7)" xlink:href="#DejaVuSans-Oblique-960"/>
     <use transform="translate(137.279228 -37.571875)scale(0.7)" xlink:href="#DejaVuSans-Oblique-76"/>
     <use transform="translate(212.458915 -17.071875)scale(0.734807)" xlink:href="#STIXSizeTwoSym-Regular-93"/>
     <path d="M 113.279228 19.7125 
L 113.279228 25.9625 
L 199.958915 25.9625 
L 199.958915 19.7125 
L 113.279228 19.7125 
z
"/>
    </g>
   </g>
   <g id="patch_3">
    <path d="M 369 68.925357 
Q 369 253.402858 369 438.998394 
" style="fill:none;stroke:#000000;stroke-linecap:round;"/>
    <path d="M 365.8 75.325357 
L 369 68.925357 
L 372.2 75.325357 
" style="fill:none;stroke:#000000;stroke-linecap:round;"/>
   </g>
   <g id="text_2">
    <!-- $\varepsilon$ -->
    <g transform="translate(364.6 60.48)scale(0.16 -0.16)">
     <defs>
      <path d="M 19.734375 29.5 
Q 14.453125 30.671875 12.15625 33.84375 
Q 10.453125 36.078125 10.453125 39.109375 
Q 10.453125 47.40625 18.359375 52.25 
Q 24.609375 56.0625 34.1875 56.0625 
Q 37.890625 56.0625 41.9375 55.46875 
Q 46 54.890625 50.53125 53.71875 
L 48.96875 45.5625 
Q 44.484375 46.96875 40.71875 47.609375 
Q 36.859375 48.25 33.40625 48.25 
Q 27.59375 48.25 23.78125 46 
Q 19.1875 43.3125 19.1875 39.40625 
Q 19.1875 36.8125 21.578125 35.015625 
Q 24.421875 32.859375 30.078125 32.859375 
L 37.640625 32.859375 
L 36.234375 25.4375 
L 29 25.4375 
Q 22.265625 25.4375 18.3125 22.953125 
Q 12.9375 19.578125 12.9375 14.3125 
Q 12.9375 10.984375 15.828125 8.796875 
Q 19.4375 6.0625 26.8125 6.0625 
Q 31.34375 6.0625 35.6875 6.9375 
Q 40.046875 7.859375 43.84375 9.671875 
L 42.1875 1.3125 
Q 37.546875 -0.046875 33.296875 -0.734375 
Q 29.046875 -1.421875 25.140625 -1.421875 
Q 13.53125 -1.421875 8.0625 3.03125 
Q 3.90625 6.453125 3.90625 12.203125 
Q 3.90625 19.96875 9.375 24.75 
Q 13.421875 28.328125 19.734375 29.5 
z
" id="DejaVuSans-Oblique-949"/>
     </defs>
     <use transform="translate(0 0.9375)" xlink:href="#DejaVuSans-Oblique-949"/>
    </g>
   </g>
   <g id="text_3">
    <!-- -3 -->
    <g transform="translate(137.82375 458.428136)scale(0.16 -0.16)">
     <defs>
      <path d="M 4.890625 31.390625 
L 31.203125 31.390625 
L 31.203125 23.390625 
L 4.890625 23.390625 
z
" id="DejaVuSans-45"/>
      <path d="M 40.578125 39.3125 
Q 47.65625 37.796875 51.625 33 
Q 55.609375 28.21875 55.609375 21.1875 
Q 55.609375 10.40625 48.1875 4.484375 
Q 40.765625 -1.421875 27.09375 -1.421875 
Q 22.515625 -1.421875 17.65625 -0.515625 
Q 12.796875 0.390625 7.625 2.203125 
L 7.625 11.71875 
Q 11.71875 9.328125 16.59375 8.109375 
Q 21.484375 6.890625 26.8125 6.890625 
Q 36.078125 6.890625 40.9375 10.546875 
Q 45.796875 14.203125 45.796875 21.1875 
Q 45.796875 27.640625 41.28125 31.265625 
Q 36.765625 34.90625 28.71875 34.90625 
L 20.21875 34.90625 
L 20.21875 43.015625 
L 29.109375 43.015625 
Q 36.375 43.015625 40.234375 45.921875 
Q 44.09375 48.828125 44.09375 54.296875 
Q 44.09375 59.90625 40.109375 62.90625 
Q 36.140625 65.921875 28.71875 65.921875 
Q 24.65625 65.921875 20.015625 65.03125 
Q 15.375 64.15625 9.8125 62.3125 
L 9.8125 71.09375 
Q 15.4375 72.65625 20.34375 73.4375 
Q 25.25 74.21875 29.59375 74.21875 
Q 40.828125 74.21875 47.359375 69.109375 
Q 53.90625 64.015625 53.90625 55.328125 
Q 53.90625 49.265625 50.4375 45.09375 
Q 46.96875 40.921875 40.578125 39.3125 
z
" id="DejaVuSans-51"/>
     </defs>
     <use xlink:href="#DejaVuSans-45"/>
     <use x="36.083984" xlink:href="#DejaVuSans-51"/>
    </g>
   </g>
   <g id="text_4">
    <!-- -2 -->
    <g transform="translate(212.22375 458.428136)scale(0.16 -0.16)">
     <use xlink:href="#DejaVuSans-45"/>
     <use x="36.083984" xlink:href="#DejaVuSans-50"/>
    </g>
   </g>
   <g id="text_5">
    <!-- -1 -->
    <g transform="translate(286.62375 458.428136)scale(0.16 -0.16)">
     <defs>
      <path d="M 12.40625 8.296875 
L 28.515625 8.296875 
L 28.515625 63.921875 
L 10.984375 60.40625 
L 10.984375 69.390625 
L 28.421875 72.90625 
L 38.28125 72.90625 
L 38.28125 8.296875 
L 54.390625 8.296875 
L 54.390625 0 
L 12.40625 0 
z
" id="DejaVuSans-49"/>
     </defs>
     <use xlink:href="#DejaVuSans-45"/>
     <use x="36.083984" xlink:href="#DejaVuSans-49"/>
    </g>
   </g>
   <g id="text_6">
    <!-- 0 -->
    <g transform="translate(363.91 458.428136)scale(0.16 -0.16)">
     <defs>
      <path d="M 31.78125 66.40625 
Q 24.171875 66.40625 20.328125 58.90625 
Q 16.5 51.421875 16.5 36.375 
Q 16.5 21.390625 20.328125 13.890625 
Q 24.171875 6.390625 31.78125 6.390625 
Q 39.453125 6.390625 43.28125 13.890625 
Q 47.125 21.390625 47.125 36.375 
Q 47.125 51.421875 43.28125 58.90625 
Q 39.453125 66.40625 31.78125 66.40625 
z
M 31.78125 74.21875 
Q 44.046875 74.21875 50.515625 64.515625 
Q 56.984375 54.828125 56.984375 36.375 
Q 56.984375 17.96875 50.515625 8.265625 
Q 44.046875 -1.421875 31.78125 -1.421875 
Q 19.53125 -1.421875 13.0625 8.265625 
Q 6.59375 17.96875 6.59375 36.375 
Q 6.59375 54.828125 13.0625 64.515625 
Q 19.53125 74.21875 31.78125 74.21875 
z
" id="DejaVuSans-48"/>
     </defs>
     <use xlink:href="#DejaVuSans-48"/>
    </g>
   </g>
   <g id="text_7">
    <!-- 1 -->
    <g transform="translate(438.31 458.428136)scale(0.16 -0.16)">
     <use xlink:href="#DejaVuSans-49"/>
    </g>
   </g>
   <g id="text_8">
    <!-- 2 -->
    <g transform="translate(512.71 458.428136)scale(0.16 -0.16)">
     <use xlink:href="#DejaVuSans-50"/>
    </g>
   </g>
   <g id="text_9">
    <!-- 3 -->
    <g transform="translate(587.11 458.428136)scale(0.16 -0.16)">
     <use xlink:href="#DejaVuSans-51"/>
    </g>
   </g>
  </g>
 </g>
 <defs>
  <clipPath id="p11ac32b487">
   <rect height="380.52" width="558" x="90" y="60.48"/>
  </clipPath>
 </defs>
</svg>
