<?xml version="1.0" encoding="utf-8" standalone="no"?>
<!DOCTYPE svg PUBLIC "-//W3C//DTD SVG 1.1//EN"
  "http://www.w3.org/Graphics/SVG/1.1/DTD/svg11.dtd">
<svg xmlns:xlink="http://www.w3.org/1999/xlink" width="906.862259pt" height="527.014pt" viewBox="0 0 906.862259 527.014" xmlns="http://www.w3.org/2000/svg" version="1.1">
 <metadata>
  <rdf:RDF xmlns:dc="http://purl.org/dc/elements/1.1/" xmlns:cc="http://creativecommons.org/ns#" xmlns:rdf="http://www.w3.org/1999/02/22-rdf-syntax-ns#">
   <cc:Work>
    <dc:type rdf:resource="http://purl.org/dc/dcmitype/StillImage"/>
    <dc:date>2024-08-14T15:36:13.406815</dc:date>
    <dc:format>image/svg+xml</dc:format>
    <dc:creator>
     <cc:Agent>
      <dc:title>Matplotlib v3.7.1, https://matplotlib.org/</dc:title>
     </cc:Agent>
    </dc:creator>
   </cc:Work>
  </rdf:RDF>
 </metadata>
 <defs>
  <style type="text/css">*{stroke-linejoin: round; stroke-linecap: butt}</style>
 </defs>
 <g id="figure_1">
  <g id="patch_1">
   <path d="M 0 527.014 
L 906.862259 527.014 
L 906.862259 0 
L 0 0 
z
" style="fill: #ffffff"/>
  </g>
  <g id="axes_1">
   <g id="patch_2">
    <path d="M 65.63 471.309 
L 735.23 471.309 
L 735.23 27.789 
L 65.63 27.789 
z
" style="fill: #ffffff"/>
   </g>
   <g id="matplotlib.axis_1">
    <g id="xtick_1">
     <g id="line2d_1">
      <path d="M 96.066364 471.309 
L 96.066364 27.789 
" clip-path="url(#pdd3286458e)" style="fill: none; stroke: #b0b0b0; stroke-width: 0.8; stroke-linecap: square"/>
     </g>
     <g id="line2d_2">
      <defs>
       <path id="m2c1a512f58" d="M 0 0 
L 0 10 
" style="stroke: #000000; stroke-width: 2.5"/>
      </defs>
      <g>
       <use xlink:href="#m2c1a512f58" x="96.066364" y="471.309" style="stroke: #000000; stroke-width: 2.5"/>
      </g>
     </g>
     <g id="text_1">
      <!-- −6 -->
      <g transform="translate(84.272614 496.9665) scale(0.16 -0.16)">
       <defs>
        <path id="DejaVuSans-2212" d="M 678 2272 
L 4684 2272 
L 4684 1741 
L 678 1741 
L 678 2272 
z
" transform="scale(0.015625)"/>
        <path id="DejaVuSans-36" d="M 2113 2584 
Q 1688 2584 1439 2293 
Q 1191 2003 1191 1497 
Q 1191 994 1439 701 
Q 1688 409 2113 409 
Q 2538 409 2786 701 
Q 3034 994 3034 1497 
Q 3034 2003 2786 2293 
Q 2538 2584 2113 2584 
z
M 3366 4563 
L 3366 3988 
Q 3128 4100 2886 4159 
Q 2644 4219 2406 4219 
Q 1781 4219 1451 3797 
Q 1122 3375 1075 2522 
Q 1259 2794 1537 2939 
Q 1816 3084 2150 3084 
Q 2853 3084 3261 2657 
Q 3669 2231 3669 1497 
Q 3669 778 3244 343 
Q 2819 -91 2113 -91 
Q 1303 -91 875 529 
Q 447 1150 447 2328 
Q 447 3434 972 4092 
Q 1497 4750 2381 4750 
Q 2619 4750 2861 4703 
Q 3103 4656 3366 4563 
z
" transform="scale(0.015625)"/>
       </defs>
       <use xlink:href="#DejaVuSans-2212"/>
       <use xlink:href="#DejaVuSans-36" x="83.789062"/>
      </g>
     </g>
    </g>
    <g id="xtick_2">
     <g id="line2d_3">
      <path d="M 197.520909 471.309 
L 197.520909 27.789 
" clip-path="url(#pdd3286458e)" style="fill: none; stroke: #b0b0b0; stroke-width: 0.8; stroke-linecap: square"/>
     </g>
     <g id="line2d_4">
      <g>
       <use xlink:href="#m2c1a512f58" x="197.520909" y="471.309" style="stroke: #000000; stroke-width: 2.5"/>
      </g>
     </g>
     <g id="text_2">
      <!-- −4 -->
      <g transform="translate(185.727159 496.9665) scale(0.16 -0.16)">
       <defs>
        <path id="DejaVuSans-34" d="M 2419 4116 
L 825 1625 
L 2419 1625 
L 2419 4116 
z
M 2253 4666 
L 3047 4666 
L 3047 1625 
L 3713 1625 
L 3713 1100 
L 3047 1100 
L 3047 0 
L 2419 0 
L 2419 1100 
L 313 1100 
L 313 1709 
L 2253 4666 
z
" transform="scale(0.015625)"/>
       </defs>
       <use xlink:href="#DejaVuSans-2212"/>
       <use xlink:href="#DejaVuSans-34" x="83.789062"/>
      </g>
     </g>
    </g>
    <g id="xtick_3">
     <g id="line2d_5">
      <path d="M 298.975455 471.309 
L 298.975455 27.789 
" clip-path="url(#pdd3286458e)" style="fill: none; stroke: #b0b0b0; stroke-width: 0.8; stroke-linecap: square"/>
     </g>
     <g id="line2d_6">
      <g>
       <use xlink:href="#m2c1a512f58" x="298.975455" y="471.309" style="stroke: #000000; stroke-width: 2.5"/>
      </g>
     </g>
     <g id="text_3">
      <!-- −2 -->
      <g transform="translate(287.181705 496.9665) scale(0.16 -0.16)">
       <defs>
        <path id="DejaVuSans-32" d="M 1228 531 
L 3431 531 
L 3431 0 
L 469 0 
L 469 531 
Q 828 903 1448 1529 
Q 2069 2156 2228 2338 
Q 2531 2678 2651 2914 
Q 2772 3150 2772 3378 
Q 2772 3750 2511 3984 
Q 2250 4219 1831 4219 
Q 1534 4219 1204 4116 
Q 875 4013 500 3803 
L 500 4441 
Q 881 4594 1212 4672 
Q 1544 4750 1819 4750 
Q 2544 4750 2975 4387 
Q 3406 4025 3406 3419 
Q 3406 3131 3298 2873 
Q 3191 2616 2906 2266 
Q 2828 2175 2409 1742 
Q 1991 1309 1228 531 
z
" transform="scale(0.015625)"/>
       </defs>
       <use xlink:href="#DejaVuSans-2212"/>
       <use xlink:href="#DejaVuSans-32" x="83.789062"/>
      </g>
     </g>
    </g>
    <g id="xtick_4">
     <g id="line2d_7">
      <path d="M 400.43 471.309 
L 400.43 27.789 
" clip-path="url(#pdd3286458e)" style="fill: none; stroke: #b0b0b0; stroke-width: 0.8; stroke-linecap: square"/>
     </g>
     <g id="line2d_8">
      <g>
       <use xlink:href="#m2c1a512f58" x="400.43" y="471.309" style="stroke: #000000; stroke-width: 2.5"/>
      </g>
     </g>
     <g id="text_4">
      <!-- 0 -->
      <g transform="translate(395.34 496.9665) scale(0.16 -0.16)">
       <defs>
        <path id="DejaVuSans-30" d="M 2034 4250 
Q 1547 4250 1301 3770 
Q 1056 3291 1056 2328 
Q 1056 1369 1301 889 
Q 1547 409 2034 409 
Q 2525 409 2770 889 
Q 3016 1369 3016 2328 
Q 3016 3291 2770 3770 
Q 2525 4250 2034 4250 
z
M 2034 4750 
Q 2819 4750 3233 4129 
Q 3647 3509 3647 2328 
Q 3647 1150 3233 529 
Q 2819 -91 2034 -91 
Q 1250 -91 836 529 
Q 422 1150 422 2328 
Q 422 3509 836 4129 
Q 1250 4750 2034 4750 
z
" transform="scale(0.015625)"/>
       </defs>
       <use xlink:href="#DejaVuSans-30"/>
      </g>
     </g>
    </g>
    <g id="xtick_5">
     <g id="line2d_9">
      <path d="M 501.884545 471.309 
L 501.884545 27.789 
" clip-path="url(#pdd3286458e)" style="fill: none; stroke: #b0b0b0; stroke-width: 0.8; stroke-linecap: square"/>
     </g>
     <g id="line2d_10">
      <g>
       <use xlink:href="#m2c1a512f58" x="501.884545" y="471.309" style="stroke: #000000; stroke-width: 2.5"/>
      </g>
     </g>
     <g id="text_5">
      <!-- 2 -->
      <g transform="translate(496.794545 496.9665) scale(0.16 -0.16)">
       <use xlink:href="#DejaVuSans-32"/>
      </g>
     </g>
    </g>
    <g id="xtick_6">
     <g id="line2d_11">
      <path d="M 603.339091 471.309 
L 603.339091 27.789 
" clip-path="url(#pdd3286458e)" style="fill: none; stroke: #b0b0b0; stroke-width: 0.8; stroke-linecap: square"/>
     </g>
     <g id="line2d_12">
      <g>
       <use xlink:href="#m2c1a512f58" x="603.339091" y="471.309" style="stroke: #000000; stroke-width: 2.5"/>
      </g>
     </g>
     <g id="text_6">
      <!-- 4 -->
      <g transform="translate(598.249091 496.9665) scale(0.16 -0.16)">
       <use xlink:href="#DejaVuSans-34"/>
      </g>
     </g>
    </g>
    <g id="xtick_7">
     <g id="line2d_13">
      <path d="M 704.793636 471.309 
L 704.793636 27.789 
" clip-path="url(#pdd3286458e)" style="fill: none; stroke: #b0b0b0; stroke-width: 0.8; stroke-linecap: square"/>
     </g>
     <g id="line2d_14">
      <g>
       <use xlink:href="#m2c1a512f58" x="704.793636" y="471.309" style="stroke: #000000; stroke-width: 2.5"/>
      </g>
     </g>
     <g id="text_7">
      <!-- 6 -->
      <g transform="translate(699.703636 496.9665) scale(0.16 -0.16)">
       <use xlink:href="#DejaVuSans-36"/>
      </g>
     </g>
    </g>
    <g id="text_8">
     <!-- Detuning [$\Delta/\Omega$] -->
     <g transform="translate(340.59 516.454) scale(0.16 -0.16)">
      <defs>
       <path id="DejaVuSans-44" d="M 1259 4147 
L 1259 519 
L 2022 519 
Q 2988 519 3436 956 
Q 3884 1394 3884 2338 
Q 3884 3275 3436 3711 
Q 2988 4147 2022 4147 
L 1259 4147 
z
M 628 4666 
L 1925 4666 
Q 3281 4666 3915 4102 
Q 4550 3538 4550 2338 
Q 4550 1131 3912 565 
Q 3275 0 1925 0 
L 628 0 
L 628 4666 
z
" transform="scale(0.015625)"/>
       <path id="DejaVuSans-65" d="M 3597 1894 
L 3597 1613 
L 953 1613 
Q 991 1019 1311 708 
Q 1631 397 2203 397 
Q 2534 397 2845 478 
Q 3156 559 3463 722 
L 3463 178 
Q 3153 47 2828 -22 
Q 2503 -91 2169 -91 
Q 1331 -91 842 396 
Q 353 884 353 1716 
Q 353 2575 817 3079 
Q 1281 3584 2069 3584 
Q 2775 3584 3186 3129 
Q 3597 2675 3597 1894 
z
M 3022 2063 
Q 3016 2534 2758 2815 
Q 2500 3097 2075 3097 
Q 1594 3097 1305 2825 
Q 1016 2553 972 2059 
L 3022 2063 
z
" transform="scale(0.015625)"/>
       <path id="DejaVuSans-74" d="M 1172 4494 
L 1172 3500 
L 2356 3500 
L 2356 3053 
L 1172 3053 
L 1172 1153 
Q 1172 725 1289 603 
Q 1406 481 1766 481 
L 2356 481 
L 2356 0 
L 1766 0 
Q 1100 0 847 248 
Q 594 497 594 1153 
L 594 3053 
L 172 3053 
L 172 3500 
L 594 3500 
L 594 4494 
L 1172 4494 
z
" transform="scale(0.015625)"/>
       <path id="DejaVuSans-75" d="M 544 1381 
L 544 3500 
L 1119 3500 
L 1119 1403 
Q 1119 906 1312 657 
Q 1506 409 1894 409 
Q 2359 409 2629 706 
Q 2900 1003 2900 1516 
L 2900 3500 
L 3475 3500 
L 3475 0 
L 2900 0 
L 2900 538 
Q 2691 219 2414 64 
Q 2138 -91 1772 -91 
Q 1169 -91 856 284 
Q 544 659 544 1381 
z
M 1991 3584 
L 1991 3584 
z
" transform="scale(0.015625)"/>
       <path id="DejaVuSans-6e" d="M 3513 2113 
L 3513 0 
L 2938 0 
L 2938 2094 
Q 2938 2591 2744 2837 
Q 2550 3084 2163 3084 
Q 1697 3084 1428 2787 
Q 1159 2491 1159 1978 
L 1159 0 
L 581 0 
L 581 3500 
L 1159 3500 
L 1159 2956 
Q 1366 3272 1645 3428 
Q 1925 3584 2291 3584 
Q 2894 3584 3203 3211 
Q 3513 2838 3513 2113 
z
" transform="scale(0.015625)"/>
       <path id="DejaVuSans-69" d="M 603 3500 
L 1178 3500 
L 1178 0 
L 603 0 
L 603 3500 
z
M 603 4863 
L 1178 4863 
L 1178 4134 
L 603 4134 
L 603 4863 
z
" transform="scale(0.015625)"/>
       <path id="DejaVuSans-67" d="M 2906 1791 
Q 2906 2416 2648 2759 
Q 2391 3103 1925 3103 
Q 1463 3103 1205 2759 
Q 947 2416 947 1791 
Q 947 1169 1205 825 
Q 1463 481 1925 481 
Q 2391 481 2648 825 
Q 2906 1169 2906 1791 
z
M 3481 434 
Q 3481 -459 3084 -895 
Q 2688 -1331 1869 -1331 
Q 1566 -1331 1297 -1286 
Q 1028 -1241 775 -1147 
L 775 -588 
Q 1028 -725 1275 -790 
Q 1522 -856 1778 -856 
Q 2344 -856 2625 -561 
Q 2906 -266 2906 331 
L 2906 616 
Q 2728 306 2450 153 
Q 2172 0 1784 0 
Q 1141 0 747 490 
Q 353 981 353 1791 
Q 353 2603 747 3093 
Q 1141 3584 1784 3584 
Q 2172 3584 2450 3431 
Q 2728 3278 2906 2969 
L 2906 3500 
L 3481 3500 
L 3481 434 
z
" transform="scale(0.015625)"/>
       <path id="DejaVuSans-20" transform="scale(0.015625)"/>
       <path id="DejaVuSans-5b" d="M 550 4863 
L 1875 4863 
L 1875 4416 
L 1125 4416 
L 1125 -397 
L 1875 -397 
L 1875 -844 
L 550 -844 
L 550 4863 
z
" transform="scale(0.015625)"/>
       <path id="DejaVuSans-394" d="M 2188 4044 
L 906 525 
L 3472 525 
L 2188 4044 
z
M 50 0 
L 1831 4666 
L 2547 4666 
L 4325 0 
L 50 0 
z
" transform="scale(0.015625)"/>
       <path id="DejaVuSans-2f" d="M 1625 4666 
L 2156 4666 
L 531 -594 
L 0 -594 
L 1625 4666 
z
" transform="scale(0.015625)"/>
       <path id="DejaVuSans-3a9" d="M 4647 556 
L 4647 0 
L 2772 0 
L 2772 556 
Q 3325 859 3634 1378 
Q 3944 1897 3944 2528 
Q 3944 3278 3531 3731 
Q 3119 4184 2444 4184 
Q 1769 4184 1355 3729 
Q 941 3275 941 2528 
Q 941 1897 1250 1378 
Q 1563 859 2119 556 
L 2119 0 
L 244 0 
L 244 556 
L 1241 556 
Q 747 991 519 1456 
Q 294 1922 294 2497 
Q 294 3491 894 4106 
Q 1491 4722 2444 4722 
Q 3391 4722 3994 4106 
Q 4594 3494 4594 2528 
Q 4594 1922 4372 1459 
Q 4150 997 3647 556 
L 4647 556 
z
" transform="scale(0.015625)"/>
       <path id="DejaVuSans-5d" d="M 1947 4863 
L 1947 -844 
L 622 -844 
L 622 -397 
L 1369 -397 
L 1369 4416 
L 622 4416 
L 622 4863 
L 1947 4863 
z
" transform="scale(0.015625)"/>
      </defs>
      <use xlink:href="#DejaVuSans-44" transform="translate(0 0.015625)"/>
      <use xlink:href="#DejaVuSans-65" transform="translate(77.001953 0.015625)"/>
      <use xlink:href="#DejaVuSans-74" transform="translate(138.525391 0.015625)"/>
      <use xlink:href="#DejaVuSans-75" transform="translate(177.734375 0.015625)"/>
      <use xlink:href="#DejaVuSans-6e" transform="translate(241.113281 0.015625)"/>
      <use xlink:href="#DejaVuSans-69" transform="translate(304.492188 0.015625)"/>
      <use xlink:href="#DejaVuSans-6e" transform="translate(332.275391 0.015625)"/>
      <use xlink:href="#DejaVuSans-67" transform="translate(395.654297 0.015625)"/>
      <use xlink:href="#DejaVuSans-20" transform="translate(459.130859 0.015625)"/>
      <use xlink:href="#DejaVuSans-5b" transform="translate(490.917969 0.015625)"/>
      <use xlink:href="#DejaVuSans-394" transform="translate(529.931641 0.015625)"/>
      <use xlink:href="#DejaVuSans-2f" transform="translate(598.339844 0.015625)"/>
      <use xlink:href="#DejaVuSans-3a9" transform="translate(632.03125 0.015625)"/>
      <use xlink:href="#DejaVuSans-5d" transform="translate(708.447266 0.015625)"/>
     </g>
    </g>
   </g>
   <g id="matplotlib.axis_2">
    <g id="ytick_1">
     <g id="line2d_15">
      <path d="M 65.63 466.799113 
L 735.23 466.799113 
" clip-path="url(#pdd3286458e)" style="fill: none; stroke: #b0b0b0; stroke-width: 0.8; stroke-linecap: square"/>
     </g>
     <g id="line2d_16">
      <defs>
       <path id="m6f748166c8" d="M 0 0 
L -10 0 
" style="stroke: #000000; stroke-width: 2.5"/>
      </defs>
      <g>
       <use xlink:href="#m6f748166c8" x="65.63" y="466.799113" style="stroke: #000000; stroke-width: 2.5"/>
      </g>
     </g>
     <g id="text_9">
      <!-- 0.0 -->
      <g transform="translate(26.685 472.877863) scale(0.16 -0.16)">
       <defs>
        <path id="DejaVuSans-2e" d="M 684 794 
L 1344 794 
L 1344 0 
L 684 0 
L 684 794 
z
" transform="scale(0.015625)"/>
       </defs>
       <use xlink:href="#DejaVuSans-30"/>
       <use xlink:href="#DejaVuSans-2e" x="63.623047"/>
       <use xlink:href="#DejaVuSans-30" x="95.410156"/>
      </g>
     </g>
    </g>
    <g id="ytick_2">
     <g id="line2d_17">
      <path d="M 65.63 407.409556 
L 735.23 407.409556 
" clip-path="url(#pdd3286458e)" style="fill: none; stroke: #b0b0b0; stroke-width: 0.8; stroke-linecap: square"/>
     </g>
     <g id="line2d_18">
      <g>
       <use xlink:href="#m6f748166c8" x="65.63" y="407.409556" style="stroke: #000000; stroke-width: 2.5"/>
      </g>
     </g>
     <g id="text_10">
      <!-- 0.1 -->
      <g transform="translate(26.685 413.488306) scale(0.16 -0.16)">
       <defs>
        <path id="DejaVuSans-31" d="M 794 531 
L 1825 531 
L 1825 4091 
L 703 3866 
L 703 4441 
L 1819 4666 
L 2450 4666 
L 2450 531 
L 3481 531 
L 3481 0 
L 794 0 
L 794 531 
z
" transform="scale(0.015625)"/>
       </defs>
       <use xlink:href="#DejaVuSans-30"/>
       <use xlink:href="#DejaVuSans-2e" x="63.623047"/>
       <use xlink:href="#DejaVuSans-31" x="95.410156"/>
      </g>
     </g>
    </g>
    <g id="ytick_3">
     <g id="line2d_19">
      <path d="M 65.63 348.02 
L 735.23 348.02 
" clip-path="url(#pdd3286458e)" style="fill: none; stroke: #b0b0b0; stroke-width: 0.8; stroke-linecap: square"/>
     </g>
     <g id="line2d_20">
      <g>
       <use xlink:href="#m6f748166c8" x="65.63" y="348.02" style="stroke: #000000; stroke-width: 2.5"/>
      </g>
     </g>
     <g id="text_11">
      <!-- 0.2 -->
      <g transform="translate(26.685 354.09875) scale(0.16 -0.16)">
       <use xlink:href="#DejaVuSans-30"/>
       <use xlink:href="#DejaVuSans-2e" x="63.623047"/>
       <use xlink:href="#DejaVuSans-32" x="95.410156"/>
      </g>
     </g>
    </g>
    <g id="ytick_4">
     <g id="line2d_21">
      <path d="M 65.63 288.630443 
L 735.23 288.630443 
" clip-path="url(#pdd3286458e)" style="fill: none; stroke: #b0b0b0; stroke-width: 0.8; stroke-linecap: square"/>
     </g>
     <g id="line2d_22">
      <g>
       <use xlink:href="#m6f748166c8" x="65.63" y="288.630443" style="stroke: #000000; stroke-width: 2.5"/>
      </g>
     </g>
     <g id="text_12">
      <!-- 0.3 -->
      <g transform="translate(26.685 294.709193) scale(0.16 -0.16)">
       <defs>
        <path id="DejaVuSans-33" d="M 2597 2516 
Q 3050 2419 3304 2112 
Q 3559 1806 3559 1356 
Q 3559 666 3084 287 
Q 2609 -91 1734 -91 
Q 1441 -91 1130 -33 
Q 819 25 488 141 
L 488 750 
Q 750 597 1062 519 
Q 1375 441 1716 441 
Q 2309 441 2620 675 
Q 2931 909 2931 1356 
Q 2931 1769 2642 2001 
Q 2353 2234 1838 2234 
L 1294 2234 
L 1294 2753 
L 1863 2753 
Q 2328 2753 2575 2939 
Q 2822 3125 2822 3475 
Q 2822 3834 2567 4026 
Q 2313 4219 1838 4219 
Q 1578 4219 1281 4162 
Q 984 4106 628 3988 
L 628 4550 
Q 988 4650 1302 4700 
Q 1616 4750 1894 4750 
Q 2613 4750 3031 4423 
Q 3450 4097 3450 3541 
Q 3450 3153 3228 2886 
Q 3006 2619 2597 2516 
z
" transform="scale(0.015625)"/>
       </defs>
       <use xlink:href="#DejaVuSans-30"/>
       <use xlink:href="#DejaVuSans-2e" x="63.623047"/>
       <use xlink:href="#DejaVuSans-33" x="95.410156"/>
      </g>
     </g>
    </g>
    <g id="ytick_5">
     <g id="line2d_23">
      <path d="M 65.63 229.240886 
L 735.23 229.240886 
" clip-path="url(#pdd3286458e)" style="fill: none; stroke: #b0b0b0; stroke-width: 0.8; stroke-linecap: square"/>
     </g>
     <g id="line2d_24">
      <g>
       <use xlink:href="#m6f748166c8" x="65.63" y="229.240886" style="stroke: #000000; stroke-width: 2.5"/>
      </g>
     </g>
     <g id="text_13">
      <!-- 0.4 -->
      <g transform="translate(26.685 235.319636) scale(0.16 -0.16)">
       <use xlink:href="#DejaVuSans-30"/>
       <use xlink:href="#DejaVuSans-2e" x="63.623047"/>
       <use xlink:href="#DejaVuSans-34" x="95.410156"/>
      </g>
     </g>
    </g>
    <g id="ytick_6">
     <g id="line2d_25">
      <path d="M 65.63 169.85133 
L 735.23 169.85133 
" clip-path="url(#pdd3286458e)" style="fill: none; stroke: #b0b0b0; stroke-width: 0.8; stroke-linecap: square"/>
     </g>
     <g id="line2d_26">
      <g>
       <use xlink:href="#m6f748166c8" x="65.63" y="169.85133" style="stroke: #000000; stroke-width: 2.5"/>
      </g>
     </g>
     <g id="text_14">
      <!-- 0.5 -->
      <g transform="translate(26.685 175.93008) scale(0.16 -0.16)">
       <defs>
        <path id="DejaVuSans-35" d="M 691 4666 
L 3169 4666 
L 3169 4134 
L 1269 4134 
L 1269 2991 
Q 1406 3038 1543 3061 
Q 1681 3084 1819 3084 
Q 2600 3084 3056 2656 
Q 3513 2228 3513 1497 
Q 3513 744 3044 326 
Q 2575 -91 1722 -91 
Q 1428 -91 1123 -41 
Q 819 9 494 109 
L 494 744 
Q 775 591 1075 516 
Q 1375 441 1709 441 
Q 2250 441 2565 725 
Q 2881 1009 2881 1497 
Q 2881 1984 2565 2268 
Q 2250 2553 1709 2553 
Q 1456 2553 1204 2497 
Q 953 2441 691 2322 
L 691 4666 
z
" transform="scale(0.015625)"/>
       </defs>
       <use xlink:href="#DejaVuSans-30"/>
       <use xlink:href="#DejaVuSans-2e" x="63.623047"/>
       <use xlink:href="#DejaVuSans-35" x="95.410156"/>
      </g>
     </g>
    </g>
    <g id="ytick_7">
     <g id="line2d_27">
      <path d="M 65.63 110.461773 
L 735.23 110.461773 
" clip-path="url(#pdd3286458e)" style="fill: none; stroke: #b0b0b0; stroke-width: 0.8; stroke-linecap: square"/>
     </g>
     <g id="line2d_28">
      <g>
       <use xlink:href="#m6f748166c8" x="65.63" y="110.461773" style="stroke: #000000; stroke-width: 2.5"/>
      </g>
     </g>
     <g id="text_15">
      <!-- 0.6 -->
      <g transform="translate(26.685 116.540523) scale(0.16 -0.16)">
       <use xlink:href="#DejaVuSans-30"/>
       <use xlink:href="#DejaVuSans-2e" x="63.623047"/>
       <use xlink:href="#DejaVuSans-36" x="95.410156"/>
      </g>
     </g>
    </g>
    <g id="ytick_8">
     <g id="line2d_29">
      <path d="M 65.63 51.072217 
L 735.23 51.072217 
" clip-path="url(#pdd3286458e)" style="fill: none; stroke: #b0b0b0; stroke-width: 0.8; stroke-linecap: square"/>
     </g>
     <g id="line2d_30">
      <g>
       <use xlink:href="#m6f748166c8" x="65.63" y="51.072217" style="stroke: #000000; stroke-width: 2.5"/>
      </g>
     </g>
     <g id="text_16">
      <!-- 0.7 -->
      <g transform="translate(26.685 57.150967) scale(0.16 -0.16)">
       <defs>
        <path id="DejaVuSans-37" d="M 525 4666 
L 3525 4666 
L 3525 4397 
L 1831 0 
L 1172 0 
L 2766 4134 
L 525 4134 
L 525 4666 
z
" transform="scale(0.015625)"/>
       </defs>
       <use xlink:href="#DejaVuSans-30"/>
       <use xlink:href="#DejaVuSans-2e" x="63.623047"/>
       <use xlink:href="#DejaVuSans-37" x="95.410156"/>
      </g>
     </g>
    </g>
    <g id="text_17">
     <!-- Excited state population -->
     <g transform="translate(19.3575 346.879) rotate(-90) scale(0.16 -0.16)">
      <defs>
       <path id="DejaVuSans-45" d="M 628 4666 
L 3578 4666 
L 3578 4134 
L 1259 4134 
L 1259 2753 
L 3481 2753 
L 3481 2222 
L 1259 2222 
L 1259 531 
L 3634 531 
L 3634 0 
L 628 0 
L 628 4666 
z
" transform="scale(0.015625)"/>
       <path id="DejaVuSans-78" d="M 3513 3500 
L 2247 1797 
L 3578 0 
L 2900 0 
L 1881 1375 
L 863 0 
L 184 0 
L 1544 1831 
L 300 3500 
L 978 3500 
L 1906 2253 
L 2834 3500 
L 3513 3500 
z
" transform="scale(0.015625)"/>
       <path id="DejaVuSans-63" d="M 3122 3366 
L 3122 2828 
Q 2878 2963 2633 3030 
Q 2388 3097 2138 3097 
Q 1578 3097 1268 2742 
Q 959 2388 959 1747 
Q 959 1106 1268 751 
Q 1578 397 2138 397 
Q 2388 397 2633 464 
Q 2878 531 3122 666 
L 3122 134 
Q 2881 22 2623 -34 
Q 2366 -91 2075 -91 
Q 1284 -91 818 406 
Q 353 903 353 1747 
Q 353 2603 823 3093 
Q 1294 3584 2113 3584 
Q 2378 3584 2631 3529 
Q 2884 3475 3122 3366 
z
" transform="scale(0.015625)"/>
       <path id="DejaVuSans-64" d="M 2906 2969 
L 2906 4863 
L 3481 4863 
L 3481 0 
L 2906 0 
L 2906 525 
Q 2725 213 2448 61 
Q 2172 -91 1784 -91 
Q 1150 -91 751 415 
Q 353 922 353 1747 
Q 353 2572 751 3078 
Q 1150 3584 1784 3584 
Q 2172 3584 2448 3432 
Q 2725 3281 2906 2969 
z
M 947 1747 
Q 947 1113 1208 752 
Q 1469 391 1925 391 
Q 2381 391 2643 752 
Q 2906 1113 2906 1747 
Q 2906 2381 2643 2742 
Q 2381 3103 1925 3103 
Q 1469 3103 1208 2742 
Q 947 2381 947 1747 
z
" transform="scale(0.015625)"/>
       <path id="DejaVuSans-73" d="M 2834 3397 
L 2834 2853 
Q 2591 2978 2328 3040 
Q 2066 3103 1784 3103 
Q 1356 3103 1142 2972 
Q 928 2841 928 2578 
Q 928 2378 1081 2264 
Q 1234 2150 1697 2047 
L 1894 2003 
Q 2506 1872 2764 1633 
Q 3022 1394 3022 966 
Q 3022 478 2636 193 
Q 2250 -91 1575 -91 
Q 1294 -91 989 -36 
Q 684 19 347 128 
L 347 722 
Q 666 556 975 473 
Q 1284 391 1588 391 
Q 1994 391 2212 530 
Q 2431 669 2431 922 
Q 2431 1156 2273 1281 
Q 2116 1406 1581 1522 
L 1381 1569 
Q 847 1681 609 1914 
Q 372 2147 372 2553 
Q 372 3047 722 3315 
Q 1072 3584 1716 3584 
Q 2034 3584 2315 3537 
Q 2597 3491 2834 3397 
z
" transform="scale(0.015625)"/>
       <path id="DejaVuSans-61" d="M 2194 1759 
Q 1497 1759 1228 1600 
Q 959 1441 959 1056 
Q 959 750 1161 570 
Q 1363 391 1709 391 
Q 2188 391 2477 730 
Q 2766 1069 2766 1631 
L 2766 1759 
L 2194 1759 
z
M 3341 1997 
L 3341 0 
L 2766 0 
L 2766 531 
Q 2569 213 2275 61 
Q 1981 -91 1556 -91 
Q 1019 -91 701 211 
Q 384 513 384 1019 
Q 384 1609 779 1909 
Q 1175 2209 1959 2209 
L 2766 2209 
L 2766 2266 
Q 2766 2663 2505 2880 
Q 2244 3097 1772 3097 
Q 1472 3097 1187 3025 
Q 903 2953 641 2809 
L 641 3341 
Q 956 3463 1253 3523 
Q 1550 3584 1831 3584 
Q 2591 3584 2966 3190 
Q 3341 2797 3341 1997 
z
" transform="scale(0.015625)"/>
       <path id="DejaVuSans-70" d="M 1159 525 
L 1159 -1331 
L 581 -1331 
L 581 3500 
L 1159 3500 
L 1159 2969 
Q 1341 3281 1617 3432 
Q 1894 3584 2278 3584 
Q 2916 3584 3314 3078 
Q 3713 2572 3713 1747 
Q 3713 922 3314 415 
Q 2916 -91 2278 -91 
Q 1894 -91 1617 61 
Q 1341 213 1159 525 
z
M 3116 1747 
Q 3116 2381 2855 2742 
Q 2594 3103 2138 3103 
Q 1681 3103 1420 2742 
Q 1159 2381 1159 1747 
Q 1159 1113 1420 752 
Q 1681 391 2138 391 
Q 2594 391 2855 752 
Q 3116 1113 3116 1747 
z
" transform="scale(0.015625)"/>
       <path id="DejaVuSans-6f" d="M 1959 3097 
Q 1497 3097 1228 2736 
Q 959 2375 959 1747 
Q 959 1119 1226 758 
Q 1494 397 1959 397 
Q 2419 397 2687 759 
Q 2956 1122 2956 1747 
Q 2956 2369 2687 2733 
Q 2419 3097 1959 3097 
z
M 1959 3584 
Q 2709 3584 3137 3096 
Q 3566 2609 3566 1747 
Q 3566 888 3137 398 
Q 2709 -91 1959 -91 
Q 1206 -91 779 398 
Q 353 888 353 1747 
Q 353 2609 779 3096 
Q 1206 3584 1959 3584 
z
" transform="scale(0.015625)"/>
       <path id="DejaVuSans-6c" d="M 603 4863 
L 1178 4863 
L 1178 0 
L 603 0 
L 603 4863 
z
" transform="scale(0.015625)"/>
      </defs>
      <use xlink:href="#DejaVuSans-45"/>
      <use xlink:href="#DejaVuSans-78" x="63.183594"/>
      <use xlink:href="#DejaVuSans-63" x="120.613281"/>
      <use xlink:href="#DejaVuSans-69" x="175.59375"/>
      <use xlink:href="#DejaVuSans-74" x="203.376953"/>
      <use xlink:href="#DejaVuSans-65" x="242.585938"/>
      <use xlink:href="#DejaVuSans-64" x="304.109375"/>
      <use xlink:href="#DejaVuSans-20" x="367.585938"/>
      <use xlink:href="#DejaVuSans-73" x="399.373047"/>
      <use xlink:href="#DejaVuSans-74" x="451.472656"/>
      <use xlink:href="#DejaVuSans-61" x="490.681641"/>
      <use xlink:href="#DejaVuSans-74" x="551.960938"/>
      <use xlink:href="#DejaVuSans-65" x="591.169922"/>
      <use xlink:href="#DejaVuSans-20" x="652.693359"/>
      <use xlink:href="#DejaVuSans-70" x="684.480469"/>
      <use xlink:href="#DejaVuSans-6f" x="747.957031"/>
      <use xlink:href="#DejaVuSans-70" x="809.138672"/>
      <use xlink:href="#DejaVuSans-75" x="872.615234"/>
      <use xlink:href="#DejaVuSans-6c" x="935.994141"/>
      <use xlink:href="#DejaVuSans-61" x="963.777344"/>
      <use xlink:href="#DejaVuSans-74" x="1025.056641"/>
      <use xlink:href="#DejaVuSans-69" x="1064.265625"/>
      <use xlink:href="#DejaVuSans-6f" x="1092.048828"/>
      <use xlink:href="#DejaVuSans-6e" x="1153.230469"/>
     </g>
    </g>
   </g>
   <g id="line2d_31">
    <path d="M 96.066364 451.149 
L 110.007612 449.747496 
L 110.6164 449.631501 
L 111.590462 449.404495 
L 112.625401 449.360513 
L 114.817039 449.056581 
L 115.7911 449.0109 
L 116.521646 448.935249 
L 117.739222 448.770894 
L 118.652404 448.644722 
L 119.443829 448.496578 
L 120.357011 448.446838 
L 121.574587 448.266053 
L 122.244254 448.124488 
L 122.853042 448.004063 
L 123.827103 448.013743 
L 124.679407 447.834628 
L 125.653468 447.743181 
L 126.384014 447.6044 
L 127.236317 447.589679 
L 128.149499 447.413373 
L 129.306197 447.215154 
L 134.115623 446.56675 
L 136.429018 446.220973 
L 140.44702 445.688046 
L 141.542839 445.505878 
L 142.212506 445.409408 
L 143.369203 445.144131 
L 146.534901 444.711395 
L 148.970054 444.246138 
L 150.18763 444.093395 
L 151.22257 443.899297 
L 151.831358 443.825426 
L 152.622783 443.791032 
L 154.022996 443.388173 
L 155.118814 443.25589 
L 156.275512 442.969107 
L 157.37133 442.855344 
L 158.467149 442.607104 
L 159.44121 442.549073 
L 160.719665 442.152289 
L 162.180757 441.951603 
L 163.215697 441.730197 
L 164.433273 441.542407 
L 168.816548 440.641489 
L 169.912366 440.452011 
L 172.043125 439.923962 
L 172.895428 439.680947 
L 173.686853 439.571983 
L 174.539156 439.433237 
L 176.852551 438.796174 
L 177.826612 438.520373 
L 179.348583 438.302157 
L 179.896492 438.24632 
L 181.296705 437.802285 
L 182.209887 437.684612 
L 183.670979 437.187038 
L 184.340646 437.157496 
L 184.949434 436.830056 
L 185.67998 436.504049 
L 186.593162 436.426655 
L 187.262829 436.218955 
L 187.993375 436.028547 
L 189.454466 435.806034 
L 191.646103 435.004326 
L 195.90762 433.811294 
L 196.759924 433.485779 
L 200.230016 432.511837 
L 201.143199 432.039783 
L 202.60429 431.73753 
L 203.456594 431.496197 
L 204.126261 431.272046 
L 205.222079 430.743793 
L 206.074383 430.409945 
L 206.804928 430.175673 
L 207.778989 429.955592 
L 208.692172 429.546872 
L 209.483596 429.346473 
L 210.762051 428.825238 
L 211.492597 428.502911 
L 212.162264 428.237767 
L 212.831931 428.057226 
L 213.805992 427.583087 
L 214.780053 427.261824 
L 215.632357 426.82347 
L 216.423781 426.646176 
L 217.702236 426.072287 
L 218.250146 425.836194 
L 219.285086 425.241042 
L 220.441783 424.664048 
L 221.172329 424.38481 
L 221.841996 424.159282 
L 222.572542 423.838175 
L 223.729239 423.502156 
L 224.459785 422.994156 
L 226.955816 421.619887 
L 227.381968 421.516457 
L 228.356029 420.977614 
L 228.964817 420.956748 
L 229.33009 420.639721 
L 229.999757 419.948875 
L 231.095576 419.413747 
L 231.643485 419.008109 
L 232.130516 418.987564 
L 232.556667 418.91077 
L 233.104577 418.507261 
L 233.896001 417.960131 
L 234.565668 417.496285 
L 235.357093 416.85084 
L 235.783244 416.857617 
L 236.209396 416.826662 
L 236.574669 416.51633 
L 237.183457 415.961869 
L 237.974882 415.608992 
L 239.009822 414.519246 
L 239.740367 414.379898 
L 240.957944 413.49852 
L 241.566732 413.158983 
L 242.845187 412.210712 
L 243.758369 411.546399 
L 244.549794 411.140956 
L 245.158582 410.817474 
L 246.071764 409.959537 
L 247.715492 408.187425 
L 248.202523 408.009871 
L 248.811311 407.781712 
L 250.333281 406.70293 
L 252.585797 404.393211 
L 253.803374 403.49493 
L 254.290404 403.240717 
L 254.838314 402.618651 
L 255.995011 401.364881 
L 257.456103 400.097185 
L 258.308406 399.330742 
L 263.056954 393.930938 
L 263.483105 393.688327 
L 263.970136 393.462183 
L 264.396288 392.949765 
L 266.83144 389.67351 
L 267.318471 389.048299 
L 268.109895 387.956589 
L 270.058017 385.91354 
L 272.9802 381.498005 
L 273.771625 380.855007 
L 274.623928 379.629608 
L 275.110959 378.532899 
L 275.719747 377.207031 
L 276.206778 376.767888 
L 276.693808 376.216866 
L 277.789627 374.607728 
L 278.459294 373.309228 
L 279.311597 372.245143 
L 280.042143 371.064678 
L 280.529174 370.216958 
L 281.320598 368.640047 
L 282.051144 367.484973 
L 282.720811 366.402906 
L 283.329599 365.468827 
L 285.460358 361.582515 
L 286.008267 360.759632 
L 286.86057 358.918694 
L 287.773753 356.767545 
L 288.199904 356.41951 
L 288.626056 356.049567 
L 289.052208 355.300979 
L 289.539238 353.944155 
L 290.45242 351.251329 
L 290.878572 350.830186 
L 291.426481 350.270936 
L 292.03527 349.255757 
L 292.644058 347.792282 
L 294.348665 343.452648 
L 295.018332 342.366936 
L 296.235908 340.218924 
L 298.062272 335.690109 
L 300.010394 331.454253 
L 300.558304 330.336273 
L 302.567305 325.134809 
L 303.541366 323.015818 
L 304.33279 321.554628 
L 304.819821 320.139356 
L 305.854761 316.798261 
L 307.498489 313.21226 
L 308.289913 311.192018 
L 309.020459 309.493318 
L 310.298914 305.75158 
L 311.51649 303.38499 
L 313.951643 296.339715 
L 316.082402 291.461587 
L 317.787008 286.556104 
L 318.456675 285.096481 
L 324.118405 270.374152 
L 325.031587 268.593377 
L 325.518618 267.385334 
L 326.066527 265.234979 
L 326.736194 262.826311 
L 327.040588 262.465754 
L 327.771134 262.158792 
L 328.075528 261.325324 
L 329.110468 257.66926 
L 329.780135 256.748147 
L 330.145408 255.493675 
L 330.815075 253.062746 
L 331.05859 252.929493 
L 331.362984 253.19543 
L 331.606499 253.329299 
L 331.789136 253.183218 
L 332.032651 252.555788 
L 332.458803 250.565725 
L 332.945833 248.599519 
L 333.250227 248.202623 
L 333.859016 247.936536 
L 334.16341 247.251356 
L 335.563622 243.368799 
L 336.111532 242.213586 
L 336.415926 242.057602 
L 336.842078 241.977464 
L 337.085593 241.506764 
L 337.450866 240.090634 
L 337.937896 238.372 
L 338.181412 238.104324 
L 338.485806 238.167227 
L 338.7902 238.177597 
L 339.033715 237.893958 
L 339.398988 237.010645 
L 340.555685 233.949336 
L 340.920958 233.669191 
L 341.468868 233.407212 
L 341.83414 232.840932 
L 343.356111 229.952289 
L 343.90402 229.450691 
L 344.695445 228.834453 
L 345.060718 228.131914 
L 345.791263 226.617548 
L 346.034779 226.546489 
L 346.582688 226.589961 
L 346.826203 226.269031 
L 348.104658 223.934815 
L 348.591689 223.70668 
L 348.956962 223.758019 
L 349.443992 223.874093 
L 349.687508 223.723864 
L 350.113659 223.095649 
L 350.661569 222.395631 
L 351.574751 221.678516 
L 352.366175 220.694332 
L 352.67057 220.679825 
L 354.009903 220.921206 
L 354.375176 220.77561 
L 355.166601 220.341956 
L 355.775389 220.356089 
L 356.018904 220.02105 
L 356.627692 218.969569 
L 356.810329 219.044256 
L 357.053844 219.493795 
L 357.601754 220.554438 
L 357.845269 220.592729 
L 359.062845 220.07377 
L 359.488997 219.745262 
L 359.732512 219.870812 
L 360.523937 220.604931 
L 360.950088 220.362028 
L 361.254482 220.335501 
L 361.558877 220.631141 
L 362.228543 221.416109 
L 362.593816 221.457693 
L 363.567877 221.449233 
L 363.811393 221.752723 
L 364.663696 223.24506 
L 364.907211 222.911446 
L 365.333363 222.303412 
L 365.516 222.384053 
L 365.820394 222.916761 
L 367.098849 225.419274 
L 367.281485 225.485118 
L 367.464122 225.28169 
L 368.07291 224.307613 
L 368.255546 224.477105 
L 368.620819 225.37715 
L 369.10785 226.419155 
L 369.777517 227.528675 
L 370.325426 228.676405 
L 370.508062 228.735175 
L 370.751578 228.538093 
L 371.177729 228.181605 
L 371.421245 228.29574 
L 371.786517 228.802994 
L 373.125851 230.916028 
L 373.430245 231.381622 
L 374.22167 232.858917 
L 374.465185 232.788526 
L 374.891337 232.565317 
L 375.073973 232.727769 
L 375.378368 233.454172 
L 376.048035 235.263798 
L 376.474186 235.705752 
L 377.265611 236.396435 
L 378.726702 238.005372 
L 379.396369 239.001075 
L 379.822521 239.635716 
L 380.248673 240.759503 
L 380.796582 242.094509 
L 381.040097 242.181025 
L 381.344491 241.92027 
L 381.709764 241.684339 
L 381.892401 241.796619 
L 382.135916 242.238817 
L 383.231735 244.799096 
L 383.597008 244.875805 
L 384.449311 244.909362 
L 384.692826 245.352362 
L 386.093039 248.804485 
L 386.397433 248.93633 
L 386.762706 248.769271 
L 387.188858 248.640206 
L 387.493252 248.837861 
L 388.041161 249.630781 
L 389.015222 250.992993 
L 389.684889 251.500966 
L 390.17192 252.476108 
L 391.024223 254.142112 
L 391.20686 254.125014 
L 391.450375 253.736748 
L 391.998284 252.731134 
L 392.302678 252.669217 
L 392.667951 252.882643 
L 392.972345 253.408744 
L 393.398497 254.780158 
L 394.007285 256.539427 
L 394.311679 256.908357 
L 394.494316 256.892733 
L 394.737831 256.564509 
L 395.651013 254.875667 
L 396.016286 254.555877 
L 396.198922 254.019927 
L 396.442438 252.265473 
L 396.685953 248.566453 
L 397.051226 238.691875 
L 397.477377 227.409847 
L 397.538256 227.030367 
L 397.599135 227.237574 
L 397.720893 229.80142 
L 397.903529 240.280151 
L 398.147044 268.404303 
L 398.999348 391.930043 
L 399.060227 391.299233 
L 399.181984 382.636498 
L 399.364621 350.541253 
L 399.729894 230.587306 
L 400.277803 58.600395 
L 400.460439 47.949 
L 400.582197 58.600395 
L 400.825712 117.34181 
L 401.678016 382.636498 
L 401.860652 391.930043 
L 401.98241 386.484067 
L 402.225925 354.911934 
L 402.956471 240.280151 
L 403.199986 228.129923 
L 403.321744 227.030367 
L 403.443501 228.276634 
L 403.747895 236.719631 
L 404.234926 249.711841 
L 404.53932 253.33504 
L 404.843714 254.555877 
L 405.148108 254.840767 
L 405.452502 255.099405 
L 405.756896 255.68728 
L 406.304806 256.842482 
L 406.548321 256.908357 
L 406.791836 256.64677 
L 407.157109 255.796098 
L 408.192049 252.882643 
L 408.557322 252.669217 
L 408.861716 252.731134 
L 409.105231 253.058045 
L 409.774898 254.165339 
L 409.957535 254.017607 
L 410.322807 253.28645 
L 411.296869 251.338762 
L 411.662141 251.093386 
L 412.027414 250.826072 
L 412.575324 250.014822 
L 413.488506 248.7268 
L 413.7929 248.636821 
L 414.158173 248.807144 
L 414.523446 248.935717 
L 414.766961 248.804485 
L 415.132234 248.262774 
L 415.619264 247.082055 
L 416.410689 244.909362 
L 416.654204 244.787002 
L 417.689144 244.759826 
L 417.932659 244.458269 
L 418.297932 243.521118 
L 418.90672 241.876822 
L 419.150236 241.684339 
L 419.393751 241.796134 
L 419.94166 242.182936 
L 420.124297 242.014614 
L 420.428691 241.313499 
L 421.159237 239.413991 
L 422.742086 237.121031 
L 424.933723 235.039579 
L 425.359875 233.839617 
L 425.846905 232.648645 
L 426.090421 232.571747 
L 426.760088 232.780573 
L 427.003603 232.380535 
L 427.795027 230.853268 
L 428.342937 230.20418 
L 429.560513 228.207292 
L 429.804028 228.223956 
L 430.534574 228.676405 
L 430.778089 228.277196 
L 431.569514 226.660297 
L 431.995666 225.989912 
L 432.847969 224.314765 
L 433.030606 224.517218 
L 433.639394 225.493964 
L 433.82203 225.339924 
L 434.248182 224.416248 
L 435.222243 222.557407 
L 435.465758 222.302956 
L 435.648395 222.387048 
L 436.37894 223.216521 
L 436.622456 222.785337 
L 437.231244 221.499559 
L 437.535638 221.372294 
L 438.814093 221.289375 
L 439.240245 220.717973 
L 439.605518 220.335501 
L 439.849033 220.333669 
L 440.5187 220.582403 
L 440.823094 220.275967 
L 441.310124 219.75138 
L 441.55364 219.82503 
L 442.345064 220.404815 
L 442.892974 220.545499 
L 443.197368 220.588562 
L 443.440883 220.3303 
L 444.232308 218.969569 
L 444.414944 219.147225 
L 445.267247 220.432656 
L 446.119551 220.488333 
L 446.850097 220.921206 
L 447.458885 220.881592 
L 448.615582 220.764484 
L 448.980855 221.20488 
L 449.650522 222.083644 
L 450.624583 222.895856 
L 451.29425 223.823234 
L 451.598644 223.870452 
L 452.390069 223.736843 
L 452.877099 224.0296 
L 453.242372 224.462192 
L 453.668524 225.395413 
L 454.216433 226.537049 
L 454.459948 226.647209 
L 455.068737 226.617548 
L 455.312252 226.9563 
L 456.468949 229.145957 
L 457.564768 230.030688 
L 458.173556 231.035382 
L 459.573769 233.548992 
L 460.365194 234.038602 
L 460.730466 234.839376 
L 462.008922 238.134675 
L 462.252437 238.206134 
L 462.739467 238.133964 
L 462.922104 238.372 
L 463.226498 239.308059 
L 463.957044 241.901555 
L 464.200559 242.072266 
L 464.687589 242.151112 
L 464.931105 242.501343 
L 465.600772 244.125416 
L 466.392196 246.266934 
L 467.000984 247.936536 
L 467.305378 248.160579 
L 467.73153 248.290673 
L 467.975045 248.758651 
L 468.279439 249.956354 
L 469.009985 253.073445 
L 469.253501 253.329299 
L 469.436137 253.252138 
L 469.923167 252.937432 
L 470.105804 253.174025 
L 470.410198 254.164637 
L 471.140744 256.889911 
L 471.506017 257.412104 
L 471.87129 257.863352 
L 472.175684 258.717781 
L 473.210624 262.330918 
L 473.454139 262.454092 
L 473.941169 262.547582 
L 474.184685 262.965007 
L 474.549957 264.20061 
L 475.584897 268.065939 
L 476.49808 269.937751 
L 477.715656 272.443551 
L 479.846414 278.25906 
L 483.316507 287.010064 
L 483.803537 288.204124 
L 485.508144 293.267451 
L 487.395387 297.498049 
L 488.065054 299.49023 
L 489.34351 303.38499 
L 489.891419 304.699991 
L 490.987238 306.702023 
L 491.596026 308.680355 
L 492.204814 310.440319 
L 493.300633 313.031345 
L 494.213815 315.39999 
L 495.309633 317.546275 
L 495.918422 319.700731 
L 496.52721 321.554628 
L 497.135998 322.723721 
L 497.866544 324.09587 
L 499.997302 329.428956 
L 500.60609 331.023853 
L 502.249818 334.259958 
L 503.163001 336.494831 
L 504.319698 339.369522 
L 504.989365 341.004084 
L 506.876608 344.338695 
L 508.702973 349.001523 
L 509.37264 350.186624 
L 509.920549 350.783307 
L 510.40758 351.251329 
L 510.711974 351.900262 
L 512.294823 356.122656 
L 512.781853 356.494562 
L 513.147126 356.850508 
L 513.512399 357.598172 
L 514.790854 360.643218 
L 515.399642 361.582515 
L 515.947552 362.419594 
L 517.713037 365.798252 
L 520.513463 370.592578 
L 521.791918 372.664881 
L 522.278949 373.183855 
L 522.644221 373.669106 
L 523.922677 375.900869 
L 524.896738 376.955278 
L 525.26201 377.394522 
L 525.688162 378.37378 
L 526.357829 379.83641 
L 527.210133 380.995684 
L 527.758042 381.421114 
L 528.245072 381.846513 
L 528.975618 383.006383 
L 531.654286 386.824938 
L 532.689226 387.897434 
L 533.237135 388.559998 
L 534.150317 389.784717 
L 534.759106 390.464762 
L 536.341955 392.776785 
L 537.011622 393.549885 
L 538.10744 394.269709 
L 539.812047 396.221666 
L 543.221261 399.958076 
L 544.80411 401.305819 
L 546.082565 402.694361 
L 546.752232 403.368646 
L 547.969809 404.116466 
L 550.526719 406.70293 
L 551.135507 407.189018 
L 553.631538 408.679844 
L 555.214388 410.402861 
L 556.066691 411.047172 
L 557.345146 411.719645 
L 558.501844 412.450887 
L 558.988874 412.870882 
L 559.658541 413.395003 
L 560.75436 414.015986 
L 561.302269 414.484772 
L 561.728421 414.512883 
L 562.093694 414.615646 
L 562.458967 415.017102 
L 563.128633 415.813752 
L 564.224452 416.446129 
L 564.711483 416.850936 
L 565.076756 416.857617 
L 565.563786 416.871557 
L 565.929059 417.130116 
L 566.90312 417.928035 
L 567.694545 418.455143 
L 568.42509 418.956971 
L 568.912121 418.976699 
L 569.338273 419.05948 
L 569.764424 419.413747 
L 570.312334 419.829442 
L 571.164637 420.188665 
L 572.016941 421.000147 
L 572.503971 420.977614 
L 572.869244 421.035484 
L 573.356274 421.427035 
L 573.721547 421.611344 
L 574.573851 421.786069 
L 575.365275 422.465691 
L 575.913185 422.789997 
L 576.582852 423.122397 
L 577.374276 423.604999 
L 581.027005 424.988112 
L 584.740613 426.771044 
L 585.89731 427.140704 
L 586.506099 427.450156 
L 587.845432 427.940502 
L 588.393342 428.200182 
L 589.245645 428.432006 
L 590.158827 428.843064 
L 591.193767 429.253037 
L 591.924313 429.515587 
L 592.654859 429.706471 
L 593.62892 430.132546 
L 594.66386 430.354118 
L 597.464285 431.50615 
L 598.25571 431.73753 
L 599.108013 432.001111 
L 600.142953 432.192535 
L 601.360529 432.786247 
L 602.517227 433.08447 
L 603.247773 433.317689 
L 604.526228 433.611986 
L 606.778744 434.37734 
L 607.570169 434.524569 
L 609.153018 434.988732 
L 610.005321 435.307848 
L 610.674988 435.559025 
L 611.58817 435.874701 
L 612.318716 435.993109 
L 613.475414 436.171071 
L 614.449475 436.443787 
L 615.484415 436.602603 
L 617.067264 437.200273 
L 617.79781 437.233175 
L 618.589234 437.659783 
L 619.198022 437.78837 
L 620.415599 437.96078 
L 621.267902 438.308581 
L 622.668115 438.455546 
L 624.250964 438.838071 
L 625.894692 439.295193 
L 627.112268 439.56973 
L 628.02545 439.698479 
L 629.243027 439.957834 
L 629.912694 440.11514 
L 631.556422 440.594801 
L 635.574424 441.264693 
L 636.974636 441.650611 
L 641.479669 442.570366 
L 642.027578 442.632529 
L 642.94076 442.667577 
L 644.340973 442.967131 
L 645.193276 443.062852 
L 646.53261 443.382521 
L 647.506671 443.490703 
L 648.906884 443.836937 
L 649.515672 443.865418 
L 650.915885 444.125491 
L 656.699372 445.041959 
L 658.464858 445.348527 
L 659.256283 445.505754 
L 660.108586 445.601728 
L 661.326162 445.83746 
L 669.483924 446.910527 
L 670.153591 447.072857 
L 670.823258 447.208432 
L 671.919076 447.278963 
L 674.110714 447.64847 
L 674.963017 447.661691 
L 675.876199 447.843593 
L 676.728503 447.910406 
L 677.580806 448.07795 
L 678.372231 448.041707 
L 679.528928 448.275069 
L 680.44211 448.432105 
L 681.172656 448.512242 
L 681.964081 448.565632 
L 682.938142 448.765817 
L 684.216597 448.907505 
L 685.129779 449.007955 
L 686.042961 449.056581 
L 689.147781 449.412335 
L 689.756569 449.457915 
L 691.035024 449.742035 
L 692.009085 449.763014 
L 692.739631 449.87208 
L 693.531056 449.894512 
L 694.444238 450.059348 
L 695.296541 450.039238 
L 696.39236 450.255781 
L 697.062027 450.258183 
L 698.279603 450.473905 
L 699.253664 450.596014 
L 699.98421 450.670617 
L 700.775635 450.72383 
L 701.627938 450.792866 
L 702.419363 450.866496 
L 703.758697 451.025827 
L 704.793636 451.149 
L 704.793636 451.149 
" clip-path="url(#pdd3286458e)" style="fill: none; stroke: #1f77b4; stroke-width: 1.5; stroke-linecap: square"/>
   </g>
   <g id="patch_3">
    <path d="M 65.63 471.309 
L 65.63 27.789 
" style="fill: none; stroke: #000000; stroke-width: 2.5; stroke-linejoin: miter; stroke-linecap: square"/>
   </g>
   <g id="patch_4">
    <path d="M 735.23 471.309 
L 735.23 27.789 
" style="fill: none; stroke: #000000; stroke-width: 2.5; stroke-linejoin: miter; stroke-linecap: square"/>
   </g>
   <g id="patch_5">
    <path d="M 65.63 471.309 
L 735.23 471.309 
" style="fill: none; stroke: #000000; stroke-width: 2.5; stroke-linejoin: miter; stroke-linecap: square"/>
   </g>
   <g id="patch_6">
    <path d="M 65.63 27.789 
L 735.23 27.789 
" style="fill: none; stroke: #000000; stroke-width: 2.5; stroke-linejoin: miter; stroke-linecap: square"/>
   </g>
   <g id="text_18">
    <!-- Ramsey Fringes for NIST-7 -->
    <g transform="translate(274.6055 21.789) scale(0.192 -0.192)">
     <defs>
      <path id="DejaVuSans-52" d="M 2841 2188 
Q 3044 2119 3236 1894 
Q 3428 1669 3622 1275 
L 4263 0 
L 3584 0 
L 2988 1197 
Q 2756 1666 2539 1819 
Q 2322 1972 1947 1972 
L 1259 1972 
L 1259 0 
L 628 0 
L 628 4666 
L 2053 4666 
Q 2853 4666 3247 4331 
Q 3641 3997 3641 3322 
Q 3641 2881 3436 2590 
Q 3231 2300 2841 2188 
z
M 1259 4147 
L 1259 2491 
L 2053 2491 
Q 2509 2491 2742 2702 
Q 2975 2913 2975 3322 
Q 2975 3731 2742 3939 
Q 2509 4147 2053 4147 
L 1259 4147 
z
" transform="scale(0.015625)"/>
      <path id="DejaVuSans-6d" d="M 3328 2828 
Q 3544 3216 3844 3400 
Q 4144 3584 4550 3584 
Q 5097 3584 5394 3201 
Q 5691 2819 5691 2113 
L 5691 0 
L 5113 0 
L 5113 2094 
Q 5113 2597 4934 2840 
Q 4756 3084 4391 3084 
Q 3944 3084 3684 2787 
Q 3425 2491 3425 1978 
L 3425 0 
L 2847 0 
L 2847 2094 
Q 2847 2600 2669 2842 
Q 2491 3084 2119 3084 
Q 1678 3084 1418 2786 
Q 1159 2488 1159 1978 
L 1159 0 
L 581 0 
L 581 3500 
L 1159 3500 
L 1159 2956 
Q 1356 3278 1631 3431 
Q 1906 3584 2284 3584 
Q 2666 3584 2933 3390 
Q 3200 3197 3328 2828 
z
" transform="scale(0.015625)"/>
      <path id="DejaVuSans-79" d="M 2059 -325 
Q 1816 -950 1584 -1140 
Q 1353 -1331 966 -1331 
L 506 -1331 
L 506 -850 
L 844 -850 
Q 1081 -850 1212 -737 
Q 1344 -625 1503 -206 
L 1606 56 
L 191 3500 
L 800 3500 
L 1894 763 
L 2988 3500 
L 3597 3500 
L 2059 -325 
z
" transform="scale(0.015625)"/>
      <path id="DejaVuSans-46" d="M 628 4666 
L 3309 4666 
L 3309 4134 
L 1259 4134 
L 1259 2759 
L 3109 2759 
L 3109 2228 
L 1259 2228 
L 1259 0 
L 628 0 
L 628 4666 
z
" transform="scale(0.015625)"/>
      <path id="DejaVuSans-72" d="M 2631 2963 
Q 2534 3019 2420 3045 
Q 2306 3072 2169 3072 
Q 1681 3072 1420 2755 
Q 1159 2438 1159 1844 
L 1159 0 
L 581 0 
L 581 3500 
L 1159 3500 
L 1159 2956 
Q 1341 3275 1631 3429 
Q 1922 3584 2338 3584 
Q 2397 3584 2469 3576 
Q 2541 3569 2628 3553 
L 2631 2963 
z
" transform="scale(0.015625)"/>
      <path id="DejaVuSans-66" d="M 2375 4863 
L 2375 4384 
L 1825 4384 
Q 1516 4384 1395 4259 
Q 1275 4134 1275 3809 
L 1275 3500 
L 2222 3500 
L 2222 3053 
L 1275 3053 
L 1275 0 
L 697 0 
L 697 3053 
L 147 3053 
L 147 3500 
L 697 3500 
L 697 3744 
Q 697 4328 969 4595 
Q 1241 4863 1831 4863 
L 2375 4863 
z
" transform="scale(0.015625)"/>
      <path id="DejaVuSans-4e" d="M 628 4666 
L 1478 4666 
L 3547 763 
L 3547 4666 
L 4159 4666 
L 4159 0 
L 3309 0 
L 1241 3903 
L 1241 0 
L 628 0 
L 628 4666 
z
" transform="scale(0.015625)"/>
      <path id="DejaVuSans-49" d="M 628 4666 
L 1259 4666 
L 1259 0 
L 628 0 
L 628 4666 
z
" transform="scale(0.015625)"/>
      <path id="DejaVuSans-53" d="M 3425 4513 
L 3425 3897 
Q 3066 4069 2747 4153 
Q 2428 4238 2131 4238 
Q 1616 4238 1336 4038 
Q 1056 3838 1056 3469 
Q 1056 3159 1242 3001 
Q 1428 2844 1947 2747 
L 2328 2669 
Q 3034 2534 3370 2195 
Q 3706 1856 3706 1288 
Q 3706 609 3251 259 
Q 2797 -91 1919 -91 
Q 1588 -91 1214 -16 
Q 841 59 441 206 
L 441 856 
Q 825 641 1194 531 
Q 1563 422 1919 422 
Q 2459 422 2753 634 
Q 3047 847 3047 1241 
Q 3047 1584 2836 1778 
Q 2625 1972 2144 2069 
L 1759 2144 
Q 1053 2284 737 2584 
Q 422 2884 422 3419 
Q 422 4038 858 4394 
Q 1294 4750 2059 4750 
Q 2388 4750 2728 4690 
Q 3069 4631 3425 4513 
z
" transform="scale(0.015625)"/>
      <path id="DejaVuSans-54" d="M -19 4666 
L 3928 4666 
L 3928 4134 
L 2272 4134 
L 2272 0 
L 1638 0 
L 1638 4134 
L -19 4134 
L -19 4666 
z
" transform="scale(0.015625)"/>
      <path id="DejaVuSans-2d" d="M 313 2009 
L 1997 2009 
L 1997 1497 
L 313 1497 
L 313 2009 
z
" transform="scale(0.015625)"/>
     </defs>
     <use xlink:href="#DejaVuSans-52"/>
     <use xlink:href="#DejaVuSans-61" x="67.232422"/>
     <use xlink:href="#DejaVuSans-6d" x="128.511719"/>
     <use xlink:href="#DejaVuSans-73" x="225.923828"/>
     <use xlink:href="#DejaVuSans-65" x="278.023438"/>
     <use xlink:href="#DejaVuSans-79" x="339.546875"/>
     <use xlink:href="#DejaVuSans-20" x="398.726562"/>
     <use xlink:href="#DejaVuSans-46" x="430.513672"/>
     <use xlink:href="#DejaVuSans-72" x="480.783203"/>
     <use xlink:href="#DejaVuSans-69" x="521.896484"/>
     <use xlink:href="#DejaVuSans-6e" x="549.679688"/>
     <use xlink:href="#DejaVuSans-67" x="613.058594"/>
     <use xlink:href="#DejaVuSans-65" x="676.535156"/>
     <use xlink:href="#DejaVuSans-73" x="738.058594"/>
     <use xlink:href="#DejaVuSans-20" x="790.158203"/>
     <use xlink:href="#DejaVuSans-66" x="821.945312"/>
     <use xlink:href="#DejaVuSans-6f" x="857.150391"/>
     <use xlink:href="#DejaVuSans-72" x="918.332031"/>
     <use xlink:href="#DejaVuSans-20" x="959.445312"/>
     <use xlink:href="#DejaVuSans-4e" x="991.232422"/>
     <use xlink:href="#DejaVuSans-49" x="1066.037109"/>
     <use xlink:href="#DejaVuSans-53" x="1095.529297"/>
     <use xlink:href="#DejaVuSans-54" x="1159.005859"/>
     <use xlink:href="#DejaVuSans-2d" x="1210.964844"/>
     <use xlink:href="#DejaVuSans-37" x="1247.048828"/>
    </g>
   </g>
  </g>
  <g id="axes_2">
   <g id="patch_7">
    <path d="M 540.83 275.469 
L 886.43 275.469 
L 886.43 45.069 
L 540.83 45.069 
z
" style="fill: #ffffff"/>
   </g>
   <g id="matplotlib.axis_3">
    <g id="xtick_8">
     <g id="line2d_32">
      <g>
       <use xlink:href="#m2c1a512f58" x="545.410241" y="275.469" style="stroke: #000000; stroke-width: 2.5"/>
      </g>
     </g>
     <g id="text_19">
      <!-- -0.16 -->
      <g transform="translate(524.711491 301.1265) scale(0.16 -0.16)">
       <use xlink:href="#DejaVuSans-2d"/>
       <use xlink:href="#DejaVuSans-30" x="36.083984"/>
       <use xlink:href="#DejaVuSans-2e" x="99.707031"/>
       <use xlink:href="#DejaVuSans-31" x="131.494141"/>
       <use xlink:href="#DejaVuSans-36" x="195.117188"/>
      </g>
     </g>
    </g>
    <g id="xtick_9">
     <g id="line2d_33">
      <g>
       <use xlink:href="#m2c1a512f58" x="629.52012" y="275.469" style="stroke: #000000; stroke-width: 2.5"/>
      </g>
     </g>
     <g id="text_20">
      <!-- -0.08 -->
      <g transform="translate(608.82137 301.1265) scale(0.16 -0.16)">
       <defs>
        <path id="DejaVuSans-38" d="M 2034 2216 
Q 1584 2216 1326 1975 
Q 1069 1734 1069 1313 
Q 1069 891 1326 650 
Q 1584 409 2034 409 
Q 2484 409 2743 651 
Q 3003 894 3003 1313 
Q 3003 1734 2745 1975 
Q 2488 2216 2034 2216 
z
M 1403 2484 
Q 997 2584 770 2862 
Q 544 3141 544 3541 
Q 544 4100 942 4425 
Q 1341 4750 2034 4750 
Q 2731 4750 3128 4425 
Q 3525 4100 3525 3541 
Q 3525 3141 3298 2862 
Q 3072 2584 2669 2484 
Q 3125 2378 3379 2068 
Q 3634 1759 3634 1313 
Q 3634 634 3220 271 
Q 2806 -91 2034 -91 
Q 1263 -91 848 271 
Q 434 634 434 1313 
Q 434 1759 690 2068 
Q 947 2378 1403 2484 
z
M 1172 3481 
Q 1172 3119 1398 2916 
Q 1625 2713 2034 2713 
Q 2441 2713 2670 2916 
Q 2900 3119 2900 3481 
Q 2900 3844 2670 4047 
Q 2441 4250 2034 4250 
Q 1625 4250 1398 4047 
Q 1172 3844 1172 3481 
z
" transform="scale(0.015625)"/>
       </defs>
       <use xlink:href="#DejaVuSans-2d"/>
       <use xlink:href="#DejaVuSans-30" x="36.083984"/>
       <use xlink:href="#DejaVuSans-2e" x="99.707031"/>
       <use xlink:href="#DejaVuSans-30" x="131.494141"/>
       <use xlink:href="#DejaVuSans-38" x="195.117188"/>
      </g>
     </g>
    </g>
    <g id="xtick_10">
     <g id="line2d_34">
      <g>
       <use xlink:href="#m2c1a512f58" x="713.63" y="275.469" style="stroke: #000000; stroke-width: 2.5"/>
      </g>
     </g>
     <g id="text_21">
      <!-- 0.00 -->
      <g transform="translate(695.8175 301.1265) scale(0.16 -0.16)">
       <use xlink:href="#DejaVuSans-30"/>
       <use xlink:href="#DejaVuSans-2e" x="63.623047"/>
       <use xlink:href="#DejaVuSans-30" x="95.410156"/>
       <use xlink:href="#DejaVuSans-30" x="159.033203"/>
      </g>
     </g>
    </g>
    <g id="xtick_11">
     <g id="line2d_35">
      <g>
       <use xlink:href="#m2c1a512f58" x="797.73988" y="275.469" style="stroke: #000000; stroke-width: 2.5"/>
      </g>
     </g>
     <g id="text_22">
      <!-- 0.08 -->
      <g transform="translate(779.92738 301.1265) scale(0.16 -0.16)">
       <use xlink:href="#DejaVuSans-30"/>
       <use xlink:href="#DejaVuSans-2e" x="63.623047"/>
       <use xlink:href="#DejaVuSans-30" x="95.410156"/>
       <use xlink:href="#DejaVuSans-38" x="159.033203"/>
      </g>
     </g>
    </g>
    <g id="xtick_12">
     <g id="line2d_36">
      <g>
       <use xlink:href="#m2c1a512f58" x="881.849759" y="275.469" style="stroke: #000000; stroke-width: 2.5"/>
      </g>
     </g>
     <g id="text_23">
      <!-- 0.16 -->
      <g transform="translate(864.037259 301.1265) scale(0.16 -0.16)">
       <use xlink:href="#DejaVuSans-30"/>
       <use xlink:href="#DejaVuSans-2e" x="63.623047"/>
       <use xlink:href="#DejaVuSans-31" x="95.410156"/>
       <use xlink:href="#DejaVuSans-36" x="159.033203"/>
      </g>
     </g>
    </g>
   </g>
   <g id="matplotlib.axis_4">
    <g id="ytick_9">
     <g id="line2d_37">
      <g>
       <use xlink:href="#m6f748166c8" x="540.83" y="256.340412" style="stroke: #000000; stroke-width: 2.5"/>
      </g>
     </g>
     <g id="text_24">
      <!-- 0.15 -->
      <g transform="translate(491.705 262.419162) scale(0.16 -0.16)">
       <use xlink:href="#DejaVuSans-30"/>
       <use xlink:href="#DejaVuSans-2e" x="63.623047"/>
       <use xlink:href="#DejaVuSans-31" x="95.410156"/>
       <use xlink:href="#DejaVuSans-35" x="159.033203"/>
      </g>
     </g>
    </g>
    <g id="ytick_10">
     <g id="line2d_38">
      <g>
       <use xlink:href="#m6f748166c8" x="540.83" y="202.095799" style="stroke: #000000; stroke-width: 2.5"/>
      </g>
     </g>
     <g id="text_25">
      <!-- 0.30 -->
      <g transform="translate(491.705 208.174549) scale(0.16 -0.16)">
       <use xlink:href="#DejaVuSans-30"/>
       <use xlink:href="#DejaVuSans-2e" x="63.623047"/>
       <use xlink:href="#DejaVuSans-33" x="95.410156"/>
       <use xlink:href="#DejaVuSans-30" x="159.033203"/>
      </g>
     </g>
    </g>
    <g id="ytick_11">
     <g id="line2d_39">
      <g>
       <use xlink:href="#m6f748166c8" x="540.83" y="147.851185" style="stroke: #000000; stroke-width: 2.5"/>
      </g>
     </g>
     <g id="text_26">
      <!-- 0.45 -->
      <g transform="translate(491.705 153.929935) scale(0.16 -0.16)">
       <use xlink:href="#DejaVuSans-30"/>
       <use xlink:href="#DejaVuSans-2e" x="63.623047"/>
       <use xlink:href="#DejaVuSans-34" x="95.410156"/>
       <use xlink:href="#DejaVuSans-35" x="159.033203"/>
      </g>
     </g>
    </g>
    <g id="ytick_12">
     <g id="line2d_40">
      <g>
       <use xlink:href="#m6f748166c8" x="540.83" y="93.606571" style="stroke: #000000; stroke-width: 2.5"/>
      </g>
     </g>
     <g id="text_27">
      <!-- 0.60 -->
      <g transform="translate(491.705 99.685321) scale(0.16 -0.16)">
       <use xlink:href="#DejaVuSans-30"/>
       <use xlink:href="#DejaVuSans-2e" x="63.623047"/>
       <use xlink:href="#DejaVuSans-36" x="95.410156"/>
       <use xlink:href="#DejaVuSans-30" x="159.033203"/>
      </g>
     </g>
    </g>
   </g>
   <g id="line2d_41">
    <path d="M 556.539091 180.488667 
L 562.847963 180.968204 
L 579.25103 182.4809 
L 585.559901 182.756887 
L 590.606999 182.770293 
L 595.654096 182.570433 
L 613.318938 181.566444 
L 623.413133 181.268645 
L 625.936681 181.021004 
L 628.46023 180.603967 
L 630.983779 179.952694 
L 633.507327 179.002409 
L 636.030876 177.700312 
L 638.554425 176.021601 
L 641.077974 173.988142 
L 644.863297 170.486627 
L 647.386846 168.132776 
L 649.910394 166.110898 
L 651.172169 165.345577 
L 652.433943 164.817779 
L 653.695717 164.586709 
L 654.957492 164.712879 
L 656.219266 165.256243 
L 657.481041 166.274039 
L 658.742815 167.818414 
L 660.004589 169.933873 
L 661.266364 172.654675 
L 662.528138 176.002264 
L 663.789912 179.982875 
L 665.051687 184.585427 
L 666.313461 189.779838 
L 668.83701 201.722549 
L 671.360559 215.162262 
L 675.145882 235.963864 
L 677.66943 248.443875 
L 678.931205 253.755873 
L 680.192979 258.221795 
L 681.454754 261.680147 
L 682.716528 263.982173 
L 683.978302 264.996273 
L 685.240077 264.612164 
L 686.501851 262.74471 
L 687.763625 259.337312 
L 689.0254 254.364799 
L 690.287174 247.835742 
L 691.548949 239.794099 
L 692.810723 230.320138 
L 694.072497 219.530539 
L 696.596046 194.647525 
L 699.119595 166.752575 
L 702.904918 123.796089 
L 705.428467 97.795915 
L 706.690241 86.452725 
L 707.952015 76.564195 
L 709.21379 68.35846 
L 710.475564 62.027501 
L 711.737338 57.721045 
L 712.999113 55.541727 
L 714.260887 55.541727 
L 715.522662 57.721045 
L 716.784436 62.027501 
L 718.04621 68.35846 
L 719.307985 76.564195 
L 720.569759 86.452725 
L 721.831533 97.795915 
L 724.355082 123.796089 
L 731.925728 207.577605 
L 733.187503 219.530539 
L 734.449277 230.320138 
L 735.711051 239.794099 
L 736.972826 247.835742 
L 738.2346 254.364799 
L 739.496375 259.337312 
L 740.758149 262.74471 
L 742.019923 264.612164 
L 743.281698 264.996273 
L 744.543472 263.982173 
L 745.805246 261.680147 
L 747.067021 258.221795 
L 748.328795 253.755873 
L 749.59057 248.443875 
L 752.114118 235.963864 
L 759.684765 195.515861 
L 760.946539 189.779838 
L 762.208313 184.585427 
L 763.470088 179.982875 
L 764.731862 176.002264 
L 765.993636 172.654675 
L 767.255411 169.933873 
L 768.517185 167.818414 
L 769.778959 166.274039 
L 771.040734 165.256243 
L 772.302508 164.712879 
L 773.564283 164.586709 
L 774.826057 164.817779 
L 776.087831 165.345577 
L 777.349606 166.110898 
L 779.873154 168.132776 
L 787.443801 175.045494 
L 789.967349 176.907988 
L 792.490898 178.397754 
L 795.014447 179.518679 
L 797.537996 180.311777 
L 800.061544 180.837606 
L 802.585093 181.162173 
L 806.370416 181.404559 
L 825.297032 182.127847 
L 834.129452 182.695585 
L 839.17655 182.790087 
L 844.223647 182.676417 
L 850.532519 182.307337 
L 858.103165 181.615756 
L 868.19736 180.648846 
L 870.720909 180.488667 
L 870.720909 180.488667 
" clip-path="url(#p90817537d6)" style="fill: none; stroke: #1f77b4; stroke-width: 1.5; stroke-linecap: square"/>
   </g>
   <g id="patch_8">
    <path d="M 540.83 275.469 
L 540.83 45.069 
" style="fill: none; stroke: #000000; stroke-width: 2.5; stroke-linejoin: miter; stroke-linecap: square"/>
   </g>
   <g id="patch_9">
    <path d="M 886.43 275.469 
L 886.43 45.069 
" style="fill: none; stroke: #000000; stroke-width: 2.5; stroke-linejoin: miter; stroke-linecap: square"/>
   </g>
   <g id="patch_10">
    <path d="M 540.83 275.469 
L 886.43 275.469 
" style="fill: none; stroke: #000000; stroke-width: 2.5; stroke-linejoin: miter; stroke-linecap: square"/>
   </g>
   <g id="patch_11">
    <path d="M 540.83 45.069 
L 886.43 45.069 
" style="fill: none; stroke: #000000; stroke-width: 2.5; stroke-linejoin: miter; stroke-linecap: square"/>
   </g>
  </g>
 </g>
 <defs>
  <clipPath id="pdd3286458e">
   <rect x="65.63" y="27.789" width="669.6" height="443.52"/>
  </clipPath>
  <clipPath id="p90817537d6">
   <rect x="540.83" y="45.069" width="345.6" height="230.4"/>
  </clipPath>
 </defs>
</svg>
