<?xml version="1.0" encoding="utf-8" standalone="no"?>
<!DOCTYPE svg PUBLIC "-//W3C//DTD SVG 1.1//EN"
  "http://www.w3.org/Graphics/SVG/1.1/DTD/svg11.dtd">
<svg xmlns:xlink="http://www.w3.org/1999/xlink" width="854.03pt" height="527.014pt" viewBox="0 0 854.03 527.014" xmlns="http://www.w3.org/2000/svg" version="1.1">
 <metadata>
  <rdf:RDF xmlns:dc="http://purl.org/dc/elements/1.1/" xmlns:cc="http://creativecommons.org/ns#" xmlns:rdf="http://www.w3.org/1999/02/22-rdf-syntax-ns#">
   <cc:Work>
    <dc:type rdf:resource="http://purl.org/dc/dcmitype/StillImage"/>
    <dc:date>2024-08-14T15:01:13.743264</dc:date>
    <dc:format>image/svg+xml</dc:format>
    <dc:creator>
     <cc:Agent>
      <dc:title>Matplotlib v3.7.1, https://matplotlib.org/</dc:title>
     </cc:Agent>
    </dc:creator>
   </cc:Work>
  </rdf:RDF>
 </metadata>
 <defs>
  <style type="text/css">*{stroke-linejoin: round; stroke-linecap: butt}</style>
 </defs>
 <g id="figure_1">
  <g id="patch_1">
   <path d="M 0 527.014 
L 854.03 527.014 
L 854.03 0 
L 0 0 
z
" style="fill: #ffffff"/>
  </g>
  <g id="axes_1">
   <g id="patch_2">
    <path d="M 65.63 471.309 
L 846.83 471.309 
L 846.83 27.789 
L 65.63 27.789 
z
" style="fill: #ffffff"/>
   </g>
   <g id="matplotlib.axis_1">
    <g id="xtick_1">
     <g id="line2d_1">
      <path d="M 101.139091 471.309 
L 101.139091 27.789 
" clip-path="url(#p4bdd438a88)" style="fill: none; stroke: #b0b0b0; stroke-width: 0.8; stroke-linecap: square"/>
     </g>
     <g id="line2d_2">
      <defs>
       <path id="m934776817b" d="M 0 0 
L 0 10 
" style="stroke: #000000; stroke-width: 2.5"/>
      </defs>
      <g>
       <use xlink:href="#m934776817b" x="101.139091" y="471.309" style="stroke: #000000; stroke-width: 2.5"/>
      </g>
     </g>
     <g id="text_1">
      <!-- −6 -->
      <g transform="translate(89.345341 496.9665) scale(0.16 -0.16)">
       <defs>
        <path id="DejaVuSans-2212" d="M 678 2272 
L 4684 2272 
L 4684 1741 
L 678 1741 
L 678 2272 
z
" transform="scale(0.015625)"/>
        <path id="DejaVuSans-36" d="M 2113 2584 
Q 1688 2584 1439 2293 
Q 1191 2003 1191 1497 
Q 1191 994 1439 701 
Q 1688 409 2113 409 
Q 2538 409 2786 701 
Q 3034 994 3034 1497 
Q 3034 2003 2786 2293 
Q 2538 2584 2113 2584 
z
M 3366 4563 
L 3366 3988 
Q 3128 4100 2886 4159 
Q 2644 4219 2406 4219 
Q 1781 4219 1451 3797 
Q 1122 3375 1075 2522 
Q 1259 2794 1537 2939 
Q 1816 3084 2150 3084 
Q 2853 3084 3261 2657 
Q 3669 2231 3669 1497 
Q 3669 778 3244 343 
Q 2819 -91 2113 -91 
Q 1303 -91 875 529 
Q 447 1150 447 2328 
Q 447 3434 972 4092 
Q 1497 4750 2381 4750 
Q 2619 4750 2861 4703 
Q 3103 4656 3366 4563 
z
" transform="scale(0.015625)"/>
       </defs>
       <use xlink:href="#DejaVuSans-2212"/>
       <use xlink:href="#DejaVuSans-36" x="83.789062"/>
      </g>
     </g>
    </g>
    <g id="xtick_2">
     <g id="line2d_3">
      <path d="M 219.502727 471.309 
L 219.502727 27.789 
" clip-path="url(#p4bdd438a88)" style="fill: none; stroke: #b0b0b0; stroke-width: 0.8; stroke-linecap: square"/>
     </g>
     <g id="line2d_4">
      <g>
       <use xlink:href="#m934776817b" x="219.502727" y="471.309" style="stroke: #000000; stroke-width: 2.5"/>
      </g>
     </g>
     <g id="text_2">
      <!-- −4 -->
      <g transform="translate(207.708977 496.9665) scale(0.16 -0.16)">
       <defs>
        <path id="DejaVuSans-34" d="M 2419 4116 
L 825 1625 
L 2419 1625 
L 2419 4116 
z
M 2253 4666 
L 3047 4666 
L 3047 1625 
L 3713 1625 
L 3713 1100 
L 3047 1100 
L 3047 0 
L 2419 0 
L 2419 1100 
L 313 1100 
L 313 1709 
L 2253 4666 
z
" transform="scale(0.015625)"/>
       </defs>
       <use xlink:href="#DejaVuSans-2212"/>
       <use xlink:href="#DejaVuSans-34" x="83.789062"/>
      </g>
     </g>
    </g>
    <g id="xtick_3">
     <g id="line2d_5">
      <path d="M 337.866364 471.309 
L 337.866364 27.789 
" clip-path="url(#p4bdd438a88)" style="fill: none; stroke: #b0b0b0; stroke-width: 0.8; stroke-linecap: square"/>
     </g>
     <g id="line2d_6">
      <g>
       <use xlink:href="#m934776817b" x="337.866364" y="471.309" style="stroke: #000000; stroke-width: 2.5"/>
      </g>
     </g>
     <g id="text_3">
      <!-- −2 -->
      <g transform="translate(326.072614 496.9665) scale(0.16 -0.16)">
       <defs>
        <path id="DejaVuSans-32" d="M 1228 531 
L 3431 531 
L 3431 0 
L 469 0 
L 469 531 
Q 828 903 1448 1529 
Q 2069 2156 2228 2338 
Q 2531 2678 2651 2914 
Q 2772 3150 2772 3378 
Q 2772 3750 2511 3984 
Q 2250 4219 1831 4219 
Q 1534 4219 1204 4116 
Q 875 4013 500 3803 
L 500 4441 
Q 881 4594 1212 4672 
Q 1544 4750 1819 4750 
Q 2544 4750 2975 4387 
Q 3406 4025 3406 3419 
Q 3406 3131 3298 2873 
Q 3191 2616 2906 2266 
Q 2828 2175 2409 1742 
Q 1991 1309 1228 531 
z
" transform="scale(0.015625)"/>
       </defs>
       <use xlink:href="#DejaVuSans-2212"/>
       <use xlink:href="#DejaVuSans-32" x="83.789062"/>
      </g>
     </g>
    </g>
    <g id="xtick_4">
     <g id="line2d_7">
      <path d="M 456.23 471.309 
L 456.23 27.789 
" clip-path="url(#p4bdd438a88)" style="fill: none; stroke: #b0b0b0; stroke-width: 0.8; stroke-linecap: square"/>
     </g>
     <g id="line2d_8">
      <g>
       <use xlink:href="#m934776817b" x="456.23" y="471.309" style="stroke: #000000; stroke-width: 2.5"/>
      </g>
     </g>
     <g id="text_4">
      <!-- 0 -->
      <g transform="translate(451.14 496.9665) scale(0.16 -0.16)">
       <defs>
        <path id="DejaVuSans-30" d="M 2034 4250 
Q 1547 4250 1301 3770 
Q 1056 3291 1056 2328 
Q 1056 1369 1301 889 
Q 1547 409 2034 409 
Q 2525 409 2770 889 
Q 3016 1369 3016 2328 
Q 3016 3291 2770 3770 
Q 2525 4250 2034 4250 
z
M 2034 4750 
Q 2819 4750 3233 4129 
Q 3647 3509 3647 2328 
Q 3647 1150 3233 529 
Q 2819 -91 2034 -91 
Q 1250 -91 836 529 
Q 422 1150 422 2328 
Q 422 3509 836 4129 
Q 1250 4750 2034 4750 
z
" transform="scale(0.015625)"/>
       </defs>
       <use xlink:href="#DejaVuSans-30"/>
      </g>
     </g>
    </g>
    <g id="xtick_5">
     <g id="line2d_9">
      <path d="M 574.593636 471.309 
L 574.593636 27.789 
" clip-path="url(#p4bdd438a88)" style="fill: none; stroke: #b0b0b0; stroke-width: 0.8; stroke-linecap: square"/>
     </g>
     <g id="line2d_10">
      <g>
       <use xlink:href="#m934776817b" x="574.593636" y="471.309" style="stroke: #000000; stroke-width: 2.5"/>
      </g>
     </g>
     <g id="text_5">
      <!-- 2 -->
      <g transform="translate(569.503636 496.9665) scale(0.16 -0.16)">
       <use xlink:href="#DejaVuSans-32"/>
      </g>
     </g>
    </g>
    <g id="xtick_6">
     <g id="line2d_11">
      <path d="M 692.957273 471.309 
L 692.957273 27.789 
" clip-path="url(#p4bdd438a88)" style="fill: none; stroke: #b0b0b0; stroke-width: 0.8; stroke-linecap: square"/>
     </g>
     <g id="line2d_12">
      <g>
       <use xlink:href="#m934776817b" x="692.957273" y="471.309" style="stroke: #000000; stroke-width: 2.5"/>
      </g>
     </g>
     <g id="text_6">
      <!-- 4 -->
      <g transform="translate(687.867273 496.9665) scale(0.16 -0.16)">
       <use xlink:href="#DejaVuSans-34"/>
      </g>
     </g>
    </g>
    <g id="xtick_7">
     <g id="line2d_13">
      <path d="M 811.320909 471.309 
L 811.320909 27.789 
" clip-path="url(#p4bdd438a88)" style="fill: none; stroke: #b0b0b0; stroke-width: 0.8; stroke-linecap: square"/>
     </g>
     <g id="line2d_14">
      <g>
       <use xlink:href="#m934776817b" x="811.320909" y="471.309" style="stroke: #000000; stroke-width: 2.5"/>
      </g>
     </g>
     <g id="text_7">
      <!-- 6 -->
      <g transform="translate(806.230909 496.9665) scale(0.16 -0.16)">
       <use xlink:href="#DejaVuSans-36"/>
      </g>
     </g>
    </g>
    <g id="text_8">
     <!-- Detuning [$\Delta/\Omega$] -->
     <g transform="translate(396.39 516.454) scale(0.16 -0.16)">
      <defs>
       <path id="DejaVuSans-44" d="M 1259 4147 
L 1259 519 
L 2022 519 
Q 2988 519 3436 956 
Q 3884 1394 3884 2338 
Q 3884 3275 3436 3711 
Q 2988 4147 2022 4147 
L 1259 4147 
z
M 628 4666 
L 1925 4666 
Q 3281 4666 3915 4102 
Q 4550 3538 4550 2338 
Q 4550 1131 3912 565 
Q 3275 0 1925 0 
L 628 0 
L 628 4666 
z
" transform="scale(0.015625)"/>
       <path id="DejaVuSans-65" d="M 3597 1894 
L 3597 1613 
L 953 1613 
Q 991 1019 1311 708 
Q 1631 397 2203 397 
Q 2534 397 2845 478 
Q 3156 559 3463 722 
L 3463 178 
Q 3153 47 2828 -22 
Q 2503 -91 2169 -91 
Q 1331 -91 842 396 
Q 353 884 353 1716 
Q 353 2575 817 3079 
Q 1281 3584 2069 3584 
Q 2775 3584 3186 3129 
Q 3597 2675 3597 1894 
z
M 3022 2063 
Q 3016 2534 2758 2815 
Q 2500 3097 2075 3097 
Q 1594 3097 1305 2825 
Q 1016 2553 972 2059 
L 3022 2063 
z
" transform="scale(0.015625)"/>
       <path id="DejaVuSans-74" d="M 1172 4494 
L 1172 3500 
L 2356 3500 
L 2356 3053 
L 1172 3053 
L 1172 1153 
Q 1172 725 1289 603 
Q 1406 481 1766 481 
L 2356 481 
L 2356 0 
L 1766 0 
Q 1100 0 847 248 
Q 594 497 594 1153 
L 594 3053 
L 172 3053 
L 172 3500 
L 594 3500 
L 594 4494 
L 1172 4494 
z
" transform="scale(0.015625)"/>
       <path id="DejaVuSans-75" d="M 544 1381 
L 544 3500 
L 1119 3500 
L 1119 1403 
Q 1119 906 1312 657 
Q 1506 409 1894 409 
Q 2359 409 2629 706 
Q 2900 1003 2900 1516 
L 2900 3500 
L 3475 3500 
L 3475 0 
L 2900 0 
L 2900 538 
Q 2691 219 2414 64 
Q 2138 -91 1772 -91 
Q 1169 -91 856 284 
Q 544 659 544 1381 
z
M 1991 3584 
L 1991 3584 
z
" transform="scale(0.015625)"/>
       <path id="DejaVuSans-6e" d="M 3513 2113 
L 3513 0 
L 2938 0 
L 2938 2094 
Q 2938 2591 2744 2837 
Q 2550 3084 2163 3084 
Q 1697 3084 1428 2787 
Q 1159 2491 1159 1978 
L 1159 0 
L 581 0 
L 581 3500 
L 1159 3500 
L 1159 2956 
Q 1366 3272 1645 3428 
Q 1925 3584 2291 3584 
Q 2894 3584 3203 3211 
Q 3513 2838 3513 2113 
z
" transform="scale(0.015625)"/>
       <path id="DejaVuSans-69" d="M 603 3500 
L 1178 3500 
L 1178 0 
L 603 0 
L 603 3500 
z
M 603 4863 
L 1178 4863 
L 1178 4134 
L 603 4134 
L 603 4863 
z
" transform="scale(0.015625)"/>
       <path id="DejaVuSans-67" d="M 2906 1791 
Q 2906 2416 2648 2759 
Q 2391 3103 1925 3103 
Q 1463 3103 1205 2759 
Q 947 2416 947 1791 
Q 947 1169 1205 825 
Q 1463 481 1925 481 
Q 2391 481 2648 825 
Q 2906 1169 2906 1791 
z
M 3481 434 
Q 3481 -459 3084 -895 
Q 2688 -1331 1869 -1331 
Q 1566 -1331 1297 -1286 
Q 1028 -1241 775 -1147 
L 775 -588 
Q 1028 -725 1275 -790 
Q 1522 -856 1778 -856 
Q 2344 -856 2625 -561 
Q 2906 -266 2906 331 
L 2906 616 
Q 2728 306 2450 153 
Q 2172 0 1784 0 
Q 1141 0 747 490 
Q 353 981 353 1791 
Q 353 2603 747 3093 
Q 1141 3584 1784 3584 
Q 2172 3584 2450 3431 
Q 2728 3278 2906 2969 
L 2906 3500 
L 3481 3500 
L 3481 434 
z
" transform="scale(0.015625)"/>
       <path id="DejaVuSans-20" transform="scale(0.015625)"/>
       <path id="DejaVuSans-5b" d="M 550 4863 
L 1875 4863 
L 1875 4416 
L 1125 4416 
L 1125 -397 
L 1875 -397 
L 1875 -844 
L 550 -844 
L 550 4863 
z
" transform="scale(0.015625)"/>
       <path id="DejaVuSans-394" d="M 2188 4044 
L 906 525 
L 3472 525 
L 2188 4044 
z
M 50 0 
L 1831 4666 
L 2547 4666 
L 4325 0 
L 50 0 
z
" transform="scale(0.015625)"/>
       <path id="DejaVuSans-2f" d="M 1625 4666 
L 2156 4666 
L 531 -594 
L 0 -594 
L 1625 4666 
z
" transform="scale(0.015625)"/>
       <path id="DejaVuSans-3a9" d="M 4647 556 
L 4647 0 
L 2772 0 
L 2772 556 
Q 3325 859 3634 1378 
Q 3944 1897 3944 2528 
Q 3944 3278 3531 3731 
Q 3119 4184 2444 4184 
Q 1769 4184 1355 3729 
Q 941 3275 941 2528 
Q 941 1897 1250 1378 
Q 1563 859 2119 556 
L 2119 0 
L 244 0 
L 244 556 
L 1241 556 
Q 747 991 519 1456 
Q 294 1922 294 2497 
Q 294 3491 894 4106 
Q 1491 4722 2444 4722 
Q 3391 4722 3994 4106 
Q 4594 3494 4594 2528 
Q 4594 1922 4372 1459 
Q 4150 997 3647 556 
L 4647 556 
z
" transform="scale(0.015625)"/>
       <path id="DejaVuSans-5d" d="M 1947 4863 
L 1947 -844 
L 622 -844 
L 622 -397 
L 1369 -397 
L 1369 4416 
L 622 4416 
L 622 4863 
L 1947 4863 
z
" transform="scale(0.015625)"/>
      </defs>
      <use xlink:href="#DejaVuSans-44" transform="translate(0 0.015625)"/>
      <use xlink:href="#DejaVuSans-65" transform="translate(77.001953 0.015625)"/>
      <use xlink:href="#DejaVuSans-74" transform="translate(138.525391 0.015625)"/>
      <use xlink:href="#DejaVuSans-75" transform="translate(177.734375 0.015625)"/>
      <use xlink:href="#DejaVuSans-6e" transform="translate(241.113281 0.015625)"/>
      <use xlink:href="#DejaVuSans-69" transform="translate(304.492188 0.015625)"/>
      <use xlink:href="#DejaVuSans-6e" transform="translate(332.275391 0.015625)"/>
      <use xlink:href="#DejaVuSans-67" transform="translate(395.654297 0.015625)"/>
      <use xlink:href="#DejaVuSans-20" transform="translate(459.130859 0.015625)"/>
      <use xlink:href="#DejaVuSans-5b" transform="translate(490.917969 0.015625)"/>
      <use xlink:href="#DejaVuSans-394" transform="translate(529.931641 0.015625)"/>
      <use xlink:href="#DejaVuSans-2f" transform="translate(598.339844 0.015625)"/>
      <use xlink:href="#DejaVuSans-3a9" transform="translate(632.03125 0.015625)"/>
      <use xlink:href="#DejaVuSans-5d" transform="translate(708.447266 0.015625)"/>
     </g>
    </g>
   </g>
   <g id="matplotlib.axis_2">
    <g id="ytick_1">
     <g id="line2d_15">
      <path d="M 65.63 451.149 
L 846.83 451.149 
" clip-path="url(#p4bdd438a88)" style="fill: none; stroke: #b0b0b0; stroke-width: 0.8; stroke-linecap: square"/>
     </g>
     <g id="line2d_16">
      <defs>
       <path id="mdaa5672914" d="M 0 0 
L -10 0 
" style="stroke: #000000; stroke-width: 2.5"/>
      </defs>
      <g>
       <use xlink:href="#mdaa5672914" x="65.63" y="451.149" style="stroke: #000000; stroke-width: 2.5"/>
      </g>
     </g>
     <g id="text_9">
      <!-- 0.0 -->
      <g transform="translate(26.685 457.22775) scale(0.16 -0.16)">
       <defs>
        <path id="DejaVuSans-2e" d="M 684 794 
L 1344 794 
L 1344 0 
L 684 0 
L 684 794 
z
" transform="scale(0.015625)"/>
       </defs>
       <use xlink:href="#DejaVuSans-30"/>
       <use xlink:href="#DejaVuSans-2e" x="63.623047"/>
       <use xlink:href="#DejaVuSans-30" x="95.410156"/>
      </g>
     </g>
    </g>
    <g id="ytick_2">
     <g id="line2d_17">
      <path d="M 65.63 370.505356 
L 846.83 370.505356 
" clip-path="url(#p4bdd438a88)" style="fill: none; stroke: #b0b0b0; stroke-width: 0.8; stroke-linecap: square"/>
     </g>
     <g id="line2d_18">
      <g>
       <use xlink:href="#mdaa5672914" x="65.63" y="370.505356" style="stroke: #000000; stroke-width: 2.5"/>
      </g>
     </g>
     <g id="text_10">
      <!-- 0.2 -->
      <g transform="translate(26.685 376.584106) scale(0.16 -0.16)">
       <use xlink:href="#DejaVuSans-30"/>
       <use xlink:href="#DejaVuSans-2e" x="63.623047"/>
       <use xlink:href="#DejaVuSans-32" x="95.410156"/>
      </g>
     </g>
    </g>
    <g id="ytick_3">
     <g id="line2d_19">
      <path d="M 65.63 289.861713 
L 846.83 289.861713 
" clip-path="url(#p4bdd438a88)" style="fill: none; stroke: #b0b0b0; stroke-width: 0.8; stroke-linecap: square"/>
     </g>
     <g id="line2d_20">
      <g>
       <use xlink:href="#mdaa5672914" x="65.63" y="289.861713" style="stroke: #000000; stroke-width: 2.5"/>
      </g>
     </g>
     <g id="text_11">
      <!-- 0.4 -->
      <g transform="translate(26.685 295.940463) scale(0.16 -0.16)">
       <use xlink:href="#DejaVuSans-30"/>
       <use xlink:href="#DejaVuSans-2e" x="63.623047"/>
       <use xlink:href="#DejaVuSans-34" x="95.410156"/>
      </g>
     </g>
    </g>
    <g id="ytick_4">
     <g id="line2d_21">
      <path d="M 65.63 209.218069 
L 846.83 209.218069 
" clip-path="url(#p4bdd438a88)" style="fill: none; stroke: #b0b0b0; stroke-width: 0.8; stroke-linecap: square"/>
     </g>
     <g id="line2d_22">
      <g>
       <use xlink:href="#mdaa5672914" x="65.63" y="209.218069" style="stroke: #000000; stroke-width: 2.5"/>
      </g>
     </g>
     <g id="text_12">
      <!-- 0.6 -->
      <g transform="translate(26.685 215.296819) scale(0.16 -0.16)">
       <use xlink:href="#DejaVuSans-30"/>
       <use xlink:href="#DejaVuSans-2e" x="63.623047"/>
       <use xlink:href="#DejaVuSans-36" x="95.410156"/>
      </g>
     </g>
    </g>
    <g id="ytick_5">
     <g id="line2d_23">
      <path d="M 65.63 128.574425 
L 846.83 128.574425 
" clip-path="url(#p4bdd438a88)" style="fill: none; stroke: #b0b0b0; stroke-width: 0.8; stroke-linecap: square"/>
     </g>
     <g id="line2d_24">
      <g>
       <use xlink:href="#mdaa5672914" x="65.63" y="128.574425" style="stroke: #000000; stroke-width: 2.5"/>
      </g>
     </g>
     <g id="text_13">
      <!-- 0.8 -->
      <g transform="translate(26.685 134.653175) scale(0.16 -0.16)">
       <defs>
        <path id="DejaVuSans-38" d="M 2034 2216 
Q 1584 2216 1326 1975 
Q 1069 1734 1069 1313 
Q 1069 891 1326 650 
Q 1584 409 2034 409 
Q 2484 409 2743 651 
Q 3003 894 3003 1313 
Q 3003 1734 2745 1975 
Q 2488 2216 2034 2216 
z
M 1403 2484 
Q 997 2584 770 2862 
Q 544 3141 544 3541 
Q 544 4100 942 4425 
Q 1341 4750 2034 4750 
Q 2731 4750 3128 4425 
Q 3525 4100 3525 3541 
Q 3525 3141 3298 2862 
Q 3072 2584 2669 2484 
Q 3125 2378 3379 2068 
Q 3634 1759 3634 1313 
Q 3634 634 3220 271 
Q 2806 -91 2034 -91 
Q 1263 -91 848 271 
Q 434 634 434 1313 
Q 434 1759 690 2068 
Q 947 2378 1403 2484 
z
M 1172 3481 
Q 1172 3119 1398 2916 
Q 1625 2713 2034 2713 
Q 2441 2713 2670 2916 
Q 2900 3119 2900 3481 
Q 2900 3844 2670 4047 
Q 2441 4250 2034 4250 
Q 1625 4250 1398 4047 
Q 1172 3844 1172 3481 
z
" transform="scale(0.015625)"/>
       </defs>
       <use xlink:href="#DejaVuSans-30"/>
       <use xlink:href="#DejaVuSans-2e" x="63.623047"/>
       <use xlink:href="#DejaVuSans-38" x="95.410156"/>
      </g>
     </g>
    </g>
    <g id="ytick_6">
     <g id="line2d_25">
      <path d="M 65.63 47.930781 
L 846.83 47.930781 
" clip-path="url(#p4bdd438a88)" style="fill: none; stroke: #b0b0b0; stroke-width: 0.8; stroke-linecap: square"/>
     </g>
     <g id="line2d_26">
      <g>
       <use xlink:href="#mdaa5672914" x="65.63" y="47.930781" style="stroke: #000000; stroke-width: 2.5"/>
      </g>
     </g>
     <g id="text_14">
      <!-- 1.0 -->
      <g transform="translate(26.685 54.009531) scale(0.16 -0.16)">
       <defs>
        <path id="DejaVuSans-31" d="M 794 531 
L 1825 531 
L 1825 4091 
L 703 3866 
L 703 4441 
L 1819 4666 
L 2450 4666 
L 2450 531 
L 3481 531 
L 3481 0 
L 794 0 
L 794 531 
z
" transform="scale(0.015625)"/>
       </defs>
       <use xlink:href="#DejaVuSans-31"/>
       <use xlink:href="#DejaVuSans-2e" x="63.623047"/>
       <use xlink:href="#DejaVuSans-30" x="95.410156"/>
      </g>
     </g>
    </g>
    <g id="text_15">
     <!-- Excited state population -->
     <g transform="translate(19.3575 346.879) rotate(-90) scale(0.16 -0.16)">
      <defs>
       <path id="DejaVuSans-45" d="M 628 4666 
L 3578 4666 
L 3578 4134 
L 1259 4134 
L 1259 2753 
L 3481 2753 
L 3481 2222 
L 1259 2222 
L 1259 531 
L 3634 531 
L 3634 0 
L 628 0 
L 628 4666 
z
" transform="scale(0.015625)"/>
       <path id="DejaVuSans-78" d="M 3513 3500 
L 2247 1797 
L 3578 0 
L 2900 0 
L 1881 1375 
L 863 0 
L 184 0 
L 1544 1831 
L 300 3500 
L 978 3500 
L 1906 2253 
L 2834 3500 
L 3513 3500 
z
" transform="scale(0.015625)"/>
       <path id="DejaVuSans-63" d="M 3122 3366 
L 3122 2828 
Q 2878 2963 2633 3030 
Q 2388 3097 2138 3097 
Q 1578 3097 1268 2742 
Q 959 2388 959 1747 
Q 959 1106 1268 751 
Q 1578 397 2138 397 
Q 2388 397 2633 464 
Q 2878 531 3122 666 
L 3122 134 
Q 2881 22 2623 -34 
Q 2366 -91 2075 -91 
Q 1284 -91 818 406 
Q 353 903 353 1747 
Q 353 2603 823 3093 
Q 1294 3584 2113 3584 
Q 2378 3584 2631 3529 
Q 2884 3475 3122 3366 
z
" transform="scale(0.015625)"/>
       <path id="DejaVuSans-64" d="M 2906 2969 
L 2906 4863 
L 3481 4863 
L 3481 0 
L 2906 0 
L 2906 525 
Q 2725 213 2448 61 
Q 2172 -91 1784 -91 
Q 1150 -91 751 415 
Q 353 922 353 1747 
Q 353 2572 751 3078 
Q 1150 3584 1784 3584 
Q 2172 3584 2448 3432 
Q 2725 3281 2906 2969 
z
M 947 1747 
Q 947 1113 1208 752 
Q 1469 391 1925 391 
Q 2381 391 2643 752 
Q 2906 1113 2906 1747 
Q 2906 2381 2643 2742 
Q 2381 3103 1925 3103 
Q 1469 3103 1208 2742 
Q 947 2381 947 1747 
z
" transform="scale(0.015625)"/>
       <path id="DejaVuSans-73" d="M 2834 3397 
L 2834 2853 
Q 2591 2978 2328 3040 
Q 2066 3103 1784 3103 
Q 1356 3103 1142 2972 
Q 928 2841 928 2578 
Q 928 2378 1081 2264 
Q 1234 2150 1697 2047 
L 1894 2003 
Q 2506 1872 2764 1633 
Q 3022 1394 3022 966 
Q 3022 478 2636 193 
Q 2250 -91 1575 -91 
Q 1294 -91 989 -36 
Q 684 19 347 128 
L 347 722 
Q 666 556 975 473 
Q 1284 391 1588 391 
Q 1994 391 2212 530 
Q 2431 669 2431 922 
Q 2431 1156 2273 1281 
Q 2116 1406 1581 1522 
L 1381 1569 
Q 847 1681 609 1914 
Q 372 2147 372 2553 
Q 372 3047 722 3315 
Q 1072 3584 1716 3584 
Q 2034 3584 2315 3537 
Q 2597 3491 2834 3397 
z
" transform="scale(0.015625)"/>
       <path id="DejaVuSans-61" d="M 2194 1759 
Q 1497 1759 1228 1600 
Q 959 1441 959 1056 
Q 959 750 1161 570 
Q 1363 391 1709 391 
Q 2188 391 2477 730 
Q 2766 1069 2766 1631 
L 2766 1759 
L 2194 1759 
z
M 3341 1997 
L 3341 0 
L 2766 0 
L 2766 531 
Q 2569 213 2275 61 
Q 1981 -91 1556 -91 
Q 1019 -91 701 211 
Q 384 513 384 1019 
Q 384 1609 779 1909 
Q 1175 2209 1959 2209 
L 2766 2209 
L 2766 2266 
Q 2766 2663 2505 2880 
Q 2244 3097 1772 3097 
Q 1472 3097 1187 3025 
Q 903 2953 641 2809 
L 641 3341 
Q 956 3463 1253 3523 
Q 1550 3584 1831 3584 
Q 2591 3584 2966 3190 
Q 3341 2797 3341 1997 
z
" transform="scale(0.015625)"/>
       <path id="DejaVuSans-70" d="M 1159 525 
L 1159 -1331 
L 581 -1331 
L 581 3500 
L 1159 3500 
L 1159 2969 
Q 1341 3281 1617 3432 
Q 1894 3584 2278 3584 
Q 2916 3584 3314 3078 
Q 3713 2572 3713 1747 
Q 3713 922 3314 415 
Q 2916 -91 2278 -91 
Q 1894 -91 1617 61 
Q 1341 213 1159 525 
z
M 3116 1747 
Q 3116 2381 2855 2742 
Q 2594 3103 2138 3103 
Q 1681 3103 1420 2742 
Q 1159 2381 1159 1747 
Q 1159 1113 1420 752 
Q 1681 391 2138 391 
Q 2594 391 2855 752 
Q 3116 1113 3116 1747 
z
" transform="scale(0.015625)"/>
       <path id="DejaVuSans-6f" d="M 1959 3097 
Q 1497 3097 1228 2736 
Q 959 2375 959 1747 
Q 959 1119 1226 758 
Q 1494 397 1959 397 
Q 2419 397 2687 759 
Q 2956 1122 2956 1747 
Q 2956 2369 2687 2733 
Q 2419 3097 1959 3097 
z
M 1959 3584 
Q 2709 3584 3137 3096 
Q 3566 2609 3566 1747 
Q 3566 888 3137 398 
Q 2709 -91 1959 -91 
Q 1206 -91 779 398 
Q 353 888 353 1747 
Q 353 2609 779 3096 
Q 1206 3584 1959 3584 
z
" transform="scale(0.015625)"/>
       <path id="DejaVuSans-6c" d="M 603 4863 
L 1178 4863 
L 1178 0 
L 603 0 
L 603 4863 
z
" transform="scale(0.015625)"/>
      </defs>
      <use xlink:href="#DejaVuSans-45"/>
      <use xlink:href="#DejaVuSans-78" x="63.183594"/>
      <use xlink:href="#DejaVuSans-63" x="120.613281"/>
      <use xlink:href="#DejaVuSans-69" x="175.59375"/>
      <use xlink:href="#DejaVuSans-74" x="203.376953"/>
      <use xlink:href="#DejaVuSans-65" x="242.585938"/>
      <use xlink:href="#DejaVuSans-64" x="304.109375"/>
      <use xlink:href="#DejaVuSans-20" x="367.585938"/>
      <use xlink:href="#DejaVuSans-73" x="399.373047"/>
      <use xlink:href="#DejaVuSans-74" x="451.472656"/>
      <use xlink:href="#DejaVuSans-61" x="490.681641"/>
      <use xlink:href="#DejaVuSans-74" x="551.960938"/>
      <use xlink:href="#DejaVuSans-65" x="591.169922"/>
      <use xlink:href="#DejaVuSans-20" x="652.693359"/>
      <use xlink:href="#DejaVuSans-70" x="684.480469"/>
      <use xlink:href="#DejaVuSans-6f" x="747.957031"/>
      <use xlink:href="#DejaVuSans-70" x="809.138672"/>
      <use xlink:href="#DejaVuSans-75" x="872.615234"/>
      <use xlink:href="#DejaVuSans-6c" x="935.994141"/>
      <use xlink:href="#DejaVuSans-61" x="963.777344"/>
      <use xlink:href="#DejaVuSans-74" x="1025.056641"/>
      <use xlink:href="#DejaVuSans-69" x="1064.265625"/>
      <use xlink:href="#DejaVuSans-6f" x="1092.048828"/>
      <use xlink:href="#DejaVuSans-6e" x="1153.230469"/>
     </g>
    </g>
   </g>
   <g id="line2d_27">
    <path d="M 101.139091 437.006386 
L 101.920369 411.357225 
L 102.133445 408.789426 
L 102.20447 408.602258 
L 102.275495 408.759361 
L 102.417546 410.091318 
L 102.701647 416.41991 
L 103.909077 451.071629 
L 103.980102 451.12963 
L 104.122153 450.206163 
L 104.335229 446.368487 
L 104.690355 435.002916 
L 105.400608 410.998287 
L 105.684709 407.712771 
L 105.755734 407.749383 
L 105.897785 408.868714 
L 106.110861 412.988371 
L 106.537013 427.410773 
L 107.17624 448.332156 
L 107.389316 450.961381 
L 107.460341 451.148856 
L 107.531367 450.981468 
L 107.673417 449.597161 
L 107.957518 443.046029 
L 109.164948 407.022695 
L 109.235973 406.933904 
L 109.378024 407.82524 
L 109.5911 411.686048 
L 109.946226 423.244083 
L 110.656479 447.764776 
L 110.94058 451.121528 
L 111.011605 451.081935 
L 111.153656 449.930441 
L 111.366732 445.6996 
L 111.792884 430.88206 
L 112.432111 409.305539 
L 112.645187 406.541772 
L 112.716212 406.32426 
L 112.787238 406.469444 
L 112.929288 407.832997 
L 113.213389 414.43144 
L 114.420819 451.0459 
L 114.491844 451.137764 
L 114.633895 450.232362 
L 114.846971 446.300941 
L 115.202097 434.515954 
L 115.91235 409.42895 
L 116.196451 405.929798 
L 116.267476 405.94752 
L 116.409527 407.072871 
L 116.622603 411.307465 
L 117.048755 426.256052 
L 117.687982 448.108765 
L 117.901058 450.921358 
L 117.972083 451.14663 
L 118.043109 451.004609 
L 118.185159 449.633301 
L 118.46926 442.965154 
L 119.67669 405.757714 
L 119.747715 405.645952 
L 119.889766 406.522766 
L 120.102842 410.439633 
L 120.457968 422.267368 
L 121.168221 447.551684 
L 121.452322 451.107322 
L 121.523348 451.098192 
L 121.665398 449.98242 
L 121.878474 445.74263 
L 122.304626 430.720652 
L 122.943853 408.68162 
L 123.156929 405.812923 
L 123.227954 405.571426 
L 123.29898 405.698701 
L 123.44103 407.045378 
L 123.725131 413.685365 
L 124.364359 438.192338 
L 124.790511 449.679766 
L 125.003586 451.144108 
L 125.145637 450.291489 
L 125.358713 446.407088 
L 125.713839 434.617044 
L 126.495117 407.909148 
L 126.708193 405.728277 
L 126.779219 405.725778 
L 126.921269 406.816375 
L 127.134345 411.015766 
L 127.560497 425.964523 
L 128.199724 447.985017 
L 128.4128 450.885295 
L 128.483825 451.141701 
L 128.554851 451.031391 
L 128.696901 449.724262 
L 128.909977 445.250111 
L 129.336129 430.07195 
L 129.975356 408.654215 
L 130.188432 406.11838 
L 130.259457 405.987279 
L 130.401508 406.817414 
L 130.614584 410.648906 
L 130.96971 422.320854 
L 131.750988 448.876934 
L 131.964064 451.091533 
L 132.03509 451.114082 
L 132.17714 450.0762 
L 132.390216 445.983659 
L 132.816368 431.306682 
L 133.455595 409.609931 
L 133.668671 406.741054 
L 133.739696 406.48437 
L 133.810722 406.589052 
L 133.952772 407.869536 
L 134.165848 412.26996 
L 134.592 427.231483 
L 135.231227 448.435121 
L 135.444303 450.995408 
L 135.515329 451.147991 
L 135.586354 450.941798 
L 135.728404 449.473526 
L 136.012506 442.766992 
L 137.14891 407.592994 
L 137.290961 407.193286 
L 137.433011 408.209184 
L 137.646087 412.217892 
L 138.072239 426.610807 
L 138.711466 447.977023 
L 138.995567 451.134286 
L 139.066593 451.059797 
L 139.208643 449.865824 
L 139.421719 445.653952 
L 139.847871 431.20269 
L 140.487098 410.654468 
L 140.700174 408.176767 
L 140.7712 408.031971 
L 140.842225 408.23603 
L 140.984275 409.67129 
L 141.268377 416.212544 
L 142.475806 451.075394 
L 142.546832 451.128244 
L 142.688882 450.206631 
L 142.901958 446.41547 
L 143.32811 432.640704 
L 143.967337 412.117576 
L 144.251439 409.100012 
L 144.322464 409.179211 
L 144.464514 410.346803 
L 144.67759 414.437885 
L 145.103742 428.459062 
L 145.742969 448.489608 
L 145.956045 450.974975 
L 146.027071 451.148943 
L 146.098096 450.987505 
L 146.240146 449.676666 
L 146.524248 443.521223 
L 147.731677 410.389487 
L 147.802703 410.349779 
L 147.944753 411.254971 
L 148.157829 414.922987 
L 148.583981 428.211056 
L 149.223208 448.094895 
L 149.50731 451.124955 
L 149.578335 451.0875 
L 149.720385 450.04943 
L 149.933461 446.257817 
L 150.359613 433.086158 
L 150.998841 414.207951 
L 151.211916 411.889626 
L 151.282942 411.738731 
L 151.353967 411.9067 
L 151.496018 413.182273 
L 151.780119 419.097368 
L 152.987548 451.060559 
L 153.058574 451.139368 
L 153.200624 450.365006 
L 153.4137 447.015266 
L 153.768827 437.039159 
L 154.479079 416.117846 
L 154.763181 413.334125 
L 154.834206 413.387333 
L 154.976256 414.402035 
L 155.189332 418.032792 
L 155.615484 430.580329 
L 156.254712 448.654797 
L 156.467787 450.96118 
L 156.538813 451.146833 
L 156.609838 451.033329 
L 156.751889 449.924397 
L 157.03599 444.546572 
L 158.24342 415.12111 
L 158.314445 415.068631 
L 158.456495 415.834619 
L 158.669571 419.029865 
L 159.095723 430.71376 
L 159.73495 448.341755 
L 160.019052 451.114802 
L 160.090077 451.111992 
L 160.232127 450.261834 
L 160.445203 447.024624 
L 160.871355 435.621813 
L 161.510583 419.142754 
L 161.723658 417.081977 
L 161.794684 416.934411 
L 161.865709 417.063676 
L 162.00776 418.13863 
L 162.291861 423.216259 
L 163.499291 451.04926 
L 163.570316 451.146405 
L 163.712366 450.539015 
L 163.925442 447.743288 
L 164.280569 439.287148 
L 164.990822 421.395805 
L 165.274923 418.965556 
L 165.345948 418.995205 
L 165.487999 419.828118 
L 165.701074 422.875817 
L 166.127226 433.498249 
L 166.766454 448.929833 
L 166.979529 450.957137 
L 167.050555 451.142114 
L 167.12158 451.075073 
L 167.263631 450.197494 
L 167.547732 445.774213 
L 168.755162 421.14012 
L 168.826187 421.081845 
L 168.968237 421.691269 
L 169.181313 424.31301 
L 169.53644 432.127943 
L 170.246693 448.712117 
L 170.530794 451.105654 
L 170.601819 451.130975 
L 170.74387 450.485502 
L 170.956945 447.898293 
L 171.383097 438.640943 
L 172.022325 425.14976 
L 172.235401 423.433494 
L 172.306426 423.300105 
L 172.377451 423.392063 
L 172.519502 424.240989 
L 172.803603 428.326803 
L 174.011033 451.044377 
L 174.082058 451.148971 
L 174.153083 451.037696 
L 174.295134 450.182687 
L 174.579235 446.233221 
L 175.715639 425.818608 
L 175.85769 425.635456 
L 175.999741 426.272824 
L 176.212816 428.657421 
L 176.638968 437.035054 
L 177.278196 449.305138 
L 177.562297 451.136126 
L 177.633322 451.108828 
L 177.775373 450.472211 
L 177.988449 448.178694 
L 178.4146 440.313476 
L 178.982803 430.063855 
L 179.266904 428.024118 
L 179.337929 427.968979 
L 179.47998 428.418523 
L 179.693055 430.41046 
L 180.048182 436.394619 
L 180.82946 449.91728 
L 181.042536 451.100152 
L 181.113561 451.143018 
L 181.255612 450.700176 
L 181.468688 448.805921 
L 181.894839 441.907373 
L 182.534067 431.776659 
L 182.747143 430.47024 
L 182.818168 430.362234 
L 182.889193 430.422481 
L 183.031244 431.039578 
L 183.315345 434.057911 
L 184.522775 451.049151 
L 184.5938 451.147822 
L 184.664825 451.088106 
L 184.806876 450.504611 
L 185.090977 447.693862 
L 186.227382 432.929349 
L 186.369432 432.784561 
L 186.511483 433.230453 
L 186.724559 434.927571 
L 187.15071 440.922317 
L 187.789938 449.758742 
L 188.074039 451.131236 
L 188.145064 451.132011 
L 188.287115 450.722953 
L 188.500191 449.165295 
L 188.926342 443.735826 
L 189.494545 436.622086 
L 189.778646 435.195651 
L 189.920696 435.240152 
L 190.062747 435.793037 
L 190.346848 438.240331 
L 191.483253 450.93453 
L 191.625303 451.148282 
L 191.767354 450.885695 
L 191.98043 449.663357 
L 192.406581 445.125796 
L 193.045809 438.431892 
L 193.258885 437.565503 
L 193.400935 437.529675 
L 193.542986 437.930671 
L 193.827087 439.902613 
L 195.034517 451.066165 
L 195.176567 451.122707 
L 195.318618 450.781519 
L 195.602719 449.05153 
L 196.739124 439.855399 
L 196.881174 439.765551 
L 197.023225 440.041928 
L 197.236301 441.092093 
L 197.662452 444.792298 
L 198.30168 450.250765 
L 198.585781 451.130412 
L 198.727832 451.075651 
L 198.940907 450.400943 
L 199.296034 448.055644 
L 200.077312 442.440675 
L 200.290388 441.931083 
L 200.432438 441.961218 
L 200.645514 442.5498 
L 201.000641 444.69975 
L 201.852944 450.603435 
L 202.06602 451.111641 
L 202.208071 451.119787 
L 202.421146 450.654127 
L 202.776273 448.874951 
L 203.557551 444.402574 
L 203.841652 443.919543 
L 203.983703 444.025781 
L 204.196778 444.599169 
L 204.551905 446.400706 
L 205.333183 450.646117 
L 205.617284 451.143785 
L 205.759335 451.088998 
L 205.972411 450.652418 
L 206.327537 449.221002 
L 207.03779 446.163169 
L 207.321891 445.758215 
L 207.463942 445.815243 
L 207.677017 446.212709 
L 208.032144 447.521561 
L 208.884447 450.875045 
L 209.168548 451.148581 
L 209.381624 450.973271 
L 209.665725 450.318406 
L 210.660079 447.480612 
L 210.873155 447.384218 
L 211.086231 447.559782 
L 211.370332 448.157641 
L 212.506737 451.086289 
L 212.719813 451.142102 
L 212.932888 450.985481 
L 213.288015 450.370458 
L 214.069293 448.889707 
L 214.353394 448.761345 
L 214.637495 448.93848 
L 214.992622 449.497671 
L 215.844925 450.988634 
L 216.129026 451.145954 
L 216.413127 451.072331 
L 216.839279 450.651894 
L 217.549532 449.923654 
L 217.904658 449.868319 
L 218.259785 450.062779 
L 219.609265 451.145178 
L 220.035417 451.07552 
L 221.313872 450.638262 
L 221.882074 450.790807 
L 223.018479 451.142771 
L 223.941808 451.089592 
L 225.078212 451.088069 
L 227.279996 451.148724 
L 230.973311 451.042349 
L 232.393816 450.718197 
L 233.033044 450.939063 
L 233.743297 451.14867 
L 234.169448 451.011607 
L 234.666625 450.570298 
L 235.376878 449.921164 
L 235.732005 449.870819 
L 236.087131 450.082078 
L 237.294561 451.142677 
L 237.578662 450.95989 
L 237.933789 450.403437 
L 238.928143 448.581116 
L 239.141218 448.529774 
L 239.354294 448.671204 
L 239.709421 449.282774 
L 240.561724 451.064368 
L 240.7748 451.145557 
L 240.987876 450.974626 
L 241.271977 450.361153 
L 241.840179 448.326708 
L 242.337356 446.879519 
L 242.550432 446.677116 
L 242.763508 446.798192 
L 243.047609 447.44051 
L 243.615811 449.66181 
L 244.041963 450.963762 
L 244.255039 451.148857 
L 244.397089 451.05035 
L 244.610165 450.562395 
L 244.965292 448.977574 
L 245.817595 444.633856 
L 246.030671 444.290817 
L 246.172722 444.335407 
L 246.385797 444.813427 
L 246.740924 446.516358 
L 247.522202 450.791968 
L 247.735278 451.145212 
L 247.877328 451.056088 
L 248.090404 450.421192 
L 248.445531 448.212798 
L 249.368859 441.644333 
L 249.581935 441.320892 
L 249.723986 441.500494 
L 249.937062 442.343893 
L 250.292188 444.947216 
L 251.002441 450.520687 
L 251.215517 451.122582 
L 251.357567 451.076672 
L 251.570643 450.310243 
L 251.854744 448.118978 
L 252.991149 437.848508 
L 253.133199 437.808621 
L 253.27525 438.200246 
L 253.559351 440.168127 
L 254.198579 447.530793 
L 254.553705 450.542624 
L 254.766781 451.147086 
L 254.908832 450.941484 
L 255.121907 449.713132 
L 255.477034 445.615882 
L 256.329337 434.482758 
L 256.542413 433.640334 
L 256.613438 433.63716 
L 256.755489 434.055261 
L 256.968565 435.68617 
L 257.394716 441.558251 
L 258.033944 450.149361 
L 258.24702 451.120602 
L 258.318045 451.13596 
L 258.460096 450.684958 
L 258.673172 448.843393 
L 259.028298 443.29505 
L 259.809576 430.175675 
L 260.022652 428.922091 
L 260.093677 428.854025 
L 260.235728 429.258328 
L 260.448804 431.15716 
L 260.80393 437.005447 
L 261.514183 449.588045 
L 261.727259 451.045282 
L 261.798284 451.148965 
L 261.869309 451.051865 
L 262.01136 450.25429 
L 262.295461 446.419946 
L 262.863663 433.525373 
L 263.36084 424.618578 
L 263.573916 423.466071 
L 263.644941 423.523092 
L 263.786992 424.304286 
L 264.000068 427.035887 
L 264.42622 436.442592 
L 264.994422 448.81663 
L 265.278523 451.124971 
L 265.349548 451.110353 
L 265.491599 450.338685 
L 265.704675 447.40441 
L 266.059801 438.81418 
L 266.841079 419.189051 
L 267.054155 417.489943 
L 267.12518 417.456317 
L 267.267231 418.204045 
L 267.480307 421.254859 
L 267.835433 430.260502 
L 268.545686 448.995486 
L 268.758762 451.037884 
L 268.829787 451.14627 
L 268.971838 450.467619 
L 269.184914 447.280664 
L 269.54004 437.331781 
L 270.321318 413.342732 
L 270.534394 410.952297 
L 270.605419 410.786626 
L 270.676445 410.947148 
L 270.818495 412.235624 
L 271.102596 418.314719 
L 272.310026 451.13424 
L 272.381051 451.059114 
L 272.523102 449.846432 
L 272.736178 445.507604 
L 273.16233 430.201059 
L 273.801557 407.130353 
L 274.085658 403.544832 
L 274.156684 403.583754 
L 274.298734 404.809496 
L 274.51181 409.341556 
L 274.937962 425.296327 
L 275.577189 448.367339 
L 275.790265 451.043628 
L 275.86129 451.13184 
L 276.003341 450.061134 
L 276.216417 445.459229 
L 276.571543 431.492788 
L 277.352821 398.789146 
L 277.565897 395.772002 
L 277.636923 395.640175 
L 277.778973 396.71864 
L 277.992049 401.526994 
L 278.347175 416.096308 
L 279.057428 447.165688 
L 279.270504 450.838886 
L 279.341529 451.144468 
L 279.412555 450.969295 
L 279.554605 449.179205 
L 279.767681 443.106958 
L 280.193833 422.229354 
L 280.83306 391.577613 
L 281.046136 387.519165 
L 281.117161 387.161899 
L 281.188187 387.321149 
L 281.330237 389.176237 
L 281.543313 395.535413 
L 281.969465 417.216185 
L 282.537667 445.624633 
L 282.821768 451.062052 
L 282.892794 451.09576 
L 283.034844 449.507413 
L 283.24792 443.177714 
L 283.603046 424.464607 
L 284.384325 381.837051 
L 284.5974 378.204479 
L 284.668426 378.149582 
L 284.810476 379.802135 
L 285.023552 386.438919 
L 285.449704 410.518572 
L 286.088931 446.313968 
L 286.302007 450.845204 
L 286.373032 451.148932 
L 286.444058 450.825137 
L 286.586108 448.307265 
L 286.870209 436.43395 
L 287.438412 397.423521 
L 287.864563 373.707567 
L 288.077639 368.832935 
L 288.148665 368.502316 
L 288.21969 368.839184 
L 288.36174 371.489232 
L 288.645842 383.923446 
L 289.853271 451.089974 
L 289.924297 451.025065 
L 290.066347 448.778867 
L 290.279423 440.400813 
L 290.705575 410.515697 
L 291.344802 365.438395 
L 291.628904 358.448811 
L 291.699929 358.524185 
L 291.841979 360.907136 
L 292.055055 369.709831 
L 292.481207 400.65435 
L 293.120434 445.500256 
L 293.33351 450.876288 
L 293.404536 451.137709 
L 293.546586 449.289843 
L 293.759662 440.832105 
L 294.114788 414.812714 
L 294.896067 353.711732 
L 295.109142 348.067029 
L 295.180168 347.813271 
L 295.322218 349.802288 
L 295.535294 358.713099 
L 295.890421 385.721704 
L 296.600673 443.458211 
L 296.884775 451.120949 
L 296.9558 450.903306 
L 297.09785 447.846131 
L 297.310926 437.099061 
L 297.737078 399.740334 
L 298.376306 344.745137 
L 298.589381 337.442299 
L 298.660407 336.78852 
L 298.731432 337.057728 
L 298.873483 340.340107 
L 299.086558 351.644659 
L 299.51271 390.232104 
L 300.151938 444.769407 
L 300.365014 450.929768 
L 300.436039 451.097103 
L 300.578089 448.530059 
L 300.791165 437.767824 
L 301.146292 405.548514 
L 301.92757 331.858635 
L 302.140646 325.539112 
L 302.211671 325.423937 
L 302.353721 328.227222 
L 302.566797 339.58457 
L 302.992949 380.880036 
L 303.632177 442.507077 
L 303.845252 450.517309 
L 303.916278 451.144526 
L 303.987303 450.709951 
L 304.129354 446.677625 
L 304.413455 427.056418 
L 304.981657 361.995535 
L 305.407809 322.348284 
L 305.620885 314.159907 
L 305.69191 313.585598 
L 305.762935 314.122209 
L 305.904986 318.483357 
L 306.189087 339.067973 
L 307.396517 450.999078 
L 307.467542 451.00889 
L 307.609593 447.563302 
L 307.822668 434.198185 
L 308.24882 385.987676 
L 308.888048 313.018532 
L 309.172149 301.640734 
L 309.243174 301.737384 
L 309.385225 305.530191 
L 309.5983 319.646167 
L 310.024452 369.376665 
L 310.66368 441.718876 
L 310.876756 450.613566 
L 310.947781 451.145323 
L 311.018806 450.419615 
L 311.160857 445.238914 
L 311.444958 421.368745 
L 312.652388 289.69101 
L 312.723413 289.270532 
L 312.865464 292.340205 
L 313.078539 306.224487 
L 313.433666 348.390062 
L 314.143919 438.774868 
L 314.42802 451.072293 
L 314.499045 450.849387 
L 314.641096 446.353926 
L 314.854172 430.09966 
L 315.280323 373.113702 
L 315.919551 289.031959 
L 316.132627 277.839972 
L 316.203652 276.825604 
L 316.274677 277.218586 
L 316.416728 282.18665 
L 316.629804 299.358106 
L 317.055955 358.024751 
L 317.695183 441.147893 
L 317.908259 450.743369 
L 317.979284 451.101876 
L 318.121335 447.452801 
L 318.33441 431.58696 
L 318.689537 383.69087 
L 319.470815 273.929626 
L 319.683891 264.507888 
L 319.754916 264.328659 
L 319.896967 268.477926 
L 320.110043 285.321125 
L 320.536194 346.560642 
L 321.175422 438.057177 
L 321.388498 450.11391 
L 321.459523 451.130728 
L 321.530548 450.588355 
L 321.672599 444.861524 
L 321.9567 416.466487 
L 322.524902 321.896553 
L 322.951054 264.295984 
L 323.16413 252.422155 
L 323.235155 251.594482 
L 323.30618 252.378982 
L 323.448231 258.716069 
L 323.732332 288.571405 
L 324.939762 450.891341 
L 325.010787 450.985332 
L 325.152838 446.20425 
L 325.365914 427.292973 
L 325.792065 358.780023 
L 326.431293 255.180525 
L 326.715394 239.121496 
L 326.786419 239.283406 
L 326.92847 244.710918 
L 327.141546 264.783715 
L 327.567697 335.280546 
L 328.206925 437.668891 
L 328.420001 450.342096 
L 328.491026 451.147352 
L 328.562051 450.187789 
L 328.704102 443.040079 
L 328.988203 409.8406 
L 330.195633 227.012163 
L 330.266658 226.47737 
L 330.408709 230.836217 
L 330.621785 250.233203 
L 330.976911 308.832825 
L 331.687164 433.977638 
L 331.971265 451.032613 
L 332.04229 450.758007 
L 332.184341 444.647256 
L 332.397417 422.445499 
L 332.823568 344.649138 
L 333.462796 230.379412 
L 333.675872 215.364147 
L 333.746897 214.062896 
L 333.817922 214.677238 
L 333.959973 221.59014 
L 334.244074 256.02998 
L 334.883302 383.939751 
L 335.309453 443.828347 
L 335.522529 451.085074 
L 335.66458 446.168176 
L 335.877656 424.830961 
L 336.232782 360.59228 
L 337.01406 214.382884 
L 337.227136 202.136636 
L 337.298161 202.013909 
L 337.440212 207.779514 
L 337.653288 230.549681 
L 338.079439 312.489315 
L 338.718667 433.972355 
L 338.931743 449.827022 
L 339.002768 451.130806 
L 339.073793 450.371933 
L 339.215844 442.725096 
L 339.499945 405.144899 
L 340.068147 280.87107 
L 340.494299 205.901048 
L 340.707375 190.788203 
L 340.7784 189.863433 
L 340.849426 191.05128 
L 340.991476 199.66175 
L 341.275577 239.256789 
L 342.483007 450.862 
L 342.554032 450.895049 
L 342.696083 444.514828 
L 342.909159 419.770381 
L 343.335311 330.96582 
L 343.974538 198.202157 
L 344.258639 178.313394 
L 344.329665 178.733019 
L 344.471715 186.131736 
L 344.684791 212.502577 
L 345.110943 303.696128 
L 345.75017 434.454955 
L 345.963246 450.251282 
L 346.034271 451.136064 
L 346.105297 449.767507 
L 346.247347 440.372988 
L 346.531448 397.641909 
L 347.738878 167.442384 
L 347.809903 167.034726 
L 347.951954 173.083607 
L 348.16503 198.34067 
L 348.520156 273.165087 
L 349.230409 430.396176 
L 349.51451 451.066699 
L 349.585536 450.515151 
L 349.727586 442.442795 
L 349.940662 414.083071 
L 350.366814 316.280499 
L 351.006041 175.088016 
L 351.219117 157.318779 
L 351.290142 156.032095 
L 351.361168 157.132896 
L 351.503218 166.394276 
L 351.787319 210.348508 
L 352.994749 450.664994 
L 353.065774 450.983354 
L 353.207825 444.361286 
L 353.420901 417.293737 
L 353.776027 337.435003 
L 354.48628 168.871615 
L 354.770381 145.790273 
L 354.841407 146.049574 
L 354.983457 153.924531 
L 355.196533 182.90932 
L 355.622685 284.420381 
L 356.261912 431.585647 
L 356.474988 449.915748 
L 356.546013 451.148898 
L 356.617039 449.868832 
L 356.759089 439.872828 
L 357.04319 393.064749 
L 358.25062 136.362972 
L 358.321646 135.736345 
L 358.463696 142.111776 
L 358.676772 169.696151 
L 359.031898 252.278587 
L 359.742151 427.333367 
L 360.026252 450.995102 
L 360.097278 450.591282 
L 360.239328 442.068613 
L 360.452404 411.264162 
L 360.878556 303.888313 
L 361.517783 147.74467 
L 361.730859 127.79185 
L 361.801884 126.243174 
L 361.87291 127.324844 
L 362.01496 137.272824 
L 362.299061 185.258014 
L 363.506491 450.512032 
L 363.577517 451.021505 
L 363.719567 444.071937 
L 363.932643 414.818572 
L 364.287769 327.790376 
L 364.998022 143.160705 
L 365.282123 117.607889 
L 365.353149 117.808235 
L 365.495199 126.253866 
L 365.708275 157.715408 
L 366.134427 268.385261 
L 366.773654 429.413444 
L 366.98673 449.696499 
L 367.057756 451.147728 
L 367.128781 449.861695 
L 367.270831 439.188901 
L 367.554932 388.616392 
L 368.762362 109.855945 
L 368.833388 109.146482 
L 368.975438 116.006182 
L 369.188514 145.852814 
L 369.54364 235.329725 
L 370.253893 425.171612 
L 370.537994 450.964665 
L 370.60902 450.578731 
L 370.75107 441.465707 
L 370.964146 408.319718 
L 371.390298 292.601986 
L 372.029525 124.420502 
L 372.242601 103.000465 
L 372.313627 101.361116 
L 372.384652 102.556106 
L 372.526702 113.330895 
L 372.810804 165.109708 
L 374.018233 450.473305 
L 374.089259 451.008295 
L 374.231309 443.523723 
L 374.444385 412.104151 
L 374.799511 318.788299 
L 375.509764 121.461322 
L 375.793865 94.461513 
L 375.864891 94.76953 
L 376.006941 103.990552 
L 376.220017 137.894412 
L 376.646169 256.5067 
L 377.285396 428.257035 
L 377.498472 449.680512 
L 377.569498 451.148987 
L 377.640523 449.697174 
L 377.782573 438.160989 
L 378.066675 384.012208 
L 379.274104 88.445294 
L 379.34513 87.853157 
L 379.48718 95.467072 
L 379.700256 127.627169 
L 380.055383 223.156367 
L 380.765635 424.223494 
L 381.049737 451.005042 
L 381.120762 450.443157 
L 381.262812 440.486772 
L 381.475888 404.982365 
L 381.90204 282.135625 
L 382.541267 105.27585 
L 382.754343 83.298971 
L 382.825369 81.801192 
L 382.896394 83.299353 
L 383.038444 95.141807 
L 383.322546 150.601468 
L 384.529975 450.585793 
L 384.601001 450.91997 
L 384.743051 442.582119 
L 384.956127 408.888291 
L 385.382279 286.67276 
L 386.021506 103.791297 
L 386.305608 76.597123 
L 386.376633 77.233346 
L 386.518683 87.532454 
L 386.731759 123.955509 
L 387.157911 249.341067 
L 387.797139 428.323868 
L 388.010214 449.905001 
L 388.08124 451.134176 
L 388.152265 449.302982 
L 388.294316 436.618156 
L 388.578417 378.93849 
L 389.785846 72.214642 
L 389.856872 71.988735 
L 389.998922 80.71855 
L 390.211998 115.35607 
L 390.63815 239.999846 
L 391.277377 424.662543 
L 391.490453 448.980095 
L 391.561479 451.096602 
L 391.632504 450.116495 
L 391.774554 438.971747 
L 392.058656 383.406959 
L 392.697883 177.105647 
L 393.124035 80.003356 
L 393.337111 67.536861 
L 393.479161 74.684899 
L 393.692237 107.458742 
L 394.047364 207.124296 
L 394.757616 420.863805 
L 395.041718 450.821615 
L 395.112743 450.687062 
L 395.254793 441.095631 
L 395.467869 404.90807 
L 395.894021 276.989319 
L 396.533249 89.849476 
L 396.746324 65.76692 
L 396.81735 63.840904 
L 396.888375 65.060694 
L 397.030425 76.809992 
L 397.314527 133.892957 
L 398.521956 450.326339 
L 398.592982 451.026199 
L 398.735032 442.98907 
L 398.948108 408.668051 
L 399.303235 306.363232 
L 400.013487 90.182689 
L 400.297589 60.857136 
L 400.368614 61.273192 
L 400.510664 71.537277 
L 400.72374 108.902105 
L 401.149892 239.012193 
L 401.78912 426.48084 
L 402.002195 449.629863 
L 402.073221 451.148137 
L 402.144246 449.481383 
L 402.286297 436.747053 
L 402.570398 377.540007 
L 403.777828 58.536255 
L 403.848853 58.162525 
L 403.990903 66.947768 
L 404.203979 102.518803 
L 404.630131 231.386967 
L 405.269358 423.217504 
L 405.482434 448.752433 
L 405.55346 451.06907 
L 405.624485 450.180841 
L 405.766535 438.894822 
L 405.979611 399.920712 
L 406.405763 267.104873 
L 407.044991 79.106321 
L 407.258066 56.824769 
L 407.329092 55.679062 
L 407.471142 63.000978 
L 407.684218 96.750334 
L 408.039345 199.498686 
L 408.749597 419.89716 
L 409.033699 450.806412 
L 409.104724 450.679668 
L 409.246774 440.827506 
L 409.45985 403.615448 
L 409.886002 272.126973 
L 410.52523 80.17976 
L 410.738305 55.666386 
L 410.809331 53.769573 
L 410.880356 55.105033 
L 411.022407 67.334866 
L 411.306508 126.22853 
L 412.513937 450.378084 
L 412.584963 450.992811 
L 412.727013 442.552582 
L 412.940089 407.116502 
L 413.295216 302.101648 
L 414.005468 81.649937 
L 414.28957 52.378604 
L 414.360595 52.997274 
L 414.502645 63.873111 
L 414.715721 102.583993 
L 415.141873 236.10437 
L 415.781101 426.775381 
L 415.994176 449.801856 
L 416.065202 451.135865 
L 416.136227 449.218286 
L 416.278278 435.803125 
L 416.562379 374.714437 
L 417.698783 54.77797 
L 417.840834 51.371338 
L 417.982884 60.916363 
L 418.19596 97.946598 
L 418.622112 230.026293 
L 419.261339 424.035751 
L 419.474415 449.094758 
L 419.545441 451.124465 
L 419.616466 449.893055 
L 419.758516 437.77788 
L 420.042618 378.722268 
L 421.250047 50.927312 
L 421.321073 50.172603 
L 421.463123 58.414183 
L 421.676199 93.766052 
L 422.031326 199.168876 
L 422.741578 421.275667 
L 423.02568 450.973737 
L 423.096705 450.408585 
L 423.238755 439.567662 
L 423.451831 400.726899 
L 423.877983 266.397743 
L 424.517211 74.12536 
L 424.730286 50.756771 
L 424.801312 49.347354 
L 424.872337 51.210369 
L 425.014388 64.580003 
L 425.298489 125.818662 
L 426.434893 447.34939 
L 426.576944 450.778543 
L 426.718994 441.183649 
L 426.93207 403.950941 
L 427.358222 271.143394 
L 427.997449 76.081581 
L 428.210525 50.886636 
L 428.281551 48.843949 
L 428.352576 50.078518 
L 428.494626 62.246273 
L 428.778728 121.56189 
L 429.986157 450.309519 
L 430.057183 451.015884 
L 430.199233 442.637687 
L 430.412309 406.999509 
L 430.767436 301.017 
L 431.477688 78.212216 
L 431.76179 48.613884 
L 431.832815 49.237526 
L 431.974865 60.227695 
L 432.187941 99.348104 
L 432.614093 234.241493 
L 433.253321 426.666456 
L 433.466396 449.819892 
L 433.537422 451.132478 
L 433.608447 449.162468 
L 433.750498 435.55553 
L 434.034599 373.806637 
L 435.171003 51.860909 
L 435.242028 48.612741 
L 435.313054 48.642197 
L 435.455104 58.478844 
L 435.66818 96.093397 
L 436.094332 229.501549 
L 436.733559 424.401235 
L 436.946635 449.238117 
L 437.017661 451.138807 
L 437.088686 449.754589 
L 437.230736 437.274518 
L 437.514838 377.355603 
L 438.722267 48.801025 
L 438.793293 48.251748 
L 438.935343 56.957575 
L 439.148419 93.077554 
L 439.574571 224.941182 
L 440.213798 422.111603 
L 440.4979 451.04373 
L 440.568925 450.231332 
L 440.710975 438.85812 
L 440.924051 399.196848 
L 441.350203 263.624635 
L 441.98943 71.759018 
L 442.202506 49.144869 
L 442.273532 48.030593 
L 442.415582 55.625928 
L 442.628658 90.261943 
L 442.983784 195.345719 
L 443.694037 419.794581 
L 443.978138 450.854305 
L 444.049164 450.601588 
L 444.191214 440.317878 
L 444.40429 402.086342 
L 444.830442 267.952398 
L 445.469669 73.809841 
L 445.682745 49.616608 
L 445.753771 47.949 
L 445.824796 49.569242 
L 445.966846 62.514448 
L 446.250948 123.229326 
L 447.458377 450.575678 
L 447.529403 450.872687 
L 447.671453 441.664643 
L 447.884529 404.858487 
L 448.310681 272.210308 
L 448.949908 75.930345 
L 449.162984 50.195229 
L 449.234009 47.983616 
L 449.305035 49.059469 
L 449.447085 60.950077 
L 449.731186 119.924058 
L 450.370414 337.577182 
L 450.796566 438.780381 
L 451.009642 451.050246 
L 451.151692 442.90827 
L 451.364768 407.527403 
L 451.719894 301.659333 
L 452.430147 78.114594 
L 452.714248 48.117876 
L 452.785274 48.654492 
L 452.927324 59.495566 
L 453.1404 98.469403 
L 453.566552 233.382943 
L 454.205779 426.391373 
L 454.418855 449.761493 
L 454.489881 451.138068 
L 454.560906 449.226296 
L 454.702956 435.71557 
L 454.987058 374.065269 
L 456.123462 51.624096 
L 456.265513 48.342269 
L 456.407563 58.13422 
L 456.620639 95.720404 
L 457.046791 229.200224 
L 457.686018 424.336992 
L 457.899094 449.226296 
L 457.970119 451.138068 
L 458.041145 449.761493 
L 458.183195 437.286401 
L 458.467296 377.340636 
L 459.674726 48.654492 
L 459.745752 48.117876 
L 459.887802 56.856087 
L 460.100878 93.036943 
L 460.52703 225.021173 
L 461.166257 422.201761 
L 461.379333 448.602692 
L 461.450358 451.050246 
L 461.521384 450.211018 
L 461.663434 438.780381 
L 461.87651 399.03209 
L 462.302662 263.339293 
L 462.941889 71.570909 
L 463.154965 49.059469 
L 463.225991 47.983616 
L 463.368041 55.658224 
L 463.581117 90.408812 
L 463.936243 195.628008 
L 464.646496 419.973961 
L 464.930597 450.872687 
L 465.001623 450.575678 
L 465.143673 440.203822 
L 465.356749 401.852632 
L 465.782901 267.58891 
L 466.422128 73.628317 
L 466.635204 49.569242 
L 466.706229 47.949 
L 466.777255 49.616608 
L 466.919305 62.653349 
L 467.203406 123.517716 
L 468.410836 450.601588 
L 468.481862 450.854305 
L 468.623912 441.561082 
L 468.836988 404.646342 
L 469.26314 271.902501 
L 469.902367 75.820159 
L 470.115443 50.202746 
L 470.186468 48.030593 
L 470.257494 49.144869 
L 470.399544 61.106633 
L 470.683645 120.18492 
L 471.322873 337.815935 
L 471.749025 438.85812 
L 471.9621 451.04373 
L 472.104151 442.854372 
L 472.317227 407.424076 
L 472.672353 301.54499 
L 473.382606 78.176582 
L 473.666707 48.251748 
L 473.737733 48.801025 
L 473.879783 59.659153 
L 474.092859 98.636362 
L 474.519011 233.487864 
L 475.158238 426.381949 
L 475.371314 449.754589 
L 475.442339 451.138807 
L 475.513365 449.238117 
L 475.655415 435.759371 
L 475.939516 374.204312 
L 477.075921 51.948848 
L 477.217972 48.612741 
L 477.360022 58.333703 
L 477.573098 95.792551 
L 477.99925 229.024274 
L 478.638477 424.140121 
L 478.851553 449.162468 
L 478.922578 451.132478 
L 478.993604 449.819892 
L 479.135654 437.486227 
L 479.419755 377.844818 
L 480.627185 49.237526 
L 480.69821 48.613884 
L 480.840261 57.159782 
L 481.053337 93.03073 
L 481.408463 199.256278 
L 482.118716 421.745042 
L 482.402817 451.015884 
L 482.473843 450.309519 
L 482.615893 439.164249 
L 482.828969 399.859064 
L 483.255121 264.869587 
L 483.894348 72.981384 
L 484.107424 50.078518 
L 484.178449 48.843949 
L 484.249475 50.886636 
L 484.391525 64.617406 
L 484.675626 126.498271 
L 485.812031 447.589927 
L 485.883056 450.778543 
L 485.954081 450.697831 
L 486.096132 440.788057 
L 486.309208 403.148818 
L 486.73536 270.003571 
L 487.374587 75.869074 
L 487.587663 51.210369 
L 487.658688 49.347354 
L 487.729714 50.756771 
L 487.871764 63.247629 
L 488.155865 123.029524 
L 489.363295 450.408585 
L 489.43432 450.973737 
L 489.576371 442.349452 
L 489.789447 406.46895 
L 490.215599 275.367837 
L 490.854826 79.124812 
L 491.138927 50.172603 
L 491.209953 50.927312 
L 491.352003 62.12566 
L 491.565079 101.398672 
L 491.991231 235.985432 
L 492.630458 427.090407 
L 492.843534 449.893055 
L 492.914559 451.124465 
L 492.985585 449.094758 
L 493.127635 435.438736 
L 493.411736 373.88823 
L 494.548141 54.543999 
L 494.619166 51.371338 
L 494.690191 51.449824 
L 494.832242 61.301389 
L 495.045318 98.730544 
L 495.47147 231.175703 
L 496.110697 424.522675 
L 496.323773 449.218286 
L 496.394798 451.135865 
L 496.465824 449.801856 
L 496.607874 437.52104 
L 496.891975 378.353371 
L 498.099405 52.997274 
L 498.17043 52.378604 
L 498.312481 60.828661 
L 498.525557 96.30666 
L 498.880683 201.389939 
L 499.590936 421.757201 
L 499.875037 450.992811 
L 499.946063 450.378084 
L 500.088113 439.532742 
L 500.301189 400.934152 
L 500.727341 267.87839 
L 501.366568 78.030857 
L 501.579644 55.105033 
L 501.650669 53.769573 
L 501.721695 55.666386 
L 501.863745 68.980072 
L 502.147846 129.63376 
L 503.284251 447.335553 
L 503.426301 450.806412 
L 503.568352 441.455765 
L 503.781428 404.949981 
L 504.20758 274.510588 
L 504.846807 82.661258 
L 505.059883 57.748895 
L 505.130908 55.679062 
L 505.201934 56.824769 
L 505.343984 68.634789 
L 505.628085 126.610653 
L 506.835515 450.180841 
L 506.90654 451.06907 
L 507.048591 443.269761 
L 507.261667 408.976188 
L 507.616793 306.030206 
L 508.327046 87.886273 
L 508.611147 58.162525 
L 508.682172 58.536255 
L 508.824223 68.783939 
L 509.037299 106.280418 
L 509.463451 237.05923 
L 510.102678 425.883805 
L 510.315754 449.481383 
L 510.386779 451.148137 
L 510.457805 449.629863 
L 510.599855 437.19379 
L 510.883956 378.593524 
L 512.091386 61.273192 
L 512.162411 60.857136 
L 512.304462 69.488134 
L 512.517538 104.662469 
L 512.94369 232.335208 
L 513.582917 422.877361 
L 513.867018 451.026199 
L 513.938044 450.326339 
L 514.080094 439.554435 
L 514.29317 401.665925 
L 514.719322 271.733065 
L 515.358549 87.149731 
L 515.571625 65.060694 
L 515.64265 63.840904 
L 515.713676 65.76692 
L 515.855726 78.878265 
L 516.139827 138.157758 
L 517.276232 447.428033 
L 517.418282 450.821615 
L 517.560333 441.766705 
L 517.773409 406.368569 
L 518.199561 279.869353 
L 518.838788 93.783948 
L 519.051864 69.569694 
L 519.122889 67.536861 
L 519.193915 68.618738 
L 519.335965 80.003356 
L 519.620066 136.063614 
L 520.259294 342.552424 
L 520.685446 438.971747 
L 520.898521 451.096602 
L 521.040572 443.803449 
L 521.253648 411.013093 
L 521.608774 311.987264 
L 522.319027 101.142489 
L 522.603128 71.988735 
L 522.674154 72.214642 
L 522.816204 81.826003 
L 523.02928 117.60448 
L 523.455432 243.251825 
L 524.094659 425.965802 
L 524.307735 449.302982 
L 524.37876 451.134176 
L 524.449786 449.905001 
L 524.591836 438.404167 
L 524.875937 382.875243 
L 526.083367 77.233346 
L 526.154392 76.597123 
L 526.296443 84.398548 
L 526.509519 117.468149 
L 526.864645 215.717661 
L 527.574898 422.748599 
L 527.858999 450.91997 
L 527.930025 450.585793 
L 528.072075 440.951496 
L 528.285151 405.64472 
L 528.711303 282.577943 
L 529.35053 105.295739 
L 529.563606 83.299353 
L 529.634631 81.801192 
L 529.705657 83.298971 
L 529.847707 95.133187 
L 530.131808 150.504267 
L 531.339238 450.443157 
L 531.410263 451.005042 
L 531.552314 443.265427 
L 531.76539 410.829046 
L 532.191542 292.154381 
L 532.830769 114.329698 
L 533.11487 87.853157 
L 533.185896 88.445294 
L 533.327946 98.374711 
L 533.541022 133.570635 
L 533.967174 254.767878 
L 534.606401 428.257372 
L 534.819477 449.697174 
L 534.890502 451.148987 
L 534.961528 449.680512 
L 535.103578 438.137778 
L 535.387679 384.250688 
L 536.595109 94.76953 
L 536.666135 94.461513 
L 536.808185 102.469693 
L 537.021261 134.71604 
L 537.447413 251.286023 
L 538.08664 425.089509 
L 538.370741 451.008295 
L 538.441767 450.473305 
L 538.583817 440.909552 
L 538.796893 406.87242 
L 539.223045 289.689623 
L 539.862272 122.738371 
L 540.075348 102.556106 
L 540.146373 101.361116 
L 540.217399 103.000465 
L 540.359449 114.625519 
L 540.64355 167.707878 
L 541.85098 450.578731 
L 541.922006 450.964665 
L 542.064056 443.383206 
L 542.277132 412.430979 
L 542.703284 300.24563 
L 543.342511 133.469342 
L 543.555587 111.207251 
L 543.626612 109.146482 
L 543.697638 109.855945 
L 543.839688 119.489601 
L 544.052764 152.970436 
L 544.478916 267.308406 
L 545.118143 429.967027 
L 545.331219 449.861695 
L 545.402244 451.147728 
L 545.47327 449.696499 
L 545.61532 438.736563 
L 545.899421 388.036416 
L 547.106851 117.808235 
L 547.177877 117.607889 
L 547.319927 125.261242 
L 547.533003 155.612851 
L 547.959155 264.743345 
L 548.598382 426.914083 
L 548.882483 451.021505 
L 548.953509 450.512032 
L 549.095559 441.587496 
L 549.308635 409.890096 
L 549.734787 300.92493 
L 550.374014 145.980876 
L 550.58709 127.324844 
L 550.658116 126.243174 
L 550.729141 127.79185 
L 550.871191 138.631776 
L 551.155293 187.967626 
L 552.362722 450.591282 
L 552.433748 450.995102 
L 552.575798 444.078251 
L 552.788874 415.600858 
L 553.215026 312.165626 
L 553.854253 158.257993 
L 554.138354 135.736345 
L 554.20938 136.362972 
L 554.35143 145.186423 
L 554.564506 175.961448 
L 554.990658 281.21648 
L 555.629885 431.309119 
L 555.842961 449.868832 
L 555.913987 451.148898 
L 555.985012 449.915748 
L 556.127062 440.049473 
L 556.411164 393.868095 
L 557.618593 146.049574 
L 557.689619 145.790273 
L 557.831669 152.640613 
L 558.044745 180.196318 
L 558.470897 279.764088 
L 559.110124 428.447994 
L 559.394226 450.983354 
L 559.465251 450.664994 
L 559.607301 442.820733 
L 559.820377 414.341012 
L 560.246529 315.633972 
L 560.885756 174.408269 
L 561.098832 157.132896 
L 561.169858 156.032095 
L 561.240883 157.318779 
L 561.382933 166.926106 
L 561.667035 211.312146 
L 562.874464 450.515151 
L 562.94549 451.066699 
L 563.08754 445.182714 
L 563.300616 419.954045 
L 563.655743 344.98524 
L 564.365995 187.910018 
L 564.650097 167.034726 
L 564.721122 167.442384 
L 564.863172 175.079994 
L 565.076248 202.37667 
L 565.5024 296.68393 
L 566.141628 432.488151 
L 566.354703 449.767507 
L 566.425729 451.136064 
L 566.496754 450.251282 
L 566.638805 441.837236 
L 566.922906 401.190392 
L 568.130335 178.733019 
L 568.201361 178.313394 
L 568.343411 184.058105 
L 568.556487 208.154897 
L 568.911614 279.49691 
L 569.621866 429.902333 
L 569.905968 450.895049 
L 569.976993 450.862 
L 570.119043 444.380744 
L 570.332119 419.738992 
L 570.758271 332.873088 
L 571.397499 206.94872 
L 571.610574 191.05128 
L 571.6816 189.863433 
L 571.752625 190.788203 
L 571.894676 198.874208 
L 572.178777 237.451779 
L 573.386207 450.371933 
L 573.457232 451.130806 
L 573.599282 446.487526 
L 573.812358 425.010147 
L 574.167485 359.854683 
L 574.877738 221.209123 
L 575.161839 202.013909 
L 575.232864 202.136636 
L 575.374914 208.373442 
L 575.58799 231.691246 
L 576.014142 313.697477 
L 576.65337 433.68811 
L 576.866445 449.600667 
L 576.937471 451.085074 
L 577.008496 450.603382 
L 577.150547 443.828347 
L 577.363622 420.268542 
L 577.789774 340.186966 
L 578.357976 235.672654 
L 578.642078 214.677238 
L 578.713103 214.062896 
L 578.855153 218.557954 
L 579.068229 238.812588 
L 579.423356 300.045051 
L 580.204634 438.897878 
L 580.41771 450.758007 
L 580.488735 451.032613 
L 580.630786 446.02846 
L 580.843861 425.550071 
L 581.270013 351.521433 
L 581.909241 242.163526 
L 582.122317 227.758281 
L 582.193342 226.47737 
L 582.264367 227.012163 
L 582.406418 233.457 
L 582.619493 255.546485 
L 583.045645 330.50665 
L 583.684873 436.955406 
L 583.897949 450.187789 
L 583.968974 451.147352 
L 584.039999 450.342096 
L 584.18205 443.541908 
L 584.466151 411.433665 
L 585.673581 239.283406 
L 585.744606 239.121496 
L 585.886657 243.904221 
L 586.099732 263.037816 
L 586.525884 332.010149 
L 587.165112 435.05821 
L 587.449213 450.985332 
L 587.520238 450.891341 
L 587.662289 445.772637 
L 587.875365 426.668368 
L 588.301516 359.928136 
L 588.940744 264.170098 
L 589.15382 252.378982 
L 589.224845 251.594482 
L 589.29587 252.422155 
L 589.437921 258.826573 
L 589.722022 288.630372 
L 590.929452 450.588355 
L 591.000477 451.130728 
L 591.142528 447.560499 
L 591.355603 431.27247 
L 591.71073 382.139541 
L 592.420983 278.387629 
L 592.705084 264.328659 
L 592.776109 264.507888 
L 592.91816 269.349449 
L 593.131236 287.031338 
L 593.557387 348.625991 
L 594.196615 438.176618 
L 594.409691 450.001143 
L 594.480716 451.101876 
L 594.551741 450.743369 
L 594.693792 445.719761 
L 594.906868 428.280917 
L 595.333019 369.176628 
L 595.901222 292.439651 
L 596.185323 277.218586 
L 596.256348 276.825604 
L 596.398399 280.243276 
L 596.611475 295.27195 
L 596.966601 340.370636 
L 597.747879 442.141943 
L 597.960955 450.849387 
L 598.03198 451.072293 
L 598.174031 447.480877 
L 598.387107 432.681364 
L 598.813258 379.185139 
L 599.452486 300.437314 
L 599.665562 290.157707 
L 599.736587 289.270532 
L 599.807612 289.69101 
L 599.949663 294.398757 
L 600.233764 317.755796 
L 600.872992 404.132141 
L 601.299143 445.238914 
L 601.512219 451.145323 
L 601.583244 450.613566 
L 601.725295 445.856051 
L 602.009396 423.190558 
L 603.216826 301.737384 
L 603.287851 301.640734 
L 603.429902 305.044893 
L 603.642978 318.565118 
L 604.069129 367.152691 
L 604.708357 439.674541 
L 604.992458 451.00889 
L 605.063483 450.999078 
L 605.205534 447.544387 
L 605.41861 434.411344 
L 605.844761 388.332539 
L 606.483989 322.241068 
L 606.697065 314.122209 
L 606.76809 313.585598 
L 606.839115 314.159907 
L 606.981166 318.578746 
L 607.265267 339.105518 
L 608.472697 450.709951 
L 608.543722 451.144526 
L 608.614748 450.517309 
L 608.756798 446.15779 
L 609.040899 426.481838 
L 610.177304 326.324199 
L 610.248329 325.423937 
L 610.319354 325.539112 
L 610.461405 328.784474 
L 610.674481 340.654539 
L 611.100633 382.004178 
L 611.73986 442.220956 
L 612.023961 451.097103 
L 612.094986 450.929768 
L 612.237037 447.734644 
L 612.450113 436.368358 
L 612.876265 397.564374 
L 613.444467 347.091861 
L 613.728568 337.057728 
L 613.799593 336.78852 
L 613.941644 339.006694 
L 614.15472 348.823453 
L 614.509846 378.316815 
L 615.291124 445.045313 
L 615.5042 450.903306 
L 615.575225 451.120949 
L 615.717276 448.943684 
L 615.930352 439.590131 
L 616.356504 405.43151 
L 616.995731 355.002249 
L 617.208807 348.394236 
L 617.279832 347.813271 
L 617.350858 348.067029 
L 617.492908 351.041947 
L 617.777009 365.883064 
L 618.416237 420.873154 
L 618.842389 447.200084 
L 619.055464 451.137709 
L 619.12649 450.876288 
L 619.26854 448.029519 
L 619.552641 434.066814 
L 620.760071 358.524185 
L 620.831096 358.448811 
L 620.973147 360.527986 
L 621.186223 368.85968 
L 621.612375 398.870466 
L 622.251602 443.817785 
L 622.535703 451.025065 
L 622.606729 451.089974 
L 622.748779 449.122807 
L 622.961855 441.320601 
L 623.388007 413.626806 
L 624.027234 373.762592 
L 624.24031 368.839184 
L 624.311335 368.502316 
L 624.382361 368.832935 
L 624.524411 371.458259 
L 624.808512 383.725263 
L 626.015942 450.825137 
L 626.086968 451.148932 
L 626.157993 450.845204 
L 626.300043 448.403446 
L 626.584145 437.051152 
L 627.720549 378.684515 
L 627.791574 378.149582 
L 627.8626 378.204479 
L 628.00465 380.064689 
L 628.217726 386.917233 
L 628.643878 410.832866 
L 629.283105 445.782278 
L 629.567206 451.09576 
L 629.638232 451.062052 
L 629.780282 449.363601 
L 629.993358 443.070656 
L 630.41951 421.33339 
L 630.987712 392.975661 
L 631.271813 387.321149 
L 631.342839 387.161899 
L 631.484889 388.38576 
L 631.697965 393.848924 
L 632.053091 410.285172 
L 632.83437 447.585006 
L 633.047445 450.969295 
L 633.118471 451.144468 
L 633.260521 450.061612 
L 633.473597 445.101559 
L 633.828724 430.247728 
L 634.538976 399.525211 
L 634.752052 395.956988 
L 634.823077 395.640175 
L 634.894103 395.772002 
L 635.036153 397.360578 
L 635.320254 405.304581 
L 635.959482 434.739123 
L 636.385634 448.911832 
L 636.59871 451.13184 
L 636.669735 451.043628 
L 636.811785 449.646331 
L 637.024861 444.769496 
L 637.451013 428.365866 
L 638.019215 407.497426 
L 638.303316 403.583754 
L 638.374342 403.544832 
L 638.516392 404.611919 
L 638.729468 408.883984 
L 639.15562 424.245396 
L 639.794847 447.268412 
L 640.078949 451.059114 
L 640.149974 451.13424 
L 640.292024 450.233718 
L 640.5051 446.457273 
L 640.931252 432.883443 
L 641.57048 413.344861 
L 641.783555 410.947148 
L 641.854581 410.786626 
L 641.925606 410.952297 
L 642.067656 412.241826 
L 642.351758 418.233427 
L 643.559187 450.956244 
L 643.630213 451.14627 
L 643.701238 451.037884 
L 643.843289 449.950552 
L 644.12739 444.716578 
L 645.263794 417.6953 
L 645.33482 417.456317 
L 645.405845 417.489943 
L 645.547895 418.364361 
L 645.760971 421.542636 
L 646.187123 432.557453 
L 646.826351 448.605779 
L 647.110452 451.110353 
L 647.181477 451.124971 
L 647.323528 450.425249 
L 647.536603 447.708548 
L 647.962755 438.2358 
L 648.530957 425.93283 
L 648.815059 423.523092 
L 648.886084 423.466071 
L 649.028134 424.019189 
L 649.24121 426.410665 
L 649.596337 433.525373 
L 650.377615 449.561484 
L 650.590691 451.051865 
L 650.661716 451.148965 
L 650.803766 450.745116 
L 651.016842 448.754759 
L 651.371969 442.731104 
L 652.082222 430.361925 
L 652.295297 428.966437 
L 652.366323 428.854025 
L 652.437348 428.922091 
L 652.579399 429.589088 
L 652.8635 432.819097 
L 654.07093 450.990742 
L 654.21298 451.120602 
L 654.355031 450.620992 
L 654.568107 448.811216 
L 654.994258 442.697644 
L 655.562461 435.017565 
L 655.846562 433.63716 
L 655.917587 433.640334 
L 656.059638 434.067284 
L 656.272713 435.68111 
L 656.698865 441.347852 
L 657.338093 449.713132 
L 657.622194 451.106718 
L 657.764244 451.06397 
L 657.906295 450.542624 
L 658.190396 448.286648 
L 659.255775 437.951123 
L 659.397826 437.774439 
L 659.539876 438.029005 
L 659.752952 439.165832 
L 660.108079 442.571103 
L 660.889357 450.310243 
L 661.173458 451.14623 
L 661.315509 451.007842 
L 661.528584 450.159398 
L 661.883711 447.496881 
L 662.593964 441.990506 
L 662.80704 441.370931 
L 662.94909 441.350664 
L 663.091141 441.644333 
L 663.375242 443.063782 
L 664.582672 451.056088 
L 664.724722 451.145212 
L 664.866773 450.971221 
L 665.079849 450.270107 
L 665.506 447.845099 
L 666.074203 444.813427 
L 666.358304 444.285138 
L 666.500354 444.35192 
L 666.71343 444.849334 
L 667.068557 446.501011 
L 667.92086 450.769154 
L 668.204961 451.148857 
L 668.347012 451.067664 
L 668.560088 450.643218 
L 668.986239 449.077139 
L 669.554442 447.056252 
L 669.838543 446.680967 
L 670.051619 446.777543 
L 670.33572 447.367616 
L 670.903922 449.410279 
L 671.401099 450.86063 
L 671.6852 451.145557 
L 671.898276 451.064368 
L 672.182377 450.629027 
L 673.247756 448.55561 
L 673.460832 448.542892 
L 673.744933 448.811118 
L 674.171085 449.634702 
L 674.881338 450.95989 
L 675.165439 451.142677 
L 675.44954 451.080804 
L 675.875692 450.661107 
L 676.585945 449.925369 
L 676.941071 449.869853 
L 677.296198 450.06451 
L 678.645678 451.143307 
L 679.07183 451.088135 
L 680.42131 450.715194 
L 681.131563 450.922779 
L 682.054892 451.143153 
L 683.333347 451.097839 
L 690.222799 450.940343 
L 691.217153 450.63529 
L 691.71433 450.736884 
L 692.92176 451.134214 
L 693.347912 450.915188 
L 694.697392 449.858308 
L 695.052519 450.01821 
L 695.549696 450.56418 
L 696.117898 451.110464 
L 696.401999 451.129077 
L 696.6861 450.912649 
L 697.112252 450.214004 
L 697.89353 448.867438 
L 698.177631 448.764226 
L 698.461732 448.968809 
L 698.816859 449.585705 
L 699.598137 451.059393 
L 699.811213 451.148252 
L 700.024289 451.017823 
L 700.30839 450.509181 
L 700.876592 448.790177 
L 701.373769 447.559782 
L 701.65787 447.385676 
L 701.870946 447.57301 
L 702.155047 448.206296 
L 703.220426 451.12492 
L 703.433502 451.085724 
L 703.646578 450.716209 
L 704.001704 449.4767 
L 704.925033 445.907903 
L 705.138109 445.758215 
L 705.28016 445.876015 
L 705.493235 446.365433 
L 705.919387 448.169145 
L 706.558615 450.841635 
L 706.771691 451.141428 
L 706.913741 451.095128 
L 707.126817 450.646117 
L 707.481943 449.027968 
L 708.405272 444.164229 
L 708.618348 443.919543 
L 708.760398 444.047082 
L 708.973474 444.659838 
L 709.328601 446.559585 
L 710.038854 450.654127 
L 710.251929 451.119787 
L 710.39398 451.111641 
L 710.607056 450.603435 
L 710.891157 449.096284 
L 712.027562 441.961218 
L 712.169612 441.931083 
L 712.311663 442.1989 
L 712.595764 443.550539 
L 713.234991 448.611238 
L 713.661143 450.926324 
L 713.874219 451.130412 
L 714.01627 450.852245 
L 714.229345 449.837634 
L 714.655497 446.21364 
L 715.294725 440.66395 
L 715.578826 439.765551 
L 715.720876 439.855399 
L 715.933952 440.663821 
L 716.289079 443.471323 
L 717.070357 450.470404 
L 717.283433 451.122707 
L 717.425483 451.066165 
L 717.638559 450.231463 
L 717.92266 447.894446 
L 718.988039 437.676723 
L 719.13009 437.492275 
L 719.272141 437.748547 
L 719.485216 438.92175 
L 719.840343 442.503929 
L 720.550596 450.172721 
L 720.763672 451.075612 
L 720.905722 451.101385 
L 721.047773 450.649277 
L 721.331874 448.422061 
L 721.900076 440.921215 
L 722.326228 436.249306 
L 722.539304 435.240152 
L 722.681354 435.195651 
L 722.823405 435.665442 
L 723.107506 438.006183 
L 723.746733 446.710745 
L 724.172885 450.722953 
L 724.385961 451.131236 
L 724.528012 450.713312 
L 724.741087 449.095404 
L 725.167239 443.227959 
L 725.806467 434.235297 
L 726.090568 432.784561 
L 726.161593 432.782609 
L 726.303644 433.222789 
L 726.51672 434.927884 
L 726.942871 441.032152 
L 727.582099 449.992578 
L 727.795175 451.088106 
L 727.8662 451.147822 
L 728.008251 450.792511 
L 728.221326 449.117212 
L 728.576453 443.914826 
L 729.357731 431.585699 
L 729.570807 430.422481 
L 729.641832 430.362234 
L 729.783883 430.74514 
L 729.996959 432.517234 
L 730.352085 437.937286 
L 731.062338 449.588754 
L 731.346439 451.143018 
L 731.417464 451.100152 
L 731.559515 450.483452 
L 731.772591 448.309396 
L 732.198742 440.73948 
L 732.83797 429.582856 
L 733.051046 428.10129 
L 733.122071 427.968979 
L 733.193096 428.024118 
L 733.335147 428.691691 
L 733.548223 430.988914 
L 733.974374 438.825337 
L 734.542577 449.106468 
L 734.826678 451.108828 
L 734.897703 451.136126 
L 735.039754 450.60073 
L 735.25283 448.393823 
L 735.607956 441.822977 
L 736.389234 426.887455 
L 736.60231 425.635456 
L 736.673335 425.623766 
L 736.815386 426.217205 
L 737.028462 428.55857 
L 737.454613 436.989062 
L 738.093841 449.454997 
L 738.306917 451.037696 
L 738.377942 451.148971 
L 738.448967 451.044377 
L 738.591018 450.19332 
L 738.875119 446.15509 
L 739.514347 431.296694 
L 739.940498 424.240989 
L 740.153574 423.300105 
L 740.295625 423.790441 
L 740.508701 426.130754 
L 740.863827 433.341806 
L 741.645105 449.827313 
L 741.858181 451.130975 
L 741.929206 451.105654 
L 742.071257 450.355503 
L 742.284333 447.583909 
L 742.710484 437.782569 
L 743.349712 423.22716 
L 743.633813 421.081845 
L 743.704838 421.14012 
L 743.846889 421.979704 
L 744.059965 424.921564 
L 744.486117 435.028556 
L 745.125344 449.403209 
L 745.33842 451.075073 
L 745.409445 451.142114 
L 745.551496 450.522095 
L 745.764572 447.796406 
L 746.119698 439.544554 
L 746.900976 420.617255 
L 747.114052 418.995205 
L 747.185077 418.965556 
L 747.327128 419.683939 
L 747.540204 422.59284 
L 747.966355 433.156116 
L 748.605583 448.909 
L 748.818659 450.97507 
L 748.889684 451.146405 
L 748.960709 451.04926 
L 749.10276 450.056217 
L 749.386861 445.159371 
L 749.955063 428.911146 
L 750.381215 419.066326 
L 750.594291 417.063676 
L 750.665316 416.934411 
L 750.736342 417.081977 
L 750.878392 418.19486 
L 751.162493 423.360088 
L 752.369923 451.111992 
L 752.440948 451.114802 
L 752.582999 450.271062 
L 752.796075 447.004164 
L 753.222226 435.274797 
L 753.861454 417.711052 
L 754.145555 415.068631 
L 754.21658 415.12111 
L 754.358631 416.094247 
L 754.571707 419.576637 
L 754.997859 431.640052 
L 755.637086 448.948589 
L 755.850162 451.033329 
L 755.921187 451.146833 
L 756.063238 450.478523 
L 756.276314 447.341631 
L 756.63144 437.691094 
L 757.412718 415.346591 
L 757.625794 413.387333 
L 757.696819 413.334125 
L 757.83887 414.141632 
L 758.051946 417.507717 
L 758.407072 427.475136 
L 759.117325 448.403029 
L 759.401426 451.139368 
L 759.472452 451.060559 
L 759.614502 449.973462 
L 759.827578 446.175881 
L 760.25373 433.107023 
L 760.892957 414.268777 
L 761.106033 411.9067 
L 761.177058 411.738731 
L 761.248084 411.889626 
L 761.390134 413.134079 
L 761.674235 419.017152 
L 762.881665 451.0875 
L 762.95269 451.124955 
L 763.094741 450.230233 
L 763.307817 446.60047 
L 763.733969 433.377895 
L 764.373196 413.41416 
L 764.657297 410.349779 
L 764.728323 410.389487 
L 764.870373 411.451379 
L 765.083449 415.336337 
L 765.509601 428.909444 
L 766.148828 448.549674 
L 766.361904 450.987505 
L 766.432929 451.148943 
L 766.503955 450.974975 
L 766.646005 449.635057 
L 766.930106 443.380454 
L 768.137536 409.179211 
L 768.208561 409.100012 
L 768.350612 409.958128 
L 768.563688 413.645249 
L 768.918814 424.660299 
L 769.629067 447.977377 
L 769.913168 451.128244 
L 769.984194 451.075394 
L 770.126244 449.94406 
L 770.33932 445.852611 
L 770.765472 431.594874 
L 771.404699 410.878967 
L 771.617775 408.23603 
L 771.6888 408.031971 
L 771.759826 408.176767 
L 771.901876 409.498566 
L 772.185977 415.865213 
L 773.393407 451.059797 
L 773.464433 451.134286 
L 773.606483 450.230132 
L 773.819559 446.385826 
L 774.174685 434.921638 
L 774.884938 410.574212 
L 775.169039 407.193286 
L 775.240065 407.215588 
L 775.382115 408.319522 
L 775.595191 412.450322 
L 776.021343 427.00498 
L 776.66057 448.235872 
L 776.873646 450.941798 
L 776.944671 451.147991 
L 777.015697 450.995408 
L 777.157747 449.628235 
L 777.441848 443.060092 
L 778.649278 406.589052 
L 778.720304 406.48437 
L 778.862354 407.355046 
L 779.07543 411.214486 
L 779.430556 422.845957 
L 780.140809 447.661395 
L 780.42491 451.114082 
L 780.495936 451.091533 
L 780.637986 449.964071 
L 780.851062 445.742425 
L 781.277214 430.851788 
L 781.916441 409.049196 
L 782.129517 406.221576 
L 782.200543 405.987279 
L 782.271568 406.11838 
L 782.413618 407.462667 
L 782.697719 414.061001 
L 783.336947 438.367709 
L 783.763099 449.724262 
L 783.976175 451.141701 
L 784.118225 450.266174 
L 784.331301 446.359631 
L 784.686427 434.559993 
L 785.39668 409.299151 
L 785.680781 405.725778 
L 785.751807 405.728277 
L 785.893857 406.828837 
L 786.106933 411.042827 
L 786.533085 426.015795 
L 787.172312 448.026647 
L 787.385388 450.899998 
L 787.456414 451.144108 
L 787.527439 451.019814 
L 787.669489 449.679766 
L 787.953591 443.052701 
L 788.592818 418.550471 
L 789.01897 407.045378 
L 789.232046 405.571426 
L 789.374096 406.419287 
L 789.587172 410.300975 
L 789.942299 422.102454 
L 790.723577 448.893772 
L 790.936652 451.098192 
L 791.007678 451.107322 
L 791.149728 450.027508 
L 791.362804 445.83698 
L 791.788956 430.878276 
L 792.428183 408.809899 
L 792.641259 405.902344 
L 792.712285 405.645952 
L 792.78331 405.757714 
L 792.92536 407.072428 
L 793.138436 411.570383 
L 793.564588 426.837241 
L 794.203816 448.425972 
L 794.416891 451.004609 
L 794.487917 451.14663 
L 794.629967 450.332565 
L 794.843043 446.509997 
L 795.19817 434.81567 
L 795.979448 408.162392 
L 796.192524 405.94752 
L 796.263549 405.929798 
L 796.405599 406.985417 
L 796.618675 411.125082 
L 797.044827 425.958994 
L 797.684054 447.931817 
L 797.89713 450.865184 
L 797.968156 451.137764 
L 798.039181 451.0459 
L 798.181231 449.781503 
L 798.394307 445.381581 
L 798.820459 430.353381 
L 799.459687 409.029452 
L 799.672762 406.469444 
L 799.743788 406.32426 
L 799.814813 406.541772 
L 799.956864 408.044653 
L 800.240965 414.866127 
L 801.448395 451.081935 
L 801.51942 451.121528 
L 801.66147 450.126677 
L 801.874546 446.116272 
L 802.300698 431.625641 
L 802.939926 410.085045 
L 803.224027 406.933904 
L 803.295052 407.022695 
L 803.437103 408.261482 
L 803.650178 412.579763 
L 804.07633 427.35155 
L 804.715558 448.40192 
L 804.928633 450.981468 
L 804.999659 451.148856 
L 805.070684 450.961381 
L 805.212735 449.541169 
L 805.496836 442.962406 
L 806.704266 407.749383 
L 806.775291 407.712771 
L 806.917341 408.687929 
L 807.130417 412.610457 
L 807.556569 426.78925 
L 808.195797 447.952726 
L 808.479898 451.12963 
L 808.550923 451.071629 
L 808.692974 449.923075 
L 808.906049 445.804804 
L 809.332201 431.581199 
L 809.971429 411.244914 
L 810.184505 408.759361 
L 810.25553 408.602258 
L 810.326555 408.789426 
L 810.468606 410.178301 
L 810.752707 416.587967 
L 811.320909 437.006386 
L 811.320909 437.006386 
" clip-path="url(#p4bdd438a88)" style="fill: none; stroke: #1f77b4; stroke-linecap: square"/>
   </g>
   <g id="patch_3">
    <path d="M 65.63 471.309 
L 65.63 27.789 
" style="fill: none; stroke: #000000; stroke-width: 2.5; stroke-linejoin: miter; stroke-linecap: square"/>
   </g>
   <g id="patch_4">
    <path d="M 846.83 471.309 
L 846.83 27.789 
" style="fill: none; stroke: #000000; stroke-width: 2.5; stroke-linejoin: miter; stroke-linecap: square"/>
   </g>
   <g id="patch_5">
    <path d="M 65.63 471.309 
L 846.83 471.309 
" style="fill: none; stroke: #000000; stroke-width: 2.5; stroke-linejoin: miter; stroke-linecap: square"/>
   </g>
   <g id="patch_6">
    <path d="M 65.63 27.789 
L 846.83 27.789 
" style="fill: none; stroke: #000000; stroke-width: 2.5; stroke-linejoin: miter; stroke-linecap: square"/>
   </g>
   <g id="text_16">
    <!-- Ramsey Fringes for a Single Atom -->
    <g transform="translate(294.1865 21.789) scale(0.192 -0.192)">
     <defs>
      <path id="DejaVuSans-52" d="M 2841 2188 
Q 3044 2119 3236 1894 
Q 3428 1669 3622 1275 
L 4263 0 
L 3584 0 
L 2988 1197 
Q 2756 1666 2539 1819 
Q 2322 1972 1947 1972 
L 1259 1972 
L 1259 0 
L 628 0 
L 628 4666 
L 2053 4666 
Q 2853 4666 3247 4331 
Q 3641 3997 3641 3322 
Q 3641 2881 3436 2590 
Q 3231 2300 2841 2188 
z
M 1259 4147 
L 1259 2491 
L 2053 2491 
Q 2509 2491 2742 2702 
Q 2975 2913 2975 3322 
Q 2975 3731 2742 3939 
Q 2509 4147 2053 4147 
L 1259 4147 
z
" transform="scale(0.015625)"/>
      <path id="DejaVuSans-6d" d="M 3328 2828 
Q 3544 3216 3844 3400 
Q 4144 3584 4550 3584 
Q 5097 3584 5394 3201 
Q 5691 2819 5691 2113 
L 5691 0 
L 5113 0 
L 5113 2094 
Q 5113 2597 4934 2840 
Q 4756 3084 4391 3084 
Q 3944 3084 3684 2787 
Q 3425 2491 3425 1978 
L 3425 0 
L 2847 0 
L 2847 2094 
Q 2847 2600 2669 2842 
Q 2491 3084 2119 3084 
Q 1678 3084 1418 2786 
Q 1159 2488 1159 1978 
L 1159 0 
L 581 0 
L 581 3500 
L 1159 3500 
L 1159 2956 
Q 1356 3278 1631 3431 
Q 1906 3584 2284 3584 
Q 2666 3584 2933 3390 
Q 3200 3197 3328 2828 
z
" transform="scale(0.015625)"/>
      <path id="DejaVuSans-79" d="M 2059 -325 
Q 1816 -950 1584 -1140 
Q 1353 -1331 966 -1331 
L 506 -1331 
L 506 -850 
L 844 -850 
Q 1081 -850 1212 -737 
Q 1344 -625 1503 -206 
L 1606 56 
L 191 3500 
L 800 3500 
L 1894 763 
L 2988 3500 
L 3597 3500 
L 2059 -325 
z
" transform="scale(0.015625)"/>
      <path id="DejaVuSans-46" d="M 628 4666 
L 3309 4666 
L 3309 4134 
L 1259 4134 
L 1259 2759 
L 3109 2759 
L 3109 2228 
L 1259 2228 
L 1259 0 
L 628 0 
L 628 4666 
z
" transform="scale(0.015625)"/>
      <path id="DejaVuSans-72" d="M 2631 2963 
Q 2534 3019 2420 3045 
Q 2306 3072 2169 3072 
Q 1681 3072 1420 2755 
Q 1159 2438 1159 1844 
L 1159 0 
L 581 0 
L 581 3500 
L 1159 3500 
L 1159 2956 
Q 1341 3275 1631 3429 
Q 1922 3584 2338 3584 
Q 2397 3584 2469 3576 
Q 2541 3569 2628 3553 
L 2631 2963 
z
" transform="scale(0.015625)"/>
      <path id="DejaVuSans-66" d="M 2375 4863 
L 2375 4384 
L 1825 4384 
Q 1516 4384 1395 4259 
Q 1275 4134 1275 3809 
L 1275 3500 
L 2222 3500 
L 2222 3053 
L 1275 3053 
L 1275 0 
L 697 0 
L 697 3053 
L 147 3053 
L 147 3500 
L 697 3500 
L 697 3744 
Q 697 4328 969 4595 
Q 1241 4863 1831 4863 
L 2375 4863 
z
" transform="scale(0.015625)"/>
      <path id="DejaVuSans-53" d="M 3425 4513 
L 3425 3897 
Q 3066 4069 2747 4153 
Q 2428 4238 2131 4238 
Q 1616 4238 1336 4038 
Q 1056 3838 1056 3469 
Q 1056 3159 1242 3001 
Q 1428 2844 1947 2747 
L 2328 2669 
Q 3034 2534 3370 2195 
Q 3706 1856 3706 1288 
Q 3706 609 3251 259 
Q 2797 -91 1919 -91 
Q 1588 -91 1214 -16 
Q 841 59 441 206 
L 441 856 
Q 825 641 1194 531 
Q 1563 422 1919 422 
Q 2459 422 2753 634 
Q 3047 847 3047 1241 
Q 3047 1584 2836 1778 
Q 2625 1972 2144 2069 
L 1759 2144 
Q 1053 2284 737 2584 
Q 422 2884 422 3419 
Q 422 4038 858 4394 
Q 1294 4750 2059 4750 
Q 2388 4750 2728 4690 
Q 3069 4631 3425 4513 
z
" transform="scale(0.015625)"/>
      <path id="DejaVuSans-41" d="M 2188 4044 
L 1331 1722 
L 3047 1722 
L 2188 4044 
z
M 1831 4666 
L 2547 4666 
L 4325 0 
L 3669 0 
L 3244 1197 
L 1141 1197 
L 716 0 
L 50 0 
L 1831 4666 
z
" transform="scale(0.015625)"/>
     </defs>
     <use xlink:href="#DejaVuSans-52"/>
     <use xlink:href="#DejaVuSans-61" x="67.232422"/>
     <use xlink:href="#DejaVuSans-6d" x="128.511719"/>
     <use xlink:href="#DejaVuSans-73" x="225.923828"/>
     <use xlink:href="#DejaVuSans-65" x="278.023438"/>
     <use xlink:href="#DejaVuSans-79" x="339.546875"/>
     <use xlink:href="#DejaVuSans-20" x="398.726562"/>
     <use xlink:href="#DejaVuSans-46" x="430.513672"/>
     <use xlink:href="#DejaVuSans-72" x="480.783203"/>
     <use xlink:href="#DejaVuSans-69" x="521.896484"/>
     <use xlink:href="#DejaVuSans-6e" x="549.679688"/>
     <use xlink:href="#DejaVuSans-67" x="613.058594"/>
     <use xlink:href="#DejaVuSans-65" x="676.535156"/>
     <use xlink:href="#DejaVuSans-73" x="738.058594"/>
     <use xlink:href="#DejaVuSans-20" x="790.158203"/>
     <use xlink:href="#DejaVuSans-66" x="821.945312"/>
     <use xlink:href="#DejaVuSans-6f" x="857.150391"/>
     <use xlink:href="#DejaVuSans-72" x="918.332031"/>
     <use xlink:href="#DejaVuSans-20" x="959.445312"/>
     <use xlink:href="#DejaVuSans-61" x="991.232422"/>
     <use xlink:href="#DejaVuSans-20" x="1052.511719"/>
     <use xlink:href="#DejaVuSans-53" x="1084.298828"/>
     <use xlink:href="#DejaVuSans-69" x="1147.775391"/>
     <use xlink:href="#DejaVuSans-6e" x="1175.558594"/>
     <use xlink:href="#DejaVuSans-67" x="1238.9375"/>
     <use xlink:href="#DejaVuSans-6c" x="1302.414062"/>
     <use xlink:href="#DejaVuSans-65" x="1330.197266"/>
     <use xlink:href="#DejaVuSans-20" x="1391.720703"/>
     <use xlink:href="#DejaVuSans-41" x="1423.507812"/>
     <use xlink:href="#DejaVuSans-74" x="1490.166016"/>
     <use xlink:href="#DejaVuSans-6f" x="1529.375"/>
     <use xlink:href="#DejaVuSans-6d" x="1590.556641"/>
    </g>
   </g>
  </g>
 </g>
 <defs>
  <clipPath id="p4bdd438a88">
   <rect x="65.63" y="27.789" width="781.2" height="443.52"/>
  </clipPath>
 </defs>
</svg>
