<?xml version="1.0" encoding="UTF-8" standalone="no"?>
<!-- Created with Inkscape (http://www.inkscape.org/) -->

<svg
   xmlns:ns0="http://www.iki.fi/pav/software/textext/"
   xmlns:dc="http://purl.org/dc/elements/1.1/"
   xmlns:cc="http://creativecommons.org/ns#"
   xmlns:rdf="http://www.w3.org/1999/02/22-rdf-syntax-ns#"
   xmlns:svg="http://www.w3.org/2000/svg"
   xmlns="http://www.w3.org/2000/svg"
   xmlns:sodipodi="http://sodipodi.sourceforge.net/DTD/sodipodi-0.dtd"
   xmlns:inkscape="http://www.inkscape.org/namespaces/inkscape"
   width="124.26618mm"
   height="75.716942mm"
   viewBox="0 0 440.31325 268.28838"
   id="svg5204"
   version="1.1"
   inkscape:version="0.92.2 (5c3e80d, 2017-08-06)"
   sodipodi:docname="pn_junction_bias.svg">
  <sodipodi:namedview
     id="base"
     pagecolor="#ffffff"
     bordercolor="#666666"
     borderopacity="1.0"
     inkscape:pageopacity="0.0"
     inkscape:pageshadow="2"
     inkscape:zoom="2.8284271"
     inkscape:cx="211.4494"
     inkscape:cy="150.50501"
     inkscape:document-units="px"
     inkscape:current-layer="layer1"
     showgrid="false"
     inkscape:window-width="1853"
     inkscape:window-height="1025"
     inkscape:window-x="67"
     inkscape:window-y="27"
     inkscape:window-maximized="1"
     fit-margin-top="0"
     fit-margin-left="0"
     fit-margin-right="0"
     fit-margin-bottom="0" />
  <defs
     id="defs5206">
    <marker
       inkscape:isstock="true"
       style="overflow:visible"
       id="marker6664"
       refX="0"
       refY="0"
       orient="auto"
       inkscape:stockid="Arrow1Lend">
      <path
         transform="matrix(-0.8,0,0,-0.8,-10,0)"
         style="fill:#000000;fill-opacity:1;fill-rule:evenodd;stroke:#000000;stroke-width:1pt;stroke-opacity:1"
         d="M 0,0 5,-5 -12.5,0 5,5 0,0 Z"
         id="path6666"
         inkscape:connector-curvature="0" />
    </marker>
    <marker
       inkscape:isstock="true"
       style="overflow:visible"
       id="marker6654"
       refX="0"
       refY="0"
       orient="auto"
       inkscape:stockid="Arrow1Lstart">
      <path
         transform="matrix(0.8,0,0,0.8,10,0)"
         style="fill:#000000;fill-opacity:1;fill-rule:evenodd;stroke:#000000;stroke-width:1pt;stroke-opacity:1"
         d="M 0,0 5,-5 -12.5,0 5,5 0,0 Z"
         id="path6656"
         inkscape:connector-curvature="0" />
    </marker>
    <marker
       inkscape:isstock="true"
       style="overflow:visible"
       id="marker6546"
       refX="0"
       refY="0"
       orient="auto"
       inkscape:stockid="Arrow1Lend"
       inkscape:collect="always">
      <path
         transform="matrix(-0.8,0,0,-0.8,-10,0)"
         style="fill:#000000;fill-opacity:1;fill-rule:evenodd;stroke:#000000;stroke-width:1pt;stroke-opacity:1"
         d="M 0,0 5,-5 -12.5,0 5,5 0,0 Z"
         id="path6548"
         inkscape:connector-curvature="0" />
    </marker>
    <marker
       inkscape:isstock="true"
       style="overflow:visible"
       id="marker6506"
       refX="0"
       refY="0"
       orient="auto"
       inkscape:stockid="Arrow1Lstart"
       inkscape:collect="always">
      <path
         transform="matrix(0.8,0,0,0.8,10,0)"
         style="fill:#000000;fill-opacity:1;fill-rule:evenodd;stroke:#000000;stroke-width:1pt;stroke-opacity:1"
         d="M 0,0 5,-5 -12.5,0 5,5 0,0 Z"
         id="path6508"
         inkscape:connector-curvature="0" />
    </marker>
    <marker
       inkscape:isstock="true"
       style="overflow:visible"
       id="marker6474"
       refX="0"
       refY="0"
       orient="auto"
       inkscape:stockid="Arrow1Lend">
      <path
         transform="matrix(-0.8,0,0,-0.8,-10,0)"
         style="fill:#000000;fill-opacity:1;fill-rule:evenodd;stroke:#000000;stroke-width:1pt;stroke-opacity:1"
         d="M 0,0 5,-5 -12.5,0 5,5 0,0 Z"
         id="path6476"
         inkscape:connector-curvature="0" />
    </marker>
    <marker
       inkscape:isstock="true"
       style="overflow:visible"
       id="marker6444"
       refX="0"
       refY="0"
       orient="auto"
       inkscape:stockid="Arrow1Lend">
      <path
         transform="matrix(-0.8,0,0,-0.8,-10,0)"
         style="fill:#000000;fill-opacity:1;fill-rule:evenodd;stroke:#000000;stroke-width:1pt;stroke-opacity:1"
         d="M 0,0 5,-5 -12.5,0 5,5 0,0 Z"
         id="path6446"
         inkscape:connector-curvature="0" />
    </marker>
    <marker
       inkscape:stockid="Arrow1Lend"
       orient="auto"
       refY="0"
       refX="0"
       id="Arrow1Lend"
       style="overflow:visible"
       inkscape:isstock="true"
       inkscape:collect="always">
      <path
         id="path5763"
         d="M 0,0 5,-5 -12.5,0 5,5 0,0 Z"
         style="fill:#000000;fill-opacity:1;fill-rule:evenodd;stroke:#000000;stroke-width:1pt;stroke-opacity:1"
         transform="matrix(-0.8,0,0,-0.8,-10,0)"
         inkscape:connector-curvature="0" />
    </marker>
    <marker
       inkscape:stockid="Arrow1Lstart"
       orient="auto"
       refY="0"
       refX="0"
       id="marker6036"
       style="overflow:visible"
       inkscape:isstock="true"
       inkscape:collect="always">
      <path
         id="path6038"
         d="M 0,0 5,-5 -12.5,0 5,5 0,0 Z"
         style="fill:#000000;fill-opacity:1;fill-rule:evenodd;stroke:#000000;stroke-width:1pt;stroke-opacity:1"
         transform="matrix(0.8,0,0,0.8,10,0)"
         inkscape:connector-curvature="0" />
    </marker>
    <marker
       inkscape:stockid="Arrow1Lstart"
       orient="auto"
       refY="0"
       refX="0"
       id="Arrow1Lstart"
       style="overflow:visible"
       inkscape:isstock="true">
      <path
         id="path5760"
         d="M 0,0 5,-5 -12.5,0 5,5 0,0 Z"
         style="fill:#000000;fill-opacity:1;fill-rule:evenodd;stroke:#000000;stroke-width:1pt;stroke-opacity:1"
         transform="matrix(0.8,0,0,0.8,10,0)"
         inkscape:connector-curvature="0" />
    </marker>
  </defs>
  <metadata
     id="metadata5209">
    <rdf:RDF>
      <cc:Work
         rdf:about="">
        <dc:format>image/svg+xml</dc:format>
        <dc:type
           rdf:resource="http://purl.org/dc/dcmitype/StillImage" />
        <dc:title></dc:title>
      </cc:Work>
    </rdf:RDF>
  </metadata>
  <g
     inkscape:label="Layer 1"
     inkscape:groupmode="layer"
     id="layer1"
     transform="translate(-36.718275,-241.85717)">
    <path
       style="fill:none;fill-rule:evenodd;stroke:#000000;stroke-width:2.00960469;stroke-linecap:butt;stroke-linejoin:miter;stroke-miterlimit:4;stroke-dasharray:none;stroke-opacity:1;marker-start:url(#marker6036);marker-end:url(#Arrow1Lend)"
       d="m 88.678234,264.73614 0,202.87437 384.695746,0"
       id="path5754"
       inkscape:connector-curvature="0" />
    <path
       id="path6151"
       d="m 71.835196,259.47468 0,-0.0273 0.02733,0 0,0 0,-0.0273 0,0 0,-0.0274 0.02733,-0.0273 0,0 0,-0.0274 0,0 0.02733,-0.0274 0,-0.0273 0,-0.0274 0.02733,-0.0547 0,-0.0273 0.02733,-0.0273 0,-0.0547 0,-0.0274 0,0 0.02733,-0.0274 0,-0.0273 0,0 0,-0.0274 0,0 0,-0.0274 0,-0.0273 0,0 c 0,-0.1915 -0.164144,-0.38299 -0.38299,-0.38299 -0.164145,0 -0.24621,0.0273 -0.355639,0.13679 -0.08207,0.0547 -0.08207,0.10942 -0.437706,0.90275 -2.3253,5.49867 -3.994049,7.85132 -10.286047,7.85132 l -5.717509,0 c -0.54713,0 -0.629199,0 -0.875408,-0.0274 -0.437703,-0.0547 -0.46506,-0.13678 -0.46506,-0.4377 0,-0.27356 0.08207,-0.51977 0.164139,-0.8754 l 2.708295,-10.83319 3.884624,0 c 3.06393,0 3.282784,0.68392 3.282784,1.86025 0,0.38299 0,0.73863 -0.273568,1.91496 -0.08208,0.16413 -0.109423,0.32827 -0.109423,0.4377 0,0.27357 0.191495,0.38299 0.437698,0.38299 0.35564,0 0.382991,-0.27356 0.547135,-0.82069 l 2.243235,-9.10972 c 0,-0.19149 -0.164144,-0.38299 -0.410347,-0.38299 -0.355641,0 -0.382998,0.16414 -0.547135,0.71127 -0.793339,3.00921 -1.55932,3.88463 -5.060956,3.88463 l -3.720482,0 2.434729,-9.65685 c 0.328278,-1.36783 0.410348,-1.50461 2.024384,-1.50461 l 5.608083,0 c 4.842102,0 5.826936,1.31311 5.826936,4.29497 0,0.0273 0,1.12161 -0.164139,2.43473 -0.05473,0.13678 -0.08207,0.38299 -0.08207,0.46506 0,0.30092 0.191495,0.4377 0.437705,0.4377 0.273567,0 0.437705,-0.16414 0.49242,-0.8754 l 0.848047,-6.86649 c 0,-0.10943 0.08207,-0.51978 0.08207,-0.57449 0,-0.4377 -0.355633,-0.4377 -1.066907,-0.4377 l -19.149554,0 c -0.765982,0 -1.148973,0 -1.148973,0.71126 0,0.41036 0.273564,0.41036 0.930121,0.41036 2.434729,0 2.434729,0.27356 2.434729,0.71127 0,0.19149 -0.02736,0.35563 -0.136782,0.79334 l -5.307163,21.20129 c -0.355635,1.36782 -0.437704,1.75081 -3.173355,1.75081 -0.738627,0 -1.148974,0 -1.148974,0.71128 0,0.43769 0.246209,0.43769 1.012192,0.43769 l 19.724044,0 c 0.848053,0 0.902761,-0.0547 1.176328,-0.6839 z"
       inkscape:connector-curvature="0"
       style="font-style:normal;font-variant:normal;font-weight:normal;font-stretch:normal;letter-spacing:normal;word-spacing:normal;text-anchor:start;fill:#000000;fill-opacity:1;fill-rule:evenodd;stroke:#000000;stroke-width:0;stroke-linecap:butt;stroke-linejoin:miter;stroke-miterlimit:10.43299961;stroke-dasharray:none;stroke-dashoffset:0;stroke-opacity:1" />
    <g
       transform="matrix(0.6698682,0,0,0.6698682,-60.497979,459.05721)"
       id="g6315">
      <path
         style="font-style:normal;font-variant:normal;font-weight:normal;font-stretch:normal;letter-spacing:normal;word-spacing:normal;text-anchor:start;fill:#000000;fill-opacity:1;fill-rule:evenodd;stroke:#000000;stroke-width:0;stroke-linecap:butt;stroke-linejoin:miter;stroke-miterlimit:10.43299961;stroke-dasharray:none;stroke-dashoffset:0;stroke-opacity:1"
         inkscape:connector-curvature="0"
         d="m 183.18925,-118.62213 0,-0.0408 0,0 0,0 0,-0.0408 0,0 0.0408,-0.0408 0,-0.0408 0,0 0,-0.0408 0.0408,0 0,-0.0408 0,-0.0408 0,-0.0408 0.0408,-0.0817 0,-0.0408 0.0408,-0.0408 0,-0.0817 0,-0.0408 0.0408,0 0,-0.0408 0,-0.0408 0,0 0,-0.0408 0,0 0,-0.0408 0,-0.0408 0,0 c 0,-0.28587 -0.20419,-0.57174 -0.57174,-0.57174 -0.24503,0 -0.36755,0.0408 -0.5309,0.2042 -0.12252,0.0817 -0.12252,0.16335 -0.65342,1.34767 -3.43045,8.20857 -5.96244,11.72069 -15.35533,11.72069 l -8.53528,0 c -0.81677,0 -0.93929,0 -1.30684,-0.0408 -0.61258,-0.0817 -0.69425,-0.20419 -0.69425,-0.65342 0,-0.40838 0.12251,-0.77593 0.24503,-1.30683 l 4.04302,-16.17211 5.79909,0 c 4.57393,0 4.90064,1.02097 4.90064,2.77703 0,0.57174 0,1.10265 -0.40839,2.85871 -0.12251,0.24503 -0.16335,0.49006 -0.16335,0.65342 0,0.40838 0.28587,0.57174 0.65342,0.57174 0.5309,0 0.57174,-0.40839 0.81677,-1.22516 l 3.34877,-13.59927 c 0,-0.28587 -0.24503,-0.57174 -0.61258,-0.57174 -0.5309,0 -0.57174,0.24503 -0.81677,1.0618 -1.14349,4.49225 -2.32781,5.79909 -7.55515,5.79909 l -5.55406,0 3.63464,-14.41604 c 0.5309,-2.04193 0.65342,-2.24613 3.0629,-2.24613 l 8.37192,0 c 7.1876,0 8.65779,1.96026 8.65779,6.41167 0,0.0408 0,1.67438 -0.24503,3.63464 -0.0408,0.20419 -0.12251,0.57174 -0.12251,0.69426 0,0.44922 0.28587,0.65341 0.65341,0.65341 0.40839,0 0.65342,-0.24503 0.77594,-1.30683 l 1.22516,-10.2505 c 0,-0.16336 0.12251,-0.77594 0.12251,-0.85761 0,-0.65342 -0.5309,-0.65342 -1.5927,-0.65342 l -28.58706,0 c -1.10264,0 -1.71522,0 -1.71522,1.0618 0,0.61258 0.40839,0.61258 1.42935,0.61258 3.63464,0 3.63464,0.40839 3.63464,1.06181 0,0.28587 -0.0817,0.5309 -0.24503,1.18432 l -7.9227,31.64995 c -0.5309,2.04193 -0.65341,2.61367 -4.73728,2.61367 -1.10264,0 -1.71522,0 -1.71522,1.06181 0,0.65341 0.36755,0.65341 1.55187,0.65341 l 29.40382,0 c 1.266,0 1.34768,-0.0817 1.75606,-1.02096 z"
         id="path6153" />
      <path
         style="font-style:normal;font-variant:normal;font-weight:normal;font-stretch:normal;letter-spacing:normal;word-spacing:normal;text-anchor:start;fill:#000000;fill-opacity:1;fill-rule:evenodd;stroke:#000000;stroke-width:0;stroke-linecap:butt;stroke-linejoin:miter;stroke-miterlimit:10.43299961;stroke-dasharray:none;stroke-dashoffset:0;stroke-opacity:1"
         inkscape:connector-curvature="0"
         d="m 197.23774,-109.47428 3.96135,0 c 3.02206,0 3.34877,0.65342 3.34877,1.83774 0,0.28587 0,0.77594 -0.28587,2.0011 -0.0817,0.20419 -0.12252,0.36754 -0.12252,0.44922 0,0.32671 0.24503,0.49006 0.49006,0.49006 0.40839,0 0.40839,-0.12251 0.61258,-0.85761 l 2.24613,-8.82114 c 0.12252,-0.44923 0.12252,-0.53091 0.12252,-0.65342 0,-0.0817 -0.0817,-0.44923 -0.49007,-0.44923 -0.40838,0 -0.44922,0.20419 -0.61258,0.85761 -0.85761,3.14458 -1.7969,3.87967 -5.22734,3.87967 l -3.71632,0 2.61367,-10.33217 c 0.36755,-1.42936 0.40839,-1.59271 2.16445,-1.59271 l 5.3907,0 c 4.98232,0 5.9216,1.34768 5.9216,4.49225 0,0.93929 0,1.10264 -0.12251,2.20529 -0.0817,0.5309 -0.0817,0.61258 -0.0817,0.73509 0,0.2042 0.12252,0.49007 0.49007,0.49007 0.44922,0 0.49006,-0.24503 0.57174,-1.02097 l 0.81677,-7.06508 c 0.12252,-1.06181 -0.0817,-1.06181 -1.10264,-1.06181 l -19.92926,0 c -0.81678,0 -1.22516,0 -1.22516,0.81677 0,0.40839 0.36755,0.40839 1.14348,0.40839 1.51103,0 2.65451,0 2.65451,0.7351 0,0.16335 0,0.24503 -0.20419,0.98012 l -5.3907,21.521969 c -0.40839,1.592707 -0.44923,1.919416 -3.67548,1.919416 -0.69426,0 -1.14348,0 -1.14348,0.775935 0,0.490063 0.49006,0.490063 0.61258,0.490063 1.18432,0 4.16554,-0.122515 5.34986,-0.122515 1.34767,0 4.73728,0.122515 6.08496,0.122515 0.36755,0 0.85761,0 0.85761,-0.775934 0,-0.326709 -0.24503,-0.408386 -0.24503,-0.449225 -0.12252,-0.04084 -0.2042,-0.04084 -1.14348,-0.04084 -0.89845,0 -1.10265,0 -2.12361,-0.08168 -1.18432,-0.122516 -1.30684,-0.28587 -1.30684,-0.816773 0,-0.08168 0,-0.326709 0.16335,-0.939289 z"
         id="path6155" />
    </g>
    <g
       id="g6319"
       transform="matrix(0.6698682,0,0,0.6698682,-41.467586,426.98439)">
      <path
         style="font-style:normal;font-variant:normal;font-weight:normal;font-stretch:normal;letter-spacing:normal;word-spacing:normal;text-anchor:start;fill:#000000;fill-opacity:1;fill-rule:evenodd;stroke:#000000;stroke-width:0;stroke-linecap:butt;stroke-linejoin:miter;stroke-miterlimit:10.43299961;stroke-dasharray:none;stroke-dashoffset:0;stroke-opacity:1"
         inkscape:connector-curvature="0"
         d="m 278.62916,-118.62213 0,-0.0408 0,0 0,0 0,-0.0408 0,0 0.0408,-0.0408 0,-0.0408 0,0 0,-0.0408 0.0408,0 0,-0.0408 0,-0.0408 0,-0.0408 0.0408,-0.0817 0,-0.0408 0.0408,-0.0408 0,-0.0817 0,-0.0408 0.0408,0 0,-0.0408 0,-0.0408 0,0 0,-0.0408 0,0 0,-0.0408 0,-0.0408 0,0 c 0,-0.28587 -0.20419,-0.57174 -0.57174,-0.57174 -0.24503,0 -0.36755,0.0408 -0.5309,0.2042 -0.12252,0.0817 -0.12252,0.16335 -0.65342,1.34767 -3.43045,8.20857 -5.96244,11.72069 -15.35533,11.72069 l -8.53528,0 c -0.81677,0 -0.93929,0 -1.30683,-0.0408 -0.61258,-0.0817 -0.69426,-0.20419 -0.69426,-0.65342 0,-0.40838 0.12252,-0.77593 0.24503,-1.30683 l 4.04303,-16.17211 5.79909,0 c 4.57392,0 4.90063,1.02097 4.90063,2.77703 0,0.57174 0,1.10265 -0.40838,2.85871 -0.12252,0.24503 -0.16336,0.49006 -0.16336,0.65342 0,0.40838 0.28587,0.57174 0.65342,0.57174 0.5309,0 0.57174,-0.40839 0.81677,-1.22516 l 3.34877,-13.59927 c 0,-0.28587 -0.24503,-0.57174 -0.61258,-0.57174 -0.49006,0 -0.57174,0.24503 -0.81677,1.0618 -1.14348,4.49225 -2.3278,5.79909 -7.55515,5.79909 l -5.55406,0 3.63464,-14.41604 c 0.53091,-2.04193 0.65342,-2.24613 3.0629,-2.24613 l 8.37192,0 c 7.18761,0 8.6578,1.96026 8.6578,6.41167 0,0.0408 0,1.67438 -0.24504,3.63464 -0.0408,0.20419 -0.12251,0.57174 -0.12251,0.69426 0,0.44922 0.28587,0.65341 0.65342,0.65341 0.40838,0 0.65342,-0.24503 0.77593,-1.30683 l 1.22516,-10.2505 c 0,-0.16336 0.12252,-0.77594 0.12252,-0.85761 0,-0.65342 -0.53091,-0.65342 -1.59271,-0.65342 l -28.58705,0 c -1.10265,0 -1.71523,0 -1.71523,1.0618 0,0.61258 0.40839,0.61258 1.42936,0.61258 3.63464,0 3.63464,0.40839 3.63464,1.06181 0,0.28587 -0.0817,0.5309 -0.24503,1.18432 l -7.9227,31.64995 c -0.5309,2.04193 -0.65342,2.61367 -4.73728,2.61367 -1.10265,0 -1.67439,0 -1.67439,1.06181 0,0.65341 0.32671,0.65341 1.51103,0.65341 l 29.40382,0 c 1.266,0 1.34768,-0.0817 1.75607,-1.02096 z"
         id="path6157" />
      <path
         style="font-style:normal;font-variant:normal;font-weight:normal;font-stretch:normal;letter-spacing:normal;word-spacing:normal;text-anchor:start;fill:#000000;fill-opacity:1;fill-rule:evenodd;stroke:#000000;stroke-width:0;stroke-linecap:butt;stroke-linejoin:miter;stroke-miterlimit:10.43299961;stroke-dasharray:none;stroke-dashoffset:0;stroke-opacity:1"
         inkscape:connector-curvature="0"
         d="m 311.25924,-124.5029 0,-0.0408 0,0 0,0 0,-0.0408 0,0 0,0 0,-0.0408 0,0 0,-0.0408 -0.0408,0 0,0 0,-0.0408 0,0 0,-0.0408 -0.0408,0 0,-0.0408 0,0 -0.0408,0 0,-0.0408 0,0 -0.0408,0 0,-0.0408 -0.0408,0 0,0 -0.0408,-0.0408 0,0 0,0 -0.0408,0 0,0 0,0 -0.0408,0 0,0 0,0 -0.0408,0 0,0 -0.0408,0 0,0 0,0 -0.0408,0 c -0.12251,0 -0.16335,0.0408 -0.61258,0.49007 l -2.8587,3.10374 c -0.32671,-0.57175 -2.20529,-3.59381 -6.73838,-3.59381 -9.06618,0 -18.21404,8.98451 -18.21404,18.41823 0,6.45251 4.49226,11.148954 11.10812,11.148954 1.7969,0 3.63464,-0.367548 5.06399,-0.980128 2.04193,-0.816773 2.81786,-1.674384 3.55296,-2.491157 0.36755,1.020966 1.42935,2.531996 1.83774,2.531996 0.20419,0 0.28587,-0.122516 0.28587,-0.163355 0.0817,-0.08168 0.49006,-1.633546 0.69426,-2.491157 l 0.77593,-3.144573 c 0.16336,-0.65342 0.36755,-1.34768 0.5309,-2.04194 0.44923,-1.83773 0.49007,-1.91941 2.77703,-1.96025 0.20419,0 0.65342,-0.0408 0.65342,-0.81677 0,-0.28587 -0.20419,-0.44923 -0.5309,-0.44923 -0.93929,0 -3.30793,0.12252 -4.24722,0.12252 -1.266,0 -4.45141,-0.12252 -5.71741,-0.12252 -0.36755,0 -0.85761,0 -0.85761,0.81677 0,0.44923 0.32671,0.44923 1.22516,0.44923 0.0408,0 1.22515,0 2.16444,0.0817 1.06181,0.12251 1.266,0.24503 1.266,0.77593 0,0.36755 -0.44922,2.20529 -0.85761,3.67548 -1.14348,4.492251 -6.41167,4.941476 -7.84102,4.941476 -3.92051,0 -8.20857,-2.327803 -8.20857,-8.535276 0,-1.266 0.40839,-7.96354 4.69645,-13.27256 2.20528,-2.77703 6.12579,-5.22735 10.16882,-5.22735 4.16554,0 6.57502,3.10374 6.57502,7.84102 0,1.63355 -0.16335,1.67439 -0.16335,2.08277 0,0.40839 0.49006,0.40839 0.65341,0.40839 0.49007,0 0.49007,-0.0817 0.69426,-0.81677 z"
         id="path6159" />
    </g>
    <g
       transform="matrix(0.6698682,0,0,0.6698682,5.490512,570.5597)"
       id="g6270">
      <path
         style="font-style:normal;font-variant:normal;font-weight:normal;font-stretch:normal;letter-spacing:normal;word-spacing:normal;text-anchor:start;fill:#000000;fill-opacity:1;fill-rule:evenodd;stroke:#000000;stroke-width:0;stroke-linecap:butt;stroke-linejoin:miter;stroke-miterlimit:10.43299961;stroke-dasharray:none;stroke-dashoffset:0;stroke-opacity:1"
         inkscape:connector-curvature="0"
         d="m 429.85466,-122.21593 0.0408,-0.0408 0,-0.0408 0.0408,-0.0817 0.0408,-0.0817 0.0408,-0.0817 0.0817,-0.12252 0.0408,-0.0817 0.0817,-0.12251 0.0408,-0.16336 0.0817,-0.12251 0.12251,-0.16336 0.0817,-0.16335 0.0817,-0.16336 0.12251,-0.20419 0.12252,-0.16336 0.12251,-0.20419 0.12252,-0.16335 0.12252,-0.2042 0.12251,-0.20419 0.16336,-0.20419 0.12251,-0.2042 0.16336,-0.20419 0.16335,-0.20419 0.16336,-0.2042 0.16335,-0.20419 0.16335,-0.20419 0.2042,-0.2042 0.16335,-0.20419 0.2042,-0.16335 0.20419,-0.2042 0.16335,-0.16335 0.2042,-0.20419 c 1.55187,-1.38852 3.51212,-2.32781 5.79908,-2.32781 2.36865,0 3.18542,1.75606 3.18542,4.08387 0,3.34877 -2.40948,10.00547 -3.5938,13.19088 -0.5309,1.38851 -0.81677,2.16445 -0.81677,3.22625 0,2.61368 1.83773,4.73729 4.6556,4.73729 5.43154,0 7.47347,-8.61696 7.47347,-8.94367 0,-0.32671 -0.24503,-0.5309 -0.57174,-0.5309 -0.5309,0 -0.61258,0.16335 -0.89845,1.14348 -1.34767,4.81896 -3.55296,7.14677 -5.83992,7.14677 -0.61258,0 -1.51103,-0.0408 -1.51103,-1.91942 0,-1.47019 0.61258,-3.22625 0.98012,-4.04303 1.18432,-3.22625 3.63464,-9.76043 3.63464,-13.1092 0,-3.51213 -2.04193,-6.16664 -6.49334,-6.16664 -5.22735,0 -7.96354,3.71632 -9.02534,5.14567 -0.2042,-3.30793 -2.57284,-5.14567 -5.18651,-5.14567 -1.83774,0 -3.14458,1.10265 -4.1247,3.10374 -1.06181,2.12361 -1.87858,5.63573 -1.87858,5.88076 0,0.2042 0.24503,0.53091 0.65342,0.53091 0.44922,0 0.49006,-0.0817 0.85761,-1.42936 0.93929,-3.55296 2.00109,-6.90173 4.32889,-6.90173 1.34768,0 1.83774,0.93929 1.83774,2.69535 0,1.266 -0.61258,3.55297 -1.02096,5.3907 l -1.63355,6.32999 c -0.24503,1.10265 -0.85761,3.71632 -1.18432,4.77813 -0.40839,1.55186 -1.02097,4.28805 -1.02097,4.57392 0,0.81678 0.61258,1.4702 1.51103,1.4702 0.69426,0 1.51103,-0.36755 2.0011,-1.22516 0.0817,-0.28587 0.65342,-2.32781 0.93929,-3.51213 l 1.266,-5.26818 z"
         id="path6165" />
      <polygon
         style="font-style:normal;font-variant:normal;font-weight:normal;font-stretch:normal;letter-spacing:normal;word-spacing:normal;text-anchor:start;fill:#000000;fill-opacity:1;fill-rule:evenodd;stroke:#000000;stroke-width:0;stroke-linecap:butt;stroke-linejoin:miter;stroke-miterlimit:10.43299961;stroke-dasharray:none;stroke-dashoffset:0;stroke-opacity:1"
         points="319.05,710.61 315.32,710.61 315.32,709.83 319.05,709.83 "
         id="polygon6167"
         transform="matrix(4.0838645,0,0,-4.0838645,-835.04069,2782.7594)" />
      <path
         style="font-style:normal;font-variant:normal;font-weight:normal;font-stretch:normal;letter-spacing:normal;word-spacing:normal;text-anchor:start;fill:#000000;fill-opacity:1;fill-rule:evenodd;stroke:#000000;stroke-width:0;stroke-linecap:butt;stroke-linejoin:miter;stroke-miterlimit:10.43299961;stroke-dasharray:none;stroke-dashoffset:0;stroke-opacity:1"
         inkscape:connector-curvature="0"
         d="m 480.94381,-118.70381 0,-0.5309 0.0408,-0.49007 0.0408,-0.5309 0.0408,-0.5309 0.0408,-0.5309 0.0817,-0.49007 0.0817,-0.49006 0.12251,-0.49007 0.12252,-0.49006 0.12251,-0.49006 0.12252,-0.44923 0.16335,-0.44922 0.16336,-0.44923 0.20419,-0.40839 0.16336,-0.40838 0.24503,-0.40839 0.20419,-0.36755 0.24503,-0.3267 0.24504,-0.36755 0.24503,-0.32671 0.28587,-0.28587 0.28587,-0.28587 0.28587,-0.24503 0.32671,-0.24504 0.32671,-0.20419 0.32671,-0.16335 0.36754,-0.16336 0.36755,-0.12251 0.36755,-0.12252 0.40839,-0.0817 0.40838,-0.0408 0.40839,0 c 0.44922,0 0.57174,0 0.81677,0.0408 -0.44922,0.24503 -1.38851,0.61258 -1.38851,2.16445 0,1.71522 1.34767,2.36864 2.24612,2.36864 1.18432,0 2.36864,-0.77593 2.36864,-2.36864 0,-1.75606 -1.5927,-3.38961 -4.1247,-3.38961 -4.94147,0 -6.6567,5.3907 -7.02425,6.49335 l -0.0408,0 0,-6.49335 -7.84102,0.65342 0,1.67439 c 3.96134,0 4.45141,0.40838 4.45141,3.30793 l 0,15.88623 c 0,2.61367 -0.65342,2.61367 -4.45141,2.61367 l 0,1.71522 c 1.63354,-0.12251 4.85979,-0.12251 6.61586,-0.12251 1.5927,0 5.71741,0 7.06508,0.12251 l 0,-1.71522 -1.14348,0 c -4.28806,0 -4.41057,-0.65342 -4.41057,-2.73619 z"
         id="path6169" />
      <path
         style="font-style:normal;font-variant:normal;font-weight:normal;font-stretch:normal;letter-spacing:normal;word-spacing:normal;text-anchor:start;fill:#000000;fill-opacity:1;fill-rule:evenodd;stroke:#000000;stroke-width:0;stroke-linecap:butt;stroke-linejoin:miter;stroke-miterlimit:10.43299961;stroke-dasharray:none;stroke-dashoffset:0;stroke-opacity:1"
         inkscape:connector-curvature="0"
         d="m 515.94253,-118.62213 0.0408,0 0.0817,0 0.0408,0 0.0408,0 0.0817,0 0.0408,0 0.0408,0 0.0408,0 0.0408,0 0.0817,0 0.0408,0 0.0408,0 0.0408,0 0.0408,0 0.0408,0 0,-0.0408 0.0408,0 0.0408,0 0.0408,0 0.0408,0 0.0408,0 0.0408,-0.0408 0.0817,0 0.0408,0 0.0408,-0.0408 0.0408,0 0.0408,-0.0408 0,-0.0408 0.0408,-0.0408 0.0408,-0.0408 0,-0.0408 0,-0.0408 0.0408,-0.0408 0,-0.0817 0,0 0,-0.0408 0.0408,-0.0408 0,-0.0408 0,-0.0408 0,0 0,-0.0408 0,-0.0408 0,-0.0408 0,-0.0408 0,-0.0408 0,-0.0817 0,-0.0408 0,-0.0408 0,-0.0408 0,-0.0408 c 0,-5.9216 -3.14458,-11.43482 -10.2505,-11.43482 -6.6567,0 -11.84321,6.04412 -11.84321,13.3134 0,7.7185 6.00328,13.39508 12.49663,13.39508 6.98341,0 9.59708,-6.32999 9.59708,-7.55515 0,-0.36755 -0.28587,-0.57174 -0.65342,-0.57174 -0.44922,0 -0.57174,0.28587 -0.69426,0.57174 -1.51103,4.94147 -5.43154,6.28915 -7.88185,6.28915 -2.49116,0 -8.41277,-1.67439 -8.41277,-11.80237 l 0,-1.10264 0.0817,-1.10265 c 0.44923,-9.22953 5.63573,-10.2505 7.26928,-10.2505 6.24831,0 6.61586,8.24941 6.6567,10.2505 l -13.92598,0 -0.0817,1.10265 z"
         id="path6171" />
      <path
         style="font-style:normal;font-variant:normal;font-weight:normal;font-stretch:normal;letter-spacing:normal;word-spacing:normal;text-anchor:start;fill:#000000;fill-opacity:1;fill-rule:evenodd;stroke:#000000;stroke-width:0;stroke-linecap:butt;stroke-linejoin:miter;stroke-miterlimit:10.43299961;stroke-dasharray:none;stroke-dashoffset:0;stroke-opacity:1"
         inkscape:connector-curvature="0"
         d="m 525.94799,-115.64091 0.24504,0.16335 0.28587,0.16336 0.24503,0.12251 0.24503,0.16336 0.24503,0.12251 0.24503,0.12252 0.2042,0.0817 0.24503,0.12251 0.24503,0.0817 0.20419,0.0817 0.24504,0.0817 0.20419,0.0817 0.20419,0.0408 0.20419,0.0817 0.2042,0.0408 0.20419,0.0408 0.16336,0.0408 0.20419,0.0408 0.16335,0.0408 0.16336,0 0.16335,0.0408 0.16336,0 0.12251,0.0408 0.12252,0 0.16335,0 0.12252,0 0.0817,0 0.12251,0.0408 0.0817,0 0.0817,0 0.0817,0 0.0817,0 c 5.26819,0 9.1887,-4.00219 9.1887,-8.49444 0,-1.59271 -0.49007,-3.83883 -2.36864,-5.71741 2.28696,-2.32781 5.06399,-2.32781 5.34986,-2.32781 0.24503,0 0.5309,0 0.77593,0.12252 -0.61258,0.24503 -0.89845,0.81677 -0.89845,1.47019 0,0.81677 0.57174,1.51103 1.51103,1.51103 0.49007,0 1.55187,-0.28587 1.55187,-1.59271 0,-1.0618 -0.81677,-2.69535 -2.89954,-2.69535 -3.02206,0 -5.30903,1.87858 -6.1258,2.77703 -1.75606,-1.34767 -3.79799,-2.12361 -6.04412,-2.12361 l -0.0408,1.22516 c 5.14567,0 5.14567,5.92161 5.14567,7.26928 0,1.06181 0,3.47129 -1.02096,5.02315 -1.10265,1.71523 -2.85871,2.28697 -4.08387,2.28697 l 0,0 c -5.14567,0 -5.14567,-5.92161 -5.14567,-7.22844 0,-1.06181 0,-3.47129 0.98013,-5.06399 1.10264,-1.67439 2.8587,-2.28697 4.1247,-2.28697 l 0.0408,-1.22516 c -5.26818,0 -9.18869,4.00219 -9.18869,8.49444 0,3.34877 2.04193,5.51322 2.61367,6.04412 -0.69426,0.85761 -1.75606,2.57283 -1.75606,4.8598 0,3.38961 2.04193,4.8598 2.53199,5.14567 -2.69535,0.77593 -5.3907,2.89954 -5.3907,5.9216 0,4.043027 5.51322,7.391796 12.70082,7.391796 l 0.0817,-1.225159 c -5.63573,0 -9.92379,-2.899544 -9.92379,-6.207477 0,-0.49006 0.12251,-2.77702 2.36864,-4.28805 1.266,-0.81678 1.7969,-0.81678 5.9216,-0.81678 4.8598,0 11.47566,0 11.47566,5.10483 0,3.430449 -4.45141,6.207477 -9.84211,6.207477 l 0,0 -0.0817,1.225159 c 6.98341,0 12.7825,-3.103737 12.7825,-7.514306 0,-1.4702 -0.40839,-4.90064 -3.92051,-6.73838 -2.98122,-1.51103 -5.92161,-1.51103 -10.94476,-1.51103 -3.5938,0 -4.00219,0 -5.06399,-1.10264 -0.57174,-0.61258 -1.10265,-1.71523 -1.10265,-2.94039 0,-0.98012 0.36755,-2.00109 0.93929,-2.81786 z"
         id="path6173" />
      <path
         style="font-style:normal;font-variant:normal;font-weight:normal;font-stretch:normal;letter-spacing:normal;word-spacing:normal;text-anchor:start;fill:#000000;fill-opacity:1;fill-rule:evenodd;stroke:#000000;stroke-width:0;stroke-linecap:butt;stroke-linejoin:miter;stroke-miterlimit:10.43299961;stroke-dasharray:none;stroke-dashoffset:0;stroke-opacity:1"
         inkscape:connector-curvature="0"
         d="m 557.88381,-141.12423 0,-0.12251 -0.0408,-0.16336 0,-0.12251 -0.0408,-0.16336 -0.0408,-0.12251 0,-0.12252 -0.0817,-0.16335 -0.0408,-0.12252 -0.0408,-0.12252 -0.0817,-0.12251 -0.0408,-0.12252 -0.0817,-0.12251 -0.0817,-0.0817 -0.0817,-0.12252 -0.0817,-0.12251 -0.0817,-0.0817 -0.12252,-0.12252 -0.0817,-0.0817 -0.12252,-0.0817 -0.12251,-0.0817 -0.12252,-0.0817 -0.12252,-0.0817 -0.12251,-0.0408 -0.12252,-0.0817 -0.12251,-0.0408 -0.12252,-0.0408 -0.16335,-0.0408 -0.12252,-0.0408 -0.16336,0 -0.12251,-0.0408 -0.16336,0 -0.16335,0 c -1.51103,0 -2.81787,1.22516 -2.81787,2.81786 0,1.75607 1.42936,2.85871 2.81787,2.85871 1.83774,0 2.89954,-1.51103 2.89954,-2.81787 z"
         id="path6175" />
      <path
         style="font-style:normal;font-variant:normal;font-weight:normal;font-stretch:normal;letter-spacing:normal;word-spacing:normal;text-anchor:start;fill:#000000;fill-opacity:1;fill-rule:evenodd;stroke:#000000;stroke-width:0;stroke-linecap:butt;stroke-linejoin:miter;stroke-miterlimit:10.43299961;stroke-dasharray:none;stroke-dashoffset:0;stroke-opacity:1"
         inkscape:connector-curvature="0"
         d="m 549.79776,-130.22031 0,1.67439 c 3.75716,0 4.24722,0.36754 4.24722,3.22625 l 0,15.96791 c 0,2.61367 -0.61258,2.61367 -4.45141,2.61367 l 0,1.71522 c 1.63354,-0.12251 4.45141,-0.12251 6.16663,-0.12251 0.65342,0 4.04303,0 6.04412,0.12251 l 0,-1.71522 c -3.79799,0 -4.04302,-0.28587 -4.04302,-2.57283 l 0,-21.56281 z"
         id="path6177" />
      <path
         style="font-style:normal;font-variant:normal;font-weight:normal;font-stretch:normal;letter-spacing:normal;word-spacing:normal;text-anchor:start;fill:#000000;fill-opacity:1;fill-rule:evenodd;stroke:#000000;stroke-width:0;stroke-linecap:butt;stroke-linejoin:miter;stroke-miterlimit:10.43299961;stroke-dasharray:none;stroke-dashoffset:0;stroke-opacity:1"
         inkscape:connector-curvature="0"
         d="m 590.51389,-117.56033 -0.0408,-0.73509 -0.0408,-0.69426 -0.0817,-0.65342 -0.12252,-0.69426 -0.12252,-0.65342 -0.20419,-0.65341 -0.16335,-0.61258 -0.24504,-0.61258 -0.24503,-0.61258 -0.28587,-0.57174 -0.32671,-0.57174 -0.32671,-0.57175 -0.3267,-0.5309 -0.40839,-0.49006 -0.36755,-0.5309 -0.44922,-0.44923 -0.40839,-0.44922 -0.49006,-0.40839 -0.44923,-0.40839 -0.49006,-0.40838 -0.53091,-0.32671 -0.5309,-0.32671 -0.5309,-0.28587 -0.5309,-0.28587 -0.57174,-0.24504 -0.57174,-0.20419 -0.61258,-0.20419 -0.61258,-0.12252 -0.57175,-0.12251 -0.65341,-0.0817 -0.61258,-0.0817 -0.65342,0 -0.0408,1.18432 c 2.28696,0 4.73728,1.02097 6.32999,3.30793 1.83774,2.69535 1.83774,6.41167 1.83774,8.57612 0,2.04193 0,5.67657 -1.55187,8.41276 -1.63355,2.81787 -4.3289,3.96135 -6.57502,3.96135 l 0,0 c -2.16445,0 -4.77812,-0.93929 -6.49335,-3.83883 -1.55186,-2.61368 -1.63354,-6.08496 -1.63354,-8.53528 0,-2.24613 0,-5.79909 1.83774,-8.4536 1.63354,-2.49116 4.20638,-3.43045 6.24831,-3.43045 l 0.0408,-1.18432 c -7.02425,0 -12.5783,6.20748 -12.5783,13.59927 0,7.47347 5.88076,13.10921 12.53746,13.10921 6.90173,0 12.61914,-5.75825 12.61914,-13.10921 z"
         id="path6179" />
      <path
         style="font-style:normal;font-variant:normal;font-weight:normal;font-stretch:normal;letter-spacing:normal;word-spacing:normal;text-anchor:start;fill:#000000;fill-opacity:1;fill-rule:evenodd;stroke:#000000;stroke-width:0;stroke-linecap:butt;stroke-linejoin:miter;stroke-miterlimit:10.43299961;stroke-dasharray:none;stroke-dashoffset:0;stroke-opacity:1"
         inkscape:connector-curvature="0"
         d="m 618.32501,-119.27555 0,-0.49007 0,-0.49006 0,-0.44922 0,-0.44923 0,-0.40839 0,-0.40838 0,-0.36755 0,-0.36755 0,-0.36755 -0.0408,-0.32671 0,-0.28587 0,-0.32671 -0.0408,-0.28587 0,-0.28587 -0.0408,-0.24503 -0.0408,-0.24503 -0.0408,-0.24503 0,-0.24503 -0.0817,-0.24504 -0.0408,-0.20419 -0.0408,-0.20419 -0.0408,-0.2042 -0.0817,-0.20419 -0.0817,-0.16335 -0.0408,-0.2042 -0.0817,-0.20419 -0.0817,-0.16335 -0.12251,-0.16336 -0.0817,-0.20419 -0.12252,-0.16336 -0.12251,-0.16335 -0.12252,-0.16336 c -1.67438,-2.28696 -4.45141,-2.65451 -6.41166,-2.65451 -5.71741,0 -7.9227,4.8598 -8.41277,6.04412 l -0.0408,0 0,-6.04412 -7.96354,0.65342 0,1.67439 c 3.96135,0 4.45141,0.40838 4.45141,3.30793 l 0,15.88623 c 0,2.61367 -0.65342,2.61367 -4.45141,2.61367 l 0,1.71522 c 1.51103,-0.12251 4.69644,-0.12251 6.32999,-0.12251 1.67438,0 4.8598,0 6.37083,0.12251 l 0,-1.71522 c -3.75716,0 -4.45141,0 -4.45141,-2.61367 l 0,-10.90392 c 0,-6.16664 4.04302,-9.43373 7.67766,-9.43373 3.63464,0 4.45141,2.98122 4.45141,6.57503 l 0,13.76262 c 0,2.61367 -0.65341,2.61367 -4.45141,2.61367 l 0,1.71522 c 1.51103,-0.12251 4.69645,-0.12251 6.32999,-0.12251 1.71523,0 4.8598,0 6.37083,0.12251 l 0,-1.71522 c -2.89954,0 -4.36973,0 -4.45141,-1.75606 z"
         id="path6181" />
    </g>
    <g
       transform="matrix(0.6698682,0,0,0.6698682,-327.49834,572.45437)"
       id="g6281">
      <path
         style="font-style:normal;font-variant:normal;font-weight:normal;font-stretch:normal;letter-spacing:normal;word-spacing:normal;text-anchor:start;fill:#000000;fill-opacity:1;fill-rule:evenodd;stroke:#000000;stroke-width:0;stroke-linecap:butt;stroke-linejoin:miter;stroke-miterlimit:10.43299961;stroke-dasharray:none;stroke-dashoffset:0;stroke-opacity:1"
         inkscape:connector-curvature="0"
         d="m 645.76858,-97.590232 -0.0408,0.163355 0,0.163354 -0.0408,0.122516 -0.0408,0.163355 -0.0408,0.122516 -0.0408,0.122516 -0.0408,0.122516 -0.0408,0.122516 -0.0408,0.08168 -0.0408,0.122516 -0.0817,0.08168 -0.0408,0.08168 -0.0817,0.08168 -0.0408,0.08168 -0.0817,0.08168 -0.0817,0.04084 -0.0817,0.08168 -0.0817,0.04084 -0.0817,0.04084 -0.0817,0.08168 -0.12251,0.04084 -0.12252,0.04084 -0.12251,0 -0.12252,0.04084 -0.16335,0.04084 -0.12252,0 -0.16335,0.04084 -0.0817,0 -0.0817,0 -0.12252,0 -0.0817,0 -0.0817,0 -0.12252,0 -0.0817,0 -0.12252,0 -0.0817,0 -0.12251,0 c -0.69426,0 -1.30684,0 -1.30684,1.143482 0,0.122516 0.0817,0.571741 0.69426,0.571741 0.77593,0 1.59271,-0.122516 2.36864,-0.122516 l 2.532,0 c 1.22516,0 4.20638,0.122516 5.43154,0.122516 0.36754,0 1.0618,0 1.0618,-1.061805 0,-0.653418 -0.40839,-0.653418 -1.42935,-0.653418 -2.69535,0 -2.85871,-0.408386 -2.85871,-0.857612 0,-0.694257 2.65451,-10.781406 2.98122,-12.129076 0.65342,1.63354 2.24613,3.92051 5.26819,3.92051 l 0,-1.18432 c -3.96135,0 -4.61477,-5.02316 -4.61477,-5.26819 0,-0.16335 0.12252,-0.65342 0.16336,-0.93929 l 2.89954,-11.47566 c 0.40839,-1.63354 2.04193,-3.34877 2.98122,-4.16554 0.65342,-0.57174 2.57284,-2.20529 4.77812,-2.20529 2.61368,0 3.75716,2.57284 3.75716,5.63574 0,2.77702 -1.63355,9.43372 -3.10374,12.45578 -1.47019,3.14458 -4.16554,5.96245 -6.86089,5.96245 l 0,1.18432 c 6.6567,0 13.80346,-8.61696 13.80346,-17.23391 0,-5.3907 -3.0629,-9.1887 -7.47347,-9.1887 -3.71632,0 -6.90173,3.63464 -7.55515,4.45141 -0.44923,-2.94038 -2.73619,-4.45141 -5.10483,-4.45141 -1.67439,0 -3.02206,0.81678 -4.1247,3.0629 -1.06181,2.08277 -1.87858,5.67657 -1.87858,5.9216 0,0.2042 0.20419,0.53091 0.61258,0.53091 0.49006,0 0.5309,-0.0817 0.89845,-1.42936 0.89845,-3.47128 2.00109,-6.90173 4.32889,-6.90173 1.34768,0 1.83774,0.93929 1.83774,2.69535 0,1.38852 -0.20419,1.96026 -0.40838,3.02206 z"
         id="path6183" />
      <polygon
         style="font-style:normal;font-variant:normal;font-weight:normal;font-stretch:normal;letter-spacing:normal;word-spacing:normal;text-anchor:start;fill:#000000;fill-opacity:1;fill-rule:evenodd;stroke:#000000;stroke-width:0;stroke-linecap:butt;stroke-linejoin:miter;stroke-miterlimit:10.43299961;stroke-dasharray:none;stroke-dashoffset:0;stroke-opacity:1"
         points="372.92,709.83 372.92,710.61 369.2,710.61 369.2,709.83 "
         id="polygon6185"
         transform="matrix(4.0838645,0,0,-4.0838645,-835.04069,2782.7594)" />
      <path
         style="font-style:normal;font-variant:normal;font-weight:normal;font-stretch:normal;letter-spacing:normal;word-spacing:normal;text-anchor:start;fill:#000000;fill-opacity:1;fill-rule:evenodd;stroke:#000000;stroke-width:0;stroke-linecap:butt;stroke-linejoin:miter;stroke-miterlimit:10.43299961;stroke-dasharray:none;stroke-dashoffset:0;stroke-opacity:1"
         inkscape:connector-curvature="0"
         d="m 700.94159,-118.70381 0,-0.5309 0.0408,-0.49007 0.0408,-0.5309 0.0408,-0.5309 0.0408,-0.5309 0.0817,-0.49007 0.0817,-0.49006 0.12251,-0.49007 0.12252,-0.49006 0.12251,-0.49006 0.12252,-0.44923 0.16335,-0.44922 0.16336,-0.44923 0.20419,-0.40839 0.2042,-0.40838 0.20419,-0.40839 0.20419,-0.36755 0.24503,-0.3267 0.24504,-0.36755 0.28587,-0.32671 0.24503,-0.28587 0.28587,-0.28587 0.32671,-0.24503 0.28587,-0.24504 0.32671,-0.20419 0.36755,-0.16335 0.3267,-0.16336 0.36755,-0.12251 0.40839,-0.12252 0.36755,-0.0817 0.40838,-0.0408 0.40839,0 c 0.49006,0 0.57174,0 0.81677,0.0408 -0.44922,0.24503 -1.38851,0.61258 -1.38851,2.16445 0,1.71522 1.34767,2.36864 2.28696,2.36864 1.14348,0 2.32781,-0.77593 2.32781,-2.36864 0,-1.75606 -1.59271,-3.38961 -4.08387,-3.38961 -4.98231,0 -6.69754,5.3907 -7.02425,6.49335 l -0.0817,0 0,-6.49335 -7.84102,0.65342 0,1.67439 c 4.00218,0 4.45141,0.40838 4.45141,3.30793 l 0,15.88623 c 0,2.61367 -0.65342,2.61367 -4.45141,2.61367 l 0,1.71522 c 1.63354,-0.12251 4.8598,-0.12251 6.61586,-0.12251 1.5927,0 5.75825,0 7.10592,0.12251 l 0,-1.71522 -1.18432,0 c -4.28806,0 -4.41057,-0.65342 -4.41057,-2.73619 z"
         id="path6187" />
      <path
         style="font-style:normal;font-variant:normal;font-weight:normal;font-stretch:normal;letter-spacing:normal;word-spacing:normal;text-anchor:start;fill:#000000;fill-opacity:1;fill-rule:evenodd;stroke:#000000;stroke-width:0;stroke-linecap:butt;stroke-linejoin:miter;stroke-miterlimit:10.43299961;stroke-dasharray:none;stroke-dashoffset:0;stroke-opacity:1"
         inkscape:connector-curvature="0"
         d="m 735.94031,-118.62213 0.0408,0 0.0817,0 0.0408,0 0.0817,0 0.0408,0 0.0408,0 0.0408,0 0.0817,0 0.0408,0 0.0408,0 0.0408,0 0.0408,0 0.0408,0 0.0408,0 0.0408,0 0.0408,-0.0408 0.0408,0 0,0 0.0408,0 0.0408,0 0.0408,0 0.0817,-0.0408 0.0408,0 0.0408,0 0.0408,-0.0408 0.0408,0 0.0408,-0.0408 0.0408,-0.0408 0,-0.0408 0.0408,-0.0408 0,-0.0408 0.0408,-0.0408 0,-0.0408 0,-0.0817 0.0408,0 0,-0.0408 0,-0.0408 0,-0.0408 0,-0.0408 0,0 0,-0.0408 0,-0.0408 0,-0.0408 0,-0.0408 0,-0.0408 0,-0.0817 0,-0.0408 0,-0.0408 0,-0.0408 0,-0.0408 c 0,-5.9216 -3.14458,-11.43482 -10.2505,-11.43482 -6.6567,0 -11.84321,6.04412 -11.84321,13.3134 0,7.7185 6.00328,13.39508 12.49663,13.39508 6.98341,0 9.59708,-6.32999 9.59708,-7.55515 0,-0.36755 -0.28587,-0.57174 -0.61258,-0.57174 -0.49006,0 -0.61258,0.28587 -0.7351,0.57174 -1.51103,4.94147 -5.43154,6.28915 -7.88185,6.28915 -2.49116,0 -8.37193,-1.67439 -8.37193,-11.80237 l 0,-1.10264 0.0408,-1.10265 c 0.44923,-9.22953 5.63574,-10.2505 7.26928,-10.2505 6.24831,0 6.61586,8.24941 6.6567,10.2505 l -13.92598,0 -0.0408,1.10265 z"
         id="path6189" />
      <path
         style="font-style:normal;font-variant:normal;font-weight:normal;font-stretch:normal;letter-spacing:normal;word-spacing:normal;text-anchor:start;fill:#000000;fill-opacity:1;fill-rule:evenodd;stroke:#000000;stroke-width:0;stroke-linecap:butt;stroke-linejoin:miter;stroke-miterlimit:10.43299961;stroke-dasharray:none;stroke-dashoffset:0;stroke-opacity:1"
         inkscape:connector-curvature="0"
         d="m 745.94577,-115.64091 0.24504,0.16335 0.28587,0.16336 0.24503,0.12251 0.24503,0.16336 0.24503,0.12251 0.24503,0.12252 0.24504,0.0817 0.20419,0.12251 0.24503,0.0817 0.20419,0.0817 0.24504,0.0817 0.20419,0.0817 0.20419,0.0408 0.2042,0.0817 0.20419,0.0408 0.20419,0.0408 0.16336,0.0408 0.20419,0.0408 0.16335,0.0408 0.16336,0 0.16335,0.0408 0.16336,0 0.12251,0.0408 0.16336,0 0.12251,0 0.12252,0 0.0817,0 0.12251,0.0408 0.0817,0 0.0817,0 0.0817,0 0.0817,0 c 5.26819,0 9.1887,-4.00219 9.1887,-8.49444 0,-1.59271 -0.44923,-3.83883 -2.3278,-5.71741 2.28696,-2.32781 5.02315,-2.32781 5.30902,-2.32781 0.24503,0 0.5309,0 0.77593,0.12252 -0.57174,0.24503 -0.89845,0.81677 -0.89845,1.47019 0,0.81677 0.61258,1.51103 1.55187,1.51103 0.44923,0 1.51103,-0.28587 1.51103,-1.59271 0,-1.0618 -0.81677,-2.69535 -2.8587,-2.69535 -3.0629,0 -5.34987,1.87858 -6.16664,2.77703 -1.75606,-1.34767 -3.79799,-2.12361 -6.04412,-2.12361 l -0.0408,1.22516 c 5.14567,0 5.14567,5.92161 5.14567,7.26928 0,1.06181 0,3.47129 -0.98013,5.02315 -1.14348,1.71523 -2.89954,2.28697 -4.1247,2.28697 l 0,0 c -5.14567,0 -5.14567,-5.92161 -5.14567,-7.22844 0,-1.06181 0,-3.47129 0.98013,-5.06399 1.14348,-1.67439 2.89954,-2.28697 4.1247,-2.28697 l 0.0408,-1.22516 c -5.26818,0 -9.18869,4.00219 -9.18869,8.49444 0,3.34877 2.04193,5.51322 2.65451,6.04412 -0.7351,0.85761 -1.75606,2.57283 -1.75606,4.8598 0,3.38961 2.04193,4.8598 2.49115,5.14567 -2.69535,0.77593 -5.3907,2.89954 -5.3907,5.9216 0,4.043027 5.51322,7.391796 12.74166,7.391796 l 0.0408,-1.225159 c -5.63573,0 -9.88295,-2.899544 -9.88295,-6.207477 0,-0.49006 0.0817,-2.77702 2.3278,-4.28805 1.266,-0.81678 1.7969,-0.81678 5.9216,-0.81678 4.8598,0 11.47566,0 11.47566,5.10483 0,3.430449 -4.45141,6.207477 -9.84211,6.207477 l 0,0 -0.0408,1.225159 c 6.94257,0 12.74166,-3.103737 12.74166,-7.514306 0,-1.4702 -0.40839,-4.90064 -3.92051,-6.73838 -2.98122,-1.51103 -5.92161,-1.51103 -10.94476,-1.51103 -3.5938,0 -4.00219,0 -5.06399,-1.10264 -0.57174,-0.61258 -1.10264,-1.71523 -1.10264,-2.94039 0,-0.98012 0.36754,-2.00109 0.93928,-2.81786 z"
         id="path6191" />
      <path
         style="font-style:normal;font-variant:normal;font-weight:normal;font-stretch:normal;letter-spacing:normal;word-spacing:normal;text-anchor:start;fill:#000000;fill-opacity:1;fill-rule:evenodd;stroke:#000000;stroke-width:0;stroke-linecap:butt;stroke-linejoin:miter;stroke-miterlimit:10.43299961;stroke-dasharray:none;stroke-dashoffset:0;stroke-opacity:1"
         inkscape:connector-curvature="0"
         d="m 777.88159,-141.12423 0,-0.12251 0,-0.16336 -0.0408,-0.12251 0,-0.16336 -0.0408,-0.12251 -0.0408,-0.12252 -0.0408,-0.16335 -0.0408,-0.12252 -0.0817,-0.12252 -0.0408,-0.12251 -0.0817,-0.12252 -0.0817,-0.12251 -0.0817,-0.0817 -0.0817,-0.12252 -0.0817,-0.12251 -0.0817,-0.0817 -0.12251,-0.12252 -0.0817,-0.0817 -0.12252,-0.0817 -0.12251,-0.0817 -0.0817,-0.0817 -0.12252,-0.0817 -0.12251,-0.0408 -0.12252,-0.0817 -0.16335,-0.0408 -0.12252,-0.0408 -0.12252,-0.0408 -0.16335,-0.0408 -0.12252,0 -0.16335,-0.0408 -0.16335,0 -0.12252,0 c -1.55187,0 -2.81787,1.22516 -2.81787,2.81786 0,1.75607 1.38852,2.85871 2.81787,2.85871 1.7969,0 2.8587,-1.51103 2.8587,-2.81787 z"
         id="path6193" />
      <path
         style="font-style:normal;font-variant:normal;font-weight:normal;font-stretch:normal;letter-spacing:normal;word-spacing:normal;text-anchor:start;fill:#000000;fill-opacity:1;fill-rule:evenodd;stroke:#000000;stroke-width:0;stroke-linecap:butt;stroke-linejoin:miter;stroke-miterlimit:10.43299961;stroke-dasharray:none;stroke-dashoffset:0;stroke-opacity:1"
         inkscape:connector-curvature="0"
         d="m 769.79554,-130.22031 0,1.67439 c 3.75716,0 4.28806,0.36754 4.28806,3.22625 l 0,15.96791 c 0,2.61367 -0.65342,2.61367 -4.45141,2.61367 l 0,1.71522 c 1.63354,-0.12251 4.45141,-0.12251 6.12579,-0.12251 0.65342,0 4.04303,0 6.04412,0.12251 l 0,-1.71522 c -3.79799,0 -4.04302,-0.28587 -4.04302,-2.57283 l 0,-21.56281 z"
         id="path6195" />
      <path
         style="font-style:normal;font-variant:normal;font-weight:normal;font-stretch:normal;letter-spacing:normal;word-spacing:normal;text-anchor:start;fill:#000000;fill-opacity:1;fill-rule:evenodd;stroke:#000000;stroke-width:0;stroke-linecap:butt;stroke-linejoin:miter;stroke-miterlimit:10.43299961;stroke-dasharray:none;stroke-dashoffset:0;stroke-opacity:1"
         inkscape:connector-curvature="0"
         d="m 810.51167,-117.56033 -0.0408,-0.73509 -0.0408,-0.69426 -0.0817,-0.65342 -0.12252,-0.69426 -0.12251,-0.65342 -0.16336,-0.65341 -0.20419,-0.61258 -0.24503,-0.61258 -0.24504,-0.61258 -0.28587,-0.57174 -0.28587,-0.57174 -0.36755,-0.57175 -0.3267,-0.5309 -0.36755,-0.49006 -0.40839,-0.5309 -0.40839,-0.44923 -0.44922,-0.44922 -0.44923,-0.40839 -0.49006,-0.40839 -0.49006,-0.40838 -0.53091,-0.32671 -0.49006,-0.32671 -0.57174,-0.28587 -0.5309,-0.28587 -0.57174,-0.24504 -0.57174,-0.20419 -0.61258,-0.20419 -0.57175,-0.12252 -0.61257,-0.12251 -0.61258,-0.0817 -0.65342,-0.0817 -0.61258,0 -0.0817,1.18432 c 2.28696,0 4.77812,1.02097 6.32999,3.30793 1.83774,2.69535 1.83774,6.41167 1.83774,8.57612 0,2.04193 0,5.67657 -1.55187,8.41276 -1.63354,2.81787 -4.3289,3.96135 -6.53418,3.96135 l 0,0 c -2.16445,0 -4.81896,-0.93929 -6.53419,-3.83883 -1.55186,-2.61368 -1.63354,-6.08496 -1.63354,-8.53528 0,-2.24613 0,-5.79909 1.83774,-8.4536 1.63354,-2.49116 4.20638,-3.43045 6.24831,-3.43045 l 0.0817,-1.18432 c -7.02425,0 -12.61914,6.20748 -12.61914,13.59927 0,7.47347 5.88076,13.10921 12.53746,13.10921 6.94257,0 12.61914,-5.75825 12.61914,-13.10921 z"
         id="path6197" />
      <path
         style="font-style:normal;font-variant:normal;font-weight:normal;font-stretch:normal;letter-spacing:normal;word-spacing:normal;text-anchor:start;fill:#000000;fill-opacity:1;fill-rule:evenodd;stroke:#000000;stroke-width:0;stroke-linecap:butt;stroke-linejoin:miter;stroke-miterlimit:10.43299961;stroke-dasharray:none;stroke-dashoffset:0;stroke-opacity:1"
         inkscape:connector-curvature="0"
         d="m 838.36363,-119.27555 0,-0.49007 0,-0.49006 0,-0.44922 0,-0.44923 0,-0.40839 0,-0.40838 0,-0.36755 0,-0.36755 0,-0.36755 -0.0408,-0.32671 0,-0.28587 0,-0.32671 -0.0408,-0.28587 0,-0.28587 -0.0408,-0.24503 -0.0408,-0.24503 -0.0408,-0.24503 0,-0.24503 -0.0817,-0.24504 -0.0408,-0.20419 -0.0408,-0.20419 -0.0408,-0.2042 -0.0817,-0.20419 -0.0817,-0.16335 -0.0408,-0.2042 -0.0817,-0.20419 -0.0817,-0.16335 -0.12251,-0.16336 -0.0817,-0.20419 -0.12252,-0.16336 -0.12251,-0.16335 -0.12252,-0.16336 c -1.67438,-2.28696 -4.45141,-2.65451 -6.41167,-2.65451 -5.71741,0 -7.92269,4.8598 -8.41276,6.04412 l -0.0408,0 0,-6.04412 -7.96354,0.65342 0,1.67439 c 4.00219,0 4.45141,0.40838 4.45141,3.30793 l 0,15.88623 c 0,2.61367 -0.65342,2.61367 -4.45141,2.61367 l 0,1.71522 c 1.51103,-0.12251 4.69644,-0.12251 6.32999,-0.12251 1.67438,0 4.8598,0 6.37083,0.12251 l 0,-1.71522 c -3.75716,0 -4.45141,0 -4.45141,-2.61367 l 0,-10.90392 c 0,-6.16664 4.04302,-9.43373 7.67766,-9.43373 3.63464,0 4.45141,2.98122 4.45141,6.57503 l 0,13.76262 c 0,2.61367 -0.65341,2.61367 -4.45141,2.61367 l 0,1.71522 c 1.51103,-0.12251 4.69645,-0.12251 6.32999,-0.12251 1.71522,0 4.8598,0 6.37083,0.12251 l 0,-1.71522 c -2.89954,0 -4.36974,0 -4.45141,-1.75606 z"
         id="path6199" />
    </g>
    <g
       style="font-style:normal;font-variant:normal;font-weight:normal;font-stretch:normal;letter-spacing:normal;word-spacing:normal;text-anchor:start;fill:none;fill-opacity:1;fill-rule:evenodd;stroke:#000000;stroke-width:0.0000001;stroke-linecap:butt;stroke-linejoin:miter;stroke-miterlimit:10.43299961;stroke-dasharray:none;stroke-dashoffset:0;stroke-opacity:1"
       ns0:page_width=""
       ns0:preamble=""
       ns0:text="$x$"
       word-spacing="normal"
       letter-spacing="normal"
       font-size-adjust="none"
       font-stretch="normal"
       font-weight="normal"
       font-variant="normal"
       font-style="normal"
       stroke-miterlimit="10.433"
       xml:space="preserve"
       transform="matrix(3.3264695,0,0,-3.3264695,-297.93547,2852.2841)"
       id="content"><path
         id="path6373"
         d="m 230.23,712.98 -0.04,-0.01 -0.04,-0.01 -0.04,-0.01 -0.04,-0.02 -0.03,-0.01 -0.04,-0.02 -0.03,-0.01 -0.03,-0.02 -0.03,-0.02 -0.03,-0.02 -0.02,-0.02 -0.03,-0.02 -0.02,-0.02 -0.02,-0.03 -0.03,-0.02 -0.02,-0.03 -0.01,-0.02 -0.02,-0.03 -0.02,-0.02 -0.01,-0.03 -0.01,-0.02 -0.01,-0.03 -0.02,-0.03 0,-0.02 -0.01,-0.03 -0.01,-0.03 -0.01,-0.03 0,-0.02 0,-0.03 -0.01,-0.03 0,-0.02 0,-0.03 c 0,-0.34 0.27,-0.46 0.47,-0.46 0.44,0 0.74,0.38 0.74,0.76 0,0.61 -0.69,0.88 -1.3,0.88 -0.87,0 -1.36,-0.86 -1.49,-1.13 -0.33,1.07 -1.22,1.13 -1.47,1.13 -1.47,0 -2.24,-1.88 -2.24,-2.2 0,-0.05 0.06,-0.13 0.15,-0.13 0.12,0 0.15,0.09 0.18,0.15 0.48,1.59 1.45,1.89 1.86,1.89 0.65,0 0.78,-0.6 0.78,-0.94 0,-0.32 -0.09,-0.65 -0.26,-1.34 l -0.49,-1.96 c -0.21,-0.87 -0.63,-1.65 -1.39,-1.65 -0.07,0 -0.43,0 -0.73,0.18 0.52,0.1 0.63,0.53 0.63,0.71 0,0.28 -0.22,0.45 -0.49,0.45 -0.34,0 -0.72,-0.3 -0.72,-0.76 0,-0.6 0.68,-0.87 1.29,-0.87 0.69,0 1.18,0.54 1.48,1.13 0.23,-0.84 0.95,-1.13 1.48,-1.13 1.46,0 2.24,1.88 2.24,2.19 0,0.08 -0.06,0.13 -0.14,0.13 -0.13,0 -0.15,-0.07 -0.19,-0.18 -0.39,-1.27 -1.22,-1.85 -1.87,-1.85 -0.5,0 -0.77,0.37 -0.77,0.96 0,0.31 0.06,0.54 0.29,1.49 l 0.5,1.95 c 0.21,0.86 0.7,1.49 1.36,1.49 0.03,0 0.43,0 0.73,-0.18 z"
         inkscape:connector-curvature="0"
         style="fill:#000000;stroke-width:0" /></g>    <path
       inkscape:connector-curvature="0"
       id="path6422"
       d="m 87.816977,300.40641 c 64.169423,0 113.973313,-0.52338 141.779433,-0.47311 31.28082,0.0566 39.19756,17.87303 39.19756,17.87303"
       style="fill:none;fill-rule:evenodd;stroke:#000000;stroke-width:1.66758657;stroke-linecap:butt;stroke-linejoin:miter;stroke-miterlimit:4;stroke-dasharray:none;stroke-opacity:1"
       sodipodi:nodetypes="csc" />
    <path
       style="fill:none;fill-rule:evenodd;stroke:#000000;stroke-width:2.05491281;stroke-linecap:butt;stroke-linejoin:miter;stroke-miterlimit:4;stroke-dasharray:4.10982563, 4.10982563;stroke-dashoffset:0;stroke-opacity:1"
       d="M 90.496448,299.28218 H 447.70768"
       id="path6428"
       inkscape:connector-curvature="0" />
    <path
       style="fill:none;fill-rule:evenodd;stroke:#000000;stroke-width:1.33973646;stroke-linecap:butt;stroke-linejoin:miter;stroke-miterlimit:4;stroke-dasharray:none;stroke-opacity:1;marker-start:url(#marker6506);marker-end:url(#marker6546)"
       d="m 115.28157,300.62192 0,93.11168"
       id="path6436"
       inkscape:connector-curvature="0" />
    <path
       sodipodi:nodetypes="csc"
       style="fill:none;fill-rule:evenodd;stroke:#000000;stroke-width:1.64498222;stroke-linecap:butt;stroke-linejoin:miter;stroke-miterlimit:4;stroke-dasharray:none;stroke-opacity:1"
       d="m 87.816977,396.26858 c 64.169423,0 113.973313,-0.50929 141.779433,-0.46037 31.28082,0.0551 39.19756,17.39177 39.19756,17.39177"
       id="path4281"
       inkscape:connector-curvature="0" />
    <path
       sodipodi:nodetypes="csc"
       style="fill:none;fill-rule:evenodd;stroke:#000000;stroke-width:1.64498222;stroke-linecap:butt;stroke-linejoin:miter;stroke-miterlimit:4;stroke-dasharray:none;stroke-opacity:1"
       d="m 449.7548,429.68108 c -64.16942,0 -113.97331,0.50929 -141.77943,0.46037 -31.28082,-0.0551 -39.19756,-17.39177 -39.19756,-17.39177"
       id="path4283"
       inkscape:connector-curvature="0" />
    <path
       inkscape:connector-curvature="0"
       id="path4285"
       d="m 449.7548,334.74349 c -64.16942,0 -113.97331,0.52338 -141.77943,0.47311 -31.28082,-0.0566 -39.19756,-17.87303 -39.19756,-17.87303"
       style="fill:none;fill-rule:evenodd;stroke:#000000;stroke-width:1.66758657;stroke-linecap:butt;stroke-linejoin:miter;stroke-miterlimit:4;stroke-dasharray:none;stroke-opacity:1"
       sodipodi:nodetypes="csc" />
    <path
       inkscape:connector-curvature="0"
       id="path4129"
       d="m 87.816977,382.80608 c 64.169423,0 113.973313,0.50929 141.779433,0.46037 31.28082,-0.0551 39.19756,-17.39177 39.19756,-17.39177"
       style="fill:none;fill-rule:evenodd;stroke:#000000;stroke-width:1.64531258;stroke-linecap:butt;stroke-linejoin:miter;stroke-miterlimit:4;stroke-dasharray:4.93593772,1.64531258;stroke-opacity:1;stroke-dashoffset:16.45312572"
       sodipodi:nodetypes="csc" />
    <path
       inkscape:connector-curvature="0"
       id="path4131"
       d="m 449.7548,349.39358 c -64.16942,0 -113.97331,-0.50929 -141.77943,-0.46037 -31.28082,0.0551 -39.19756,17.39177 -39.19756,17.39177"
       style="fill:none;fill-rule:evenodd;stroke:#000000;stroke-width:1.64531258;stroke-linecap:butt;stroke-linejoin:miter;stroke-miterlimit:4;stroke-dasharray:4.93593772,1.64531258;stroke-opacity:1;stroke-dashoffset:16.45312572"
       sodipodi:nodetypes="csc" />
    <circle
       style="fill:#d7eef4;fill-opacity:0.97860963;stroke:#000000;stroke-width:0.70781253;stroke-miterlimit:4;stroke-dasharray:none;stroke-dashoffset:17.54999924"
       id="path4133"
       cx="320.27917"
       cy="321.71265"
       r="4.4746604" />
    <circle
       r="4.4746604"
       cy="325.46265"
       cx="340.90417"
       id="circle4154"
       style="fill:#d7eef4;fill-opacity:0.97860963;stroke:#000000;stroke-width:0.70781255;stroke-miterlimit:4;stroke-dasharray:none;stroke-dashoffset:17.54999924" />
    <circle
       style="fill:#d7eef4;fill-opacity:0.97860963;stroke:#000000;stroke-width:0.70781255;stroke-miterlimit:4;stroke-dasharray:none;stroke-dashoffset:17.54999924"
       id="circle4156"
       cx="363.40417"
       cy="319.83765"
       r="4.4746604" />
    <circle
       r="4.4746604"
       cy="325.46265"
       cx="355.90417"
       id="circle4158"
       style="fill:#d7eef4;fill-opacity:0.97860963;stroke:#000000;stroke-width:0.70781255;stroke-miterlimit:4;stroke-dasharray:none;stroke-dashoffset:17.54999924" />
    <circle
       style="fill:#d7eef4;fill-opacity:0.97860963;stroke:#000000;stroke-width:0.70781255;stroke-miterlimit:4;stroke-dasharray:none;stroke-dashoffset:17.54999924"
       id="circle4160"
       cx="380.27917"
       cy="325.46265"
       r="4.4746604" />
    <circle
       r="4.4746604"
       cy="312.33765"
       cx="380.27917"
       id="circle4162"
       style="fill:#d7eef4;fill-opacity:0.97860963;stroke:#000000;stroke-width:0.70781255;stroke-miterlimit:4;stroke-dasharray:none;stroke-dashoffset:17.54999924" />
    <circle
       style="fill:#d7eef4;fill-opacity:0.97860963;stroke:#000000;stroke-width:0.70781255;stroke-miterlimit:4;stroke-dasharray:none;stroke-dashoffset:17.54999924"
       id="circle4164"
       cx="395.27917"
       cy="310.46265"
       r="4.4746604" />
    <circle
       r="4.4746604"
       cy="308.58765"
       cx="346.52917"
       id="circle4166"
       style="fill:#d7eef4;fill-opacity:0.97860963;stroke:#000000;stroke-width:0.70781255;stroke-miterlimit:4;stroke-dasharray:none;stroke-dashoffset:17.54999924" />
    <circle
       style="fill:#d7eef4;fill-opacity:0.97860963;stroke:#000000;stroke-width:0.70781255;stroke-miterlimit:4;stroke-dasharray:none;stroke-dashoffset:17.54999924"
       id="circle4168"
       cx="329.65417"
       cy="308.58765"
       r="4.4746604" />
    <circle
       r="4.4746604"
       cy="319.83765"
       cx="399.02917"
       id="circle4170"
       style="fill:#d7eef4;fill-opacity:0.97860963;stroke:#000000;stroke-width:0.70781255;stroke-miterlimit:4;stroke-dasharray:none;stroke-dashoffset:17.54999924" />
    <circle
       style="fill:#d7eef4;fill-opacity:0.97860963;stroke:#000000;stroke-width:0.70781255;stroke-miterlimit:4;stroke-dasharray:none;stroke-dashoffset:17.54999924"
       id="circle4172"
       cx="415.90417"
       cy="312.33765"
       r="4.4746604" />
    <circle
       r="4.4746604"
       cy="295.46265"
       cx="414.02917"
       id="circle4174"
       style="fill:#d7eef4;fill-opacity:0.97860963;stroke:#000000;stroke-width:0.70781255;stroke-miterlimit:4;stroke-dasharray:none;stroke-dashoffset:17.54999924" />
    <circle
       style="fill:#d7eef4;fill-opacity:0.97860963;stroke:#000000;stroke-width:0.70781255;stroke-miterlimit:4;stroke-dasharray:none;stroke-dashoffset:17.54999924"
       id="circle4176"
       cx="376.52917"
       cy="295.46265"
       r="4.4746604" />
    <circle
       r="4.4746604"
       cy="295.46265"
       cx="376.52917"
       id="circle4178"
       style="fill:#d7eef4;fill-opacity:0.97860963;stroke:#000000;stroke-width:0.70781255;stroke-miterlimit:4;stroke-dasharray:none;stroke-dashoffset:17.54999924" />
    <circle
       style="fill:#d7eef4;fill-opacity:0.97860963;stroke:#000000;stroke-width:0.70781255;stroke-miterlimit:4;stroke-dasharray:none;stroke-dashoffset:17.54999924"
       id="circle4180"
       cx="352.15417"
       cy="295.46265"
       r="4.4746604" />
    <circle
       r="4.4746604"
       cy="289.83765"
       cx="325.90417"
       id="circle4182"
       style="fill:#d7eef4;fill-opacity:0.97860963;stroke:#000000;stroke-width:0.70781255;stroke-miterlimit:4;stroke-dasharray:none;stroke-dashoffset:17.54999924" />
    <circle
       style="fill:#d7eef4;fill-opacity:0.97860963;stroke:#000000;stroke-width:0.70781255;stroke-miterlimit:4;stroke-dasharray:none;stroke-dashoffset:17.54999924"
       id="circle4184"
       cx="361.52917"
       cy="280.46265"
       r="4.4746604" />
    <circle
       r="4.4746604"
       cy="274.83765"
       cx="391.52917"
       id="circle4186"
       style="fill:#d7eef4;fill-opacity:0.97860963;stroke:#000000;stroke-width:0.70781255;stroke-miterlimit:4;stroke-dasharray:none;stroke-dashoffset:17.54999924" />
    <circle
       style="fill:#d7eef4;fill-opacity:0.97860963;stroke:#000000;stroke-width:0.70781255;stroke-miterlimit:4;stroke-dasharray:none;stroke-dashoffset:17.54999924"
       id="circle4188"
       cx="339.02917"
       cy="267.33765"
       r="4.4746604" />
    <circle
       r="4.4746604"
       cy="280.46265"
       cx="339.02917"
       id="circle4190"
       style="fill:#d7eef4;fill-opacity:0.97860963;stroke:#000000;stroke-width:0.70781255;stroke-miterlimit:4;stroke-dasharray:none;stroke-dashoffset:17.54999924" />
    <circle
       style="fill:#d7eef4;fill-opacity:0.97860963;stroke:#000000;stroke-width:0.70781255;stroke-miterlimit:4;stroke-dasharray:none;stroke-dashoffset:17.54999924"
       id="circle4192"
       cx="372.77917"
       cy="269.21265"
       r="4.4746604" />
    <circle
       r="4.4746604"
       cy="257.96265"
       cx="357.77917"
       id="circle4194"
       style="fill:#d7eef4;fill-opacity:0.97860963;stroke:#000000;stroke-width:0.70781255;stroke-miterlimit:4;stroke-dasharray:none;stroke-dashoffset:17.54999924" />
    <circle
       style="fill:#d7eef4;fill-opacity:0.97860963;stroke:#000000;stroke-width:0.70781255;stroke-miterlimit:4;stroke-dasharray:none;stroke-dashoffset:17.54999924"
       id="circle4196"
       cx="145.90417"
       cy="282.33765"
       r="4.4746604" />
    <circle
       r="4.4746604"
       cy="282.33765"
       cx="175.90417"
       id="circle4198"
       style="fill:#d7eef4;fill-opacity:0.97860963;stroke:#000000;stroke-width:0.70781255;stroke-miterlimit:4;stroke-dasharray:none;stroke-dashoffset:17.54999924" />
    <circle
       style="fill:#d7eef4;fill-opacity:0.97860963;stroke:#000000;stroke-width:0.70781255;stroke-miterlimit:4;stroke-dasharray:none;stroke-dashoffset:17.54999924"
       id="circle4200"
       cx="219.02917"
       cy="267.33765"
       r="4.4746604" />
    <circle
       r="4.4746604"
       cy="261.71265"
       cx="185.27917"
       id="circle4202"
       style="fill:#d7eef4;fill-opacity:0.97860963;stroke:#000000;stroke-width:0.70781255;stroke-miterlimit:4;stroke-dasharray:none;stroke-dashoffset:17.54999924" />
    <circle
       style="fill:#d7eef4;fill-opacity:0.97860963;stroke:#000000;stroke-width:0.70781255;stroke-miterlimit:4;stroke-dasharray:none;stroke-dashoffset:17.54999924"
       id="circle4204"
       cx="185.27917"
       cy="276.71265"
       r="4.4746604" />
    <circle
       r="4.4746604"
       cy="-409.83765"
       cx="-224.65417"
       id="circle4206"
       style="fill:#ffd5d5;fill-opacity:0.97860963;stroke:#000000;stroke-width:0.70781255;stroke-miterlimit:4;stroke-dasharray:none;stroke-dashoffset:17.54999924"
       transform="scale(-1)" />
    <circle
       style="fill:#ffd5d5;fill-opacity:0.97860963;stroke:#000000;stroke-width:0.70781255;stroke-miterlimit:4;stroke-dasharray:none;stroke-dashoffset:17.54999924"
       id="circle4208"
       cx="-204.02917"
       cy="-406.08765"
       r="4.4746604"
       transform="scale(-1)" />
    <circle
       r="4.4746604"
       cy="-421.08765"
       cx="-181.52917"
       id="circle4210"
       style="fill:#ffd5d5;fill-opacity:0.97860963;stroke:#000000;stroke-width:0.70781255;stroke-miterlimit:4;stroke-dasharray:none;stroke-dashoffset:17.54999924"
       transform="scale(-1)" />
    <circle
       style="fill:#ffd5d5;fill-opacity:0.97860963;stroke:#000000;stroke-width:0.70781255;stroke-miterlimit:4;stroke-dasharray:none;stroke-dashoffset:17.54999924"
       id="circle4212"
       cx="-189.02917"
       cy="-406.08765"
       r="4.4746604"
       transform="scale(-1)" />
    <circle
       r="4.4746604"
       cy="-406.08765"
       cx="-164.65417"
       id="circle4214"
       style="fill:#ffd5d5;fill-opacity:0.97860963;stroke:#000000;stroke-width:0.70781255;stroke-miterlimit:4;stroke-dasharray:none;stroke-dashoffset:17.54999924"
       transform="scale(-1)" />
    <circle
       style="fill:#ffd5d5;fill-opacity:0.97860963;stroke:#000000;stroke-width:0.70781255;stroke-miterlimit:4;stroke-dasharray:none;stroke-dashoffset:17.54999924"
       id="circle4216"
       cx="-164.65417"
       cy="-419.21265"
       r="4.4746604"
       transform="scale(-1)" />
    <circle
       r="4.4746604"
       cy="-421.08765"
       cx="-149.65417"
       id="circle4218"
       style="fill:#ffd5d5;fill-opacity:0.97860963;stroke:#000000;stroke-width:0.70781255;stroke-miterlimit:4;stroke-dasharray:none;stroke-dashoffset:17.54999924"
       transform="scale(-1)" />
    <circle
       style="fill:#ffd5d5;fill-opacity:0.97860963;stroke:#000000;stroke-width:0.70781255;stroke-miterlimit:4;stroke-dasharray:none;stroke-dashoffset:17.54999924"
       id="circle4220"
       cx="-198.40417"
       cy="-422.96265"
       r="4.4746604"
       transform="scale(-1)" />
    <circle
       r="4.4746604"
       cy="-422.96265"
       cx="-215.27917"
       id="circle4222"
       style="fill:#ffd5d5;fill-opacity:0.97860963;stroke:#000000;stroke-width:0.70781255;stroke-miterlimit:4;stroke-dasharray:none;stroke-dashoffset:17.54999924"
       transform="scale(-1)" />
    <circle
       style="fill:#ffd5d5;fill-opacity:0.97860963;stroke:#000000;stroke-width:0.70781255;stroke-miterlimit:4;stroke-dasharray:none;stroke-dashoffset:17.54999924"
       id="circle4224"
       cx="-145.90417"
       cy="-411.71265"
       r="4.4746604"
       transform="scale(-1)" />
    <circle
       r="4.4746604"
       cy="-419.21265"
       cx="-129.02917"
       id="circle4226"
       style="fill:#ffd5d5;fill-opacity:0.97860963;stroke:#000000;stroke-width:0.70781255;stroke-miterlimit:4;stroke-dasharray:none;stroke-dashoffset:17.54999924"
       transform="scale(-1)" />
    <circle
       style="fill:#ffd5d5;fill-opacity:0.97860963;stroke:#000000;stroke-width:0.70781255;stroke-miterlimit:4;stroke-dasharray:none;stroke-dashoffset:17.54999924"
       id="circle4228"
       cx="-130.90417"
       cy="-436.08765"
       r="4.4746604"
       transform="scale(-1)" />
    <circle
       r="4.4746604"
       cy="-436.08765"
       cx="-168.40417"
       id="circle4230"
       style="fill:#ffd5d5;fill-opacity:0.97860963;stroke:#000000;stroke-width:0.70781255;stroke-miterlimit:4;stroke-dasharray:none;stroke-dashoffset:17.54999924"
       transform="scale(-1)" />
    <circle
       style="fill:#ffd5d5;fill-opacity:0.97860963;stroke:#000000;stroke-width:0.70781255;stroke-miterlimit:4;stroke-dasharray:none;stroke-dashoffset:17.54999924"
       id="circle4232"
       cx="-168.40417"
       cy="-436.08765"
       r="4.4746604"
       transform="scale(-1)" />
    <circle
       r="4.4746604"
       cy="-439.83765"
       cx="-399.02917"
       id="circle4234"
       style="fill:#ffd5d5;fill-opacity:0.97860963;stroke:#000000;stroke-width:0.70781255;stroke-miterlimit:4;stroke-dasharray:none;stroke-dashoffset:17.54999924"
       transform="scale(-1)" />
    <circle
       style="fill:#ffd5d5;fill-opacity:0.97860963;stroke:#000000;stroke-width:0.70781255;stroke-miterlimit:4;stroke-dasharray:none;stroke-dashoffset:17.54999924"
       id="circle4236"
       cx="-219.02917"
       cy="-441.71265"
       r="4.4746604"
       transform="scale(-1)" />
    <circle
       r="4.4746604"
       cy="-451.08765"
       cx="-183.40417"
       id="circle4238"
       style="fill:#ffd5d5;fill-opacity:0.97860963;stroke:#000000;stroke-width:0.70781255;stroke-miterlimit:4;stroke-dasharray:none;stroke-dashoffset:17.54999924"
       transform="scale(-1)" />
    <circle
       style="fill:#ffd5d5;fill-opacity:0.97860963;stroke:#000000;stroke-width:0.70781255;stroke-miterlimit:4;stroke-dasharray:none;stroke-dashoffset:17.54999924"
       id="circle4240"
       cx="-151.52917"
       cy="-439.83765"
       r="4.4746604"
       transform="scale(-1)" />
    <circle
       style="fill:#ffd5d5;fill-opacity:0.97860963;stroke:#000000;stroke-width:0.70781255;stroke-miterlimit:4;stroke-dasharray:none;stroke-dashoffset:17.54999924"
       id="circle4244"
       cx="-205.90417"
       cy="-451.08765"
       r="4.4746604"
       transform="scale(-1)" />
    <circle
       transform="scale(-1)"
       r="4.4746604"
       cy="-439.83765"
       cx="-339.02917"
       id="circle4250"
       style="fill:#ffd5d5;fill-opacity:0.97860963;stroke:#000000;stroke-width:0.70781255;stroke-miterlimit:4;stroke-dasharray:none;stroke-dashoffset:17.54999924" />
    <circle
       transform="scale(-1)"
       r="4.4746604"
       cy="-451.08765"
       cx="-393.40417"
       id="circle4252"
       style="fill:#ffd5d5;fill-opacity:0.97860963;stroke:#000000;stroke-width:0.70781255;stroke-miterlimit:4;stroke-dasharray:none;stroke-dashoffset:17.54999924" />
  </g>
</svg>
