<?xml version="1.0" encoding="UTF-8" standalone="no"?>
<!-- Created with Inkscape (http://www.inkscape.org/) -->

<svg
   xmlns:ns0="http://www.iki.fi/pav/software/textext/"
   xmlns:dc="http://purl.org/dc/elements/1.1/"
   xmlns:cc="http://creativecommons.org/ns#"
   xmlns:rdf="http://www.w3.org/1999/02/22-rdf-syntax-ns#"
   xmlns:svg="http://www.w3.org/2000/svg"
   xmlns="http://www.w3.org/2000/svg"
   xmlns:sodipodi="http://sodipodi.sourceforge.net/DTD/sodipodi-0.dtd"
   xmlns:inkscape="http://www.inkscape.org/namespaces/inkscape"
   width="117.75906mm"
   height="88.022011mm"
   viewBox="0 0 417.2565 311.88902"
   id="svg5204"
   version="1.1"
   inkscape:version="0.91 r13725"
   sodipodi:docname="pn_charge_density.svg">
  <sodipodi:namedview
     id="base"
     pagecolor="#ffffff"
     bordercolor="#666666"
     borderopacity="1.0"
     inkscape:pageopacity="0.0"
     inkscape:pageshadow="2"
     inkscape:zoom="4"
     inkscape:cx="253.53417"
     inkscape:cy="53.098522"
     inkscape:document-units="px"
     inkscape:current-layer="layer1"
     showgrid="false"
     inkscape:window-width="1855"
     inkscape:window-height="1056"
     inkscape:window-x="65"
     inkscape:window-y="24"
     inkscape:window-maximized="1"
     fit-margin-top="0"
     fit-margin-left="0"
     fit-margin-right="0"
     fit-margin-bottom="0" />
  <defs
     id="defs5206">
    <marker
       inkscape:isstock="true"
       style="overflow:visible"
       id="marker6664"
       refX="0"
       refY="0"
       orient="auto"
       inkscape:stockid="Arrow1Lend">
      <path
         transform="matrix(-0.8,0,0,-0.8,-10,0)"
         style="fill:#000000;fill-opacity:1;fill-rule:evenodd;stroke:#000000;stroke-width:1pt;stroke-opacity:1"
         d="M 0,0 5,-5 -12.5,0 5,5 0,0 Z"
         id="path6666"
         inkscape:connector-curvature="0" />
    </marker>
    <marker
       inkscape:isstock="true"
       style="overflow:visible"
       id="marker6654"
       refX="0"
       refY="0"
       orient="auto"
       inkscape:stockid="Arrow1Lstart">
      <path
         transform="matrix(0.8,0,0,0.8,10,0)"
         style="fill:#000000;fill-opacity:1;fill-rule:evenodd;stroke:#000000;stroke-width:1pt;stroke-opacity:1"
         d="M 0,0 5,-5 -12.5,0 5,5 0,0 Z"
         id="path6656"
         inkscape:connector-curvature="0" />
    </marker>
    <marker
       inkscape:isstock="true"
       style="overflow:visible"
       id="marker6474"
       refX="0"
       refY="0"
       orient="auto"
       inkscape:stockid="Arrow1Lend">
      <path
         transform="matrix(-0.8,0,0,-0.8,-10,0)"
         style="fill:#000000;fill-opacity:1;fill-rule:evenodd;stroke:#000000;stroke-width:1pt;stroke-opacity:1"
         d="M 0,0 5,-5 -12.5,0 5,5 0,0 Z"
         id="path6476"
         inkscape:connector-curvature="0" />
    </marker>
    <marker
       inkscape:isstock="true"
       style="overflow:visible"
       id="marker6444"
       refX="0"
       refY="0"
       orient="auto"
       inkscape:stockid="Arrow1Lend">
      <path
         transform="matrix(-0.8,0,0,-0.8,-10,0)"
         style="fill:#000000;fill-opacity:1;fill-rule:evenodd;stroke:#000000;stroke-width:1pt;stroke-opacity:1"
         d="M 0,0 5,-5 -12.5,0 5,5 0,0 Z"
         id="path6446"
         inkscape:connector-curvature="0" />
    </marker>
    <marker
       inkscape:stockid="Arrow1Lend"
       orient="auto"
       refY="0"
       refX="0"
       id="Arrow1Lend"
       style="overflow:visible"
       inkscape:isstock="true"
       inkscape:collect="always">
      <path
         id="path5763"
         d="M 0,0 5,-5 -12.5,0 5,5 0,0 Z"
         style="fill:#000000;fill-opacity:1;fill-rule:evenodd;stroke:#000000;stroke-width:1pt;stroke-opacity:1"
         transform="matrix(-0.8,0,0,-0.8,-10,0)"
         inkscape:connector-curvature="0" />
    </marker>
    <marker
       inkscape:stockid="Arrow1Lstart"
       orient="auto"
       refY="0"
       refX="0"
       id="marker6036"
       style="overflow:visible"
       inkscape:isstock="true"
       inkscape:collect="always">
      <path
         id="path6038"
         d="M 0,0 5,-5 -12.5,0 5,5 0,0 Z"
         style="fill:#000000;fill-opacity:1;fill-rule:evenodd;stroke:#000000;stroke-width:1pt;stroke-opacity:1"
         transform="matrix(0.8,0,0,0.8,10,0)"
         inkscape:connector-curvature="0" />
    </marker>
    <marker
       inkscape:stockid="Arrow1Lstart"
       orient="auto"
       refY="0"
       refX="0"
       id="Arrow1Lstart"
       style="overflow:visible"
       inkscape:isstock="true">
      <path
         id="path5760"
         d="M 0,0 5,-5 -12.5,0 5,5 0,0 Z"
         style="fill:#000000;fill-opacity:1;fill-rule:evenodd;stroke:#000000;stroke-width:1pt;stroke-opacity:1"
         transform="matrix(0.8,0,0,0.8,10,0)"
         inkscape:connector-curvature="0" />
    </marker>
  </defs>
  <metadata
     id="metadata5209">
    <rdf:RDF>
      <cc:Work
         rdf:about="">
        <dc:format>image/svg+xml</dc:format>
        <dc:type
           rdf:resource="http://purl.org/dc/dcmitype/StillImage" />
        <dc:title></dc:title>
      </cc:Work>
    </rdf:RDF>
  </metadata>
  <g
     inkscape:label="Layer 1"
     inkscape:groupmode="layer"
     id="layer1"
     transform="translate(-59.774998,-255.72147)">
    <path
       sodipodi:nodetypes="cccc"
       style="fill:none;fill-rule:evenodd;stroke:#000000;stroke-width:2.00960469;stroke-linecap:butt;stroke-linejoin:miter;stroke-miterlimit:4;stroke-dasharray:none;stroke-opacity:1;marker-start:url(#marker6036);marker-end:url(#Arrow1Lend)"
       d="m 88.678234,264.73614 0,302.87438 m 0,-100.00001 384.695746,0"
       id="path5754"
       inkscape:connector-curvature="0" />
    <g
       transform="matrix(0.44679824,0,0,0.44679824,157.68926,538.44145)"
       id="g6270">
      <path
         style="font-style:normal;font-variant:normal;font-weight:normal;font-stretch:normal;letter-spacing:normal;word-spacing:normal;text-anchor:start;fill:#000000;fill-opacity:1;fill-rule:evenodd;stroke:#000000;stroke-width:0;stroke-linecap:butt;stroke-linejoin:miter;stroke-miterlimit:10.43299961;stroke-dasharray:none;stroke-dashoffset:0;stroke-opacity:1"
         inkscape:connector-curvature="0"
         d="m 429.85466,-122.21593 0.0408,-0.0408 0,-0.0408 0.0408,-0.0817 0.0408,-0.0817 0.0408,-0.0817 0.0817,-0.12252 0.0408,-0.0817 0.0817,-0.12251 0.0408,-0.16336 0.0817,-0.12251 0.12251,-0.16336 0.0817,-0.16335 0.0817,-0.16336 0.12251,-0.20419 0.12252,-0.16336 0.12251,-0.20419 0.12252,-0.16335 0.12252,-0.2042 0.12251,-0.20419 0.16336,-0.20419 0.12251,-0.2042 0.16336,-0.20419 0.16335,-0.20419 0.16336,-0.2042 0.16335,-0.20419 0.16335,-0.20419 0.2042,-0.2042 0.16335,-0.20419 0.2042,-0.16335 0.20419,-0.2042 0.16335,-0.16335 0.2042,-0.20419 c 1.55187,-1.38852 3.51212,-2.32781 5.79908,-2.32781 2.36865,0 3.18542,1.75606 3.18542,4.08387 0,3.34877 -2.40948,10.00547 -3.5938,13.19088 -0.5309,1.38851 -0.81677,2.16445 -0.81677,3.22625 0,2.61368 1.83773,4.73729 4.6556,4.73729 5.43154,0 7.47347,-8.61696 7.47347,-8.94367 0,-0.32671 -0.24503,-0.5309 -0.57174,-0.5309 -0.5309,0 -0.61258,0.16335 -0.89845,1.14348 -1.34767,4.81896 -3.55296,7.14677 -5.83992,7.14677 -0.61258,0 -1.51103,-0.0408 -1.51103,-1.91942 0,-1.47019 0.61258,-3.22625 0.98012,-4.04303 1.18432,-3.22625 3.63464,-9.76043 3.63464,-13.1092 0,-3.51213 -2.04193,-6.16664 -6.49334,-6.16664 -5.22735,0 -7.96354,3.71632 -9.02534,5.14567 -0.2042,-3.30793 -2.57284,-5.14567 -5.18651,-5.14567 -1.83774,0 -3.14458,1.10265 -4.1247,3.10374 -1.06181,2.12361 -1.87858,5.63573 -1.87858,5.88076 0,0.2042 0.24503,0.53091 0.65342,0.53091 0.44922,0 0.49006,-0.0817 0.85761,-1.42936 0.93929,-3.55296 2.00109,-6.90173 4.32889,-6.90173 1.34768,0 1.83774,0.93929 1.83774,2.69535 0,1.266 -0.61258,3.55297 -1.02096,5.3907 l -1.63355,6.32999 c -0.24503,1.10265 -0.85761,3.71632 -1.18432,4.77813 -0.40839,1.55186 -1.02097,4.28805 -1.02097,4.57392 0,0.81678 0.61258,1.4702 1.51103,1.4702 0.69426,0 1.51103,-0.36755 2.0011,-1.22516 0.0817,-0.28587 0.65342,-2.32781 0.93929,-3.51213 l 1.266,-5.26818 z"
         id="path6165" />
      <polygon
         style="font-style:normal;font-variant:normal;font-weight:normal;font-stretch:normal;letter-spacing:normal;word-spacing:normal;text-anchor:start;fill:#000000;fill-opacity:1;fill-rule:evenodd;stroke:#000000;stroke-width:0;stroke-linecap:butt;stroke-linejoin:miter;stroke-miterlimit:10.43299961;stroke-dasharray:none;stroke-dashoffset:0;stroke-opacity:1"
         points="315.32,709.83 319.05,709.83 319.05,710.61 315.32,710.61 "
         id="polygon6167"
         transform="matrix(4.0838645,0,0,-4.0838645,-835.04069,2782.7594)" />
      <path
         style="font-style:normal;font-variant:normal;font-weight:normal;font-stretch:normal;letter-spacing:normal;word-spacing:normal;text-anchor:start;fill:#000000;fill-opacity:1;fill-rule:evenodd;stroke:#000000;stroke-width:0;stroke-linecap:butt;stroke-linejoin:miter;stroke-miterlimit:10.43299961;stroke-dasharray:none;stroke-dashoffset:0;stroke-opacity:1"
         inkscape:connector-curvature="0"
         d="m 480.94381,-118.70381 0,-0.5309 0.0408,-0.49007 0.0408,-0.5309 0.0408,-0.5309 0.0408,-0.5309 0.0817,-0.49007 0.0817,-0.49006 0.12251,-0.49007 0.12252,-0.49006 0.12251,-0.49006 0.12252,-0.44923 0.16335,-0.44922 0.16336,-0.44923 0.20419,-0.40839 0.16336,-0.40838 0.24503,-0.40839 0.20419,-0.36755 0.24503,-0.3267 0.24504,-0.36755 0.24503,-0.32671 0.28587,-0.28587 0.28587,-0.28587 0.28587,-0.24503 0.32671,-0.24504 0.32671,-0.20419 0.32671,-0.16335 0.36754,-0.16336 0.36755,-0.12251 0.36755,-0.12252 0.40839,-0.0817 0.40838,-0.0408 0.40839,0 c 0.44922,0 0.57174,0 0.81677,0.0408 -0.44922,0.24503 -1.38851,0.61258 -1.38851,2.16445 0,1.71522 1.34767,2.36864 2.24612,2.36864 1.18432,0 2.36864,-0.77593 2.36864,-2.36864 0,-1.75606 -1.5927,-3.38961 -4.1247,-3.38961 -4.94147,0 -6.6567,5.3907 -7.02425,6.49335 l -0.0408,0 0,-6.49335 -7.84102,0.65342 0,1.67439 c 3.96134,0 4.45141,0.40838 4.45141,3.30793 l 0,15.88623 c 0,2.61367 -0.65342,2.61367 -4.45141,2.61367 l 0,1.71522 c 1.63354,-0.12251 4.85979,-0.12251 6.61586,-0.12251 1.5927,0 5.71741,0 7.06508,0.12251 l 0,-1.71522 -1.14348,0 c -4.28806,0 -4.41057,-0.65342 -4.41057,-2.73619 z"
         id="path6169" />
      <path
         style="font-style:normal;font-variant:normal;font-weight:normal;font-stretch:normal;letter-spacing:normal;word-spacing:normal;text-anchor:start;fill:#000000;fill-opacity:1;fill-rule:evenodd;stroke:#000000;stroke-width:0;stroke-linecap:butt;stroke-linejoin:miter;stroke-miterlimit:10.43299961;stroke-dasharray:none;stroke-dashoffset:0;stroke-opacity:1"
         inkscape:connector-curvature="0"
         d="m 515.94253,-118.62213 0.0408,0 0.0817,0 0.0408,0 0.0408,0 0.0817,0 0.0408,0 0.0408,0 0.0408,0 0.0408,0 0.0817,0 0.0408,0 0.0408,0 0.0408,0 0.0408,0 0.0408,0 0,-0.0408 0.0408,0 0.0408,0 0.0408,0 0.0408,0 0.0408,0 0.0408,-0.0408 0.0817,0 0.0408,0 0.0408,-0.0408 0.0408,0 0.0408,-0.0408 0,-0.0408 0.0408,-0.0408 0.0408,-0.0408 0,-0.0408 0,-0.0408 0.0408,-0.0408 0,-0.0817 0,0 0,-0.0408 0.0408,-0.0408 0,-0.0408 0,-0.0408 0,0 0,-0.0408 0,-0.0408 0,-0.0408 0,-0.0408 0,-0.0408 0,-0.0817 0,-0.0408 0,-0.0408 0,-0.0408 0,-0.0408 c 0,-5.9216 -3.14458,-11.43482 -10.2505,-11.43482 -6.6567,0 -11.84321,6.04412 -11.84321,13.3134 0,7.7185 6.00328,13.39508 12.49663,13.39508 6.98341,0 9.59708,-6.32999 9.59708,-7.55515 0,-0.36755 -0.28587,-0.57174 -0.65342,-0.57174 -0.44922,0 -0.57174,0.28587 -0.69426,0.57174 -1.51103,4.94147 -5.43154,6.28915 -7.88185,6.28915 -2.49116,0 -8.41277,-1.67439 -8.41277,-11.80237 l 0,-1.10264 0.0817,-1.10265 c 0.44923,-9.22953 5.63573,-10.2505 7.26928,-10.2505 6.24831,0 6.61586,8.24941 6.6567,10.2505 l -13.92598,0 -0.0817,1.10265 z"
         id="path6171" />
      <path
         style="font-style:normal;font-variant:normal;font-weight:normal;font-stretch:normal;letter-spacing:normal;word-spacing:normal;text-anchor:start;fill:#000000;fill-opacity:1;fill-rule:evenodd;stroke:#000000;stroke-width:0;stroke-linecap:butt;stroke-linejoin:miter;stroke-miterlimit:10.43299961;stroke-dasharray:none;stroke-dashoffset:0;stroke-opacity:1"
         inkscape:connector-curvature="0"
         d="m 525.94799,-115.64091 0.24504,0.16335 0.28587,0.16336 0.24503,0.12251 0.24503,0.16336 0.24503,0.12251 0.24503,0.12252 0.2042,0.0817 0.24503,0.12251 0.24503,0.0817 0.20419,0.0817 0.24504,0.0817 0.20419,0.0817 0.20419,0.0408 0.20419,0.0817 0.2042,0.0408 0.20419,0.0408 0.16336,0.0408 0.20419,0.0408 0.16335,0.0408 0.16336,0 0.16335,0.0408 0.16336,0 0.12251,0.0408 0.12252,0 0.16335,0 0.12252,0 0.0817,0 0.12251,0.0408 0.0817,0 0.0817,0 0.0817,0 0.0817,0 c 5.26819,0 9.1887,-4.00219 9.1887,-8.49444 0,-1.59271 -0.49007,-3.83883 -2.36864,-5.71741 2.28696,-2.32781 5.06399,-2.32781 5.34986,-2.32781 0.24503,0 0.5309,0 0.77593,0.12252 -0.61258,0.24503 -0.89845,0.81677 -0.89845,1.47019 0,0.81677 0.57174,1.51103 1.51103,1.51103 0.49007,0 1.55187,-0.28587 1.55187,-1.59271 0,-1.0618 -0.81677,-2.69535 -2.89954,-2.69535 -3.02206,0 -5.30903,1.87858 -6.1258,2.77703 -1.75606,-1.34767 -3.79799,-2.12361 -6.04412,-2.12361 l -0.0408,1.22516 c 5.14567,0 5.14567,5.92161 5.14567,7.26928 0,1.06181 0,3.47129 -1.02096,5.02315 -1.10265,1.71523 -2.85871,2.28697 -4.08387,2.28697 l 0,0 c -5.14567,0 -5.14567,-5.92161 -5.14567,-7.22844 0,-1.06181 0,-3.47129 0.98013,-5.06399 1.10264,-1.67439 2.8587,-2.28697 4.1247,-2.28697 l 0.0408,-1.22516 c -5.26818,0 -9.18869,4.00219 -9.18869,8.49444 0,3.34877 2.04193,5.51322 2.61367,6.04412 -0.69426,0.85761 -1.75606,2.57283 -1.75606,4.8598 0,3.38961 2.04193,4.8598 2.53199,5.14567 -2.69535,0.77593 -5.3907,2.89954 -5.3907,5.9216 0,4.043027 5.51322,7.391796 12.70082,7.391796 l 0.0817,-1.225159 c -5.63573,0 -9.92379,-2.899544 -9.92379,-6.207477 0,-0.49006 0.12251,-2.77702 2.36864,-4.28805 1.266,-0.81678 1.7969,-0.81678 5.9216,-0.81678 4.8598,0 11.47566,0 11.47566,5.10483 0,3.430449 -4.45141,6.207477 -9.84211,6.207477 l 0,0 -0.0817,1.225159 c 6.98341,0 12.7825,-3.103737 12.7825,-7.514306 0,-1.4702 -0.40839,-4.90064 -3.92051,-6.73838 -2.98122,-1.51103 -5.92161,-1.51103 -10.94476,-1.51103 -3.5938,0 -4.00219,0 -5.06399,-1.10264 -0.57174,-0.61258 -1.10265,-1.71523 -1.10265,-2.94039 0,-0.98012 0.36755,-2.00109 0.93929,-2.81786 z"
         id="path6173" />
      <path
         style="font-style:normal;font-variant:normal;font-weight:normal;font-stretch:normal;letter-spacing:normal;word-spacing:normal;text-anchor:start;fill:#000000;fill-opacity:1;fill-rule:evenodd;stroke:#000000;stroke-width:0;stroke-linecap:butt;stroke-linejoin:miter;stroke-miterlimit:10.43299961;stroke-dasharray:none;stroke-dashoffset:0;stroke-opacity:1"
         inkscape:connector-curvature="0"
         d="m 557.88381,-141.12423 0,-0.12251 -0.0408,-0.16336 0,-0.12251 -0.0408,-0.16336 -0.0408,-0.12251 0,-0.12252 -0.0817,-0.16335 -0.0408,-0.12252 -0.0408,-0.12252 -0.0817,-0.12251 -0.0408,-0.12252 -0.0817,-0.12251 -0.0817,-0.0817 -0.0817,-0.12252 -0.0817,-0.12251 -0.0817,-0.0817 -0.12252,-0.12252 -0.0817,-0.0817 -0.12252,-0.0817 -0.12251,-0.0817 -0.12252,-0.0817 -0.12252,-0.0817 -0.12251,-0.0408 -0.12252,-0.0817 -0.12251,-0.0408 -0.12252,-0.0408 -0.16335,-0.0408 -0.12252,-0.0408 -0.16336,0 -0.12251,-0.0408 -0.16336,0 -0.16335,0 c -1.51103,0 -2.81787,1.22516 -2.81787,2.81786 0,1.75607 1.42936,2.85871 2.81787,2.85871 1.83774,0 2.89954,-1.51103 2.89954,-2.81787 z"
         id="path6175" />
      <path
         style="font-style:normal;font-variant:normal;font-weight:normal;font-stretch:normal;letter-spacing:normal;word-spacing:normal;text-anchor:start;fill:#000000;fill-opacity:1;fill-rule:evenodd;stroke:#000000;stroke-width:0;stroke-linecap:butt;stroke-linejoin:miter;stroke-miterlimit:10.43299961;stroke-dasharray:none;stroke-dashoffset:0;stroke-opacity:1"
         inkscape:connector-curvature="0"
         d="m 549.79776,-130.22031 0,1.67439 c 3.75716,0 4.24722,0.36754 4.24722,3.22625 l 0,15.96791 c 0,2.61367 -0.61258,2.61367 -4.45141,2.61367 l 0,1.71522 c 1.63354,-0.12251 4.45141,-0.12251 6.16663,-0.12251 0.65342,0 4.04303,0 6.04412,0.12251 l 0,-1.71522 c -3.79799,0 -4.04302,-0.28587 -4.04302,-2.57283 l 0,-21.56281 z"
         id="path6177" />
      <path
         style="font-style:normal;font-variant:normal;font-weight:normal;font-stretch:normal;letter-spacing:normal;word-spacing:normal;text-anchor:start;fill:#000000;fill-opacity:1;fill-rule:evenodd;stroke:#000000;stroke-width:0;stroke-linecap:butt;stroke-linejoin:miter;stroke-miterlimit:10.43299961;stroke-dasharray:none;stroke-dashoffset:0;stroke-opacity:1"
         inkscape:connector-curvature="0"
         d="m 590.51389,-117.56033 -0.0408,-0.73509 -0.0408,-0.69426 -0.0817,-0.65342 -0.12252,-0.69426 -0.12252,-0.65342 -0.20419,-0.65341 -0.16335,-0.61258 -0.24504,-0.61258 -0.24503,-0.61258 -0.28587,-0.57174 -0.32671,-0.57174 -0.32671,-0.57175 -0.3267,-0.5309 -0.40839,-0.49006 -0.36755,-0.5309 -0.44922,-0.44923 -0.40839,-0.44922 -0.49006,-0.40839 -0.44923,-0.40839 -0.49006,-0.40838 -0.53091,-0.32671 -0.5309,-0.32671 -0.5309,-0.28587 -0.5309,-0.28587 -0.57174,-0.24504 -0.57174,-0.20419 -0.61258,-0.20419 -0.61258,-0.12252 -0.57175,-0.12251 -0.65341,-0.0817 -0.61258,-0.0817 -0.65342,0 -0.0408,1.18432 c 2.28696,0 4.73728,1.02097 6.32999,3.30793 1.83774,2.69535 1.83774,6.41167 1.83774,8.57612 0,2.04193 0,5.67657 -1.55187,8.41276 -1.63355,2.81787 -4.3289,3.96135 -6.57502,3.96135 l 0,0 c -2.16445,0 -4.77812,-0.93929 -6.49335,-3.83883 -1.55186,-2.61368 -1.63354,-6.08496 -1.63354,-8.53528 0,-2.24613 0,-5.79909 1.83774,-8.4536 1.63354,-2.49116 4.20638,-3.43045 6.24831,-3.43045 l 0.0408,-1.18432 c -7.02425,0 -12.5783,6.20748 -12.5783,13.59927 0,7.47347 5.88076,13.10921 12.53746,13.10921 6.90173,0 12.61914,-5.75825 12.61914,-13.10921 z"
         id="path6179" />
      <path
         style="font-style:normal;font-variant:normal;font-weight:normal;font-stretch:normal;letter-spacing:normal;word-spacing:normal;text-anchor:start;fill:#000000;fill-opacity:1;fill-rule:evenodd;stroke:#000000;stroke-width:0;stroke-linecap:butt;stroke-linejoin:miter;stroke-miterlimit:10.43299961;stroke-dasharray:none;stroke-dashoffset:0;stroke-opacity:1"
         inkscape:connector-curvature="0"
         d="m 618.32501,-119.27555 0,-0.49007 0,-0.49006 0,-0.44922 0,-0.44923 0,-0.40839 0,-0.40838 0,-0.36755 0,-0.36755 0,-0.36755 -0.0408,-0.32671 0,-0.28587 0,-0.32671 -0.0408,-0.28587 0,-0.28587 -0.0408,-0.24503 -0.0408,-0.24503 -0.0408,-0.24503 0,-0.24503 -0.0817,-0.24504 -0.0408,-0.20419 -0.0408,-0.20419 -0.0408,-0.2042 -0.0817,-0.20419 -0.0817,-0.16335 -0.0408,-0.2042 -0.0817,-0.20419 -0.0817,-0.16335 -0.12251,-0.16336 -0.0817,-0.20419 -0.12252,-0.16336 -0.12251,-0.16335 -0.12252,-0.16336 c -1.67438,-2.28696 -4.45141,-2.65451 -6.41166,-2.65451 -5.71741,0 -7.9227,4.8598 -8.41277,6.04412 l -0.0408,0 0,-6.04412 -7.96354,0.65342 0,1.67439 c 3.96135,0 4.45141,0.40838 4.45141,3.30793 l 0,15.88623 c 0,2.61367 -0.65342,2.61367 -4.45141,2.61367 l 0,1.71522 c 1.51103,-0.12251 4.69644,-0.12251 6.32999,-0.12251 1.67438,0 4.8598,0 6.37083,0.12251 l 0,-1.71522 c -3.75716,0 -4.45141,0 -4.45141,-2.61367 l 0,-10.90392 c 0,-6.16664 4.04302,-9.43373 7.67766,-9.43373 3.63464,0 4.45141,2.98122 4.45141,6.57503 l 0,13.76262 c 0,2.61367 -0.65341,2.61367 -4.45141,2.61367 l 0,1.71522 c 1.51103,-0.12251 4.69645,-0.12251 6.32999,-0.12251 1.71523,0 4.8598,0 6.37083,0.12251 l 0,-1.71522 c -2.89954,0 -4.36973,0 -4.45141,-1.75606 z"
         id="path6181" />
    </g>
    <g
       transform="matrix(0.44679824,0,0,0.44679824,-184.41239,539.70518)"
       id="g6281">
      <path
         style="font-style:normal;font-variant:normal;font-weight:normal;font-stretch:normal;letter-spacing:normal;word-spacing:normal;text-anchor:start;fill:#000000;fill-opacity:1;fill-rule:evenodd;stroke:#000000;stroke-width:0;stroke-linecap:butt;stroke-linejoin:miter;stroke-miterlimit:10.43299961;stroke-dasharray:none;stroke-dashoffset:0;stroke-opacity:1"
         inkscape:connector-curvature="0"
         d="m 645.76858,-97.590232 -0.0408,0.163355 0,0.163354 -0.0408,0.122516 -0.0408,0.163355 -0.0408,0.122516 -0.0408,0.122516 -0.0408,0.122516 -0.0408,0.122516 -0.0408,0.08168 -0.0408,0.122516 -0.0817,0.08168 -0.0408,0.08168 -0.0817,0.08168 -0.0408,0.08168 -0.0817,0.08168 -0.0817,0.04084 -0.0817,0.08168 -0.0817,0.04084 -0.0817,0.04084 -0.0817,0.08168 -0.12251,0.04084 -0.12252,0.04084 -0.12251,0 -0.12252,0.04084 -0.16335,0.04084 -0.12252,0 -0.16335,0.04084 -0.0817,0 -0.0817,0 -0.12252,0 -0.0817,0 -0.0817,0 -0.12252,0 -0.0817,0 -0.12252,0 -0.0817,0 -0.12251,0 c -0.69426,0 -1.30684,0 -1.30684,1.143482 0,0.122516 0.0817,0.571741 0.69426,0.571741 0.77593,0 1.59271,-0.122516 2.36864,-0.122516 l 2.532,0 c 1.22516,0 4.20638,0.122516 5.43154,0.122516 0.36754,0 1.0618,0 1.0618,-1.061805 0,-0.653418 -0.40839,-0.653418 -1.42935,-0.653418 -2.69535,0 -2.85871,-0.408386 -2.85871,-0.857612 0,-0.694257 2.65451,-10.781406 2.98122,-12.129076 0.65342,1.63354 2.24613,3.92051 5.26819,3.92051 l 0,-1.18432 c -3.96135,0 -4.61477,-5.02316 -4.61477,-5.26819 0,-0.16335 0.12252,-0.65342 0.16336,-0.93929 l 2.89954,-11.47566 c 0.40839,-1.63354 2.04193,-3.34877 2.98122,-4.16554 0.65342,-0.57174 2.57284,-2.20529 4.77812,-2.20529 2.61368,0 3.75716,2.57284 3.75716,5.63574 0,2.77702 -1.63355,9.43372 -3.10374,12.45578 -1.47019,3.14458 -4.16554,5.96245 -6.86089,5.96245 l 0,1.18432 c 6.6567,0 13.80346,-8.61696 13.80346,-17.23391 0,-5.3907 -3.0629,-9.1887 -7.47347,-9.1887 -3.71632,0 -6.90173,3.63464 -7.55515,4.45141 -0.44923,-2.94038 -2.73619,-4.45141 -5.10483,-4.45141 -1.67439,0 -3.02206,0.81678 -4.1247,3.0629 -1.06181,2.08277 -1.87858,5.67657 -1.87858,5.9216 0,0.2042 0.20419,0.53091 0.61258,0.53091 0.49006,0 0.5309,-0.0817 0.89845,-1.42936 0.89845,-3.47128 2.00109,-6.90173 4.32889,-6.90173 1.34768,0 1.83774,0.93929 1.83774,2.69535 0,1.38852 -0.20419,1.96026 -0.40838,3.02206 z"
         id="path6183" />
      <polygon
         style="font-style:normal;font-variant:normal;font-weight:normal;font-stretch:normal;letter-spacing:normal;word-spacing:normal;text-anchor:start;fill:#000000;fill-opacity:1;fill-rule:evenodd;stroke:#000000;stroke-width:0;stroke-linecap:butt;stroke-linejoin:miter;stroke-miterlimit:10.43299961;stroke-dasharray:none;stroke-dashoffset:0;stroke-opacity:1"
         points="372.92,709.83 372.92,710.61 369.2,710.61 369.2,709.83 "
         id="polygon6185"
         transform="matrix(4.0838645,0,0,-4.0838645,-835.04069,2782.7594)" />
      <path
         style="font-style:normal;font-variant:normal;font-weight:normal;font-stretch:normal;letter-spacing:normal;word-spacing:normal;text-anchor:start;fill:#000000;fill-opacity:1;fill-rule:evenodd;stroke:#000000;stroke-width:0;stroke-linecap:butt;stroke-linejoin:miter;stroke-miterlimit:10.43299961;stroke-dasharray:none;stroke-dashoffset:0;stroke-opacity:1"
         inkscape:connector-curvature="0"
         d="m 700.94159,-118.70381 0,-0.5309 0.0408,-0.49007 0.0408,-0.5309 0.0408,-0.5309 0.0408,-0.5309 0.0817,-0.49007 0.0817,-0.49006 0.12251,-0.49007 0.12252,-0.49006 0.12251,-0.49006 0.12252,-0.44923 0.16335,-0.44922 0.16336,-0.44923 0.20419,-0.40839 0.2042,-0.40838 0.20419,-0.40839 0.20419,-0.36755 0.24503,-0.3267 0.24504,-0.36755 0.28587,-0.32671 0.24503,-0.28587 0.28587,-0.28587 0.32671,-0.24503 0.28587,-0.24504 0.32671,-0.20419 0.36755,-0.16335 0.3267,-0.16336 0.36755,-0.12251 0.40839,-0.12252 0.36755,-0.0817 0.40838,-0.0408 0.40839,0 c 0.49006,0 0.57174,0 0.81677,0.0408 -0.44922,0.24503 -1.38851,0.61258 -1.38851,2.16445 0,1.71522 1.34767,2.36864 2.28696,2.36864 1.14348,0 2.32781,-0.77593 2.32781,-2.36864 0,-1.75606 -1.59271,-3.38961 -4.08387,-3.38961 -4.98231,0 -6.69754,5.3907 -7.02425,6.49335 l -0.0817,0 0,-6.49335 -7.84102,0.65342 0,1.67439 c 4.00218,0 4.45141,0.40838 4.45141,3.30793 l 0,15.88623 c 0,2.61367 -0.65342,2.61367 -4.45141,2.61367 l 0,1.71522 c 1.63354,-0.12251 4.8598,-0.12251 6.61586,-0.12251 1.5927,0 5.75825,0 7.10592,0.12251 l 0,-1.71522 -1.18432,0 c -4.28806,0 -4.41057,-0.65342 -4.41057,-2.73619 z"
         id="path6187" />
      <path
         style="font-style:normal;font-variant:normal;font-weight:normal;font-stretch:normal;letter-spacing:normal;word-spacing:normal;text-anchor:start;fill:#000000;fill-opacity:1;fill-rule:evenodd;stroke:#000000;stroke-width:0;stroke-linecap:butt;stroke-linejoin:miter;stroke-miterlimit:10.43299961;stroke-dasharray:none;stroke-dashoffset:0;stroke-opacity:1"
         inkscape:connector-curvature="0"
         d="m 735.94031,-118.62213 0.0408,0 0.0817,0 0.0408,0 0.0817,0 0.0408,0 0.0408,0 0.0408,0 0.0817,0 0.0408,0 0.0408,0 0.0408,0 0.0408,0 0.0408,0 0.0408,0 0.0408,0 0.0408,-0.0408 0.0408,0 0,0 0.0408,0 0.0408,0 0.0408,0 0.0817,-0.0408 0.0408,0 0.0408,0 0.0408,-0.0408 0.0408,0 0.0408,-0.0408 0.0408,-0.0408 0,-0.0408 0.0408,-0.0408 0,-0.0408 0.0408,-0.0408 0,-0.0408 0,-0.0817 0.0408,0 0,-0.0408 0,-0.0408 0,-0.0408 0,-0.0408 0,0 0,-0.0408 0,-0.0408 0,-0.0408 0,-0.0408 0,-0.0408 0,-0.0817 0,-0.0408 0,-0.0408 0,-0.0408 0,-0.0408 c 0,-5.9216 -3.14458,-11.43482 -10.2505,-11.43482 -6.6567,0 -11.84321,6.04412 -11.84321,13.3134 0,7.7185 6.00328,13.39508 12.49663,13.39508 6.98341,0 9.59708,-6.32999 9.59708,-7.55515 0,-0.36755 -0.28587,-0.57174 -0.61258,-0.57174 -0.49006,0 -0.61258,0.28587 -0.7351,0.57174 -1.51103,4.94147 -5.43154,6.28915 -7.88185,6.28915 -2.49116,0 -8.37193,-1.67439 -8.37193,-11.80237 l 0,-1.10264 0.0408,-1.10265 c 0.44923,-9.22953 5.63574,-10.2505 7.26928,-10.2505 6.24831,0 6.61586,8.24941 6.6567,10.2505 l -13.92598,0 -0.0408,1.10265 z"
         id="path6189" />
      <path
         style="font-style:normal;font-variant:normal;font-weight:normal;font-stretch:normal;letter-spacing:normal;word-spacing:normal;text-anchor:start;fill:#000000;fill-opacity:1;fill-rule:evenodd;stroke:#000000;stroke-width:0;stroke-linecap:butt;stroke-linejoin:miter;stroke-miterlimit:10.43299961;stroke-dasharray:none;stroke-dashoffset:0;stroke-opacity:1"
         inkscape:connector-curvature="0"
         d="m 745.94577,-115.64091 0.24504,0.16335 0.28587,0.16336 0.24503,0.12251 0.24503,0.16336 0.24503,0.12251 0.24503,0.12252 0.24504,0.0817 0.20419,0.12251 0.24503,0.0817 0.20419,0.0817 0.24504,0.0817 0.20419,0.0817 0.20419,0.0408 0.2042,0.0817 0.20419,0.0408 0.20419,0.0408 0.16336,0.0408 0.20419,0.0408 0.16335,0.0408 0.16336,0 0.16335,0.0408 0.16336,0 0.12251,0.0408 0.16336,0 0.12251,0 0.12252,0 0.0817,0 0.12251,0.0408 0.0817,0 0.0817,0 0.0817,0 0.0817,0 c 5.26819,0 9.1887,-4.00219 9.1887,-8.49444 0,-1.59271 -0.44923,-3.83883 -2.3278,-5.71741 2.28696,-2.32781 5.02315,-2.32781 5.30902,-2.32781 0.24503,0 0.5309,0 0.77593,0.12252 -0.57174,0.24503 -0.89845,0.81677 -0.89845,1.47019 0,0.81677 0.61258,1.51103 1.55187,1.51103 0.44923,0 1.51103,-0.28587 1.51103,-1.59271 0,-1.0618 -0.81677,-2.69535 -2.8587,-2.69535 -3.0629,0 -5.34987,1.87858 -6.16664,2.77703 -1.75606,-1.34767 -3.79799,-2.12361 -6.04412,-2.12361 l -0.0408,1.22516 c 5.14567,0 5.14567,5.92161 5.14567,7.26928 0,1.06181 0,3.47129 -0.98013,5.02315 -1.14348,1.71523 -2.89954,2.28697 -4.1247,2.28697 l 0,0 c -5.14567,0 -5.14567,-5.92161 -5.14567,-7.22844 0,-1.06181 0,-3.47129 0.98013,-5.06399 1.14348,-1.67439 2.89954,-2.28697 4.1247,-2.28697 l 0.0408,-1.22516 c -5.26818,0 -9.18869,4.00219 -9.18869,8.49444 0,3.34877 2.04193,5.51322 2.65451,6.04412 -0.7351,0.85761 -1.75606,2.57283 -1.75606,4.8598 0,3.38961 2.04193,4.8598 2.49115,5.14567 -2.69535,0.77593 -5.3907,2.89954 -5.3907,5.9216 0,4.043027 5.51322,7.391796 12.74166,7.391796 l 0.0408,-1.225159 c -5.63573,0 -9.88295,-2.899544 -9.88295,-6.207477 0,-0.49006 0.0817,-2.77702 2.3278,-4.28805 1.266,-0.81678 1.7969,-0.81678 5.9216,-0.81678 4.8598,0 11.47566,0 11.47566,5.10483 0,3.430449 -4.45141,6.207477 -9.84211,6.207477 l 0,0 -0.0408,1.225159 c 6.94257,0 12.74166,-3.103737 12.74166,-7.514306 0,-1.4702 -0.40839,-4.90064 -3.92051,-6.73838 -2.98122,-1.51103 -5.92161,-1.51103 -10.94476,-1.51103 -3.5938,0 -4.00219,0 -5.06399,-1.10264 -0.57174,-0.61258 -1.10264,-1.71523 -1.10264,-2.94039 0,-0.98012 0.36754,-2.00109 0.93928,-2.81786 z"
         id="path6191" />
      <path
         style="font-style:normal;font-variant:normal;font-weight:normal;font-stretch:normal;letter-spacing:normal;word-spacing:normal;text-anchor:start;fill:#000000;fill-opacity:1;fill-rule:evenodd;stroke:#000000;stroke-width:0;stroke-linecap:butt;stroke-linejoin:miter;stroke-miterlimit:10.43299961;stroke-dasharray:none;stroke-dashoffset:0;stroke-opacity:1"
         inkscape:connector-curvature="0"
         d="m 777.88159,-141.12423 0,-0.12251 0,-0.16336 -0.0408,-0.12251 0,-0.16336 -0.0408,-0.12251 -0.0408,-0.12252 -0.0408,-0.16335 -0.0408,-0.12252 -0.0817,-0.12252 -0.0408,-0.12251 -0.0817,-0.12252 -0.0817,-0.12251 -0.0817,-0.0817 -0.0817,-0.12252 -0.0817,-0.12251 -0.0817,-0.0817 -0.12251,-0.12252 -0.0817,-0.0817 -0.12252,-0.0817 -0.12251,-0.0817 -0.0817,-0.0817 -0.12252,-0.0817 -0.12251,-0.0408 -0.12252,-0.0817 -0.16335,-0.0408 -0.12252,-0.0408 -0.12252,-0.0408 -0.16335,-0.0408 -0.12252,0 -0.16335,-0.0408 -0.16335,0 -0.12252,0 c -1.55187,0 -2.81787,1.22516 -2.81787,2.81786 0,1.75607 1.38852,2.85871 2.81787,2.85871 1.7969,0 2.8587,-1.51103 2.8587,-2.81787 z"
         id="path6193" />
      <path
         style="font-style:normal;font-variant:normal;font-weight:normal;font-stretch:normal;letter-spacing:normal;word-spacing:normal;text-anchor:start;fill:#000000;fill-opacity:1;fill-rule:evenodd;stroke:#000000;stroke-width:0;stroke-linecap:butt;stroke-linejoin:miter;stroke-miterlimit:10.43299961;stroke-dasharray:none;stroke-dashoffset:0;stroke-opacity:1"
         inkscape:connector-curvature="0"
         d="m 769.79554,-130.22031 0,1.67439 c 3.75716,0 4.28806,0.36754 4.28806,3.22625 l 0,15.96791 c 0,2.61367 -0.65342,2.61367 -4.45141,2.61367 l 0,1.71522 c 1.63354,-0.12251 4.45141,-0.12251 6.12579,-0.12251 0.65342,0 4.04303,0 6.04412,0.12251 l 0,-1.71522 c -3.79799,0 -4.04302,-0.28587 -4.04302,-2.57283 l 0,-21.56281 z"
         id="path6195" />
      <path
         style="font-style:normal;font-variant:normal;font-weight:normal;font-stretch:normal;letter-spacing:normal;word-spacing:normal;text-anchor:start;fill:#000000;fill-opacity:1;fill-rule:evenodd;stroke:#000000;stroke-width:0;stroke-linecap:butt;stroke-linejoin:miter;stroke-miterlimit:10.43299961;stroke-dasharray:none;stroke-dashoffset:0;stroke-opacity:1"
         inkscape:connector-curvature="0"
         d="m 810.51167,-117.56033 -0.0408,-0.73509 -0.0408,-0.69426 -0.0817,-0.65342 -0.12252,-0.69426 -0.12251,-0.65342 -0.16336,-0.65341 -0.20419,-0.61258 -0.24503,-0.61258 -0.24504,-0.61258 -0.28587,-0.57174 -0.28587,-0.57174 -0.36755,-0.57175 -0.3267,-0.5309 -0.36755,-0.49006 -0.40839,-0.5309 -0.40839,-0.44923 -0.44922,-0.44922 -0.44923,-0.40839 -0.49006,-0.40839 -0.49006,-0.40838 -0.53091,-0.32671 -0.49006,-0.32671 -0.57174,-0.28587 -0.5309,-0.28587 -0.57174,-0.24504 -0.57174,-0.20419 -0.61258,-0.20419 -0.57175,-0.12252 -0.61257,-0.12251 -0.61258,-0.0817 -0.65342,-0.0817 -0.61258,0 -0.0817,1.18432 c 2.28696,0 4.77812,1.02097 6.32999,3.30793 1.83774,2.69535 1.83774,6.41167 1.83774,8.57612 0,2.04193 0,5.67657 -1.55187,8.41276 -1.63354,2.81787 -4.3289,3.96135 -6.53418,3.96135 l 0,0 c -2.16445,0 -4.81896,-0.93929 -6.53419,-3.83883 -1.55186,-2.61368 -1.63354,-6.08496 -1.63354,-8.53528 0,-2.24613 0,-5.79909 1.83774,-8.4536 1.63354,-2.49116 4.20638,-3.43045 6.24831,-3.43045 l 0.0817,-1.18432 c -7.02425,0 -12.61914,6.20748 -12.61914,13.59927 0,7.47347 5.88076,13.10921 12.53746,13.10921 6.94257,0 12.61914,-5.75825 12.61914,-13.10921 z"
         id="path6197" />
      <path
         style="font-style:normal;font-variant:normal;font-weight:normal;font-stretch:normal;letter-spacing:normal;word-spacing:normal;text-anchor:start;fill:#000000;fill-opacity:1;fill-rule:evenodd;stroke:#000000;stroke-width:0;stroke-linecap:butt;stroke-linejoin:miter;stroke-miterlimit:10.43299961;stroke-dasharray:none;stroke-dashoffset:0;stroke-opacity:1"
         inkscape:connector-curvature="0"
         d="m 838.36363,-119.27555 0,-0.49007 0,-0.49006 0,-0.44922 0,-0.44923 0,-0.40839 0,-0.40838 0,-0.36755 0,-0.36755 0,-0.36755 -0.0408,-0.32671 0,-0.28587 0,-0.32671 -0.0408,-0.28587 0,-0.28587 -0.0408,-0.24503 -0.0408,-0.24503 -0.0408,-0.24503 0,-0.24503 -0.0817,-0.24504 -0.0408,-0.20419 -0.0408,-0.20419 -0.0408,-0.2042 -0.0817,-0.20419 -0.0817,-0.16335 -0.0408,-0.2042 -0.0817,-0.20419 -0.0817,-0.16335 -0.12251,-0.16336 -0.0817,-0.20419 -0.12252,-0.16336 -0.12251,-0.16335 -0.12252,-0.16336 c -1.67438,-2.28696 -4.45141,-2.65451 -6.41167,-2.65451 -5.71741,0 -7.92269,4.8598 -8.41276,6.04412 l -0.0408,0 0,-6.04412 -7.96354,0.65342 0,1.67439 c 4.00219,0 4.45141,0.40838 4.45141,3.30793 l 0,15.88623 c 0,2.61367 -0.65342,2.61367 -4.45141,2.61367 l 0,1.71522 c 1.51103,-0.12251 4.69644,-0.12251 6.32999,-0.12251 1.67438,0 4.8598,0 6.37083,0.12251 l 0,-1.71522 c -3.75716,0 -4.45141,0 -4.45141,-2.61367 l 0,-10.90392 c 0,-6.16664 4.04302,-9.43373 7.67766,-9.43373 3.63464,0 4.45141,2.98122 4.45141,6.57503 l 0,13.76262 c 0,2.61367 -0.65341,2.61367 -4.45141,2.61367 l 0,1.71522 c 1.51103,-0.12251 4.69645,-0.12251 6.32999,-0.12251 1.71522,0 4.8598,0 6.37083,0.12251 l 0,-1.71522 c -2.89954,0 -4.36974,0 -4.45141,-1.75606 z"
         id="path6199" />
    </g>
    <g
       style="font-style:normal;font-variant:normal;font-weight:normal;font-stretch:normal;letter-spacing:normal;word-spacing:normal;text-anchor:start;fill:none;fill-opacity:1;fill-rule:evenodd;stroke:#000000;stroke-width:0.0000001;stroke-linecap:butt;stroke-linejoin:miter;stroke-miterlimit:10.43299961;stroke-dasharray:none;stroke-dashoffset:0;stroke-opacity:1"
       ns0:page_width=""
       ns0:preamble=""
       ns0:text="$x$"
       word-spacing="normal"
       letter-spacing="normal"
       font-size-adjust="none"
       font-stretch="normal"
       font-weight="normal"
       font-variant="normal"
       font-style="normal"
       stroke-miterlimit="10.433"
       xml:space="preserve"
       transform="matrix(3.3264695,0,0,-3.3264695,-297.93547,2852.2841)"
       id="content"><path
         id="path6373"
         d="m 230.23,712.98 -0.04,-0.01 -0.04,-0.01 -0.04,-0.01 -0.04,-0.02 -0.03,-0.01 -0.04,-0.02 -0.03,-0.01 -0.03,-0.02 -0.03,-0.02 -0.03,-0.02 -0.02,-0.02 -0.03,-0.02 -0.02,-0.02 -0.02,-0.03 -0.03,-0.02 -0.02,-0.03 -0.01,-0.02 -0.02,-0.03 -0.02,-0.02 -0.01,-0.03 -0.01,-0.02 -0.01,-0.03 -0.02,-0.03 0,-0.02 -0.01,-0.03 -0.01,-0.03 -0.01,-0.03 0,-0.02 0,-0.03 -0.01,-0.03 0,-0.02 0,-0.03 c 0,-0.34 0.27,-0.46 0.47,-0.46 0.44,0 0.74,0.38 0.74,0.76 0,0.61 -0.69,0.88 -1.3,0.88 -0.87,0 -1.36,-0.86 -1.49,-1.13 -0.33,1.07 -1.22,1.13 -1.47,1.13 -1.47,0 -2.24,-1.88 -2.24,-2.2 0,-0.05 0.06,-0.13 0.15,-0.13 0.12,0 0.15,0.09 0.18,0.15 0.48,1.59 1.45,1.89 1.86,1.89 0.65,0 0.78,-0.6 0.78,-0.94 0,-0.32 -0.09,-0.65 -0.26,-1.34 l -0.49,-1.96 c -0.21,-0.87 -0.63,-1.65 -1.39,-1.65 -0.07,0 -0.43,0 -0.73,0.18 0.52,0.1 0.63,0.53 0.63,0.71 0,0.28 -0.22,0.45 -0.49,0.45 -0.34,0 -0.72,-0.3 -0.72,-0.76 0,-0.6 0.68,-0.87 1.29,-0.87 0.69,0 1.18,0.54 1.48,1.13 0.23,-0.84 0.95,-1.13 1.48,-1.13 1.46,0 2.24,1.88 2.24,2.19 0,0.08 -0.06,0.13 -0.14,0.13 -0.13,0 -0.15,-0.07 -0.19,-0.18 -0.39,-1.27 -1.22,-1.85 -1.87,-1.85 -0.5,0 -0.77,0.37 -0.77,0.96 0,0.31 0.06,0.54 0.29,1.49 l 0.5,1.95 c 0.21,0.86 0.7,1.49 1.36,1.49 0.03,0 0.43,0 0.73,-0.18 z"
         inkscape:connector-curvature="0"
         style="fill:#000000;stroke-width:0" /></g>    <path
       id="path7873"
       d="m 67.085985,261.75239 0,-0.0285 0.02845,-0.0285 0,-0.0569 0.02845,-0.0569 0.0569,-0.0569 0.02845,-0.0854 0.02845,-0.0569 0.0569,-0.0854 0.0569,-0.11373 0.0569,-0.0854 0.0569,-0.11373 0.0569,-0.11372 0.08535,-0.11373 0.0569,-0.14226 0.08535,-0.11373 0.08535,-0.14225 0.08535,-0.11373 0.08535,-0.14225 0.08535,-0.14225 0.113784,-0.14226 0.113784,-0.14225 0.08535,-0.14225 0.113784,-0.14226 0.113785,-0.14225 0.113784,-0.14225 0.142235,-0.14226 0.113784,-0.14225 0.142235,-0.14225 0.113784,-0.11373 0.142235,-0.14226 0.142235,-0.11373 0.142235,-0.14225 c 1.052558,-0.96721 2.446488,-1.6215 4.039552,-1.6215 1.621509,0 2.190462,1.22323 2.190462,2.84475 0,2.3327 -1.678407,6.96964 -2.474937,9.18855 -0.369818,0.96721 -0.568953,1.50772 -0.568953,2.24737 0,1.82064 1.251693,3.2999 3.214573,3.2999 3.783526,0 5.234343,-6.00242 5.234343,-6.23001 0,-0.22759 -0.17068,-0.36982 -0.42671,-0.36982 -0.36982,0 -0.39827,0.11373 -0.5974,0.79654 -0.938763,3.35681 -2.503379,4.97832 -4.096441,4.97832 -0.398267,0 -1.05256,-0.0285 -1.05256,-1.33704 0,-1.02411 0.455161,-2.24736 0.682742,-2.8163 0.824979,-2.24736 2.531831,-6.79897 2.531831,-9.13167 0,-2.4465 -1.422377,-4.29559 -4.52316,-4.29559 -3.641288,0 -5.547272,2.58874 -6.286908,3.5844 -0.113785,-2.30425 -1.792197,-3.5844 -3.584392,-3.5844 -1.308587,0 -2.218909,0.7681 -2.901651,2.16203 -0.739636,1.47927 -1.308587,3.92575 -1.308587,4.09644 0,0.14225 0.170686,0.36982 0.455161,0.36982 0.312922,0 0.369818,-0.0569 0.597398,-0.99566 0.654295,-2.47494 1.393931,-4.80763 3.015441,-4.80763 0.938768,0 1.28014,0.65429 1.28014,1.87752 0,0.88188 -0.398266,2.47495 -0.682741,3.75508 l -1.16635,4.40938 c -0.142235,0.76807 -0.597398,2.58871 -0.796532,3.32836 -0.284475,1.08101 -0.739636,2.98698 -0.739636,3.18612 0,0.56896 0.455161,1.02411 1.05256,1.02411 0.483608,0 1.052559,-0.25601 1.39393,-0.85342 0.08535,-0.19914 0.455161,-1.62151 0.654293,-2.44648 l 0.881875,-3.66975 z"
       inkscape:connector-curvature="0"
       style="font-style:normal;font-variant:normal;font-weight:normal;font-stretch:normal;letter-spacing:normal;word-spacing:normal;text-anchor:start;fill:#ff0000;fill-opacity:1;fill-rule:evenodd;stroke:#000000;stroke-width:0;stroke-linecap:butt;stroke-linejoin:miter;stroke-miterlimit:10.43299961;stroke-dasharray:none;stroke-dashoffset:0;stroke-opacity:1" />
    <path
       id="path7875"
       d="m 97.098149,280.78378 0,0.0285 0,0.0569 -0.0285,0.0285 0,0.0569 0,0.0285 -0.0284,0.0569 0,0.0285 0,0.0569 -0.0285,0.0285 0,0.0569 0,0.0285 -0.0284,0.0569 0,0.0285 0,0.0569 0,0.0569 0,0.0283 c 0,0.62586 0.4836,1.02411 1.10944,1.02411 0.59741,0 1.16635,-0.39825 1.42239,-0.96721 0.17077,-0.36982 1.308581,-5.2628 2.617161,-10.29802 0.79655,2.04823 2.30427,2.90166 3.89732,2.90166 l -0.0285,-0.82498 c -2.78786,0 -3.4706,-3.21458 -3.4706,-3.69818 0,-0.25604 1.02411,-4.12491 1.1379,-4.75075 2.07668,-8.10755 6.08778,-8.30667 6.68519,-8.30667 1.84909,0 2.87318,1.67841 2.87318,4.06798 0,2.07668 -1.10944,6.11623 -1.79219,7.85154 -1.22325,2.8163 -3.35681,4.83608 -5.43348,4.83608 l 0,0 0.0285,0.82498 c 4.63696,0 9.84286,-5.71796 9.84286,-11.86262 0,-4.38093 -2.64563,-6.54296 -5.46194,-6.54296 -3.58437,0 -7.9653,3.72664 -9.30233,9.13167 z"
       inkscape:connector-curvature="0"
       style="font-style:normal;font-variant:normal;font-weight:normal;font-stretch:normal;letter-spacing:normal;word-spacing:normal;text-anchor:start;fill:#0000ff;fill-opacity:1;fill-rule:evenodd;stroke:#000000;stroke-width:0;stroke-linecap:butt;stroke-linejoin:miter;stroke-miterlimit:10.43299961;stroke-dasharray:none;stroke-dashoffset:0;stroke-opacity:1" />
    <g
       transform="matrix(1.852258,0,0,1.852258,156.14315,611.04714)"
       id="g7970">
      <path
         style="font-style:normal;font-variant:normal;font-weight:normal;font-stretch:normal;letter-spacing:normal;word-spacing:normal;text-anchor:start;fill:#000000;fill-opacity:1;fill-rule:evenodd;stroke:#000000;stroke-width:0;stroke-linecap:butt;stroke-linejoin:miter;stroke-miterlimit:10.43299961;stroke-dasharray:none;stroke-dashoffset:0;stroke-opacity:1"
         inkscape:connector-curvature="0"
         d="m 133.88231,-143.83086 0.0461,-0.1843 0.0154,-0.0768 0.0307,-0.0922 0.0307,-0.0768 0.0307,-0.0768 0.0307,-0.0768 0.0307,-0.0768 0.0307,-0.0768 0.0461,-0.0614 0.0461,-0.0768 0.0461,-0.0614 0.0461,-0.0614 0.0461,-0.0614 0.0614,-0.0614 0.0614,-0.0461 0.0614,-0.0614 0.0614,-0.0461 0.0768,-0.0461 0.0768,-0.0461 0.0768,-0.0461 0.0922,-0.0461 0.0922,-0.0307 0.10751,-0.0307 0.0922,-0.0307 0.12286,-0.0307 0.10751,-0.0307 0.12287,-0.0154 0.13822,-0.0154 0.13823,-0.0154 0.13822,-0.0154 0.0768,0 0.0768,-0.0154 c 0.0768,0 0.33788,-0.0154 0.33788,-0.38396 0,-0.24573 -0.19966,-0.24573 -0.29181,-0.24573 -0.43003,0 -1.56655,0.0461 -1.99658,0.0461 l -1.05972,0 c -0.30717,0 -0.70648,-0.0461 -1.01365,-0.0461 -0.13823,0 -0.39932,0 -0.39932,0.41468 0,0.21501 0.1843,0.21501 0.33789,0.21501 1.32081,0.0461 1.3976,0.5529 1.3976,0.95222 0,0.19966 -0.0154,0.26109 -0.0768,0.56825 l -2.48805,9.95219 -4.73035,-11.73375 c -0.13823,-0.35324 -0.16895,-0.3686 -0.64505,-0.3686 l -2.70307,0 c -0.43003,0 -0.62969,0 -0.62969,0.41468 0,0.21501 0.15359,0.21501 0.56826,0.21501 0.10751,0 1.41297,0 1.41297,0.19966 0,0.0461 -0.0461,0.23037 -0.0614,0.29181 l -2.93344,11.67231 c -0.26109,1.09044 -0.79863,1.55119 -2.25767,1.61263 -0.1075,0 -0.32252,0.0307 -0.32252,0.41467 0,0.23037 0.21502,0.23037 0.29181,0.23037 0.43003,0 1.55119,-0.0461 1.99658,-0.0461 l 1.05972,0 c 0.30717,0 0.67577,0.0461 0.99829,0.0461 0.15358,0 0.38396,0 0.38396,-0.43003 0,-0.1843 -0.21502,-0.21501 -0.30717,-0.21501 -0.72184,-0.0154 -1.42832,-0.15359 -1.42832,-0.95222 0,-0.16894 0.0461,-0.3686 0.0922,-0.53754 l 2.97951,-11.79518 c 0.12287,0.21501 0.12287,0.26109 0.21502,0.46075 l 5.23718,13.06992 c 0.12287,0.26109 0.15358,0.39931 0.35324,0.39931 0.23038,0 0.24573,-0.0768 0.33788,-0.44539 z"
         id="path7877" />
      <path
         style="font-style:normal;font-variant:normal;font-weight:normal;font-stretch:normal;letter-spacing:normal;word-spacing:normal;text-anchor:start;fill:#000000;fill-opacity:1;fill-rule:evenodd;stroke:#000000;stroke-width:0;stroke-linecap:butt;stroke-linejoin:miter;stroke-miterlimit:10.43299961;stroke-dasharray:none;stroke-dashoffset:0;stroke-opacity:1"
         inkscape:connector-curvature="0"
         d="m 137.2765,-128.99474 -0.0154,0.0614 -0.0154,0.0461 -0.0153,0.0461 -0.0154,0.0461 -0.0154,0.0461 -0.0154,0.0461 -0.0154,0.0461 -0.0154,0.0307 -0.0153,0.0307 -0.0154,0.0307 -0.0154,0.0307 -0.0307,0.0307 -0.0154,0.0307 -0.0307,0.0154 -0.0307,0.0307 -0.0307,0.0154 -0.0307,0.0154 -0.0461,0.0307 -0.0307,0.0154 -0.0461,0.0154 -0.0614,0 -0.0154,0.0154 -0.0307,0 -0.0307,0 -0.0307,0.0154 -0.0307,0 -0.0307,0 -0.0307,0 -0.0307,0.0153 -0.0461,0 -0.0307,0 -0.0461,0 -0.0307,0 -0.0461,0.0154 -0.0461,0 -0.0461,0 -0.0461,0 -0.0461,0 -0.0461,0 -0.0461,0 -0.0614,0 -0.0461,0 -0.0614,0 c -0.26109,0 -0.43003,0 -0.43003,0.29181 0,0.1843 0.13823,0.1843 0.43003,0.1843 l 5.06825,0 -0.27645,-0.47611 -1.73549,0 c -0.21502,0 -0.24573,0 -0.33788,-0.0154 -0.15359,-0.0153 -0.19966,-0.0307 -0.19966,-0.15358 0,-0.0461 0,-0.0768 0.0768,-0.35324 l 2.10409,-8.40099 c 0.13822,-0.53755 0.16894,-0.58362 0.82935,-0.58362 l 1.62798,0 c 1.50511,0 2.77985,0.81399 2.77985,2.84129 0,0.75255 -0.30717,3.25596 -1.61262,4.93001 -0.44539,0.56826 -1.6587,1.73549 -3.53241,1.73549 l 0.27645,0.47611 c 3.17917,0 6.1894,-3.22524 6.1894,-6.57336 0,-2.16552 -1.2901,-3.87029 -3.59385,-3.87029 l -5.14503,0 c -0.29181,0 -0.44539,0 -0.44539,0.27645 0,0.1843 0.13822,0.1843 0.43003,0.1843 0.19966,0 0.47611,0.0154 0.66041,0.0307 0.24573,0.0307 0.33788,0.0768 0.33788,0.24573 0,0.0614 -0.0154,0.10751 -0.0614,0.29181 z"
         id="path7879" />
    </g>
    <g
       transform="matrix(1.852258,0,0,1.852258,107.3593,643.57406)"
       id="g7986">
      <path
         style="font-style:normal;font-variant:normal;font-weight:normal;font-stretch:normal;letter-spacing:normal;word-spacing:normal;text-anchor:start;fill:#000000;fill-opacity:1;fill-rule:evenodd;stroke:#000000;stroke-width:0;stroke-linecap:butt;stroke-linejoin:miter;stroke-miterlimit:10.43299961;stroke-dasharray:none;stroke-dashoffset:0;stroke-opacity:1"
         inkscape:connector-curvature="0"
         d="m 160.43683,-137.56467 0,-0.0154 0.0154,-0.0154 0,-0.0307 0.0154,-0.0307 0.0307,-0.0307 0.0154,-0.0461 0.0154,-0.0307 0.0307,-0.0461 0.0307,-0.0614 0.0307,-0.0461 0.0307,-0.0614 0.0307,-0.0614 0.0461,-0.0614 0.0307,-0.0768 0.0461,-0.0614 0.0461,-0.0768 0.0461,-0.0614 0.0461,-0.0768 0.0461,-0.0768 0.0614,-0.0768 0.0614,-0.0768 0.0461,-0.0768 0.0614,-0.0768 0.0614,-0.0768 0.0614,-0.0768 0.0768,-0.0768 0.0614,-0.0768 0.0768,-0.0768 0.0614,-0.0614 0.0768,-0.0768 0.0768,-0.0614 0.0768,-0.0768 c 0.56825,-0.52218 1.32081,-0.87542 2.18088,-0.87542 0.87542,0 1.18259,0.6604 1.18259,1.53583 0,1.25938 -0.90615,3.76278 -1.33618,4.96073 -0.19966,0.52218 -0.30716,0.81399 -0.30716,1.21331 0,0.98293 0.67576,1.78156 1.73548,1.78156 2.04266,0 2.82593,-3.2406 2.82593,-3.36347 0,-0.12287 -0.0922,-0.19966 -0.23037,-0.19966 -0.19966,0 -0.21502,0.0614 -0.32253,0.43004 -0.50682,1.81228 -1.35153,2.6877 -2.21159,2.6877 -0.21502,0 -0.56826,-0.0154 -0.56826,-0.72184 0,-0.5529 0.24573,-1.21331 0.3686,-1.52047 0.44539,-1.21331 1.36689,-3.67064 1.36689,-4.93002 0,-1.32082 -0.76792,-2.31911 -2.44197,-2.31911 -1.96587,0 -2.99487,1.39761 -3.39419,1.93515 -0.0614,-1.24402 -0.96757,-1.93515 -1.93514,-1.93515 -0.70649,0 -1.19795,0.41468 -1.56655,1.16724 -0.39932,0.79863 -0.70648,2.11944 -0.70648,2.21159 0,0.0768 0.0922,0.19966 0.24573,0.19966 0.16894,0 0.19966,-0.0307 0.32252,-0.53754 0.35324,-1.33617 0.75256,-2.59555 1.62798,-2.59555 0.50683,0 0.69113,0.35324 0.69113,1.01364 0,0.47611 -0.21502,1.33618 -0.38396,2.0273 l -0.61433,2.38054 c -0.0768,0.41467 -0.32253,1.3976 -0.43004,1.79692 -0.15358,0.58362 -0.39931,1.61262 -0.39931,1.72013 0,0.30717 0.24573,0.5529 0.56826,0.5529 0.26109,0 0.56825,-0.13822 0.75255,-0.46075 0.0461,-0.10751 0.24574,-0.87542 0.35324,-1.32081 l 0.47611,-1.98123 z"
         id="path7881" />
      <path
         style="font-style:normal;font-variant:normal;font-weight:normal;font-stretch:normal;letter-spacing:normal;word-spacing:normal;text-anchor:start;fill:#000000;fill-opacity:1;fill-rule:evenodd;stroke:#000000;stroke-width:0;stroke-linecap:butt;stroke-linejoin:miter;stroke-miterlimit:10.43299961;stroke-dasharray:none;stroke-dashoffset:0;stroke-opacity:1"
         inkscape:connector-curvature="0"
         d="m 171.63304,-131.3292 0.0461,0 0.0461,0 0.0461,0 0.0614,0 0.0614,0 0.0614,0 0.0614,-0.0154 0.0614,0 0.0768,0 0.0614,0 0.0768,0 0.0768,-0.0154 0.0768,0 0.0768,-0.0154 0.15358,-0.0153 0.16894,-0.0154 0.16895,-0.0307 0.16894,-0.0154 0.16894,-0.0461 0.15358,-0.0307 0.0921,-0.0307 0.0768,-0.0153 0.0768,-0.0307 0.0768,-0.0154 0.0768,-0.0307 0.0614,-0.0307 c 1.07508,-0.46075 1.15187,-1.36689 1.15187,-1.58191 0,-0.67576 -0.58361,-1.2901 -1.62798,-1.2901 l 0,0.33789 c 0.70649,0 1.12116,0.44539 1.12116,0.95221 0,1.59727 -2.44197,1.59727 -3.07166,1.59727 l -0.62969,0 c 0.59897,-2.33447 2.18088,-2.54948 2.58019,-2.54948 l 0,-0.33789 c -1.70477,0 -4.00852,1.4744 -4.00852,4.16211 0,1.55119 0.89079,2.76449 2.3959,2.76449 2.18088,0 3.47098,-1.62798 3.47098,-1.81228 0,-0.0921 -0.0922,-0.19966 -0.1843,-0.19966 -0.0768,0 -0.10751,0.0307 -0.19966,0.15359 -1.19795,1.52047 -2.872,1.52047 -3.0563,1.52047 -1.19795,0 -1.33618,-1.2901 -1.33618,-1.76621 0,-0.1843 0.0154,-0.6604 0.24574,-1.59726 z"
         id="path7883" />
    </g>
    <g
       transform="matrix(1.852258,0,0,1.852258,-227.52296,663.8167)"
       id="g7990">
      <path
         style="font-style:normal;font-variant:normal;font-weight:normal;font-stretch:normal;letter-spacing:normal;word-spacing:normal;text-anchor:start;fill:#000000;fill-opacity:1;fill-rule:evenodd;stroke:#000000;stroke-width:0;stroke-linecap:butt;stroke-linejoin:miter;stroke-miterlimit:10.43299961;stroke-dasharray:none;stroke-dashoffset:0;stroke-opacity:1"
         inkscape:connector-curvature="0"
         d="m 188.38895,-137.56467 0,-0.0154 0.0154,-0.0154 0.0154,-0.0307 0.0154,-0.0307 0.0154,-0.0307 0.0154,-0.0461 0.0154,-0.0307 0.0307,-0.0461 0.0307,-0.0614 0.0307,-0.0461 0.0307,-0.0614 0.0307,-0.0614 0.0461,-0.0614 0.0307,-0.0768 0.0461,-0.0614 0.0461,-0.0768 0.0461,-0.0614 0.0461,-0.0768 0.0614,-0.0768 0.0461,-0.0768 0.0614,-0.0768 0.0614,-0.0768 0.0461,-0.0768 0.0768,-0.0768 0.0614,-0.0768 0.0614,-0.0768 0.0614,-0.0768 0.0768,-0.0768 0.0614,-0.0614 0.0768,-0.0768 0.0768,-0.0614 0.0768,-0.0768 c 0.56826,-0.52218 1.32081,-0.87542 2.18088,-0.87542 0.87542,0 1.18259,0.6604 1.18259,1.53583 0,1.25938 -0.89078,3.76278 -1.33618,4.96073 -0.19965,0.52218 -0.30716,0.81399 -0.30716,1.21331 0,0.98293 0.67576,1.78156 1.73549,1.78156 2.05801,0 2.82593,-3.2406 2.82593,-3.36347 0,-0.12287 -0.0922,-0.19966 -0.23038,-0.19966 -0.19966,0 -0.21501,0.0614 -0.32252,0.43004 -0.50683,1.81228 -1.35153,2.6877 -2.2116,2.6877 -0.21502,0 -0.56826,-0.0154 -0.56826,-0.72184 0,-0.5529 0.24574,-1.21331 0.3686,-1.52047 0.44539,-1.21331 1.36689,-3.67064 1.36689,-4.93002 0,-1.32082 -0.76791,-2.31911 -2.44197,-2.31911 -1.96586,0 -2.99487,1.39761 -3.39419,1.93515 -0.0614,-1.24402 -0.96757,-1.93515 -1.93514,-1.93515 -0.70648,0 -1.19795,0.41468 -1.56655,1.16724 -0.39932,0.79863 -0.70648,2.11944 -0.70648,2.21159 0,0.0768 0.0922,0.19966 0.24573,0.19966 0.16894,0 0.19966,-0.0307 0.33788,-0.53754 0.35324,-1.33617 0.7372,-2.59555 1.62798,-2.59555 0.50683,0 0.67577,0.35324 0.67577,1.01364 0,0.47611 -0.21502,1.33618 -0.3686,2.0273 l -0.61433,2.38054 c -0.0922,0.41467 -0.33788,1.3976 -0.44539,1.79692 -0.15359,0.58362 -0.39932,1.61262 -0.39932,1.72013 0,0.30717 0.24573,0.5529 0.56826,0.5529 0.27645,0 0.58361,-0.13822 0.75256,-0.46075 0.0461,-0.10751 0.24573,-0.87542 0.35324,-1.32081 l 0.49146,-1.98123 z"
         id="path7885" />
      <path
         style="font-style:normal;font-variant:normal;font-weight:normal;font-stretch:normal;letter-spacing:normal;word-spacing:normal;text-anchor:start;fill:#000000;fill-opacity:1;fill-rule:evenodd;stroke:#000000;stroke-width:0;stroke-linecap:butt;stroke-linejoin:miter;stroke-miterlimit:10.43299961;stroke-dasharray:none;stroke-dashoffset:0;stroke-opacity:1"
         inkscape:connector-curvature="0"
         d="m 201.12099,-138.24044 0,0 0,-0.0154 0,0 0,0 0,0 0,0 0,-0.0154 0,0 0,-0.0153 0,0 0,0 -0.0154,-0.0154 0,0 0,-0.0154 0,0 0,-0.0154 -0.0154,0 0,-0.0154 0,0 -0.0154,-0.0154 0,0 0,0 -0.0154,-0.0153 0,0 0,0 -0.0154,0 0,0 0,-0.0154 -0.0154,0 0,0 0,0 -0.0154,0 0,0 0,-0.0154 -0.0154,0 0,0 -0.0154,0 0,0 -0.0154,0 0,0 -0.0154,0 0,0 -0.0154,0 0,0 -0.0154,0 c -0.35324,0 -1.47439,0.12287 -1.87371,0.15358 -0.12287,0.0154 -0.27645,0.0154 -0.27645,0.29181 0,0.1843 0.13822,0.1843 0.35324,0.1843 0.7372,0 0.76792,0.10751 0.76792,0.26109 l -0.0461,0.30717 -2.21159,8.81567 c -0.0614,0.21501 -0.0614,0.24573 -0.0614,0.33788 0,0.35324 0.30717,0.43003 0.44539,0.43003 0.24574,0 0.49147,-0.1843 0.5529,-0.39931 l 0.29181,-1.16724 0.33788,-1.36689 c 0.0922,-0.33788 0.1843,-0.67576 0.26109,-1.029 0.0307,-0.0922 0.15359,-0.59898 0.16895,-0.69113 0.0461,-0.13822 0.52218,-0.99829 1.04436,-1.41296 0.33788,-0.24573 0.81399,-0.52218 1.4744,-0.52218 0.64505,0 0.82935,0.50682 0.82935,1.05972 0,0.82935 -0.58362,2.5034 -0.95222,3.44026 -0.12286,0.33788 -0.19966,0.52218 -0.19966,0.82935 0,0.72184 0.53754,1.25938 1.24403,1.25938 1.44368,0 2.01194,-2.24231 2.01194,-2.36518 0,-0.13822 -0.13823,-0.13822 -0.1843,-0.13822 -0.15359,0 -0.15359,0.0461 -0.23038,0.26109 -0.23037,0.81399 -0.72184,1.90443 -1.56655,1.90443 -0.26109,0 -0.35324,-0.15358 -0.35324,-0.50683 0,-0.38395 0.13823,-0.75255 0.27645,-1.09044 0.23038,-0.64504 0.9215,-2.47268 0.9215,-3.36346 0,-0.99829 -0.61433,-1.62799 -1.75085,-1.62799 -0.96757,0 -1.70477,0.46075 -2.27303,1.16724 z"
         id="path7887" />
    </g>
    <g
       transform="matrix(1.852258,0,0,1.852258,-287.19201,623.14765)"
       id="g7974">
      <path
         style="font-style:normal;font-variant:normal;font-weight:normal;font-stretch:normal;letter-spacing:normal;word-spacing:normal;text-anchor:start;fill:#000000;fill-opacity:1;fill-rule:evenodd;stroke:#000000;stroke-width:0;stroke-linecap:butt;stroke-linejoin:miter;stroke-miterlimit:10.43299961;stroke-dasharray:none;stroke-dashoffset:0;stroke-opacity:1"
         inkscape:connector-curvature="0"
         d="m 229.81031,-143.83086 0.0461,-0.1843 0.0154,-0.0768 0.0307,-0.0922 0.0307,-0.0768 0.0307,-0.0768 0.0307,-0.0768 0.0307,-0.0768 0.0307,-0.0768 0.0461,-0.0614 0.0461,-0.0768 0.0461,-0.0614 0.0461,-0.0614 0.0461,-0.0614 0.0614,-0.0614 0.0614,-0.0461 0.0614,-0.0614 0.0614,-0.0461 0.0768,-0.0461 0.0768,-0.0461 0.0768,-0.0461 0.0922,-0.0461 0.0922,-0.0307 0.10751,-0.0307 0.0922,-0.0307 0.12286,-0.0307 0.10751,-0.0307 0.12287,-0.0154 0.13822,-0.0154 0.13823,-0.0154 0.13822,-0.0154 0.0768,0 0.0768,-0.0154 c 0.0768,0 0.33789,-0.0154 0.33789,-0.38396 0,-0.24573 -0.19966,-0.24573 -0.29181,-0.24573 -0.43003,0 -1.56655,0.0461 -1.99658,0.0461 l -1.05972,0 c -0.30717,0 -0.70649,-0.0461 -1.01365,-0.0461 -0.13823,0 -0.39932,0 -0.39932,0.41468 0,0.21501 0.16894,0.21501 0.33788,0.21501 1.32082,0.0461 1.39761,0.5529 1.39761,0.95222 0,0.19966 -0.0154,0.26109 -0.0768,0.56825 l -2.50341,9.95219 -4.715,-11.73375 c -0.13822,-0.35324 -0.16894,-0.3686 -0.6604,-0.3686 l -2.68771,0 c -0.43003,0 -0.62969,0 -0.62969,0.41468 0,0.21501 0.15358,0.21501 0.56826,0.21501 0.10751,0 1.41296,0 1.41296,0.19966 0,0.0461 -0.0461,0.23037 -0.0614,0.29181 l -2.93344,11.67231 c -0.26109,1.09044 -0.79863,1.55119 -2.24231,1.61263 -0.12287,0 -0.33788,0.0307 -0.33788,0.41467 0,0.23037 0.21501,0.23037 0.2918,0.23037 0.43004,0 1.56655,-0.0461 1.99658,-0.0461 l 1.05973,0 c 0.30716,0 0.67576,0.0461 0.99829,0.0461 0.15358,0 0.38396,0 0.38396,-0.43003 0,-0.1843 -0.21502,-0.21501 -0.30717,-0.21501 -0.72184,-0.0154 -1.42832,-0.15359 -1.42832,-0.95222 0,-0.16894 0.0461,-0.3686 0.0922,-0.53754 l 2.96415,-11.79518 c 0.13823,0.21501 0.13823,0.26109 0.23038,0.46075 l 5.23718,13.06992 c 0.10751,0.26109 0.15358,0.39931 0.35324,0.39931 0.23037,0 0.24573,-0.0768 0.33788,-0.44539 z"
         id="path7889" />
      <path
         style="font-style:normal;font-variant:normal;font-weight:normal;font-stretch:normal;letter-spacing:normal;word-spacing:normal;text-anchor:start;fill:#000000;fill-opacity:1;fill-rule:evenodd;stroke:#000000;stroke-width:0;stroke-linecap:butt;stroke-linejoin:miter;stroke-miterlimit:10.43299961;stroke-dasharray:none;stroke-dashoffset:0;stroke-opacity:1"
         inkscape:connector-curvature="0"
         d="m 233.51167,-129.563 -0.0461,0.10751 -0.0614,0.0768 -0.0614,0.0922 -0.0614,0.0768 -0.0461,0.0768 -0.0614,0.0768 -0.0614,0.0614 -0.0461,0.0614 -0.0614,0.0614 -0.0614,0.0614 -0.0614,0.0461 -0.0461,0.0461 -0.0614,0.0461 -0.0614,0.0461 -0.0614,0.0461 -0.0461,0.0307 -0.0614,0.0307 -0.0614,0.0307 -0.0614,0.0307 -0.0614,0.0307 -0.0614,0.0154 -0.0461,0.0307 -0.0614,0.0154 -0.0614,0.0154 -0.0614,0.0154 -0.0614,0.0154 -0.0614,0.0154 -0.0614,0 -0.12286,0.0153 -0.12287,0.0154 c -0.1843,0.0154 -0.32252,0.0154 -0.32252,0.30717 0,0.0921 0.0768,0.16894 0.19965,0.16894 0.41468,0 0.89079,-0.0461 1.32082,-0.0461 0.49147,0 1.02901,0.0461 1.52047,0.0461 0.0922,0 0.29181,0 0.29181,-0.29181 0,-0.16894 -0.13822,-0.1843 -0.24573,-0.1843 -0.35324,-0.0307 -0.72184,-0.15358 -0.72184,-0.53754 0,-0.1843 0.0922,-0.35324 0.21501,-0.56826 l 1.16723,-1.9505 3.83958,0 -0.0461,-0.47611 -3.5017,0 3.01023,-5.05288 0.49147,5.05288 0.0461,0.47611 c 0.0307,0.32252 0.24573,2.3959 0.24573,2.54948 0,0.46075 -0.79863,0.50682 -1.10579,0.50682 -0.21502,0 -0.3686,0 -0.3686,0.30717 0,0.16894 0.1843,0.16894 0.21501,0.16894 0.62969,0 1.2901,-0.0461 1.91979,-0.0461 0.38396,0 1.33617,0.0461 1.72013,0.0461 0.0922,0 0.27645,0 0.27645,-0.30717 0,-0.16894 -0.15358,-0.16894 -0.35324,-0.16894 -0.93686,0 -0.93686,-0.10751 -0.98293,-0.5529 l -0.93686,-9.55286 c -0.0307,-0.30717 -0.0307,-0.3686 -0.29181,-0.3686 -0.24573,0 -0.30716,0.1075 -0.39931,0.26109 z"
         id="path7891" />
    </g>
    <g
       transform="matrix(1.852258,0,0,1.852258,-250.9889,740.55768)"
       id="g7978">
      <path
         style="font-style:normal;font-variant:normal;font-weight:normal;font-stretch:normal;letter-spacing:normal;word-spacing:normal;text-anchor:start;fill:#000000;fill-opacity:1;fill-rule:evenodd;stroke:#000000;stroke-width:0;stroke-linecap:butt;stroke-linejoin:miter;stroke-miterlimit:10.43299961;stroke-dasharray:none;stroke-dashoffset:0;stroke-opacity:1"
         inkscape:connector-curvature="0"
         d="m 257.79315,-132.45036 0.0461,0.12287 0.0461,0.12287 0.0614,0.1075 0.0614,0.0922 0.0614,0.10751 0.0768,0.0922 0.0768,0.0768 0.0768,0.0768 0.0768,0.0768 0.0768,0.0768 0.0922,0.0614 0.0922,0.0614 0.0768,0.0614 0.0922,0.0461 0.10751,0.0614 0.0922,0.0307 0.0922,0.0461 0.0922,0.0307 0.0922,0.0461 0.10751,0.0307 0.0922,0.0154 0.0922,0.0307 0.1075,0.0154 0.0922,0.0154 0.0922,0.0154 0.0922,0.0153 0.0922,0.0154 0.0922,0 0.0922,0.0154 0.0768,0 0.0922,0 0.0768,0 c 1.67405,0 2.65698,-1.45904 3.27132,-2.97951 0.52218,-1.27474 1.33617,-4.17746 1.33617,-5.48292 0,-1.33617 -0.69113,-1.4744 -0.89078,-1.4744 -0.52219,0 -1.01365,0.53755 -1.01365,0.96758 0,0.26109 0.15358,0.43003 0.27645,0.50682 0.1843,0.19966 0.76791,0.79863 0.76791,1.93515 0,0.75256 -0.61433,2.82593 -1.09044,3.85493 -0.61433,1.35154 -1.42832,2.22696 -2.56483,2.22696 -1.24403,0 -1.64334,-0.9215 -1.64334,-1.93515 0,-0.64505 0.19965,-1.41296 0.2918,-1.78156 l 0.9215,-3.70135 c 0.10751,-0.44539 0.30717,-1.21331 0.30717,-1.30546 0,-0.32252 -0.26109,-0.5529 -0.58362,-0.5529 -0.64505,0 -0.79863,0.5529 -0.93685,1.09044 -0.21502,0.86007 -1.13652,4.57678 -1.22867,5.06824 -0.0922,0.3686 -0.0922,0.61433 -0.0922,1.09044 0,0.53754 -0.70648,1.36689 -0.72184,1.41297 -0.24573,0.24573 -0.59897,0.61433 -1.27474,0.61433 -1.75085,0 -1.75085,-1.64334 -1.75085,-2.0273 0,-0.69112 0.15359,-1.67405 1.15188,-4.28497 0.26109,-0.69112 0.3686,-0.98293 0.3686,-1.41296 0,-0.9215 -0.66041,-1.76621 -1.73549,-1.76621 -2.0273,0 -2.84129,3.19453 -2.84129,3.37883 0,0.0768 0.0922,0.19966 0.24573,0.19966 0.19966,0 0.21502,-0.0922 0.30717,-0.39932 0.5529,-1.9505 1.41296,-2.73377 2.22695,-2.73377 0.21502,0 0.56826,0.0153 0.56826,0.72184 0,0.1075 0,0.56825 -0.3686,1.55119 -1.04436,2.74913 -1.25938,3.65527 -1.25938,4.48462 0,2.31911 1.88907,2.73378 3.01023,2.73378 0.38396,0 1.36689,0 2.25767,-1.56655 z"
         id="path7893" />
      <path
         style="font-style:normal;font-variant:normal;font-weight:normal;font-stretch:normal;letter-spacing:normal;word-spacing:normal;text-anchor:start;fill:#000000;fill-opacity:1;fill-rule:evenodd;stroke:#000000;stroke-width:0;stroke-linecap:butt;stroke-linejoin:miter;stroke-miterlimit:10.43299961;stroke-dasharray:none;stroke-dashoffset:0;stroke-opacity:1"
         inkscape:connector-curvature="0"
         d="m 266.31701,-125.93843 0,0.0614 -0.0154,0.0461 -0.0154,0.0307 0,0.0461 -0.0154,0.0307 -0.0154,0.0461 -0.0154,0.0307 0,0.0307 -0.0154,0.0307 -0.0154,0.0307 -0.0154,0.0307 -0.0154,0.0154 -0.0154,0.0307 -0.0154,0.0154 -0.0154,0.0154 -0.0153,0.0307 -0.0154,0.0154 -0.0307,0.0153 -0.0307,0.0154 -0.0154,0 -0.0307,0.0154 -0.0307,0.0154 -0.0307,0 -0.0461,0.0154 -0.0307,0 -0.0307,0 -0.0154,0.0154 -0.0154,0 -0.0307,0 -0.0154,0 -0.0307,0 -0.0307,0 -0.0154,0 -0.0307,0 -0.0307,0 -0.0307,0 -0.0307,0 -0.0154,0 -0.0461,0 c -0.16894,0 -0.33788,0 -0.33788,0.2918 0,0.12287 0.0768,0.1843 0.19966,0.1843 0.41467,0 0.84471,-0.0461 1.27474,-0.0461 0.50682,0 1.02901,0.0461 1.52047,0.0461 0.0768,0 0.27645,0 0.27645,-0.30716 0,-0.16894 -0.15358,-0.16894 -0.3686,-0.16894 -0.76791,0 -0.76791,-0.10751 -0.76791,-0.24574 0,-0.16894 0.64505,-2.67234 0.75255,-3.0563 0.19966,0.44539 0.62969,0.98293 1.41297,0.98293 l -0.0154,-0.33788 c -1.01365,0 -1.21331,-1.27474 -1.21331,-1.36689 0,-0.0307 0,-0.0614 0.0461,-0.24573 l 0.75256,-2.99487 c 0.1075,-0.41468 0.52218,-0.84471 0.78327,-1.07509 0.53754,-0.4761 0.98293,-0.56825 1.24402,-0.56825 0.61433,0 0.98293,0.52218 0.98293,1.42832 0,0.90614 -0.50682,2.67235 -0.78327,3.2406 -0.52218,1.07508 -1.25938,1.58191 -1.81228,1.58191 l 0.0154,0.33788 c 1.7662,0 3.68599,-2.24231 3.68599,-4.48462 0,-1.44369 -0.87542,-2.44198 -2.04265,-2.44198 -0.76792,0 -1.48976,0.53755 -1.99658,1.13652 -0.15359,-0.81399 -0.81399,-1.13652 -1.38225,-1.13652 -0.70648,0 -0.99829,0.59898 -1.13652,0.86007 -0.27645,0.52218 -0.4761,1.44368 -0.4761,1.48976 0,0.15358 0.15358,0.15358 0.1843,0.15358 0.15358,0 0.16894,-0.0154 0.26109,-0.35324 0.26109,-1.09044 0.56826,-1.81228 1.12115,-1.81228 0.2611,0 0.47611,0.10751 0.47611,0.69112 0,0.35324 -0.0461,0.52218 -0.10751,0.78327 z"
         id="path7895" />
    </g>
    <g
       transform="matrix(1.852258,0,0,1.852258,-231.9889,736.55762)"
       id="g7982">
      <path
         style="font-style:normal;font-variant:normal;font-weight:normal;font-stretch:normal;letter-spacing:normal;word-spacing:normal;text-anchor:start;fill:#000000;fill-opacity:1;fill-rule:evenodd;stroke:#000000;stroke-width:0;stroke-linecap:butt;stroke-linejoin:miter;stroke-miterlimit:10.43299961;stroke-dasharray:none;stroke-dashoffset:0;stroke-opacity:1"
         inkscape:connector-curvature="0"
         d="m 288.86301,-132.45036 0.0461,0.12287 0.0614,0.12287 0.0614,0.1075 0.0614,0.0922 0.0614,0.10751 0.0614,0.0922 0.0768,0.0768 0.0768,0.0768 0.0768,0.0768 0.0921,0.0768 0.0768,0.0614 0.0922,0.0614 0.0922,0.0614 0.0922,0.0461 0.0922,0.0614 0.0922,0.0307 0.0922,0.0461 0.10751,0.0307 0.0922,0.0461 0.0921,0.0307 0.10751,0.0154 0.0921,0.0307 0.0922,0.0154 0.0922,0.0154 0.10751,0.0154 0.0922,0.0153 0.0922,0.0154 0.0768,0 0.0922,0.0154 0.0922,0 0.0768,0 0.0768,0 c 1.67406,0 2.67235,-1.45904 3.28668,-2.97951 0.50683,-1.27474 1.32082,-4.17746 1.32082,-5.48292 0,-1.33617 -0.67577,-1.4744 -0.87543,-1.4744 -0.53754,0 -1.01364,0.53755 -1.01364,0.96758 0,0.26109 0.15358,0.43003 0.26109,0.50682 0.19965,0.19966 0.76791,0.79863 0.76791,1.93515 0,0.75256 -0.61433,2.82593 -1.07508,3.85493 -0.61433,1.35154 -1.42832,2.22696 -2.5802,2.22696 -1.22866,0 -1.62798,-0.9215 -1.62798,-1.93515 0,-0.64505 0.19966,-1.41296 0.27645,-1.78156 l 0.93686,-3.70135 c 0.10751,-0.44539 0.30717,-1.21331 0.30717,-1.30546 0,-0.32252 -0.26109,-0.5529 -0.59898,-0.5529 -0.64505,0 -0.78327,0.5529 -0.9215,1.09044 -0.21501,0.86007 -1.15187,4.57678 -1.24402,5.06824 -0.0768,0.3686 -0.0768,0.61433 -0.0768,1.09044 0,0.53754 -0.70648,1.36689 -0.7372,1.41297 -0.23037,0.24573 -0.58362,0.61433 -1.27474,0.61433 -1.73549,0 -1.73549,-1.64334 -1.73549,-2.0273 0,-0.69112 0.15359,-1.67405 1.13652,-4.28497 0.27645,-0.69112 0.38395,-0.98293 0.38395,-1.41296 0,-0.9215 -0.6604,-1.76621 -1.73548,-1.76621 -2.0273,0 -2.84129,3.19453 -2.84129,3.37883 0,0.0768 0.0768,0.19966 0.23037,0.19966 0.19966,0 0.23038,-0.0922 0.30717,-0.39932 0.5529,-1.9505 1.41296,-2.73377 2.22695,-2.73377 0.23038,0 0.58362,0.0153 0.58362,0.72184 0,0.1075 0,0.56825 -0.38396,1.55119 -1.029,2.74913 -1.25938,3.65527 -1.25938,4.48462 0,2.31911 1.90443,2.73378 3.02559,2.73378 0.3686,0 1.36689,0 2.24231,-1.56655 z"
         id="path7897" />
      <path
         style="font-style:normal;font-variant:normal;font-weight:normal;font-stretch:normal;letter-spacing:normal;word-spacing:normal;text-anchor:start;fill:#000000;fill-opacity:1;fill-rule:evenodd;stroke:#000000;stroke-width:0;stroke-linecap:butt;stroke-linejoin:miter;stroke-miterlimit:10.43299961;stroke-dasharray:none;stroke-dashoffset:0;stroke-opacity:1"
         inkscape:connector-curvature="0"
         d="m 298.06264,-128.70293 -0.0154,0.0307 0,0.0154 0,0.0307 -0.0154,0.0154 0,0.0461 -0.0154,0.0614 -0.0154,0.0461 0,0.0461 -0.0153,0.0461 -0.0154,0.0461 0,0.0307 -0.0154,0.0154 0,0.0307 0,0.0154 -0.0154,0.0307 0,0.0154 0,0.0154 0,0.0154 -0.0154,0.0307 0,0.0154 0,0.0154 0,0 0,0.0154 0,0.0154 0,0.0154 0,0 c 0,0.27645 0.21502,0.41467 0.44539,0.41467 0.1843,0 0.46075,-0.12286 0.56826,-0.43003 0,-0.0307 0.1843,-0.75256 0.27645,-1.13652 l 0.33788,-1.36689 c 0.0922,-0.33788 0.1843,-0.67576 0.2611,-1.029 0.0614,-0.26109 0.18429,-0.70648 0.19965,-0.76792 0.23038,-0.4761 1.04437,-1.85835 2.50341,-1.85835 0.67576,0 0.81399,0.5529 0.81399,1.05972 0,0.95222 -0.7372,2.91808 -0.98293,3.56313 -0.13823,0.35324 -0.15359,0.53754 -0.15359,0.70648 0,0.72184 0.52219,1.25938 1.24403,1.25938 1.44368,0 2.01193,-2.24231 2.01193,-2.36518 0,-0.13822 -0.13822,-0.13822 -0.1843,-0.13822 -0.15358,0 -0.15358,0.0461 -0.23037,0.26109 -0.30717,1.04436 -0.81399,1.90443 -1.56655,1.90443 -0.26109,0 -0.3686,-0.15358 -0.3686,-0.50683 0,-0.38395 0.13823,-0.75255 0.27645,-1.09044 0.29181,-0.79863 0.93686,-2.48804 0.93686,-3.36346 0,-1.01365 -0.66041,-1.62799 -1.75085,-1.62799 -1.38225,0 -2.1348,0.96758 -2.39589,1.32082 -0.0768,-0.86007 -0.70649,-1.32082 -1.41297,-1.32082 -0.69112,0 -0.98293,0.59898 -1.13651,0.86007 -0.24574,0.52218 -0.46075,1.42832 -0.46075,1.48976 0,0.15358 0.15358,0.15358 0.1843,0.15358 0.15358,0 0.16894,-0.0154 0.26109,-0.35324 0.26109,-1.09044 0.56826,-1.81228 1.12116,-1.81228 0.2918,0 0.46074,0.1843 0.46074,0.69112 0,0.32253 -0.0461,0.49147 -0.24573,1.2901 z"
         id="path7899" />
    </g>
    <path
       inkscape:connector-curvature="0"
       id="path8006"
       d="m 208.71827,502.14554 0,-212"
       style="fill:none;fill-rule:evenodd;stroke:#000000;stroke-width:2.00000024;stroke-linecap:butt;stroke-linejoin:miter;stroke-miterlimit:4;stroke-dasharray:6.00000054, 6.00000054;stroke-dashoffset:0;stroke-opacity:1" />
    <path
       inkscape:connector-curvature="0"
       id="path8010"
       d="m 336.71827,502.14554 0,-212"
       style="fill:none;fill-rule:evenodd;stroke:#000000;stroke-width:2.00000024;stroke-linecap:butt;stroke-linejoin:miter;stroke-miterlimit:4;stroke-dasharray:6.00000054, 6.00000054;stroke-dashoffset:0;stroke-opacity:1" />
    <path
       style="fill:none;fill-rule:evenodd;stroke:#000000;stroke-width:2.00000024;stroke-linecap:butt;stroke-linejoin:miter;stroke-miterlimit:4;stroke-dasharray:6.00000054, 6.00000054;stroke-dashoffset:0;stroke-opacity:1"
       d="m 264.71827,502.14554 0,-212"
       id="path8012"
       inkscape:connector-curvature="0" />
    <path
       inkscape:connector-curvature="0"
       id="path8014"
       d="m 85.718275,393.14554 c 85.999995,0 119.999995,-2 120.999995,32 1,34 15,39 15,39"
       style="fill:none;fill-rule:evenodd;stroke:#ff0000;stroke-width:3.00000024;stroke-linecap:butt;stroke-linejoin:miter;stroke-miterlimit:4;stroke-dasharray:none;stroke-opacity:1" />
    <path
       style="fill:none;fill-rule:evenodd;stroke:#ff0000;stroke-width:3.30974531;stroke-linecap:butt;stroke-linejoin:miter;stroke-miterlimit:4;stroke-dasharray:none;stroke-opacity:1"
       d="m 458.1596,377.40874 c -85.92039,0 -119.88892,-2.43657 -120.888,38.98511 -0.99907,41.42167 -14.98611,47.5131 -14.98611,47.5131"
       id="path8016"
       inkscape:connector-curvature="0" />
    <path
       sodipodi:nodetypes="csc"
       style="fill:none;fill-rule:evenodd;stroke:#0000ff;stroke-width:3.00000024;stroke-linecap:butt;stroke-linejoin:miter;stroke-miterlimit:4;stroke-dasharray:none;stroke-opacity:1"
       d="m 263.71073,539.28437 c -35.5286,-1.93595 -50.82216,-8.61497 -51.48794,-31.25157 -1,-34 -15,-39 -15,-39"
       id="path8018"
       inkscape:connector-curvature="0" />
    <path
       sodipodi:nodetypes="csc"
       inkscape:connector-curvature="0"
       id="path8020"
       d="m 262.71119,377.54284 c 50.10651,0.89564 71.0208,6.4818 71.80154,38.85101 0.99908,41.42167 14.98611,47.5131 14.98611,47.5131"
       style="fill:none;fill-rule:evenodd;stroke:#0000ff;stroke-width:3.30974531;stroke-linecap:butt;stroke-linejoin:miter;stroke-miterlimit:4;stroke-dasharray:none;stroke-opacity:1" />
    <g
       id="g8525"
       transform="translate(115.73759,688.32251)">
      <path
         id="path8429"
         d="m 98.184644,-132.46647 0.08421,0 0.105257,0 0.08421,0 0.06315,-0.0211 0.0421,0 0.0421,0 0.0421,0 0.0421,0 0.0421,-0.0211 0.0421,0 0.0421,-0.0211 0.0421,0 0.0421,-0.0211 0.0421,-0.0211 0.02105,0 0.0421,-0.0211 0.02105,-0.0211 0.0421,-0.0211 0.02105,-0.0421 0.02105,-0.0211 0.02105,-0.0211 0.02105,-0.0211 0,-0.0211 0.02105,-0.0211 0,-0.0211 0.02105,0 0,-0.0211 0,-0.0211 0.02105,-0.021 0,-0.0211 0,-0.0421 0,-0.0211 0.02105,-0.0211 0,-0.0211 0,-0.0211 0,-0.0421 0,-0.0211 c 0,-0.61049 -0.54734,-0.61049 -1.052578,-0.61049 l -16.357058,0 c -0.505237,0 -1.052578,0 -1.052578,0.61049 0,0.6105 0.547341,0.6105 1.052578,0.6105 z"
         inkscape:connector-curvature="0"
         style="font-style:normal;font-variant:normal;font-weight:normal;font-stretch:normal;letter-spacing:normal;word-spacing:normal;text-anchor:start;fill:#000000;fill-opacity:1;fill-rule:evenodd;stroke:#000000;stroke-width:0;stroke-linecap:butt;stroke-linejoin:miter;stroke-miterlimit:10.43299961;stroke-dasharray:none;stroke-dashoffset:0;stroke-opacity:1" />
      <path
         id="path8431"
         d="m 107.17366,-132.52962 0.0842,0 0.0842,0 0.0842,0 0.10525,0 0.10526,0 0.10526,-0.0211 0.12631,0 0.12631,0 0.12631,0 0.12631,-0.0211 0.12631,0 0.14736,0 0.12631,-0.0211 0.14736,0 0.29472,-0.0421 0.31577,-0.0211 0.29472,-0.0421 0.31578,-0.0632 0.31577,-0.0421 0.29472,-0.0842 0.14736,-0.0211 0.14737,-0.0421 0.14736,-0.0421 0.14736,-0.0421 0.14736,-0.0421 0.12631,-0.0632 c 2.29462,-0.86311 2.50513,-2.63144 2.50513,-3.15773 0,-1.3473 -1.13678,-2.54724 -3.13668,-2.54724 l 0,0.61049 c 1.32625,0 2.23147,0.77891 2.23147,1.93675 0,3.15773 -4.82081,3.15773 -6.10496,3.15773 l -1.26309,0 c 1.3052,-4.65239 4.16821,-5.09448 5.13658,-5.09448 l 0,-0.61049 c -3.17878,0 -7.72592,2.86301 -7.72592,8.25221 0,3.15773 1.81043,5.36814 4.54714,5.36814 4.10505,0 6.71544,-3.19983 6.71544,-3.59981 0,-0.16841 -0.18946,-0.31577 -0.29472,-0.31577 -0.10526,0 -0.12631,0.0211 -0.39998,0.29472 -1.93674,2.56829 -4.79975,3.01037 -5.95759,3.01037 -1.70518,0 -2.63144,-1.3473 -2.63144,-3.57876 0,-0.42104 0,-1.17889 0.46313,-3.11563 z"
         inkscape:connector-curvature="0"
         style="font-style:normal;font-variant:normal;font-weight:normal;font-stretch:normal;letter-spacing:normal;word-spacing:normal;text-anchor:start;fill:#000000;fill-opacity:1;fill-rule:evenodd;stroke:#000000;stroke-width:0;stroke-linecap:butt;stroke-linejoin:miter;stroke-miterlimit:10.43299961;stroke-dasharray:none;stroke-dashoffset:0;stroke-opacity:1" />
      <path
         id="path8433"
         d="m 137.82472,-142.9712 0.0632,-0.25261 0.0421,-0.10526 0.0211,-0.12631 0.0421,-0.10526 0.0421,-0.10526 0.0421,-0.10526 0.0421,-0.10525 0.0632,-0.10526 0.0421,-0.0842 0.0632,-0.10525 0.0632,-0.0842 0.0632,-0.0842 0.0631,-0.0842 0.0842,-0.0842 0.0842,-0.0632 0.0842,-0.0842 0.0842,-0.0632 0.10525,-0.0632 0.10526,-0.0631 0.10526,-0.0632 0.12631,-0.0632 0.12631,-0.0421 0.14736,-0.0421 0.14736,-0.0421 0.14736,-0.0421 0.16841,-0.0421 0.16842,-0.0211 0.16841,-0.0211 0.18946,-0.0211 0.21052,-0.0211 0.10525,0 0.10526,-0.0211 c 0.0842,0 0.44209,-0.0211 0.44209,-0.52629 0,-0.33682 -0.27367,-0.33682 -0.37893,-0.33682 -0.6105,0 -2.14726,0.0632 -2.75776,0.0632 l -1.45255,0 c -0.42103,0 -0.96838,-0.0632 -1.38941,-0.0632 -0.16841,0 -0.54734,0 -0.54734,0.56839 0,0.29472 0.25262,0.29472 0.46314,0.29472 1.81043,0.0632 1.93674,0.75786 1.93674,1.3052 0,0.27367 -0.0421,0.35788 -0.12631,0.77891 l -3.41035,13.6414 -6.46283,-16.08338 c -0.21051,-0.48419 -0.25262,-0.50524 -0.90522,-0.50524 l -3.68402,0 c -0.61049,0 -0.88416,0 -0.88416,0.56839 0,0.29472 0.21051,0.29472 0.77891,0.29472 0.16841,0 1.93674,0 1.93674,0.27367 0,0.0632 -0.0632,0.31578 -0.0842,0.39998 l -4.02085,15.99918 c -0.35787,1.49466 -1.09468,2.12621 -3.07352,2.21042 -0.14736,0 -0.46314,0.0421 -0.46314,0.56839 0,0.31577 0.31578,0.31577 0.39998,0.31577 0.6105,0 2.14726,-0.0632 2.73671,-0.0632 l 1.45255,0 c 0.42103,0 0.94732,0.0632 1.36835,0.0632 0.21052,0 0.54734,0 0.54734,-0.58944 0,-0.25262 -0.31577,-0.29472 -0.42103,-0.29472 -1.01047,-0.0211 -1.97884,-0.21052 -1.97884,-1.3052 0,-0.23157 0.0632,-0.50524 0.12631,-0.7368 l 4.084,-16.1676 c 0.16841,0.29472 0.16841,0.35788 0.29472,0.63155 l 7.19963,17.91487 c 0.14736,0.35788 0.21052,0.54734 0.46314,0.54734 0.31577,0 0.33682,-0.10525 0.46313,-0.61049 z"
         inkscape:connector-curvature="0"
         style="font-style:normal;font-variant:normal;font-weight:normal;font-stretch:normal;letter-spacing:normal;word-spacing:normal;text-anchor:start;fill:#000000;fill-opacity:1;fill-rule:evenodd;stroke:#000000;stroke-width:0;stroke-linecap:butt;stroke-linejoin:miter;stroke-miterlimit:10.43299961;stroke-dasharray:none;stroke-dashoffset:0;stroke-opacity:1" />
      <path
         id="path8435"
         d="m 142.9192,-123.4143 -0.0842,0.14736 -0.0842,0.10526 -0.0842,0.12631 -0.0632,0.10525 -0.0842,0.10526 -0.0842,0.10526 -0.0632,0.0842 -0.0842,0.0842 -0.0842,0.0842 -0.0842,0.0842 -0.0631,0.0632 -0.0842,0.0632 -0.0842,0.0632 -0.0842,0.0631 -0.0632,0.0632 -0.0842,0.0421 -0.0842,0.0421 -0.0842,0.0421 -0.0842,0.0421 -0.0632,0.0421 -0.0842,0.021 -0.0842,0.0421 -0.0842,0.0211 -0.0842,0.021 -0.0842,0.0211 -0.0842,0.0211 -0.0842,0.0211 -0.0842,0 -0.16841,0.0211 -0.16841,0.021 c -0.25262,0.0211 -0.44209,0.0211 -0.44209,0.42103 0,0.12631 0.10526,0.23157 0.27368,0.23157 0.56839,0 1.22099,-0.0632 1.81043,-0.0632 0.6947,0 1.4315,0.0632 2.0841,0.0632 0.12631,0 0.39998,0 0.39998,-0.39998 0,-0.23157 -0.18946,-0.25262 -0.33682,-0.25262 -0.48419,-0.0421 -0.98943,-0.21052 -0.98943,-0.73681 0,-0.25261 0.12631,-0.48418 0.29473,-0.7789 l 1.59991,-2.67355 5.26289,0 -0.0632,-0.6526 -4.79976,0 4.12611,-6.92596 0.67365,6.92596 0.0632,0.6526 c 0.0421,0.44208 0.33683,3.28404 0.33683,3.49456 0,0.63154 -1.09468,0.6947 -1.51571,0.6947 -0.27367,0 -0.48419,0 -0.48419,0.42103 0,0.23157 0.23157,0.23157 0.27367,0.23157 0.86311,0 1.76833,-0.0632 2.63144,-0.0632 0.52629,0 1.85254,0.0632 2.37883,0.0632 0.12631,0 0.37893,0 0.37893,-0.42103 0,-0.23157 -0.21052,-0.23157 -0.48419,-0.23157 -1.30519,0 -1.30519,-0.14736 -1.36835,-0.75786 l -1.28414,-13.09406 c -0.0421,-0.42104 -0.0421,-0.50524 -0.39998,-0.50524 -0.33683,0 -0.42103,0.14736 -0.54734,0.35787 z"
         inkscape:connector-curvature="0"
         style="font-style:normal;font-variant:normal;font-weight:normal;font-stretch:normal;letter-spacing:normal;word-spacing:normal;text-anchor:start;fill:#000000;fill-opacity:1;fill-rule:evenodd;stroke:#000000;stroke-width:0;stroke-linecap:butt;stroke-linejoin:miter;stroke-miterlimit:10.43299961;stroke-dasharray:none;stroke-dashoffset:0;stroke-opacity:1" />
    </g>
    <g
       id="g8531"
       transform="translate(100.40916,492.14632)">
      <path
         id="path8437"
         d="m 171.19144,-132.52962 0.0842,0 0.0842,0 0.10526,0 0.0842,0 0.10526,0 0.12631,-0.0211 0.10526,0 0.12631,0 0.12631,0 0.12631,-0.0211 0.14736,0 0.12631,0 0.14736,-0.0211 0.14736,0 0.29472,-0.0421 0.29472,-0.0211 0.29472,-0.0421 0.31578,-0.0632 0.31577,-0.0421 0.29472,-0.0842 0.14736,-0.0211 0.14736,-0.0421 0.14736,-0.0421 0.14737,-0.0421 0.14736,-0.0421 0.12631,-0.0632 c 2.29462,-0.86311 2.52618,-2.63144 2.52618,-3.15773 0,-1.3473 -1.15783,-2.54724 -3.15773,-2.54724 l 0,0.61049 c 1.32625,0 2.25252,0.77891 2.25252,1.93675 0,3.15773 -4.84186,3.15773 -6.10496,3.15773 l -1.28414,0 c 1.3052,-4.65239 4.16821,-5.09448 5.13658,-5.09448 l 0,-0.61049 c -3.15773,0 -7.72592,2.86301 -7.72592,8.25221 0,3.15773 1.81043,5.36814 4.56819,5.36814 4.10505,0 6.69439,-3.19983 6.69439,-3.59981 0,-0.16841 -0.16841,-0.31577 -0.29472,-0.31577 -0.0842,0 -0.12631,0.0211 -0.39998,0.29472 -1.93674,2.56829 -4.79976,3.01037 -5.93654,3.01037 -1.72623,0 -2.63144,-1.3473 -2.63144,-3.57876 0,-0.42104 0,-1.17889 0.44208,-3.11563 z"
         inkscape:connector-curvature="0"
         style="font-style:normal;font-variant:normal;font-weight:normal;font-stretch:normal;letter-spacing:normal;word-spacing:normal;text-anchor:start;fill:#000000;fill-opacity:1;fill-rule:evenodd;stroke:#000000;stroke-width:0;stroke-linecap:butt;stroke-linejoin:miter;stroke-miterlimit:10.43299961;stroke-dasharray:none;stroke-dashoffset:0;stroke-opacity:1" />
      <path
         id="path8439"
         d="m 201.8425,-142.9712 0.0632,-0.25261 0.0421,-0.10526 0.0421,-0.12631 0.0211,-0.10526 0.0421,-0.10526 0.0421,-0.10526 0.0631,-0.10525 0.0421,-0.10526 0.0421,-0.0842 0.0632,-0.10525 0.0631,-0.0842 0.0632,-0.0842 0.0842,-0.0842 0.0632,-0.0842 0.0842,-0.0632 0.0842,-0.0842 0.10526,-0.0632 0.0842,-0.0632 0.10526,-0.0631 0.12631,-0.0632 0.12631,-0.0632 0.12631,-0.0421 0.12631,-0.0421 0.14736,-0.0421 0.14736,-0.0421 0.16841,-0.0421 0.16841,-0.0211 0.16842,-0.0211 0.18946,-0.0211 0.21052,-0.0211 0.10525,0 0.10526,-0.0211 c 0.0842,0 0.44208,-0.0211 0.44208,-0.52629 0,-0.33682 -0.25261,-0.33682 -0.37892,-0.33682 -0.6105,0 -2.14726,0.0632 -2.75776,0.0632 l -1.45255,0 c -0.42104,0 -0.96838,-0.0632 -1.38941,-0.0632 -0.16841,0 -0.52629,0 -0.52629,0.56839 0,0.29472 0.23157,0.29472 0.44209,0.29472 1.81043,0.0632 1.93674,0.75786 1.93674,1.3052 0,0.27367 -0.0421,0.35788 -0.12631,0.77891 l -3.41035,13.6414 -6.46283,-16.08338 c -0.21051,-0.48419 -0.25262,-0.50524 -0.90522,-0.50524 l -3.68402,0 c -0.61049,0 -0.88416,0 -0.88416,0.56839 0,0.29472 0.21051,0.29472 0.79996,0.29472 0.14736,0 1.91569,0 1.91569,0.27367 0,0.0632 -0.0421,0.31578 -0.0842,0.39998 l -4.02085,15.99918 c -0.35787,1.49466 -1.07363,2.12621 -3.07352,2.21042 -0.14736,0 -0.46314,0.0421 -0.46314,0.56839 0,0.31577 0.31578,0.31577 0.39998,0.31577 0.6105,0 2.14726,-0.0632 2.75776,-0.0632 l 1.45255,0 c 0.42103,0 0.92627,0.0632 1.3473,0.0632 0.21052,0 0.54734,0 0.54734,-0.58944 0,-0.25262 -0.29472,-0.29472 -0.42103,-0.29472 -1.01047,-0.0211 -1.95779,-0.21052 -1.95779,-1.3052 0,-0.23157 0.0421,-0.50524 0.10525,-0.7368 l 4.08401,-16.1676 c 0.18946,0.29472 0.18946,0.35788 0.29472,0.63155 l 7.19963,17.91487 c 0.14736,0.35788 0.21052,0.54734 0.48419,0.54734 0.29472,0 0.33682,-0.10525 0.44208,-0.61049 z"
         inkscape:connector-curvature="0"
         style="font-style:normal;font-variant:normal;font-weight:normal;font-stretch:normal;letter-spacing:normal;word-spacing:normal;text-anchor:start;fill:#000000;fill-opacity:1;fill-rule:evenodd;stroke:#000000;stroke-width:0;stroke-linecap:butt;stroke-linejoin:miter;stroke-miterlimit:10.43299961;stroke-dasharray:none;stroke-dashoffset:0;stroke-opacity:1" />
      <path
         id="path8441"
         d="m 206.49489,-122.63539 -0.0211,0.0842 -0.0211,0.0632 0,0.0631 -0.0211,0.0632 -0.0211,0.0632 -0.021,0.0632 -0.0211,0.0632 -0.0211,0.0421 -0.0211,0.0421 -0.0211,0.0421 -0.0421,0.0421 -0.0211,0.0421 -0.0421,0.0421 -0.0211,0.0211 -0.0421,0.0421 -0.0421,0.021 -0.0632,0.0211 -0.0421,0.0421 -0.0632,0.021 -0.0632,0.0211 -0.0632,0 -0.0421,0.0211 -0.0421,0 -0.0211,0 -0.0421,0.0211 -0.0421,0 -0.0632,0 -0.0421,0 -0.0421,0.0211 -0.0421,0 -0.0632,0 -0.0421,0 -0.0632,0 -0.0632,0.021 -0.0421,0 -0.0632,0 -0.0632,0 -0.0632,0 -0.0842,0 -0.0632,0 -0.0631,0 -0.0842,0 -0.0842,0 c -0.33682,0 -0.56839,0 -0.56839,0.39998 0,0.25262 0.18947,0.25262 0.56839,0.25262 l 6.94702,0 -0.37893,-0.6526 -2.35778,0 c -0.29472,0 -0.33682,0 -0.46313,-0.021 -0.21052,-0.0211 -0.27367,-0.0421 -0.27367,-0.21052 0,-0.0632 0,-0.10526 0.10526,-0.48418 l 2.86301,-11.5152 c 0.18946,-0.73681 0.23157,-0.79996 1.13678,-0.79996 l 2.25252,0 c 2.042,0 3.78928,1.11573 3.78928,3.89453 0,1.03153 -0.42103,4.46293 -2.18936,6.75755 -0.6105,0.77891 -2.27357,2.37883 -4.86291,2.37883 l 0.37893,0.6526 c 4.35767,0 8.50482,-4.42083 8.50482,-9.01007 0,-2.96827 -1.78938,-5.30499 -4.92606,-5.30499 l -7.05227,0 c -0.39998,0 -0.63155,0 -0.63155,0.37893 0,0.25262 0.18947,0.25262 0.6105,0.25262 0.27367,0 0.6526,0.0211 0.90522,0.0421 0.33682,0.0421 0.46313,0.10526 0.46313,0.33682 0,0.0842 -0.0211,0.14737 -0.0842,0.39998 z"
         inkscape:connector-curvature="0"
         style="font-style:normal;font-variant:normal;font-weight:normal;font-stretch:normal;letter-spacing:normal;word-spacing:normal;text-anchor:start;fill:#000000;fill-opacity:1;fill-rule:evenodd;stroke:#000000;stroke-width:0;stroke-linecap:butt;stroke-linejoin:miter;stroke-miterlimit:10.43299961;stroke-dasharray:none;stroke-dashoffset:0;stroke-opacity:1" />
    </g>
  </g>
</svg>
