<?xml version="1.0" encoding="utf-8" standalone="no"?>
<!DOCTYPE svg PUBLIC "-//W3C//DTD SVG 1.1//EN"
  "http://www.w3.org/Graphics/SVG/1.1/DTD/svg11.dtd">
<!-- Created with matplotlib (https://matplotlib.org/) -->
<svg height="394.92pt" version="1.1" viewBox="0 0 394.92 394.92" width="394.92pt" xmlns="http://www.w3.org/2000/svg" xmlns:xlink="http://www.w3.org/1999/xlink">
 <metadata>
  <rdf:RDF xmlns:cc="http://creativecommons.org/ns#" xmlns:dc="http://purl.org/dc/elements/1.1/" xmlns:rdf="http://www.w3.org/1999/02/22-rdf-syntax-ns#">
   <cc:Work>
    <dc:type rdf:resource="http://purl.org/dc/dcmitype/StillImage"/>
    <dc:date>2021-09-09T18:29:43.511807</dc:date>
    <dc:format>image/svg+xml</dc:format>
    <dc:creator>
     <cc:Agent>
      <dc:title>Matplotlib v3.3.2, https://matplotlib.org/</dc:title>
     </cc:Agent>
    </dc:creator>
   </cc:Work>
  </rdf:RDF>
 </metadata>
 <defs>
  <style type="text/css">*{stroke-linecap:butt;stroke-linejoin:round;}</style>
 </defs>
 <g id="figure_1">
  <g id="patch_1">
   <path d="M 0 394.92 
L 394.92 394.92 
L 394.92 0 
L 0 0 
z
" style="fill:#ffffff;"/>
  </g>
  <g id="axes_1">
   <g id="line2d_1">
    <defs>
     <path d="M 0 7.5 
C 1.989023 7.5 3.896849 6.709753 5.303301 5.303301 
C 6.709753 3.896849 7.5 1.989023 7.5 0 
C 7.5 -1.989023 6.709753 -3.896849 5.303301 -5.303301 
C 3.896849 -6.709753 1.989023 -7.5 0 -7.5 
C -1.989023 -7.5 -3.896849 -6.709753 -5.303301 -5.303301 
C -6.709753 -3.896849 -7.5 -1.989023 -7.5 0 
C -7.5 1.989023 -6.709753 3.896849 -5.303301 5.303301 
C -3.896849 6.709753 -1.989023 7.5 0 7.5 
z
" id="m09ed8f3428" style="stroke:#000000;"/>
    </defs>
    <g clip-path="url(#p6d57bd11a6)">
     <use style="stroke:#000000;" x="24.496364" xlink:href="#m09ed8f3428" y="370.423636"/>
     <use style="stroke:#000000;" x="123.332727" xlink:href="#m09ed8f3428" y="370.423636"/>
     <use style="stroke:#000000;" x="222.169091" xlink:href="#m09ed8f3428" y="370.423636"/>
     <use style="stroke:#000000;" x="321.005455" xlink:href="#m09ed8f3428" y="370.423636"/>
     <use style="stroke:#000000;" x="24.496364" xlink:href="#m09ed8f3428" y="271.587273"/>
     <use style="stroke:#000000;" x="123.332727" xlink:href="#m09ed8f3428" y="271.587273"/>
     <use style="stroke:#000000;" x="222.169091" xlink:href="#m09ed8f3428" y="271.587273"/>
     <use style="stroke:#000000;" x="321.005455" xlink:href="#m09ed8f3428" y="271.587273"/>
     <use style="stroke:#000000;" x="24.496364" xlink:href="#m09ed8f3428" y="172.750909"/>
     <use style="stroke:#000000;" x="123.332727" xlink:href="#m09ed8f3428" y="172.750909"/>
     <use style="stroke:#000000;" x="222.169091" xlink:href="#m09ed8f3428" y="172.750909"/>
     <use style="stroke:#000000;" x="321.005455" xlink:href="#m09ed8f3428" y="172.750909"/>
     <use style="stroke:#000000;" x="24.496364" xlink:href="#m09ed8f3428" y="73.914545"/>
     <use style="stroke:#000000;" x="123.332727" xlink:href="#m09ed8f3428" y="73.914545"/>
     <use style="stroke:#000000;" x="222.169091" xlink:href="#m09ed8f3428" y="73.914545"/>
     <use style="stroke:#000000;" x="321.005455" xlink:href="#m09ed8f3428" y="73.914545"/>
    </g>
   </g>
   <g id="line2d_2">
    <defs>
     <path d="M 0 7.5 
C 1.989023 7.5 3.896849 6.709753 5.303301 5.303301 
C 6.709753 3.896849 7.5 1.989023 7.5 0 
C 7.5 -1.989023 6.709753 -3.896849 5.303301 -5.303301 
C 3.896849 -6.709753 1.989023 -7.5 0 -7.5 
C -1.989023 -7.5 -3.896849 -6.709753 -5.303301 -5.303301 
C -6.709753 -3.896849 -7.5 -1.989023 -7.5 0 
C -7.5 1.989023 -6.709753 3.896849 -5.303301 5.303301 
C -3.896849 6.709753 -1.989023 7.5 0 7.5 
z
" id="m862ca3edcb" style="stroke:#000000;"/>
    </defs>
    <g clip-path="url(#p6d57bd11a6)">
     <use style="fill-opacity:0;stroke:#000000;" x="73.914545" xlink:href="#m862ca3edcb" y="321.005455"/>
     <use style="fill-opacity:0;stroke:#000000;" x="172.750909" xlink:href="#m862ca3edcb" y="321.005455"/>
     <use style="fill-opacity:0;stroke:#000000;" x="271.587273" xlink:href="#m862ca3edcb" y="321.005455"/>
     <use style="fill-opacity:0;stroke:#000000;" x="370.423636" xlink:href="#m862ca3edcb" y="321.005455"/>
     <use style="fill-opacity:0;stroke:#000000;" x="73.914545" xlink:href="#m862ca3edcb" y="222.169091"/>
     <use style="fill-opacity:0;stroke:#000000;" x="172.750909" xlink:href="#m862ca3edcb" y="222.169091"/>
     <use style="fill-opacity:0;stroke:#000000;" x="271.587273" xlink:href="#m862ca3edcb" y="222.169091"/>
     <use style="fill-opacity:0;stroke:#000000;" x="370.423636" xlink:href="#m862ca3edcb" y="222.169091"/>
     <use style="fill-opacity:0;stroke:#000000;" x="73.914545" xlink:href="#m862ca3edcb" y="123.332727"/>
     <use style="fill-opacity:0;stroke:#000000;" x="172.750909" xlink:href="#m862ca3edcb" y="123.332727"/>
     <use style="fill-opacity:0;stroke:#000000;" x="271.587273" xlink:href="#m862ca3edcb" y="123.332727"/>
     <use style="fill-opacity:0;stroke:#000000;" x="370.423636" xlink:href="#m862ca3edcb" y="123.332727"/>
     <use style="fill-opacity:0;stroke:#000000;" x="73.914545" xlink:href="#m862ca3edcb" y="24.496364"/>
     <use style="fill-opacity:0;stroke:#000000;" x="172.750909" xlink:href="#m862ca3edcb" y="24.496364"/>
     <use style="fill-opacity:0;stroke:#000000;" x="271.587273" xlink:href="#m862ca3edcb" y="24.496364"/>
     <use style="fill-opacity:0;stroke:#000000;" x="370.423636" xlink:href="#m862ca3edcb" y="24.496364"/>
    </g>
   </g>
  </g>
 </g>
 <defs>
  <clipPath id="p6d57bd11a6">
   <rect height="380.52" width="380.52" x="7.2" y="7.2"/>
  </clipPath>
 </defs>
</svg>
