<?xml version="1.0" encoding="utf-8"?>
<!-- Generator: Adobe Illustrator 21.0.0, SVG Export Plug-In . SVG Version: 6.00 Build 0)  -->
<svg version="1.1" id="Layer_1" xmlns="http://www.w3.org/2000/svg" xmlns:xlink="http://www.w3.org/1999/xlink" x="0px" y="0px"
	 viewBox="0 0 566.9 135.2" style="enable-background:new 0 0 566.9 135.2;" xml:space="preserve">
<style type="text/css">
	.st0{fill:none;stroke:#000000;stroke-width:0.5;stroke-miterlimit:10;}
	.st1{fill:#ED1C24;}
	.st2{fill:none;stroke:#ED1C24;stroke-miterlimit:10;}
	.st3{fill:none;stroke:#000000;stroke-width:0.5;stroke-miterlimit:10;stroke-dasharray:2;}
	.st4{fill:none;stroke:#ED1C24;stroke-width:0.5;stroke-miterlimit:10;stroke-dasharray:2;}
</style>
<g>
	<rect x="72.9" y="0.5" class="st0" width="92.7" height="92.7"/>
	<line class="st0" x1="36.6" y1="23.7" x2="72.9" y2="0.5"/>
	<line class="st0" x1="36.6" y1="116.3" x2="72.9" y2="93.2"/>
	<line class="st0" x1="129.2" y1="116.3" x2="165.6" y2="93.2"/>
	<g>
		<path class="st1" d="M89.1,133.8c-0.6-0.7-1.1-1.6-1.5-2.6s-0.6-2-0.6-3.1c0-0.9,0.2-1.8,0.5-2.7c0.4-1,0.9-2,1.6-3h0.8
			c-0.5,0.8-0.8,1.4-0.9,1.7c-0.2,0.5-0.4,1.1-0.6,1.7c-0.2,0.7-0.3,1.5-0.3,2.2c0,1.9,0.6,3.8,1.8,5.6H89.1z"/>
		<path class="st1" d="M94.8,131.3h-1.1v-6.7c-0.3,0.2-0.6,0.5-1,0.7s-0.8,0.4-1.1,0.5v-1c0.6-0.3,1.1-0.6,1.5-1s0.8-0.8,0.9-1.1
			h0.7V131.3z"/>
		<path class="st1" d="M100.5,131.3h-1.1v-6.7c-0.3,0.2-0.6,0.5-1,0.7s-0.8,0.4-1.1,0.5v-1c0.6-0.3,1.1-0.6,1.5-1s0.8-0.8,0.9-1.1
			h0.7V131.3z"/>
		<path class="st1" d="M106.3,131.3h-1.1v-6.7c-0.3,0.2-0.6,0.5-1,0.7s-0.8,0.4-1.1,0.5v-1c0.6-0.3,1.1-0.6,1.5-1s0.8-0.8,0.9-1.1
			h0.7V131.3z"/>
		<path class="st1" d="M110,133.8h-0.8c1.2-1.9,1.8-3.8,1.8-5.6c0-0.7-0.1-1.5-0.3-2.2c-0.1-0.6-0.3-1.1-0.6-1.7
			c-0.2-0.4-0.5-0.9-0.9-1.8h0.8c0.7,1,1.3,2,1.6,3c0.3,0.9,0.5,1.7,0.5,2.7c0,1.1-0.2,2.1-0.6,3.1S110.6,133.1,110,133.8z"/>
	</g>
	<line class="st2" x1="36.6" y1="116.3" x2="72.9" y2="0.5"/>
	<line class="st2" x1="165.6" y1="93.2" x2="36.6" y2="116.3"/>
	<line class="st2" x1="72.9" y1="0.5" x2="165.6" y2="93.2"/>
	<rect x="36.6" y="23.7" class="st0" width="92.7" height="92.7"/>
	<line class="st0" x1="129.2" y1="23.7" x2="165.6" y2="0.5"/>
</g>
<g>
	<rect x="237.2" y="0.5" class="st0" width="92.7" height="92.7"/>
	<line class="st0" x1="200.9" y1="23.7" x2="237.2" y2="0.5"/>
	<line class="st0" x1="200.9" y1="116.3" x2="237.2" y2="93.2"/>
	<line class="st0" x1="293.6" y1="116.3" x2="329.9" y2="93.2"/>
	<g>
		<path class="st1" d="M253.4,133.8c-0.6-0.7-1.1-1.6-1.5-2.6s-0.6-2-0.6-3.1c0-0.9,0.2-1.8,0.5-2.7c0.4-1,0.9-2,1.6-3h0.8
			c-0.5,0.8-0.8,1.4-0.9,1.7c-0.2,0.5-0.4,1.1-0.6,1.7c-0.2,0.7-0.3,1.5-0.3,2.2c0,1.9,0.6,3.8,1.8,5.6H253.4z"/>
		<path class="st1" d="M260.7,130.3v1H255c0-0.3,0-0.5,0.1-0.7c0.1-0.4,0.4-0.8,0.7-1.1s0.8-0.8,1.4-1.3c0.9-0.8,1.6-1.4,1.9-1.8
			s0.5-0.9,0.5-1.3c0-0.4-0.1-0.8-0.4-1.1s-0.7-0.4-1.2-0.4c-0.5,0-0.9,0.2-1.2,0.5s-0.5,0.7-0.5,1.3l-1.1-0.1
			c0.1-0.8,0.4-1.4,0.8-1.8s1.1-0.6,2-0.6c0.8,0,1.5,0.2,2,0.7s0.7,1,0.7,1.7c0,0.3-0.1,0.7-0.2,1s-0.4,0.7-0.7,1s-0.9,0.9-1.6,1.5
			c-0.6,0.5-1,0.9-1.2,1.1s-0.3,0.4-0.4,0.6H260.7z"/>
		<path class="st1" d="M265.8,131.3h-1.1v-6.7c-0.3,0.2-0.6,0.5-1,0.7s-0.8,0.4-1.1,0.5v-1c0.6-0.3,1.1-0.6,1.5-1s0.8-0.8,0.9-1.1
			h0.7V131.3z"/>
		<path class="st1" d="M268.5,127.1c0-1,0.1-1.8,0.3-2.5s0.5-1.1,0.9-1.4s0.9-0.5,1.6-0.5c0.5,0,0.9,0.1,1.2,0.3s0.6,0.5,0.9,0.8
			s0.4,0.8,0.5,1.3s0.2,1.2,0.2,2c0,1-0.1,1.8-0.3,2.4s-0.5,1.1-0.9,1.4s-0.9,0.5-1.6,0.5c-0.8,0-1.5-0.3-2-0.9
			C268.7,129.9,268.5,128.7,268.5,127.1z M269.5,127.1c0,1.4,0.2,2.3,0.5,2.8s0.7,0.7,1.2,0.7s0.9-0.2,1.2-0.7s0.5-1.4,0.5-2.8
			c0-1.4-0.2-2.4-0.5-2.8s-0.7-0.7-1.2-0.7c-0.5,0-0.9,0.2-1.2,0.6C269.7,124.7,269.5,125.7,269.5,127.1z"/>
		<path class="st1" d="M276.1,133.8h-0.8c1.2-1.9,1.8-3.8,1.8-5.6c0-0.7-0.1-1.5-0.3-2.2c-0.1-0.6-0.3-1.1-0.6-1.7
			c-0.2-0.4-0.5-0.9-0.9-1.8h0.8c0.7,1,1.3,2,1.6,3c0.3,0.9,0.5,1.7,0.5,2.7c0,1.1-0.2,2.1-0.6,3.1S276.7,133.1,276.1,133.8z"/>
	</g>
	<line class="st2" x1="219.1" y1="12.1" x2="329.9" y2="0.5"/>
	<line class="st2" x1="219.1" y1="104.7" x2="329.9" y2="93.2"/>
	<line class="st2" x1="219.1" y1="12.1" x2="219.1" y2="104.7"/>
	<line class="st2" x1="329.9" y1="0.5" x2="329.9" y2="93.2"/>
	<rect x="200.9" y="23.7" class="st0" width="92.7" height="92.7"/>
	<line class="st0" x1="293.6" y1="23.7" x2="329.9" y2="0.5"/>
</g>
<g>
	<line class="st2" x1="419.7" y1="104.7" x2="494.2" y2="116.3"/>
	<line class="st2" x1="419.7" y1="12.1" x2="494.2" y2="23.7"/>
	<line class="st2" x1="419.7" y1="104.7" x2="419.7" y2="12.1"/>
	<g>
		<rect x="401.6" y="23.7" class="st0" width="92.7" height="92.7"/>
		<rect x="437.9" y="0.5" class="st0" width="92.7" height="92.7"/>
		<line class="st0" x1="401.6" y1="23.7" x2="437.9" y2="0.5"/>
		<line class="st0" x1="494.2" y1="23.7" x2="530.6" y2="0.5"/>
		<line class="st0" x1="401.6" y1="116.3" x2="437.9" y2="93.2"/>
		<line class="st0" x1="494.2" y1="116.3" x2="530.6" y2="93.2"/>
		<g>
			<path class="st1" d="M454.1,133.8c-0.6-0.7-1.1-1.6-1.5-2.6s-0.6-2-0.6-3.1c0-0.9,0.2-1.8,0.5-2.7c0.4-1,0.9-2,1.6-3h0.8
				c-0.5,0.8-0.8,1.4-0.9,1.7c-0.2,0.5-0.4,1.1-0.6,1.7c-0.2,0.7-0.3,1.5-0.3,2.2c0,1.9,0.6,3.8,1.8,5.6H454.1z"/>
			<path class="st1" d="M461.3,130.3v1h-5.7c0-0.3,0-0.5,0.1-0.7c0.1-0.4,0.4-0.8,0.7-1.1s0.8-0.8,1.4-1.3c0.9-0.8,1.6-1.4,1.9-1.8
				s0.5-0.9,0.5-1.3c0-0.4-0.1-0.8-0.4-1.1s-0.7-0.4-1.2-0.4c-0.5,0-0.9,0.2-1.2,0.5s-0.5,0.7-0.5,1.3l-1.1-0.1
				c0.1-0.8,0.4-1.4,0.8-1.8s1.1-0.6,2-0.6c0.8,0,1.5,0.2,2,0.7s0.7,1,0.7,1.7c0,0.3-0.1,0.7-0.2,1s-0.4,0.7-0.7,1s-0.9,0.9-1.6,1.5
				c-0.6,0.5-1,0.9-1.2,1.1s-0.3,0.4-0.4,0.6H461.3z"/>
			<path class="st1" d="M466.4,131.3h-1.1v-6.7c-0.3,0.2-0.6,0.5-1,0.7s-0.8,0.4-1.1,0.5v-1c0.6-0.3,1.1-0.6,1.5-1s0.8-0.8,0.9-1.1
				h0.7V131.3z"/>
			<path class="st1" d="M469.1,127.1c0-1,0.1-1.8,0.3-2.5s0.5-1.1,0.9-1.4s0.9-0.5,1.6-0.5c0.5,0,0.9,0.1,1.2,0.3s0.6,0.5,0.9,0.8
				s0.4,0.8,0.5,1.3s0.2,1.2,0.2,2c0,1-0.1,1.8-0.3,2.4s-0.5,1.1-0.9,1.4s-0.9,0.5-1.6,0.5c-0.8,0-1.5-0.3-2-0.9
				C469.4,129.9,469.1,128.7,469.1,127.1z M470.2,127.1c0,1.4,0.2,2.3,0.5,2.8s0.7,0.7,1.2,0.7s0.9-0.2,1.2-0.7s0.5-1.4,0.5-2.8
				c0-1.4-0.2-2.4-0.5-2.8s-0.7-0.7-1.2-0.7c-0.5,0-0.9,0.2-1.2,0.6C470.4,124.7,470.2,125.7,470.2,127.1z"/>
			<path class="st1" d="M476.8,133.8H476c1.2-1.9,1.8-3.8,1.8-5.6c0-0.7-0.1-1.5-0.3-2.2c-0.1-0.6-0.3-1.1-0.6-1.7
				c-0.2-0.4-0.5-0.9-0.9-1.8h0.8c0.7,1,1.3,2,1.6,3c0.3,0.9,0.5,1.7,0.5,2.7c0,1.1-0.2,2.1-0.6,3.1S477.4,133.1,476.8,133.8z"/>
		</g>
		<line class="st2" x1="461.6" y1="120.7" x2="469" y2="120.7"/>
	</g>
	<line class="st2" x1="494.2" y1="23.7" x2="494.2" y2="116.3"/>
	<line class="st3" x1="365.2" y1="93.2" x2="447.9" y2="93.2"/>
	<line class="st4" x1="365.2" y1="93.2" x2="419.7" y2="104.7"/>
</g>
<g>
</g>
<g>
</g>
<g>
</g>
<g>
</g>
<g>
</g>
<g>
</g>
</svg>
