<?xml version="1.0" encoding="utf-8" standalone="no"?>
<!DOCTYPE svg PUBLIC "-//W3C//DTD SVG 1.1//EN"
  "http://www.w3.org/Graphics/SVG/1.1/DTD/svg11.dtd">
<!-- Created with matplotlib (https://matplotlib.org/) -->
<svg height="441.31643pt" version="1.1" viewBox="0 0 582.64 441.31643" width="582.64pt" xmlns="http://www.w3.org/2000/svg" xmlns:xlink="http://www.w3.org/1999/xlink">
 <metadata>
  <rdf:RDF xmlns:cc="http://creativecommons.org/ns#" xmlns:dc="http://purl.org/dc/elements/1.1/" xmlns:rdf="http://www.w3.org/1999/02/22-rdf-syntax-ns#">
   <cc:Work>
    <dc:type rdf:resource="http://purl.org/dc/dcmitype/StillImage"/>
    <dc:date>2021-10-03T11:16:59.487703</dc:date>
    <dc:format>image/svg+xml</dc:format>
    <dc:creator>
     <cc:Agent>
      <dc:title>Matplotlib v3.3.2, https://matplotlib.org/</dc:title>
     </cc:Agent>
    </dc:creator>
   </cc:Work>
  </rdf:RDF>
 </metadata>
 <defs>
  <style type="text/css">*{stroke-linecap:butt;stroke-linejoin:round;}</style>
 </defs>
 <g id="figure_1">
  <g id="patch_1">
   <path d="M 0 441.31643 
L 582.64 441.31643 
L 582.64 0 
L 0 0 
z
" style="fill:#ffffff;"/>
  </g>
  <g id="axes_1">
   <g id="line2d_1">
    <path clip-path="url(#pf34e9ee753)" d="M 32.563636 36.621364 
L 41.703686 47.170417 
L 50.843735 58.062238 
L 59.476003 68.695837 
L 67.600491 79.044071 
L 75.72498 89.757818 
L 83.341687 100.170893 
L 90.450614 110.248798 
L 97.559541 120.714312 
L 104.160688 130.821581 
L 110.761835 141.352022 
L 116.855201 151.498018 
L 122.440786 161.206696 
L 128.026372 171.361229 
L 133.104177 181.036175 
L 138.181982 191.199679 
L 142.752007 200.83221 
L 147.322031 211.004777 
L 151.384275 220.58254 
L 155.446519 230.763468 
L 159.000983 240.268127 
L 162.555446 250.454923 
L 165.602129 259.857806 
L 168.648812 270.043834 
L 171.187715 279.296972 
L 173.726618 289.465438 
L 175.75774 298.48115 
L 177.788862 308.587817 
L 179.312203 317.185434 
L 180.835545 327.10052 
L 181.851106 334.841993 
L 182.866667 344.112273 
L 183.882228 356.495147 
L 184.390008 365.8304 
L 184.897789 382.548636 
L 539.836364 382.548636 
L 539.836364 382.548636 
" style="fill:none;stroke:#1f77b4;stroke-linecap:square;stroke-width:1.5;"/>
   </g>
   <g id="line2d_2">
    <path clip-path="url(#pf34e9ee753)" d="M 32.563636 382.548636 
L 438.280262 382.548636 
L 438.788043 373.612363 
L 439.295823 369.144227 
L 440.311384 363.072481 
L 441.326945 358.486985 
L 442.850287 352.910372 
L 444.373628 348.228229 
L 446.40475 342.83497 
L 448.435872 338.091239 
L 450.974775 332.793574 
L 453.513677 328.008079 
L 456.56036 322.769044 
L 459.607043 317.953536 
L 463.161507 312.754113 
L 467.223751 307.250261 
L 471.285995 302.122179 
L 475.85602 296.718537 
L 480.933825 291.088163 
L 486.01163 285.78485 
L 491.597215 280.268317 
L 497.690581 274.571239 
L 504.291728 268.720721 
L 511.400655 262.73924 
L 518.509582 257.042507 
L 526.12629 251.212782 
L 534.250778 245.267005 
L 539.836364 241.324419 
L 539.836364 241.324419 
" style="fill:none;stroke:#ff7f0e;stroke-linecap:square;stroke-width:1.5;"/>
   </g>
   <g id="line2d_3">
    <path clip-path="url(#pf34e9ee753)" d="M 32.563636 382.548636 
L 376.838821 382.442958 
L 377.346601 380.438762 
L 377.854382 362.074316 
L 378.362162 285.978255 
L 378.869943 161.157592 
L 379.377723 135.855083 
L 380.393284 347.37654 
L 380.901065 378.048342 
L 381.408845 382.268761 
L 381.916626 382.540176 
L 389.025553 382.548636 
L 539.836364 382.548636 
L 539.836364 382.548636 
" style="fill:none;stroke:#2ca02c;stroke-linecap:square;stroke-width:1.5;"/>
   </g>
   <g id="line2d_4">
    <path clip-path="url(#pf34e9ee753)" d="M 32.563636 382.548636 
L 224.504668 382.52246 
L 225.012449 381.899745 
L 225.520229 374.730196 
L 226.02801 336.760805 
L 226.53579 252.213448 
L 227.043571 202.224051 
L 227.551351 261.285206 
L 228.059132 342.912948 
L 228.566912 376.251768 
L 229.074693 382.062403 
L 229.582473 382.530387 
L 233.136937 382.548636 
L 539.836364 382.548636 
L 539.836364 382.548636 
" style="fill:none;stroke:#d62728;stroke-linecap:square;stroke-width:1.5;"/>
   </g>
   <g id="patch_2">
    <path d="M 560.085096 382.548636 
Q 285.201182 382.548636 9.199233 382.548636 
" style="fill:none;stroke:#000000;stroke-linecap:round;"/>
    <path d="M 553.685096 379.348636 
L 560.085096 382.548636 
L 553.685096 385.748636 
" style="fill:none;stroke:#000000;stroke-linecap:round;"/>
   </g>
   <g id="text_1">
    <!-- $E$ -->
    <g transform="translate(565.2 386.963636)scale(0.16 -0.16)">
     <defs>
      <path d="M 16.890625 72.90625 
L 62.984375 72.90625 
L 61.375 64.59375 
L 25.09375 64.59375 
L 20.90625 43.015625 
L 55.71875 43.015625 
L 54.109375 34.71875 
L 19.28125 34.71875 
L 14.203125 8.296875 
L 51.3125 8.296875 
L 49.703125 0 
L 2.6875 0 
z
" id="DejaVuSans-Oblique-69"/>
     </defs>
     <use transform="translate(0 0.09375)" xlink:href="#DejaVuSans-Oblique-69"/>
    </g>
   </g>
   <g id="patch_3">
    <path d="M 286.2 27.801865 
Q 286.2 212.263697 286.2 397.843563 
" style="fill:none;stroke:#000000;stroke-linecap:round;"/>
    <path d="M 283 34.201865 
L 286.2 27.801865 
L 289.4 34.201865 
" style="fill:none;stroke:#000000;stroke-linecap:round;"/>
   </g>
   <g id="text_2">
    <!-- $g$ -->
    <g transform="translate(281.08 19.325)scale(0.16 -0.16)">
     <defs>
      <path d="M 59.625 54.6875 
L 50.296875 6.78125 
Q 47.609375 -7.125 40.015625 -13.953125 
Q 32.421875 -20.796875 19.578125 -20.796875 
Q 14.84375 -20.796875 10.78125 -20.09375 
Q 6.734375 -19.390625 3.21875 -17.921875 
L 4.890625 -9.1875 
Q 8.203125 -11.328125 11.90625 -12.34375 
Q 15.625 -13.375 19.828125 -13.375 
Q 28.375 -13.375 33.859375 -8.703125 
Q 39.359375 -4.046875 41.109375 4.6875 
L 41.890625 8.796875 
Q 38.140625 4.5 33.15625 2.25 
Q 28.171875 0 22.40625 0 
Q 14.109375 0 9.34375 5.484375 
Q 4.59375 10.984375 4.59375 20.609375 
Q 4.59375 28.171875 7.46875 35.421875 
Q 10.359375 42.671875 15.578125 48.296875 
Q 19.046875 52 23.65625 54 
Q 28.265625 56 33.296875 56 
Q 38.8125 56 42.90625 53.4375 
Q 47.015625 50.875 49.03125 46.1875 
L 50.59375 54.6875 
z
M 46.09375 34.625 
Q 46.09375 41.265625 42.96875 44.875 
Q 39.84375 48.484375 34.078125 48.484375 
Q 30.515625 48.484375 27.296875 47.0625 
Q 24.078125 45.65625 21.78125 43.109375 
Q 18.0625 38.921875 15.984375 33.234375 
Q 13.921875 27.546875 13.921875 21.484375 
Q 13.921875 14.75 17.0625 11.125 
Q 20.21875 7.515625 26.125 7.515625 
Q 34.671875 7.515625 40.375 15.25 
Q 46.09375 23 46.09375 34.625 
z
" id="DejaVuSans-Oblique-103"/>
     </defs>
     <use xlink:href="#DejaVuSans-Oblique-103"/>
    </g>
   </g>
   <g id="text_3">
    <!-- $E_V$ -->
    <g transform="translate(175.625455 430.78893)scale(0.16 -0.16)">
     <defs>
      <path d="M 20.609375 0 
L 7.8125 72.90625 
L 17.484375 72.90625 
L 28.078125 10.203125 
L 63.484375 72.90625 
L 74.21875 72.90625 
L 32.078125 0 
z
" id="DejaVuSans-Oblique-86"/>
     </defs>
     <use transform="translate(0 0.09375)" xlink:href="#DejaVuSans-Oblique-69"/>
     <use transform="translate(63.183594 -16.3125)scale(0.7)" xlink:href="#DejaVuSans-Oblique-86"/>
    </g>
   </g>
   <g id="text_4">
    <!-- $E_C$ -->
    <g transform="translate(429.181818 430.78893)scale(0.16 -0.16)">
     <defs>
      <path d="M 69.484375 67.28125 
L 67.484375 56.890625 
Q 62.796875 61.625 57.546875 63.921875 
Q 52.296875 66.21875 46.1875 66.21875 
Q 37.84375 66.21875 31.515625 62.203125 
Q 25.203125 58.203125 20.609375 50 
Q 17.671875 44.734375 16.125 38.84375 
Q 14.59375 32.953125 14.59375 27 
Q 14.59375 17.046875 19.75 11.8125 
Q 24.90625 6.59375 34.71875 6.59375 
Q 41.5 6.59375 47.75 8.765625 
Q 54 10.9375 59.90625 15.28125 
L 57.625 3.609375 
Q 51.8125 1.125 45.875 -0.140625 
Q 39.9375 -1.421875 33.984375 -1.421875 
Q 19.96875 -1.421875 12.078125 6.1875 
Q 4.203125 13.8125 4.203125 27.390625 
Q 4.203125 36.078125 7.203125 44.46875 
Q 10.203125 52.875 15.828125 59.8125 
Q 21.78125 67.1875 29.421875 70.703125 
Q 37.0625 74.21875 47.21875 74.21875 
Q 53.46875 74.21875 59.0625 72.484375 
Q 64.65625 70.75 69.484375 67.28125 
z
" id="DejaVuSans-Oblique-67"/>
     </defs>
     <use transform="translate(0 0.09375)" xlink:href="#DejaVuSans-Oblique-69"/>
     <use transform="translate(63.183594 -16.3125)scale(0.7)" xlink:href="#DejaVuSans-Oblique-67"/>
    </g>
   </g>
   <g id="text_5">
    <!-- $E_A$ -->
    <g transform="translate(217.898182 430.78893)scale(0.16 -0.16)">
     <defs>
      <path d="M 36.8125 72.90625 
L 48 72.90625 
L 61.53125 0 
L 51.21875 0 
L 48.1875 18.703125 
L 15.375 18.703125 
L 5.078125 0 
L -5.328125 0 
z
M 40.375 63.1875 
L 19.921875 26.90625 
L 46.6875 26.90625 
z
" id="DejaVuSans-Oblique-65"/>
     </defs>
     <use transform="translate(0 0.09375)" xlink:href="#DejaVuSans-Oblique-69"/>
     <use transform="translate(63.183594 -16.3125)scale(0.7)" xlink:href="#DejaVuSans-Oblique-65"/>
    </g>
   </g>
   <g id="text_6">
    <!-- $E_D$ -->
    <g transform="translate(369.6 430.78893)scale(0.16 -0.16)">
     <defs>
      <path d="M 16.890625 72.90625 
L 38.09375 72.90625 
Q 54.984375 72.90625 63.59375 65.75 
Q 72.21875 58.59375 72.21875 44.484375 
Q 72.21875 35.15625 68.9375 26.53125 
Q 65.671875 17.921875 59.90625 12.015625 
Q 54.109375 5.953125 45.171875 2.96875 
Q 36.234375 0 24.03125 0 
L 2.6875 0 
z
M 25.203125 64.796875 
L 14.203125 8.109375 
L 27.09375 8.109375 
Q 43.65625 8.109375 52.734375 17.625 
Q 61.8125 27.15625 61.8125 44.484375 
Q 61.8125 54.984375 55.953125 59.890625 
Q 50.09375 64.796875 37.59375 64.796875 
z
" id="DejaVuSans-Oblique-68"/>
     </defs>
     <use transform="translate(0 0.09375)" xlink:href="#DejaVuSans-Oblique-69"/>
     <use transform="translate(63.183594 -16.3125)scale(0.7)" xlink:href="#DejaVuSans-Oblique-68"/>
    </g>
   </g>
   <g id="legend_1">
    <g id="patch_4">
     <path d="M 483.44 126.195 
L 554 126.195 
Q 557.2 126.195 557.2 122.995 
L 557.2 30.525 
Q 557.2 27.325 554 27.325 
L 483.44 27.325 
Q 480.24 27.325 480.24 30.525 
L 480.24 122.995 
Q 480.24 126.195 483.44 126.195 
z
" style="fill:#ffffff;opacity:0.8;stroke:#cccccc;stroke-linejoin:miter;"/>
    </g>
    <g id="line2d_5">
     <path d="M 486.64 40.2825 
L 518.64 40.2825 
" style="fill:none;stroke:#1f77b4;stroke-linecap:square;stroke-width:1.5;"/>
    </g>
    <g id="line2d_6"/>
    <g id="text_7">
     <!-- $g_h$ -->
     <g transform="translate(531.44 45.8825)scale(0.16 -0.16)">
      <defs>
       <path d="M 55.71875 33.015625 
L 49.3125 0 
L 40.28125 0 
L 46.6875 32.671875 
Q 47.125 34.96875 47.359375 36.71875 
Q 47.609375 38.484375 47.609375 39.5 
Q 47.609375 43.609375 45.015625 45.890625 
Q 42.4375 48.1875 37.796875 48.1875 
Q 30.5625 48.1875 25.265625 43.296875 
Q 19.96875 38.421875 18.40625 30.328125 
L 12.5 0 
L 3.515625 0 
L 18.3125 75.984375 
L 27.296875 75.984375 
L 21.484375 46.09375 
Q 24.90625 50.6875 30.21875 53.34375 
Q 35.546875 56 41.40625 56 
Q 48.640625 56 52.609375 52.09375 
Q 56.59375 48.1875 56.59375 41.109375 
Q 56.59375 39.359375 56.375 37.359375 
Q 56.15625 35.359375 55.71875 33.015625 
z
" id="DejaVuSans-Oblique-104"/>
      </defs>
      <use xlink:href="#DejaVuSans-Oblique-103"/>
      <use transform="translate(63.476562 -16.40625)scale(0.7)" xlink:href="#DejaVuSans-Oblique-104"/>
     </g>
    </g>
    <g id="line2d_7">
     <path d="M 486.64 63.8 
L 518.64 63.8 
" style="fill:none;stroke:#ff7f0e;stroke-linecap:square;stroke-width:1.5;"/>
    </g>
    <g id="line2d_8"/>
    <g id="text_8">
     <!-- $g_e$ -->
     <g transform="translate(531.44 69.4)scale(0.16 -0.16)">
      <defs>
       <path d="M 48.09375 32.234375 
Q 48.25 33.015625 48.3125 33.84375 
Q 48.390625 34.671875 48.390625 35.5 
Q 48.390625 41.453125 44.890625 44.921875 
Q 41.40625 48.390625 35.40625 48.390625 
Q 28.71875 48.390625 23.578125 44.15625 
Q 18.453125 39.9375 15.828125 32.171875 
z
M 55.90625 25.203125 
L 14.109375 25.203125 
Q 13.8125 23.34375 13.71875 22.265625 
Q 13.625 21.1875 13.625 20.40625 
Q 13.625 13.625 17.796875 9.90625 
Q 21.96875 6.203125 29.59375 6.203125 
Q 35.453125 6.203125 40.671875 7.515625 
Q 45.90625 8.84375 50.390625 11.375 
L 48.6875 2.484375 
Q 43.84375 0.53125 38.6875 -0.4375 
Q 33.546875 -1.421875 28.21875 -1.421875 
Q 16.84375 -1.421875 10.71875 4.015625 
Q 4.59375 9.46875 4.59375 19.484375 
Q 4.59375 28.03125 7.640625 35.375 
Q 10.6875 42.71875 16.609375 48.484375 
Q 20.40625 52.09375 25.65625 54.046875 
Q 30.90625 56 36.8125 56 
Q 46.09375 56 51.578125 50.4375 
Q 57.078125 44.875 57.078125 35.5 
Q 57.078125 33.25 56.78125 30.6875 
Q 56.5 28.125 55.90625 25.203125 
z
" id="DejaVuSans-Oblique-101"/>
      </defs>
      <use xlink:href="#DejaVuSans-Oblique-103"/>
      <use transform="translate(63.476562 -16.40625)scale(0.7)" xlink:href="#DejaVuSans-Oblique-101"/>
     </g>
    </g>
    <g id="line2d_9">
     <path d="M 486.64 87.3175 
L 518.64 87.3175 
" style="fill:none;stroke:#2ca02c;stroke-linecap:square;stroke-width:1.5;"/>
    </g>
    <g id="line2d_10"/>
    <g id="text_9">
     <!-- $g_D$ -->
     <g transform="translate(531.44 92.9175)scale(0.16 -0.16)">
      <use xlink:href="#DejaVuSans-Oblique-103"/>
      <use transform="translate(63.476562 -16.40625)scale(0.7)" xlink:href="#DejaVuSans-Oblique-68"/>
     </g>
    </g>
    <g id="line2d_11">
     <path d="M 486.64 110.835 
L 518.64 110.835 
" style="fill:none;stroke:#d62728;stroke-linecap:square;stroke-width:1.5;"/>
    </g>
    <g id="line2d_12"/>
    <g id="text_10">
     <!-- $g_A$ -->
     <g transform="translate(531.44 116.435)scale(0.16 -0.16)">
      <use xlink:href="#DejaVuSans-Oblique-103"/>
      <use transform="translate(63.476562 -16.40625)scale(0.7)" xlink:href="#DejaVuSans-Oblique-65"/>
     </g>
    </g>
   </g>
  </g>
 </g>
 <defs>
  <clipPath id="pf34e9ee753">
   <rect height="380.52" width="558" x="7.2" y="19.325"/>
  </clipPath>
 </defs>
</svg>
