<?xml version="1.0" encoding="utf-8" standalone="no"?>
<!DOCTYPE svg PUBLIC "-//W3C//DTD SVG 1.1//EN"
  "http://www.w3.org/Graphics/SVG/1.1/DTD/svg11.dtd">
<!-- Created with matplotlib (https://matplotlib.org/) -->
<svg height="504pt" version="1.1" viewBox="0 0 720 504" width="720pt" xmlns="http://www.w3.org/2000/svg" xmlns:xlink="http://www.w3.org/1999/xlink">
 <metadata>
  <rdf:RDF xmlns:cc="http://creativecommons.org/ns#" xmlns:dc="http://purl.org/dc/elements/1.1/" xmlns:rdf="http://www.w3.org/1999/02/22-rdf-syntax-ns#">
   <cc:Work>
    <dc:type rdf:resource="http://purl.org/dc/dcmitype/StillImage"/>
    <dc:date>2021-08-11T17:16:14.667431</dc:date>
    <dc:format>image/svg+xml</dc:format>
    <dc:creator>
     <cc:Agent>
      <dc:title>Matplotlib v3.3.2, https://matplotlib.org/</dc:title>
     </cc:Agent>
    </dc:creator>
   </cc:Work>
  </rdf:RDF>
 </metadata>
 <defs>
  <style type="text/css">*{stroke-linecap:butt;stroke-linejoin:round;}</style>
 </defs>
 <g id="figure_1">
  <g id="patch_1">
   <path d="M 0 504 
L 720 504 
L 720 0 
L 0 0 
z
" style="fill:#ffffff;"/>
  </g>
  <g id="axes_1">
   <g id="patch_2">
    <path d="M 90 441 
L 648 441 
L 648 60.48 
L 90 60.48 
z
" style="fill:#ffffff;"/>
   </g>
   <g id="matplotlib.axis_1">
    <g id="xtick_1">
     <g id="line2d_1">
      <defs>
       <path d="M 0 0 
L 0 10 
" id="mf6d13b1e5c" style="stroke:#000000;stroke-width:1.5;"/>
      </defs>
      <g>
       <use style="stroke:#000000;stroke-width:1.5;" x="90" xlink:href="#mf6d13b1e5c" y="441"/>
      </g>
     </g>
     <g id="text_1">
      <!-- $0$ -->
      <g transform="translate(84.88 466.6575)scale(0.16 -0.16)">
       <defs>
        <path d="M 31.78125 66.40625 
Q 24.171875 66.40625 20.328125 58.90625 
Q 16.5 51.421875 16.5 36.375 
Q 16.5 21.390625 20.328125 13.890625 
Q 24.171875 6.390625 31.78125 6.390625 
Q 39.453125 6.390625 43.28125 13.890625 
Q 47.125 21.390625 47.125 36.375 
Q 47.125 51.421875 43.28125 58.90625 
Q 39.453125 66.40625 31.78125 66.40625 
z
M 31.78125 74.21875 
Q 44.046875 74.21875 50.515625 64.515625 
Q 56.984375 54.828125 56.984375 36.375 
Q 56.984375 17.96875 50.515625 8.265625 
Q 44.046875 -1.421875 31.78125 -1.421875 
Q 19.53125 -1.421875 13.0625 8.265625 
Q 6.59375 17.96875 6.59375 36.375 
Q 6.59375 54.828125 13.0625 64.515625 
Q 19.53125 74.21875 31.78125 74.21875 
z
" id="DejaVuSans-48"/>
       </defs>
       <use transform="translate(0 0.78125)" xlink:href="#DejaVuSans-48"/>
      </g>
     </g>
    </g>
    <g id="text_2">
     <!-- $\hbar \omega$ -->
     <g transform="translate(356.68 486.1425)scale(0.16 -0.16)">
      <defs>
       <path d="M 56.78125 33.015625 
L 50.390625 0 
L 41.40625 0 
L 47.75 32.71875 
Q 48.34375 35.796875 48.34375 38.28125 
Q 48.34375 42 46.96875 44.34375 
Q 44.734375 48.1875 38.671875 48.1875 
Q 31.390625 48.1875 26.265625 43.5625 
Q 21.1875 38.921875 19.625 30.90625 
L 13.625 0 
L 4.59375 0 
L 16.65625 62.015625 
L 10.546875 62.015625 
L 12.109375 70.015625 
L 18.21875 70.015625 
L 19.34375 75.984375 
L 28.375 75.984375 
L 27.25 70.015625 
L 44.4375 70.015625 
L 42.875 62.015625 
L 25.6875 62.015625 
L 22.609375 46.1875 
Q 26.765625 51.125 31.640625 53.5625 
Q 36.421875 56 42.1875 56 
Q 51.5625 56 55.28125 50.203125 
Q 57.625 46.484375 57.625 40.71875 
Q 57.625 37.203125 56.78125 33.015625 
z
" id="DejaVuSans-Oblique-295"/>
       <path d="M 21.390625 -1.421875 
Q 1.125 -1.421875 6.78125 27.59375 
Q 8.984375 39.0625 19.625 54.6875 
L 29.296875 54.6875 
Q 19.234375 39.0625 17 27.34375 
Q 12.796875 6.203125 23.734375 6.203125 
Q 33.84375 6.203125 38.71875 32.46875 
L 47.015625 32.46875 
Q 41.703125 6.0625 51.8125 6.203125 
Q 62.703125 6.296875 66.796875 27.34375 
Q 69.046875 39.0625 65.140625 54.6875 
L 74.8125 54.6875 
Q 79.296875 39.0625 77.09375 27.59375 
Q 71.53125 -1.46875 51.21875 -1.421875 
Q 37.9375 -1.375 39.109375 13.1875 
Q 34.28125 -1.421875 21.390625 -1.421875 
z
" id="DejaVuSans-Oblique-969"/>
      </defs>
      <use transform="translate(0 0.015625)" xlink:href="#DejaVuSans-Oblique-295"/>
      <use transform="translate(69.482422 0.015625)" xlink:href="#DejaVuSans-Oblique-969"/>
     </g>
    </g>
   </g>
   <g id="matplotlib.axis_2">
    <g id="ytick_1">
     <g id="line2d_2">
      <defs>
       <path d="M 0 0 
L -10 0 
" id="mf1d5c65bc1" style="stroke:#000000;stroke-width:1.5;"/>
      </defs>
      <g>
       <use style="stroke:#000000;stroke-width:1.5;" x="90" xlink:href="#mf1d5c65bc1" y="441"/>
      </g>
     </g>
     <g id="text_3">
      <!-- $0$ -->
      <g transform="translate(66.26 447.07875)scale(0.16 -0.16)">
       <use transform="translate(0 0.78125)" xlink:href="#DejaVuSans-48"/>
      </g>
     </g>
    </g>
    <g id="ytick_2">
     <g id="line2d_3">
      <g>
       <use style="stroke:#000000;stroke-width:1.5;" x="90" xlink:href="#mf1d5c65bc1" y="314.16"/>
      </g>
     </g>
     <g id="text_4">
      <!-- $1$ -->
      <g transform="translate(66.26 320.23875)scale(0.16 -0.16)">
       <defs>
        <path d="M 12.40625 8.296875 
L 28.515625 8.296875 
L 28.515625 63.921875 
L 10.984375 60.40625 
L 10.984375 69.390625 
L 28.421875 72.90625 
L 38.28125 72.90625 
L 38.28125 8.296875 
L 54.390625 8.296875 
L 54.390625 0 
L 12.40625 0 
z
" id="DejaVuSans-49"/>
       </defs>
       <use transform="translate(0 0.09375)" xlink:href="#DejaVuSans-49"/>
      </g>
     </g>
    </g>
    <g id="ytick_3">
     <g id="line2d_4">
      <g>
       <use style="stroke:#000000;stroke-width:1.5;" x="90" xlink:href="#mf1d5c65bc1" y="187.32"/>
      </g>
     </g>
     <g id="text_5">
      <!-- $2$ -->
      <g transform="translate(66.26 193.39875)scale(0.16 -0.16)">
       <defs>
        <path d="M 19.1875 8.296875 
L 53.609375 8.296875 
L 53.609375 0 
L 7.328125 0 
L 7.328125 8.296875 
Q 12.9375 14.109375 22.625 23.890625 
Q 32.328125 33.6875 34.8125 36.53125 
Q 39.546875 41.84375 41.421875 45.53125 
Q 43.3125 49.21875 43.3125 52.78125 
Q 43.3125 58.59375 39.234375 62.25 
Q 35.15625 65.921875 28.609375 65.921875 
Q 23.96875 65.921875 18.8125 64.3125 
Q 13.671875 62.703125 7.8125 59.421875 
L 7.8125 69.390625 
Q 13.765625 71.78125 18.9375 73 
Q 24.125 74.21875 28.421875 74.21875 
Q 39.75 74.21875 46.484375 68.546875 
Q 53.21875 62.890625 53.21875 53.421875 
Q 53.21875 48.921875 51.53125 44.890625 
Q 49.859375 40.875 45.40625 35.40625 
Q 44.1875 33.984375 37.640625 27.21875 
Q 31.109375 20.453125 19.1875 8.296875 
z
" id="DejaVuSans-50"/>
       </defs>
       <use transform="translate(0 0.78125)" xlink:href="#DejaVuSans-50"/>
      </g>
     </g>
    </g>
    <g id="text_6">
     <!-- $n_\mathrm{B}$ -->
     <g transform="translate(58.9325 259.94)rotate(-90)scale(0.16 -0.16)">
      <defs>
       <path d="M 55.71875 33.015625 
L 49.3125 0 
L 40.28125 0 
L 46.6875 32.671875 
Q 47.125 34.96875 47.359375 36.71875 
Q 47.609375 38.484375 47.609375 39.5 
Q 47.609375 43.609375 45.015625 45.890625 
Q 42.4375 48.1875 37.796875 48.1875 
Q 30.5625 48.1875 25.34375 43.375 
Q 20.125 38.578125 18.5 30.328125 
L 12.5 0 
L 3.515625 0 
L 14.109375 54.6875 
L 23.09375 54.6875 
L 21.296875 46.09375 
Q 25.046875 50.828125 30.3125 53.40625 
Q 35.59375 56 41.40625 56 
Q 48.640625 56 52.609375 52.09375 
Q 56.59375 48.1875 56.59375 41.109375 
Q 56.59375 39.359375 56.375 37.359375 
Q 56.15625 35.359375 55.71875 33.015625 
z
" id="DejaVuSans-Oblique-110"/>
       <path d="M 19.671875 34.8125 
L 19.671875 8.109375 
L 35.5 8.109375 
Q 43.453125 8.109375 47.28125 11.40625 
Q 51.125 14.703125 51.125 21.484375 
Q 51.125 28.328125 47.28125 31.5625 
Q 43.453125 34.8125 35.5 34.8125 
z
M 19.671875 64.796875 
L 19.671875 42.828125 
L 34.28125 42.828125 
Q 41.5 42.828125 45.03125 45.53125 
Q 48.578125 48.25 48.578125 53.8125 
Q 48.578125 59.328125 45.03125 62.0625 
Q 41.5 64.796875 34.28125 64.796875 
z
M 9.8125 72.90625 
L 35.015625 72.90625 
Q 46.296875 72.90625 52.390625 68.21875 
Q 58.5 63.53125 58.5 54.890625 
Q 58.5 48.1875 55.375 44.234375 
Q 52.25 40.28125 46.1875 39.3125 
Q 53.46875 37.75 57.5 32.78125 
Q 61.53125 27.828125 61.53125 20.40625 
Q 61.53125 10.640625 54.890625 5.3125 
Q 48.25 0 35.984375 0 
L 9.8125 0 
z
" id="DejaVuSans-66"/>
      </defs>
      <use xlink:href="#DejaVuSans-Oblique-110"/>
      <use transform="translate(63.378906 -16.40625)scale(0.7)" xlink:href="#DejaVuSans-66"/>
     </g>
    </g>
   </g>
   <g id="line2d_5">
    <path clip-path="url(#p65853cb4f8)" d="M 137.560768 -1 
L 141.62449 44.492987 
L 152.632653 124.191059 
L 163.640816 179.876963 
L 174.64898 220.919369 
L 185.657143 252.37448 
L 196.665306 277.211324 
L 207.673469 297.288013 
L 218.681633 313.826911 
L 229.689796 327.665133 
L 240.697959 339.395246 
L 251.706122 349.448514 
L 262.714286 358.146291 
L 273.722449 365.732956 
L 284.730612 372.397662 
L 295.738776 378.289113 
L 306.746939 383.52583 
L 317.755102 388.20345 
L 328.763265 392.399993 
L 339.771429 396.179747 
L 350.779592 399.596165 
L 361.787755 402.694055 
L 372.795918 405.511264 
L 383.804082 408.07998 
L 394.812245 410.427753 
L 405.820408 412.578301 
L 416.828571 414.552156 
L 427.836735 416.367181 
L 438.844898 418.038989 
L 449.853061 419.581288 
L 460.861224 421.006164 
L 471.869388 422.32431 
L 482.877551 423.545223 
L 493.885714 424.677366 
L 504.893878 425.728305 
L 515.902041 426.704823 
L 526.910204 427.613017 
L 537.918367 428.458385 
L 548.926531 429.245894 
L 559.934694 429.980045 
L 570.942857 430.664922 
L 581.95102 431.304241 
L 592.959184 431.901389 
L 603.967347 432.459459 
L 614.97551 432.981281 
L 625.983673 433.469446 
L 636.991837 433.926333 
L 648 434.35413 
" style="fill:none;stroke:#1f77b4;stroke-linecap:square;stroke-width:1.5;"/>
   </g>
   <g id="line2d_6">
    <path clip-path="url(#p65853cb4f8)" d="M 184.029529 -1 
L 185.657143 8.438324 
L 196.665306 59.033217 
L 207.673469 100.103927 
L 218.681633 134.094808 
L 229.689796 162.679719 
L 240.697959 187.04344 
L 251.706122 208.048142 
L 262.714286 226.336195 
L 273.722449 242.39602 
L 284.730612 256.605602 
L 295.738776 269.262032 
L 306.746939 280.602054 
L 317.755102 290.816644 
L 328.763265 300.061564 
L 339.771429 308.46512 
L 350.779592 316.133958 
L 361.787755 323.15745 
L 372.795918 329.611055 
L 383.804082 335.558928 
L 394.812245 341.055957 
L 405.820408 346.149383 
L 416.828571 350.880083 
L 427.836735 355.28361 
L 438.844898 359.391033 
L 449.853061 363.229619 
L 460.861224 366.823402 
L 471.869388 370.193647 
L 482.877551 373.359237 
L 493.885714 376.336998 
L 504.893878 379.141973 
L 515.902041 381.787651 
L 526.910204 384.286163 
L 537.918367 386.64845 
L 548.926531 388.884405 
L 559.934694 391.002993 
L 570.942857 393.012363 
L 581.95102 394.919933 
L 592.959184 396.732475 
L 603.967347 398.45618 
L 614.97551 400.096722 
L 625.983673 401.659309 
L 636.991837 403.148733 
L 648 404.569406 
" style="fill:none;stroke:#ff7f0e;stroke-linecap:square;stroke-width:1.5;"/>
   </g>
   <g id="patch_3">
    <path d="M 90 441 
L 90 60.48 
" style="fill:none;stroke:#000000;stroke-linecap:square;stroke-linejoin:miter;stroke-width:2.5;"/>
   </g>
   <g id="patch_4">
    <path d="M 648 441 
L 648 60.48 
" style="fill:none;stroke:#000000;stroke-linecap:square;stroke-linejoin:miter;stroke-width:2.5;"/>
   </g>
   <g id="patch_5">
    <path d="M 90 441 
L 648 441 
" style="fill:none;stroke:#000000;stroke-linecap:square;stroke-linejoin:miter;stroke-width:2.5;"/>
   </g>
   <g id="patch_6">
    <path d="M 90 60.48 
L 648 60.48 
" style="fill:none;stroke:#000000;stroke-linecap:square;stroke-linejoin:miter;stroke-width:2.5;"/>
   </g>
   <g id="legend_1">
    <g id="patch_7">
     <path d="M 520.96 120.25 
L 636.8 120.25 
Q 640 120.25 640 117.05 
L 640 71.68 
Q 640 68.48 636.8 68.48 
L 520.96 68.48 
Q 517.76 68.48 517.76 71.68 
L 517.76 117.05 
Q 517.76 120.25 520.96 120.25 
z
" style="fill:#ffffff;opacity:0.8;stroke:#cccccc;stroke-linejoin:miter;"/>
    </g>
    <g id="line2d_7">
     <path d="M 524.16 81.4375 
L 556.16 81.4375 
" style="fill:none;stroke:#1f77b4;stroke-linecap:square;stroke-width:1.5;"/>
    </g>
    <g id="line2d_8"/>
    <g id="text_7">
     <!-- $T_1$ -->
     <g transform="translate(568.96 87.0375)scale(0.16 -0.16)">
      <defs>
       <path d="M 5.90625 72.90625 
L 67.578125 72.90625 
L 66.015625 64.59375 
L 39.984375 64.59375 
L 27.484375 0 
L 17.578125 0 
L 30.078125 64.59375 
L 4.296875 64.59375 
z
" id="DejaVuSans-Oblique-84"/>
      </defs>
      <use transform="translate(0 0.09375)" xlink:href="#DejaVuSans-Oblique-84"/>
      <use transform="translate(61.083984 -16.3125)scale(0.7)" xlink:href="#DejaVuSans-49"/>
     </g>
    </g>
    <g id="line2d_9">
     <path d="M 524.16 104.9225 
L 556.16 104.9225 
" style="fill:none;stroke:#ff7f0e;stroke-linecap:square;stroke-width:1.5;"/>
    </g>
    <g id="line2d_10"/>
    <g id="text_8">
     <!-- $T_2 = 2T_1$ -->
     <g transform="translate(568.96 110.5225)scale(0.16 -0.16)">
      <defs>
       <path d="M 10.59375 45.40625 
L 73.1875 45.40625 
L 73.1875 37.203125 
L 10.59375 37.203125 
z
M 10.59375 25.484375 
L 73.1875 25.484375 
L 73.1875 17.1875 
L 10.59375 17.1875 
z
" id="DejaVuSans-61"/>
      </defs>
      <use transform="translate(0 0.78125)" xlink:href="#DejaVuSans-Oblique-84"/>
      <use transform="translate(61.083984 -15.625)scale(0.7)" xlink:href="#DejaVuSans-50"/>
      <use transform="translate(127.836914 0.78125)" xlink:href="#DejaVuSans-61"/>
      <use transform="translate(231.108398 0.78125)" xlink:href="#DejaVuSans-50"/>
      <use transform="translate(294.731445 0.78125)" xlink:href="#DejaVuSans-Oblique-84"/>
      <use transform="translate(355.81543 -15.625)scale(0.7)" xlink:href="#DejaVuSans-49"/>
     </g>
    </g>
   </g>
  </g>
 </g>
 <defs>
  <clipPath id="p65853cb4f8">
   <rect height="380.52" width="558" x="90" y="60.48"/>
  </clipPath>
 </defs>
</svg>
