<?xml version="1.0" encoding="utf-8" standalone="no"?>
<!DOCTYPE svg PUBLIC "-//W3C//DTD SVG 1.1//EN"
  "http://www.w3.org/Graphics/SVG/1.1/DTD/svg11.dtd">
<!-- Created with matplotlib (https://matplotlib.org/) -->
<svg height="360pt" version="1.1" viewBox="0 0 360 360" width="360pt" xmlns="http://www.w3.org/2000/svg" xmlns:xlink="http://www.w3.org/1999/xlink">
 <metadata>
  <rdf:RDF xmlns:cc="http://creativecommons.org/ns#" xmlns:dc="http://purl.org/dc/elements/1.1/" xmlns:rdf="http://www.w3.org/1999/02/22-rdf-syntax-ns#">
   <cc:Work>
    <dc:type rdf:resource="http://purl.org/dc/dcmitype/StillImage"/>
    <dc:date>2021-10-27T11:39:53.723234</dc:date>
    <dc:format>image/svg+xml</dc:format>
    <dc:creator>
     <cc:Agent>
      <dc:title>Matplotlib v3.3.2, https://matplotlib.org/</dc:title>
     </cc:Agent>
    </dc:creator>
   </cc:Work>
  </rdf:RDF>
 </metadata>
 <defs>
  <style type="text/css">*{stroke-linecap:butt;stroke-linejoin:round;}</style>
 </defs>
 <g id="figure_1">
  <g id="patch_1">
   <path d="M 0 360 
L 360 360 
L 360 0 
L 0 0 
z
" style="fill:#ffffff;"/>
  </g>
  <g id="axes_1">
   <g id="patch_2">
    <path d="M 45 315 
L 324 315 
L 324 43.2 
L 45 43.2 
z
" style="fill:#ffffff;"/>
   </g>
   <g id="matplotlib.axis_1">
    <g id="xtick_1">
     <g id="line2d_1">
      <defs>
       <path d="M 0 0 
L 0 10 
" id="m11e71becd2" style="stroke:#000000;stroke-width:2.5;"/>
      </defs>
      <g>
       <use style="stroke:#000000;stroke-width:2.5;" x="45" xlink:href="#m11e71becd2" y="315"/>
      </g>
     </g>
     <g id="text_1">
      <!-- −40 -->
      <g transform="translate(28.11625 340.6575)scale(0.16 -0.16)">
       <defs>
        <path d="M 10.59375 35.5 
L 73.1875 35.5 
L 73.1875 27.203125 
L 10.59375 27.203125 
z
" id="DejaVuSans-8722"/>
        <path d="M 37.796875 64.3125 
L 12.890625 25.390625 
L 37.796875 25.390625 
z
M 35.203125 72.90625 
L 47.609375 72.90625 
L 47.609375 25.390625 
L 58.015625 25.390625 
L 58.015625 17.1875 
L 47.609375 17.1875 
L 47.609375 0 
L 37.796875 0 
L 37.796875 17.1875 
L 4.890625 17.1875 
L 4.890625 26.703125 
z
" id="DejaVuSans-52"/>
        <path d="M 31.78125 66.40625 
Q 24.171875 66.40625 20.328125 58.90625 
Q 16.5 51.421875 16.5 36.375 
Q 16.5 21.390625 20.328125 13.890625 
Q 24.171875 6.390625 31.78125 6.390625 
Q 39.453125 6.390625 43.28125 13.890625 
Q 47.125 21.390625 47.125 36.375 
Q 47.125 51.421875 43.28125 58.90625 
Q 39.453125 66.40625 31.78125 66.40625 
z
M 31.78125 74.21875 
Q 44.046875 74.21875 50.515625 64.515625 
Q 56.984375 54.828125 56.984375 36.375 
Q 56.984375 17.96875 50.515625 8.265625 
Q 44.046875 -1.421875 31.78125 -1.421875 
Q 19.53125 -1.421875 13.0625 8.265625 
Q 6.59375 17.96875 6.59375 36.375 
Q 6.59375 54.828125 13.0625 64.515625 
Q 19.53125 74.21875 31.78125 74.21875 
z
" id="DejaVuSans-48"/>
       </defs>
       <use xlink:href="#DejaVuSans-8722"/>
       <use x="83.789062" xlink:href="#DejaVuSans-52"/>
       <use x="147.412109" xlink:href="#DejaVuSans-48"/>
      </g>
     </g>
    </g>
    <g id="xtick_2">
     <g id="line2d_2">
      <g>
       <use style="stroke:#000000;stroke-width:2.5;" x="114.75" xlink:href="#m11e71becd2" y="315"/>
      </g>
     </g>
     <g id="text_2">
      <!-- −20 -->
      <g transform="translate(97.86625 340.6575)scale(0.16 -0.16)">
       <defs>
        <path d="M 19.1875 8.296875 
L 53.609375 8.296875 
L 53.609375 0 
L 7.328125 0 
L 7.328125 8.296875 
Q 12.9375 14.109375 22.625 23.890625 
Q 32.328125 33.6875 34.8125 36.53125 
Q 39.546875 41.84375 41.421875 45.53125 
Q 43.3125 49.21875 43.3125 52.78125 
Q 43.3125 58.59375 39.234375 62.25 
Q 35.15625 65.921875 28.609375 65.921875 
Q 23.96875 65.921875 18.8125 64.3125 
Q 13.671875 62.703125 7.8125 59.421875 
L 7.8125 69.390625 
Q 13.765625 71.78125 18.9375 73 
Q 24.125 74.21875 28.421875 74.21875 
Q 39.75 74.21875 46.484375 68.546875 
Q 53.21875 62.890625 53.21875 53.421875 
Q 53.21875 48.921875 51.53125 44.890625 
Q 49.859375 40.875 45.40625 35.40625 
Q 44.1875 33.984375 37.640625 27.21875 
Q 31.109375 20.453125 19.1875 8.296875 
z
" id="DejaVuSans-50"/>
       </defs>
       <use xlink:href="#DejaVuSans-8722"/>
       <use x="83.789062" xlink:href="#DejaVuSans-50"/>
       <use x="147.412109" xlink:href="#DejaVuSans-48"/>
      </g>
     </g>
    </g>
    <g id="xtick_3">
     <g id="line2d_3">
      <g>
       <use style="stroke:#000000;stroke-width:2.5;" x="184.5" xlink:href="#m11e71becd2" y="315"/>
      </g>
     </g>
     <g id="text_3">
      <!-- 0 -->
      <g transform="translate(179.41 340.6575)scale(0.16 -0.16)">
       <use xlink:href="#DejaVuSans-48"/>
      </g>
     </g>
    </g>
    <g id="xtick_4">
     <g id="line2d_4">
      <g>
       <use style="stroke:#000000;stroke-width:2.5;" x="254.25" xlink:href="#m11e71becd2" y="315"/>
      </g>
     </g>
     <g id="text_4">
      <!-- 20 -->
      <g transform="translate(244.07 340.6575)scale(0.16 -0.16)">
       <use xlink:href="#DejaVuSans-50"/>
       <use x="63.623047" xlink:href="#DejaVuSans-48"/>
      </g>
     </g>
    </g>
    <g id="xtick_5">
     <g id="line2d_5">
      <g>
       <use style="stroke:#000000;stroke-width:2.5;" x="324" xlink:href="#m11e71becd2" y="315"/>
      </g>
     </g>
     <g id="text_5">
      <!-- 40 -->
      <g transform="translate(313.82 340.6575)scale(0.16 -0.16)">
       <use xlink:href="#DejaVuSans-52"/>
       <use x="63.623047" xlink:href="#DejaVuSans-48"/>
      </g>
     </g>
    </g>
    <g id="text_6">
     <!-- $\mathbf{b_1}$ -->
     <g transform="translate(174.58 360.1425)scale(0.16 -0.16)">
      <defs>
       <path d="M 37.5 11.28125 
Q 43.109375 11.28125 46.0625 15.375 
Q 49.03125 19.484375 49.03125 27.296875 
Q 49.03125 35.109375 46.0625 39.203125 
Q 43.109375 43.3125 37.5 43.3125 
Q 31.890625 43.3125 28.875 39.1875 
Q 25.875 35.0625 25.875 27.296875 
Q 25.875 19.53125 28.875 15.40625 
Q 31.890625 11.28125 37.5 11.28125 
z
M 25.875 46.6875 
Q 29.5 51.46875 33.890625 53.734375 
Q 38.28125 56 44 56 
Q 54.109375 56 60.59375 47.96875 
Q 67.09375 39.9375 67.09375 27.296875 
Q 67.09375 14.65625 60.59375 6.609375 
Q 54.109375 -1.421875 44 -1.421875 
Q 38.28125 -1.421875 33.890625 0.84375 
Q 29.5 3.125 25.875 7.90625 
L 25.875 0 
L 8.40625 0 
L 8.40625 75.984375 
L 25.875 75.984375 
z
" id="DejaVuSans-Bold-98"/>
       <path d="M 11.71875 12.984375 
L 28.328125 12.984375 
L 28.328125 60.109375 
L 11.28125 56.59375 
L 11.28125 69.390625 
L 28.21875 72.90625 
L 46.09375 72.90625 
L 46.09375 12.984375 
L 62.703125 12.984375 
L 62.703125 0 
L 11.71875 0 
z
" id="DejaVuSans-Bold-49"/>
      </defs>
      <use transform="translate(0 0.015625)" xlink:href="#DejaVuSans-Bold-98"/>
      <use transform="translate(72.539062 -16.390625)scale(0.7)" xlink:href="#DejaVuSans-Bold-49"/>
     </g>
    </g>
   </g>
   <g id="matplotlib.axis_2">
    <g id="ytick_1">
     <g id="line2d_6">
      <defs>
       <path d="M 0 0 
L -10 0 
" id="me896c4efb3" style="stroke:#000000;stroke-width:2.5;"/>
      </defs>
      <g>
       <use style="stroke:#000000;stroke-width:2.5;" x="45" xlink:href="#me896c4efb3" y="315"/>
      </g>
     </g>
     <g id="text_7">
      <!-- −40 -->
      <g transform="translate(-2.2675 321.07875)scale(0.16 -0.16)">
       <use xlink:href="#DejaVuSans-8722"/>
       <use x="83.789062" xlink:href="#DejaVuSans-52"/>
       <use x="147.412109" xlink:href="#DejaVuSans-48"/>
      </g>
     </g>
    </g>
    <g id="ytick_2">
     <g id="line2d_7">
      <g>
       <use style="stroke:#000000;stroke-width:2.5;" x="45" xlink:href="#me896c4efb3" y="247.05"/>
      </g>
     </g>
     <g id="text_8">
      <!-- −20 -->
      <g transform="translate(-2.2675 253.12875)scale(0.16 -0.16)">
       <use xlink:href="#DejaVuSans-8722"/>
       <use x="83.789062" xlink:href="#DejaVuSans-50"/>
       <use x="147.412109" xlink:href="#DejaVuSans-48"/>
      </g>
     </g>
    </g>
    <g id="ytick_3">
     <g id="line2d_8">
      <g>
       <use style="stroke:#000000;stroke-width:2.5;" x="45" xlink:href="#me896c4efb3" y="179.1"/>
      </g>
     </g>
     <g id="text_9">
      <!-- 0 -->
      <g transform="translate(21.32 185.17875)scale(0.16 -0.16)">
       <use xlink:href="#DejaVuSans-48"/>
      </g>
     </g>
    </g>
    <g id="ytick_4">
     <g id="line2d_9">
      <g>
       <use style="stroke:#000000;stroke-width:2.5;" x="45" xlink:href="#me896c4efb3" y="111.15"/>
      </g>
     </g>
     <g id="text_10">
      <!-- 20 -->
      <g transform="translate(11.14 117.22875)scale(0.16 -0.16)">
       <use xlink:href="#DejaVuSans-50"/>
       <use x="63.623047" xlink:href="#DejaVuSans-48"/>
      </g>
     </g>
    </g>
    <g id="ytick_5">
     <g id="line2d_10">
      <g>
       <use style="stroke:#000000;stroke-width:2.5;" x="45" xlink:href="#me896c4efb3" y="43.2"/>
      </g>
     </g>
     <g id="text_11">
      <!-- 40 -->
      <g transform="translate(11.14 49.27875)scale(0.16 -0.16)">
       <use xlink:href="#DejaVuSans-52"/>
       <use x="63.623047" xlink:href="#DejaVuSans-48"/>
      </g>
     </g>
    </g>
    <g id="text_12">
     <!-- $\mathbf{b_2}$ -->
     <g transform="translate(-9.595 189.02)rotate(-90)scale(0.16 -0.16)">
      <defs>
       <path d="M 28.8125 13.8125 
L 60.890625 13.8125 
L 60.890625 0 
L 7.90625 0 
L 7.90625 13.8125 
L 34.515625 37.3125 
Q 38.09375 40.53125 39.796875 43.609375 
Q 41.5 46.6875 41.5 50 
Q 41.5 55.125 38.0625 58.25 
Q 34.625 61.375 28.90625 61.375 
Q 24.515625 61.375 19.28125 59.5 
Q 14.0625 57.625 8.109375 53.90625 
L 8.109375 69.921875 
Q 14.453125 72.015625 20.65625 73.109375 
Q 26.859375 74.21875 32.8125 74.21875 
Q 45.90625 74.21875 53.15625 68.453125 
Q 60.40625 62.703125 60.40625 52.390625 
Q 60.40625 46.4375 57.328125 41.28125 
Q 54.25 36.140625 44.390625 27.484375 
z
" id="DejaVuSans-Bold-50"/>
      </defs>
      <use transform="translate(0 0.015625)" xlink:href="#DejaVuSans-Bold-98"/>
      <use transform="translate(72.539062 -16.390625)scale(0.7)" xlink:href="#DejaVuSans-Bold-50"/>
     </g>
    </g>
   </g>
   <g id="line2d_11">
    <defs>
     <path d="M 0 5 
C 1.326016 5 2.597899 4.473168 3.535534 3.535534 
C 4.473168 2.597899 5 1.326016 5 0 
C 5 -1.326016 4.473168 -2.597899 3.535534 -3.535534 
C 2.597899 -4.473168 1.326016 -5 0 -5 
C -1.326016 -5 -2.597899 -4.473168 -3.535534 -3.535534 
C -4.473168 -2.597899 -5 -1.326016 -5 0 
C -5 1.326016 -4.473168 2.597899 -3.535534 3.535534 
C -2.597899 4.473168 -1.326016 5 0 5 
z
" id="m43aad053cb" style="stroke:#000000;"/>
    </defs>
    <g clip-path="url(#pb7f909039e)">
     <use style="stroke:#000000;" x="44.3025" xlink:href="#m43aad053cb" y="366.642"/>
     <use style="stroke:#000000;" x="91.035" xlink:href="#m43aad053cb" y="366.642"/>
     <use style="stroke:#000000;" x="137.7675" xlink:href="#m43aad053cb" y="366.642"/>
     <use style="stroke:#000000;" x="184.5" xlink:href="#m43aad053cb" y="366.642"/>
     <use style="stroke:#000000;" x="231.2325" xlink:href="#m43aad053cb" y="366.642"/>
     <use style="stroke:#000000;" x="277.965" xlink:href="#m43aad053cb" y="366.642"/>
     <use style="stroke:#000000;" x="324.6975" xlink:href="#m43aad053cb" y="366.642"/>
     <use style="stroke:#000000;" x="44.3025" xlink:href="#m43aad053cb" y="304.128"/>
     <use style="stroke:#000000;" x="91.035" xlink:href="#m43aad053cb" y="304.128"/>
     <use style="stroke:#000000;" x="137.7675" xlink:href="#m43aad053cb" y="304.128"/>
     <use style="stroke:#000000;" x="184.5" xlink:href="#m43aad053cb" y="304.128"/>
     <use style="stroke:#000000;" x="231.2325" xlink:href="#m43aad053cb" y="304.128"/>
     <use style="stroke:#000000;" x="277.965" xlink:href="#m43aad053cb" y="304.128"/>
     <use style="stroke:#000000;" x="324.6975" xlink:href="#m43aad053cb" y="304.128"/>
     <use style="stroke:#000000;" x="44.3025" xlink:href="#m43aad053cb" y="241.614"/>
     <use style="stroke:#000000;" x="91.035" xlink:href="#m43aad053cb" y="241.614"/>
     <use style="stroke:#000000;" x="137.7675" xlink:href="#m43aad053cb" y="241.614"/>
     <use style="stroke:#000000;" x="184.5" xlink:href="#m43aad053cb" y="241.614"/>
     <use style="stroke:#000000;" x="231.2325" xlink:href="#m43aad053cb" y="241.614"/>
     <use style="stroke:#000000;" x="277.965" xlink:href="#m43aad053cb" y="241.614"/>
     <use style="stroke:#000000;" x="324.6975" xlink:href="#m43aad053cb" y="241.614"/>
     <use style="stroke:#000000;" x="44.3025" xlink:href="#m43aad053cb" y="179.1"/>
     <use style="stroke:#000000;" x="91.035" xlink:href="#m43aad053cb" y="179.1"/>
     <use style="stroke:#000000;" x="137.7675" xlink:href="#m43aad053cb" y="179.1"/>
     <use style="stroke:#000000;" x="184.5" xlink:href="#m43aad053cb" y="179.1"/>
     <use style="stroke:#000000;" x="231.2325" xlink:href="#m43aad053cb" y="179.1"/>
     <use style="stroke:#000000;" x="277.965" xlink:href="#m43aad053cb" y="179.1"/>
     <use style="stroke:#000000;" x="324.6975" xlink:href="#m43aad053cb" y="179.1"/>
     <use style="stroke:#000000;" x="44.3025" xlink:href="#m43aad053cb" y="116.586"/>
     <use style="stroke:#000000;" x="91.035" xlink:href="#m43aad053cb" y="116.586"/>
     <use style="stroke:#000000;" x="137.7675" xlink:href="#m43aad053cb" y="116.586"/>
     <use style="stroke:#000000;" x="184.5" xlink:href="#m43aad053cb" y="116.586"/>
     <use style="stroke:#000000;" x="231.2325" xlink:href="#m43aad053cb" y="116.586"/>
     <use style="stroke:#000000;" x="277.965" xlink:href="#m43aad053cb" y="116.586"/>
     <use style="stroke:#000000;" x="324.6975" xlink:href="#m43aad053cb" y="116.586"/>
     <use style="stroke:#000000;" x="44.3025" xlink:href="#m43aad053cb" y="54.072"/>
     <use style="stroke:#000000;" x="91.035" xlink:href="#m43aad053cb" y="54.072"/>
     <use style="stroke:#000000;" x="137.7675" xlink:href="#m43aad053cb" y="54.072"/>
     <use style="stroke:#000000;" x="184.5" xlink:href="#m43aad053cb" y="54.072"/>
     <use style="stroke:#000000;" x="231.2325" xlink:href="#m43aad053cb" y="54.072"/>
     <use style="stroke:#000000;" x="277.965" xlink:href="#m43aad053cb" y="54.072"/>
     <use style="stroke:#000000;" x="324.6975" xlink:href="#m43aad053cb" y="54.072"/>
     <use style="stroke:#000000;" x="77.682216" xlink:href="#m43aad053cb" y="-1"/>
    </g>
   </g>
   <g id="patch_3">
    <path d="M 45 315 
L 45 43.2 
" style="fill:none;stroke:#000000;stroke-linecap:square;stroke-linejoin:miter;stroke-width:2.5;"/>
   </g>
   <g id="patch_4">
    <path d="M 324 315 
L 324 43.2 
" style="fill:none;stroke:#000000;stroke-linecap:square;stroke-linejoin:miter;stroke-width:2.5;"/>
   </g>
   <g id="patch_5">
    <path d="M 45 315 
L 324 315 
" style="fill:none;stroke:#000000;stroke-linecap:square;stroke-linejoin:miter;stroke-width:2.5;"/>
   </g>
   <g id="patch_6">
    <path d="M 45 43.2 
L 324 43.2 
" style="fill:none;stroke:#000000;stroke-linecap:square;stroke-linejoin:miter;stroke-width:2.5;"/>
   </g>
  </g>
 </g>
 <defs>
  <clipPath id="pb7f909039e">
   <rect height="271.8" width="279" x="45" y="43.2"/>
  </clipPath>
 </defs>
</svg>
