<?xml version="1.0" encoding="utf-8" standalone="no"?>
<!DOCTYPE svg PUBLIC "-//W3C//DTD SVG 1.1//EN"
  "http://www.w3.org/Graphics/SVG/1.1/DTD/svg11.dtd">
<!-- Created with matplotlib (https://matplotlib.org/) -->
<svg height="394.92pt" version="1.1" viewBox="0 0 394.92 394.92" width="394.92pt" xmlns="http://www.w3.org/2000/svg" xmlns:xlink="http://www.w3.org/1999/xlink">
 <metadata>
  <rdf:RDF xmlns:cc="http://creativecommons.org/ns#" xmlns:dc="http://purl.org/dc/elements/1.1/" xmlns:rdf="http://www.w3.org/1999/02/22-rdf-syntax-ns#">
   <cc:Work>
    <dc:type rdf:resource="http://purl.org/dc/dcmitype/StillImage"/>
    <dc:date>2021-11-03T16:02:56.604905</dc:date>
    <dc:format>image/svg+xml</dc:format>
    <dc:creator>
     <cc:Agent>
      <dc:title>Matplotlib v3.3.2, https://matplotlib.org/</dc:title>
     </cc:Agent>
    </dc:creator>
   </cc:Work>
  </rdf:RDF>
 </metadata>
 <defs>
  <style type="text/css">*{stroke-linecap:butt;stroke-linejoin:round;}</style>
 </defs>
 <g id="figure_1">
  <g id="patch_1">
   <path d="M 0 394.92 
L 394.92 394.92 
L 394.92 0 
L 0 0 
z
" style="fill:#ffffff;"/>
  </g>
  <g id="axes_1">
   <g id="line2d_1">
    <defs>
     <path d="M 0 7.5 
C 1.989023 7.5 3.896849 6.709753 5.303301 5.303301 
C 6.709753 3.896849 7.5 1.989023 7.5 0 
C 7.5 -1.989023 6.709753 -3.896849 5.303301 -5.303301 
C 3.896849 -6.709753 1.989023 -7.5 0 -7.5 
C -1.989023 -7.5 -3.896849 -6.709753 -5.303301 -5.303301 
C -6.709753 -3.896849 -7.5 -1.989023 -7.5 0 
C -7.5 1.989023 -6.709753 3.896849 -5.303301 5.303301 
C -3.896849 6.709753 -1.989023 7.5 0 7.5 
z
" id="ma4fd91bcd0" style="stroke:#000000;"/>
    </defs>
    <g clip-path="url(#p8fc04737f2)">
     <use style="stroke:#000000;" x="-1" xlink:href="#ma4fd91bcd0" y="46.892823"/>
     <use style="stroke:#000000;" x="7.2" xlink:href="#ma4fd91bcd0" y="32.690007"/>
     <use style="stroke:#000000;" x="26.650934" xlink:href="#ma4fd91bcd0" y="-1"/>
     <use style="stroke:#000000;" x="36.02229" xlink:href="#ma4fd91bcd0" y="-1"/>
     <use style="stroke:#000000;" x="-1" xlink:href="#ma4fd91bcd0" y="95.18673"/>
     <use style="stroke:#000000;" x="-1" xlink:href="#ma4fd91bcd0" y="211.662817"/>
     <use style="stroke:#000000;" x="7.2" xlink:href="#ma4fd91bcd0" y="197.46"/>
     <use style="stroke:#000000;" x="54.765" xlink:href="#ma4fd91bcd0" y="115.075003"/>
     <use style="stroke:#000000;" x="102.33" xlink:href="#ma4fd91bcd0" y="32.690007"/>
     <use style="stroke:#000000;" x="121.780934" xlink:href="#ma4fd91bcd0" y="-1"/>
     <use style="stroke:#000000;" x="131.15229" xlink:href="#ma4fd91bcd0" y="-1"/>
     <use style="stroke:#000000;" x="-1" xlink:href="#ma4fd91bcd0" y="342.34172"/>
     <use style="stroke:#000000;" x="-1" xlink:href="#ma4fd91bcd0" y="376.43281"/>
     <use style="stroke:#000000;" x="7.2" xlink:href="#ma4fd91bcd0" y="362.229993"/>
     <use style="stroke:#000000;" x="54.765" xlink:href="#ma4fd91bcd0" y="279.844997"/>
     <use style="stroke:#000000;" x="102.33" xlink:href="#ma4fd91bcd0" y="197.46"/>
     <use style="stroke:#000000;" x="149.895" xlink:href="#ma4fd91bcd0" y="115.075003"/>
     <use style="stroke:#000000;" x="197.46" xlink:href="#ma4fd91bcd0" y="32.690007"/>
     <use style="stroke:#000000;" x="216.910934" xlink:href="#ma4fd91bcd0" y="-1"/>
     <use style="stroke:#000000;" x="226.28229" xlink:href="#ma4fd91bcd0" y="-1"/>
     <use style="stroke:#000000;" x="54.765" xlink:href="#ma4fd91bcd0" y="444.61499"/>
     <use style="stroke:#000000;" x="102.33" xlink:href="#ma4fd91bcd0" y="362.229993"/>
     <use style="stroke:#000000;" x="149.895" xlink:href="#ma4fd91bcd0" y="279.844997"/>
     <use style="stroke:#000000;" x="197.46" xlink:href="#ma4fd91bcd0" y="197.46"/>
     <use style="stroke:#000000;" x="245.025" xlink:href="#ma4fd91bcd0" y="115.075003"/>
     <use style="stroke:#000000;" x="292.59" xlink:href="#ma4fd91bcd0" y="32.690007"/>
     <use style="stroke:#000000;" x="312.040934" xlink:href="#ma4fd91bcd0" y="-1"/>
     <use style="stroke:#000000;" x="321.41229" xlink:href="#ma4fd91bcd0" y="-1"/>
     <use style="stroke:#000000;" x="149.895" xlink:href="#ma4fd91bcd0" y="444.61499"/>
     <use style="stroke:#000000;" x="197.46" xlink:href="#ma4fd91bcd0" y="362.229993"/>
     <use style="stroke:#000000;" x="245.025" xlink:href="#ma4fd91bcd0" y="279.844997"/>
     <use style="stroke:#000000;" x="292.59" xlink:href="#ma4fd91bcd0" y="197.46"/>
     <use style="stroke:#000000;" x="340.155" xlink:href="#ma4fd91bcd0" y="115.075003"/>
     <use style="stroke:#000000;" x="387.72" xlink:href="#ma4fd91bcd0" y="32.690007"/>
     <use style="stroke:#000000;" x="407.170934" xlink:href="#ma4fd91bcd0" y="-1"/>
     <use style="stroke:#000000;" x="416.54229" xlink:href="#ma4fd91bcd0" y="-1"/>
     <use style="stroke:#000000;" x="245.025" xlink:href="#ma4fd91bcd0" y="444.61499"/>
     <use style="stroke:#000000;" x="292.59" xlink:href="#ma4fd91bcd0" y="362.229993"/>
     <use style="stroke:#000000;" x="340.155" xlink:href="#ma4fd91bcd0" y="279.844997"/>
     <use style="stroke:#000000;" x="387.72" xlink:href="#ma4fd91bcd0" y="197.46"/>
     <use style="stroke:#000000;" x="435.285" xlink:href="#ma4fd91bcd0" y="115.075003"/>
     <use style="stroke:#000000;" x="482.85" xlink:href="#ma4fd91bcd0" y="32.690007"/>
     <use style="stroke:#000000;" x="502.300934" xlink:href="#ma4fd91bcd0" y="-1"/>
     <use style="stroke:#000000;" x="511.67229" xlink:href="#ma4fd91bcd0" y="-1"/>
     <use style="stroke:#000000;" x="340.155" xlink:href="#ma4fd91bcd0" y="444.61499"/>
     <use style="stroke:#000000;" x="387.72" xlink:href="#ma4fd91bcd0" y="362.229993"/>
     <use style="stroke:#000000;" x="435.285" xlink:href="#ma4fd91bcd0" y="279.844997"/>
     <use style="stroke:#000000;" x="482.85" xlink:href="#ma4fd91bcd0" y="197.46"/>
     <use style="stroke:#000000;" x="530.415" xlink:href="#ma4fd91bcd0" y="115.075003"/>
     <use style="stroke:#000000;" x="577.98" xlink:href="#ma4fd91bcd0" y="32.690007"/>
     <use style="stroke:#000000;" x="597.430934" xlink:href="#ma4fd91bcd0" y="-1"/>
    </g>
   </g>
  </g>
 </g>
 <defs>
  <clipPath id="p8fc04737f2">
   <rect height="380.52" width="380.52" x="7.2" y="7.2"/>
  </clipPath>
 </defs>
</svg>
