<?xml version="1.0" encoding="utf-8"?>
<!-- Generator: Adobe Illustrator 27.2.0, SVG Export Plug-In . SVG Version: 6.00 Build 0)  -->
<svg version="1.1" id="Layer_1" xmlns="http://www.w3.org/2000/svg" xmlns:xlink="http://www.w3.org/1999/xlink" x="0px" y="0px"
	 viewBox="0 0 3047.33 759.33" style="enable-background:new 0 0 3047.33 759.33;" xml:space="preserve">
<style type="text/css">
	.st0{fill:#FFFFFF;}
	.st1{fill:#FFFFFF;stroke:#000000;stroke-width:10;stroke-miterlimit:10;}
	.st2{fill:none;stroke:#000000;stroke-width:20;stroke-miterlimit:10;}
	.st3{fill:none;stroke:#000000;stroke-width:10;stroke-miterlimit:10;}
	.st4{fill:#FFFFFF;stroke:#000000;stroke-width:5;stroke-miterlimit:10;}
	.st5{fill:none;stroke:#000000;stroke-width:4;stroke-miterlimit:10;}
	.st6{font-family:'BellMT';}
	.st7{font-size:100px;}
	.st8{font-family:'GillSansMT';}
	.st9{font-size:80px;}
</style>
<rect class="st0" width="3047.33" height="759.33"/>
<path class="st1" d="M208.42,483.56h-150c-13.75,0-25-11.25-25-25v-150c0-13.75,11.25-25,25-25h150c13.75,0,25,11.25,25,25v150
	C233.42,472.31,222.17,483.56,208.42,483.56z"/>
<line class="st2" x1="233.42" y1="383.56" x2="682.55" y2="383.56"/>
<line class="st3" x1="979.66" y1="333.56" x2="1362.03" y2="383.56"/>
<g>
	<rect x="671.14" y="283.56" class="st1" width="200" height="200"/>
	<g>
		<path class="st4" d="M964.66,383.56h-70c-8.25,0-15-6.75-15-15v-70c0-8.25,6.75-15,15-15h70c8.25,0,15,6.75,15,15v70
			C979.66,376.81,972.91,383.56,964.66,383.56z"/>
		<g>
			<g>
				<line class="st5" x1="929.66" y1="301.06" x2="929.66" y2="370.41"/>
				<g>
					<polygon points="913.3,314.31 916.23,317.04 929.65,302.6 943.08,317.04 946.01,314.31 929.65,296.72 					"/>
				</g>
			</g>
		</g>
	</g>
	<g>
		<path class="st4" d="M964.66,483.56h-70c-8.25,0-15-6.75-15-15v-70c0-8.25,6.75-15,15-15h70c8.25,0,15,6.75,15,15v70
			C979.66,476.81,972.91,483.56,964.66,483.56z"/>
		<g>
			<g>
				<line class="st5" x1="929.66" y1="466.07" x2="929.66" y2="396.72"/>
				<g>
					<polygon points="946.01,452.81 943.08,450.09 929.66,464.53 916.23,450.09 913.3,452.81 929.66,470.41 					"/>
				</g>
			</g>
		</g>
	</g>
	<text transform="matrix(1 0 0 1 739.3812 415.5645)" class="st6 st7">Z</text>
</g>
<rect x="1362.03" y="283.56" class="st1" width="200" height="200"/>
<g>
	<path class="st4" d="M1655.54,383.56h-70c-8.25,0-15-6.75-15-15v-70c0-8.25,6.75-15,15-15h70c8.25,0,15,6.75,15,15v70
		C1670.54,376.81,1663.79,383.56,1655.54,383.56z"/>
	<g>
		<g>
			<line class="st5" x1="1620.54" y1="301.06" x2="1620.54" y2="370.41"/>
			<g>
				<polygon points="1604.18,314.31 1607.11,317.04 1620.54,302.6 1633.96,317.04 1636.89,314.31 1620.54,296.72 				"/>
			</g>
		</g>
	</g>
</g>
<g>
	<path class="st4" d="M1655.54,483.56h-70c-8.25,0-15-6.75-15-15v-70c0-8.25,6.75-15,15-15h70c8.25,0,15,6.75,15,15v70
		C1670.54,476.81,1663.79,483.56,1655.54,483.56z"/>
	<g>
		<g>
			<line class="st5" x1="1620.54" y1="466.07" x2="1620.54" y2="396.72"/>
			<g>
				<polygon points="1636.9,452.81 1633.97,450.09 1620.54,464.53 1607.11,450.09 1604.18,452.81 1620.54,470.41 				"/>
			</g>
		</g>
	</g>
</g>
<text transform="matrix(0.9524 0 0 1 1425.2894 415.5646)" class="st6 st7">X</text>
<line class="st3" x1="1670.54" y1="333.56" x2="2054.42" y2="384.36"/>
<line class="st3" x1="2361.9" y1="433.56" x2="2745.78" y2="612.57"/>
<line class="st3" x1="2361.9" y1="333.56" x2="2745.78" y2="154.56"/>
<g>
	<rect x="2053.39" y="283.56" class="st1" width="200" height="200"/>
	<g>
		<path class="st4" d="M2346.9,383.56h-70c-8.25,0-15-6.75-15-15v-70c0-8.25,6.75-15,15-15h70c8.25,0,15,6.75,15,15v70
			C2361.9,376.81,2355.15,383.56,2346.9,383.56z"/>
		<g>
			<g>
				<line class="st5" x1="2311.9" y1="301.06" x2="2311.9" y2="370.41"/>
				<g>
					<polygon points="2295.54,314.31 2298.47,317.04 2311.9,302.6 2325.33,317.04 2328.26,314.31 2311.9,296.72 					"/>
				</g>
			</g>
		</g>
	</g>
	<g>
		<path class="st4" d="M2346.9,483.56h-70c-8.25,0-15-6.75-15-15v-70c0-8.25,6.75-15,15-15h70c8.25,0,15,6.75,15,15v70
			C2361.9,476.81,2355.15,483.56,2346.9,483.56z"/>
		<g>
			<g>
				<line class="st5" x1="2311.9" y1="466.07" x2="2311.9" y2="396.72"/>
				<g>
					<polygon points="2328.26,452.81 2325.33,450.09 2311.9,464.53 2298.47,450.09 2295.54,452.81 2311.9,470.41 					"/>
				</g>
			</g>
		</g>
	</g>
	<text transform="matrix(1 0 0 1 2121.6257 415.5645)" class="st6 st7">Z</text>
</g>
<text transform="matrix(1 0 0 1 1083.8101 312.9688)" class="st8 st9">100%</text>
<text transform="matrix(1 0 0 1 1775.4468 312.9687)" class="st8 st9">100%</text>
<text transform="matrix(1 0 0 1 2756.0984 177.3437)" class="st8 st9">100%</text>
<text transform="matrix(1 0 0 1 2796.0994 635.9799)" class="st8 st9">0%</text>
<line class="st3" x1="1670.03" y1="434.25" x2="2053.9" y2="385.04"/>
</svg>
