<?xml version="1.0" encoding="utf-8" standalone="no"?>
<!DOCTYPE svg PUBLIC "-//W3C//DTD SVG 1.1//EN"
  "http://www.w3.org/Graphics/SVG/1.1/DTD/svg11.dtd">
<!-- Created with matplotlib (https://matplotlib.org/) -->
<svg height="504pt" version="1.1" viewBox="0 0 720 504" width="720pt" xmlns="http://www.w3.org/2000/svg" xmlns:xlink="http://www.w3.org/1999/xlink">
 <metadata>
  <rdf:RDF xmlns:cc="http://creativecommons.org/ns#" xmlns:dc="http://purl.org/dc/elements/1.1/" xmlns:rdf="http://www.w3.org/1999/02/22-rdf-syntax-ns#">
   <cc:Work>
    <dc:type rdf:resource="http://purl.org/dc/dcmitype/StillImage"/>
    <dc:date>2021-08-27T16:59:54.852025</dc:date>
    <dc:format>image/svg+xml</dc:format>
    <dc:creator>
     <cc:Agent>
      <dc:title>Matplotlib v3.3.2, https://matplotlib.org/</dc:title>
     </cc:Agent>
    </dc:creator>
   </cc:Work>
  </rdf:RDF>
 </metadata>
 <defs>
  <style type="text/css">*{stroke-linecap:butt;stroke-linejoin:round;}</style>
 </defs>
 <g id="figure_1">
  <g id="patch_1">
   <path d="M 0 504 
L 720 504 
L 720 0 
L 0 0 
z
" style="fill:#ffffff;"/>
  </g>
  <g id="axes_1">
   <g id="line2d_1">
    <path clip-path="url(#p4a179bb47a)" d="M 79.058824 139.820662 
L 81.339149 133.05959 
L 83.619474 126.94376 
L 85.8998 121.506705 
L 88.180125 116.778236 
L 90.46045 112.784281 
L 92.740776 109.546737 
L 93.880938 108.217332 
L 95.021101 107.083356 
L 96.161264 106.146366 
L 97.301426 105.407646 
L 98.441589 104.868208 
L 99.581752 104.528793 
L 100.721914 104.389865 
L 101.862077 104.451616 
L 103.00224 104.713961 
L 104.142402 105.176539 
L 105.282565 105.838718 
L 106.422728 106.699587 
L 107.56289 107.757969 
L 108.703053 109.01241 
L 109.843216 110.461191 
L 112.123541 113.933562 
L 114.403867 118.156043 
L 116.684192 123.105483 
L 118.964517 128.754743 
L 121.244843 135.072849 
L 123.525168 142.025158 
L 125.805493 149.573551 
L 129.225981 161.922424 
L 132.646469 175.366391 
L 136.066957 189.739693 
L 140.627608 210.042045 
L 146.328422 236.619354 
L 157.730048 290.297093 
L 162.290699 310.659944 
L 165.711187 325.094241 
L 169.131675 338.611772 
L 172.552163 351.04587 
L 174.832489 358.657045 
L 177.112814 365.67651 
L 179.393139 372.065778 
L 181.673465 377.789817 
L 183.95379 382.817241 
L 186.234115 387.120485 
L 188.514441 390.675954 
L 189.654603 392.167018 
L 190.794766 393.464154 
L 191.934929 394.565584 
L 193.075091 395.469797 
L 194.215254 396.175554 
L 195.355417 396.681886 
L 196.495579 396.9881 
L 197.635742 397.093775 
L 198.775905 396.998767 
L 199.916067 396.703206 
L 201.05623 396.207497 
L 202.196393 395.51232 
L 203.336555 394.618628 
L 204.476718 393.527647 
L 205.616881 392.240873 
L 206.757043 390.760069 
L 209.037369 387.22476 
L 211.317694 382.941105 
L 213.59802 377.932591 
L 215.878345 372.22668 
L 218.15867 365.854656 
L 220.438996 358.851459 
L 222.719321 351.255486 
L 226.139809 338.842011 
L 229.560297 325.342265 
L 232.980785 310.922695 
L 237.541436 290.574414 
L 243.242249 263.966369 
L 254.643876 210.318882 
L 259.204527 190.001714 
L 262.625015 175.613511 
L 266.045503 162.151596 
L 269.465991 149.78195 
L 271.746316 142.218263 
L 274.026642 135.249602 
L 276.306967 128.914175 
L 278.587292 123.246719 
L 280.867618 118.278309 
L 283.147943 114.036187 
L 285.428268 110.543613 
L 286.568431 109.084554 
L 287.708594 107.819736 
L 288.848756 106.750893 
L 289.988919 105.879491 
L 291.129082 105.206725 
L 292.269244 104.733517 
L 293.409407 104.460516 
L 294.54957 104.388097 
L 295.689732 104.516358 
L 296.829895 104.845125 
L 297.970058 105.373945 
L 299.11022 106.102095 
L 300.250383 107.028575 
L 301.390546 108.152115 
L 302.530708 109.471175 
L 303.670871 110.983945 
L 305.951197 114.582058 
L 308.231522 118.926725 
L 310.511847 123.994125 
L 312.792173 129.756473 
L 315.072498 136.182174 
L 317.352823 143.235997 
L 319.633149 150.879264 
L 323.053637 163.356872 
L 326.474125 176.911888 
L 329.894613 191.377184 
L 334.455263 211.770627 
L 340.156077 238.408406 
L 351.557704 292.023621 
L 356.118354 312.294341 
L 359.538842 326.635907 
L 362.95933 340.041699 
L 366.379818 352.346428 
L 368.660144 359.862341 
L 370.940469 366.779936 
L 373.220795 373.061284 
L 375.50112 378.671943 
L 377.781445 383.581152 
L 380.061771 387.761992 
L 382.342096 391.191539 
L 383.482259 392.618539 
L 384.622421 393.850991 
L 385.762584 394.887207 
L 386.902747 395.725765 
L 388.042909 396.365515 
L 389.183072 396.805581 
L 390.323235 397.045358 
L 391.463397 397.084519 
L 392.60356 396.923008 
L 393.743723 396.561049 
L 394.883885 395.999137 
L 396.024048 395.238042 
L 397.164211 394.278809 
L 398.304373 393.122752 
L 399.444536 391.771457 
L 400.584699 390.226777 
L 402.865024 386.565995 
L 405.14535 382.160479 
L 407.425675 377.034384 
L 409.706 371.215817 
L 411.986326 364.73668 
L 414.266651 357.632499 
L 416.546976 349.942226 
L 419.967464 337.400954 
L 423.387952 323.791178 
L 426.80844 309.280701 
L 431.369091 288.842864 
L 437.069905 262.176355 
L 448.471531 208.595431 
L 453.032182 188.371923 
L 456.45267 174.077533 
L 459.873158 160.728369 
L 463.293646 148.489022 
L 465.573971 141.021165 
L 467.854297 134.154897 
L 470.134622 127.927865 
L 472.414948 122.374213 
L 474.695273 117.524391 
L 476.975598 113.40499 
L 479.255924 110.038598 
L 480.396086 108.643713 
L 481.536249 107.443672 
L 482.676412 106.440123 
L 483.816574 105.634441 
L 484.956737 105.02773 
L 486.0969 104.620823 
L 487.237062 104.414278 
L 488.377225 104.408378 
L 489.517388 104.603131 
L 490.65755 104.998269 
L 491.797713 105.593252 
L 492.937876 106.387263 
L 494.078038 107.379214 
L 495.218201 108.567743 
L 496.358364 109.951223 
L 497.498526 111.527755 
L 499.778852 115.251067 
L 502.059177 119.717266 
L 504.339503 124.901863 
L 506.619828 130.776431 
L 508.900153 137.308759 
L 511.180479 144.463032 
L 513.460804 152.200021 
L 516.881292 164.804485 
L 520.30178 178.468508 
L 523.722268 193.023618 
L 528.282919 213.50508 
L 535.123895 245.611024 
L 544.245196 288.535089 
L 548.805847 308.988492 
L 552.226335 323.514866 
L 555.646823 337.143948 
L 559.067311 349.707694 
L 561.347636 357.414574 
L 563.627962 364.536558 
L 565.908287 371.034595 
L 568.188613 376.873056 
L 570.468938 382.019929 
L 572.749263 386.446994 
L 575.029589 390.129977 
L 576.169751 391.685964 
L 577.309914 393.048684 
L 578.450077 394.216267 
L 579.590239 395.187112 
L 580.730402 395.959888 
L 581.870565 396.533536 
L 583.010727 396.907269 
L 584.15089 397.080574 
L 585.291053 397.053214 
L 586.431215 396.825226 
L 587.571378 396.396923 
L 588.711541 395.768892 
L 589.851703 394.941994 
L 590.991866 393.917364 
L 592.132029 392.696406 
L 593.272191 391.280794 
L 595.552517 387.873639 
L 597.832842 383.714579 
L 600.113168 378.826419 
L 602.393493 373.235961 
L 604.673818 366.973857 
L 606.954144 360.074443 
L 609.234469 352.575547 
L 612.654957 340.293963 
L 616.075445 326.908204 
L 619.495933 312.583313 
L 624.056584 292.329257 
L 629.757397 265.784781 
L 642.299187 206.878329 
L 646.859837 186.751529 
L 648 181.922192 
L 648 181.922192 
" style="fill:none;stroke:#1f77b4;stroke-linecap:square;stroke-width:1.5;"/>
   </g>
   <g id="line2d_2">
    <path clip-path="url(#p4a179bb47a)" d="M 79.058824 307.270509 
L 82.479312 263.755288 
L 87.039962 204.565175 
L 89.320288 177.258783 
L 91.600613 153.030131 
L 92.740776 142.393328 
L 93.880938 132.894027 
L 95.021101 124.63196 
L 96.161264 117.693868 
L 97.301426 112.152591 
L 98.441589 108.066306 
L 99.581752 105.477914 
L 100.721914 104.41459 
L 101.862077 104.887497 
L 103.00224 106.89167 
L 104.142402 110.406069 
L 105.282565 115.393796 
L 106.422728 121.802486 
L 107.56289 129.564857 
L 108.703053 138.599413 
L 109.843216 148.811303 
L 112.123541 172.327002 
L 114.403867 199.127007 
L 117.824355 243.003464 
L 122.385005 301.905599 
L 124.665331 328.74913 
L 126.945656 352.325271 
L 128.085819 362.572959 
L 129.225981 371.646543 
L 130.366144 379.450762 
L 131.506307 385.903681 
L 132.646469 390.937552 
L 133.786632 394.499528 
L 134.926795 396.55221 
L 136.066957 397.074049 
L 137.20712 396.059566 
L 138.347283 393.519412 
L 139.487445 389.480255 
L 140.627608 383.984501 
L 141.767771 377.089849 
L 142.907934 368.868684 
L 144.048096 359.407317 
L 146.328422 337.173287 
L 148.608747 311.319024 
L 152.029235 268.148933 
L 157.730048 194.650527 
L 160.010374 168.304955 
L 162.290699 145.41215 
L 163.430862 135.566976 
L 164.571024 126.930972 
L 165.711187 119.594806 
L 166.85135 113.635498 
L 167.991512 109.115613 
L 169.131675 106.082605 
L 170.271838 104.568316 
L 171.412 104.588645 
L 172.552163 106.143377 
L 173.692326 109.216191 
L 174.832489 113.774825 
L 175.972651 119.77142 
L 177.112814 127.143019 
L 178.252977 135.812229 
L 179.393139 145.688036 
L 181.673465 168.633123 
L 183.95379 195.017232 
L 187.374278 238.596089 
L 191.934929 297.74394 
L 194.215254 324.976287 
L 196.495579 349.099268 
L 197.635742 359.672712 
L 198.775905 369.1025 
L 199.916067 377.289632 
L 201.05623 384.148154 
L 202.196393 389.606059 
L 203.336555 393.606047 
L 204.476718 396.106122 
L 205.616881 397.080037 
L 206.757043 396.517568 
L 207.897206 394.424619 
L 209.037369 390.823163 
L 210.177532 385.751012 
L 211.317694 379.261417 
L 212.457857 371.42251 
L 213.59802 362.316589 
L 214.738182 352.039255 
L 217.018508 328.413112 
L 219.298833 301.533653 
L 222.719321 257.603011 
L 227.279972 198.755894 
L 229.560297 171.992252 
L 231.840622 148.526936 
L 232.980785 138.344857 
L 234.120948 129.342784 
L 235.26111 121.615228 
L 236.401273 115.243318 
L 237.541436 110.293952 
L 238.681598 106.819092 
L 239.821761 104.855218 
L 240.961924 104.422949 
L 242.102087 105.526824 
L 243.242249 108.155254 
L 244.382412 112.280642 
L 245.522575 117.859678 
L 246.662737 124.833789 
L 247.8029 133.129755 
L 248.943063 142.66048 
L 251.223388 165.01405 
L 253.503713 190.958226 
L 256.924201 234.199778 
L 262.625015 307.636302 
L 264.90534 333.896247 
L 267.185665 356.673216 
L 268.325828 366.450618 
L 269.465991 375.013205 
L 270.606153 382.27108 
L 271.746316 388.148047 
L 272.886479 392.582402 
L 274.026642 395.527593 
L 275.166804 396.952697 
L 276.306967 396.842754 
L 277.44713 395.198916 
L 278.587292 392.038444 
L 279.727455 387.394517 
L 280.867618 381.31589 
L 282.00778 373.866383 
L 283.147943 365.124204 
L 284.288106 355.181137 
L 286.568431 332.121404 
L 288.848756 305.653036 
L 292.269244 262.0121 
L 296.829895 202.908623 
L 299.11022 175.751295 
L 301.390546 151.734846 
L 302.530708 141.225139 
L 303.670871 131.8652 
L 304.811034 123.753294 
L 305.951197 116.974589 
L 307.091359 111.60025 
L 308.231522 107.686703 
L 309.371685 105.275033 
L 310.511847 104.390562 
L 311.65201 105.042573 
L 312.792173 107.224224 
L 313.932335 110.912607 
L 315.072498 116.069001 
L 316.212661 122.63927 
L 317.352823 130.554434 
L 318.492986 139.731394 
L 319.633149 150.073804 
L 321.913474 173.809548 
L 324.193799 200.767501 
L 327.614287 244.75076 
L 332.174938 303.540757 
L 334.455263 330.223554 
L 336.735589 353.577207 
L 337.875752 363.693313 
L 339.015914 372.623553 
L 340.156077 380.274171 
L 341.29624 386.564843 
L 342.436402 391.429527 
L 343.576565 394.81715 
L 344.716728 396.692145 
L 345.85689 397.034827 
L 346.997053 395.841599 
L 348.137216 393.124989 
L 349.277378 388.913517 
L 350.417541 383.251398 
L 351.557704 376.198077 
L 352.697866 367.827606 
L 353.838029 358.227863 
L 356.118354 335.755551 
L 358.39868 309.722388 
L 361.819168 266.41092 
L 366.379818 207.104931 
L 368.660144 179.578659 
L 370.940469 155.032959 
L 372.080632 144.2052 
L 373.220795 134.495921 
L 374.360957 126.007057 
L 375.50112 118.827731 
L 376.641283 113.033317 
L 377.781445 108.684648 
L 378.921608 105.82738 
L 380.061771 104.491511 
L 381.201933 104.691066 
L 382.342096 106.423949 
L 383.482259 109.671968 
L 384.622421 114.401022 
L 385.762584 120.561463 
L 386.902747 128.088613 
L 388.042909 136.903447 
L 389.183072 146.913421 
L 391.463397 170.086975 
L 393.743723 196.638656 
L 397.164211 240.340114 
L 401.724861 299.397105 
L 404.005187 326.478446 
L 406.285512 350.387504 
L 407.425675 360.833098 
L 408.565838 370.122855 
L 409.706 378.159244 
L 410.846163 384.857891 
L 411.986326 390.148471 
L 413.126488 393.975439 
L 414.266651 396.298617 
L 415.406814 397.093613 
L 416.546976 396.352082 
L 417.687139 394.081809 
L 418.827302 390.306628 
L 419.967464 385.066175 
L 421.107627 378.415468 
L 422.24779 370.42433 
L 423.387952 361.176658 
L 424.528115 350.769541 
L 426.80844 326.925045 
L 429.088766 299.889561 
L 432.509254 255.855255 
L 437.069905 197.124478 
L 439.35023 170.523478 
L 441.630555 147.282323 
L 442.770718 137.23255 
L 443.910881 128.374462 
L 445.051043 120.801057 
L 446.191206 114.591846 
L 447.331369 109.812018 
L 448.471531 106.511755 
L 449.611694 104.725706 
L 450.751857 104.472621 
L 451.892019 105.755159 
L 453.032182 108.559853 
L 454.172345 112.857259 
L 455.312507 118.602259 
L 456.45267 125.734538 
L 457.592833 134.179215 
L 458.732995 143.847633 
L 461.013321 166.437884 
L 463.293646 192.559103 
L 466.714134 235.938942 
L 471.274785 295.209123 
L 473.55511 322.664333 
L 475.835436 347.107013 
L 476.975598 357.872579 
L 478.115761 367.513389 
L 479.255924 375.928227 
L 480.396086 383.028747 
L 481.536249 388.740402 
L 482.676412 393.003229 
L 483.816574 395.772472 
L 484.956737 397.019058 
L 486.0969 396.729899 
L 487.237062 394.908032 
L 488.377225 391.572583 
L 489.517388 386.75857 
L 490.65755 380.516535 
L 491.797713 372.912011 
L 492.937876 364.024836 
L 494.078038 353.948313 
L 496.358364 330.661766 
L 498.638689 304.027719 
L 502.059177 260.267301 
L 506.619828 201.258904 
L 508.900153 174.254519 
L 511.180479 150.453705 
L 512.320641 140.072595 
L 513.460804 130.853353 
L 514.600967 122.892769 
L 515.741129 116.274418 
L 516.881292 111.067786 
L 518.021455 107.327534 
L 519.161617 105.092932 
L 520.30178 104.387439 
L 521.441943 105.218463 
L 522.582105 107.577278 
L 523.722268 111.43912 
L 524.862431 116.763445 
L 526.002593 123.494354 
L 527.142756 131.56118 
L 528.282919 140.879234 
L 529.423081 151.350686 
L 531.703407 175.303083 
L 533.983732 202.415133 
L 537.40422 246.498912 
L 541.964871 305.168372 
L 544.245196 331.686625 
L 546.525522 354.814452 
L 547.665684 364.797532 
L 548.805847 373.583152 
L 549.94601 381.079075 
L 551.086172 387.206603 
L 552.226335 391.901404 
L 553.366498 395.11419 
L 554.50666 396.81123 
L 555.646823 396.974707 
L 556.786986 395.602905 
L 557.927148 392.710226 
L 559.067311 388.32704 
L 560.207474 382.499365 
L 561.347636 375.288383 
L 562.487799 366.769801 
L 563.627962 357.033054 
L 565.908287 334.325671 
L 568.188613 308.117327 
L 571.609101 264.670667 
L 576.169751 205.438412 
L 578.450077 178.055244 
L 580.730402 153.716457 
L 581.870565 143.013468 
L 583.010727 133.441471 
L 584.15089 125.10096 
L 585.291053 118.0795 
L 586.431215 112.450807 
L 587.571378 108.273975 
L 588.711541 105.592856 
L 589.851703 104.435597 
L 590.991866 104.814349 
L 592.132029 106.725136 
L 593.272191 110.147896 
L 594.412354 115.046695 
L 595.552517 121.370101 
L 596.692679 129.051728 
L 597.832842 138.010927 
L 598.973005 148.153638 
L 601.25333 171.552348 
L 603.533656 198.267809 
L 606.954144 242.085624 
L 611.514794 301.043319 
L 613.79512 327.969786 
L 616.075445 351.661505 
L 617.215608 361.977759 
L 618.35577 371.126157 
L 619.495933 379.010653 
L 620.636096 385.54847 
L 621.776258 390.670969 
L 622.916421 394.324371 
L 624.056584 396.470318 
L 625.196746 397.086282 
L 626.336909 396.165796 
L 627.477072 393.718523 
L 628.617234 389.770157 
L 629.757397 384.36215 
L 630.89756 377.55128 
L 632.037723 369.409053 
L 633.177885 360.020951 
L 634.318048 349.485538 
L 636.598373 325.426095 
L 638.878699 298.238447 
L 642.299187 254.106769 
L 646.859837 195.500721 
L 648 181.922192 
L 648 181.922192 
" style="fill:none;stroke:#ff7f0e;stroke-linecap:square;stroke-width:1.5;"/>
   </g>
   <g id="patch_2">
    <path d="M 642.886878 250.74 
Q 368.002076 250.74 91.99924 250.74 
" style="fill:none;stroke:#000000;stroke-linecap:round;"/>
    <path d="M 636.486878 247.54 
L 642.886878 250.74 
L 636.486878 253.94 
" style="fill:none;stroke:#000000;stroke-linecap:round;"/>
   </g>
   <g id="text_1">
    <!-- $x$ -->
    <g transform="translate(648 255.155)scale(0.16 -0.16)">
     <defs>
      <path d="M 60.015625 54.6875 
L 34.90625 27.875 
L 50.296875 0 
L 39.984375 0 
L 28.421875 21.6875 
L 8.296875 0 
L -2.59375 0 
L 24.3125 28.8125 
L 10.015625 54.6875 
L 20.3125 54.6875 
L 30.8125 34.90625 
L 49.125 54.6875 
z
" id="DejaVuSans-Oblique-120"/>
     </defs>
     <use transform="translate(0 0.3125)" xlink:href="#DejaVuSans-Oblique-120"/>
    </g>
   </g>
   <g id="patch_3">
    <path d="M 100.941176 68.925357 
Q 100.941176 253.402858 100.941176 438.998394 
" style="fill:none;stroke:#000000;stroke-linecap:round;"/>
    <path d="M 97.741176 75.325357 
L 100.941176 68.925357 
L 104.141176 75.325357 
" style="fill:none;stroke:#000000;stroke-linecap:round;"/>
   </g>
   <g id="text_2">
    <!-- $\delta x_n$ -->
    <g transform="translate(87.501176 60.48)scale(0.16 -0.16)">
     <defs>
      <path d="M 54.25 63.328125 
Q 49.953125 66.75 38.28125 66.75 
Q 25.921875 66.75 24.8125 61.03125 
Q 23.921875 56.546875 36.375 54.203125 
Q 46.140625 52.390625 50.828125 46.921875 
Q 56.5 40.328125 53.859375 26.8125 
Q 51.3125 13.875 43.171875 6.25 
Q 34.96875 -1.421875 23.25 -1.421875 
Q 11.578125 -1.421875 6.34375 6.25 
Q 1.125 13.875 3.765625 27.296875 
Q 5.671875 37.25 13.921875 45.3125 
Q 17.140625 48.4375 21.140625 50.203125 
Q 14.265625 54.046875 15.625 60.9375 
Q 18.21875 74.21875 39.75 74.21875 
Q 50.53125 74.21875 55.71875 70.796875 
z
M 27.390625 47.75 
Q 23.828125 46.34375 20.40625 42.78125 
Q 15.140625 37.25 13.234375 27.296875 
Q 11.28125 17.390625 14.359375 11.8125 
Q 17.484375 6.203125 24.75 6.203125 
Q 31.9375 6.203125 37.203125 11.859375 
Q 42.53125 17.53125 44.34375 26.8125 
Q 46.1875 36.53125 42.671875 41.21875 
Q 38.921875 46.234375 32.859375 46.78125 
Q 29.78125 47.078125 27.390625 47.75 
z
" id="DejaVuSans-Oblique-948"/>
      <path d="M 55.71875 33.015625 
L 49.3125 0 
L 40.28125 0 
L 46.6875 32.671875 
Q 47.125 34.96875 47.359375 36.71875 
Q 47.609375 38.484375 47.609375 39.5 
Q 47.609375 43.609375 45.015625 45.890625 
Q 42.4375 48.1875 37.796875 48.1875 
Q 30.5625 48.1875 25.34375 43.375 
Q 20.125 38.578125 18.5 30.328125 
L 12.5 0 
L 3.515625 0 
L 14.109375 54.6875 
L 23.09375 54.6875 
L 21.296875 46.09375 
Q 25.046875 50.828125 30.3125 53.40625 
Q 35.59375 56 41.40625 56 
Q 48.640625 56 52.609375 52.09375 
Q 56.59375 48.1875 56.59375 41.109375 
Q 56.59375 39.359375 56.375 37.359375 
Q 56.15625 35.359375 55.71875 33.015625 
z
" id="DejaVuSans-Oblique-110"/>
     </defs>
     <use transform="translate(0 0.78125)" xlink:href="#DejaVuSans-Oblique-948"/>
     <use transform="translate(61.181641 0.78125)" xlink:href="#DejaVuSans-Oblique-120"/>
     <use transform="translate(120.361328 -15.625)scale(0.7)" xlink:href="#DejaVuSans-Oblique-110"/>
    </g>
   </g>
   <g id="patch_4">
    <path d="M 209.234907 411.729231 
Q 155.647059 411.729231 102.05921 411.729231 
" style="fill:none;stroke:#000000;stroke-linecap:round;"/>
    <path d="M 202.834907 408.529231 
L 209.234907 411.729231 
L 202.834907 414.929231 
" style="fill:none;stroke:#000000;stroke-linecap:round;"/>
    <path d="M 108.45921 414.929231 
L 102.05921 411.729231 
L 108.45921 408.529231 
" style="fill:none;stroke:#000000;stroke-linecap:round;"/>
   </g>
   <g id="text_3">
    <!-- $a$ -->
    <g transform="translate(150.687059 433.682308)scale(0.16 -0.16)">
     <defs>
      <path d="M 53.71875 31.203125 
L 47.609375 0 
L 38.625 0 
L 40.28125 8.296875 
Q 36.328125 3.421875 31.265625 1 
Q 26.21875 -1.421875 20.015625 -1.421875 
Q 13.03125 -1.421875 8.5625 2.84375 
Q 4.109375 7.125 4.109375 13.8125 
Q 4.109375 23.390625 11.75 28.953125 
Q 19.390625 34.515625 32.8125 34.515625 
L 45.3125 34.515625 
L 45.796875 36.921875 
Q 45.90625 37.3125 45.953125 37.765625 
Q 46 38.234375 46 39.203125 
Q 46 43.5625 42.453125 45.96875 
Q 38.921875 48.390625 32.515625 48.390625 
Q 28.125 48.390625 23.5 47.265625 
Q 18.890625 46.140625 14.015625 43.890625 
L 15.578125 52.203125 
Q 20.65625 54.109375 25.515625 55.046875 
Q 30.375 56 34.90625 56 
Q 44.578125 56 49.625 51.796875 
Q 54.6875 47.609375 54.6875 39.59375 
Q 54.6875 37.984375 54.4375 35.8125 
Q 54.203125 33.640625 53.71875 31.203125 
z
M 44 27.484375 
L 35.015625 27.484375 
Q 23.96875 27.484375 18.671875 24.53125 
Q 13.375 21.578125 13.375 15.375 
Q 13.375 11.078125 16.078125 8.640625 
Q 18.796875 6.203125 23.578125 6.203125 
Q 30.90625 6.203125 36.375 11.453125 
Q 41.84375 16.703125 43.609375 25.484375 
z
" id="DejaVuSans-Oblique-97"/>
     </defs>
     <use xlink:href="#DejaVuSans-Oblique-97"/>
    </g>
   </g>
   <g id="PathCollection_1">
    <defs>
     <path d="M 0 7.905694 
C 2.096615 7.905694 4.10764 7.0727 5.59017 5.59017 
C 7.0727 4.10764 7.905694 2.096615 7.905694 0 
C 7.905694 -2.096615 7.0727 -4.10764 5.59017 -5.59017 
C 4.10764 -7.0727 2.096615 -7.905694 0 -7.905694 
C -2.096615 -7.905694 -4.10764 -7.0727 -5.59017 -5.59017 
C -7.0727 -4.10764 -7.905694 -2.096615 -7.905694 0 
C -7.905694 2.096615 -7.0727 4.10764 -5.59017 5.59017 
C -4.10764 7.0727 -2.096615 7.905694 0 7.905694 
z
" id="m142846cecd" style="stroke:#000000;"/>
    </defs>
    <g clip-path="url(#p4a179bb47a)">
     <use style="stroke:#000000;" x="100.941176" xlink:href="#m142846cecd" y="104.386154"/>
     <use style="stroke:#000000;" x="210.352941" xlink:href="#m142846cecd" y="384.843336"/>
     <use style="stroke:#000000;" x="319.764706" xlink:href="#m142846cecd" y="151.337344"/>
     <use style="stroke:#000000;" x="429.176471" xlink:href="#m142846cecd" y="298.80103"/>
     <use style="stroke:#000000;" x="538.588235" xlink:href="#m142846cecd" y="262.066468"/>
     <use style="stroke:#000000;" x="648" xlink:href="#m142846cecd" y="181.922192"/>
    </g>
   </g>
   <g id="legend_1">
    <g id="patch_5">
     <path d="M 485.12 433 
L 636.8 433 
Q 640 433 640 429.8 
L 640 384.43 
Q 640 381.23 636.8 381.23 
L 485.12 381.23 
Q 481.92 381.23 481.92 384.43 
L 481.92 429.8 
Q 481.92 433 485.12 433 
z
" style="fill:#ffffff;opacity:0.8;stroke:#cccccc;stroke-linejoin:miter;"/>
    </g>
    <g id="line2d_3">
     <path d="M 488.32 394.1875 
L 520.32 394.1875 
" style="fill:none;stroke:#1f77b4;stroke-linecap:square;stroke-width:1.5;"/>
    </g>
    <g id="line2d_4"/>
    <g id="text_4">
     <!-- $k=k_0$ -->
     <g transform="translate(533.12 399.7875)scale(0.16 -0.16)">
      <defs>
       <path d="M 18.3125 75.984375 
L 27.296875 75.984375 
L 18.703125 31.6875 
L 49.515625 54.6875 
L 61.1875 54.6875 
L 26.8125 28.515625 
L 51.90625 0 
L 41.015625 0 
L 17.671875 26.703125 
L 12.5 0 
L 3.515625 0 
z
" id="DejaVuSans-Oblique-107"/>
       <path d="M 10.59375 45.40625 
L 73.1875 45.40625 
L 73.1875 37.203125 
L 10.59375 37.203125 
z
M 10.59375 25.484375 
L 73.1875 25.484375 
L 73.1875 17.1875 
L 10.59375 17.1875 
z
" id="DejaVuSans-61"/>
       <path d="M 31.78125 66.40625 
Q 24.171875 66.40625 20.328125 58.90625 
Q 16.5 51.421875 16.5 36.375 
Q 16.5 21.390625 20.328125 13.890625 
Q 24.171875 6.390625 31.78125 6.390625 
Q 39.453125 6.390625 43.28125 13.890625 
Q 47.125 21.390625 47.125 36.375 
Q 47.125 51.421875 43.28125 58.90625 
Q 39.453125 66.40625 31.78125 66.40625 
z
M 31.78125 74.21875 
Q 44.046875 74.21875 50.515625 64.515625 
Q 56.984375 54.828125 56.984375 36.375 
Q 56.984375 17.96875 50.515625 8.265625 
Q 44.046875 -1.421875 31.78125 -1.421875 
Q 19.53125 -1.421875 13.0625 8.265625 
Q 6.59375 17.96875 6.59375 36.375 
Q 6.59375 54.828125 13.0625 64.515625 
Q 19.53125 74.21875 31.78125 74.21875 
z
" id="DejaVuSans-48"/>
      </defs>
      <use transform="translate(0 0.015625)" xlink:href="#DejaVuSans-Oblique-107"/>
      <use transform="translate(77.392578 0.015625)" xlink:href="#DejaVuSans-61"/>
      <use transform="translate(180.664062 0.015625)" xlink:href="#DejaVuSans-Oblique-107"/>
      <use transform="translate(238.574219 -16.390625)scale(0.7)" xlink:href="#DejaVuSans-48"/>
     </g>
    </g>
    <g id="line2d_5">
     <path d="M 488.32 417.6725 
L 520.32 417.6725 
" style="fill:none;stroke:#ff7f0e;stroke-linecap:square;stroke-width:1.5;"/>
    </g>
    <g id="line2d_6"/>
    <g id="text_5">
     <!-- $k=k_0 + 2\pi/a$ -->
     <g transform="translate(533.12 423.2725)scale(0.16 -0.16)">
      <defs>
       <path d="M 46 62.703125 
L 46 35.5 
L 73.1875 35.5 
L 73.1875 27.203125 
L 46 27.203125 
L 46 0 
L 37.796875 0 
L 37.796875 27.203125 
L 10.59375 27.203125 
L 10.59375 35.5 
L 37.796875 35.5 
L 37.796875 62.703125 
z
" id="DejaVuSans-43"/>
       <path d="M 19.1875 8.296875 
L 53.609375 8.296875 
L 53.609375 0 
L 7.328125 0 
L 7.328125 8.296875 
Q 12.9375 14.109375 22.625 23.890625 
Q 32.328125 33.6875 34.8125 36.53125 
Q 39.546875 41.84375 41.421875 45.53125 
Q 43.3125 49.21875 43.3125 52.78125 
Q 43.3125 58.59375 39.234375 62.25 
Q 35.15625 65.921875 28.609375 65.921875 
Q 23.96875 65.921875 18.8125 64.3125 
Q 13.671875 62.703125 7.8125 59.421875 
L 7.8125 69.390625 
Q 13.765625 71.78125 18.9375 73 
Q 24.125 74.21875 28.421875 74.21875 
Q 39.75 74.21875 46.484375 68.546875 
Q 53.21875 62.890625 53.21875 53.421875 
Q 53.21875 48.921875 51.53125 44.890625 
Q 49.859375 40.875 45.40625 35.40625 
Q 44.1875 33.984375 37.640625 27.21875 
Q 31.109375 20.453125 19.1875 8.296875 
z
" id="DejaVuSans-50"/>
       <path d="M 9.125 54.6875 
L 61.53125 54.6875 
L 59.765625 45.703125 
L 52.875 45.703125 
L 46.34375 12.109375 
Q 45.65625 8.59375 46.578125 7.03125 
Q 47.46875 5.515625 50.140625 5.515625 
Q 50.875 5.515625 51.953125 5.671875 
Q 53.078125 5.765625 53.421875 5.8125 
L 52.15625 -0.6875 
Q 50.34375 -1.3125 48.484375 -1.609375 
Q 46.578125 -1.90625 44.78125 -1.90625 
Q 38.921875 -1.90625 37.3125 1.265625 
Q 35.6875 4.5 37.359375 13.09375 
L 43.703125 45.703125 
L 23.53125 45.703125 
L 14.65625 0 
L 5.46875 0 
L 14.359375 45.703125 
L 7.375 45.703125 
z
" id="DejaVuSans-Oblique-960"/>
       <path d="M 25.390625 72.90625 
L 33.6875 72.90625 
L 8.296875 -9.28125 
L 0 -9.28125 
z
" id="DejaVuSans-47"/>
      </defs>
      <use transform="translate(0 0.015625)" xlink:href="#DejaVuSans-Oblique-107"/>
      <use transform="translate(77.392578 0.015625)" xlink:href="#DejaVuSans-61"/>
      <use transform="translate(180.664062 0.015625)" xlink:href="#DejaVuSans-Oblique-107"/>
      <use transform="translate(238.574219 -16.390625)scale(0.7)" xlink:href="#DejaVuSans-48"/>
      <use transform="translate(305.327148 0.015625)" xlink:href="#DejaVuSans-43"/>
      <use transform="translate(408.598633 0.015625)" xlink:href="#DejaVuSans-50"/>
      <use transform="translate(472.22168 0.015625)" xlink:href="#DejaVuSans-Oblique-960"/>
      <use transform="translate(532.426758 0.015625)" xlink:href="#DejaVuSans-47"/>
      <use transform="translate(566.118164 0.015625)" xlink:href="#DejaVuSans-Oblique-97"/>
     </g>
    </g>
   </g>
  </g>
 </g>
 <defs>
  <clipPath id="p4a179bb47a">
   <rect height="380.52" width="558" x="90" y="60.48"/>
  </clipPath>
 </defs>
</svg>
