<?xml version="1.0" encoding="utf-8" standalone="no"?>
<!DOCTYPE svg PUBLIC "-//W3C//DTD SVG 1.1//EN"
  "http://www.w3.org/Graphics/SVG/1.1/DTD/svg11.dtd">
<!-- Created with matplotlib (https://matplotlib.org/) -->
<svg height="386.155pt" version="1.1" viewBox="0 0 599.6275 386.155" width="599.6275pt" xmlns="http://www.w3.org/2000/svg" xmlns:xlink="http://www.w3.org/1999/xlink">
 <metadata>
  <rdf:RDF xmlns:cc="http://creativecommons.org/ns#" xmlns:dc="http://purl.org/dc/elements/1.1/" xmlns:rdf="http://www.w3.org/1999/02/22-rdf-syntax-ns#">
   <cc:Work>
    <dc:type rdf:resource="http://purl.org/dc/dcmitype/StillImage"/>
    <dc:date>2021-09-01T19:14:57.645347</dc:date>
    <dc:format>image/svg+xml</dc:format>
    <dc:creator>
     <cc:Agent>
      <dc:title>Matplotlib v3.3.2, https://matplotlib.org/</dc:title>
     </cc:Agent>
    </dc:creator>
   </cc:Work>
  </rdf:RDF>
 </metadata>
 <defs>
  <style type="text/css">*{stroke-linecap:butt;stroke-linejoin:round;}</style>
 </defs>
 <g id="figure_1">
  <g id="patch_1">
   <path d="M 0 386.155 
L 599.6275 386.155 
L 599.6275 0 
L 0 0 
z
" style="fill:#ffffff;"/>
  </g>
  <g id="axes_1">
   <g id="patch_2">
    <path d="M 34.4275 315 
L 288.063864 315 
L 288.063864 43.2 
L 34.4275 43.2 
z
" style="fill:#ffffff;"/>
   </g>
   <g id="matplotlib.axis_1">
    <g id="xtick_1">
     <g id="line2d_1">
      <defs>
       <path d="M 0 0 
L 0 10 
" id="m3ce1a42143" style="stroke:#000000;stroke-width:1.5;"/>
      </defs>
      <g>
       <use style="stroke:#000000;stroke-width:1.5;" x="42.017784" xlink:href="#m3ce1a42143" y="315"/>
      </g>
     </g>
     <g id="text_1">
      <!-- $0$ -->
      <g transform="translate(34.337784 346.73625)scale(0.24 -0.24)">
       <defs>
        <path d="M 31.78125 66.40625 
Q 24.171875 66.40625 20.328125 58.90625 
Q 16.5 51.421875 16.5 36.375 
Q 16.5 21.390625 20.328125 13.890625 
Q 24.171875 6.390625 31.78125 6.390625 
Q 39.453125 6.390625 43.28125 13.890625 
Q 47.125 21.390625 47.125 36.375 
Q 47.125 51.421875 43.28125 58.90625 
Q 39.453125 66.40625 31.78125 66.40625 
z
M 31.78125 74.21875 
Q 44.046875 74.21875 50.515625 64.515625 
Q 56.984375 54.828125 56.984375 36.375 
Q 56.984375 17.96875 50.515625 8.265625 
Q 44.046875 -1.421875 31.78125 -1.421875 
Q 19.53125 -1.421875 13.0625 8.265625 
Q 6.59375 17.96875 6.59375 36.375 
Q 6.59375 54.828125 13.0625 64.515625 
Q 19.53125 74.21875 31.78125 74.21875 
z
" id="DejaVuSans-48"/>
       </defs>
       <use transform="translate(0 0.78125)" xlink:href="#DejaVuSans-48"/>
      </g>
     </g>
    </g>
    <g id="xtick_2">
     <g id="line2d_2">
      <g>
       <use style="stroke:#000000;stroke-width:1.5;" x="280.47358" xlink:href="#m3ce1a42143" y="315"/>
      </g>
     </g>
     <g id="text_2">
      <!-- $\pi/2$ -->
      <g transform="translate(261.99358 346.73625)scale(0.24 -0.24)">
       <defs>
        <path d="M 9.125 54.6875 
L 61.53125 54.6875 
L 59.765625 45.703125 
L 52.875 45.703125 
L 46.34375 12.109375 
Q 45.65625 8.59375 46.578125 7.03125 
Q 47.46875 5.515625 50.140625 5.515625 
Q 50.875 5.515625 51.953125 5.671875 
Q 53.078125 5.765625 53.421875 5.8125 
L 52.15625 -0.6875 
Q 50.34375 -1.3125 48.484375 -1.609375 
Q 46.578125 -1.90625 44.78125 -1.90625 
Q 38.921875 -1.90625 37.3125 1.265625 
Q 35.6875 4.5 37.359375 13.09375 
L 43.703125 45.703125 
L 23.53125 45.703125 
L 14.65625 0 
L 5.46875 0 
L 14.359375 45.703125 
L 7.375 45.703125 
z
" id="DejaVuSans-Oblique-960"/>
        <path d="M 25.390625 72.90625 
L 33.6875 72.90625 
L 8.296875 -9.28125 
L 0 -9.28125 
z
" id="DejaVuSans-47"/>
        <path d="M 19.1875 8.296875 
L 53.609375 8.296875 
L 53.609375 0 
L 7.328125 0 
L 7.328125 8.296875 
Q 12.9375 14.109375 22.625 23.890625 
Q 32.328125 33.6875 34.8125 36.53125 
Q 39.546875 41.84375 41.421875 45.53125 
Q 43.3125 49.21875 43.3125 52.78125 
Q 43.3125 58.59375 39.234375 62.25 
Q 35.15625 65.921875 28.609375 65.921875 
Q 23.96875 65.921875 18.8125 64.3125 
Q 13.671875 62.703125 7.8125 59.421875 
L 7.8125 69.390625 
Q 13.765625 71.78125 18.9375 73 
Q 24.125 74.21875 28.421875 74.21875 
Q 39.75 74.21875 46.484375 68.546875 
Q 53.21875 62.890625 53.21875 53.421875 
Q 53.21875 48.921875 51.53125 44.890625 
Q 49.859375 40.875 45.40625 35.40625 
Q 44.1875 33.984375 37.640625 27.21875 
Q 31.109375 20.453125 19.1875 8.296875 
z
" id="DejaVuSans-50"/>
       </defs>
       <use transform="translate(0 0.78125)" xlink:href="#DejaVuSans-Oblique-960"/>
       <use transform="translate(60.205078 0.78125)" xlink:href="#DejaVuSans-47"/>
       <use transform="translate(90.271484 0.78125)" xlink:href="#DejaVuSans-50"/>
      </g>
     </g>
    </g>
    <g id="text_3">
     <!-- $ka$ -->
     <g transform="translate(146.845682 373.96375)scale(0.24 -0.24)">
      <defs>
       <path d="M 18.3125 75.984375 
L 27.296875 75.984375 
L 18.703125 31.6875 
L 49.515625 54.6875 
L 61.1875 54.6875 
L 26.8125 28.515625 
L 51.90625 0 
L 41.015625 0 
L 17.671875 26.703125 
L 12.5 0 
L 3.515625 0 
z
" id="DejaVuSans-Oblique-107"/>
       <path d="M 53.71875 31.203125 
L 47.609375 0 
L 38.625 0 
L 40.28125 8.296875 
Q 36.328125 3.421875 31.265625 1 
Q 26.21875 -1.421875 20.015625 -1.421875 
Q 13.03125 -1.421875 8.5625 2.84375 
Q 4.109375 7.125 4.109375 13.8125 
Q 4.109375 23.390625 11.75 28.953125 
Q 19.390625 34.515625 32.8125 34.515625 
L 45.3125 34.515625 
L 45.796875 36.921875 
Q 45.90625 37.3125 45.953125 37.765625 
Q 46 38.234375 46 39.203125 
Q 46 43.5625 42.453125 45.96875 
Q 38.921875 48.390625 32.515625 48.390625 
Q 28.125 48.390625 23.5 47.265625 
Q 18.890625 46.140625 14.015625 43.890625 
L 15.578125 52.203125 
Q 20.65625 54.109375 25.515625 55.046875 
Q 30.375 56 34.90625 56 
Q 44.578125 56 49.625 51.796875 
Q 54.6875 47.609375 54.6875 39.59375 
Q 54.6875 37.984375 54.4375 35.8125 
Q 54.203125 33.640625 53.71875 31.203125 
z
M 44 27.484375 
L 35.015625 27.484375 
Q 23.96875 27.484375 18.671875 24.53125 
Q 13.375 21.578125 13.375 15.375 
Q 13.375 11.078125 16.078125 8.640625 
Q 18.796875 6.203125 23.578125 6.203125 
Q 30.90625 6.203125 36.375 11.453125 
Q 41.84375 16.703125 43.609375 25.484375 
z
" id="DejaVuSans-Oblique-97"/>
      </defs>
      <use transform="translate(0 0.015625)" xlink:href="#DejaVuSans-Oblique-107"/>
      <use transform="translate(57.910156 0.015625)" xlink:href="#DejaVuSans-Oblique-97"/>
     </g>
    </g>
   </g>
   <g id="matplotlib.axis_2">
    <g id="text_4">
     <!-- $ω$ -->
     <g transform="translate(25.43625 189.18)rotate(-90)scale(0.24 -0.24)">
      <defs>
       <path d="M 21.390625 -1.421875 
Q 1.125 -1.421875 6.78125 27.59375 
Q 8.984375 39.0625 19.625 54.6875 
L 29.296875 54.6875 
Q 19.234375 39.0625 17 27.34375 
Q 12.796875 6.203125 23.734375 6.203125 
Q 33.84375 6.203125 38.71875 32.46875 
L 47.015625 32.46875 
Q 41.703125 6.0625 51.8125 6.203125 
Q 62.703125 6.296875 66.796875 27.34375 
Q 69.046875 39.0625 65.140625 54.6875 
L 74.8125 54.6875 
Q 79.296875 39.0625 77.09375 27.59375 
Q 71.53125 -1.46875 51.21875 -1.421875 
Q 37.9375 -1.375 39.109375 13.1875 
Q 34.28125 -1.421875 21.390625 -1.421875 
z
" id="DejaVuSans-Oblique-969"/>
      </defs>
      <use transform="translate(0 0.3125)" xlink:href="#DejaVuSans-Oblique-969"/>
     </g>
    </g>
   </g>
   <g id="LineCollection_1">
    <path clip-path="url(#p62e7ce62af)" d="M 42.017784 315 
L 42.017784 59.367612 
" style="fill:none;stroke:#808080;stroke-opacity:0.5;stroke-width:1.5;"/>
    <path clip-path="url(#p62e7ce62af)" d="M 50.240397 315 
L 50.240397 59.457603 
" style="fill:none;stroke:#808080;stroke-opacity:0.5;stroke-width:1.5;"/>
    <path clip-path="url(#p62e7ce62af)" d="M 58.463011 315 
L 58.463011 59.727469 
" style="fill:none;stroke:#808080;stroke-opacity:0.5;stroke-width:1.5;"/>
    <path clip-path="url(#p62e7ce62af)" d="M 66.685625 315 
L 66.685625 60.176893 
" style="fill:none;stroke:#808080;stroke-opacity:0.5;stroke-width:1.5;"/>
    <path clip-path="url(#p62e7ce62af)" d="M 74.908238 315 
L 74.908238 60.805339 
" style="fill:none;stroke:#808080;stroke-opacity:0.5;stroke-width:1.5;"/>
    <path clip-path="url(#p62e7ce62af)" d="M 83.130852 315 
L 83.130852 61.612048 
" style="fill:none;stroke:#808080;stroke-opacity:0.5;stroke-width:1.5;"/>
    <path clip-path="url(#p62e7ce62af)" d="M 91.353466 315 
L 91.353466 62.596029 
" style="fill:none;stroke:#808080;stroke-opacity:0.5;stroke-width:1.5;"/>
    <path clip-path="url(#p62e7ce62af)" d="M 99.576079 315 
L 99.576079 63.756042 
" style="fill:none;stroke:#808080;stroke-opacity:0.5;stroke-width:1.5;"/>
    <path clip-path="url(#p62e7ce62af)" d="M 107.798693 315 
L 107.798693 65.090584 
" style="fill:none;stroke:#808080;stroke-opacity:0.5;stroke-width:1.5;"/>
    <path clip-path="url(#p62e7ce62af)" d="M 116.021307 315 
L 116.021307 66.59786 
" style="fill:none;stroke:#808080;stroke-opacity:0.5;stroke-width:1.5;"/>
    <path clip-path="url(#p62e7ce62af)" d="M 124.24392 315 
L 124.24392 68.275751 
" style="fill:none;stroke:#808080;stroke-opacity:0.5;stroke-width:1.5;"/>
    <path clip-path="url(#p62e7ce62af)" d="M 132.466534 315 
L 132.466534 70.12177 
" style="fill:none;stroke:#808080;stroke-opacity:0.5;stroke-width:1.5;"/>
    <path clip-path="url(#p62e7ce62af)" d="M 140.689148 315 
L 140.689148 72.132997 
" style="fill:none;stroke:#808080;stroke-opacity:0.5;stroke-width:1.5;"/>
    <path clip-path="url(#p62e7ce62af)" d="M 148.911761 315 
L 148.911761 74.306004 
" style="fill:none;stroke:#808080;stroke-opacity:0.5;stroke-width:1.5;"/>
    <path clip-path="url(#p62e7ce62af)" d="M 157.134375 315 
L 157.134375 76.636737 
" style="fill:none;stroke:#808080;stroke-opacity:0.5;stroke-width:1.5;"/>
    <path clip-path="url(#p62e7ce62af)" d="M 165.356989 315 
L 165.356989 79.120361 
" style="fill:none;stroke:#808080;stroke-opacity:0.5;stroke-width:1.5;"/>
    <path clip-path="url(#p62e7ce62af)" d="M 173.579602 315 
L 173.579602 81.751033 
" style="fill:none;stroke:#808080;stroke-opacity:0.5;stroke-width:1.5;"/>
    <path clip-path="url(#p62e7ce62af)" d="M 181.802216 315 
L 181.802216 84.521589 
" style="fill:none;stroke:#808080;stroke-opacity:0.5;stroke-width:1.5;"/>
    <path clip-path="url(#p62e7ce62af)" d="M 190.02483 315 
L 190.02483 87.423068 
" style="fill:none;stroke:#808080;stroke-opacity:0.5;stroke-width:1.5;"/>
    <path clip-path="url(#p62e7ce62af)" d="M 198.247443 315 
L 198.247443 90.444012 
" style="fill:none;stroke:#808080;stroke-opacity:0.5;stroke-width:1.5;"/>
    <path clip-path="url(#p62e7ce62af)" d="M 206.470057 315 
L 206.470057 93.569386 
" style="fill:none;stroke:#808080;stroke-opacity:0.5;stroke-width:1.5;"/>
    <path clip-path="url(#p62e7ce62af)" d="M 214.692671 315 
L 214.692671 96.778896 
" style="fill:none;stroke:#808080;stroke-opacity:0.5;stroke-width:1.5;"/>
    <path clip-path="url(#p62e7ce62af)" d="M 222.915284 315 
L 222.915284 100.044294 
" style="fill:none;stroke:#808080;stroke-opacity:0.5;stroke-width:1.5;"/>
    <path clip-path="url(#p62e7ce62af)" d="M 231.137898 315 
L 231.137898 103.324985 
" style="fill:none;stroke:#808080;stroke-opacity:0.5;stroke-width:1.5;"/>
    <path clip-path="url(#p62e7ce62af)" d="M 239.360512 315 
L 239.360512 106.56084 
" style="fill:none;stroke:#808080;stroke-opacity:0.5;stroke-width:1.5;"/>
    <path clip-path="url(#p62e7ce62af)" d="M 247.583125 315 
L 247.583125 109.660631 
" style="fill:none;stroke:#808080;stroke-opacity:0.5;stroke-width:1.5;"/>
    <path clip-path="url(#p62e7ce62af)" d="M 255.805739 315 
L 255.805739 112.48502 
" style="fill:none;stroke:#808080;stroke-opacity:0.5;stroke-width:1.5;"/>
    <path clip-path="url(#p62e7ce62af)" d="M 264.028353 315 
L 264.028353 114.828 
" style="fill:none;stroke:#808080;stroke-opacity:0.5;stroke-width:1.5;"/>
    <path clip-path="url(#p62e7ce62af)" d="M 272.250966 315 
L 272.250966 116.418308 
" style="fill:none;stroke:#808080;stroke-opacity:0.5;stroke-width:1.5;"/>
    <path clip-path="url(#p62e7ce62af)" d="M 280.47358 315 
L 280.47358 116.988004 
" style="fill:none;stroke:#808080;stroke-opacity:0.5;stroke-width:1.5;"/>
   </g>
   <g id="LineCollection_2">
    <path clip-path="url(#p62e7ce62af)" d="M 42.017784 59.367612 
L 280.47358 59.367612 
" style="fill:none;stroke:#808080;stroke-opacity:0.5;stroke-width:1.5;"/>
    <path clip-path="url(#p62e7ce62af)" d="M 50.240397 59.457603 
L 280.47358 59.457603 
" style="fill:none;stroke:#808080;stroke-opacity:0.5;stroke-width:1.5;"/>
    <path clip-path="url(#p62e7ce62af)" d="M 58.463011 59.727469 
L 280.47358 59.727469 
" style="fill:none;stroke:#808080;stroke-opacity:0.5;stroke-width:1.5;"/>
    <path clip-path="url(#p62e7ce62af)" d="M 66.685625 60.176893 
L 280.47358 60.176893 
" style="fill:none;stroke:#808080;stroke-opacity:0.5;stroke-width:1.5;"/>
    <path clip-path="url(#p62e7ce62af)" d="M 74.908238 60.805339 
L 280.47358 60.805339 
" style="fill:none;stroke:#808080;stroke-opacity:0.5;stroke-width:1.5;"/>
    <path clip-path="url(#p62e7ce62af)" d="M 83.130852 61.612048 
L 280.47358 61.612048 
" style="fill:none;stroke:#808080;stroke-opacity:0.5;stroke-width:1.5;"/>
    <path clip-path="url(#p62e7ce62af)" d="M 91.353466 62.596029 
L 280.47358 62.596029 
" style="fill:none;stroke:#808080;stroke-opacity:0.5;stroke-width:1.5;"/>
    <path clip-path="url(#p62e7ce62af)" d="M 99.576079 63.756042 
L 280.47358 63.756042 
" style="fill:none;stroke:#808080;stroke-opacity:0.5;stroke-width:1.5;"/>
    <path clip-path="url(#p62e7ce62af)" d="M 107.798693 65.090584 
L 280.47358 65.090584 
" style="fill:none;stroke:#808080;stroke-opacity:0.5;stroke-width:1.5;"/>
    <path clip-path="url(#p62e7ce62af)" d="M 116.021307 66.59786 
L 280.47358 66.59786 
" style="fill:none;stroke:#808080;stroke-opacity:0.5;stroke-width:1.5;"/>
    <path clip-path="url(#p62e7ce62af)" d="M 124.24392 68.275751 
L 280.47358 68.275751 
" style="fill:none;stroke:#808080;stroke-opacity:0.5;stroke-width:1.5;"/>
    <path clip-path="url(#p62e7ce62af)" d="M 132.466534 70.12177 
L 280.47358 70.12177 
" style="fill:none;stroke:#808080;stroke-opacity:0.5;stroke-width:1.5;"/>
    <path clip-path="url(#p62e7ce62af)" d="M 140.689148 72.132997 
L 280.47358 72.132997 
" style="fill:none;stroke:#808080;stroke-opacity:0.5;stroke-width:1.5;"/>
    <path clip-path="url(#p62e7ce62af)" d="M 148.911761 74.306004 
L 280.47358 74.306004 
" style="fill:none;stroke:#808080;stroke-opacity:0.5;stroke-width:1.5;"/>
    <path clip-path="url(#p62e7ce62af)" d="M 157.134375 76.636737 
L 280.47358 76.636737 
" style="fill:none;stroke:#808080;stroke-opacity:0.5;stroke-width:1.5;"/>
    <path clip-path="url(#p62e7ce62af)" d="M 165.356989 79.120361 
L 280.47358 79.120361 
" style="fill:none;stroke:#808080;stroke-opacity:0.5;stroke-width:1.5;"/>
    <path clip-path="url(#p62e7ce62af)" d="M 173.579602 81.751033 
L 280.47358 81.751033 
" style="fill:none;stroke:#808080;stroke-opacity:0.5;stroke-width:1.5;"/>
    <path clip-path="url(#p62e7ce62af)" d="M 181.802216 84.521589 
L 280.47358 84.521589 
" style="fill:none;stroke:#808080;stroke-opacity:0.5;stroke-width:1.5;"/>
    <path clip-path="url(#p62e7ce62af)" d="M 190.02483 87.423068 
L 280.47358 87.423068 
" style="fill:none;stroke:#808080;stroke-opacity:0.5;stroke-width:1.5;"/>
    <path clip-path="url(#p62e7ce62af)" d="M 198.247443 90.444012 
L 280.47358 90.444012 
" style="fill:none;stroke:#808080;stroke-opacity:0.5;stroke-width:1.5;"/>
    <path clip-path="url(#p62e7ce62af)" d="M 206.470057 93.569386 
L 280.47358 93.569386 
" style="fill:none;stroke:#808080;stroke-opacity:0.5;stroke-width:1.5;"/>
    <path clip-path="url(#p62e7ce62af)" d="M 214.692671 96.778896 
L 280.47358 96.778896 
" style="fill:none;stroke:#808080;stroke-opacity:0.5;stroke-width:1.5;"/>
    <path clip-path="url(#p62e7ce62af)" d="M 222.915284 100.044294 
L 280.47358 100.044294 
" style="fill:none;stroke:#808080;stroke-opacity:0.5;stroke-width:1.5;"/>
    <path clip-path="url(#p62e7ce62af)" d="M 231.137898 103.324985 
L 280.47358 103.324985 
" style="fill:none;stroke:#808080;stroke-opacity:0.5;stroke-width:1.5;"/>
    <path clip-path="url(#p62e7ce62af)" d="M 239.360512 106.56084 
L 280.47358 106.56084 
" style="fill:none;stroke:#808080;stroke-opacity:0.5;stroke-width:1.5;"/>
    <path clip-path="url(#p62e7ce62af)" d="M 247.583125 109.660631 
L 280.47358 109.660631 
" style="fill:none;stroke:#808080;stroke-opacity:0.5;stroke-width:1.5;"/>
    <path clip-path="url(#p62e7ce62af)" d="M 255.805739 112.48502 
L 280.47358 112.48502 
" style="fill:none;stroke:#808080;stroke-opacity:0.5;stroke-width:1.5;"/>
    <path clip-path="url(#p62e7ce62af)" d="M 264.028353 114.828 
L 280.47358 114.828 
" style="fill:none;stroke:#808080;stroke-opacity:0.5;stroke-width:1.5;"/>
    <path clip-path="url(#p62e7ce62af)" d="M 272.250966 116.418308 
L 280.47358 116.418308 
" style="fill:none;stroke:#808080;stroke-opacity:0.5;stroke-width:1.5;"/>
    <path clip-path="url(#p62e7ce62af)" d="M 280.47358 116.988004 
L 280.47358 116.988004 
" style="fill:none;stroke:#808080;stroke-opacity:0.5;stroke-width:1.5;"/>
    <path clip-path="url(#p62e7ce62af)" d="M 42.017784 315 
L 280.47358 315 
" style="fill:none;stroke:#808080;stroke-opacity:0.5;stroke-width:1.5;"/>
    <path clip-path="url(#p62e7ce62af)" d="M 50.240397 308.217592 
L 280.47358 308.217592 
" style="fill:none;stroke:#808080;stroke-opacity:0.5;stroke-width:1.5;"/>
    <path clip-path="url(#p62e7ce62af)" d="M 58.463011 301.440759 
L 280.47358 301.440759 
" style="fill:none;stroke:#808080;stroke-opacity:0.5;stroke-width:1.5;"/>
    <path clip-path="url(#p62e7ce62af)" d="M 66.685625 294.675084 
L 280.47358 294.675084 
" style="fill:none;stroke:#808080;stroke-opacity:0.5;stroke-width:1.5;"/>
    <path clip-path="url(#p62e7ce62af)" d="M 74.908238 287.92617 
L 280.47358 287.92617 
" style="fill:none;stroke:#808080;stroke-opacity:0.5;stroke-width:1.5;"/>
    <path clip-path="url(#p62e7ce62af)" d="M 83.130852 281.199649 
L 280.47358 281.199649 
" style="fill:none;stroke:#808080;stroke-opacity:0.5;stroke-width:1.5;"/>
    <path clip-path="url(#p62e7ce62af)" d="M 91.353466 274.501197 
L 280.47358 274.501197 
" style="fill:none;stroke:#808080;stroke-opacity:0.5;stroke-width:1.5;"/>
    <path clip-path="url(#p62e7ce62af)" d="M 99.576079 267.836546 
L 280.47358 267.836546 
" style="fill:none;stroke:#808080;stroke-opacity:0.5;stroke-width:1.5;"/>
    <path clip-path="url(#p62e7ce62af)" d="M 107.798693 261.211509 
L 280.47358 261.211509 
" style="fill:none;stroke:#808080;stroke-opacity:0.5;stroke-width:1.5;"/>
    <path clip-path="url(#p62e7ce62af)" d="M 116.021307 254.632004 
L 280.47358 254.632004 
" style="fill:none;stroke:#808080;stroke-opacity:0.5;stroke-width:1.5;"/>
    <path clip-path="url(#p62e7ce62af)" d="M 124.24392 248.104088 
L 280.47358 248.104088 
" style="fill:none;stroke:#808080;stroke-opacity:0.5;stroke-width:1.5;"/>
    <path clip-path="url(#p62e7ce62af)" d="M 132.466534 241.633999 
L 280.47358 241.633999 
" style="fill:none;stroke:#808080;stroke-opacity:0.5;stroke-width:1.5;"/>
    <path clip-path="url(#p62e7ce62af)" d="M 140.689148 235.228221 
L 280.47358 235.228221 
" style="fill:none;stroke:#808080;stroke-opacity:0.5;stroke-width:1.5;"/>
    <path clip-path="url(#p62e7ce62af)" d="M 148.911761 228.893564 
L 280.47358 228.893564 
" style="fill:none;stroke:#808080;stroke-opacity:0.5;stroke-width:1.5;"/>
    <path clip-path="url(#p62e7ce62af)" d="M 157.134375 222.637275 
L 280.47358 222.637275 
" style="fill:none;stroke:#808080;stroke-opacity:0.5;stroke-width:1.5;"/>
    <path clip-path="url(#p62e7ce62af)" d="M 165.356989 216.467195 
L 280.47358 216.467195 
" style="fill:none;stroke:#808080;stroke-opacity:0.5;stroke-width:1.5;"/>
    <path clip-path="url(#p62e7ce62af)" d="M 173.579602 210.391983 
L 280.47358 210.391983 
" style="fill:none;stroke:#808080;stroke-opacity:0.5;stroke-width:1.5;"/>
    <path clip-path="url(#p62e7ce62af)" d="M 181.802216 204.421431 
L 280.47358 204.421431 
" style="fill:none;stroke:#808080;stroke-opacity:0.5;stroke-width:1.5;"/>
    <path clip-path="url(#p62e7ce62af)" d="M 190.02483 198.566938 
L 280.47358 198.566938 
" style="fill:none;stroke:#808080;stroke-opacity:0.5;stroke-width:1.5;"/>
    <path clip-path="url(#p62e7ce62af)" d="M 198.247443 192.842208 
L 280.47358 192.842208 
" style="fill:none;stroke:#808080;stroke-opacity:0.5;stroke-width:1.5;"/>
    <path clip-path="url(#p62e7ce62af)" d="M 206.470057 187.264331 
L 280.47358 187.264331 
" style="fill:none;stroke:#808080;stroke-opacity:0.5;stroke-width:1.5;"/>
    <path clip-path="url(#p62e7ce62af)" d="M 214.692671 181.855463 
L 280.47358 181.855463 
" style="fill:none;stroke:#808080;stroke-opacity:0.5;stroke-width:1.5;"/>
    <path clip-path="url(#p62e7ce62af)" d="M 222.915284 176.64552 
L 280.47358 176.64552 
" style="fill:none;stroke:#808080;stroke-opacity:0.5;stroke-width:1.5;"/>
    <path clip-path="url(#p62e7ce62af)" d="M 231.137898 171.676569 
L 280.47358 171.676569 
" style="fill:none;stroke:#808080;stroke-opacity:0.5;stroke-width:1.5;"/>
    <path clip-path="url(#p62e7ce62af)" d="M 239.360512 167.01002 
L 280.47358 167.01002 
" style="fill:none;stroke:#808080;stroke-opacity:0.5;stroke-width:1.5;"/>
    <path clip-path="url(#p62e7ce62af)" d="M 247.583125 162.738181 
L 280.47358 162.738181 
" style="fill:none;stroke:#808080;stroke-opacity:0.5;stroke-width:1.5;"/>
    <path clip-path="url(#p62e7ce62af)" d="M 255.805739 159.00128 
L 280.47358 159.00128 
" style="fill:none;stroke:#808080;stroke-opacity:0.5;stroke-width:1.5;"/>
    <path clip-path="url(#p62e7ce62af)" d="M 264.028353 156.006012 
L 280.47358 156.006012 
" style="fill:none;stroke:#808080;stroke-opacity:0.5;stroke-width:1.5;"/>
    <path clip-path="url(#p62e7ce62af)" d="M 272.250966 154.024133 
L 280.47358 154.024133 
" style="fill:none;stroke:#808080;stroke-opacity:0.5;stroke-width:1.5;"/>
    <path clip-path="url(#p62e7ce62af)" d="M 280.47358 153.323882 
L 280.47358 153.323882 
" style="fill:none;stroke:#808080;stroke-opacity:0.5;stroke-width:1.5;"/>
   </g>
   <g id="line2d_3">
    <path clip-path="url(#p62e7ce62af)" d="M 42.017784 59.367612 
L 50.790405 59.470043 
L 59.563026 59.777199 
L 68.335648 60.288666 
L 77.90578 61.078823 
L 87.475912 62.109996 
L 97.046044 63.380451 
L 106.616177 64.88798 
L 116.186309 66.629861 
L 125.756441 68.602781 
L 135.326574 70.802752 
L 144.896706 73.224965 
L 154.466838 75.863607 
L 164.834481 78.958095 
L 175.202125 82.286907 
L 186.367279 86.116943 
L 198.329944 90.47488 
L 211.090121 95.363952 
L 231.825407 103.598276 
L 244.585584 108.553901 
L 252.560694 111.41479 
L 258.143271 113.210878 
L 262.928337 114.551761 
L 267.713404 115.651281 
L 271.700959 116.341249 
L 275.688514 116.792584 
L 279.676069 116.98254 
L 280.47358 116.988004 
L 280.47358 116.988004 
" style="fill:none;stroke:#1f77b4;stroke-linecap:square;stroke-width:1.5;"/>
   </g>
   <g id="line2d_4">
    <path clip-path="url(#p62e7ce62af)" d="M 42.017784 315 
L 85.88089 278.955958 
L 109.00871 260.240287 
L 128.148974 245.023735 
L 144.896706 231.977411 
L 160.049415 220.439598 
L 174.404614 209.788033 
L 187.16479 200.589322 
L 199.127455 192.237887 
L 209.495099 185.253413 
L 219.065231 179.05787 
L 227.837852 173.638458 
L 235.812963 168.981221 
L 242.193051 165.487987 
L 248.573139 162.256519 
L 254.155716 159.699386 
L 258.940782 157.758179 
L 262.928337 156.354416 
L 266.915892 155.179515 
L 270.903448 154.267289 
L 274.093492 153.748111 
L 277.283536 153.430711 
L 280.47358 153.323882 
L 280.47358 153.323882 
" style="fill:none;stroke:#ff7f0e;stroke-linecap:square;stroke-width:1.5;"/>
   </g>
   <g id="patch_3">
    <path d="M 34.4275 315 
L 34.4275 43.2 
" style="fill:none;stroke:#000000;stroke-linecap:square;stroke-linejoin:miter;stroke-width:2.5;"/>
   </g>
   <g id="patch_4">
    <path d="M 288.063864 315 
L 288.063864 43.2 
" style="fill:none;stroke:#000000;stroke-linecap:square;stroke-linejoin:miter;stroke-width:2.5;"/>
   </g>
   <g id="patch_5">
    <path d="M 34.4275 315 
L 288.063864 315 
" style="fill:none;stroke:#000000;stroke-linecap:square;stroke-linejoin:miter;stroke-width:2.5;"/>
   </g>
   <g id="patch_6">
    <path d="M 34.4275 43.2 
L 288.063864 43.2 
" style="fill:none;stroke:#000000;stroke-linecap:square;stroke-linejoin:miter;stroke-width:2.5;"/>
   </g>
  </g>
  <g id="axes_2">
   <g id="patch_7">
    <path d="M 338.791136 315 
L 592.4275 315 
L 592.4275 43.2 
L 338.791136 43.2 
z
" style="fill:#ffffff;"/>
   </g>
   <g id="patch_8">
    <path clip-path="url(#pae3a202574)" d="M 338.791136 315 
L 379.427136 315 
L 379.427136 311.591568 
L 338.791136 311.591568 
z
" style="fill:#1f77b4;"/>
   </g>
   <g id="patch_9">
    <path clip-path="url(#pae3a202574)" d="M 338.791136 311.591568 
L 379.427136 311.591568 
L 379.427136 308.183136 
L 338.791136 308.183136 
z
" style="fill:#1f77b4;"/>
   </g>
   <g id="patch_10">
    <path clip-path="url(#pae3a202574)" d="M 338.791136 308.183136 
L 374.912025 308.183136 
L 374.912025 304.774704 
L 338.791136 304.774704 
z
" style="fill:#1f77b4;"/>
   </g>
   <g id="patch_11">
    <path clip-path="url(#pae3a202574)" d="M 338.791136 304.774704 
L 379.427136 304.774704 
L 379.427136 301.366273 
L 338.791136 301.366273 
z
" style="fill:#1f77b4;"/>
   </g>
   <g id="patch_12">
    <path clip-path="url(#pae3a202574)" d="M 338.791136 301.366273 
L 379.427136 301.366273 
L 379.427136 297.957841 
L 338.791136 297.957841 
z
" style="fill:#1f77b4;"/>
   </g>
   <g id="patch_13">
    <path clip-path="url(#pae3a202574)" d="M 338.791136 297.957841 
L 374.912025 297.957841 
L 374.912025 294.549409 
L 338.791136 294.549409 
z
" style="fill:#1f77b4;"/>
   </g>
   <g id="patch_14">
    <path clip-path="url(#pae3a202574)" d="M 338.791136 294.549409 
L 379.427136 294.549409 
L 379.427136 291.140977 
L 338.791136 291.140977 
z
" style="fill:#1f77b4;"/>
   </g>
   <g id="patch_15">
    <path clip-path="url(#pae3a202574)" d="M 338.791136 291.140977 
L 379.427136 291.140977 
L 379.427136 287.732545 
L 338.791136 287.732545 
z
" style="fill:#1f77b4;"/>
   </g>
   <g id="patch_16">
    <path clip-path="url(#pae3a202574)" d="M 338.791136 287.732545 
L 379.427136 287.732545 
L 379.427136 284.324113 
L 338.791136 284.324113 
z
" style="fill:#1f77b4;"/>
   </g>
   <g id="patch_17">
    <path clip-path="url(#pae3a202574)" d="M 338.791136 284.324113 
L 374.912025 284.324113 
L 374.912025 280.915682 
L 338.791136 280.915682 
z
" style="fill:#1f77b4;"/>
   </g>
   <g id="patch_18">
    <path clip-path="url(#pae3a202574)" d="M 338.791136 280.915682 
L 379.427136 280.915682 
L 379.427136 277.50725 
L 338.791136 277.50725 
z
" style="fill:#1f77b4;"/>
   </g>
   <g id="patch_19">
    <path clip-path="url(#pae3a202574)" d="M 338.791136 277.50725 
L 379.427136 277.50725 
L 379.427136 274.098818 
L 338.791136 274.098818 
z
" style="fill:#1f77b4;"/>
   </g>
   <g id="patch_20">
    <path clip-path="url(#pae3a202574)" d="M 338.791136 274.098818 
L 379.427136 274.098818 
L 379.427136 270.690386 
L 338.791136 270.690386 
z
" style="fill:#1f77b4;"/>
   </g>
   <g id="patch_21">
    <path clip-path="url(#pae3a202574)" d="M 338.791136 270.690386 
L 379.427136 270.690386 
L 379.427136 267.281954 
L 338.791136 267.281954 
z
" style="fill:#1f77b4;"/>
   </g>
   <g id="patch_22">
    <path clip-path="url(#pae3a202574)" d="M 338.791136 267.281954 
L 374.912025 267.281954 
L 374.912025 263.873522 
L 338.791136 263.873522 
z
" style="fill:#1f77b4;"/>
   </g>
   <g id="patch_23">
    <path clip-path="url(#pae3a202574)" d="M 338.791136 263.873522 
L 379.427136 263.873522 
L 379.427136 260.465091 
L 338.791136 260.465091 
z
" style="fill:#1f77b4;"/>
   </g>
   <g id="patch_24">
    <path clip-path="url(#pae3a202574)" d="M 338.791136 260.465091 
L 379.427136 260.465091 
L 379.427136 257.056659 
L 338.791136 257.056659 
z
" style="fill:#1f77b4;"/>
   </g>
   <g id="patch_25">
    <path clip-path="url(#pae3a202574)" d="M 338.791136 257.056659 
L 379.427136 257.056659 
L 379.427136 253.648227 
L 338.791136 253.648227 
z
" style="fill:#1f77b4;"/>
   </g>
   <g id="patch_26">
    <path clip-path="url(#pae3a202574)" d="M 338.791136 253.648227 
L 379.427136 253.648227 
L 379.427136 250.239795 
L 338.791136 250.239795 
z
" style="fill:#1f77b4;"/>
   </g>
   <g id="patch_27">
    <path clip-path="url(#pae3a202574)" d="M 338.791136 250.239795 
L 379.427136 250.239795 
L 379.427136 246.831363 
L 338.791136 246.831363 
z
" style="fill:#1f77b4;"/>
   </g>
   <g id="patch_28">
    <path clip-path="url(#pae3a202574)" d="M 338.791136 246.831363 
L 379.427136 246.831363 
L 379.427136 243.422931 
L 338.791136 243.422931 
z
" style="fill:#1f77b4;"/>
   </g>
   <g id="patch_29">
    <path clip-path="url(#pae3a202574)" d="M 338.791136 243.422931 
L 379.427136 243.422931 
L 379.427136 240.014499 
L 338.791136 240.014499 
z
" style="fill:#1f77b4;"/>
   </g>
   <g id="patch_30">
    <path clip-path="url(#pae3a202574)" d="M 338.791136 240.014499 
L 379.427136 240.014499 
L 379.427136 236.606068 
L 338.791136 236.606068 
z
" style="fill:#1f77b4;"/>
   </g>
   <g id="patch_31">
    <path clip-path="url(#pae3a202574)" d="M 338.791136 236.606068 
L 383.942247 236.606068 
L 383.942247 233.197636 
L 338.791136 233.197636 
z
" style="fill:#1f77b4;"/>
   </g>
   <g id="patch_32">
    <path clip-path="url(#pae3a202574)" d="M 338.791136 233.197636 
L 379.427136 233.197636 
L 379.427136 229.789204 
L 338.791136 229.789204 
z
" style="fill:#1f77b4;"/>
   </g>
   <g id="patch_33">
    <path clip-path="url(#pae3a202574)" d="M 338.791136 229.789204 
L 379.427136 229.789204 
L 379.427136 226.380772 
L 338.791136 226.380772 
z
" style="fill:#1f77b4;"/>
   </g>
   <g id="patch_34">
    <path clip-path="url(#pae3a202574)" d="M 338.791136 226.380772 
L 383.942247 226.380772 
L 383.942247 222.97234 
L 338.791136 222.97234 
z
" style="fill:#1f77b4;"/>
   </g>
   <g id="patch_35">
    <path clip-path="url(#pae3a202574)" d="M 338.791136 222.97234 
L 379.427136 222.97234 
L 379.427136 219.563908 
L 338.791136 219.563908 
z
" style="fill:#1f77b4;"/>
   </g>
   <g id="patch_36">
    <path clip-path="url(#pae3a202574)" d="M 338.791136 219.563908 
L 383.942247 219.563908 
L 383.942247 216.155477 
L 338.791136 216.155477 
z
" style="fill:#1f77b4;"/>
   </g>
   <g id="patch_37">
    <path clip-path="url(#pae3a202574)" d="M 338.791136 216.155477 
L 379.427136 216.155477 
L 379.427136 212.747045 
L 338.791136 212.747045 
z
" style="fill:#1f77b4;"/>
   </g>
   <g id="patch_38">
    <path clip-path="url(#pae3a202574)" d="M 338.791136 212.747045 
L 383.942247 212.747045 
L 383.942247 209.338613 
L 338.791136 209.338613 
z
" style="fill:#1f77b4;"/>
   </g>
   <g id="patch_39">
    <path clip-path="url(#pae3a202574)" d="M 338.791136 209.338613 
L 383.942247 209.338613 
L 383.942247 205.930181 
L 338.791136 205.930181 
z
" style="fill:#1f77b4;"/>
   </g>
   <g id="patch_40">
    <path clip-path="url(#pae3a202574)" d="M 338.791136 205.930181 
L 383.942247 205.930181 
L 383.942247 202.521749 
L 338.791136 202.521749 
z
" style="fill:#1f77b4;"/>
   </g>
   <g id="patch_41">
    <path clip-path="url(#pae3a202574)" d="M 338.791136 202.521749 
L 383.942247 202.521749 
L 383.942247 199.113317 
L 338.791136 199.113317 
z
" style="fill:#1f77b4;"/>
   </g>
   <g id="patch_42">
    <path clip-path="url(#pae3a202574)" d="M 338.791136 199.113317 
L 383.942247 199.113317 
L 383.942247 195.704886 
L 338.791136 195.704886 
z
" style="fill:#1f77b4;"/>
   </g>
   <g id="patch_43">
    <path clip-path="url(#pae3a202574)" d="M 338.791136 195.704886 
L 383.942247 195.704886 
L 383.942247 192.296454 
L 338.791136 192.296454 
z
" style="fill:#1f77b4;"/>
   </g>
   <g id="patch_44">
    <path clip-path="url(#pae3a202574)" d="M 338.791136 192.296454 
L 388.457358 192.296454 
L 388.457358 188.888022 
L 338.791136 188.888022 
z
" style="fill:#1f77b4;"/>
   </g>
   <g id="patch_45">
    <path clip-path="url(#pae3a202574)" d="M 338.791136 188.888022 
L 388.457358 188.888022 
L 388.457358 185.47959 
L 338.791136 185.47959 
z
" style="fill:#1f77b4;"/>
   </g>
   <g id="patch_46">
    <path clip-path="url(#pae3a202574)" d="M 338.791136 185.47959 
L 388.457358 185.47959 
L 388.457358 182.071158 
L 338.791136 182.071158 
z
" style="fill:#1f77b4;"/>
   </g>
   <g id="patch_47">
    <path clip-path="url(#pae3a202574)" d="M 338.791136 182.071158 
L 388.457358 182.071158 
L 388.457358 178.662726 
L 338.791136 178.662726 
z
" style="fill:#1f77b4;"/>
   </g>
   <g id="patch_48">
    <path clip-path="url(#pae3a202574)" d="M 338.791136 178.662726 
L 388.457358 178.662726 
L 388.457358 175.254294 
L 338.791136 175.254294 
z
" style="fill:#1f77b4;"/>
   </g>
   <g id="patch_49">
    <path clip-path="url(#pae3a202574)" d="M 338.791136 175.254294 
L 392.972469 175.254294 
L 392.972469 171.845863 
L 338.791136 171.845863 
z
" style="fill:#1f77b4;"/>
   </g>
   <g id="patch_50">
    <path clip-path="url(#pae3a202574)" d="M 338.791136 171.845863 
L 392.972469 171.845863 
L 392.972469 168.437431 
L 338.791136 168.437431 
z
" style="fill:#1f77b4;"/>
   </g>
   <g id="patch_51">
    <path clip-path="url(#pae3a202574)" d="M 338.791136 168.437431 
L 402.002691 168.437431 
L 402.002691 165.028999 
L 338.791136 165.028999 
z
" style="fill:#1f77b4;"/>
   </g>
   <g id="patch_52">
    <path clip-path="url(#pae3a202574)" d="M 338.791136 165.028999 
L 402.002691 165.028999 
L 402.002691 161.620567 
L 338.791136 161.620567 
z
" style="fill:#1f77b4;"/>
   </g>
   <g id="patch_53">
    <path clip-path="url(#pae3a202574)" d="M 338.791136 161.620567 
L 411.032913 161.620567 
L 411.032913 158.212135 
L 338.791136 158.212135 
z
" style="fill:#1f77b4;"/>
   </g>
   <g id="patch_54">
    <path clip-path="url(#pae3a202574)" d="M 338.791136 158.212135 
L 442.638691 158.212135 
L 442.638691 154.803703 
L 338.791136 154.803703 
z
" style="fill:#1f77b4;"/>
   </g>
   <g id="patch_55">
    <path clip-path="url(#pae3a202574)" d="M 338.791136 154.803703 
L 451.668913 154.803703 
L 451.668913 151.395272 
L 338.791136 151.395272 
z
" style="fill:#1f77b4;"/>
   </g>
   <g id="patch_56">
    <path clip-path="url(#pae3a202574)" d="M 338.791136 151.395272 
L 338.791136 151.395272 
L 338.791136 147.98684 
L 338.791136 147.98684 
z
" style="fill:#1f77b4;"/>
   </g>
   <g id="patch_57">
    <path clip-path="url(#pae3a202574)" d="M 338.791136 147.98684 
L 338.791136 147.98684 
L 338.791136 144.578408 
L 338.791136 144.578408 
z
" style="fill:#1f77b4;"/>
   </g>
   <g id="patch_58">
    <path clip-path="url(#pae3a202574)" d="M 338.791136 144.578408 
L 338.791136 144.578408 
L 338.791136 141.169976 
L 338.791136 141.169976 
z
" style="fill:#1f77b4;"/>
   </g>
   <g id="patch_59">
    <path clip-path="url(#pae3a202574)" d="M 338.791136 141.169976 
L 338.791136 141.169976 
L 338.791136 137.761544 
L 338.791136 137.761544 
z
" style="fill:#1f77b4;"/>
   </g>
   <g id="patch_60">
    <path clip-path="url(#pae3a202574)" d="M 338.791136 137.761544 
L 338.791136 137.761544 
L 338.791136 134.353112 
L 338.791136 134.353112 
z
" style="fill:#1f77b4;"/>
   </g>
   <g id="patch_61">
    <path clip-path="url(#pae3a202574)" d="M 338.791136 134.353112 
L 338.791136 134.353112 
L 338.791136 130.944681 
L 338.791136 130.944681 
z
" style="fill:#1f77b4;"/>
   </g>
   <g id="patch_62">
    <path clip-path="url(#pae3a202574)" d="M 338.791136 130.944681 
L 338.791136 130.944681 
L 338.791136 127.536249 
L 338.791136 127.536249 
z
" style="fill:#1f77b4;"/>
   </g>
   <g id="patch_63">
    <path clip-path="url(#pae3a202574)" d="M 338.791136 127.536249 
L 338.791136 127.536249 
L 338.791136 124.127817 
L 338.791136 124.127817 
z
" style="fill:#1f77b4;"/>
   </g>
   <g id="patch_64">
    <path clip-path="url(#pae3a202574)" d="M 338.791136 124.127817 
L 338.791136 124.127817 
L 338.791136 120.719385 
L 338.791136 120.719385 
z
" style="fill:#1f77b4;"/>
   </g>
   <g id="patch_65">
    <path clip-path="url(#pae3a202574)" d="M 338.791136 120.719385 
L 338.791136 120.719385 
L 338.791136 117.310953 
L 338.791136 117.310953 
z
" style="fill:#1f77b4;"/>
   </g>
   <g id="patch_66">
    <path clip-path="url(#pae3a202574)" d="M 338.791136 117.310953 
L 528.425801 117.310953 
L 528.425801 113.902521 
L 338.791136 113.902521 
z
" style="fill:#1f77b4;"/>
   </g>
   <g id="patch_67">
    <path clip-path="url(#pae3a202574)" d="M 338.791136 113.902521 
L 438.12358 113.902521 
L 438.12358 110.494089 
L 338.791136 110.494089 
z
" style="fill:#1f77b4;"/>
   </g>
   <g id="patch_68">
    <path clip-path="url(#pae3a202574)" d="M 338.791136 110.494089 
L 424.578246 110.494089 
L 424.578246 107.085658 
L 338.791136 107.085658 
z
" style="fill:#1f77b4;"/>
   </g>
   <g id="patch_69">
    <path clip-path="url(#pae3a202574)" d="M 338.791136 107.085658 
L 420.063135 107.085658 
L 420.063135 103.677226 
L 338.791136 103.677226 
z
" style="fill:#1f77b4;"/>
   </g>
   <g id="patch_70">
    <path clip-path="url(#pae3a202574)" d="M 338.791136 103.677226 
L 420.063135 103.677226 
L 420.063135 100.268794 
L 338.791136 100.268794 
z
" style="fill:#1f77b4;"/>
   </g>
   <g id="patch_71">
    <path clip-path="url(#pae3a202574)" d="M 338.791136 100.268794 
L 420.063135 100.268794 
L 420.063135 96.860362 
L 338.791136 96.860362 
z
" style="fill:#1f77b4;"/>
   </g>
   <g id="patch_72">
    <path clip-path="url(#pae3a202574)" d="M 338.791136 96.860362 
L 424.578246 96.860362 
L 424.578246 93.45193 
L 338.791136 93.45193 
z
" style="fill:#1f77b4;"/>
   </g>
   <g id="patch_73">
    <path clip-path="url(#pae3a202574)" d="M 338.791136 93.45193 
L 420.063135 93.45193 
L 420.063135 90.043498 
L 338.791136 90.043498 
z
" style="fill:#1f77b4;"/>
   </g>
   <g id="patch_74">
    <path clip-path="url(#pae3a202574)" d="M 338.791136 90.043498 
L 429.093358 90.043498 
L 429.093358 86.635067 
L 338.791136 86.635067 
z
" style="fill:#1f77b4;"/>
   </g>
   <g id="patch_75">
    <path clip-path="url(#pae3a202574)" d="M 338.791136 86.635067 
L 433.608469 86.635067 
L 433.608469 83.226635 
L 338.791136 83.226635 
z
" style="fill:#1f77b4;"/>
   </g>
   <g id="patch_76">
    <path clip-path="url(#pae3a202574)" d="M 338.791136 83.226635 
L 433.608469 83.226635 
L 433.608469 79.818203 
L 338.791136 79.818203 
z
" style="fill:#1f77b4;"/>
   </g>
   <g id="patch_77">
    <path clip-path="url(#pae3a202574)" d="M 338.791136 79.818203 
L 447.153802 79.818203 
L 447.153802 76.409771 
L 338.791136 76.409771 
z
" style="fill:#1f77b4;"/>
   </g>
   <g id="patch_78">
    <path clip-path="url(#pae3a202574)" d="M 338.791136 76.409771 
L 456.184024 76.409771 
L 456.184024 73.001339 
L 338.791136 73.001339 
z
" style="fill:#1f77b4;"/>
   </g>
   <g id="patch_79">
    <path clip-path="url(#pae3a202574)" d="M 338.791136 73.001339 
L 469.729357 73.001339 
L 469.729357 69.592907 
L 338.791136 69.592907 
z
" style="fill:#1f77b4;"/>
   </g>
   <g id="patch_80">
    <path clip-path="url(#pae3a202574)" d="M 338.791136 69.592907 
L 492.304912 69.592907 
L 492.304912 66.184475 
L 338.791136 66.184475 
z
" style="fill:#1f77b4;"/>
   </g>
   <g id="patch_81">
    <path clip-path="url(#pae3a202574)" d="M 338.791136 66.184475 
L 537.456023 66.184475 
L 537.456023 62.776044 
L 338.791136 62.776044 
z
" style="fill:#1f77b4;"/>
   </g>
   <g id="patch_82">
    <path clip-path="url(#pae3a202574)" d="M 338.791136 62.776044 
L 821.908019 62.776044 
L 821.908019 59.367612 
L 338.791136 59.367612 
z
" style="fill:#1f77b4;"/>
   </g>
   <g id="matplotlib.axis_3">
    <g id="text_5">
     <!-- $g(ω)$ -->
     <g transform="translate(438.489318 337.24)scale(0.24 -0.24)">
      <defs>
       <path d="M 59.625 54.6875 
L 50.296875 6.78125 
Q 47.609375 -7.125 40.015625 -13.953125 
Q 32.421875 -20.796875 19.578125 -20.796875 
Q 14.84375 -20.796875 10.78125 -20.09375 
Q 6.734375 -19.390625 3.21875 -17.921875 
L 4.890625 -9.1875 
Q 8.203125 -11.328125 11.90625 -12.34375 
Q 15.625 -13.375 19.828125 -13.375 
Q 28.375 -13.375 33.859375 -8.703125 
Q 39.359375 -4.046875 41.109375 4.6875 
L 41.890625 8.796875 
Q 38.140625 4.5 33.15625 2.25 
Q 28.171875 0 22.40625 0 
Q 14.109375 0 9.34375 5.484375 
Q 4.59375 10.984375 4.59375 20.609375 
Q 4.59375 28.171875 7.46875 35.421875 
Q 10.359375 42.671875 15.578125 48.296875 
Q 19.046875 52 23.65625 54 
Q 28.265625 56 33.296875 56 
Q 38.8125 56 42.90625 53.4375 
Q 47.015625 50.875 49.03125 46.1875 
L 50.59375 54.6875 
z
M 46.09375 34.625 
Q 46.09375 41.265625 42.96875 44.875 
Q 39.84375 48.484375 34.078125 48.484375 
Q 30.515625 48.484375 27.296875 47.0625 
Q 24.078125 45.65625 21.78125 43.109375 
Q 18.0625 38.921875 15.984375 33.234375 
Q 13.921875 27.546875 13.921875 21.484375 
Q 13.921875 14.75 17.0625 11.125 
Q 20.21875 7.515625 26.125 7.515625 
Q 34.671875 7.515625 40.375 15.25 
Q 46.09375 23 46.09375 34.625 
z
" id="DejaVuSans-Oblique-103"/>
       <path d="M 31 75.875 
Q 24.46875 64.65625 21.28125 53.65625 
Q 18.109375 42.671875 18.109375 31.390625 
Q 18.109375 20.125 21.3125 9.0625 
Q 24.515625 -2 31 -13.1875 
L 23.1875 -13.1875 
Q 15.875 -1.703125 12.234375 9.375 
Q 8.59375 20.453125 8.59375 31.390625 
Q 8.59375 42.28125 12.203125 53.3125 
Q 15.828125 64.359375 23.1875 75.875 
z
" id="DejaVuSans-40"/>
       <path d="M 8.015625 75.875 
L 15.828125 75.875 
Q 23.140625 64.359375 26.78125 53.3125 
Q 30.421875 42.28125 30.421875 31.390625 
Q 30.421875 20.453125 26.78125 9.375 
Q 23.140625 -1.703125 15.828125 -13.1875 
L 8.015625 -13.1875 
Q 14.5 -2 17.703125 9.0625 
Q 20.90625 20.125 20.90625 31.390625 
Q 20.90625 42.671875 17.703125 53.65625 
Q 14.5 64.65625 8.015625 75.875 
z
" id="DejaVuSans-41"/>
      </defs>
      <use transform="translate(0 0.125)" xlink:href="#DejaVuSans-Oblique-103"/>
      <use transform="translate(63.476562 0.125)" xlink:href="#DejaVuSans-40"/>
      <use transform="translate(102.490234 0.125)" xlink:href="#DejaVuSans-Oblique-969"/>
      <use transform="translate(186.230469 0.125)" xlink:href="#DejaVuSans-41"/>
     </g>
    </g>
   </g>
   <g id="matplotlib.axis_4"/>
   <g id="patch_83">
    <path d="M 338.791136 315 
L 338.791136 43.2 
" style="fill:none;stroke:#000000;stroke-linecap:square;stroke-linejoin:miter;stroke-width:2.5;"/>
   </g>
   <g id="patch_84">
    <path d="M 592.4275 315 
L 592.4275 43.2 
" style="fill:none;stroke:#000000;stroke-linecap:square;stroke-linejoin:miter;stroke-width:2.5;"/>
   </g>
   <g id="patch_85">
    <path d="M 338.791136 315 
L 592.4275 315 
" style="fill:none;stroke:#000000;stroke-linecap:square;stroke-linejoin:miter;stroke-width:2.5;"/>
   </g>
   <g id="patch_86">
    <path d="M 338.791136 43.2 
L 592.4275 43.2 
" style="fill:none;stroke:#000000;stroke-linecap:square;stroke-linejoin:miter;stroke-width:2.5;"/>
   </g>
  </g>
  <g id="text_6">
   <!-- Density of states -->
   <g transform="translate(223.2565 21.789)scale(0.192 -0.192)">
    <defs>
     <path d="M 19.671875 64.796875 
L 19.671875 8.109375 
L 31.59375 8.109375 
Q 46.6875 8.109375 53.6875 14.9375 
Q 60.6875 21.78125 60.6875 36.53125 
Q 60.6875 51.171875 53.6875 57.984375 
Q 46.6875 64.796875 31.59375 64.796875 
z
M 9.8125 72.90625 
L 30.078125 72.90625 
Q 51.265625 72.90625 61.171875 64.09375 
Q 71.09375 55.28125 71.09375 36.53125 
Q 71.09375 17.671875 61.125 8.828125 
Q 51.171875 0 30.078125 0 
L 9.8125 0 
z
" id="DejaVuSans-68"/>
     <path d="M 56.203125 29.59375 
L 56.203125 25.203125 
L 14.890625 25.203125 
Q 15.484375 15.921875 20.484375 11.0625 
Q 25.484375 6.203125 34.421875 6.203125 
Q 39.59375 6.203125 44.453125 7.46875 
Q 49.3125 8.734375 54.109375 11.28125 
L 54.109375 2.78125 
Q 49.265625 0.734375 44.1875 -0.34375 
Q 39.109375 -1.421875 33.890625 -1.421875 
Q 20.796875 -1.421875 13.15625 6.1875 
Q 5.515625 13.8125 5.515625 26.8125 
Q 5.515625 40.234375 12.765625 48.109375 
Q 20.015625 56 32.328125 56 
Q 43.359375 56 49.78125 48.890625 
Q 56.203125 41.796875 56.203125 29.59375 
z
M 47.21875 32.234375 
Q 47.125 39.59375 43.09375 43.984375 
Q 39.0625 48.390625 32.421875 48.390625 
Q 24.90625 48.390625 20.390625 44.140625 
Q 15.875 39.890625 15.1875 32.171875 
z
" id="DejaVuSans-101"/>
     <path d="M 54.890625 33.015625 
L 54.890625 0 
L 45.90625 0 
L 45.90625 32.71875 
Q 45.90625 40.484375 42.875 44.328125 
Q 39.84375 48.1875 33.796875 48.1875 
Q 26.515625 48.1875 22.3125 43.546875 
Q 18.109375 38.921875 18.109375 30.90625 
L 18.109375 0 
L 9.078125 0 
L 9.078125 54.6875 
L 18.109375 54.6875 
L 18.109375 46.1875 
Q 21.34375 51.125 25.703125 53.5625 
Q 30.078125 56 35.796875 56 
Q 45.21875 56 50.046875 50.171875 
Q 54.890625 44.34375 54.890625 33.015625 
z
" id="DejaVuSans-110"/>
     <path d="M 44.28125 53.078125 
L 44.28125 44.578125 
Q 40.484375 46.53125 36.375 47.5 
Q 32.28125 48.484375 27.875 48.484375 
Q 21.1875 48.484375 17.84375 46.4375 
Q 14.5 44.390625 14.5 40.28125 
Q 14.5 37.15625 16.890625 35.375 
Q 19.28125 33.59375 26.515625 31.984375 
L 29.59375 31.296875 
Q 39.15625 29.25 43.1875 25.515625 
Q 47.21875 21.78125 47.21875 15.09375 
Q 47.21875 7.46875 41.1875 3.015625 
Q 35.15625 -1.421875 24.609375 -1.421875 
Q 20.21875 -1.421875 15.453125 -0.5625 
Q 10.6875 0.296875 5.421875 2 
L 5.421875 11.28125 
Q 10.40625 8.6875 15.234375 7.390625 
Q 20.0625 6.109375 24.8125 6.109375 
Q 31.15625 6.109375 34.5625 8.28125 
Q 37.984375 10.453125 37.984375 14.40625 
Q 37.984375 18.0625 35.515625 20.015625 
Q 33.0625 21.96875 24.703125 23.78125 
L 21.578125 24.515625 
Q 13.234375 26.265625 9.515625 29.90625 
Q 5.8125 33.546875 5.8125 39.890625 
Q 5.8125 47.609375 11.28125 51.796875 
Q 16.75 56 26.8125 56 
Q 31.78125 56 36.171875 55.265625 
Q 40.578125 54.546875 44.28125 53.078125 
z
" id="DejaVuSans-115"/>
     <path d="M 9.421875 54.6875 
L 18.40625 54.6875 
L 18.40625 0 
L 9.421875 0 
z
M 9.421875 75.984375 
L 18.40625 75.984375 
L 18.40625 64.59375 
L 9.421875 64.59375 
z
" id="DejaVuSans-105"/>
     <path d="M 18.3125 70.21875 
L 18.3125 54.6875 
L 36.8125 54.6875 
L 36.8125 47.703125 
L 18.3125 47.703125 
L 18.3125 18.015625 
Q 18.3125 11.328125 20.140625 9.421875 
Q 21.96875 7.515625 27.59375 7.515625 
L 36.8125 7.515625 
L 36.8125 0 
L 27.59375 0 
Q 17.1875 0 13.234375 3.875 
Q 9.28125 7.765625 9.28125 18.015625 
L 9.28125 47.703125 
L 2.6875 47.703125 
L 2.6875 54.6875 
L 9.28125 54.6875 
L 9.28125 70.21875 
z
" id="DejaVuSans-116"/>
     <path d="M 32.171875 -5.078125 
Q 28.375 -14.84375 24.75 -17.8125 
Q 21.140625 -20.796875 15.09375 -20.796875 
L 7.90625 -20.796875 
L 7.90625 -13.28125 
L 13.1875 -13.28125 
Q 16.890625 -13.28125 18.9375 -11.515625 
Q 21 -9.765625 23.484375 -3.21875 
L 25.09375 0.875 
L 2.984375 54.6875 
L 12.5 54.6875 
L 29.59375 11.921875 
L 46.6875 54.6875 
L 56.203125 54.6875 
z
" id="DejaVuSans-121"/>
     <path id="DejaVuSans-32"/>
     <path d="M 30.609375 48.390625 
Q 23.390625 48.390625 19.1875 42.75 
Q 14.984375 37.109375 14.984375 27.296875 
Q 14.984375 17.484375 19.15625 11.84375 
Q 23.34375 6.203125 30.609375 6.203125 
Q 37.796875 6.203125 41.984375 11.859375 
Q 46.1875 17.53125 46.1875 27.296875 
Q 46.1875 37.015625 41.984375 42.703125 
Q 37.796875 48.390625 30.609375 48.390625 
z
M 30.609375 56 
Q 42.328125 56 49.015625 48.375 
Q 55.71875 40.765625 55.71875 27.296875 
Q 55.71875 13.875 49.015625 6.21875 
Q 42.328125 -1.421875 30.609375 -1.421875 
Q 18.84375 -1.421875 12.171875 6.21875 
Q 5.515625 13.875 5.515625 27.296875 
Q 5.515625 40.765625 12.171875 48.375 
Q 18.84375 56 30.609375 56 
z
" id="DejaVuSans-111"/>
     <path d="M 37.109375 75.984375 
L 37.109375 68.5 
L 28.515625 68.5 
Q 23.6875 68.5 21.796875 66.546875 
Q 19.921875 64.59375 19.921875 59.515625 
L 19.921875 54.6875 
L 34.71875 54.6875 
L 34.71875 47.703125 
L 19.921875 47.703125 
L 19.921875 0 
L 10.890625 0 
L 10.890625 47.703125 
L 2.296875 47.703125 
L 2.296875 54.6875 
L 10.890625 54.6875 
L 10.890625 58.5 
Q 10.890625 67.625 15.140625 71.796875 
Q 19.390625 75.984375 28.609375 75.984375 
z
" id="DejaVuSans-102"/>
     <path d="M 34.28125 27.484375 
Q 23.390625 27.484375 19.1875 25 
Q 14.984375 22.515625 14.984375 16.5 
Q 14.984375 11.71875 18.140625 8.90625 
Q 21.296875 6.109375 26.703125 6.109375 
Q 34.1875 6.109375 38.703125 11.40625 
Q 43.21875 16.703125 43.21875 25.484375 
L 43.21875 27.484375 
z
M 52.203125 31.203125 
L 52.203125 0 
L 43.21875 0 
L 43.21875 8.296875 
Q 40.140625 3.328125 35.546875 0.953125 
Q 30.953125 -1.421875 24.3125 -1.421875 
Q 15.921875 -1.421875 10.953125 3.296875 
Q 6 8.015625 6 15.921875 
Q 6 25.140625 12.171875 29.828125 
Q 18.359375 34.515625 30.609375 34.515625 
L 43.21875 34.515625 
L 43.21875 35.40625 
Q 43.21875 41.609375 39.140625 45 
Q 35.0625 48.390625 27.6875 48.390625 
Q 23 48.390625 18.546875 47.265625 
Q 14.109375 46.140625 10.015625 43.890625 
L 10.015625 52.203125 
Q 14.9375 54.109375 19.578125 55.046875 
Q 24.21875 56 28.609375 56 
Q 40.484375 56 46.34375 49.84375 
Q 52.203125 43.703125 52.203125 31.203125 
z
" id="DejaVuSans-97"/>
    </defs>
    <use xlink:href="#DejaVuSans-68"/>
    <use x="77.001953" xlink:href="#DejaVuSans-101"/>
    <use x="138.525391" xlink:href="#DejaVuSans-110"/>
    <use x="201.904297" xlink:href="#DejaVuSans-115"/>
    <use x="254.003906" xlink:href="#DejaVuSans-105"/>
    <use x="281.787109" xlink:href="#DejaVuSans-116"/>
    <use x="320.996094" xlink:href="#DejaVuSans-121"/>
    <use x="380.175781" xlink:href="#DejaVuSans-32"/>
    <use x="411.962891" xlink:href="#DejaVuSans-111"/>
    <use x="473.144531" xlink:href="#DejaVuSans-102"/>
    <use x="508.349609" xlink:href="#DejaVuSans-32"/>
    <use x="540.136719" xlink:href="#DejaVuSans-115"/>
    <use x="592.236328" xlink:href="#DejaVuSans-116"/>
    <use x="631.445312" xlink:href="#DejaVuSans-97"/>
    <use x="692.724609" xlink:href="#DejaVuSans-116"/>
    <use x="731.933594" xlink:href="#DejaVuSans-101"/>
    <use x="793.457031" xlink:href="#DejaVuSans-115"/>
   </g>
  </g>
 </g>
 <defs>
  <clipPath id="p62e7ce62af">
   <rect height="271.8" width="253.636364" x="34.4275" y="43.2"/>
  </clipPath>
  <clipPath id="pae3a202574">
   <rect height="271.8" width="253.636364" x="338.791136" y="43.2"/>
  </clipPath>
 </defs>
</svg>
