<?xml version="1.0" encoding="utf-8" standalone="no"?>
<!DOCTYPE svg PUBLIC "-//W3C//DTD SVG 1.1//EN"
  "http://www.w3.org/Graphics/SVG/1.1/DTD/svg11.dtd">
<!-- Created with matplotlib (https://matplotlib.org/) -->
<svg height="446.6425pt" version="1.1" viewBox="0 0 528.499775 446.6425" width="528.499775pt" xmlns="http://www.w3.org/2000/svg" xmlns:xlink="http://www.w3.org/1999/xlink">
 <metadata>
  <rdf:RDF xmlns:cc="http://creativecommons.org/ns#" xmlns:dc="http://purl.org/dc/elements/1.1/" xmlns:rdf="http://www.w3.org/1999/02/22-rdf-syntax-ns#">
   <cc:Work>
    <dc:type rdf:resource="http://purl.org/dc/dcmitype/StillImage"/>
    <dc:date>2021-09-01T14:57:25.258880</dc:date>
    <dc:format>image/svg+xml</dc:format>
    <dc:creator>
     <cc:Agent>
      <dc:title>Matplotlib v3.3.2, https://matplotlib.org/</dc:title>
     </cc:Agent>
    </dc:creator>
   </cc:Work>
  </rdf:RDF>
 </metadata>
 <defs>
  <style type="text/css">*{stroke-linecap:butt;stroke-linejoin:round;}</style>
 </defs>
 <g id="figure_1">
  <g id="patch_1">
   <path d="M 0 446.6425 
L 528.499775 446.6425 
L 528.499775 0 
L 0 0 
z
" style="fill:#ffffff;"/>
  </g>
  <g id="axes_1">
   <g id="LineCollection_1">
    <path clip-path="url(#p2c2607fa1d)" d="M 193.873427 36.653864 
L 259.609887 36.653864 
" style="fill:none;stroke:#000000;stroke-dasharray:5.55,2.4;stroke-dashoffset:0;stroke-width:1.5;"/>
   </g>
   <g id="LineCollection_2">
    <path clip-path="url(#p2c2607fa1d)" d="M 445.249114 114.747455 
L 489.073421 114.747455 
" style="fill:none;stroke:#000000;stroke-dasharray:5.55,2.4;stroke-dashoffset:0;stroke-width:1.5;"/>
   </g>
   <g id="LineCollection_3">
    <path clip-path="url(#p2c2607fa1d)" d="M 445.249114 163.993896 
L 489.073421 163.993896 
" style="fill:none;stroke:#000000;stroke-dasharray:5.55,2.4;stroke-dashoffset:0;stroke-width:1.5;"/>
   </g>
   <g id="line2d_1">
    <path clip-path="url(#p2c2607fa1d)" d="M 30.146353 163.993896 
L 32.905434 164.110914 
L 35.664515 164.459227 
L 38.423595 165.030943 
L 41.182676 165.813939 
L 43.941756 166.793135 
L 47.62053 168.374974 
L 51.299304 170.235481 
L 54.978079 172.33637 
L 59.576546 175.248864 
L 64.175014 178.427578 
L 69.693175 182.53069 
L 76.13103 187.641666 
L 82.568884 193.03621 
L 89.926432 199.485457 
L 98.203674 207.040877 
L 107.400609 215.746915 
L 117.517238 225.64286 
L 128.55356 236.763787 
L 140.509576 249.140469 
L 153.385285 262.798403 
L 167.180688 277.756145 
L 182.815478 295.049196 
L 200.289655 314.724537 
L 220.522913 337.85251 
L 248.113718 369.76195 
L 259.150041 382.581136 
L 260.069734 382.581136 
L 299.616556 336.794925 
L 320.769507 312.638694 
L 338.243684 292.998058 
L 353.878473 275.744278 
L 367.673876 260.82825 
L 380.549586 247.216046 
L 392.505601 234.888822 
L 403.541924 223.821026 
L 413.658552 213.982067 
L 422.855488 205.337243 
L 431.132729 197.847688 
L 438.490278 191.469177 
L 444.928132 186.149845 
L 451.365987 181.131605 
L 456.884148 177.127265 
L 461.482616 174.049032 
L 466.081083 171.258125 
L 469.759857 169.272866 
L 473.438631 167.546712 
L 477.117406 166.119342 
L 479.876486 165.269163 
L 482.635567 164.625499 
L 485.394647 164.20161 
L 488.153728 164.006921 
L 489.073421 163.993896 
L 489.073421 163.993896 
" style="fill:none;stroke:#1f77b4;stroke-linecap:square;stroke-width:1.5;"/>
   </g>
   <g id="line2d_2">
    <path clip-path="url(#p2c2607fa1d)" d="M 30.146353 114.747455 
L 32.905434 114.651952 
L 35.664515 114.368184 
L 38.423595 113.904038 
L 42.102369 113.025973 
L 45.781143 111.885371 
L 49.459917 110.522372 
L 54.058385 108.565949 
L 59.576546 105.938397 
L 66.014401 102.609683 
L 75.211336 97.576828 
L 106.480916 80.251161 
L 116.597545 74.975998 
L 125.79448 70.406913 
L 134.991415 66.079031 
L 144.18835 62.010748 
L 152.465592 58.5831 
L 160.742834 55.385651 
L 169.020075 52.425287 
L 177.297317 49.707762 
L 185.574559 47.237926 
L 193.8518 45.019881 
L 202.129042 43.057096 
L 209.48659 41.529066 
L 216.844139 40.206772 
L 224.201687 39.091665 
L 231.559235 38.184944 
L 238.916783 37.487561 
L 246.274331 37.000242 
L 253.631879 36.723484 
L 260.989428 36.657571 
L 268.346976 36.80257 
L 275.704524 37.158333 
L 283.062072 37.724497 
L 290.41962 38.500479 
L 297.777169 39.485469 
L 305.134717 40.678425 
L 312.492265 42.078055 
L 319.849813 43.682804 
L 328.127055 45.731026 
L 336.404297 48.033417 
L 344.681538 50.586306 
L 352.95878 53.385356 
L 361.236022 56.425438 
L 369.513263 59.700449 
L 377.790505 63.203061 
L 386.98744 67.350882 
L 396.184376 71.753286 
L 405.381311 76.390309 
L 415.497939 81.729757 
L 427.453955 88.29315 
L 455.044761 103.582784 
L 461.482616 106.842272 
L 467.000777 109.378117 
L 471.599244 111.229142 
L 475.278018 112.486012 
L 478.956793 113.500242 
L 482.635567 114.232989 
L 485.394647 114.577991 
L 488.153728 114.73682 
L 489.073421 114.747455 
L 489.073421 114.747455 
" style="fill:none;stroke:#ff7f0e;stroke-linecap:square;stroke-width:1.5;"/>
   </g>
   <g id="line2d_3">
    <path clip-path="url(#p2c2607fa1d)" d="M 30.146353 399.8775 
L 30.146353 19.3575 
" style="fill:none;stroke:#000000;stroke-linecap:square;stroke-width:1.5;"/>
   </g>
   <g id="line2d_4">
    <path clip-path="url(#p2c2607fa1d)" d="M 489.073421 399.8775 
L 489.073421 19.3575 
" style="fill:none;stroke:#000000;stroke-linecap:square;stroke-width:1.5;"/>
   </g>
   <g id="text_1">
    <!-- $k =-\pi/a$ -->
    <g transform="translate(37.25066 372.159353)scale(0.16 -0.16)">
     <defs>
      <path d="M 18.3125 75.984375 
L 27.296875 75.984375 
L 18.703125 31.6875 
L 49.515625 54.6875 
L 61.1875 54.6875 
L 26.8125 28.515625 
L 51.90625 0 
L 41.015625 0 
L 17.671875 26.703125 
L 12.5 0 
L 3.515625 0 
z
" id="DejaVuSans-Oblique-107"/>
      <path d="M 10.59375 45.40625 
L 73.1875 45.40625 
L 73.1875 37.203125 
L 10.59375 37.203125 
z
M 10.59375 25.484375 
L 73.1875 25.484375 
L 73.1875 17.1875 
L 10.59375 17.1875 
z
" id="DejaVuSans-61"/>
      <path d="M 10.59375 35.5 
L 73.1875 35.5 
L 73.1875 27.203125 
L 10.59375 27.203125 
z
" id="DejaVuSans-8722"/>
      <path d="M 9.125 54.6875 
L 61.53125 54.6875 
L 59.765625 45.703125 
L 52.875 45.703125 
L 46.34375 12.109375 
Q 45.65625 8.59375 46.578125 7.03125 
Q 47.46875 5.515625 50.140625 5.515625 
Q 50.875 5.515625 51.953125 5.671875 
Q 53.078125 5.765625 53.421875 5.8125 
L 52.15625 -0.6875 
Q 50.34375 -1.3125 48.484375 -1.609375 
Q 46.578125 -1.90625 44.78125 -1.90625 
Q 38.921875 -1.90625 37.3125 1.265625 
Q 35.6875 4.5 37.359375 13.09375 
L 43.703125 45.703125 
L 23.53125 45.703125 
L 14.65625 0 
L 5.46875 0 
L 14.359375 45.703125 
L 7.375 45.703125 
z
" id="DejaVuSans-Oblique-960"/>
      <path d="M 25.390625 72.90625 
L 33.6875 72.90625 
L 8.296875 -9.28125 
L 0 -9.28125 
z
" id="DejaVuSans-47"/>
      <path d="M 53.71875 31.203125 
L 47.609375 0 
L 38.625 0 
L 40.28125 8.296875 
Q 36.328125 3.421875 31.265625 1 
Q 26.21875 -1.421875 20.015625 -1.421875 
Q 13.03125 -1.421875 8.5625 2.84375 
Q 4.109375 7.125 4.109375 13.8125 
Q 4.109375 23.390625 11.75 28.953125 
Q 19.390625 34.515625 32.8125 34.515625 
L 45.3125 34.515625 
L 45.796875 36.921875 
Q 45.90625 37.3125 45.953125 37.765625 
Q 46 38.234375 46 39.203125 
Q 46 43.5625 42.453125 45.96875 
Q 38.921875 48.390625 32.515625 48.390625 
Q 28.125 48.390625 23.5 47.265625 
Q 18.890625 46.140625 14.015625 43.890625 
L 15.578125 52.203125 
Q 20.65625 54.109375 25.515625 55.046875 
Q 30.375 56 34.90625 56 
Q 44.578125 56 49.625 51.796875 
Q 54.6875 47.609375 54.6875 39.59375 
Q 54.6875 37.984375 54.4375 35.8125 
Q 54.203125 33.640625 53.71875 31.203125 
z
M 44 27.484375 
L 35.015625 27.484375 
Q 23.96875 27.484375 18.671875 24.53125 
Q 13.375 21.578125 13.375 15.375 
Q 13.375 11.078125 16.078125 8.640625 
Q 18.796875 6.203125 23.578125 6.203125 
Q 30.90625 6.203125 36.375 11.453125 
Q 41.84375 16.703125 43.609375 25.484375 
z
" id="DejaVuSans-Oblique-97"/>
     </defs>
     <use transform="translate(0 0.015625)" xlink:href="#DejaVuSans-Oblique-107"/>
     <use transform="translate(77.392578 0.015625)" xlink:href="#DejaVuSans-61"/>
     <use transform="translate(200.146484 0.015625)" xlink:href="#DejaVuSans-8722"/>
     <use transform="translate(303.417969 0.015625)" xlink:href="#DejaVuSans-Oblique-960"/>
     <use transform="translate(363.623047 0.015625)" xlink:href="#DejaVuSans-47"/>
     <use transform="translate(397.314453 0.015625)" xlink:href="#DejaVuSans-Oblique-97"/>
    </g>
   </g>
   <g id="text_2">
    <!-- $k =+\pi/a$ -->
    <g transform="translate(408.529114 372.159353)scale(0.16 -0.16)">
     <defs>
      <path d="M 46 62.703125 
L 46 35.5 
L 73.1875 35.5 
L 73.1875 27.203125 
L 46 27.203125 
L 46 0 
L 37.796875 0 
L 37.796875 27.203125 
L 10.59375 27.203125 
L 10.59375 35.5 
L 37.796875 35.5 
L 37.796875 62.703125 
z
" id="DejaVuSans-43"/>
     </defs>
     <use transform="translate(0 0.015625)" xlink:href="#DejaVuSans-Oblique-107"/>
     <use transform="translate(77.392578 0.015625)" xlink:href="#DejaVuSans-61"/>
     <use transform="translate(200.146484 0.015625)" xlink:href="#DejaVuSans-43"/>
     <use transform="translate(303.417969 0.015625)" xlink:href="#DejaVuSans-Oblique-960"/>
     <use transform="translate(363.623047 0.015625)" xlink:href="#DejaVuSans-47"/>
     <use transform="translate(397.314453 0.015625)" xlink:href="#DejaVuSans-Oblique-97"/>
    </g>
   </g>
   <g id="text_3">
    <!-- $\omega_{max} =\sqrt{\frac{2(\kappa_1+\kappa_2)}{m}}$ -->
    <g transform="translate(40.51889 44.870921)scale(0.16 -0.16)">
     <defs>
      <path d="M 21.390625 -1.421875 
Q 1.125 -1.421875 6.78125 27.59375 
Q 8.984375 39.0625 19.625 54.6875 
L 29.296875 54.6875 
Q 19.234375 39.0625 17 27.34375 
Q 12.796875 6.203125 23.734375 6.203125 
Q 33.84375 6.203125 38.71875 32.46875 
L 47.015625 32.46875 
Q 41.703125 6.0625 51.8125 6.203125 
Q 62.703125 6.296875 66.796875 27.34375 
Q 69.046875 39.0625 65.140625 54.6875 
L 74.8125 54.6875 
Q 79.296875 39.0625 77.09375 27.59375 
Q 71.53125 -1.46875 51.21875 -1.421875 
Q 37.9375 -1.375 39.109375 13.1875 
Q 34.28125 -1.421875 21.390625 -1.421875 
z
" id="DejaVuSans-Oblique-969"/>
      <path d="M 89.796875 33.015625 
L 83.40625 0 
L 74.421875 0 
L 80.71875 32.71875 
Q 81.109375 34.8125 81.296875 36.328125 
Q 81.5 37.84375 81.5 38.921875 
Q 81.5 43.3125 79.046875 45.75 
Q 76.609375 48.1875 72.21875 48.1875 
Q 65.671875 48.1875 60.546875 43.28125 
Q 55.421875 38.375 53.90625 30.515625 
L 47.90625 0 
L 38.921875 0 
L 45.3125 32.71875 
Q 45.703125 34.515625 45.890625 36.046875 
Q 46.09375 37.59375 46.09375 38.8125 
Q 46.09375 43.265625 43.65625 45.71875 
Q 41.21875 48.1875 36.921875 48.1875 
Q 30.28125 48.1875 25.140625 43.28125 
Q 20.015625 38.375 18.5 30.515625 
L 12.5 0 
L 3.515625 0 
L 14.203125 54.6875 
L 23.1875 54.6875 
L 21.484375 46.1875 
Q 25.140625 50.984375 30.046875 53.484375 
Q 34.96875 56 40.578125 56 
Q 46.53125 56 50.359375 52.875 
Q 54.203125 49.75 54.984375 44.1875 
Q 59.078125 49.953125 64.46875 52.96875 
Q 69.875 56 75.875 56 
Q 82.90625 56 86.734375 51.953125 
Q 90.578125 47.90625 90.578125 40.484375 
Q 90.578125 38.875 90.375 36.9375 
Q 90.1875 35.015625 89.796875 33.015625 
z
" id="DejaVuSans-Oblique-109"/>
      <path d="M 60.015625 54.6875 
L 34.90625 27.875 
L 50.296875 0 
L 39.984375 0 
L 28.421875 21.6875 
L 8.296875 0 
L -2.59375 0 
L 24.3125 28.8125 
L 10.015625 54.6875 
L 20.3125 54.6875 
L 30.8125 34.90625 
L 49.125 54.6875 
z
" id="DejaVuSans-Oblique-120"/>
      <path d="M 108.90625 155.203125 
L 52.703125 -29.5 
L 48.5 -29.5 
L 25.40625 45.59375 
Q 24.296875 49.203125 22.890625 50.796875 
Q 21.5 52.40625 19.203125 52.40625 
Q 15.796875 52.40625 12.40625 49.703125 
L 11.203125 51.703125 
L 27.59375 64.296875 
L 30.09375 64.296875 
L 52.796875 -9.40625 
L 53.203125 -9.40625 
L 103.203125 155.203125 
z
" id="STIXSizeOneSym-Regular-8730"/>
      <path d="M 19.1875 8.296875 
L 53.609375 8.296875 
L 53.609375 0 
L 7.328125 0 
L 7.328125 8.296875 
Q 12.9375 14.109375 22.625 23.890625 
Q 32.328125 33.6875 34.8125 36.53125 
Q 39.546875 41.84375 41.421875 45.53125 
Q 43.3125 49.21875 43.3125 52.78125 
Q 43.3125 58.59375 39.234375 62.25 
Q 35.15625 65.921875 28.609375 65.921875 
Q 23.96875 65.921875 18.8125 64.3125 
Q 13.671875 62.703125 7.8125 59.421875 
L 7.8125 69.390625 
Q 13.765625 71.78125 18.9375 73 
Q 24.125 74.21875 28.421875 74.21875 
Q 39.75 74.21875 46.484375 68.546875 
Q 53.21875 62.890625 53.21875 53.421875 
Q 53.21875 48.921875 51.53125 44.890625 
Q 49.859375 40.875 45.40625 35.40625 
Q 44.1875 33.984375 37.640625 27.21875 
Q 31.109375 20.453125 19.1875 8.296875 
z
" id="DejaVuSans-50"/>
      <path d="M 31 75.875 
Q 24.46875 64.65625 21.28125 53.65625 
Q 18.109375 42.671875 18.109375 31.390625 
Q 18.109375 20.125 21.3125 9.0625 
Q 24.515625 -2 31 -13.1875 
L 23.1875 -13.1875 
Q 15.875 -1.703125 12.234375 9.375 
Q 8.59375 20.453125 8.59375 31.390625 
Q 8.59375 42.28125 12.203125 53.3125 
Q 15.828125 64.359375 23.1875 75.875 
z
" id="DejaVuSans-40"/>
      <path d="M 14.65625 54.6875 
L 23.921875 54.6875 
L 19.484375 31.984375 
L 47.515625 54.6875 
L 58.453125 54.6875 
L 32.90625 34.078125 
L 51.171875 0 
L 40.1875 0 
L 25.4375 28.21875 
L 17.53125 21.921875 
L 13.28125 0 
L 4 0 
z
" id="DejaVuSans-Oblique-954"/>
      <path d="M 12.40625 8.296875 
L 28.515625 8.296875 
L 28.515625 63.921875 
L 10.984375 60.40625 
L 10.984375 69.390625 
L 28.421875 72.90625 
L 38.28125 72.90625 
L 38.28125 8.296875 
L 54.390625 8.296875 
L 54.390625 0 
L 12.40625 0 
z
" id="DejaVuSans-49"/>
      <path d="M 8.015625 75.875 
L 15.828125 75.875 
Q 23.140625 64.359375 26.78125 53.3125 
Q 30.421875 42.28125 30.421875 31.390625 
Q 30.421875 20.453125 26.78125 9.375 
Q 23.140625 -1.703125 15.828125 -13.1875 
L 8.015625 -13.1875 
Q 14.5 -2 17.703125 9.0625 
Q 20.90625 20.125 20.90625 31.390625 
Q 20.90625 42.671875 17.703125 53.65625 
Q 14.5 64.65625 8.015625 75.875 
z
" id="DejaVuSans-41"/>
     </defs>
     <use transform="translate(0 0.35625)" xlink:href="#DejaVuSans-Oblique-969"/>
     <use transform="translate(83.740234 -16.05)scale(0.7)" xlink:href="#DejaVuSans-Oblique-109"/>
     <use transform="translate(151.928711 -16.05)scale(0.7)" xlink:href="#DejaVuSans-Oblique-97"/>
     <use transform="translate(194.824219 -16.05)scale(0.7)" xlink:href="#DejaVuSans-Oblique-120"/>
     <use transform="translate(258.466797 0.35625)" xlink:href="#DejaVuSans-61"/>
     <use transform="translate(361.738281 0.265625)scale(0.900347)" xlink:href="#STIXSizeOneSym-Regular-8730"/>
     <use transform="translate(469.401291 55.6375)scale(0.7)" xlink:href="#DejaVuSans-50"/>
     <use transform="translate(513.937424 55.6375)scale(0.7)" xlink:href="#DejaVuSans-40"/>
     <use transform="translate(541.246994 55.6375)scale(0.7)" xlink:href="#DejaVuSans-Oblique-954"/>
     <use transform="translate(582.501877 44.153125)scale(0.49)" xlink:href="#DejaVuSans-49"/>
     <use transform="translate(629.228928 55.6375)scale(0.7)" xlink:href="#DejaVuSans-43"/>
     <use transform="translate(701.518967 55.6375)scale(0.7)" xlink:href="#DejaVuSans-Oblique-954"/>
     <use transform="translate(742.773849 44.153125)scale(0.49)" xlink:href="#DejaVuSans-50"/>
     <use transform="translate(775.863205 55.6375)scale(0.7)" xlink:href="#DejaVuSans-41"/>
     <use transform="translate(602.401291 -26.296875)scale(0.7)" xlink:href="#DejaVuSans-Oblique-109"/>
     <path d="M 456.901291 133.5 
L 456.901291 139.75 
L 828.172775 139.75 
L 828.172775 133.5 
L 456.901291 133.5 
z
"/>
     <path d="M 469.401291 19.153125 
L 469.401291 25.403125 
L 803.172775 25.403125 
L 803.172775 19.153125 
L 469.401291 19.153125 
z
"/>
    </g>
   </g>
   <g id="text_4">
    <!-- $\omega_+ =\sqrt{\frac{2\kappa_1}{m}}$ -->
    <g transform="translate(335.752654 122.964512)scale(0.16 -0.16)">
     <use transform="translate(0 0.5125)" xlink:href="#DejaVuSans-Oblique-969"/>
     <use transform="translate(97.37793 -15.89375)scale(0.7)" xlink:href="#DejaVuSans-43"/>
     <use transform="translate(191.884766 0.5125)" xlink:href="#DejaVuSans-61"/>
     <use transform="translate(295.15625 0.234375)scale(0.89407)" xlink:href="#STIXSizeOneSym-Regular-8730"/>
     <use transform="translate(402.158646 55.796875)scale(0.7)" xlink:href="#DejaVuSans-50"/>
     <use transform="translate(446.694778 55.796875)scale(0.7)" xlink:href="#DejaVuSans-Oblique-954"/>
     <use transform="translate(487.949661 44.3125)scale(0.49)" xlink:href="#DejaVuSans-49"/>
     <use transform="translate(427.158646 -26.1375)scale(0.7)" xlink:href="#DejaVuSans-Oblique-109"/>
     <path d="M 389.658646 132.5 
L 389.658646 138.75 
L 546.039017 138.75 
L 546.039017 132.5 
L 389.658646 132.5 
z
"/>
     <path d="M 402.158646 19.3125 
L 402.158646 25.5625 
L 521.039017 25.5625 
L 521.039017 19.3125 
L 402.158646 19.3125 
z
"/>
    </g>
   </g>
   <g id="text_5">
    <!-- $\omega_- =\sqrt{\frac{2\kappa_2}{m}}$ -->
    <g transform="translate(335.752654 172.210953)scale(0.16 -0.16)">
     <use transform="translate(0 0.5125)" xlink:href="#DejaVuSans-Oblique-969"/>
     <use transform="translate(97.37793 -15.89375)scale(0.7)" xlink:href="#DejaVuSans-8722"/>
     <use transform="translate(191.884766 0.5125)" xlink:href="#DejaVuSans-61"/>
     <use transform="translate(295.15625 0.234375)scale(0.89407)" xlink:href="#STIXSizeOneSym-Regular-8730"/>
     <use transform="translate(402.158646 55.796875)scale(0.7)" xlink:href="#DejaVuSans-50"/>
     <use transform="translate(446.694778 55.796875)scale(0.7)" xlink:href="#DejaVuSans-Oblique-954"/>
     <use transform="translate(487.949661 44.3125)scale(0.49)" xlink:href="#DejaVuSans-50"/>
     <use transform="translate(427.158646 -26.1375)scale(0.7)" xlink:href="#DejaVuSans-Oblique-109"/>
     <path d="M 389.658646 132.5 
L 389.658646 138.75 
L 546.039017 138.75 
L 546.039017 132.5 
L 389.658646 132.5 
z
"/>
     <path d="M 402.158646 19.3125 
L 402.158646 25.5625 
L 521.039017 25.5625 
L 521.039017 19.3125 
L 402.158646 19.3125 
z
"/>
    </g>
   </g>
   <g id="patch_2">
    <path d="M 506.900425 383.11543 
Q 258.608406 383.11543 9.198352 383.11543 
" style="fill:none;stroke:#000000;stroke-linecap:round;"/>
    <path d="M 500.500425 379.91543 
L 506.900425 383.11543 
L 500.500425 386.31543 
" style="fill:none;stroke:#000000;stroke-linecap:round;"/>
   </g>
   <g id="text_6">
    <!-- $k$ -->
    <g transform="translate(512.019775 387.53043)scale(0.16 -0.16)">
     <use transform="translate(0 0.015625)" xlink:href="#DejaVuSans-Oblique-107"/>
    </g>
   </g>
   <g id="patch_3">
    <path d="M 259.609887 27.802857 
Q 259.609887 212.280358 259.609887 397.875894 
" style="fill:none;stroke:#000000;stroke-linecap:round;"/>
    <path d="M 256.409887 34.202857 
L 259.609887 27.802857 
L 262.809887 34.202857 
" style="fill:none;stroke:#000000;stroke-linecap:round;"/>
   </g>
   <g id="text_7">
    <!-- $\omega$ -->
    <g transform="translate(252.889887 19.3575)scale(0.16 -0.16)">
     <use transform="translate(0 0.3125)" xlink:href="#DejaVuSans-Oblique-969"/>
    </g>
   </g>
   <g id="legend_1">
    <g id="patch_4">
     <path d="M 133.729887 439.4425 
L 385.489887 439.4425 
Q 388.689887 439.4425 388.689887 436.2425 
L 388.689887 414.3575 
Q 388.689887 411.1575 385.489887 411.1575 
L 133.729887 411.1575 
Q 130.529887 411.1575 130.529887 414.3575 
L 130.529887 436.2425 
Q 130.529887 439.4425 133.729887 439.4425 
z
" style="fill:#ffffff;opacity:0.8;stroke:#cccccc;stroke-linejoin:miter;"/>
    </g>
    <g id="line2d_5">
     <path d="M 136.929887 424.115 
L 168.929887 424.115 
" style="fill:none;stroke:#1f77b4;stroke-linecap:square;stroke-width:1.5;"/>
    </g>
    <g id="line2d_6"/>
    <g id="text_8">
     <!-- Acoustic -->
     <g transform="translate(181.729887 429.715)scale(0.16 -0.16)">
      <defs>
       <path d="M 34.1875 63.1875 
L 20.796875 26.90625 
L 47.609375 26.90625 
z
M 28.609375 72.90625 
L 39.796875 72.90625 
L 67.578125 0 
L 57.328125 0 
L 50.6875 18.703125 
L 17.828125 18.703125 
L 11.1875 0 
L 0.78125 0 
z
" id="DejaVuSans-65"/>
       <path d="M 48.78125 52.59375 
L 48.78125 44.1875 
Q 44.96875 46.296875 41.140625 47.34375 
Q 37.3125 48.390625 33.40625 48.390625 
Q 24.65625 48.390625 19.8125 42.84375 
Q 14.984375 37.3125 14.984375 27.296875 
Q 14.984375 17.28125 19.8125 11.734375 
Q 24.65625 6.203125 33.40625 6.203125 
Q 37.3125 6.203125 41.140625 7.25 
Q 44.96875 8.296875 48.78125 10.40625 
L 48.78125 2.09375 
Q 45.015625 0.34375 40.984375 -0.53125 
Q 36.96875 -1.421875 32.421875 -1.421875 
Q 20.0625 -1.421875 12.78125 6.34375 
Q 5.515625 14.109375 5.515625 27.296875 
Q 5.515625 40.671875 12.859375 48.328125 
Q 20.21875 56 33.015625 56 
Q 37.15625 56 41.109375 55.140625 
Q 45.0625 54.296875 48.78125 52.59375 
z
" id="DejaVuSans-99"/>
       <path d="M 30.609375 48.390625 
Q 23.390625 48.390625 19.1875 42.75 
Q 14.984375 37.109375 14.984375 27.296875 
Q 14.984375 17.484375 19.15625 11.84375 
Q 23.34375 6.203125 30.609375 6.203125 
Q 37.796875 6.203125 41.984375 11.859375 
Q 46.1875 17.53125 46.1875 27.296875 
Q 46.1875 37.015625 41.984375 42.703125 
Q 37.796875 48.390625 30.609375 48.390625 
z
M 30.609375 56 
Q 42.328125 56 49.015625 48.375 
Q 55.71875 40.765625 55.71875 27.296875 
Q 55.71875 13.875 49.015625 6.21875 
Q 42.328125 -1.421875 30.609375 -1.421875 
Q 18.84375 -1.421875 12.171875 6.21875 
Q 5.515625 13.875 5.515625 27.296875 
Q 5.515625 40.765625 12.171875 48.375 
Q 18.84375 56 30.609375 56 
z
" id="DejaVuSans-111"/>
       <path d="M 8.5 21.578125 
L 8.5 54.6875 
L 17.484375 54.6875 
L 17.484375 21.921875 
Q 17.484375 14.15625 20.5 10.265625 
Q 23.53125 6.390625 29.59375 6.390625 
Q 36.859375 6.390625 41.078125 11.03125 
Q 45.3125 15.671875 45.3125 23.6875 
L 45.3125 54.6875 
L 54.296875 54.6875 
L 54.296875 0 
L 45.3125 0 
L 45.3125 8.40625 
Q 42.046875 3.421875 37.71875 1 
Q 33.40625 -1.421875 27.6875 -1.421875 
Q 18.265625 -1.421875 13.375 4.4375 
Q 8.5 10.296875 8.5 21.578125 
z
M 31.109375 56 
z
" id="DejaVuSans-117"/>
       <path d="M 44.28125 53.078125 
L 44.28125 44.578125 
Q 40.484375 46.53125 36.375 47.5 
Q 32.28125 48.484375 27.875 48.484375 
Q 21.1875 48.484375 17.84375 46.4375 
Q 14.5 44.390625 14.5 40.28125 
Q 14.5 37.15625 16.890625 35.375 
Q 19.28125 33.59375 26.515625 31.984375 
L 29.59375 31.296875 
Q 39.15625 29.25 43.1875 25.515625 
Q 47.21875 21.78125 47.21875 15.09375 
Q 47.21875 7.46875 41.1875 3.015625 
Q 35.15625 -1.421875 24.609375 -1.421875 
Q 20.21875 -1.421875 15.453125 -0.5625 
Q 10.6875 0.296875 5.421875 2 
L 5.421875 11.28125 
Q 10.40625 8.6875 15.234375 7.390625 
Q 20.0625 6.109375 24.8125 6.109375 
Q 31.15625 6.109375 34.5625 8.28125 
Q 37.984375 10.453125 37.984375 14.40625 
Q 37.984375 18.0625 35.515625 20.015625 
Q 33.0625 21.96875 24.703125 23.78125 
L 21.578125 24.515625 
Q 13.234375 26.265625 9.515625 29.90625 
Q 5.8125 33.546875 5.8125 39.890625 
Q 5.8125 47.609375 11.28125 51.796875 
Q 16.75 56 26.8125 56 
Q 31.78125 56 36.171875 55.265625 
Q 40.578125 54.546875 44.28125 53.078125 
z
" id="DejaVuSans-115"/>
       <path d="M 18.3125 70.21875 
L 18.3125 54.6875 
L 36.8125 54.6875 
L 36.8125 47.703125 
L 18.3125 47.703125 
L 18.3125 18.015625 
Q 18.3125 11.328125 20.140625 9.421875 
Q 21.96875 7.515625 27.59375 7.515625 
L 36.8125 7.515625 
L 36.8125 0 
L 27.59375 0 
Q 17.1875 0 13.234375 3.875 
Q 9.28125 7.765625 9.28125 18.015625 
L 9.28125 47.703125 
L 2.6875 47.703125 
L 2.6875 54.6875 
L 9.28125 54.6875 
L 9.28125 70.21875 
z
" id="DejaVuSans-116"/>
       <path d="M 9.421875 54.6875 
L 18.40625 54.6875 
L 18.40625 0 
L 9.421875 0 
z
M 9.421875 75.984375 
L 18.40625 75.984375 
L 18.40625 64.59375 
L 9.421875 64.59375 
z
" id="DejaVuSans-105"/>
      </defs>
      <use xlink:href="#DejaVuSans-65"/>
      <use x="66.658203" xlink:href="#DejaVuSans-99"/>
      <use x="121.638672" xlink:href="#DejaVuSans-111"/>
      <use x="182.820312" xlink:href="#DejaVuSans-117"/>
      <use x="246.199219" xlink:href="#DejaVuSans-115"/>
      <use x="298.298828" xlink:href="#DejaVuSans-116"/>
      <use x="337.507812" xlink:href="#DejaVuSans-105"/>
      <use x="365.291016" xlink:href="#DejaVuSans-99"/>
     </g>
    </g>
    <g id="line2d_7">
     <path d="M 280.972387 424.115 
L 312.972387 424.115 
" style="fill:none;stroke:#ff7f0e;stroke-linecap:square;stroke-width:1.5;"/>
    </g>
    <g id="line2d_8"/>
    <g id="text_9">
     <!-- Optical -->
     <g transform="translate(325.772387 429.715)scale(0.16 -0.16)">
      <defs>
       <path d="M 39.40625 66.21875 
Q 28.65625 66.21875 22.328125 58.203125 
Q 16.015625 50.203125 16.015625 36.375 
Q 16.015625 22.609375 22.328125 14.59375 
Q 28.65625 6.59375 39.40625 6.59375 
Q 50.140625 6.59375 56.421875 14.59375 
Q 62.703125 22.609375 62.703125 36.375 
Q 62.703125 50.203125 56.421875 58.203125 
Q 50.140625 66.21875 39.40625 66.21875 
z
M 39.40625 74.21875 
Q 54.734375 74.21875 63.90625 63.9375 
Q 73.09375 53.65625 73.09375 36.375 
Q 73.09375 19.140625 63.90625 8.859375 
Q 54.734375 -1.421875 39.40625 -1.421875 
Q 24.03125 -1.421875 14.8125 8.828125 
Q 5.609375 19.09375 5.609375 36.375 
Q 5.609375 53.65625 14.8125 63.9375 
Q 24.03125 74.21875 39.40625 74.21875 
z
" id="DejaVuSans-79"/>
       <path d="M 18.109375 8.203125 
L 18.109375 -20.796875 
L 9.078125 -20.796875 
L 9.078125 54.6875 
L 18.109375 54.6875 
L 18.109375 46.390625 
Q 20.953125 51.265625 25.265625 53.625 
Q 29.59375 56 35.59375 56 
Q 45.5625 56 51.78125 48.09375 
Q 58.015625 40.1875 58.015625 27.296875 
Q 58.015625 14.40625 51.78125 6.484375 
Q 45.5625 -1.421875 35.59375 -1.421875 
Q 29.59375 -1.421875 25.265625 0.953125 
Q 20.953125 3.328125 18.109375 8.203125 
z
M 48.6875 27.296875 
Q 48.6875 37.203125 44.609375 42.84375 
Q 40.53125 48.484375 33.40625 48.484375 
Q 26.265625 48.484375 22.1875 42.84375 
Q 18.109375 37.203125 18.109375 27.296875 
Q 18.109375 17.390625 22.1875 11.75 
Q 26.265625 6.109375 33.40625 6.109375 
Q 40.53125 6.109375 44.609375 11.75 
Q 48.6875 17.390625 48.6875 27.296875 
z
" id="DejaVuSans-112"/>
       <path d="M 34.28125 27.484375 
Q 23.390625 27.484375 19.1875 25 
Q 14.984375 22.515625 14.984375 16.5 
Q 14.984375 11.71875 18.140625 8.90625 
Q 21.296875 6.109375 26.703125 6.109375 
Q 34.1875 6.109375 38.703125 11.40625 
Q 43.21875 16.703125 43.21875 25.484375 
L 43.21875 27.484375 
z
M 52.203125 31.203125 
L 52.203125 0 
L 43.21875 0 
L 43.21875 8.296875 
Q 40.140625 3.328125 35.546875 0.953125 
Q 30.953125 -1.421875 24.3125 -1.421875 
Q 15.921875 -1.421875 10.953125 3.296875 
Q 6 8.015625 6 15.921875 
Q 6 25.140625 12.171875 29.828125 
Q 18.359375 34.515625 30.609375 34.515625 
L 43.21875 34.515625 
L 43.21875 35.40625 
Q 43.21875 41.609375 39.140625 45 
Q 35.0625 48.390625 27.6875 48.390625 
Q 23 48.390625 18.546875 47.265625 
Q 14.109375 46.140625 10.015625 43.890625 
L 10.015625 52.203125 
Q 14.9375 54.109375 19.578125 55.046875 
Q 24.21875 56 28.609375 56 
Q 40.484375 56 46.34375 49.84375 
Q 52.203125 43.703125 52.203125 31.203125 
z
" id="DejaVuSans-97"/>
       <path d="M 9.421875 75.984375 
L 18.40625 75.984375 
L 18.40625 0 
L 9.421875 0 
z
" id="DejaVuSans-108"/>
      </defs>
      <use xlink:href="#DejaVuSans-79"/>
      <use x="78.710938" xlink:href="#DejaVuSans-112"/>
      <use x="142.1875" xlink:href="#DejaVuSans-116"/>
      <use x="181.396484" xlink:href="#DejaVuSans-105"/>
      <use x="209.179688" xlink:href="#DejaVuSans-99"/>
      <use x="264.160156" xlink:href="#DejaVuSans-97"/>
      <use x="325.439453" xlink:href="#DejaVuSans-108"/>
     </g>
    </g>
   </g>
  </g>
 </g>
 <defs>
  <clipPath id="p2c2607fa1d">
   <rect height="380.52" width="504.819775" x="7.2" y="19.3575"/>
  </clipPath>
 </defs>
</svg>
