<?xml version="1.0" encoding="utf-8" standalone="no"?>
<!DOCTYPE svg PUBLIC "-//W3C//DTD SVG 1.1//EN"
  "http://www.w3.org/Graphics/SVG/1.1/DTD/svg11.dtd">
<!-- Created with matplotlib (https://matplotlib.org/) -->
<svg height="463.979pt" version="1.1" viewBox="0 0 545.634911 463.979" width="545.634911pt" xmlns="http://www.w3.org/2000/svg" xmlns:xlink="http://www.w3.org/1999/xlink">
 <metadata>
  <rdf:RDF xmlns:cc="http://creativecommons.org/ns#" xmlns:dc="http://purl.org/dc/elements/1.1/" xmlns:rdf="http://www.w3.org/1999/02/22-rdf-syntax-ns#">
   <cc:Work>
    <dc:type rdf:resource="http://purl.org/dc/dcmitype/StillImage"/>
    <dc:date>2021-09-01T19:14:07.068675</dc:date>
    <dc:format>image/svg+xml</dc:format>
    <dc:creator>
     <cc:Agent>
      <dc:title>Matplotlib v3.3.2, https://matplotlib.org/</dc:title>
     </cc:Agent>
    </dc:creator>
   </cc:Work>
  </rdf:RDF>
 </metadata>
 <defs>
  <style type="text/css">*{stroke-linecap:butt;stroke-linejoin:round;}</style>
 </defs>
 <g id="figure_1">
  <g id="patch_1">
   <path d="M 0 463.979 
L 545.634911 463.979 
L 545.634911 0 
L 0 0 
z
" style="fill:#ffffff;"/>
  </g>
  <g id="axes_1">
   <g id="patch_2">
    <path d="M 65.63 408.309 
L 538.434911 408.309 
L 538.434911 27.789 
L 65.63 27.789 
z
" style="fill:#ffffff;"/>
   </g>
   <g id="matplotlib.axis_1">
    <g id="xtick_1">
     <g id="line2d_1">
      <defs>
       <path d="M 0 0 
L 0 10 
" id="m4ab63d8d80" style="stroke:#000000;stroke-width:1.5;"/>
      </defs>
      <g>
       <use style="stroke:#000000;stroke-width:1.5;" x="72.922787" xlink:href="#m4ab63d8d80" y="408.309"/>
      </g>
     </g>
     <g id="text_1">
      <!-- 0.0 -->
      <g transform="translate(60.200287 433.9665)scale(0.16 -0.16)">
       <defs>
        <path d="M 31.78125 66.40625 
Q 24.171875 66.40625 20.328125 58.90625 
Q 16.5 51.421875 16.5 36.375 
Q 16.5 21.390625 20.328125 13.890625 
Q 24.171875 6.390625 31.78125 6.390625 
Q 39.453125 6.390625 43.28125 13.890625 
Q 47.125 21.390625 47.125 36.375 
Q 47.125 51.421875 43.28125 58.90625 
Q 39.453125 66.40625 31.78125 66.40625 
z
M 31.78125 74.21875 
Q 44.046875 74.21875 50.515625 64.515625 
Q 56.984375 54.828125 56.984375 36.375 
Q 56.984375 17.96875 50.515625 8.265625 
Q 44.046875 -1.421875 31.78125 -1.421875 
Q 19.53125 -1.421875 13.0625 8.265625 
Q 6.59375 17.96875 6.59375 36.375 
Q 6.59375 54.828125 13.0625 64.515625 
Q 19.53125 74.21875 31.78125 74.21875 
z
" id="DejaVuSans-48"/>
        <path d="M 10.6875 12.40625 
L 21 12.40625 
L 21 0 
L 10.6875 0 
z
" id="DejaVuSans-46"/>
       </defs>
       <use xlink:href="#DejaVuSans-48"/>
       <use x="63.623047" xlink:href="#DejaVuSans-46"/>
       <use x="95.410156" xlink:href="#DejaVuSans-48"/>
      </g>
     </g>
    </g>
    <g id="xtick_2">
     <g id="line2d_2">
      <g>
       <use style="stroke:#000000;stroke-width:1.5;" x="145.85066" xlink:href="#m4ab63d8d80" y="408.309"/>
      </g>
     </g>
     <g id="text_2">
      <!-- 0.5 -->
      <g transform="translate(133.12816 433.9665)scale(0.16 -0.16)">
       <defs>
        <path d="M 10.796875 72.90625 
L 49.515625 72.90625 
L 49.515625 64.59375 
L 19.828125 64.59375 
L 19.828125 46.734375 
Q 21.96875 47.46875 24.109375 47.828125 
Q 26.265625 48.1875 28.421875 48.1875 
Q 40.625 48.1875 47.75 41.5 
Q 54.890625 34.8125 54.890625 23.390625 
Q 54.890625 11.625 47.5625 5.09375 
Q 40.234375 -1.421875 26.90625 -1.421875 
Q 22.3125 -1.421875 17.546875 -0.640625 
Q 12.796875 0.140625 7.71875 1.703125 
L 7.71875 11.625 
Q 12.109375 9.234375 16.796875 8.0625 
Q 21.484375 6.890625 26.703125 6.890625 
Q 35.15625 6.890625 40.078125 11.328125 
Q 45.015625 15.765625 45.015625 23.390625 
Q 45.015625 31 40.078125 35.4375 
Q 35.15625 39.890625 26.703125 39.890625 
Q 22.75 39.890625 18.8125 39.015625 
Q 14.890625 38.140625 10.796875 36.28125 
z
" id="DejaVuSans-53"/>
       </defs>
       <use xlink:href="#DejaVuSans-48"/>
       <use x="63.623047" xlink:href="#DejaVuSans-46"/>
       <use x="95.410156" xlink:href="#DejaVuSans-53"/>
      </g>
     </g>
    </g>
    <g id="xtick_3">
     <g id="line2d_3">
      <g>
       <use style="stroke:#000000;stroke-width:1.5;" x="218.778532" xlink:href="#m4ab63d8d80" y="408.309"/>
      </g>
     </g>
     <g id="text_3">
      <!-- 1.0 -->
      <g transform="translate(206.056032 433.9665)scale(0.16 -0.16)">
       <defs>
        <path d="M 12.40625 8.296875 
L 28.515625 8.296875 
L 28.515625 63.921875 
L 10.984375 60.40625 
L 10.984375 69.390625 
L 28.421875 72.90625 
L 38.28125 72.90625 
L 38.28125 8.296875 
L 54.390625 8.296875 
L 54.390625 0 
L 12.40625 0 
z
" id="DejaVuSans-49"/>
       </defs>
       <use xlink:href="#DejaVuSans-49"/>
       <use x="63.623047" xlink:href="#DejaVuSans-46"/>
       <use x="95.410156" xlink:href="#DejaVuSans-48"/>
      </g>
     </g>
    </g>
    <g id="xtick_4">
     <g id="line2d_4">
      <g>
       <use style="stroke:#000000;stroke-width:1.5;" x="291.706405" xlink:href="#m4ab63d8d80" y="408.309"/>
      </g>
     </g>
     <g id="text_4">
      <!-- 1.5 -->
      <g transform="translate(278.983905 433.9665)scale(0.16 -0.16)">
       <use xlink:href="#DejaVuSans-49"/>
       <use x="63.623047" xlink:href="#DejaVuSans-46"/>
       <use x="95.410156" xlink:href="#DejaVuSans-53"/>
      </g>
     </g>
    </g>
    <g id="xtick_5">
     <g id="line2d_5">
      <g>
       <use style="stroke:#000000;stroke-width:1.5;" x="364.634277" xlink:href="#m4ab63d8d80" y="408.309"/>
      </g>
     </g>
     <g id="text_5">
      <!-- 2.0 -->
      <g transform="translate(351.911777 433.9665)scale(0.16 -0.16)">
       <defs>
        <path d="M 19.1875 8.296875 
L 53.609375 8.296875 
L 53.609375 0 
L 7.328125 0 
L 7.328125 8.296875 
Q 12.9375 14.109375 22.625 23.890625 
Q 32.328125 33.6875 34.8125 36.53125 
Q 39.546875 41.84375 41.421875 45.53125 
Q 43.3125 49.21875 43.3125 52.78125 
Q 43.3125 58.59375 39.234375 62.25 
Q 35.15625 65.921875 28.609375 65.921875 
Q 23.96875 65.921875 18.8125 64.3125 
Q 13.671875 62.703125 7.8125 59.421875 
L 7.8125 69.390625 
Q 13.765625 71.78125 18.9375 73 
Q 24.125 74.21875 28.421875 74.21875 
Q 39.75 74.21875 46.484375 68.546875 
Q 53.21875 62.890625 53.21875 53.421875 
Q 53.21875 48.921875 51.53125 44.890625 
Q 49.859375 40.875 45.40625 35.40625 
Q 44.1875 33.984375 37.640625 27.21875 
Q 31.109375 20.453125 19.1875 8.296875 
z
" id="DejaVuSans-50"/>
       </defs>
       <use xlink:href="#DejaVuSans-50"/>
       <use x="63.623047" xlink:href="#DejaVuSans-46"/>
       <use x="95.410156" xlink:href="#DejaVuSans-48"/>
      </g>
     </g>
    </g>
    <g id="xtick_6">
     <g id="line2d_6">
      <g>
       <use style="stroke:#000000;stroke-width:1.5;" x="437.562149" xlink:href="#m4ab63d8d80" y="408.309"/>
      </g>
     </g>
     <g id="text_6">
      <!-- 2.5 -->
      <g transform="translate(424.839649 433.9665)scale(0.16 -0.16)">
       <use xlink:href="#DejaVuSans-50"/>
       <use x="63.623047" xlink:href="#DejaVuSans-46"/>
       <use x="95.410156" xlink:href="#DejaVuSans-53"/>
      </g>
     </g>
    </g>
    <g id="xtick_7">
     <g id="line2d_7">
      <g>
       <use style="stroke:#000000;stroke-width:1.5;" x="510.490022" xlink:href="#m4ab63d8d80" y="408.309"/>
      </g>
     </g>
     <g id="text_7">
      <!-- 3.0 -->
      <g transform="translate(497.767522 433.9665)scale(0.16 -0.16)">
       <defs>
        <path d="M 40.578125 39.3125 
Q 47.65625 37.796875 51.625 33 
Q 55.609375 28.21875 55.609375 21.1875 
Q 55.609375 10.40625 48.1875 4.484375 
Q 40.765625 -1.421875 27.09375 -1.421875 
Q 22.515625 -1.421875 17.65625 -0.515625 
Q 12.796875 0.390625 7.625 2.203125 
L 7.625 11.71875 
Q 11.71875 9.328125 16.59375 8.109375 
Q 21.484375 6.890625 26.8125 6.890625 
Q 36.078125 6.890625 40.9375 10.546875 
Q 45.796875 14.203125 45.796875 21.1875 
Q 45.796875 27.640625 41.28125 31.265625 
Q 36.765625 34.90625 28.71875 34.90625 
L 20.21875 34.90625 
L 20.21875 43.015625 
L 29.109375 43.015625 
Q 36.375 43.015625 40.234375 45.921875 
Q 44.09375 48.828125 44.09375 54.296875 
Q 44.09375 59.90625 40.109375 62.90625 
Q 36.140625 65.921875 28.71875 65.921875 
Q 24.65625 65.921875 20.015625 65.03125 
Q 15.375 64.15625 9.8125 62.3125 
L 9.8125 71.09375 
Q 15.4375 72.65625 20.34375 73.4375 
Q 25.25 74.21875 29.59375 74.21875 
Q 40.828125 74.21875 47.359375 69.109375 
Q 53.90625 64.015625 53.90625 55.328125 
Q 53.90625 49.265625 50.4375 45.09375 
Q 46.96875 40.921875 40.578125 39.3125 
z
" id="DejaVuSans-51"/>
       </defs>
       <use xlink:href="#DejaVuSans-51"/>
       <use x="63.623047" xlink:href="#DejaVuSans-46"/>
       <use x="95.410156" xlink:href="#DejaVuSans-48"/>
      </g>
     </g>
    </g>
    <g id="text_8">
     <!-- $k$ -->
     <g transform="translate(297.392456 453.4515)scale(0.16 -0.16)">
      <defs>
       <path d="M 18.3125 75.984375 
L 27.296875 75.984375 
L 18.703125 31.6875 
L 49.515625 54.6875 
L 61.1875 54.6875 
L 26.8125 28.515625 
L 51.90625 0 
L 41.015625 0 
L 17.671875 26.703125 
L 12.5 0 
L 3.515625 0 
z
" id="DejaVuSans-Oblique-107"/>
      </defs>
      <use transform="translate(0 0.015625)" xlink:href="#DejaVuSans-Oblique-107"/>
     </g>
    </g>
   </g>
   <g id="matplotlib.axis_2">
    <g id="ytick_1">
     <g id="line2d_8">
      <defs>
       <path d="M 0 0 
L -10 0 
" id="mc84d79d374" style="stroke:#000000;stroke-width:1.5;"/>
      </defs>
      <g>
       <use style="stroke:#000000;stroke-width:1.5;" x="65.63" xlink:href="#mc84d79d374" y="391.012636"/>
      </g>
     </g>
     <g id="text_9">
      <!-- 0.0 -->
      <g transform="translate(26.685 397.091386)scale(0.16 -0.16)">
       <use xlink:href="#DejaVuSans-48"/>
       <use x="63.623047" xlink:href="#DejaVuSans-46"/>
       <use x="95.410156" xlink:href="#DejaVuSans-48"/>
      </g>
     </g>
    </g>
    <g id="ytick_2">
     <g id="line2d_9">
      <g>
       <use style="stroke:#000000;stroke-width:1.5;" x="65.63" xlink:href="#mc84d79d374" y="336.316732"/>
      </g>
     </g>
     <g id="text_10">
      <!-- 0.5 -->
      <g transform="translate(26.685 342.395482)scale(0.16 -0.16)">
       <use xlink:href="#DejaVuSans-48"/>
       <use x="63.623047" xlink:href="#DejaVuSans-46"/>
       <use x="95.410156" xlink:href="#DejaVuSans-53"/>
      </g>
     </g>
    </g>
    <g id="ytick_3">
     <g id="line2d_10">
      <g>
       <use style="stroke:#000000;stroke-width:1.5;" x="65.63" xlink:href="#mc84d79d374" y="281.620828"/>
      </g>
     </g>
     <g id="text_11">
      <!-- 1.0 -->
      <g transform="translate(26.685 287.699578)scale(0.16 -0.16)">
       <use xlink:href="#DejaVuSans-49"/>
       <use x="63.623047" xlink:href="#DejaVuSans-46"/>
       <use x="95.410156" xlink:href="#DejaVuSans-48"/>
      </g>
     </g>
    </g>
    <g id="ytick_4">
     <g id="line2d_11">
      <g>
       <use style="stroke:#000000;stroke-width:1.5;" x="65.63" xlink:href="#mc84d79d374" y="226.924923"/>
      </g>
     </g>
     <g id="text_12">
      <!-- 1.5 -->
      <g transform="translate(26.685 233.003673)scale(0.16 -0.16)">
       <use xlink:href="#DejaVuSans-49"/>
       <use x="63.623047" xlink:href="#DejaVuSans-46"/>
       <use x="95.410156" xlink:href="#DejaVuSans-53"/>
      </g>
     </g>
    </g>
    <g id="ytick_5">
     <g id="line2d_12">
      <g>
       <use style="stroke:#000000;stroke-width:1.5;" x="65.63" xlink:href="#mc84d79d374" y="172.229019"/>
      </g>
     </g>
     <g id="text_13">
      <!-- 2.0 -->
      <g transform="translate(26.685 178.307769)scale(0.16 -0.16)">
       <use xlink:href="#DejaVuSans-50"/>
       <use x="63.623047" xlink:href="#DejaVuSans-46"/>
       <use x="95.410156" xlink:href="#DejaVuSans-48"/>
      </g>
     </g>
    </g>
    <g id="ytick_6">
     <g id="line2d_13">
      <g>
       <use style="stroke:#000000;stroke-width:1.5;" x="65.63" xlink:href="#mc84d79d374" y="117.533115"/>
      </g>
     </g>
     <g id="text_14">
      <!-- 2.5 -->
      <g transform="translate(26.685 123.611865)scale(0.16 -0.16)">
       <use xlink:href="#DejaVuSans-50"/>
       <use x="63.623047" xlink:href="#DejaVuSans-46"/>
       <use x="95.410156" xlink:href="#DejaVuSans-53"/>
      </g>
     </g>
    </g>
    <g id="ytick_7">
     <g id="line2d_14">
      <g>
       <use style="stroke:#000000;stroke-width:1.5;" x="65.63" xlink:href="#mc84d79d374" y="62.83721"/>
      </g>
     </g>
     <g id="text_15">
      <!-- 3.0 -->
      <g transform="translate(26.685 68.91596)scale(0.16 -0.16)">
       <use xlink:href="#DejaVuSans-51"/>
       <use x="63.623047" xlink:href="#DejaVuSans-46"/>
       <use x="95.410156" xlink:href="#DejaVuSans-48"/>
      </g>
     </g>
    </g>
    <g id="text_16">
     <!-- $\omega$ -->
     <g transform="translate(19.3575 224.769)rotate(-90)scale(0.16 -0.16)">
      <defs>
       <path d="M 21.390625 -1.421875 
Q 1.125 -1.421875 6.78125 27.59375 
Q 8.984375 39.0625 19.625 54.6875 
L 29.296875 54.6875 
Q 19.234375 39.0625 17 27.34375 
Q 12.796875 6.203125 23.734375 6.203125 
Q 33.84375 6.203125 38.71875 32.46875 
L 47.015625 32.46875 
Q 41.703125 6.0625 51.8125 6.203125 
Q 62.703125 6.296875 66.796875 27.34375 
Q 69.046875 39.0625 65.140625 54.6875 
L 74.8125 54.6875 
Q 79.296875 39.0625 77.09375 27.59375 
Q 71.53125 -1.46875 51.21875 -1.421875 
Q 37.9375 -1.375 39.109375 13.1875 
Q 34.28125 -1.421875 21.390625 -1.421875 
z
" id="DejaVuSans-Oblique-969"/>
      </defs>
      <use transform="translate(0 0.3125)" xlink:href="#DejaVuSans-Oblique-969"/>
     </g>
    </g>
   </g>
   <g id="line2d_15">
    <path clip-path="url(#p91e33bddda)" d="M -1 322.489525 
L 10.93921 333.148593 
L 25.631613 346.561734 
L 43.078842 362.803377 
L 67.872274 386.221796 
L 72.46365 390.577061 
L 73.381925 390.577061 
L 106.439833 359.361925 
L 123.887062 343.182106 
L 138.579466 329.843724 
L 151.435319 318.460721 
L 163.372897 308.190364 
L 174.392199 299.01648 
L 184.493227 290.909032 
L 193.675979 283.825978 
L 201.940456 277.715256 
L 210.204933 271.883862 
L 217.551135 266.959716 
L 224.897337 262.303925 
L 231.325263 258.469869 
L 237.75319 254.878124 
L 244.181116 251.547181 
L 250.609043 248.496088 
L 256.118694 246.118244 
L 261.628346 243.972294 
L 267.137997 242.070037 
L 272.647648 240.422701 
L 278.1573 239.040655 
L 282.748676 238.098281 
L 287.340052 237.351103 
L 291.931428 236.802851 
L 296.522804 236.45633 
L 301.11418 236.313345 
L 302.032456 236.309257 
L 302.032456 236.309257 
" style="fill:none;stroke:#1f77b4;stroke-linecap:square;stroke-width:1.5;"/>
   </g>
   <g id="line2d_16">
    <path clip-path="url(#p91e33bddda)" d="M 302.032456 81.605878 
L 308.47329 81.505488 
L 314.914124 81.206327 
L 322.275077 80.628771 
L 329.63603 79.813871 
L 336.996983 78.781126 
L 345.278056 77.388035 
L 354.479247 75.596424 
L 364.600558 73.390746 
L 377.482226 70.335002 
L 399.565085 64.807604 
L 419.807707 59.829735 
L 433.609494 56.665333 
L 445.571043 54.148006 
L 456.612473 52.048554 
L 466.733783 50.336985 
L 476.855094 48.846642 
L 486.976405 47.591329 
L 496.177596 46.663378 
L 505.378788 45.945193 
L 514.579979 45.441578 
L 523.781171 45.155825 
L 531.142124 45.085364 
L 531.142124 45.085364 
" style="fill:none;stroke:#1f77b4;stroke-linecap:square;stroke-width:1.5;"/>
   </g>
   <g id="line2d_17">
    <path clip-path="url(#p91e33bddda)" d="M -1 315.053056 
L 11.857485 327.885754 
L 28.386439 344.699929 
L 48.588494 365.590861 
L 72.46365 390.532051 
L 73.381925 390.532051 
L 108.276383 354.159098 
L 127.560163 334.38733 
L 143.170842 318.695034 
L 156.94497 305.163958 
L 168.882548 293.735621 
L 179.901851 283.482361 
L 190.002878 274.376739 
L 199.18563 266.380638 
L 208.368383 258.692763 
L 216.63286 252.074313 
L 223.979062 246.462119 
L 231.325263 241.136707 
L 237.75319 236.739487 
L 244.181116 232.614549 
L 249.690768 229.317349 
L 255.200419 226.26091 
L 260.71007 223.466023 
L 266.219722 220.954331 
L 270.811098 219.093449 
L 275.402474 217.457077 
L 279.99385 216.05727 
L 284.585226 214.905172 
L 289.176602 214.010584 
L 293.767979 213.381542 
L 298.359355 213.023933 
L 302.032456 212.935674 
L 302.032456 212.935674 
" style="fill:none;stroke:#ff7f0e;stroke-linecap:square;stroke-width:1.5;"/>
   </g>
   <g id="line2d_18">
    <path clip-path="url(#p91e33bddda)" d="M 302.032456 94.441779 
L 307.55317 94.32223 
L 313.073885 93.966336 
L 318.5946 93.382147 
L 324.115315 92.582392 
L 330.556149 91.399079 
L 336.996983 89.975695 
L 344.357936 88.098076 
L 352.639009 85.726963 
L 361.8402 82.853116 
L 374.721868 78.566487 
L 411.526634 66.150982 
L 423.488183 62.425186 
L 434.529613 59.225538 
L 444.650924 56.528102 
L 453.852115 54.291937 
L 463.053307 52.276485 
L 472.254498 50.493619 
L 481.45569 48.953062 
L 489.736762 47.780275 
L 498.017834 46.814762 
L 506.298907 46.060165 
L 514.579979 45.519243 
L 522.861051 45.193928 
L 531.142124 45.085364 
L 531.142124 45.085364 
" style="fill:none;stroke:#ff7f0e;stroke-linecap:square;stroke-width:1.5;"/>
   </g>
   <g id="line2d_19">
    <path clip-path="url(#p91e33bddda)" d="M -1 309.786783 
L 13.694035 325.579492 
L 32.05954 345.643571 
L 55.934696 372.081828 
L 72.46365 390.500603 
L 73.381925 390.500603 
L 111.031209 348.677494 
L 131.233264 326.574955 
L 147.762218 308.810952 
L 162.454622 293.345882 
L 175.310475 280.127532 
L 187.248053 268.169827 
L 198.267355 257.452693 
L 208.368383 247.946748 
L 217.551135 239.613806 
L 225.815612 232.406974 
L 233.161814 226.270637 
L 240.508016 220.428033 
L 246.935942 215.593642 
L 253.363869 211.05865 
L 258.87352 207.444369 
L 264.383171 204.11728 
L 268.974547 201.591451 
L 273.565924 199.315625 
L 278.1573 197.315379 
L 281.830401 195.931155 
L 285.503502 194.753122 
L 289.176602 193.793555 
L 292.849703 193.063316 
L 296.522804 192.571241 
L 300.195905 192.323582 
L 302.032456 192.292547 
L 302.032456 192.292547 
" style="fill:none;stroke:#2ca02c;stroke-linecap:square;stroke-width:1.5;"/>
   </g>
   <g id="line2d_20">
    <path clip-path="url(#p91e33bddda)" d="M 302.032456 107.85896 
L 306.633051 107.722585 
L 311.233647 107.317442 
L 315.834243 106.655035 
L 320.434839 105.753154 
L 325.035434 104.634154 
L 330.556149 103.040125 
L 336.076864 101.214516 
L 342.517698 98.850214 
L 349.878651 95.916554 
L 359.999962 91.621977 
L 403.245562 72.937533 
L 413.366873 68.940117 
L 423.488183 65.18602 
L 432.689375 62.008633 
L 441.890566 59.073228 
L 450.171639 56.649754 
L 458.452711 54.441822 
L 466.733783 52.456343 
L 475.014856 50.699071 
L 483.295928 49.174777 
L 491.577 47.887374 
L 499.858073 46.840021 
L 508.139145 46.035193 
L 516.420217 45.474742 
L 524.70129 45.159928 
L 531.142124 45.085364 
L 531.142124 45.085364 
" style="fill:none;stroke:#2ca02c;stroke-linecap:square;stroke-width:1.5;"/>
   </g>
   <g id="line2d_21">
    <path clip-path="url(#p91e33bddda)" d="M -1 306.353737 
L 15.530586 324.960038 
L 36.650916 349.081563 
L 65.117448 381.964261 
L 72.46365 390.480307 
L 73.381925 390.480307 
L 112.867759 344.864258 
L 133.98809 320.801773 
L 151.435319 301.241578 
L 167.045998 284.06337 
L 180.820126 269.218161 
L 193.675979 255.677034 
L 205.613557 243.42182 
L 216.63286 232.427596 
L 226.733887 222.664254 
L 235.916639 214.097283 
L 244.181116 206.687527 
L 251.527318 200.389776 
L 257.955245 195.150312 
L 263.464896 190.904183 
L 268.974547 186.933491 
L 273.565924 183.879483 
L 278.1573 181.10573 
L 281.830401 179.125784 
L 285.503502 177.393899 
L 289.176602 175.945939 
L 291.931428 175.068268 
L 294.686254 174.385301 
L 297.441079 173.909519 
L 300.195905 173.65033 
L 302.032456 173.600717 
L 302.032456 173.600717 
" style="fill:none;stroke:#d62728;stroke-linecap:square;stroke-width:1.5;"/>
   </g>
   <g id="line2d_22">
    <path clip-path="url(#p91e33bddda)" d="M 302.032456 121.944364 
L 304.792813 121.853931 
L 307.55317 121.585008 
L 311.233647 120.961219 
L 314.914124 120.058936 
L 318.5946 118.911773 
L 322.275077 117.556316 
L 326.875673 115.623667 
L 332.396387 113.03789 
L 338.837222 109.767022 
L 348.038413 104.821378 
L 380.242583 87.281033 
L 390.363894 82.102444 
L 399.565085 77.620513 
L 408.766277 73.37913 
L 417.967468 69.396765 
L 426.248541 66.04604 
L 434.529613 62.925213 
L 442.810685 60.041239 
L 451.091758 57.399927 
L 459.37283 55.006165 
L 467.653903 52.864076 
L 475.934975 50.977141 
L 483.295928 49.516439 
L 490.656881 48.261369 
L 498.017834 47.213364 
L 505.378788 46.373593 
L 512.739741 45.742974 
L 520.100694 45.322187 
L 527.461647 45.111682 
L 531.142124 45.085364 
L 531.142124 45.085364 
" style="fill:none;stroke:#d62728;stroke-linecap:square;stroke-width:1.5;"/>
   </g>
   <g id="line2d_23">
    <path clip-path="url(#p91e33bddda)" d="M -1 304.584055 
L 16.448861 324.682134 
L 38.487466 350.404574 
L 70.627099 388.299039 
L 72.46365 390.469911 
L 73.381925 390.469911 
L 114.70431 341.796683 
L 136.742915 316.186651 
L 155.10842 295.172954 
L 171.637374 276.592726 
L 186.329777 260.394958 
L 200.103906 245.524057 
L 212.959759 231.955001 
L 224.897337 219.655103 
L 236.834915 207.677825 
L 247.854217 196.94518 
L 257.955245 187.423642 
L 267.137997 179.089369 
L 274.484199 172.71254 
L 280.912125 167.438921 
L 285.503502 163.938721 
L 289.176602 161.386193 
L 291.931428 159.684552 
L 294.686254 158.241522 
L 296.522804 157.468743 
L 298.359355 156.884146 
L 300.195905 156.518152 
L 302.032456 156.393345 
L 302.032456 156.393345 
" style="fill:none;stroke:#9467bd;stroke-linecap:square;stroke-width:1.5;"/>
   </g>
   <g id="line2d_24">
    <path clip-path="url(#p91e33bddda)" d="M 302.032456 136.809044 
L 303.872694 136.693449 
L 305.712932 136.355158 
L 307.55317 135.816919 
L 310.313528 134.702164 
L 313.073885 133.311543 
L 316.754362 131.174654 
L 321.354958 128.2371 
L 329.63603 122.626389 
L 349.878651 108.814892 
L 359.999962 102.208244 
L 369.201153 96.45089 
L 378.402345 90.954158 
L 387.603536 85.733425 
L 395.884609 81.280187 
L 404.165681 77.066309 
L 412.446754 73.097292 
L 420.727826 69.377861 
L 429.008898 65.912143 
L 437.289971 62.703787 
L 445.571043 59.756034 
L 452.931996 57.356927 
L 460.292949 55.167826 
L 467.653903 53.190355 
L 475.014856 51.425961 
L 482.375809 49.875919 
L 489.736762 48.541341 
L 497.097715 47.423175 
L 504.458668 46.522213 
L 511.819622 45.839087 
L 519.180575 45.374277 
L 526.541528 45.128108 
L 531.142124 45.085364 
L 531.142124 45.085364 
" style="fill:none;stroke:#9467bd;stroke-linecap:square;stroke-width:1.5;"/>
   </g>
   <g id="line2d_25">
    <path clip-path="url(#p91e33bddda)" d="M 72.922787 391.012636 
L 114.245172 342.174033 
L 136.283778 316.46515 
L 154.649282 295.359801 
L 171.178236 276.686687 
L 186.788915 259.386906 
L 201.481319 243.44814 
L 215.255447 228.844695 
L 228.1113 215.540323 
L 240.048878 203.490832 
L 251.986456 191.75533 
L 263.005759 181.218253 
L 274.025061 170.9805 
L 285.044364 161.05668 
L 295.145391 152.247726 
L 305.246419 143.725026 
L 315.347446 135.498798 
L 325.448474 127.578903 
L 334.631226 120.652823 
L 343.813978 113.994626 
L 352.99673 107.610909 
L 362.179483 101.507997 
L 371.362235 95.691937 
L 379.626712 90.707511 
L 387.891189 85.964107 
L 396.155666 81.465533 
L 404.420143 77.215399 
L 412.68462 73.217115 
L 420.949097 69.473892 
L 429.213574 65.988733 
L 437.478051 62.764435 
L 445.742528 59.803587 
L 453.08873 57.394815 
L 460.434932 55.197609 
L 467.781133 53.213361 
L 475.127335 51.443331 
L 482.473537 49.88864 
L 489.819739 48.550275 
L 497.165941 47.429085 
L 504.512142 46.525779 
L 511.858344 45.840932 
L 519.204546 45.374978 
L 526.550748 45.128211 
L 531.142124 45.085364 
L 531.142124 45.085364 
" style="fill:none;stroke:#000000;stroke-linecap:square;stroke-width:1.5;"/>
   </g>
   <g id="line2d_26">
    <path clip-path="url(#p91e33bddda)" d="M 72.922787 408.309 
L 72.922787 27.789 
" style="fill:none;stroke:#808080;stroke-dasharray:5.55,2.4;stroke-dashoffset:0;stroke-width:1.5;"/>
   </g>
   <g id="line2d_27">
    <path clip-path="url(#p91e33bddda)" d="M 302.032456 408.309 
L 302.032456 27.789 
" style="fill:none;stroke:#808080;stroke-dasharray:5.55,2.4;stroke-dashoffset:0;stroke-width:1.5;"/>
   </g>
   <g id="line2d_28">
    <path clip-path="url(#p91e33bddda)" d="M 531.142124 408.309 
L 531.142124 27.789 
" style="fill:none;stroke:#808080;stroke-dasharray:5.55,2.4;stroke-dashoffset:0;stroke-width:1.5;"/>
   </g>
   <g id="patch_3">
    <path d="M 65.63 408.309 
L 65.63 27.789 
" style="fill:none;stroke:#000000;stroke-linecap:square;stroke-linejoin:miter;stroke-width:2.5;"/>
   </g>
   <g id="patch_4">
    <path d="M 538.434911 408.309 
L 538.434911 27.789 
" style="fill:none;stroke:#000000;stroke-linecap:square;stroke-linejoin:miter;stroke-width:2.5;"/>
   </g>
   <g id="patch_5">
    <path d="M 65.63 408.309 
L 538.434911 408.309 
" style="fill:none;stroke:#000000;stroke-linecap:square;stroke-linejoin:miter;stroke-width:2.5;"/>
   </g>
   <g id="patch_6">
    <path d="M 65.63 27.789 
L 538.434911 27.789 
" style="fill:none;stroke:#000000;stroke-linecap:square;stroke-linejoin:miter;stroke-width:2.5;"/>
   </g>
   <g id="text_17">
    <!-- Extended zone $\Delta\kappa = \kappa_1 - \kappa_2$ -->
    <g transform="translate(171.184456 21.789)scale(0.192 -0.192)">
     <defs>
      <path d="M 9.8125 72.90625 
L 55.90625 72.90625 
L 55.90625 64.59375 
L 19.671875 64.59375 
L 19.671875 43.015625 
L 54.390625 43.015625 
L 54.390625 34.71875 
L 19.671875 34.71875 
L 19.671875 8.296875 
L 56.78125 8.296875 
L 56.78125 0 
L 9.8125 0 
z
" id="DejaVuSans-69"/>
      <path d="M 54.890625 54.6875 
L 35.109375 28.078125 
L 55.90625 0 
L 45.3125 0 
L 29.390625 21.484375 
L 13.484375 0 
L 2.875 0 
L 24.125 28.609375 
L 4.6875 54.6875 
L 15.28125 54.6875 
L 29.78125 35.203125 
L 44.28125 54.6875 
z
" id="DejaVuSans-120"/>
      <path d="M 18.3125 70.21875 
L 18.3125 54.6875 
L 36.8125 54.6875 
L 36.8125 47.703125 
L 18.3125 47.703125 
L 18.3125 18.015625 
Q 18.3125 11.328125 20.140625 9.421875 
Q 21.96875 7.515625 27.59375 7.515625 
L 36.8125 7.515625 
L 36.8125 0 
L 27.59375 0 
Q 17.1875 0 13.234375 3.875 
Q 9.28125 7.765625 9.28125 18.015625 
L 9.28125 47.703125 
L 2.6875 47.703125 
L 2.6875 54.6875 
L 9.28125 54.6875 
L 9.28125 70.21875 
z
" id="DejaVuSans-116"/>
      <path d="M 56.203125 29.59375 
L 56.203125 25.203125 
L 14.890625 25.203125 
Q 15.484375 15.921875 20.484375 11.0625 
Q 25.484375 6.203125 34.421875 6.203125 
Q 39.59375 6.203125 44.453125 7.46875 
Q 49.3125 8.734375 54.109375 11.28125 
L 54.109375 2.78125 
Q 49.265625 0.734375 44.1875 -0.34375 
Q 39.109375 -1.421875 33.890625 -1.421875 
Q 20.796875 -1.421875 13.15625 6.1875 
Q 5.515625 13.8125 5.515625 26.8125 
Q 5.515625 40.234375 12.765625 48.109375 
Q 20.015625 56 32.328125 56 
Q 43.359375 56 49.78125 48.890625 
Q 56.203125 41.796875 56.203125 29.59375 
z
M 47.21875 32.234375 
Q 47.125 39.59375 43.09375 43.984375 
Q 39.0625 48.390625 32.421875 48.390625 
Q 24.90625 48.390625 20.390625 44.140625 
Q 15.875 39.890625 15.1875 32.171875 
z
" id="DejaVuSans-101"/>
      <path d="M 54.890625 33.015625 
L 54.890625 0 
L 45.90625 0 
L 45.90625 32.71875 
Q 45.90625 40.484375 42.875 44.328125 
Q 39.84375 48.1875 33.796875 48.1875 
Q 26.515625 48.1875 22.3125 43.546875 
Q 18.109375 38.921875 18.109375 30.90625 
L 18.109375 0 
L 9.078125 0 
L 9.078125 54.6875 
L 18.109375 54.6875 
L 18.109375 46.1875 
Q 21.34375 51.125 25.703125 53.5625 
Q 30.078125 56 35.796875 56 
Q 45.21875 56 50.046875 50.171875 
Q 54.890625 44.34375 54.890625 33.015625 
z
" id="DejaVuSans-110"/>
      <path d="M 45.40625 46.390625 
L 45.40625 75.984375 
L 54.390625 75.984375 
L 54.390625 0 
L 45.40625 0 
L 45.40625 8.203125 
Q 42.578125 3.328125 38.25 0.953125 
Q 33.9375 -1.421875 27.875 -1.421875 
Q 17.96875 -1.421875 11.734375 6.484375 
Q 5.515625 14.40625 5.515625 27.296875 
Q 5.515625 40.1875 11.734375 48.09375 
Q 17.96875 56 27.875 56 
Q 33.9375 56 38.25 53.625 
Q 42.578125 51.265625 45.40625 46.390625 
z
M 14.796875 27.296875 
Q 14.796875 17.390625 18.875 11.75 
Q 22.953125 6.109375 30.078125 6.109375 
Q 37.203125 6.109375 41.296875 11.75 
Q 45.40625 17.390625 45.40625 27.296875 
Q 45.40625 37.203125 41.296875 42.84375 
Q 37.203125 48.484375 30.078125 48.484375 
Q 22.953125 48.484375 18.875 42.84375 
Q 14.796875 37.203125 14.796875 27.296875 
z
" id="DejaVuSans-100"/>
      <path id="DejaVuSans-32"/>
      <path d="M 5.515625 54.6875 
L 48.1875 54.6875 
L 48.1875 46.484375 
L 14.40625 7.171875 
L 48.1875 7.171875 
L 48.1875 0 
L 4.296875 0 
L 4.296875 8.203125 
L 38.09375 47.515625 
L 5.515625 47.515625 
z
" id="DejaVuSans-122"/>
      <path d="M 30.609375 48.390625 
Q 23.390625 48.390625 19.1875 42.75 
Q 14.984375 37.109375 14.984375 27.296875 
Q 14.984375 17.484375 19.15625 11.84375 
Q 23.34375 6.203125 30.609375 6.203125 
Q 37.796875 6.203125 41.984375 11.859375 
Q 46.1875 17.53125 46.1875 27.296875 
Q 46.1875 37.015625 41.984375 42.703125 
Q 37.796875 48.390625 30.609375 48.390625 
z
M 30.609375 56 
Q 42.328125 56 49.015625 48.375 
Q 55.71875 40.765625 55.71875 27.296875 
Q 55.71875 13.875 49.015625 6.21875 
Q 42.328125 -1.421875 30.609375 -1.421875 
Q 18.84375 -1.421875 12.171875 6.21875 
Q 5.515625 13.875 5.515625 27.296875 
Q 5.515625 40.765625 12.171875 48.375 
Q 18.84375 56 30.609375 56 
z
" id="DejaVuSans-111"/>
      <path d="M 34.1875 63.1875 
L 14.15625 8.203125 
L 54.25 8.203125 
z
M 0.78125 0 
L 28.609375 72.90625 
L 39.796875 72.90625 
L 67.578125 0 
z
" id="DejaVuSans-916"/>
      <path d="M 14.65625 54.6875 
L 23.921875 54.6875 
L 19.484375 31.984375 
L 47.515625 54.6875 
L 58.453125 54.6875 
L 32.90625 34.078125 
L 51.171875 0 
L 40.1875 0 
L 25.4375 28.21875 
L 17.53125 21.921875 
L 13.28125 0 
L 4 0 
z
" id="DejaVuSans-Oblique-954"/>
      <path d="M 10.59375 45.40625 
L 73.1875 45.40625 
L 73.1875 37.203125 
L 10.59375 37.203125 
z
M 10.59375 25.484375 
L 73.1875 25.484375 
L 73.1875 17.1875 
L 10.59375 17.1875 
z
" id="DejaVuSans-61"/>
      <path d="M 10.59375 35.5 
L 73.1875 35.5 
L 73.1875 27.203125 
L 10.59375 27.203125 
z
" id="DejaVuSans-8722"/>
     </defs>
     <use transform="translate(0 0.015625)" xlink:href="#DejaVuSans-69"/>
     <use transform="translate(63.183594 0.015625)" xlink:href="#DejaVuSans-120"/>
     <use transform="translate(122.363281 0.015625)" xlink:href="#DejaVuSans-116"/>
     <use transform="translate(161.572266 0.015625)" xlink:href="#DejaVuSans-101"/>
     <use transform="translate(223.095703 0.015625)" xlink:href="#DejaVuSans-110"/>
     <use transform="translate(286.474609 0.015625)" xlink:href="#DejaVuSans-100"/>
     <use transform="translate(349.951172 0.015625)" xlink:href="#DejaVuSans-101"/>
     <use transform="translate(411.474609 0.015625)" xlink:href="#DejaVuSans-100"/>
     <use transform="translate(474.951172 0.015625)" xlink:href="#DejaVuSans-32"/>
     <use transform="translate(506.738281 0.015625)" xlink:href="#DejaVuSans-122"/>
     <use transform="translate(559.228516 0.015625)" xlink:href="#DejaVuSans-111"/>
     <use transform="translate(620.410156 0.015625)" xlink:href="#DejaVuSans-110"/>
     <use transform="translate(683.789062 0.015625)" xlink:href="#DejaVuSans-101"/>
     <use transform="translate(745.3125 0.015625)" xlink:href="#DejaVuSans-32"/>
     <use transform="translate(777.099609 0.015625)" xlink:href="#DejaVuSans-916"/>
     <use transform="translate(845.507812 0.015625)" xlink:href="#DejaVuSans-Oblique-954"/>
     <use transform="translate(923.925781 0.015625)" xlink:href="#DejaVuSans-61"/>
     <use transform="translate(1027.197266 0.015625)" xlink:href="#DejaVuSans-Oblique-954"/>
     <use transform="translate(1086.132812 -16.390625)scale(0.7)" xlink:href="#DejaVuSans-49"/>
     <use transform="translate(1152.885742 0.015625)" xlink:href="#DejaVuSans-8722"/>
     <use transform="translate(1256.157227 0.015625)" xlink:href="#DejaVuSans-Oblique-954"/>
     <use transform="translate(1315.092773 -16.390625)scale(0.7)" xlink:href="#DejaVuSans-50"/>
    </g>
   </g>
   <g id="legend_1">
    <g id="patch_7">
     <path d="M 339.192411 400.309 
L 527.234911 400.309 
Q 530.434911 400.309 530.434911 397.109 
L 530.434911 257.799 
Q 530.434911 254.599 527.234911 254.599 
L 339.192411 254.599 
Q 335.992411 254.599 335.992411 257.799 
L 335.992411 397.109 
Q 335.992411 400.309 339.192411 400.309 
z
" style="fill:#ffffff;opacity:0.8;stroke:#cccccc;stroke-linejoin:miter;"/>
    </g>
    <g id="line2d_29">
     <path d="M 342.392411 267.5565 
L 374.392411 267.5565 
" style="fill:none;stroke:#1f77b4;stroke-linecap:square;stroke-width:1.5;"/>
    </g>
    <g id="line2d_30"/>
    <g id="text_18">
     <!-- $\Delta\kappa = 3.0$ -->
     <g transform="translate(387.192411 273.1565)scale(0.16 -0.16)">
      <use transform="translate(0 0.78125)" xlink:href="#DejaVuSans-916"/>
      <use transform="translate(68.408203 0.78125)" xlink:href="#DejaVuSans-Oblique-954"/>
      <use transform="translate(146.826172 0.78125)" xlink:href="#DejaVuSans-61"/>
      <use transform="translate(250.097656 0.78125)" xlink:href="#DejaVuSans-51"/>
      <use transform="translate(313.720703 0.78125)" xlink:href="#DejaVuSans-46"/>
      <use transform="translate(345.507812 0.78125)" xlink:href="#DejaVuSans-48"/>
     </g>
    </g>
    <g id="line2d_31">
     <path d="M 342.392411 291.0415 
L 374.392411 291.0415 
" style="fill:none;stroke:#ff7f0e;stroke-linecap:square;stroke-width:1.5;"/>
    </g>
    <g id="line2d_32"/>
    <g id="text_19">
     <!-- $\Delta\kappa = 2.3$ -->
     <g transform="translate(387.192411 296.6415)scale(0.16 -0.16)">
      <use transform="translate(0 0.78125)" xlink:href="#DejaVuSans-916"/>
      <use transform="translate(68.408203 0.78125)" xlink:href="#DejaVuSans-Oblique-954"/>
      <use transform="translate(146.826172 0.78125)" xlink:href="#DejaVuSans-61"/>
      <use transform="translate(250.097656 0.78125)" xlink:href="#DejaVuSans-50"/>
      <use transform="translate(313.720703 0.78125)" xlink:href="#DejaVuSans-46"/>
      <use transform="translate(345.507812 0.78125)" xlink:href="#DejaVuSans-51"/>
     </g>
    </g>
    <g id="line2d_33">
     <path d="M 342.392411 314.5265 
L 374.392411 314.5265 
" style="fill:none;stroke:#2ca02c;stroke-linecap:square;stroke-width:1.5;"/>
    </g>
    <g id="line2d_34"/>
    <g id="text_20">
     <!-- $\Delta\kappa = 1.7$ -->
     <g transform="translate(387.192411 320.1265)scale(0.16 -0.16)">
      <defs>
       <path d="M 8.203125 72.90625 
L 55.078125 72.90625 
L 55.078125 68.703125 
L 28.609375 0 
L 18.3125 0 
L 43.21875 64.59375 
L 8.203125 64.59375 
z
" id="DejaVuSans-55"/>
      </defs>
      <use transform="translate(0 0.09375)" xlink:href="#DejaVuSans-916"/>
      <use transform="translate(68.408203 0.09375)" xlink:href="#DejaVuSans-Oblique-954"/>
      <use transform="translate(146.826172 0.09375)" xlink:href="#DejaVuSans-61"/>
      <use transform="translate(250.097656 0.09375)" xlink:href="#DejaVuSans-49"/>
      <use transform="translate(313.720703 0.09375)" xlink:href="#DejaVuSans-46"/>
      <use transform="translate(337.757812 0.09375)" xlink:href="#DejaVuSans-55"/>
     </g>
    </g>
    <g id="line2d_35">
     <path d="M 342.392411 338.0115 
L 374.392411 338.0115 
" style="fill:none;stroke:#d62728;stroke-linecap:square;stroke-width:1.5;"/>
    </g>
    <g id="line2d_36"/>
    <g id="text_21">
     <!-- $\Delta\kappa = 1.0$ -->
     <g transform="translate(387.192411 343.6115)scale(0.16 -0.16)">
      <use transform="translate(0 0.78125)" xlink:href="#DejaVuSans-916"/>
      <use transform="translate(68.408203 0.78125)" xlink:href="#DejaVuSans-Oblique-954"/>
      <use transform="translate(146.826172 0.78125)" xlink:href="#DejaVuSans-61"/>
      <use transform="translate(250.097656 0.78125)" xlink:href="#DejaVuSans-49"/>
      <use transform="translate(313.720703 0.78125)" xlink:href="#DejaVuSans-46"/>
      <use transform="translate(345.507812 0.78125)" xlink:href="#DejaVuSans-48"/>
     </g>
    </g>
    <g id="line2d_37">
     <path d="M 342.392411 361.4965 
L 374.392411 361.4965 
" style="fill:none;stroke:#9467bd;stroke-linecap:square;stroke-width:1.5;"/>
    </g>
    <g id="line2d_38"/>
    <g id="text_22">
     <!-- $\Delta\kappa = 0.4$ -->
     <g transform="translate(387.192411 367.0965)scale(0.16 -0.16)">
      <defs>
       <path d="M 37.796875 64.3125 
L 12.890625 25.390625 
L 37.796875 25.390625 
z
M 35.203125 72.90625 
L 47.609375 72.90625 
L 47.609375 25.390625 
L 58.015625 25.390625 
L 58.015625 17.1875 
L 47.609375 17.1875 
L 47.609375 0 
L 37.796875 0 
L 37.796875 17.1875 
L 4.890625 17.1875 
L 4.890625 26.703125 
z
" id="DejaVuSans-52"/>
      </defs>
      <use transform="translate(0 0.78125)" xlink:href="#DejaVuSans-916"/>
      <use transform="translate(68.408203 0.78125)" xlink:href="#DejaVuSans-Oblique-954"/>
      <use transform="translate(146.826172 0.78125)" xlink:href="#DejaVuSans-61"/>
      <use transform="translate(250.097656 0.78125)" xlink:href="#DejaVuSans-48"/>
      <use transform="translate(313.720703 0.78125)" xlink:href="#DejaVuSans-46"/>
      <use transform="translate(345.507812 0.78125)" xlink:href="#DejaVuSans-52"/>
     </g>
    </g>
    <g id="line2d_39">
     <path d="M 342.392411 384.9815 
L 374.392411 384.9815 
" style="fill:none;stroke:#000000;stroke-linecap:square;stroke-width:1.5;"/>
    </g>
    <g id="line2d_40"/>
    <g id="text_23">
     <!-- Monatomic chain -->
     <g transform="translate(387.192411 390.5815)scale(0.16 -0.16)">
      <defs>
       <path d="M 9.8125 72.90625 
L 24.515625 72.90625 
L 43.109375 23.296875 
L 61.8125 72.90625 
L 76.515625 72.90625 
L 76.515625 0 
L 66.890625 0 
L 66.890625 64.015625 
L 48.09375 14.015625 
L 38.1875 14.015625 
L 19.390625 64.015625 
L 19.390625 0 
L 9.8125 0 
z
" id="DejaVuSans-77"/>
       <path d="M 34.28125 27.484375 
Q 23.390625 27.484375 19.1875 25 
Q 14.984375 22.515625 14.984375 16.5 
Q 14.984375 11.71875 18.140625 8.90625 
Q 21.296875 6.109375 26.703125 6.109375 
Q 34.1875 6.109375 38.703125 11.40625 
Q 43.21875 16.703125 43.21875 25.484375 
L 43.21875 27.484375 
z
M 52.203125 31.203125 
L 52.203125 0 
L 43.21875 0 
L 43.21875 8.296875 
Q 40.140625 3.328125 35.546875 0.953125 
Q 30.953125 -1.421875 24.3125 -1.421875 
Q 15.921875 -1.421875 10.953125 3.296875 
Q 6 8.015625 6 15.921875 
Q 6 25.140625 12.171875 29.828125 
Q 18.359375 34.515625 30.609375 34.515625 
L 43.21875 34.515625 
L 43.21875 35.40625 
Q 43.21875 41.609375 39.140625 45 
Q 35.0625 48.390625 27.6875 48.390625 
Q 23 48.390625 18.546875 47.265625 
Q 14.109375 46.140625 10.015625 43.890625 
L 10.015625 52.203125 
Q 14.9375 54.109375 19.578125 55.046875 
Q 24.21875 56 28.609375 56 
Q 40.484375 56 46.34375 49.84375 
Q 52.203125 43.703125 52.203125 31.203125 
z
" id="DejaVuSans-97"/>
       <path d="M 52 44.1875 
Q 55.375 50.25 60.0625 53.125 
Q 64.75 56 71.09375 56 
Q 79.640625 56 84.28125 50.015625 
Q 88.921875 44.046875 88.921875 33.015625 
L 88.921875 0 
L 79.890625 0 
L 79.890625 32.71875 
Q 79.890625 40.578125 77.09375 44.375 
Q 74.3125 48.1875 68.609375 48.1875 
Q 61.625 48.1875 57.5625 43.546875 
Q 53.515625 38.921875 53.515625 30.90625 
L 53.515625 0 
L 44.484375 0 
L 44.484375 32.71875 
Q 44.484375 40.625 41.703125 44.40625 
Q 38.921875 48.1875 33.109375 48.1875 
Q 26.21875 48.1875 22.15625 43.53125 
Q 18.109375 38.875 18.109375 30.90625 
L 18.109375 0 
L 9.078125 0 
L 9.078125 54.6875 
L 18.109375 54.6875 
L 18.109375 46.1875 
Q 21.1875 51.21875 25.484375 53.609375 
Q 29.78125 56 35.6875 56 
Q 41.65625 56 45.828125 52.96875 
Q 50 49.953125 52 44.1875 
z
" id="DejaVuSans-109"/>
       <path d="M 9.421875 54.6875 
L 18.40625 54.6875 
L 18.40625 0 
L 9.421875 0 
z
M 9.421875 75.984375 
L 18.40625 75.984375 
L 18.40625 64.59375 
L 9.421875 64.59375 
z
" id="DejaVuSans-105"/>
       <path d="M 48.78125 52.59375 
L 48.78125 44.1875 
Q 44.96875 46.296875 41.140625 47.34375 
Q 37.3125 48.390625 33.40625 48.390625 
Q 24.65625 48.390625 19.8125 42.84375 
Q 14.984375 37.3125 14.984375 27.296875 
Q 14.984375 17.28125 19.8125 11.734375 
Q 24.65625 6.203125 33.40625 6.203125 
Q 37.3125 6.203125 41.140625 7.25 
Q 44.96875 8.296875 48.78125 10.40625 
L 48.78125 2.09375 
Q 45.015625 0.34375 40.984375 -0.53125 
Q 36.96875 -1.421875 32.421875 -1.421875 
Q 20.0625 -1.421875 12.78125 6.34375 
Q 5.515625 14.109375 5.515625 27.296875 
Q 5.515625 40.671875 12.859375 48.328125 
Q 20.21875 56 33.015625 56 
Q 37.15625 56 41.109375 55.140625 
Q 45.0625 54.296875 48.78125 52.59375 
z
" id="DejaVuSans-99"/>
       <path d="M 54.890625 33.015625 
L 54.890625 0 
L 45.90625 0 
L 45.90625 32.71875 
Q 45.90625 40.484375 42.875 44.328125 
Q 39.84375 48.1875 33.796875 48.1875 
Q 26.515625 48.1875 22.3125 43.546875 
Q 18.109375 38.921875 18.109375 30.90625 
L 18.109375 0 
L 9.078125 0 
L 9.078125 75.984375 
L 18.109375 75.984375 
L 18.109375 46.1875 
Q 21.34375 51.125 25.703125 53.5625 
Q 30.078125 56 35.796875 56 
Q 45.21875 56 50.046875 50.171875 
Q 54.890625 44.34375 54.890625 33.015625 
z
" id="DejaVuSans-104"/>
      </defs>
      <use xlink:href="#DejaVuSans-77"/>
      <use x="86.279297" xlink:href="#DejaVuSans-111"/>
      <use x="147.460938" xlink:href="#DejaVuSans-110"/>
      <use x="210.839844" xlink:href="#DejaVuSans-97"/>
      <use x="272.119141" xlink:href="#DejaVuSans-116"/>
      <use x="311.328125" xlink:href="#DejaVuSans-111"/>
      <use x="372.509766" xlink:href="#DejaVuSans-109"/>
      <use x="469.921875" xlink:href="#DejaVuSans-105"/>
      <use x="497.705078" xlink:href="#DejaVuSans-99"/>
      <use x="552.685547" xlink:href="#DejaVuSans-32"/>
      <use x="584.472656" xlink:href="#DejaVuSans-99"/>
      <use x="639.453125" xlink:href="#DejaVuSans-104"/>
      <use x="702.832031" xlink:href="#DejaVuSans-97"/>
      <use x="764.111328" xlink:href="#DejaVuSans-105"/>
      <use x="791.894531" xlink:href="#DejaVuSans-110"/>
     </g>
    </g>
   </g>
  </g>
 </g>
 <defs>
  <clipPath id="p91e33bddda">
   <rect height="380.52" width="472.804911" x="65.63" y="27.789"/>
  </clipPath>
 </defs>
</svg>
