<?xml version="1.0" encoding="utf-8" standalone="no"?>
<!DOCTYPE svg PUBLIC "-//W3C//DTD SVG 1.1//EN"
  "http://www.w3.org/Graphics/SVG/1.1/DTD/svg11.dtd">
<!-- Created with matplotlib (https://matplotlib.org/) -->
<svg height="380.673098pt" version="1.1" viewBox="0 0 581.68 380.673098" width="581.68pt" xmlns="http://www.w3.org/2000/svg" xmlns:xlink="http://www.w3.org/1999/xlink">
 <metadata>
  <rdf:RDF xmlns:cc="http://creativecommons.org/ns#" xmlns:dc="http://purl.org/dc/elements/1.1/" xmlns:rdf="http://www.w3.org/1999/02/22-rdf-syntax-ns#">
   <cc:Work>
    <dc:type rdf:resource="http://purl.org/dc/dcmitype/StillImage"/>
    <dc:date>2021-08-27T17:53:28.989033</dc:date>
    <dc:format>image/svg+xml</dc:format>
    <dc:creator>
     <cc:Agent>
      <dc:title>Matplotlib v3.3.2, https://matplotlib.org/</dc:title>
     </cc:Agent>
    </dc:creator>
   </cc:Work>
  </rdf:RDF>
 </metadata>
 <defs>
  <style type="text/css">*{stroke-linecap:butt;stroke-linejoin:round;}</style>
 </defs>
 <g id="figure_1">
  <g id="patch_1">
   <path d="M 0 380.673098 
L 581.68 380.673098 
L 581.68 0 
L 0 0 
z
" style="fill:#ffffff;"/>
  </g>
  <g id="axes_1">
   <g id="LineCollection_1">
    <path clip-path="url(#pc04a3064a9)" d="M 32.563636 35.453664 
L 539.836364 35.453664 
" style="fill:none;stroke:#1f77b4;stroke-dasharray:5.55,2.4;stroke-dashoffset:0;stroke-width:1.5;"/>
   </g>
   <g id="line2d_1">
    <path clip-path="url(#pc04a3064a9)" d="M 32.563636 35.453664 
L 36.629951 35.556061 
L 40.696265 35.863187 
L 44.76258 36.374847 
L 48.828894 37.090718 
L 52.895209 38.010344 
L 56.961523 39.133143 
L 61.027837 40.458402 
L 65.094152 41.985282 
L 69.160466 43.712814 
L 73.226781 45.639902 
L 78.309674 48.327515 
L 83.392567 51.322354 
L 88.47546 54.62145 
L 93.558353 58.221535 
L 98.641246 62.119042 
L 103.724139 66.310109 
L 108.807032 70.790583 
L 113.889925 75.556026 
L 118.972818 80.601715 
L 124.055711 85.92265 
L 130.155183 92.663657 
L 136.254655 99.783794 
L 142.354126 107.272905 
L 148.453598 115.120303 
L 154.55307 123.314793 
L 160.652541 131.844682 
L 167.768592 142.203866 
L 174.884642 152.982866 
L 182.000692 164.160751 
L 189.116743 175.715814 
L 197.249371 189.354636 
L 205.382 203.422177 
L 214.531208 219.716152 
L 223.680415 236.455242 
L 233.846201 255.51089 
L 245.028566 276.939992 
L 258.244088 302.760599 
L 275.525925 337.060906 
L 285.691711 357.376935 
L 286.708289 357.376935 
L 312.122755 306.770425 
L 326.354855 278.909016 
L 338.553799 255.51089 
L 348.719585 236.455242 
L 358.885371 217.88276 
L 368.034578 201.641498 
L 376.167207 187.625617 
L 384.299836 174.042841 
L 392.432465 160.927618 
L 399.548515 149.861519 
L 406.664565 139.200365 
L 413.780616 128.96486 
L 419.880087 120.545442 
L 425.979559 112.465375 
L 432.079031 104.736187 
L 438.178502 97.368905 
L 444.277974 90.374043 
L 450.377446 83.761578 
L 455.460339 78.550124 
L 460.543232 73.615949 
L 465.626125 68.963943 
L 470.709018 64.598714 
L 475.791911 60.524589 
L 480.874804 56.745604 
L 485.957697 53.265503 
L 491.04059 50.087734 
L 496.123483 47.215447 
L 501.206376 44.651487 
L 505.272691 42.824032 
L 509.339005 41.196697 
L 513.40532 39.770514 
L 517.471634 38.546388 
L 521.537949 37.525095 
L 525.604263 36.707281 
L 529.670578 36.093467 
L 533.736892 35.684042 
L 537.803206 35.479264 
L 539.836364 35.453664 
L 539.836364 35.453664 
" style="fill:none;stroke:#1f77b4;stroke-linecap:square;stroke-width:1.5;"/>
   </g>
   <g id="line2d_2">
    <path clip-path="url(#pc04a3064a9)" d="M 32.563636 373.473098 
L 32.563636 19.3575 
" style="fill:none;stroke:#1f77b4;stroke-dasharray:5.55,2.4;stroke-dashoffset:0;stroke-width:1.5;"/>
   </g>
   <g id="line2d_3">
    <path clip-path="url(#pc04a3064a9)" d="M 539.836364 373.473098 
L 539.836364 19.3575 
" style="fill:none;stroke:#1f77b4;stroke-dasharray:5.55,2.4;stroke-dashoffset:0;stroke-width:1.5;"/>
   </g>
   <g id="text_1">
    <!-- $k =-\pi/a$ -->
    <g transform="translate(56.394858 342.246519)scale(0.16 -0.16)">
     <defs>
      <path d="M 18.3125 75.984375 
L 27.296875 75.984375 
L 18.703125 31.6875 
L 49.515625 54.6875 
L 61.1875 54.6875 
L 26.8125 28.515625 
L 51.90625 0 
L 41.015625 0 
L 17.671875 26.703125 
L 12.5 0 
L 3.515625 0 
z
" id="DejaVuSans-Oblique-107"/>
      <path d="M 10.59375 45.40625 
L 73.1875 45.40625 
L 73.1875 37.203125 
L 10.59375 37.203125 
z
M 10.59375 25.484375 
L 73.1875 25.484375 
L 73.1875 17.1875 
L 10.59375 17.1875 
z
" id="DejaVuSans-61"/>
      <path d="M 10.59375 35.5 
L 73.1875 35.5 
L 73.1875 27.203125 
L 10.59375 27.203125 
z
" id="DejaVuSans-8722"/>
      <path d="M 9.125 54.6875 
L 61.53125 54.6875 
L 59.765625 45.703125 
L 52.875 45.703125 
L 46.34375 12.109375 
Q 45.65625 8.59375 46.578125 7.03125 
Q 47.46875 5.515625 50.140625 5.515625 
Q 50.875 5.515625 51.953125 5.671875 
Q 53.078125 5.765625 53.421875 5.8125 
L 52.15625 -0.6875 
Q 50.34375 -1.3125 48.484375 -1.609375 
Q 46.578125 -1.90625 44.78125 -1.90625 
Q 38.921875 -1.90625 37.3125 1.265625 
Q 35.6875 4.5 37.359375 13.09375 
L 43.703125 45.703125 
L 23.53125 45.703125 
L 14.65625 0 
L 5.46875 0 
L 14.359375 45.703125 
L 7.375 45.703125 
z
" id="DejaVuSans-Oblique-960"/>
      <path d="M 25.390625 72.90625 
L 33.6875 72.90625 
L 8.296875 -9.28125 
L 0 -9.28125 
z
" id="DejaVuSans-47"/>
      <path d="M 53.71875 31.203125 
L 47.609375 0 
L 38.625 0 
L 40.28125 8.296875 
Q 36.328125 3.421875 31.265625 1 
Q 26.21875 -1.421875 20.015625 -1.421875 
Q 13.03125 -1.421875 8.5625 2.84375 
Q 4.109375 7.125 4.109375 13.8125 
Q 4.109375 23.390625 11.75 28.953125 
Q 19.390625 34.515625 32.8125 34.515625 
L 45.3125 34.515625 
L 45.796875 36.921875 
Q 45.90625 37.3125 45.953125 37.765625 
Q 46 38.234375 46 39.203125 
Q 46 43.5625 42.453125 45.96875 
Q 38.921875 48.390625 32.515625 48.390625 
Q 28.125 48.390625 23.5 47.265625 
Q 18.890625 46.140625 14.015625 43.890625 
L 15.578125 52.203125 
Q 20.65625 54.109375 25.515625 55.046875 
Q 30.375 56 34.90625 56 
Q 44.578125 56 49.625 51.796875 
Q 54.6875 47.609375 54.6875 39.59375 
Q 54.6875 37.984375 54.4375 35.8125 
Q 54.203125 33.640625 53.71875 31.203125 
z
M 44 27.484375 
L 35.015625 27.484375 
Q 23.96875 27.484375 18.671875 24.53125 
Q 13.375 21.578125 13.375 15.375 
Q 13.375 11.078125 16.078125 8.640625 
Q 18.796875 6.203125 23.578125 6.203125 
Q 30.90625 6.203125 36.375 11.453125 
Q 41.84375 16.703125 43.609375 25.484375 
z
" id="DejaVuSans-Oblique-97"/>
     </defs>
     <use transform="translate(0 0.015625)" xlink:href="#DejaVuSans-Oblique-107"/>
     <use transform="translate(77.392578 0.015625)" xlink:href="#DejaVuSans-61"/>
     <use transform="translate(200.146484 0.015625)" xlink:href="#DejaVuSans-8722"/>
     <use transform="translate(303.417969 0.015625)" xlink:href="#DejaVuSans-Oblique-960"/>
     <use transform="translate(363.623047 0.015625)" xlink:href="#DejaVuSans-47"/>
     <use transform="translate(397.314453 0.015625)" xlink:href="#DejaVuSans-Oblique-97"/>
    </g>
   </g>
   <g id="text_2">
    <!-- $k =+\pi/a$ -->
    <g transform="translate(442.565142 342.246519)scale(0.16 -0.16)">
     <defs>
      <path d="M 46 62.703125 
L 46 35.5 
L 73.1875 35.5 
L 73.1875 27.203125 
L 46 27.203125 
L 46 0 
L 37.796875 0 
L 37.796875 27.203125 
L 10.59375 27.203125 
L 10.59375 35.5 
L 37.796875 35.5 
L 37.796875 62.703125 
z
" id="DejaVuSans-43"/>
     </defs>
     <use transform="translate(0 0.015625)" xlink:href="#DejaVuSans-Oblique-107"/>
     <use transform="translate(77.392578 0.015625)" xlink:href="#DejaVuSans-61"/>
     <use transform="translate(200.146484 0.015625)" xlink:href="#DejaVuSans-43"/>
     <use transform="translate(303.417969 0.015625)" xlink:href="#DejaVuSans-Oblique-960"/>
     <use transform="translate(363.623047 0.015625)" xlink:href="#DejaVuSans-47"/>
     <use transform="translate(397.314453 0.015625)" xlink:href="#DejaVuSans-Oblique-97"/>
    </g>
   </g>
   <g id="text_3">
    <!-- $\omega =2\sqrt{\frac{\pi}{a}}$ -->
    <g transform="translate(191.088778 67.747648)scale(0.16 -0.16)">
     <defs>
      <path d="M 21.390625 -1.421875 
Q 1.125 -1.421875 6.78125 27.59375 
Q 8.984375 39.0625 19.625 54.6875 
L 29.296875 54.6875 
Q 19.234375 39.0625 17 27.34375 
Q 12.796875 6.203125 23.734375 6.203125 
Q 33.84375 6.203125 38.71875 32.46875 
L 47.015625 32.46875 
Q 41.703125 6.0625 51.8125 6.203125 
Q 62.703125 6.296875 66.796875 27.34375 
Q 69.046875 39.0625 65.140625 54.6875 
L 74.8125 54.6875 
Q 79.296875 39.0625 77.09375 27.59375 
Q 71.53125 -1.46875 51.21875 -1.421875 
Q 37.9375 -1.375 39.109375 13.1875 
Q 34.28125 -1.421875 21.390625 -1.421875 
z
" id="DejaVuSans-Oblique-969"/>
      <path d="M 19.1875 8.296875 
L 53.609375 8.296875 
L 53.609375 0 
L 7.328125 0 
L 7.328125 8.296875 
Q 12.9375 14.109375 22.625 23.890625 
Q 32.328125 33.6875 34.8125 36.53125 
Q 39.546875 41.84375 41.421875 45.53125 
Q 43.3125 49.21875 43.3125 52.78125 
Q 43.3125 58.59375 39.234375 62.25 
Q 35.15625 65.921875 28.609375 65.921875 
Q 23.96875 65.921875 18.8125 64.3125 
Q 13.671875 62.703125 7.8125 59.421875 
L 7.8125 69.390625 
Q 13.765625 71.78125 18.9375 73 
Q 24.125 74.21875 28.421875 74.21875 
Q 39.75 74.21875 46.484375 68.546875 
Q 53.21875 62.890625 53.21875 53.421875 
Q 53.21875 48.921875 51.53125 44.890625 
Q 49.859375 40.875 45.40625 35.40625 
Q 44.1875 33.984375 37.640625 27.21875 
Q 31.109375 20.453125 19.1875 8.296875 
z
" id="DejaVuSans-50"/>
      <path d="M 108.90625 155.203125 
L 52.703125 -29.5 
L 48.5 -29.5 
L 25.40625 45.59375 
Q 24.296875 49.203125 22.890625 50.796875 
Q 21.5 52.40625 19.203125 52.40625 
Q 15.796875 52.40625 12.40625 49.703125 
L 11.203125 51.703125 
L 27.59375 64.296875 
L 30.09375 64.296875 
L 52.796875 -9.40625 
L 53.203125 -9.40625 
L 103.203125 155.203125 
z
" id="STIXSizeOneSym-Regular-8730"/>
     </defs>
     <use transform="translate(0 0.335938)" xlink:href="#DejaVuSans-Oblique-969"/>
     <use transform="translate(103.222656 0.335938)" xlink:href="#DejaVuSans-61"/>
     <use transform="translate(206.494141 0.335938)" xlink:href="#DejaVuSans-50"/>
     <use transform="translate(270.117188 -4.578125)scale(0.770485)" xlink:href="#STIXSizeOneSym-Regular-8730"/>
     <use transform="translate(364.055725 45.46875)scale(0.7)" xlink:href="#DejaVuSans-Oblique-960"/>
     <use transform="translate(364.055725 -26.315625)scale(0.7)" xlink:href="#DejaVuSans-Oblique-97"/>
     <path d="M 351.555725 108.5 
L 351.555725 114.75 
L 431.951233 114.75 
L 431.951233 108.5 
L 351.555725 108.5 
z
"/>
     <path d="M 364.055725 19.134375 
L 364.055725 25.384375 
L 406.951233 25.384375 
L 406.951233 19.134375 
L 364.055725 19.134375 
z
"/>
    </g>
   </g>
   <g id="patch_2">
    <path d="M 560.083357 358.393512 
Q 285.200309 358.393512 9.199227 358.393512 
" style="fill:none;stroke:#000000;stroke-linecap:round;"/>
    <path d="M 553.683357 355.193512 
L 560.083357 358.393512 
L 553.683357 361.593512 
" style="fill:none;stroke:#000000;stroke-linecap:round;"/>
   </g>
   <g id="text_4">
    <!-- $k$ -->
    <g transform="translate(565.2 362.808512)scale(0.16 -0.16)">
     <use transform="translate(0 0.015625)" xlink:href="#DejaVuSans-Oblique-107"/>
    </g>
   </g>
   <g id="patch_3">
    <path d="M 286.2 27.799645 
Q 286.2 199.078562 286.2 371.475512 
" style="fill:none;stroke:#000000;stroke-linecap:round;"/>
    <path d="M 283 34.199645 
L 286.2 27.799645 
L 289.4 34.199645 
" style="fill:none;stroke:#000000;stroke-linecap:round;"/>
   </g>
   <g id="text_5">
    <!-- $\omega$ -->
    <g transform="translate(279.48 19.3575)scale(0.16 -0.16)">
     <use transform="translate(0 0.3125)" xlink:href="#DejaVuSans-Oblique-969"/>
    </g>
   </g>
  </g>
 </g>
 <defs>
  <clipPath id="pc04a3064a9">
   <rect height="354.115598" width="558" x="7.2" y="19.3575"/>
  </clipPath>
 </defs>
</svg>
