<?xml version="1.0" encoding="utf-8" standalone="no"?>
<!DOCTYPE svg PUBLIC "-//W3C//DTD SVG 1.1//EN"
  "http://www.w3.org/Graphics/SVG/1.1/DTD/svg11.dtd">
<!-- Created with matplotlib (https://matplotlib.org/) -->
<svg height="391.902937pt" version="1.1" viewBox="0 0 738.06 391.902937" width="738.06pt" xmlns="http://www.w3.org/2000/svg" xmlns:xlink="http://www.w3.org/1999/xlink">
 <metadata>
  <rdf:RDF xmlns:cc="http://creativecommons.org/ns#" xmlns:dc="http://purl.org/dc/elements/1.1/" xmlns:rdf="http://www.w3.org/1999/02/22-rdf-syntax-ns#">
   <cc:Work>
    <dc:type rdf:resource="http://purl.org/dc/dcmitype/StillImage"/>
    <dc:date>2021-09-01T18:22:49.395175</dc:date>
    <dc:format>image/svg+xml</dc:format>
    <dc:creator>
     <cc:Agent>
      <dc:title>Matplotlib v3.3.2, https://matplotlib.org/</dc:title>
     </cc:Agent>
    </dc:creator>
   </cc:Work>
  </rdf:RDF>
 </metadata>
 <defs>
  <style type="text/css">*{stroke-linecap:butt;stroke-linejoin:round;}</style>
 </defs>
 <g id="figure_1">
  <g id="patch_1">
   <path d="M -0 391.902937 
L 738.06 391.902937 
L 738.06 0 
L -0 0 
z
" style="fill:#ffffff;"/>
  </g>
  <g id="axes_1">
   <g id="patch_2">
    <path d="M 65.63 336.232937 
L 623.63 336.232937 
L 623.63 27.789 
L 65.63 27.789 
z
" style="fill:#ffffff;"/>
   </g>
   <g id="matplotlib.axis_1">
    <g id="xtick_1">
     <g id="line2d_1">
      <defs>
       <path d="M 0 0 
L 0 10 
" id="mdce06f7849" style="stroke:#000000;stroke-width:1.5;"/>
      </defs>
      <g>
       <use style="stroke:#000000;stroke-width:1.5;" x="107.807445" xlink:href="#mdce06f7849" y="336.232937"/>
      </g>
     </g>
     <g id="text_1">
      <!-- −4 -->
      <g transform="translate(96.013695 361.890437)scale(0.16 -0.16)">
       <defs>
        <path d="M 10.59375 35.5 
L 73.1875 35.5 
L 73.1875 27.203125 
L 10.59375 27.203125 
z
" id="DejaVuSans-8722"/>
        <path d="M 37.796875 64.3125 
L 12.890625 25.390625 
L 37.796875 25.390625 
z
M 35.203125 72.90625 
L 47.609375 72.90625 
L 47.609375 25.390625 
L 58.015625 25.390625 
L 58.015625 17.1875 
L 47.609375 17.1875 
L 47.609375 0 
L 37.796875 0 
L 37.796875 17.1875 
L 4.890625 17.1875 
L 4.890625 26.703125 
z
" id="DejaVuSans-52"/>
       </defs>
       <use xlink:href="#DejaVuSans-8722"/>
       <use x="83.789062" xlink:href="#DejaVuSans-52"/>
      </g>
     </g>
    </g>
    <g id="xtick_2">
     <g id="line2d_2">
      <g>
       <use style="stroke:#000000;stroke-width:1.5;" x="226.218722" xlink:href="#mdce06f7849" y="336.232937"/>
      </g>
     </g>
     <g id="text_2">
      <!-- −2 -->
      <g transform="translate(214.424972 361.890437)scale(0.16 -0.16)">
       <defs>
        <path d="M 19.1875 8.296875 
L 53.609375 8.296875 
L 53.609375 0 
L 7.328125 0 
L 7.328125 8.296875 
Q 12.9375 14.109375 22.625 23.890625 
Q 32.328125 33.6875 34.8125 36.53125 
Q 39.546875 41.84375 41.421875 45.53125 
Q 43.3125 49.21875 43.3125 52.78125 
Q 43.3125 58.59375 39.234375 62.25 
Q 35.15625 65.921875 28.609375 65.921875 
Q 23.96875 65.921875 18.8125 64.3125 
Q 13.671875 62.703125 7.8125 59.421875 
L 7.8125 69.390625 
Q 13.765625 71.78125 18.9375 73 
Q 24.125 74.21875 28.421875 74.21875 
Q 39.75 74.21875 46.484375 68.546875 
Q 53.21875 62.890625 53.21875 53.421875 
Q 53.21875 48.921875 51.53125 44.890625 
Q 49.859375 40.875 45.40625 35.40625 
Q 44.1875 33.984375 37.640625 27.21875 
Q 31.109375 20.453125 19.1875 8.296875 
z
" id="DejaVuSans-50"/>
       </defs>
       <use xlink:href="#DejaVuSans-8722"/>
       <use x="83.789062" xlink:href="#DejaVuSans-50"/>
      </g>
     </g>
    </g>
    <g id="xtick_3">
     <g id="line2d_3">
      <g>
       <use style="stroke:#000000;stroke-width:1.5;" x="344.63" xlink:href="#mdce06f7849" y="336.232937"/>
      </g>
     </g>
     <g id="text_3">
      <!-- 0 -->
      <g transform="translate(339.54 361.890437)scale(0.16 -0.16)">
       <defs>
        <path d="M 31.78125 66.40625 
Q 24.171875 66.40625 20.328125 58.90625 
Q 16.5 51.421875 16.5 36.375 
Q 16.5 21.390625 20.328125 13.890625 
Q 24.171875 6.390625 31.78125 6.390625 
Q 39.453125 6.390625 43.28125 13.890625 
Q 47.125 21.390625 47.125 36.375 
Q 47.125 51.421875 43.28125 58.90625 
Q 39.453125 66.40625 31.78125 66.40625 
z
M 31.78125 74.21875 
Q 44.046875 74.21875 50.515625 64.515625 
Q 56.984375 54.828125 56.984375 36.375 
Q 56.984375 17.96875 50.515625 8.265625 
Q 44.046875 -1.421875 31.78125 -1.421875 
Q 19.53125 -1.421875 13.0625 8.265625 
Q 6.59375 17.96875 6.59375 36.375 
Q 6.59375 54.828125 13.0625 64.515625 
Q 19.53125 74.21875 31.78125 74.21875 
z
" id="DejaVuSans-48"/>
       </defs>
       <use xlink:href="#DejaVuSans-48"/>
      </g>
     </g>
    </g>
    <g id="xtick_4">
     <g id="line2d_4">
      <g>
       <use style="stroke:#000000;stroke-width:1.5;" x="463.041278" xlink:href="#mdce06f7849" y="336.232937"/>
      </g>
     </g>
     <g id="text_4">
      <!-- 2 -->
      <g transform="translate(457.951278 361.890437)scale(0.16 -0.16)">
       <use xlink:href="#DejaVuSans-50"/>
      </g>
     </g>
    </g>
    <g id="xtick_5">
     <g id="line2d_5">
      <g>
       <use style="stroke:#000000;stroke-width:1.5;" x="581.452555" xlink:href="#mdce06f7849" y="336.232937"/>
      </g>
     </g>
     <g id="text_5">
      <!-- 4 -->
      <g transform="translate(576.362555 361.890437)scale(0.16 -0.16)">
       <use xlink:href="#DejaVuSans-52"/>
      </g>
     </g>
    </g>
    <g id="text_6">
     <!-- $k$ -->
     <g transform="translate(339.99 381.375437)scale(0.16 -0.16)">
      <defs>
       <path d="M 18.3125 75.984375 
L 27.296875 75.984375 
L 18.703125 31.6875 
L 49.515625 54.6875 
L 61.1875 54.6875 
L 26.8125 28.515625 
L 51.90625 0 
L 41.015625 0 
L 17.671875 26.703125 
L 12.5 0 
L 3.515625 0 
z
" id="DejaVuSans-Oblique-107"/>
      </defs>
      <use transform="translate(0 0.015625)" xlink:href="#DejaVuSans-Oblique-107"/>
     </g>
    </g>
   </g>
   <g id="matplotlib.axis_2">
    <g id="ytick_1">
     <g id="line2d_6">
      <defs>
       <path d="M 0 0 
L -10 0 
" id="m2b200efe24" style="stroke:#000000;stroke-width:1.5;"/>
      </defs>
      <g>
       <use style="stroke:#000000;stroke-width:1.5;" x="65.63" xlink:href="#m2b200efe24" y="322.645849"/>
      </g>
     </g>
     <g id="text_7">
      <!-- 0.0 -->
      <g transform="translate(26.685 328.724599)scale(0.16 -0.16)">
       <defs>
        <path d="M 10.6875 12.40625 
L 21 12.40625 
L 21 0 
L 10.6875 0 
z
" id="DejaVuSans-46"/>
       </defs>
       <use xlink:href="#DejaVuSans-48"/>
       <use x="63.623047" xlink:href="#DejaVuSans-46"/>
       <use x="95.410156" xlink:href="#DejaVuSans-48"/>
      </g>
     </g>
    </g>
    <g id="ytick_2">
     <g id="line2d_7">
      <g>
       <use style="stroke:#000000;stroke-width:1.5;" x="65.63" xlink:href="#m2b200efe24" y="278.241619"/>
      </g>
     </g>
     <g id="text_8">
      <!-- 0.5 -->
      <g transform="translate(26.685 284.320369)scale(0.16 -0.16)">
       <defs>
        <path d="M 10.796875 72.90625 
L 49.515625 72.90625 
L 49.515625 64.59375 
L 19.828125 64.59375 
L 19.828125 46.734375 
Q 21.96875 47.46875 24.109375 47.828125 
Q 26.265625 48.1875 28.421875 48.1875 
Q 40.625 48.1875 47.75 41.5 
Q 54.890625 34.8125 54.890625 23.390625 
Q 54.890625 11.625 47.5625 5.09375 
Q 40.234375 -1.421875 26.90625 -1.421875 
Q 22.3125 -1.421875 17.546875 -0.640625 
Q 12.796875 0.140625 7.71875 1.703125 
L 7.71875 11.625 
Q 12.109375 9.234375 16.796875 8.0625 
Q 21.484375 6.890625 26.703125 6.890625 
Q 35.15625 6.890625 40.078125 11.328125 
Q 45.015625 15.765625 45.015625 23.390625 
Q 45.015625 31 40.078125 35.4375 
Q 35.15625 39.890625 26.703125 39.890625 
Q 22.75 39.890625 18.8125 39.015625 
Q 14.890625 38.140625 10.796875 36.28125 
z
" id="DejaVuSans-53"/>
       </defs>
       <use xlink:href="#DejaVuSans-48"/>
       <use x="63.623047" xlink:href="#DejaVuSans-46"/>
       <use x="95.410156" xlink:href="#DejaVuSans-53"/>
      </g>
     </g>
    </g>
    <g id="ytick_3">
     <g id="line2d_8">
      <g>
       <use style="stroke:#000000;stroke-width:1.5;" x="65.63" xlink:href="#m2b200efe24" y="233.83739"/>
      </g>
     </g>
     <g id="text_9">
      <!-- 1.0 -->
      <g transform="translate(26.685 239.91614)scale(0.16 -0.16)">
       <defs>
        <path d="M 12.40625 8.296875 
L 28.515625 8.296875 
L 28.515625 63.921875 
L 10.984375 60.40625 
L 10.984375 69.390625 
L 28.421875 72.90625 
L 38.28125 72.90625 
L 38.28125 8.296875 
L 54.390625 8.296875 
L 54.390625 0 
L 12.40625 0 
z
" id="DejaVuSans-49"/>
       </defs>
       <use xlink:href="#DejaVuSans-49"/>
       <use x="63.623047" xlink:href="#DejaVuSans-46"/>
       <use x="95.410156" xlink:href="#DejaVuSans-48"/>
      </g>
     </g>
    </g>
    <g id="ytick_4">
     <g id="line2d_9">
      <g>
       <use style="stroke:#000000;stroke-width:1.5;" x="65.63" xlink:href="#m2b200efe24" y="189.433161"/>
      </g>
     </g>
     <g id="text_10">
      <!-- 1.5 -->
      <g transform="translate(26.685 195.511911)scale(0.16 -0.16)">
       <use xlink:href="#DejaVuSans-49"/>
       <use x="63.623047" xlink:href="#DejaVuSans-46"/>
       <use x="95.410156" xlink:href="#DejaVuSans-53"/>
      </g>
     </g>
    </g>
    <g id="ytick_5">
     <g id="line2d_10">
      <g>
       <use style="stroke:#000000;stroke-width:1.5;" x="65.63" xlink:href="#m2b200efe24" y="145.028932"/>
      </g>
     </g>
     <g id="text_11">
      <!-- 2.0 -->
      <g transform="translate(26.685 151.107682)scale(0.16 -0.16)">
       <use xlink:href="#DejaVuSans-50"/>
       <use x="63.623047" xlink:href="#DejaVuSans-46"/>
       <use x="95.410156" xlink:href="#DejaVuSans-48"/>
      </g>
     </g>
    </g>
    <g id="ytick_6">
     <g id="line2d_11">
      <g>
       <use style="stroke:#000000;stroke-width:1.5;" x="65.63" xlink:href="#m2b200efe24" y="100.624703"/>
      </g>
     </g>
     <g id="text_12">
      <!-- 2.5 -->
      <g transform="translate(26.685 106.703453)scale(0.16 -0.16)">
       <use xlink:href="#DejaVuSans-50"/>
       <use x="63.623047" xlink:href="#DejaVuSans-46"/>
       <use x="95.410156" xlink:href="#DejaVuSans-53"/>
      </g>
     </g>
    </g>
    <g id="ytick_7">
     <g id="line2d_12">
      <g>
       <use style="stroke:#000000;stroke-width:1.5;" x="65.63" xlink:href="#m2b200efe24" y="56.220474"/>
      </g>
     </g>
     <g id="text_13">
      <!-- 3.0 -->
      <g transform="translate(26.685 62.299224)scale(0.16 -0.16)">
       <defs>
        <path d="M 40.578125 39.3125 
Q 47.65625 37.796875 51.625 33 
Q 55.609375 28.21875 55.609375 21.1875 
Q 55.609375 10.40625 48.1875 4.484375 
Q 40.765625 -1.421875 27.09375 -1.421875 
Q 22.515625 -1.421875 17.65625 -0.515625 
Q 12.796875 0.390625 7.625 2.203125 
L 7.625 11.71875 
Q 11.71875 9.328125 16.59375 8.109375 
Q 21.484375 6.890625 26.8125 6.890625 
Q 36.078125 6.890625 40.9375 10.546875 
Q 45.796875 14.203125 45.796875 21.1875 
Q 45.796875 27.640625 41.28125 31.265625 
Q 36.765625 34.90625 28.71875 34.90625 
L 20.21875 34.90625 
L 20.21875 43.015625 
L 29.109375 43.015625 
Q 36.375 43.015625 40.234375 45.921875 
Q 44.09375 48.828125 44.09375 54.296875 
Q 44.09375 59.90625 40.109375 62.90625 
Q 36.140625 65.921875 28.71875 65.921875 
Q 24.65625 65.921875 20.015625 65.03125 
Q 15.375 64.15625 9.8125 62.3125 
L 9.8125 71.09375 
Q 15.4375 72.65625 20.34375 73.4375 
Q 25.25 74.21875 29.59375 74.21875 
Q 40.828125 74.21875 47.359375 69.109375 
Q 53.90625 64.015625 53.90625 55.328125 
Q 53.90625 49.265625 50.4375 45.09375 
Q 46.96875 40.921875 40.578125 39.3125 
z
" id="DejaVuSans-51"/>
       </defs>
       <use xlink:href="#DejaVuSans-51"/>
       <use x="63.623047" xlink:href="#DejaVuSans-46"/>
       <use x="95.410156" xlink:href="#DejaVuSans-48"/>
      </g>
     </g>
    </g>
    <g id="text_14">
     <!-- $\omega$ -->
     <g transform="translate(19.3575 188.730968)rotate(-90)scale(0.16 -0.16)">
      <defs>
       <path d="M 21.390625 -1.421875 
Q 1.125 -1.421875 6.78125 27.59375 
Q 8.984375 39.0625 19.625 54.6875 
L 29.296875 54.6875 
Q 19.234375 39.0625 17 27.34375 
Q 12.796875 6.203125 23.734375 6.203125 
Q 33.84375 6.203125 38.71875 32.46875 
L 47.015625 32.46875 
Q 41.703125 6.0625 51.8125 6.203125 
Q 62.703125 6.296875 66.796875 27.34375 
Q 69.046875 39.0625 65.140625 54.6875 
L 74.8125 54.6875 
Q 79.296875 39.0625 77.09375 27.59375 
Q 71.53125 -1.46875 51.21875 -1.421875 
Q 37.9375 -1.375 39.109375 13.1875 
Q 34.28125 -1.421875 21.390625 -1.421875 
z
" id="DejaVuSans-Oblique-969"/>
      </defs>
      <use transform="translate(0 0.3125)" xlink:href="#DejaVuSans-Oblique-969"/>
     </g>
    </g>
   </g>
   <g id="line2d_13">
    <path clip-path="url(#p93eae8d304)" d="M 65.63 145.028932 
L 66.748236 145.123786 
L 67.866473 145.406124 
L 68.984709 145.869548 
L 70.102946 146.504234 
L 71.221182 147.297957 
L 73.457655 149.307994 
L 75.694128 151.791228 
L 77.930601 154.651409 
L 80.167074 157.811288 
L 83.521784 162.988241 
L 86.876493 168.570235 
L 91.349439 176.490708 
L 95.822385 184.836833 
L 101.413567 195.741998 
L 108.122986 209.385332 
L 114.832405 223.521534 
L 122.66006 240.516811 
L 131.605952 260.462071 
L 142.788317 285.956345 
L 158.443627 322.212758 
L 159.561864 320.480418 
L 178.571884 276.551247 
L 189.754248 251.260565 
L 198.70014 231.553802 
L 206.527796 214.829662 
L 213.237214 200.982301 
L 218.828397 189.866988 
L 224.419579 179.230401 
L 228.892525 171.156124 
L 233.365471 163.590464 
L 236.72018 158.362693 
L 238.956653 155.159046 
L 241.193126 152.244078 
L 243.429599 149.691819 
L 245.666072 147.595551 
L 246.784309 146.75179 
L 247.902545 146.062646 
L 249.020782 145.540901 
L 250.139018 145.197302 
L 251.257255 145.03949 
L 252.375491 145.071136 
L 253.493727 145.291495 
L 254.611964 145.695499 
L 255.7302 146.274361 
L 256.848437 147.016533 
L 259.08491 148.937281 
L 261.321383 151.348804 
L 263.557856 154.152055 
L 265.794329 157.266536 
L 269.149038 162.39097 
L 272.503747 167.933152 
L 276.976693 175.812961 
L 281.449639 184.12736 
L 287.040822 195.000739 
L 293.75024 208.613489 
L 300.459659 222.724894 
L 308.287315 239.69688 
L 317.233206 259.621792 
L 328.415571 285.099082 
L 344.070882 321.346581 
L 345.189118 321.346581 
L 365.317375 274.847605 
L 376.499739 249.597941 
L 385.445631 229.938082 
L 393.273287 213.266909 
L 399.982705 199.476112 
L 405.573888 188.418755 
L 411.16507 177.854926 
L 415.638016 169.855855 
L 418.992725 164.197491 
L 422.347435 158.920525 
L 425.702144 154.152055 
L 427.938617 151.348804 
L 430.17509 148.937281 
L 432.411563 147.016533 
L 433.5298 146.274361 
L 434.648036 145.695499 
L 435.766273 145.291495 
L 436.884509 145.071136 
L 438.002745 145.03949 
L 439.120982 145.197302 
L 440.239218 145.540901 
L 441.357455 146.062646 
L 442.475691 146.75179 
L 443.593928 147.595551 
L 445.830401 149.691819 
L 448.066874 152.244078 
L 450.303347 155.159046 
L 453.658056 160.054604 
L 457.012766 165.425406 
L 461.485711 173.132501 
L 465.958657 181.313802 
L 471.54984 192.055093 
L 477.141022 203.254468 
L 483.850441 217.18424 
L 491.678096 233.985655 
L 500.623988 253.760701 
L 510.688116 276.551247 
L 525.22519 310.091092 
L 529.698136 320.480418 
L 530.816373 322.212758 
L 550.944629 275.699161 
L 562.126994 250.428832 
L 571.072886 230.745382 
L 578.900541 214.047579 
L 585.60996 200.228333 
L 591.201142 189.1418 
L 596.792325 178.541284 
L 601.265271 170.504203 
L 605.738216 162.988241 
L 609.092926 157.811288 
L 611.329399 154.651409 
L 613.565872 151.791228 
L 615.802345 149.307994 
L 618.038818 147.297957 
L 619.157054 146.504234 
L 620.275291 145.869548 
L 621.393527 145.406124 
L 622.511764 145.123786 
L 623.63 145.028932 
L 623.63 145.028932 
" style="fill:none;stroke:#1f77b4;stroke-dasharray:5.55,2.4;stroke-dashoffset:0;stroke-width:1.5;"/>
   </g>
   <g id="line2d_14">
    <path clip-path="url(#p93eae8d304)" d="M 251.63 145.028932 
L 252.748236 145.123786 
L 253.866473 145.406124 
L 255.357455 146.062646 
L 256.848437 147.016533 
L 258.339419 148.237176 
L 260.203146 150.088276 
L 262.066874 152.244078 
L 264.303347 155.159046 
L 266.912565 158.920525 
L 270.267275 164.197491 
L 273.994729 170.504203 
L 278.467675 178.541284 
L 283.686112 188.418755 
L 289.65004 200.228333 
L 296.359459 214.047579 
L 303.814369 229.938082 
L 312.387515 248.767902 
L 322.451643 271.446887 
L 335.497735 301.447961 
L 344.443627 322.212758 
L 344.816373 322.212758 
L 365.317375 274.847605 
L 376.126994 250.428832 
L 385.072886 230.745382 
L 392.900541 214.047579 
L 399.60996 200.228333 
L 405.573888 188.418755 
L 410.792325 178.541284 
L 415.265271 170.504203 
L 419.365471 163.590464 
L 422.72018 158.362693 
L 425.329399 154.651409 
L 427.565872 151.791228 
L 429.802345 149.307994 
L 431.666072 147.595551 
L 433.157054 146.504234 
L 434.648036 145.695499 
L 436.139018 145.197302 
L 437.257255 145.03949 
L 437.63 145.028932 
L 437.63 145.028932 
" style="fill:none;stroke:#1f77b4;stroke-linecap:square;stroke-width:1.5;"/>
   </g>
   <g id="line2d_15">
    <path clip-path="url(#p93eae8d304)" d="M 65.63 105.110441 
L 66.748236 105.033028 
L 67.866473 104.80301 
L 68.984709 104.426779 
L 70.102946 103.914154 
L 72.339419 102.529885 
L 74.575892 100.75813 
L 76.812365 98.702608 
L 80.167074 95.271729 
L 85.758257 89.105164 
L 95.822385 77.945832 
L 101.413567 72.116738 
L 105.886513 67.74097 
L 110.359459 63.655813 
L 114.832405 59.883993 
L 119.305351 56.442539 
L 123.778297 53.344605 
L 127.133006 51.252914 
L 130.487715 49.36391 
L 133.842425 47.680626 
L 137.197134 46.20562 
L 140.551844 44.94104 
L 143.906553 43.88866 
L 147.261263 43.049918 
L 150.615972 42.42593 
L 153.970681 42.017517 
L 157.325391 41.825208 
L 160.6801 41.849251 
L 164.03481 42.089614 
L 167.389519 42.545988 
L 170.744228 43.21778 
L 174.098938 44.104106 
L 177.453647 45.203776 
L 180.808357 46.515284 
L 184.163066 48.036773 
L 187.517776 49.766009 
L 190.872485 51.700335 
L 194.227194 53.836603 
L 198.70014 56.992575 
L 203.173086 60.490092 
L 207.646032 64.315444 
L 212.118978 68.450804 
L 216.591924 72.872243 
L 222.183106 78.749019 
L 228.892525 86.171144 
L 236.72018 94.873007 
L 240.07489 98.338813 
L 242.311363 100.432664 
L 244.547836 102.258545 
L 246.784309 103.715032 
L 247.902545 104.270495 
L 249.020782 104.693422 
L 250.139018 104.973076 
L 251.257255 105.101821 
L 252.375491 105.075989 
L 253.493727 104.896323 
L 254.611964 104.567889 
L 255.7302 104.099467 
L 257.966673 102.790475 
L 260.203146 101.075754 
L 262.439619 99.060975 
L 265.794329 95.667644 
L 270.267275 90.776186 
L 282.567876 77.148217 
L 288.159058 71.36846 
L 292.632004 67.039227 
L 297.10495 63.004899 
L 301.577896 59.287079 
L 306.050842 55.902051 
L 310.523788 52.862443 
L 313.878497 50.815504 
L 317.233206 48.971972 
L 320.587916 47.334765 
L 323.942625 45.906349 
L 327.297335 44.688784 
L 330.652044 43.683766 
L 334.006754 42.892661 
L 337.361463 42.316519 
L 340.716172 41.956093 
L 344.070882 41.81185 
L 347.425591 41.883977 
L 350.780301 42.17238 
L 354.13501 42.676686 
L 357.489719 43.396239 
L 360.844429 44.330087 
L 364.199138 45.476975 
L 367.553848 46.835318 
L 370.908557 48.403181 
L 374.263267 50.178238 
L 377.617976 52.15773 
L 380.972685 54.338392 
L 385.445631 57.552105 
L 389.918577 61.105307 
L 394.391523 64.983699 
L 398.864469 69.168605 
L 403.337415 73.634799 
L 408.928597 79.557484 
L 416.756253 88.267087 
L 423.465671 95.667644 
L 426.820381 99.060975 
L 429.056854 101.075754 
L 431.293327 102.790475 
L 433.5298 104.099467 
L 434.648036 104.567889 
L 435.766273 104.896323 
L 436.884509 105.075989 
L 438.002745 105.101821 
L 439.120982 104.973076 
L 440.239218 104.693422 
L 441.357455 104.270495 
L 443.593928 103.039801 
L 445.830401 101.385083 
L 448.066874 99.41355 
L 451.421583 96.060512 
L 455.894529 91.192166 
L 468.19513 77.546311 
L 473.786313 71.741685 
L 478.259259 67.389079 
L 482.732204 63.329261 
L 487.20515 59.584384 
L 491.678096 56.171098 
L 496.151042 53.102292 
L 499.505752 51.032955 
L 502.860461 49.166669 
L 506.21517 47.506408 
L 509.56988 46.054684 
L 512.924589 44.813601 
L 516.279299 43.784894 
L 519.634008 42.969963 
L 522.988717 42.369893 
L 526.343427 41.985471 
L 529.698136 41.817194 
L 533.052846 41.865278 
L 536.407555 42.129664 
L 539.762265 42.610008 
L 543.116974 43.305686 
L 546.471683 44.21578 
L 549.826393 45.339069 
L 553.181102 46.674006 
L 556.535812 48.218696 
L 559.890521 49.97086 
L 563.24523 51.927788 
L 566.59994 54.086276 
L 571.072886 57.271157 
L 575.545832 60.796564 
L 580.018778 64.648499 
L 584.491723 68.808716 
L 588.964669 73.252651 
L 594.555852 79.152611 
L 601.265271 86.590045 
L 609.092926 95.271729 
L 612.447635 98.702608 
L 614.684108 100.75813 
L 616.920581 102.529885 
L 619.157054 103.914154 
L 620.275291 104.426779 
L 621.393527 104.80301 
L 622.511764 105.033028 
L 623.63 105.110441 
L 623.63 105.110441 
" style="fill:none;stroke:#ff7f0e;stroke-dasharray:5.55,2.4;stroke-dashoffset:0;stroke-width:1.5;"/>
   </g>
   <g id="line2d_16">
    <path clip-path="url(#p93eae8d304)" d="M 251.63 105.110441 
L 253.120982 104.973076 
L 254.611964 104.567889 
L 256.102946 103.914154 
L 257.593928 103.039801 
L 259.457655 101.685647 
L 261.694128 99.759956 
L 264.303347 97.218269 
L 268.030802 93.254409 
L 276.231202 84.082855 
L 282.940621 76.751585 
L 288.159058 71.36846 
L 293.004749 66.691428 
L 297.477695 62.682738 
L 301.577896 59.287079 
L 305.678096 56.171098 
L 309.778297 53.344605 
L 313.505752 51.032955 
L 317.233206 48.971972 
L 320.960661 47.165701 
L 324.688116 45.617492 
L 328.415571 44.330087 
L 331.770281 43.396239 
L 335.12499 42.676686 
L 338.479699 42.17238 
L 341.834409 41.883977 
L 345.189118 41.81185 
L 348.543828 41.956093 
L 351.898537 42.316519 
L 355.253246 42.892661 
L 358.607956 43.683766 
L 361.962665 44.688784 
L 365.317375 45.906349 
L 369.04483 47.506408 
L 372.772285 49.36391 
L 376.499739 51.475375 
L 380.227194 53.836603 
L 384.327395 56.716367 
L 388.427595 59.883993 
L 392.527796 63.329261 
L 397.000741 67.389079 
L 401.473687 71.741685 
L 406.692124 77.148217 
L 412.656052 83.666944 
L 424.583908 96.836094 
L 427.565872 99.759956 
L 429.802345 101.685647 
L 431.666072 103.039801 
L 433.5298 104.099467 
L 435.020782 104.693422 
L 436.511764 105.033028 
L 437.63 105.110441 
L 437.63 105.110441 
" style="fill:none;stroke:#ff7f0e;stroke-linecap:square;stroke-width:1.5;"/>
   </g>
   <g id="patch_3">
    <path d="M 65.63 336.232937 
L 65.63 27.789 
" style="fill:none;stroke:#000000;stroke-linecap:square;stroke-linejoin:miter;stroke-width:2.5;"/>
   </g>
   <g id="patch_4">
    <path d="M 623.63 336.232937 
L 623.63 27.789 
" style="fill:none;stroke:#000000;stroke-linecap:square;stroke-linejoin:miter;stroke-width:2.5;"/>
   </g>
   <g id="patch_5">
    <path d="M 65.63 336.232937 
L 623.63 336.232937 
" style="fill:none;stroke:#000000;stroke-linecap:square;stroke-linejoin:miter;stroke-width:2.5;"/>
   </g>
   <g id="patch_6">
    <path d="M 65.63 27.789 
L 623.63 27.789 
" style="fill:none;stroke:#000000;stroke-linecap:square;stroke-linejoin:miter;stroke-width:2.5;"/>
   </g>
   <g id="text_15">
    <!-- Dispersion relation for diatomic chain -->
    <g transform="translate(164.441 21.789)scale(0.192 -0.192)">
     <defs>
      <path d="M 19.671875 64.796875 
L 19.671875 8.109375 
L 31.59375 8.109375 
Q 46.6875 8.109375 53.6875 14.9375 
Q 60.6875 21.78125 60.6875 36.53125 
Q 60.6875 51.171875 53.6875 57.984375 
Q 46.6875 64.796875 31.59375 64.796875 
z
M 9.8125 72.90625 
L 30.078125 72.90625 
Q 51.265625 72.90625 61.171875 64.09375 
Q 71.09375 55.28125 71.09375 36.53125 
Q 71.09375 17.671875 61.125 8.828125 
Q 51.171875 0 30.078125 0 
L 9.8125 0 
z
" id="DejaVuSans-68"/>
      <path d="M 9.421875 54.6875 
L 18.40625 54.6875 
L 18.40625 0 
L 9.421875 0 
z
M 9.421875 75.984375 
L 18.40625 75.984375 
L 18.40625 64.59375 
L 9.421875 64.59375 
z
" id="DejaVuSans-105"/>
      <path d="M 44.28125 53.078125 
L 44.28125 44.578125 
Q 40.484375 46.53125 36.375 47.5 
Q 32.28125 48.484375 27.875 48.484375 
Q 21.1875 48.484375 17.84375 46.4375 
Q 14.5 44.390625 14.5 40.28125 
Q 14.5 37.15625 16.890625 35.375 
Q 19.28125 33.59375 26.515625 31.984375 
L 29.59375 31.296875 
Q 39.15625 29.25 43.1875 25.515625 
Q 47.21875 21.78125 47.21875 15.09375 
Q 47.21875 7.46875 41.1875 3.015625 
Q 35.15625 -1.421875 24.609375 -1.421875 
Q 20.21875 -1.421875 15.453125 -0.5625 
Q 10.6875 0.296875 5.421875 2 
L 5.421875 11.28125 
Q 10.40625 8.6875 15.234375 7.390625 
Q 20.0625 6.109375 24.8125 6.109375 
Q 31.15625 6.109375 34.5625 8.28125 
Q 37.984375 10.453125 37.984375 14.40625 
Q 37.984375 18.0625 35.515625 20.015625 
Q 33.0625 21.96875 24.703125 23.78125 
L 21.578125 24.515625 
Q 13.234375 26.265625 9.515625 29.90625 
Q 5.8125 33.546875 5.8125 39.890625 
Q 5.8125 47.609375 11.28125 51.796875 
Q 16.75 56 26.8125 56 
Q 31.78125 56 36.171875 55.265625 
Q 40.578125 54.546875 44.28125 53.078125 
z
" id="DejaVuSans-115"/>
      <path d="M 18.109375 8.203125 
L 18.109375 -20.796875 
L 9.078125 -20.796875 
L 9.078125 54.6875 
L 18.109375 54.6875 
L 18.109375 46.390625 
Q 20.953125 51.265625 25.265625 53.625 
Q 29.59375 56 35.59375 56 
Q 45.5625 56 51.78125 48.09375 
Q 58.015625 40.1875 58.015625 27.296875 
Q 58.015625 14.40625 51.78125 6.484375 
Q 45.5625 -1.421875 35.59375 -1.421875 
Q 29.59375 -1.421875 25.265625 0.953125 
Q 20.953125 3.328125 18.109375 8.203125 
z
M 48.6875 27.296875 
Q 48.6875 37.203125 44.609375 42.84375 
Q 40.53125 48.484375 33.40625 48.484375 
Q 26.265625 48.484375 22.1875 42.84375 
Q 18.109375 37.203125 18.109375 27.296875 
Q 18.109375 17.390625 22.1875 11.75 
Q 26.265625 6.109375 33.40625 6.109375 
Q 40.53125 6.109375 44.609375 11.75 
Q 48.6875 17.390625 48.6875 27.296875 
z
" id="DejaVuSans-112"/>
      <path d="M 56.203125 29.59375 
L 56.203125 25.203125 
L 14.890625 25.203125 
Q 15.484375 15.921875 20.484375 11.0625 
Q 25.484375 6.203125 34.421875 6.203125 
Q 39.59375 6.203125 44.453125 7.46875 
Q 49.3125 8.734375 54.109375 11.28125 
L 54.109375 2.78125 
Q 49.265625 0.734375 44.1875 -0.34375 
Q 39.109375 -1.421875 33.890625 -1.421875 
Q 20.796875 -1.421875 13.15625 6.1875 
Q 5.515625 13.8125 5.515625 26.8125 
Q 5.515625 40.234375 12.765625 48.109375 
Q 20.015625 56 32.328125 56 
Q 43.359375 56 49.78125 48.890625 
Q 56.203125 41.796875 56.203125 29.59375 
z
M 47.21875 32.234375 
Q 47.125 39.59375 43.09375 43.984375 
Q 39.0625 48.390625 32.421875 48.390625 
Q 24.90625 48.390625 20.390625 44.140625 
Q 15.875 39.890625 15.1875 32.171875 
z
" id="DejaVuSans-101"/>
      <path d="M 41.109375 46.296875 
Q 39.59375 47.171875 37.8125 47.578125 
Q 36.03125 48 33.890625 48 
Q 26.265625 48 22.1875 43.046875 
Q 18.109375 38.09375 18.109375 28.8125 
L 18.109375 0 
L 9.078125 0 
L 9.078125 54.6875 
L 18.109375 54.6875 
L 18.109375 46.1875 
Q 20.953125 51.171875 25.484375 53.578125 
Q 30.03125 56 36.53125 56 
Q 37.453125 56 38.578125 55.875 
Q 39.703125 55.765625 41.0625 55.515625 
z
" id="DejaVuSans-114"/>
      <path d="M 30.609375 48.390625 
Q 23.390625 48.390625 19.1875 42.75 
Q 14.984375 37.109375 14.984375 27.296875 
Q 14.984375 17.484375 19.15625 11.84375 
Q 23.34375 6.203125 30.609375 6.203125 
Q 37.796875 6.203125 41.984375 11.859375 
Q 46.1875 17.53125 46.1875 27.296875 
Q 46.1875 37.015625 41.984375 42.703125 
Q 37.796875 48.390625 30.609375 48.390625 
z
M 30.609375 56 
Q 42.328125 56 49.015625 48.375 
Q 55.71875 40.765625 55.71875 27.296875 
Q 55.71875 13.875 49.015625 6.21875 
Q 42.328125 -1.421875 30.609375 -1.421875 
Q 18.84375 -1.421875 12.171875 6.21875 
Q 5.515625 13.875 5.515625 27.296875 
Q 5.515625 40.765625 12.171875 48.375 
Q 18.84375 56 30.609375 56 
z
" id="DejaVuSans-111"/>
      <path d="M 54.890625 33.015625 
L 54.890625 0 
L 45.90625 0 
L 45.90625 32.71875 
Q 45.90625 40.484375 42.875 44.328125 
Q 39.84375 48.1875 33.796875 48.1875 
Q 26.515625 48.1875 22.3125 43.546875 
Q 18.109375 38.921875 18.109375 30.90625 
L 18.109375 0 
L 9.078125 0 
L 9.078125 54.6875 
L 18.109375 54.6875 
L 18.109375 46.1875 
Q 21.34375 51.125 25.703125 53.5625 
Q 30.078125 56 35.796875 56 
Q 45.21875 56 50.046875 50.171875 
Q 54.890625 44.34375 54.890625 33.015625 
z
" id="DejaVuSans-110"/>
      <path id="DejaVuSans-32"/>
      <path d="M 9.421875 75.984375 
L 18.40625 75.984375 
L 18.40625 0 
L 9.421875 0 
z
" id="DejaVuSans-108"/>
      <path d="M 34.28125 27.484375 
Q 23.390625 27.484375 19.1875 25 
Q 14.984375 22.515625 14.984375 16.5 
Q 14.984375 11.71875 18.140625 8.90625 
Q 21.296875 6.109375 26.703125 6.109375 
Q 34.1875 6.109375 38.703125 11.40625 
Q 43.21875 16.703125 43.21875 25.484375 
L 43.21875 27.484375 
z
M 52.203125 31.203125 
L 52.203125 0 
L 43.21875 0 
L 43.21875 8.296875 
Q 40.140625 3.328125 35.546875 0.953125 
Q 30.953125 -1.421875 24.3125 -1.421875 
Q 15.921875 -1.421875 10.953125 3.296875 
Q 6 8.015625 6 15.921875 
Q 6 25.140625 12.171875 29.828125 
Q 18.359375 34.515625 30.609375 34.515625 
L 43.21875 34.515625 
L 43.21875 35.40625 
Q 43.21875 41.609375 39.140625 45 
Q 35.0625 48.390625 27.6875 48.390625 
Q 23 48.390625 18.546875 47.265625 
Q 14.109375 46.140625 10.015625 43.890625 
L 10.015625 52.203125 
Q 14.9375 54.109375 19.578125 55.046875 
Q 24.21875 56 28.609375 56 
Q 40.484375 56 46.34375 49.84375 
Q 52.203125 43.703125 52.203125 31.203125 
z
" id="DejaVuSans-97"/>
      <path d="M 18.3125 70.21875 
L 18.3125 54.6875 
L 36.8125 54.6875 
L 36.8125 47.703125 
L 18.3125 47.703125 
L 18.3125 18.015625 
Q 18.3125 11.328125 20.140625 9.421875 
Q 21.96875 7.515625 27.59375 7.515625 
L 36.8125 7.515625 
L 36.8125 0 
L 27.59375 0 
Q 17.1875 0 13.234375 3.875 
Q 9.28125 7.765625 9.28125 18.015625 
L 9.28125 47.703125 
L 2.6875 47.703125 
L 2.6875 54.6875 
L 9.28125 54.6875 
L 9.28125 70.21875 
z
" id="DejaVuSans-116"/>
      <path d="M 37.109375 75.984375 
L 37.109375 68.5 
L 28.515625 68.5 
Q 23.6875 68.5 21.796875 66.546875 
Q 19.921875 64.59375 19.921875 59.515625 
L 19.921875 54.6875 
L 34.71875 54.6875 
L 34.71875 47.703125 
L 19.921875 47.703125 
L 19.921875 0 
L 10.890625 0 
L 10.890625 47.703125 
L 2.296875 47.703125 
L 2.296875 54.6875 
L 10.890625 54.6875 
L 10.890625 58.5 
Q 10.890625 67.625 15.140625 71.796875 
Q 19.390625 75.984375 28.609375 75.984375 
z
" id="DejaVuSans-102"/>
      <path d="M 45.40625 46.390625 
L 45.40625 75.984375 
L 54.390625 75.984375 
L 54.390625 0 
L 45.40625 0 
L 45.40625 8.203125 
Q 42.578125 3.328125 38.25 0.953125 
Q 33.9375 -1.421875 27.875 -1.421875 
Q 17.96875 -1.421875 11.734375 6.484375 
Q 5.515625 14.40625 5.515625 27.296875 
Q 5.515625 40.1875 11.734375 48.09375 
Q 17.96875 56 27.875 56 
Q 33.9375 56 38.25 53.625 
Q 42.578125 51.265625 45.40625 46.390625 
z
M 14.796875 27.296875 
Q 14.796875 17.390625 18.875 11.75 
Q 22.953125 6.109375 30.078125 6.109375 
Q 37.203125 6.109375 41.296875 11.75 
Q 45.40625 17.390625 45.40625 27.296875 
Q 45.40625 37.203125 41.296875 42.84375 
Q 37.203125 48.484375 30.078125 48.484375 
Q 22.953125 48.484375 18.875 42.84375 
Q 14.796875 37.203125 14.796875 27.296875 
z
" id="DejaVuSans-100"/>
      <path d="M 52 44.1875 
Q 55.375 50.25 60.0625 53.125 
Q 64.75 56 71.09375 56 
Q 79.640625 56 84.28125 50.015625 
Q 88.921875 44.046875 88.921875 33.015625 
L 88.921875 0 
L 79.890625 0 
L 79.890625 32.71875 
Q 79.890625 40.578125 77.09375 44.375 
Q 74.3125 48.1875 68.609375 48.1875 
Q 61.625 48.1875 57.5625 43.546875 
Q 53.515625 38.921875 53.515625 30.90625 
L 53.515625 0 
L 44.484375 0 
L 44.484375 32.71875 
Q 44.484375 40.625 41.703125 44.40625 
Q 38.921875 48.1875 33.109375 48.1875 
Q 26.21875 48.1875 22.15625 43.53125 
Q 18.109375 38.875 18.109375 30.90625 
L 18.109375 0 
L 9.078125 0 
L 9.078125 54.6875 
L 18.109375 54.6875 
L 18.109375 46.1875 
Q 21.1875 51.21875 25.484375 53.609375 
Q 29.78125 56 35.6875 56 
Q 41.65625 56 45.828125 52.96875 
Q 50 49.953125 52 44.1875 
z
" id="DejaVuSans-109"/>
      <path d="M 48.78125 52.59375 
L 48.78125 44.1875 
Q 44.96875 46.296875 41.140625 47.34375 
Q 37.3125 48.390625 33.40625 48.390625 
Q 24.65625 48.390625 19.8125 42.84375 
Q 14.984375 37.3125 14.984375 27.296875 
Q 14.984375 17.28125 19.8125 11.734375 
Q 24.65625 6.203125 33.40625 6.203125 
Q 37.3125 6.203125 41.140625 7.25 
Q 44.96875 8.296875 48.78125 10.40625 
L 48.78125 2.09375 
Q 45.015625 0.34375 40.984375 -0.53125 
Q 36.96875 -1.421875 32.421875 -1.421875 
Q 20.0625 -1.421875 12.78125 6.34375 
Q 5.515625 14.109375 5.515625 27.296875 
Q 5.515625 40.671875 12.859375 48.328125 
Q 20.21875 56 33.015625 56 
Q 37.15625 56 41.109375 55.140625 
Q 45.0625 54.296875 48.78125 52.59375 
z
" id="DejaVuSans-99"/>
      <path d="M 54.890625 33.015625 
L 54.890625 0 
L 45.90625 0 
L 45.90625 32.71875 
Q 45.90625 40.484375 42.875 44.328125 
Q 39.84375 48.1875 33.796875 48.1875 
Q 26.515625 48.1875 22.3125 43.546875 
Q 18.109375 38.921875 18.109375 30.90625 
L 18.109375 0 
L 9.078125 0 
L 9.078125 75.984375 
L 18.109375 75.984375 
L 18.109375 46.1875 
Q 21.34375 51.125 25.703125 53.5625 
Q 30.078125 56 35.796875 56 
Q 45.21875 56 50.046875 50.171875 
Q 54.890625 44.34375 54.890625 33.015625 
z
" id="DejaVuSans-104"/>
     </defs>
     <use xlink:href="#DejaVuSans-68"/>
     <use x="77.001953" xlink:href="#DejaVuSans-105"/>
     <use x="104.785156" xlink:href="#DejaVuSans-115"/>
     <use x="156.884766" xlink:href="#DejaVuSans-112"/>
     <use x="220.361328" xlink:href="#DejaVuSans-101"/>
     <use x="281.884766" xlink:href="#DejaVuSans-114"/>
     <use x="322.998047" xlink:href="#DejaVuSans-115"/>
     <use x="375.097656" xlink:href="#DejaVuSans-105"/>
     <use x="402.880859" xlink:href="#DejaVuSans-111"/>
     <use x="464.0625" xlink:href="#DejaVuSans-110"/>
     <use x="527.441406" xlink:href="#DejaVuSans-32"/>
     <use x="559.228516" xlink:href="#DejaVuSans-114"/>
     <use x="598.091797" xlink:href="#DejaVuSans-101"/>
     <use x="659.615234" xlink:href="#DejaVuSans-108"/>
     <use x="687.398438" xlink:href="#DejaVuSans-97"/>
     <use x="748.677734" xlink:href="#DejaVuSans-116"/>
     <use x="787.886719" xlink:href="#DejaVuSans-105"/>
     <use x="815.669922" xlink:href="#DejaVuSans-111"/>
     <use x="876.851562" xlink:href="#DejaVuSans-110"/>
     <use x="940.230469" xlink:href="#DejaVuSans-32"/>
     <use x="972.017578" xlink:href="#DejaVuSans-102"/>
     <use x="1007.222656" xlink:href="#DejaVuSans-111"/>
     <use x="1068.404297" xlink:href="#DejaVuSans-114"/>
     <use x="1109.517578" xlink:href="#DejaVuSans-32"/>
     <use x="1141.304688" xlink:href="#DejaVuSans-100"/>
     <use x="1204.78125" xlink:href="#DejaVuSans-105"/>
     <use x="1232.564453" xlink:href="#DejaVuSans-97"/>
     <use x="1293.84375" xlink:href="#DejaVuSans-116"/>
     <use x="1333.052734" xlink:href="#DejaVuSans-111"/>
     <use x="1394.234375" xlink:href="#DejaVuSans-109"/>
     <use x="1491.646484" xlink:href="#DejaVuSans-105"/>
     <use x="1519.429688" xlink:href="#DejaVuSans-99"/>
     <use x="1574.410156" xlink:href="#DejaVuSans-32"/>
     <use x="1606.197266" xlink:href="#DejaVuSans-99"/>
     <use x="1661.177734" xlink:href="#DejaVuSans-104"/>
     <use x="1724.556641" xlink:href="#DejaVuSans-97"/>
     <use x="1785.835938" xlink:href="#DejaVuSans-105"/>
     <use x="1813.619141" xlink:href="#DejaVuSans-110"/>
    </g>
   </g>
   <g id="legend_1">
    <g id="patch_7">
     <path d="M 648.78 207.895968 
L 727.66 207.895968 
Q 730.86 207.895968 730.86 204.695968 
L 730.86 159.325968 
Q 730.86 156.125968 727.66 156.125968 
L 648.78 156.125968 
Q 645.58 156.125968 645.58 159.325968 
L 645.58 204.695968 
Q 645.58 207.895968 648.78 207.895968 
z
" style="fill:#ffffff;opacity:0.8;stroke:#cccccc;stroke-linejoin:miter;"/>
    </g>
    <g id="line2d_17">
     <path d="M 651.98 169.083468 
L 683.98 169.083468 
" style="fill:none;stroke:#1f77b4;stroke-linecap:square;stroke-width:1.5;"/>
    </g>
    <g id="line2d_18"/>
    <g id="text_16">
     <!-- $\omega_-$ -->
     <g transform="translate(696.78 174.683468)scale(0.16 -0.16)">
      <use transform="translate(0 0.3125)" xlink:href="#DejaVuSans-Oblique-969"/>
      <use transform="translate(97.37793 -16.09375)scale(0.7)" xlink:href="#DejaVuSans-8722"/>
     </g>
    </g>
    <g id="line2d_19">
     <path d="M 651.98 192.568468 
L 683.98 192.568468 
" style="fill:none;stroke:#ff7f0e;stroke-linecap:square;stroke-width:1.5;"/>
    </g>
    <g id="line2d_20"/>
    <g id="text_17">
     <!-- $\omega_+$ -->
     <g transform="translate(696.78 198.168468)scale(0.16 -0.16)">
      <defs>
       <path d="M 46 62.703125 
L 46 35.5 
L 73.1875 35.5 
L 73.1875 27.203125 
L 46 27.203125 
L 46 0 
L 37.796875 0 
L 37.796875 27.203125 
L 10.59375 27.203125 
L 10.59375 35.5 
L 37.796875 35.5 
L 37.796875 62.703125 
z
" id="DejaVuSans-43"/>
      </defs>
      <use transform="translate(0 0.3125)" xlink:href="#DejaVuSans-Oblique-969"/>
      <use transform="translate(97.37793 -16.09375)scale(0.7)" xlink:href="#DejaVuSans-43"/>
     </g>
    </g>
   </g>
  </g>
 </g>
 <defs>
  <clipPath id="p93eae8d304">
   <rect height="308.443937" width="558" x="65.63" y="27.789"/>
  </clipPath>
 </defs>
</svg>
