<?xml version="1.0" encoding="utf-8" standalone="no"?>
<!DOCTYPE svg PUBLIC "-//W3C//DTD SVG 1.1//EN"
  "http://www.w3.org/Graphics/SVG/1.1/DTD/svg11.dtd">
<!-- Created with matplotlib (https://matplotlib.org/) -->
<svg height="204.642606pt" version="1.1" viewBox="0 0 582 204.642606" width="582pt" xmlns="http://www.w3.org/2000/svg" xmlns:xlink="http://www.w3.org/1999/xlink">
 <metadata>
  <rdf:RDF xmlns:cc="http://creativecommons.org/ns#" xmlns:dc="http://purl.org/dc/elements/1.1/" xmlns:rdf="http://www.w3.org/1999/02/22-rdf-syntax-ns#">
   <cc:Work>
    <dc:type rdf:resource="http://purl.org/dc/dcmitype/StillImage"/>
    <dc:date>2021-09-02T20:16:17.785000</dc:date>
    <dc:format>image/svg+xml</dc:format>
    <dc:creator>
     <cc:Agent>
      <dc:title>Matplotlib v3.3.2, https://matplotlib.org/</dc:title>
     </cc:Agent>
    </dc:creator>
   </cc:Work>
  </rdf:RDF>
 </metadata>
 <defs>
  <style type="text/css">*{stroke-linecap:butt;stroke-linejoin:round;}</style>
 </defs>
 <g id="figure_1">
  <g id="patch_1">
   <path d="M 0 204.642606 
L 582 204.642606 
L 582 0 
L 0 0 
z
" style="fill:#ffffff;"/>
  </g>
  <g id="axes_1">
   <g id="line2d_1">
    <path clip-path="url(#pf2c350b435)" d="M -1 57.996974 
L 1.62179 59.785134 
L 5.20139 63.18891 
L 8.78099 67.680811 
L 12.36059 73.442618 
L 15.94019 80.735893 
L 19.51979 89.942018 
L 23.099391 101.632593 
L 26.678991 116.70091 
L 30.258591 136.628108 
L 33.838191 164.083924 
L 37.478534 205.642606 
M 60.195877 205.642606 
L 62.474992 175.708204 
L 66.054592 144.756632 
L 69.634192 122.704825 
L 73.213792 106.222707 
L 76.793392 93.527086 
L 80.372993 83.56866 
L 83.952593 75.687684 
L 87.532193 69.449333 
L 91.111793 64.557662 
L 94.691393 60.807551 
L 98.270993 58.056529 
L 101.850593 56.207734 
L 105.430194 55.199544 
L 109.009794 54.999491 
L 112.589394 55.601228 
L 116.168994 57.023942 
L 119.748594 59.31413 
L 123.328194 62.550044 
L 126.907794 66.849712 
L 130.487394 72.384241 
L 134.066995 79.399681 
L 137.646595 88.253626 
L 141.226195 99.479066 
L 144.805795 113.902269 
L 148.385395 132.877854 
L 151.964995 158.808529 
L 155.544595 196.472796 
L 156.084745 205.642606 
M 178.951453 205.642606 
L 180.601796 182.136223 
L 184.181396 149.171046 
L 187.760996 125.929143 
L 191.340597 108.67035 
L 194.920197 95.430641 
L 198.499797 85.069713 
L 202.079397 76.877421 
L 205.658997 70.388864 
L 209.238597 65.289018 
L 212.818197 61.359976 
L 216.397797 58.450241 
L 219.977398 56.456212 
L 223.556998 55.310911 
L 227.136598 54.977295 
L 230.716198 55.444766 
L 234.295798 56.728199 
L 237.875398 58.869309 
L 241.454998 61.94061 
L 245.034599 66.052749 
L 248.614199 71.366758 
L 252.193799 78.114158 
L 255.773399 86.630479 
L 259.352999 97.413248 
L 262.932599 111.227918 
L 266.512199 129.316072 
L 270.091799 153.846856 
L 273.6714 189.038423 
L 274.741779 205.642606 
M 297.658221 205.642606 
L 298.7286 189.038423 
L 302.308201 153.846856 
L 305.887801 129.316072 
L 309.467401 111.227918 
L 313.047001 97.413248 
L 316.626601 86.630479 
L 320.206201 78.114158 
L 323.785801 71.366758 
L 327.365401 66.052749 
L 330.945002 61.94061 
L 334.524602 58.869309 
L 338.104202 56.728199 
L 341.683802 55.444766 
L 345.263402 54.977295 
L 348.843002 55.310911 
L 352.422602 56.456212 
L 356.002203 58.450241 
L 359.581803 61.359976 
L 363.161403 65.289018 
L 366.741003 70.388864 
L 370.320603 76.877421 
L 373.900203 85.069713 
L 377.479803 95.430641 
L 381.059403 108.67035 
L 384.639004 125.929143 
L 388.218604 149.171046 
L 391.798204 182.136223 
L 393.448547 205.642606 
M 416.315255 205.642606 
L 416.855405 196.472796 
L 420.435005 158.808529 
L 424.014605 132.877854 
L 427.594205 113.902269 
L 431.173805 99.479066 
L 434.753405 88.253626 
L 438.333005 79.399681 
L 441.912606 72.384241 
L 445.492206 66.849712 
L 449.071806 62.550044 
L 452.651406 59.31413 
L 456.231006 57.023942 
L 459.810606 55.601228 
L 463.390206 54.999491 
L 466.969806 55.199544 
L 470.549407 56.207734 
L 474.129007 58.056529 
L 477.708607 60.807551 
L 481.288207 64.557662 
L 484.867807 69.449333 
L 488.447407 75.687684 
L 492.027007 83.56866 
L 495.606608 93.527086 
L 499.186208 106.222707 
L 502.765808 122.704825 
L 506.345408 144.756632 
L 509.925008 175.708204 
L 512.204123 205.642606 
M 534.921466 205.642606 
L 534.982209 204.507878 
L 538.561809 164.083924 
L 542.141409 136.628108 
L 545.721009 116.70091 
L 549.300609 101.632593 
L 552.88021 89.942018 
L 556.45981 80.735893 
L 560.03941 73.442618 
L 563.61901 67.680811 
L 567.19861 63.18891 
L 570.77821 59.785134 
L 574.35781 57.343711 
L 577.93741 55.780433 
L 581.517011 55.043902 
L 583 55.07152 
L 583 55.07152 
" style="fill:none;stroke:#1f77b4;stroke-linecap:square;stroke-width:1.5;"/>
   </g>
   <g id="patch_2">
    <path d="M 560.086878 90.591543 
Q 285.202076 90.591543 9.19924 90.591543 
" style="fill:none;stroke:#000000;stroke-linecap:round;"/>
    <path d="M 553.686878 87.391543 
L 560.086878 90.591543 
L 553.686878 93.791543 
" style="fill:none;stroke:#000000;stroke-linecap:round;"/>
   </g>
   <g id="text_1">
    <!-- $x$ -->
    <g transform="translate(565.2 95.006543)scale(0.16 -0.16)">
     <defs>
      <path d="M 60.015625 54.6875 
L 34.90625 27.875 
L 50.296875 0 
L 39.984375 0 
L 28.421875 21.6875 
L 8.296875 0 
L -2.59375 0 
L 24.3125 28.8125 
L 10.015625 54.6875 
L 20.3125 54.6875 
L 30.8125 34.90625 
L 49.125 54.6875 
z
" id="DejaVuSans-Oblique-120"/>
     </defs>
     <use transform="translate(0 0.3125)" xlink:href="#DejaVuSans-Oblique-120"/>
    </g>
   </g>
   <g id="patch_3">
    <path d="M 48.753191 27.80507 
Q 48.753191 111.065603 48.753191 195.44417 
" style="fill:none;stroke:#000000;stroke-linecap:round;"/>
    <path d="M 45.553191 34.20507 
L 48.753191 27.80507 
L 51.953191 34.20507 
" style="fill:none;stroke:#000000;stroke-linecap:round;"/>
   </g>
   <g id="text_2">
    <!-- $V(x)$ -->
    <g transform="translate(32.273191 19.3575)scale(0.16 -0.16)">
     <defs>
      <path d="M 20.609375 0 
L 7.8125 72.90625 
L 17.484375 72.90625 
L 28.078125 10.203125 
L 63.484375 72.90625 
L 74.21875 72.90625 
L 32.078125 0 
z
" id="DejaVuSans-Oblique-86"/>
      <path d="M 31 75.875 
Q 24.46875 64.65625 21.28125 53.65625 
Q 18.109375 42.671875 18.109375 31.390625 
Q 18.109375 20.125 21.3125 9.0625 
Q 24.515625 -2 31 -13.1875 
L 23.1875 -13.1875 
Q 15.875 -1.703125 12.234375 9.375 
Q 8.59375 20.453125 8.59375 31.390625 
Q 8.59375 42.28125 12.203125 53.3125 
Q 15.828125 64.359375 23.1875 75.875 
z
" id="DejaVuSans-40"/>
      <path d="M 8.015625 75.875 
L 15.828125 75.875 
Q 23.140625 64.359375 26.78125 53.3125 
Q 30.421875 42.28125 30.421875 31.390625 
Q 30.421875 20.453125 26.78125 9.375 
Q 23.140625 -1.703125 15.828125 -13.1875 
L 8.015625 -13.1875 
Q 14.5 -2 17.703125 9.0625 
Q 20.90625 20.125 20.90625 31.390625 
Q 20.90625 42.671875 17.703125 53.65625 
Q 14.5 64.65625 8.015625 75.875 
z
" id="DejaVuSans-41"/>
     </defs>
     <use transform="translate(0 0.125)" xlink:href="#DejaVuSans-Oblique-86"/>
     <use transform="translate(68.408203 0.125)" xlink:href="#DejaVuSans-40"/>
     <use transform="translate(107.421875 0.125)" xlink:href="#DejaVuSans-Oblique-120"/>
     <use transform="translate(166.601562 0.125)" xlink:href="#DejaVuSans-41"/>
    </g>
   </g>
   <g id="text_3">
    <!-- $0$ -->
    <g transform="translate(31.760851 105.072553)scale(0.16 -0.16)">
     <defs>
      <path d="M 31.78125 66.40625 
Q 24.171875 66.40625 20.328125 58.90625 
Q 16.5 51.421875 16.5 36.375 
Q 16.5 21.390625 20.328125 13.890625 
Q 24.171875 6.390625 31.78125 6.390625 
Q 39.453125 6.390625 43.28125 13.890625 
Q 47.125 21.390625 47.125 36.375 
Q 47.125 51.421875 43.28125 58.90625 
Q 39.453125 66.40625 31.78125 66.40625 
z
M 31.78125 74.21875 
Q 44.046875 74.21875 50.515625 64.515625 
Q 56.984375 54.828125 56.984375 36.375 
Q 56.984375 17.96875 50.515625 8.265625 
Q 44.046875 -1.421875 31.78125 -1.421875 
Q 19.53125 -1.421875 13.0625 8.265625 
Q 6.59375 17.96875 6.59375 36.375 
Q 6.59375 54.828125 13.0625 64.515625 
Q 19.53125 74.21875 31.78125 74.21875 
z
" id="DejaVuSans-48"/>
     </defs>
     <use transform="translate(0 0.78125)" xlink:href="#DejaVuSans-48"/>
    </g>
   </g>
   <g id="text_4">
    <!-- $a$ -->
    <g transform="translate(162.516596 105.072553)scale(0.16 -0.16)">
     <defs>
      <path d="M 53.71875 31.203125 
L 47.609375 0 
L 38.625 0 
L 40.28125 8.296875 
Q 36.328125 3.421875 31.265625 1 
Q 26.21875 -1.421875 20.015625 -1.421875 
Q 13.03125 -1.421875 8.5625 2.84375 
Q 4.109375 7.125 4.109375 13.8125 
Q 4.109375 23.390625 11.75 28.953125 
Q 19.390625 34.515625 32.8125 34.515625 
L 45.3125 34.515625 
L 45.796875 36.921875 
Q 45.90625 37.3125 45.953125 37.765625 
Q 46 38.234375 46 39.203125 
Q 46 43.5625 42.453125 45.96875 
Q 38.921875 48.390625 32.515625 48.390625 
Q 28.125 48.390625 23.5 47.265625 
Q 18.890625 46.140625 14.015625 43.890625 
L 15.578125 52.203125 
Q 20.65625 54.109375 25.515625 55.046875 
Q 30.375 56 34.90625 56 
Q 44.578125 56 49.625 51.796875 
Q 54.6875 47.609375 54.6875 39.59375 
Q 54.6875 37.984375 54.4375 35.8125 
Q 54.203125 33.640625 53.71875 31.203125 
z
M 44 27.484375 
L 35.015625 27.484375 
Q 23.96875 27.484375 18.671875 24.53125 
Q 13.375 21.578125 13.375 15.375 
Q 13.375 11.078125 16.078125 8.640625 
Q 18.796875 6.203125 23.578125 6.203125 
Q 30.90625 6.203125 36.375 11.453125 
Q 41.84375 16.703125 43.609375 25.484375 
z
" id="DejaVuSans-Oblique-97"/>
     </defs>
     <use xlink:href="#DejaVuSans-Oblique-97"/>
    </g>
   </g>
   <g id="text_5">
    <!-- $2a$ -->
    <g transform="translate(276.2 105.072553)scale(0.16 -0.16)">
     <defs>
      <path d="M 19.1875 8.296875 
L 53.609375 8.296875 
L 53.609375 0 
L 7.328125 0 
L 7.328125 8.296875 
Q 12.9375 14.109375 22.625 23.890625 
Q 32.328125 33.6875 34.8125 36.53125 
Q 39.546875 41.84375 41.421875 45.53125 
Q 43.3125 49.21875 43.3125 52.78125 
Q 43.3125 58.59375 39.234375 62.25 
Q 35.15625 65.921875 28.609375 65.921875 
Q 23.96875 65.921875 18.8125 64.3125 
Q 13.671875 62.703125 7.8125 59.421875 
L 7.8125 69.390625 
Q 13.765625 71.78125 18.9375 73 
Q 24.125 74.21875 28.421875 74.21875 
Q 39.75 74.21875 46.484375 68.546875 
Q 53.21875 62.890625 53.21875 53.421875 
Q 53.21875 48.921875 51.53125 44.890625 
Q 49.859375 40.875 45.40625 35.40625 
Q 44.1875 33.984375 37.640625 27.21875 
Q 31.109375 20.453125 19.1875 8.296875 
z
" id="DejaVuSans-50"/>
     </defs>
     <use transform="translate(0 0.78125)" xlink:href="#DejaVuSans-50"/>
     <use transform="translate(63.623047 0.78125)" xlink:href="#DejaVuSans-Oblique-97"/>
    </g>
   </g>
   <g id="text_6">
    <!-- $3a$ -->
    <g transform="translate(394.923404 105.072553)scale(0.16 -0.16)">
     <defs>
      <path d="M 40.578125 39.3125 
Q 47.65625 37.796875 51.625 33 
Q 55.609375 28.21875 55.609375 21.1875 
Q 55.609375 10.40625 48.1875 4.484375 
Q 40.765625 -1.421875 27.09375 -1.421875 
Q 22.515625 -1.421875 17.65625 -0.515625 
Q 12.796875 0.390625 7.625 2.203125 
L 7.625 11.71875 
Q 11.71875 9.328125 16.59375 8.109375 
Q 21.484375 6.890625 26.8125 6.890625 
Q 36.078125 6.890625 40.9375 10.546875 
Q 45.796875 14.203125 45.796875 21.1875 
Q 45.796875 27.640625 41.28125 31.265625 
Q 36.765625 34.90625 28.71875 34.90625 
L 20.21875 34.90625 
L 20.21875 43.015625 
L 29.109375 43.015625 
Q 36.375 43.015625 40.234375 45.921875 
Q 44.09375 48.828125 44.09375 54.296875 
Q 44.09375 59.90625 40.109375 62.90625 
Q 36.140625 65.921875 28.71875 65.921875 
Q 24.65625 65.921875 20.015625 65.03125 
Q 15.375 64.15625 9.8125 62.3125 
L 9.8125 71.09375 
Q 15.4375 72.65625 20.34375 73.4375 
Q 25.25 74.21875 29.59375 74.21875 
Q 40.828125 74.21875 47.359375 69.109375 
Q 53.90625 64.015625 53.90625 55.328125 
Q 53.90625 49.265625 50.4375 45.09375 
Q 46.96875 40.921875 40.578125 39.3125 
z
" id="DejaVuSans-51"/>
     </defs>
     <use transform="translate(0 0.78125)" xlink:href="#DejaVuSans-51"/>
     <use transform="translate(63.623047 0.78125)" xlink:href="#DejaVuSans-Oblique-97"/>
    </g>
   </g>
   <g id="text_7">
    <!-- $4a$ -->
    <g transform="translate(513.646809 105.072553)scale(0.16 -0.16)">
     <defs>
      <path d="M 37.796875 64.3125 
L 12.890625 25.390625 
L 37.796875 25.390625 
z
M 35.203125 72.90625 
L 47.609375 72.90625 
L 47.609375 25.390625 
L 58.015625 25.390625 
L 58.015625 17.1875 
L 47.609375 17.1875 
L 47.609375 0 
L 37.796875 0 
L 37.796875 17.1875 
L 4.890625 17.1875 
L 4.890625 26.703125 
z
" id="DejaVuSans-52"/>
     </defs>
     <use transform="translate(0 0.09375)" xlink:href="#DejaVuSans-52"/>
     <use transform="translate(63.623047 0.09375)" xlink:href="#DejaVuSans-Oblique-97"/>
    </g>
   </g>
  </g>
 </g>
 <defs>
  <clipPath id="pf2c350b435">
   <rect height="178.085106" width="558" x="7.2" y="19.3575"/>
  </clipPath>
 </defs>
</svg>
