<?xml version="1.0" encoding="utf-8" standalone="no"?>
<!DOCTYPE svg PUBLIC "-//W3C//DTD SVG 1.1//EN"
  "http://www.w3.org/Graphics/SVG/1.1/DTD/svg11.dtd">
<!-- Created with matplotlib (https://matplotlib.org/) -->
<svg height="504pt" version="1.1" viewBox="0 0 720 504" width="720pt" xmlns="http://www.w3.org/2000/svg" xmlns:xlink="http://www.w3.org/1999/xlink">
 <metadata>
  <rdf:RDF xmlns:cc="http://creativecommons.org/ns#" xmlns:dc="http://purl.org/dc/elements/1.1/" xmlns:rdf="http://www.w3.org/1999/02/22-rdf-syntax-ns#">
   <cc:Work>
    <dc:type rdf:resource="http://purl.org/dc/dcmitype/StillImage"/>
    <dc:date>2021-08-14T16:05:51.840869</dc:date>
    <dc:format>image/svg+xml</dc:format>
    <dc:creator>
     <cc:Agent>
      <dc:title>Matplotlib v3.3.2, https://matplotlib.org/</dc:title>
     </cc:Agent>
    </dc:creator>
   </cc:Work>
  </rdf:RDF>
 </metadata>
 <defs>
  <style type="text/css">*{stroke-linecap:butt;stroke-linejoin:round;}</style>
 </defs>
 <g id="figure_1">
  <g id="patch_1">
   <path d="M 0 504 
L 720 504 
L 720 0 
L 0 0 
z
" style="fill:#ffffff;"/>
  </g>
  <g id="axes_1">
   <g id="PolyCollection_1">
    <path clip-path="url(#p6ceeee4a9e)" d="M 115.363636 423.703636 
L 115.363636 423.703636 
L 116.380215 408.217805 
L 117.396794 401.803363 
L 118.413372 396.881389 
L 119.429951 392.731973 
L 120.446529 389.076264 
L 121.463108 385.771251 
L 122.479687 382.731977 
L 123.496265 379.90309 
L 124.512844 377.246142 
L 125.529422 374.733137 
L 126.546001 372.342944 
L 127.56258 370.059142 
L 128.579158 367.868677 
L 129.595737 365.76096 
L 130.612316 363.727269 
L 131.628894 361.76031 
L 132.645473 359.853917 
L 133.662051 358.002817 
L 134.67863 356.202462 
L 135.695209 354.448892 
L 136.711787 352.738641 
L 137.728366 351.068648 
L 138.744944 349.436197 
L 139.761523 347.838865 
L 140.778102 346.274479 
L 141.79468 344.741079 
L 142.811259 343.236895 
L 143.827837 341.760318 
L 144.844416 340.309881 
L 145.860995 338.884244 
L 146.877573 337.482175 
L 147.894152 336.102545 
L 148.910731 334.744307 
L 149.927309 333.406498 
L 150.943888 332.088222 
L 151.960466 330.788647 
L 152.977045 329.507001 
L 153.993624 328.24256 
L 155.010202 326.994649 
L 156.026781 325.762638 
L 157.043359 324.545933 
L 158.059938 323.343978 
L 159.076517 322.156248 
L 160.093095 320.982251 
L 161.109674 319.82152 
L 162.126253 318.673617 
L 163.142831 317.538124 
L 164.15941 316.414648 
L 165.175988 315.302816 
L 166.192567 314.202272 
L 167.209146 313.112679 
L 168.225724 312.033717 
L 169.242303 310.965081 
L 170.258881 309.90648 
L 171.27546 308.857636 
L 172.292039 307.818285 
L 173.308617 306.788172 
L 174.325196 305.767057 
L 175.341774 304.754707 
L 176.358353 303.750901 
L 177.374932 302.755426 
L 178.39151 301.768077 
L 179.408089 300.788659 
L 180.424668 299.816984 
L 181.441246 298.852871 
L 182.457825 297.896146 
L 183.474403 296.946642 
L 184.490982 296.004198 
L 185.507561 295.068659 
L 186.524139 294.139874 
L 187.540718 293.217701 
L 188.557296 292.301999 
L 189.573875 291.392634 
L 190.590454 290.489477 
L 191.607032 289.592401 
L 192.623611 288.701287 
L 193.640189 287.816016 
L 194.656768 286.936476 
L 195.673347 286.062555 
L 196.689925 285.194148 
L 197.706504 284.331153 
L 198.723083 283.473468 
L 199.739661 282.620997 
L 200.75624 281.773646 
L 201.772818 280.931324 
L 202.789397 280.093943 
L 203.805976 279.261416 
L 204.822554 278.43366 
L 205.839133 277.610594 
L 206.855711 276.792139 
L 207.87229 275.978219 
L 208.888869 275.168758 
L 209.905447 274.363685 
L 210.922026 273.562929 
L 211.938604 272.766421 
L 212.955183 271.974094 
L 213.971762 271.185884 
L 214.98834 270.401726 
L 216.004919 269.621558 
L 217.021498 268.845321 
L 218.038076 268.072956 
L 219.054655 267.304404 
L 220.071233 266.539611 
L 221.087812 265.778522 
L 222.104391 265.021083 
L 223.120969 264.267243 
L 224.137548 263.51695 
L 225.154126 262.770154 
L 226.170705 262.026809 
L 227.187284 261.286865 
L 228.203862 260.550277 
L 229.220441 259.817 
L 230.237019 259.086989 
L 231.253598 258.360201 
L 232.270177 257.636594 
L 233.286755 256.916126 
L 234.303334 256.198758 
L 235.319913 255.484448 
L 236.336491 254.773158 
L 237.35307 254.064851 
L 238.369648 253.35949 
L 239.386227 252.657037 
L 240.402806 251.957457 
L 241.419384 251.260715 
L 242.435963 250.566776 
L 243.452541 249.875609 
L 244.46912 249.187178 
L 245.485699 248.501453 
L 246.502277 247.818401 
L 247.518856 247.137991 
L 248.535435 246.460193 
L 249.552013 245.784978 
L 250.568592 245.112315 
L 251.58517 244.442176 
L 252.601749 243.774534 
L 253.618328 243.109359 
L 254.634906 242.446626 
L 255.651485 241.786306 
L 256.668063 241.128375 
L 257.684642 240.472807 
L 258.701221 239.819575 
L 259.717799 239.168656 
L 260.734378 238.520025 
L 261.750956 237.873658 
L 262.767535 237.229531 
L 263.784114 236.587622 
L 264.800692 235.947907 
L 265.817271 235.310365 
L 266.83385 234.674973 
L 267.850428 234.041709 
L 268.867007 233.410553 
L 269.883585 232.781483 
L 270.900164 232.154479 
L 271.916743 231.529521 
L 272.933321 230.906589 
L 273.9499 230.285663 
L 274.966478 229.666724 
L 275.983057 229.049752 
L 276.999636 228.434731 
L 278.016214 227.82164 
L 279.032793 227.210462 
L 280.049371 226.60118 
L 281.06595 225.993775 
L 282.082529 225.38823 
L 283.099107 224.784529 
L 284.115686 224.182654 
L 285.132265 223.58259 
L 286.148843 222.984319 
L 287.165422 222.387827 
L 288.182 221.793096 
L 289.198579 221.200112 
L 290.215158 220.60886 
L 291.231736 220.019324 
L 292.248315 219.431489 
L 293.264893 218.845341 
L 294.281472 218.260865 
L 295.298051 217.678048 
L 296.314629 217.096874 
L 297.331208 216.517331 
L 298.347786 215.939405 
L 299.364365 215.363081 
L 300.380944 214.788347 
L 301.397522 214.21519 
L 302.414101 213.643597 
L 303.43068 213.073556 
L 304.447258 212.505052 
L 305.463837 211.938075 
L 306.480415 211.372612 
L 307.496994 210.808651 
L 308.513573 210.24618 
L 309.530151 209.685187 
L 310.54673 209.12566 
L 311.563308 208.567589 
L 312.579887 208.010962 
L 313.596466 207.455768 
L 314.613044 206.901995 
L 315.629623 206.349633 
L 316.646201 205.798672 
L 317.66278 205.2491 
L 318.679359 204.700907 
L 319.695937 204.154083 
L 320.712516 203.608617 
L 321.729095 203.0645 
L 322.745673 202.521721 
L 323.762252 201.980272 
L 324.77883 201.440141 
L 325.795409 200.901319 
L 326.811988 200.363798 
L 327.828566 199.827567 
L 328.845145 199.292618 
L 329.861723 198.75894 
L 330.878302 198.226526 
L 331.894881 197.695366 
L 332.911459 197.165451 
L 333.928038 196.636773 
L 334.944617 196.109324 
L 335.961195 195.583093 
L 336.977774 195.058074 
L 337.994352 194.534258 
L 339.010931 194.011636 
L 340.02751 193.4902 
L 341.044088 192.969943 
L 342.060667 192.450857 
L 343.077245 191.932933 
L 344.093824 191.416164 
L 345.110403 190.900541 
L 346.126981 190.386059 
L 347.14356 189.872708 
L 348.160138 189.360482 
L 349.176717 188.849373 
L 350.193296 188.339374 
L 351.209874 187.830478 
L 352.226453 187.322677 
L 353.243032 186.815965 
L 354.25961 186.310334 
L 355.276189 185.805778 
L 356.292767 185.30229 
L 357.309346 184.799863 
L 358.325925 184.298491 
L 359.342503 183.798166 
L 360.359082 183.298882 
L 361.37566 182.800634 
L 362.392239 182.303413 
L 363.408818 181.807215 
L 364.425396 181.312033 
L 365.441975 180.81786 
L 366.458553 180.32469 
L 367.475132 179.832518 
L 368.491711 179.341337 
L 369.508289 423.703636 
L 370.524868 423.703636 
L 371.541447 423.703636 
L 372.558025 423.703636 
L 373.574604 423.703636 
L 374.591182 423.703636 
L 375.607761 423.703636 
L 376.62434 423.703636 
L 377.640918 423.703636 
L 378.657497 423.703636 
L 379.674075 423.703636 
L 380.690654 423.703636 
L 381.707233 423.703636 
L 382.723811 423.703636 
L 383.74039 423.703636 
L 384.756968 423.703636 
L 385.773547 423.703636 
L 386.790126 423.703636 
L 387.806704 423.703636 
L 388.823283 423.703636 
L 389.839862 423.703636 
L 390.85644 423.703636 
L 391.873019 423.703636 
L 392.889597 423.703636 
L 393.906176 423.703636 
L 394.922755 423.703636 
L 395.939333 423.703636 
L 396.955912 423.703636 
L 397.97249 423.703636 
L 398.989069 423.703636 
L 400.005648 423.703636 
L 401.022226 423.703636 
L 402.038805 423.703636 
L 403.055383 423.703636 
L 404.071962 423.703636 
L 405.088541 423.703636 
L 406.105119 423.703636 
L 407.121698 423.703636 
L 408.138277 423.703636 
L 409.154855 423.703636 
L 410.171434 423.703636 
L 411.188012 423.703636 
L 412.204591 423.703636 
L 413.22117 423.703636 
L 414.237748 423.703636 
L 415.254327 423.703636 
L 416.270905 423.703636 
L 417.287484 423.703636 
L 418.304063 423.703636 
L 419.320641 423.703636 
L 420.33722 423.703636 
L 421.353799 423.703636 
L 422.370377 423.703636 
L 423.386956 423.703636 
L 424.403534 423.703636 
L 425.420113 423.703636 
L 426.436692 423.703636 
L 427.45327 423.703636 
L 428.469849 423.703636 
L 429.486427 423.703636 
L 430.503006 423.703636 
L 431.519585 423.703636 
L 432.536163 423.703636 
L 433.552742 423.703636 
L 434.56932 423.703636 
L 435.585899 423.703636 
L 436.602478 423.703636 
L 437.619056 423.703636 
L 438.635635 423.703636 
L 439.652214 423.703636 
L 440.668792 423.703636 
L 441.685371 423.703636 
L 442.701949 423.703636 
L 443.718528 423.703636 
L 444.735107 423.703636 
L 445.751685 423.703636 
L 446.768264 423.703636 
L 447.784842 423.703636 
L 448.801421 423.703636 
L 449.818 423.703636 
L 450.834578 423.703636 
L 451.851157 423.703636 
L 452.867735 423.703636 
L 453.884314 423.703636 
L 454.900893 423.703636 
L 455.917471 423.703636 
L 456.93405 423.703636 
L 457.950629 423.703636 
L 458.967207 423.703636 
L 459.983786 423.703636 
L 461.000364 423.703636 
L 462.016943 423.703636 
L 463.033522 423.703636 
L 464.0501 423.703636 
L 465.066679 423.703636 
L 466.083257 423.703636 
L 467.099836 423.703636 
L 468.116415 423.703636 
L 469.132993 423.703636 
L 470.149572 423.703636 
L 471.16615 423.703636 
L 472.182729 423.703636 
L 473.199308 423.703636 
L 474.215886 423.703636 
L 475.232465 423.703636 
L 476.249044 423.703636 
L 477.265622 423.703636 
L 478.282201 423.703636 
L 479.298779 423.703636 
L 480.315358 423.703636 
L 481.331937 423.703636 
L 482.348515 423.703636 
L 483.365094 423.703636 
L 484.381672 423.703636 
L 485.398251 423.703636 
L 486.41483 423.703636 
L 487.431408 423.703636 
L 488.447987 423.703636 
L 489.464565 423.703636 
L 490.481144 423.703636 
L 491.497723 423.703636 
L 492.514301 423.703636 
L 493.53088 423.703636 
L 494.547459 423.703636 
L 495.564037 423.703636 
L 496.580616 423.703636 
L 497.597194 423.703636 
L 498.613773 423.703636 
L 499.630352 423.703636 
L 500.64693 423.703636 
L 501.663509 423.703636 
L 502.680087 423.703636 
L 503.696666 423.703636 
L 504.713245 423.703636 
L 505.729823 423.703636 
L 506.746402 423.703636 
L 507.762981 423.703636 
L 508.779559 423.703636 
L 509.796138 423.703636 
L 510.812716 423.703636 
L 511.829295 423.703636 
L 512.845874 423.703636 
L 513.862452 423.703636 
L 514.879031 423.703636 
L 515.895609 423.703636 
L 516.912188 423.703636 
L 517.928767 423.703636 
L 518.945345 423.703636 
L 519.961924 423.703636 
L 520.978502 423.703636 
L 521.995081 423.703636 
L 523.01166 423.703636 
L 524.028238 423.703636 
L 525.044817 423.703636 
L 526.061396 423.703636 
L 527.077974 423.703636 
L 528.094553 423.703636 
L 529.111131 423.703636 
L 530.12771 423.703636 
L 531.144289 423.703636 
L 532.160867 423.703636 
L 533.177446 423.703636 
L 534.194024 423.703636 
L 535.210603 423.703636 
L 536.227182 423.703636 
L 537.24376 423.703636 
L 538.260339 423.703636 
L 539.276917 423.703636 
L 540.293496 423.703636 
L 541.310075 423.703636 
L 542.326653 423.703636 
L 543.343232 423.703636 
L 544.359811 423.703636 
L 545.376389 423.703636 
L 546.392968 423.703636 
L 547.409546 423.703636 
L 548.426125 423.703636 
L 549.442704 423.703636 
L 550.459282 423.703636 
L 551.475861 423.703636 
L 552.492439 423.703636 
L 553.509018 423.703636 
L 554.525597 423.703636 
L 555.542175 423.703636 
L 556.558754 423.703636 
L 557.575332 423.703636 
L 558.591911 423.703636 
L 559.60849 423.703636 
L 560.625068 423.703636 
L 561.641647 423.703636 
L 562.658226 423.703636 
L 563.674804 423.703636 
L 564.691383 423.703636 
L 565.707961 423.703636 
L 566.72454 423.703636 
L 567.741119 423.703636 
L 568.757697 423.703636 
L 569.774276 423.703636 
L 570.790854 423.703636 
L 571.807433 423.703636 
L 572.824012 423.703636 
L 573.84059 423.703636 
L 574.857169 423.703636 
L 575.873747 423.703636 
L 576.890326 423.703636 
L 577.906905 423.703636 
L 578.923483 423.703636 
L 579.940062 423.703636 
L 580.956641 423.703636 
L 581.973219 423.703636 
L 582.989798 423.703636 
L 584.006376 423.703636 
L 585.022955 423.703636 
L 586.039534 423.703636 
L 587.056112 423.703636 
L 588.072691 423.703636 
L 589.089269 423.703636 
L 590.105848 423.703636 
L 591.122427 423.703636 
L 592.139005 423.703636 
L 593.155584 423.703636 
L 594.172163 423.703636 
L 595.188741 423.703636 
L 596.20532 423.703636 
L 597.221898 423.703636 
L 598.238477 423.703636 
L 599.255056 423.703636 
L 600.271634 423.703636 
L 601.288213 423.703636 
L 602.304791 423.703636 
L 603.32137 423.703636 
L 604.337949 423.703636 
L 605.354527 423.703636 
L 606.371106 423.703636 
L 607.387684 423.703636 
L 608.404263 423.703636 
L 609.420842 423.703636 
L 610.43742 423.703636 
L 611.453999 423.703636 
L 612.470578 423.703636 
L 613.487156 423.703636 
L 614.503735 423.703636 
L 615.520313 423.703636 
L 616.536892 423.703636 
L 617.553471 423.703636 
L 618.570049 423.703636 
L 619.586628 423.703636 
L 620.603206 423.703636 
L 621.619785 423.703636 
L 622.636364 423.703636 
L 622.636364 423.703636 
L 622.636364 423.703636 
L 621.619785 423.703636 
L 620.603206 423.703636 
L 619.586628 423.703636 
L 618.570049 423.703636 
L 617.553471 423.703636 
L 616.536892 423.703636 
L 615.520313 423.703636 
L 614.503735 423.703636 
L 613.487156 423.703636 
L 612.470578 423.703636 
L 611.453999 423.703636 
L 610.43742 423.703636 
L 609.420842 423.703636 
L 608.404263 423.703636 
L 607.387684 423.703636 
L 606.371106 423.703636 
L 605.354527 423.703636 
L 604.337949 423.703636 
L 603.32137 423.703636 
L 602.304791 423.703636 
L 601.288213 423.703636 
L 600.271634 423.703636 
L 599.255056 423.703636 
L 598.238477 423.703636 
L 597.221898 423.703636 
L 596.20532 423.703636 
L 595.188741 423.703636 
L 594.172163 423.703636 
L 593.155584 423.703636 
L 592.139005 423.703636 
L 591.122427 423.703636 
L 590.105848 423.703636 
L 589.089269 423.703636 
L 588.072691 423.703636 
L 587.056112 423.703636 
L 586.039534 423.703636 
L 585.022955 423.703636 
L 584.006376 423.703636 
L 582.989798 423.703636 
L 581.973219 423.703636 
L 580.956641 423.703636 
L 579.940062 423.703636 
L 578.923483 423.703636 
L 577.906905 423.703636 
L 576.890326 423.703636 
L 575.873747 423.703636 
L 574.857169 423.703636 
L 573.84059 423.703636 
L 572.824012 423.703636 
L 571.807433 423.703636 
L 570.790854 423.703636 
L 569.774276 423.703636 
L 568.757697 423.703636 
L 567.741119 423.703636 
L 566.72454 423.703636 
L 565.707961 423.703636 
L 564.691383 423.703636 
L 563.674804 423.703636 
L 562.658226 423.703636 
L 561.641647 423.703636 
L 560.625068 423.703636 
L 559.60849 423.703636 
L 558.591911 423.703636 
L 557.575332 423.703636 
L 556.558754 423.703636 
L 555.542175 423.703636 
L 554.525597 423.703636 
L 553.509018 423.703636 
L 552.492439 423.703636 
L 551.475861 423.703636 
L 550.459282 423.703636 
L 549.442704 423.703636 
L 548.426125 423.703636 
L 547.409546 423.703636 
L 546.392968 423.703636 
L 545.376389 423.703636 
L 544.359811 423.703636 
L 543.343232 423.703636 
L 542.326653 423.703636 
L 541.310075 423.703636 
L 540.293496 423.703636 
L 539.276917 423.703636 
L 538.260339 423.703636 
L 537.24376 423.703636 
L 536.227182 423.703636 
L 535.210603 423.703636 
L 534.194024 423.703636 
L 533.177446 423.703636 
L 532.160867 423.703636 
L 531.144289 423.703636 
L 530.12771 423.703636 
L 529.111131 423.703636 
L 528.094553 423.703636 
L 527.077974 423.703636 
L 526.061396 423.703636 
L 525.044817 423.703636 
L 524.028238 423.703636 
L 523.01166 423.703636 
L 521.995081 423.703636 
L 520.978502 423.703636 
L 519.961924 423.703636 
L 518.945345 423.703636 
L 517.928767 423.703636 
L 516.912188 423.703636 
L 515.895609 423.703636 
L 514.879031 423.703636 
L 513.862452 423.703636 
L 512.845874 423.703636 
L 511.829295 423.703636 
L 510.812716 423.703636 
L 509.796138 423.703636 
L 508.779559 423.703636 
L 507.762981 423.703636 
L 506.746402 423.703636 
L 505.729823 423.703636 
L 504.713245 423.703636 
L 503.696666 423.703636 
L 502.680087 423.703636 
L 501.663509 423.703636 
L 500.64693 423.703636 
L 499.630352 423.703636 
L 498.613773 423.703636 
L 497.597194 423.703636 
L 496.580616 423.703636 
L 495.564037 423.703636 
L 494.547459 423.703636 
L 493.53088 423.703636 
L 492.514301 423.703636 
L 491.497723 423.703636 
L 490.481144 423.703636 
L 489.464565 423.703636 
L 488.447987 423.703636 
L 487.431408 423.703636 
L 486.41483 423.703636 
L 485.398251 423.703636 
L 484.381672 423.703636 
L 483.365094 423.703636 
L 482.348515 423.703636 
L 481.331937 423.703636 
L 480.315358 423.703636 
L 479.298779 423.703636 
L 478.282201 423.703636 
L 477.265622 423.703636 
L 476.249044 423.703636 
L 475.232465 423.703636 
L 474.215886 423.703636 
L 473.199308 423.703636 
L 472.182729 423.703636 
L 471.16615 423.703636 
L 470.149572 423.703636 
L 469.132993 423.703636 
L 468.116415 423.703636 
L 467.099836 423.703636 
L 466.083257 423.703636 
L 465.066679 423.703636 
L 464.0501 423.703636 
L 463.033522 423.703636 
L 462.016943 423.703636 
L 461.000364 423.703636 
L 459.983786 423.703636 
L 458.967207 423.703636 
L 457.950629 423.703636 
L 456.93405 423.703636 
L 455.917471 423.703636 
L 454.900893 423.703636 
L 453.884314 423.703636 
L 452.867735 423.703636 
L 451.851157 423.703636 
L 450.834578 423.703636 
L 449.818 423.703636 
L 448.801421 423.703636 
L 447.784842 423.703636 
L 446.768264 423.703636 
L 445.751685 423.703636 
L 444.735107 423.703636 
L 443.718528 423.703636 
L 442.701949 423.703636 
L 441.685371 423.703636 
L 440.668792 423.703636 
L 439.652214 423.703636 
L 438.635635 423.703636 
L 437.619056 423.703636 
L 436.602478 423.703636 
L 435.585899 423.703636 
L 434.56932 423.703636 
L 433.552742 423.703636 
L 432.536163 423.703636 
L 431.519585 423.703636 
L 430.503006 423.703636 
L 429.486427 423.703636 
L 428.469849 423.703636 
L 427.45327 423.703636 
L 426.436692 423.703636 
L 425.420113 423.703636 
L 424.403534 423.703636 
L 423.386956 423.703636 
L 422.370377 423.703636 
L 421.353799 423.703636 
L 420.33722 423.703636 
L 419.320641 423.703636 
L 418.304063 423.703636 
L 417.287484 423.703636 
L 416.270905 423.703636 
L 415.254327 423.703636 
L 414.237748 423.703636 
L 413.22117 423.703636 
L 412.204591 423.703636 
L 411.188012 423.703636 
L 410.171434 423.703636 
L 409.154855 423.703636 
L 408.138277 423.703636 
L 407.121698 423.703636 
L 406.105119 423.703636 
L 405.088541 423.703636 
L 404.071962 423.703636 
L 403.055383 423.703636 
L 402.038805 423.703636 
L 401.022226 423.703636 
L 400.005648 423.703636 
L 398.989069 423.703636 
L 397.97249 423.703636 
L 396.955912 423.703636 
L 395.939333 423.703636 
L 394.922755 423.703636 
L 393.906176 423.703636 
L 392.889597 423.703636 
L 391.873019 423.703636 
L 390.85644 423.703636 
L 389.839862 423.703636 
L 388.823283 423.703636 
L 387.806704 423.703636 
L 386.790126 423.703636 
L 385.773547 423.703636 
L 384.756968 423.703636 
L 383.74039 423.703636 
L 382.723811 423.703636 
L 381.707233 423.703636 
L 380.690654 423.703636 
L 379.674075 423.703636 
L 378.657497 423.703636 
L 377.640918 423.703636 
L 376.62434 423.703636 
L 375.607761 423.703636 
L 374.591182 423.703636 
L 373.574604 423.703636 
L 372.558025 423.703636 
L 371.541447 423.703636 
L 370.524868 423.703636 
L 369.508289 423.703636 
L 368.491711 423.703636 
L 367.475132 423.703636 
L 366.458553 423.703636 
L 365.441975 423.703636 
L 364.425396 423.703636 
L 363.408818 423.703636 
L 362.392239 423.703636 
L 361.37566 423.703636 
L 360.359082 423.703636 
L 359.342503 423.703636 
L 358.325925 423.703636 
L 357.309346 423.703636 
L 356.292767 423.703636 
L 355.276189 423.703636 
L 354.25961 423.703636 
L 353.243032 423.703636 
L 352.226453 423.703636 
L 351.209874 423.703636 
L 350.193296 423.703636 
L 349.176717 423.703636 
L 348.160138 423.703636 
L 347.14356 423.703636 
L 346.126981 423.703636 
L 345.110403 423.703636 
L 344.093824 423.703636 
L 343.077245 423.703636 
L 342.060667 423.703636 
L 341.044088 423.703636 
L 340.02751 423.703636 
L 339.010931 423.703636 
L 337.994352 423.703636 
L 336.977774 423.703636 
L 335.961195 423.703636 
L 334.944617 423.703636 
L 333.928038 423.703636 
L 332.911459 423.703636 
L 331.894881 423.703636 
L 330.878302 423.703636 
L 329.861723 423.703636 
L 328.845145 423.703636 
L 327.828566 423.703636 
L 326.811988 423.703636 
L 325.795409 423.703636 
L 324.77883 423.703636 
L 323.762252 423.703636 
L 322.745673 423.703636 
L 321.729095 423.703636 
L 320.712516 423.703636 
L 319.695937 423.703636 
L 318.679359 423.703636 
L 317.66278 423.703636 
L 316.646201 423.703636 
L 315.629623 423.703636 
L 314.613044 423.703636 
L 313.596466 423.703636 
L 312.579887 423.703636 
L 311.563308 423.703636 
L 310.54673 423.703636 
L 309.530151 423.703636 
L 308.513573 423.703636 
L 307.496994 423.703636 
L 306.480415 423.703636 
L 305.463837 423.703636 
L 304.447258 423.703636 
L 303.43068 423.703636 
L 302.414101 423.703636 
L 301.397522 423.703636 
L 300.380944 423.703636 
L 299.364365 423.703636 
L 298.347786 423.703636 
L 297.331208 423.703636 
L 296.314629 423.703636 
L 295.298051 423.703636 
L 294.281472 423.703636 
L 293.264893 423.703636 
L 292.248315 423.703636 
L 291.231736 423.703636 
L 290.215158 423.703636 
L 289.198579 423.703636 
L 288.182 423.703636 
L 287.165422 423.703636 
L 286.148843 423.703636 
L 285.132265 423.703636 
L 284.115686 423.703636 
L 283.099107 423.703636 
L 282.082529 423.703636 
L 281.06595 423.703636 
L 280.049371 423.703636 
L 279.032793 423.703636 
L 278.016214 423.703636 
L 276.999636 423.703636 
L 275.983057 423.703636 
L 274.966478 423.703636 
L 273.9499 423.703636 
L 272.933321 423.703636 
L 271.916743 423.703636 
L 270.900164 423.703636 
L 269.883585 423.703636 
L 268.867007 423.703636 
L 267.850428 423.703636 
L 266.83385 423.703636 
L 265.817271 423.703636 
L 264.800692 423.703636 
L 263.784114 423.703636 
L 262.767535 423.703636 
L 261.750956 423.703636 
L 260.734378 423.703636 
L 259.717799 423.703636 
L 258.701221 423.703636 
L 257.684642 423.703636 
L 256.668063 423.703636 
L 255.651485 423.703636 
L 254.634906 423.703636 
L 253.618328 423.703636 
L 252.601749 423.703636 
L 251.58517 423.703636 
L 250.568592 423.703636 
L 249.552013 423.703636 
L 248.535435 423.703636 
L 247.518856 423.703636 
L 246.502277 423.703636 
L 245.485699 423.703636 
L 244.46912 423.703636 
L 243.452541 423.703636 
L 242.435963 423.703636 
L 241.419384 423.703636 
L 240.402806 423.703636 
L 239.386227 423.703636 
L 238.369648 423.703636 
L 237.35307 423.703636 
L 236.336491 423.703636 
L 235.319913 423.703636 
L 234.303334 423.703636 
L 233.286755 423.703636 
L 232.270177 423.703636 
L 231.253598 423.703636 
L 230.237019 423.703636 
L 229.220441 423.703636 
L 228.203862 423.703636 
L 227.187284 423.703636 
L 226.170705 423.703636 
L 225.154126 423.703636 
L 224.137548 423.703636 
L 223.120969 423.703636 
L 222.104391 423.703636 
L 221.087812 423.703636 
L 220.071233 423.703636 
L 219.054655 423.703636 
L 218.038076 423.703636 
L 217.021498 423.703636 
L 216.004919 423.703636 
L 214.98834 423.703636 
L 213.971762 423.703636 
L 212.955183 423.703636 
L 211.938604 423.703636 
L 210.922026 423.703636 
L 209.905447 423.703636 
L 208.888869 423.703636 
L 207.87229 423.703636 
L 206.855711 423.703636 
L 205.839133 423.703636 
L 204.822554 423.703636 
L 203.805976 423.703636 
L 202.789397 423.703636 
L 201.772818 423.703636 
L 200.75624 423.703636 
L 199.739661 423.703636 
L 198.723083 423.703636 
L 197.706504 423.703636 
L 196.689925 423.703636 
L 195.673347 423.703636 
L 194.656768 423.703636 
L 193.640189 423.703636 
L 192.623611 423.703636 
L 191.607032 423.703636 
L 190.590454 423.703636 
L 189.573875 423.703636 
L 188.557296 423.703636 
L 187.540718 423.703636 
L 186.524139 423.703636 
L 185.507561 423.703636 
L 184.490982 423.703636 
L 183.474403 423.703636 
L 182.457825 423.703636 
L 181.441246 423.703636 
L 180.424668 423.703636 
L 179.408089 423.703636 
L 178.39151 423.703636 
L 177.374932 423.703636 
L 176.358353 423.703636 
L 175.341774 423.703636 
L 174.325196 423.703636 
L 173.308617 423.703636 
L 172.292039 423.703636 
L 171.27546 423.703636 
L 170.258881 423.703636 
L 169.242303 423.703636 
L 168.225724 423.703636 
L 167.209146 423.703636 
L 166.192567 423.703636 
L 165.175988 423.703636 
L 164.15941 423.703636 
L 163.142831 423.703636 
L 162.126253 423.703636 
L 161.109674 423.703636 
L 160.093095 423.703636 
L 159.076517 423.703636 
L 158.059938 423.703636 
L 157.043359 423.703636 
L 156.026781 423.703636 
L 155.010202 423.703636 
L 153.993624 423.703636 
L 152.977045 423.703636 
L 151.960466 423.703636 
L 150.943888 423.703636 
L 149.927309 423.703636 
L 148.910731 423.703636 
L 147.894152 423.703636 
L 146.877573 423.703636 
L 145.860995 423.703636 
L 144.844416 423.703636 
L 143.827837 423.703636 
L 142.811259 423.703636 
L 141.79468 423.703636 
L 140.778102 423.703636 
L 139.761523 423.703636 
L 138.744944 423.703636 
L 137.728366 423.703636 
L 136.711787 423.703636 
L 135.695209 423.703636 
L 134.67863 423.703636 
L 133.662051 423.703636 
L 132.645473 423.703636 
L 131.628894 423.703636 
L 130.612316 423.703636 
L 129.595737 423.703636 
L 128.579158 423.703636 
L 127.56258 423.703636 
L 126.546001 423.703636 
L 125.529422 423.703636 
L 124.512844 423.703636 
L 123.496265 423.703636 
L 122.479687 423.703636 
L 121.463108 423.703636 
L 120.446529 423.703636 
L 119.429951 423.703636 
L 118.413372 423.703636 
L 117.396794 423.703636 
L 116.380215 423.703636 
L 115.363636 423.703636 
z
" style="fill:#1f77b4;fill-opacity:0.3;"/>
   </g>
   <g id="PolyCollection_2">
    <path clip-path="url(#p6ceeee4a9e)" d="M 115.363636 423.703636 
L 115.363636 423.703636 
L 116.380215 408.217805 
L 117.396794 401.803363 
L 118.413372 396.881389 
L 119.429951 392.731973 
L 120.446529 389.076264 
L 121.463108 385.771251 
L 122.479687 382.731977 
L 123.496265 379.903091 
L 124.512844 377.246142 
L 125.529422 374.733138 
L 126.546001 372.342944 
L 127.56258 370.059143 
L 128.579158 367.868677 
L 129.595737 365.760961 
L 130.612316 363.727269 
L 131.628894 361.760311 
L 132.645473 359.853918 
L 133.662051 358.002818 
L 134.67863 356.202462 
L 135.695209 354.448893 
L 136.711787 352.738642 
L 137.728366 351.068649 
L 138.744944 349.436198 
L 139.761523 347.838866 
L 140.778102 346.27448 
L 141.79468 344.741081 
L 142.811259 343.236897 
L 143.827837 341.76032 
L 144.844416 340.309883 
L 145.860995 338.884246 
L 146.877573 337.482178 
L 147.894152 336.102547 
L 148.910731 334.74431 
L 149.927309 333.406501 
L 150.943888 332.088225 
L 151.960466 330.788651 
L 152.977045 329.507004 
L 153.993624 328.242564 
L 155.010202 326.994654 
L 156.026781 325.762643 
L 157.043359 324.545939 
L 158.059938 323.343984 
L 159.076517 322.156255 
L 160.093095 320.982258 
L 161.109674 319.821528 
L 162.126253 318.673626 
L 163.142831 317.538134 
L 164.15941 316.414659 
L 165.175988 315.302827 
L 166.192567 314.202284 
L 167.209146 313.112692 
L 168.225724 312.033732 
L 169.242303 310.965097 
L 170.258881 309.906498 
L 171.27546 308.857655 
L 172.292039 307.818306 
L 173.308617 306.788196 
L 174.325196 305.767083 
L 175.341774 304.754735 
L 176.358353 303.750932 
L 177.374932 302.755459 
L 178.39151 301.768113 
L 179.408089 300.788699 
L 180.424668 299.817027 
L 181.441246 298.852918 
L 182.457825 297.896198 
L 183.474403 296.946699 
L 184.490982 296.00426 
L 185.507561 295.068726 
L 186.524139 294.139947 
L 187.540718 293.21778 
L 188.557296 292.302086 
L 189.573875 291.392729 
L 190.590454 290.48958 
L 191.607032 289.592514 
L 192.623611 288.70141 
L 193.640189 287.81615 
L 194.656768 286.936622 
L 195.673347 286.062715 
L 196.689925 285.194322 
L 197.706504 284.331342 
L 198.723083 283.473675 
L 199.739661 282.621222 
L 200.75624 281.773892 
L 201.772818 280.931592 
L 202.789397 280.094235 
L 203.805976 279.261734 
L 204.822554 278.434007 
L 205.839133 277.610972 
L 206.855711 276.792551 
L 207.87229 275.978667 
L 208.888869 275.169247 
L 209.905447 274.364217 
L 210.922026 273.563509 
L 211.938604 272.767052 
L 212.955183 271.974782 
L 213.971762 271.186632 
L 214.98834 270.402541 
L 216.004919 269.622446 
L 217.021498 268.846288 
L 218.038076 268.074008 
L 219.054655 267.305551 
L 220.071233 266.540859 
L 221.087812 265.779881 
L 222.104391 265.022562 
L 223.120969 264.268853 
L 224.137548 263.518702 
L 225.154126 262.772062 
L 226.170705 262.028885 
L 227.187284 261.289126 
L 228.203862 260.552738 
L 229.220441 259.819678 
L 230.237019 259.089903 
L 231.253598 258.363372 
L 232.270177 257.640045 
L 233.286755 256.919881 
L 234.303334 256.202843 
L 235.319913 255.488893 
L 236.336491 254.777995 
L 237.35307 254.070114 
L 238.369648 253.365215 
L 239.386227 252.663266 
L 240.402806 251.964233 
L 241.419384 251.268086 
L 242.435963 250.574796 
L 243.452541 249.884332 
L 244.46912 249.196667 
L 245.485699 248.511773 
L 246.502277 247.829626 
L 247.518856 247.150201 
L 248.535435 246.473473 
L 249.552013 245.79942 
L 250.568592 245.128022 
L 251.58517 244.459258 
L 252.601749 243.793109 
L 253.618328 243.129559 
L 254.634906 242.468592 
L 255.651485 241.810193 
L 256.668063 241.154348 
L 257.684642 240.501048 
L 258.701221 239.850283 
L 259.717799 239.202044 
L 260.734378 238.556326 
L 261.750956 237.913125 
L 262.767535 237.27244 
L 263.784114 236.634271 
L 264.800692 235.998621 
L 265.817271 235.365496 
L 266.83385 234.734905 
L 267.850428 234.10686 
L 268.867007 233.481374 
L 269.883585 232.858466 
L 270.900164 232.238158 
L 271.916743 231.620477 
L 272.933321 231.005451 
L 273.9499 230.393117 
L 274.966478 229.783513 
L 275.983057 229.176685 
L 276.999636 228.572684 
L 278.016214 227.971568 
L 279.032793 227.3734 
L 280.049371 226.778251 
L 281.06595 226.186201 
L 282.082529 225.597338 
L 283.099107 225.011759 
L 284.115686 224.42957 
L 285.132265 223.850891 
L 286.148843 223.275849 
L 287.165422 222.704588 
L 288.182 222.137264 
L 289.198579 221.574046 
L 290.215158 221.015123 
L 291.231736 220.460698 
L 292.248315 219.910994 
L 293.264893 219.366254 
L 294.281472 218.826745 
L 295.298051 218.292754 
L 296.314629 217.764597 
L 297.331208 217.242616 
L 298.347786 216.727184 
L 299.364365 216.218706 
L 300.380944 215.717622 
L 301.397522 215.224411 
L 302.414101 214.739591 
L 303.43068 214.263726 
L 304.447258 213.797426 
L 305.463837 213.341354 
L 306.480415 212.896226 
L 307.496994 212.462821 
L 308.513573 212.041979 
L 309.530151 211.634609 
L 310.54673 211.241696 
L 311.563308 210.864303 
L 312.579887 210.503579 
L 313.596466 210.160763 
L 314.613044 209.837192 
L 315.629623 209.534308 
L 316.646201 209.253663 
L 317.66278 208.996929 
L 318.679359 208.765902 
L 319.695937 208.562513 
L 320.712516 208.388834 
L 321.729095 208.247087 
L 322.745673 208.139651 
L 323.762252 208.069071 
L 324.77883 208.038064 
L 325.795409 208.049531 
L 326.811988 208.106556 
L 327.828566 208.212422 
L 328.845145 208.37061 
L 329.861723 208.584806 
L 330.878302 208.858901 
L 331.894881 209.196998 
L 332.911459 209.603409 
L 333.928038 210.082648 
L 334.944617 210.63943 
L 335.961195 211.278662 
L 336.977774 212.005426 
L 337.994352 212.824966 
L 339.010931 213.74266 
L 340.02751 214.764 
L 341.044088 215.894553 
L 342.060667 217.139921 
L 343.077245 218.505699 
L 344.093824 219.997416 
L 345.110403 221.620476 
L 346.126981 223.380087 
L 347.14356 225.281191 
L 348.160138 227.328374 
L 349.176717 229.525781 
L 350.193296 231.87702 
L 351.209874 234.385065 
L 352.226453 237.052154 
L 353.243032 239.879689 
L 354.25961 242.868135 
L 355.276189 246.016931 
L 356.292767 249.324398 
L 357.309346 252.787667 
L 358.325925 256.40262 
L 359.342503 260.163841 
L 360.359082 264.064596 
L 361.37566 268.096835 
L 362.392239 272.251211 
L 363.408818 276.517134 
L 364.425396 280.882852 
L 365.441975 285.335548 
L 366.458553 289.861473 
L 367.475132 294.446101 
L 368.491711 299.074294 
L 369.508289 303.730492 
L 370.524868 308.398909 
L 371.541447 313.063736 
L 372.558025 317.709339 
L 373.574604 322.320459 
L 374.591182 326.882396 
L 375.607761 331.381174 
L 376.62434 335.803699 
L 377.640918 340.137876 
L 378.657497 344.372723 
L 379.674075 348.498438 
L 380.690654 352.506457 
L 381.707233 356.389475 
L 382.723811 360.141452 
L 383.74039 363.75759 
L 384.756968 367.234294 
L 385.773547 370.569118 
L 386.790126 373.760695 
L 387.806704 376.808657 
L 388.823283 379.71355 
L 389.839862 382.476741 
L 390.85644 385.100326 
L 391.873019 387.587036 
L 392.889597 389.940142 
L 393.906176 392.163375 
L 394.922755 394.260836 
L 395.939333 396.23692 
L 396.955912 398.096245 
L 397.97249 399.843588 
L 398.989069 401.483824 
L 400.005648 403.021877 
L 401.022226 404.462675 
L 402.038805 405.811106 
L 403.055383 407.071994 
L 404.071962 408.250061 
L 405.088541 409.349912 
L 406.105119 410.376013 
L 407.121698 411.332679 
L 408.138277 412.224061 
L 409.154855 413.054139 
L 410.171434 413.826719 
L 411.188012 414.545428 
L 412.204591 415.213716 
L 413.22117 415.834855 
L 414.237748 416.411943 
L 415.254327 416.947907 
L 416.270905 417.445508 
L 417.287484 417.907346 
L 418.304063 418.335864 
L 419.320641 418.733359 
L 420.33722 419.101983 
L 421.353799 419.443754 
L 422.370377 419.760558 
L 423.386956 420.05416 
L 424.403534 420.326209 
L 425.420113 420.578244 
L 426.436692 420.811698 
L 427.45327 421.027911 
L 428.469849 421.228127 
L 429.486427 421.413506 
L 430.503006 421.585128 
L 431.519585 421.743996 
L 432.536163 421.891043 
L 433.552742 422.027136 
L 434.56932 422.153079 
L 435.585899 422.269619 
L 436.602478 422.377452 
L 437.619056 422.47722 
L 438.635635 422.56952 
L 439.652214 422.654906 
L 440.668792 422.733893 
L 441.685371 422.806954 
L 442.701949 422.874533 
L 443.718528 422.937036 
L 444.735107 422.994844 
L 445.751685 423.048306 
L 446.768264 423.097748 
L 447.784842 423.14347 
L 448.801421 423.185751 
L 449.818 423.224848 
L 450.834578 423.261001 
L 451.851157 423.29443 
L 452.867735 423.325339 
L 453.884314 423.353918 
L 454.900893 423.380343 
L 455.917471 423.404774 
L 456.93405 423.427362 
L 457.950629 423.448245 
L 458.967207 423.467553 
L 459.983786 423.485403 
L 461.000364 423.501905 
L 462.016943 423.517161 
L 463.033522 423.531264 
L 464.0501 423.544303 
L 465.066679 423.556356 
L 466.083257 423.567498 
L 467.099836 423.577799 
L 468.116415 423.587321 
L 469.132993 423.596123 
L 470.149572 423.604259 
L 471.16615 423.611781 
L 472.182729 423.618733 
L 473.199308 423.62516 
L 474.215886 423.631101 
L 475.232465 423.636593 
L 476.249044 423.641669 
L 477.265622 423.646361 
L 478.282201 423.650698 
L 479.298779 423.654707 
L 480.315358 423.658412 
L 481.331937 423.661837 
L 482.348515 423.665003 
L 483.365094 423.667929 
L 484.381672 423.670634 
L 485.398251 423.673134 
L 486.41483 423.675445 
L 487.431408 423.677581 
L 488.447987 423.679555 
L 489.464565 423.68138 
L 490.481144 423.683066 
L 491.497723 423.684625 
L 492.514301 423.686065 
L 493.53088 423.687397 
L 494.547459 423.688628 
L 495.564037 423.689765 
L 496.580616 423.690817 
L 497.597194 423.691788 
L 498.613773 423.692687 
L 499.630352 423.693517 
L 500.64693 423.694284 
L 501.663509 423.694993 
L 502.680087 423.695648 
L 503.696666 423.696254 
L 504.713245 423.696814 
L 505.729823 423.697331 
L 506.746402 423.697809 
L 507.762981 423.698251 
L 508.779559 423.698659 
L 509.796138 423.699037 
L 510.812716 423.699386 
L 511.829295 423.699708 
L 512.845874 423.700006 
L 513.862452 423.700281 
L 514.879031 423.700536 
L 515.895609 423.700771 
L 516.912188 423.700988 
L 517.928767 423.701189 
L 518.945345 423.701375 
L 519.961924 423.701547 
L 520.978502 423.701705 
L 521.995081 423.701852 
L 523.01166 423.701987 
L 524.028238 423.702112 
L 525.044817 423.702228 
L 526.061396 423.702335 
L 527.077974 423.702434 
L 528.094553 423.702525 
L 529.111131 423.702609 
L 530.12771 423.702687 
L 531.144289 423.702759 
L 532.160867 423.702826 
L 533.177446 423.702887 
L 534.194024 423.702944 
L 535.210603 423.702997 
L 536.227182 423.703045 
L 537.24376 423.70309 
L 538.260339 423.703132 
L 539.276917 423.70317 
L 540.293496 423.703205 
L 541.310075 423.703238 
L 542.326653 423.703268 
L 543.343232 423.703296 
L 544.359811 423.703322 
L 545.376389 423.703346 
L 546.392968 423.703368 
L 547.409546 423.703388 
L 548.426125 423.703407 
L 549.442704 423.703425 
L 550.459282 423.703441 
L 551.475861 423.703456 
L 552.492439 423.703469 
L 553.509018 423.703482 
L 554.525597 423.703494 
L 555.542175 423.703505 
L 556.558754 423.703515 
L 557.575332 423.703524 
L 558.591911 423.703532 
L 559.60849 423.70354 
L 560.625068 423.703548 
L 561.641647 423.703554 
L 562.658226 423.703561 
L 563.674804 423.703566 
L 564.691383 423.703572 
L 565.707961 423.703577 
L 566.72454 423.703581 
L 567.741119 423.703585 
L 568.757697 423.703589 
L 569.774276 423.703593 
L 570.790854 423.703596 
L 571.807433 423.703599 
L 572.824012 423.703602 
L 573.84059 423.703605 
L 574.857169 423.703607 
L 575.873747 423.703609 
L 576.890326 423.703611 
L 577.906905 423.703613 
L 578.923483 423.703615 
L 579.940062 423.703617 
L 580.956641 423.703618 
L 581.973219 423.703619 
L 582.989798 423.703621 
L 584.006376 423.703622 
L 585.022955 423.703623 
L 586.039534 423.703624 
L 587.056112 423.703625 
L 588.072691 423.703626 
L 589.089269 423.703627 
L 590.105848 423.703627 
L 591.122427 423.703628 
L 592.139005 423.703629 
L 593.155584 423.703629 
L 594.172163 423.70363 
L 595.188741 423.70363 
L 596.20532 423.703631 
L 597.221898 423.703631 
L 598.238477 423.703632 
L 599.255056 423.703632 
L 600.271634 423.703632 
L 601.288213 423.703633 
L 602.304791 423.703633 
L 603.32137 423.703633 
L 604.337949 423.703633 
L 605.354527 423.703634 
L 606.371106 423.703634 
L 607.387684 423.703634 
L 608.404263 423.703634 
L 609.420842 423.703634 
L 610.43742 423.703635 
L 611.453999 423.703635 
L 612.470578 423.703635 
L 613.487156 423.703635 
L 614.503735 423.703635 
L 615.520313 423.703635 
L 616.536892 423.703635 
L 617.553471 423.703635 
L 618.570049 423.703635 
L 619.586628 423.703635 
L 620.603206 423.703636 
L 621.619785 423.703636 
L 622.636364 423.703636 
L 622.636364 423.703636 
L 622.636364 423.703636 
L 621.619785 423.703636 
L 620.603206 423.703636 
L 619.586628 423.703636 
L 618.570049 423.703636 
L 617.553471 423.703636 
L 616.536892 423.703636 
L 615.520313 423.703636 
L 614.503735 423.703636 
L 613.487156 423.703636 
L 612.470578 423.703636 
L 611.453999 423.703636 
L 610.43742 423.703636 
L 609.420842 423.703636 
L 608.404263 423.703636 
L 607.387684 423.703636 
L 606.371106 423.703636 
L 605.354527 423.703636 
L 604.337949 423.703636 
L 603.32137 423.703636 
L 602.304791 423.703636 
L 601.288213 423.703636 
L 600.271634 423.703636 
L 599.255056 423.703636 
L 598.238477 423.703636 
L 597.221898 423.703636 
L 596.20532 423.703636 
L 595.188741 423.703636 
L 594.172163 423.703636 
L 593.155584 423.703636 
L 592.139005 423.703636 
L 591.122427 423.703636 
L 590.105848 423.703636 
L 589.089269 423.703636 
L 588.072691 423.703636 
L 587.056112 423.703636 
L 586.039534 423.703636 
L 585.022955 423.703636 
L 584.006376 423.703636 
L 582.989798 423.703636 
L 581.973219 423.703636 
L 580.956641 423.703636 
L 579.940062 423.703636 
L 578.923483 423.703636 
L 577.906905 423.703636 
L 576.890326 423.703636 
L 575.873747 423.703636 
L 574.857169 423.703636 
L 573.84059 423.703636 
L 572.824012 423.703636 
L 571.807433 423.703636 
L 570.790854 423.703636 
L 569.774276 423.703636 
L 568.757697 423.703636 
L 567.741119 423.703636 
L 566.72454 423.703636 
L 565.707961 423.703636 
L 564.691383 423.703636 
L 563.674804 423.703636 
L 562.658226 423.703636 
L 561.641647 423.703636 
L 560.625068 423.703636 
L 559.60849 423.703636 
L 558.591911 423.703636 
L 557.575332 423.703636 
L 556.558754 423.703636 
L 555.542175 423.703636 
L 554.525597 423.703636 
L 553.509018 423.703636 
L 552.492439 423.703636 
L 551.475861 423.703636 
L 550.459282 423.703636 
L 549.442704 423.703636 
L 548.426125 423.703636 
L 547.409546 423.703636 
L 546.392968 423.703636 
L 545.376389 423.703636 
L 544.359811 423.703636 
L 543.343232 423.703636 
L 542.326653 423.703636 
L 541.310075 423.703636 
L 540.293496 423.703636 
L 539.276917 423.703636 
L 538.260339 423.703636 
L 537.24376 423.703636 
L 536.227182 423.703636 
L 535.210603 423.703636 
L 534.194024 423.703636 
L 533.177446 423.703636 
L 532.160867 423.703636 
L 531.144289 423.703636 
L 530.12771 423.703636 
L 529.111131 423.703636 
L 528.094553 423.703636 
L 527.077974 423.703636 
L 526.061396 423.703636 
L 525.044817 423.703636 
L 524.028238 423.703636 
L 523.01166 423.703636 
L 521.995081 423.703636 
L 520.978502 423.703636 
L 519.961924 423.703636 
L 518.945345 423.703636 
L 517.928767 423.703636 
L 516.912188 423.703636 
L 515.895609 423.703636 
L 514.879031 423.703636 
L 513.862452 423.703636 
L 512.845874 423.703636 
L 511.829295 423.703636 
L 510.812716 423.703636 
L 509.796138 423.703636 
L 508.779559 423.703636 
L 507.762981 423.703636 
L 506.746402 423.703636 
L 505.729823 423.703636 
L 504.713245 423.703636 
L 503.696666 423.703636 
L 502.680087 423.703636 
L 501.663509 423.703636 
L 500.64693 423.703636 
L 499.630352 423.703636 
L 498.613773 423.703636 
L 497.597194 423.703636 
L 496.580616 423.703636 
L 495.564037 423.703636 
L 494.547459 423.703636 
L 493.53088 423.703636 
L 492.514301 423.703636 
L 491.497723 423.703636 
L 490.481144 423.703636 
L 489.464565 423.703636 
L 488.447987 423.703636 
L 487.431408 423.703636 
L 486.41483 423.703636 
L 485.398251 423.703636 
L 484.381672 423.703636 
L 483.365094 423.703636 
L 482.348515 423.703636 
L 481.331937 423.703636 
L 480.315358 423.703636 
L 479.298779 423.703636 
L 478.282201 423.703636 
L 477.265622 423.703636 
L 476.249044 423.703636 
L 475.232465 423.703636 
L 474.215886 423.703636 
L 473.199308 423.703636 
L 472.182729 423.703636 
L 471.16615 423.703636 
L 470.149572 423.703636 
L 469.132993 423.703636 
L 468.116415 423.703636 
L 467.099836 423.703636 
L 466.083257 423.703636 
L 465.066679 423.703636 
L 464.0501 423.703636 
L 463.033522 423.703636 
L 462.016943 423.703636 
L 461.000364 423.703636 
L 459.983786 423.703636 
L 458.967207 423.703636 
L 457.950629 423.703636 
L 456.93405 423.703636 
L 455.917471 423.703636 
L 454.900893 423.703636 
L 453.884314 423.703636 
L 452.867735 423.703636 
L 451.851157 423.703636 
L 450.834578 423.703636 
L 449.818 423.703636 
L 448.801421 423.703636 
L 447.784842 423.703636 
L 446.768264 423.703636 
L 445.751685 423.703636 
L 444.735107 423.703636 
L 443.718528 423.703636 
L 442.701949 423.703636 
L 441.685371 423.703636 
L 440.668792 423.703636 
L 439.652214 423.703636 
L 438.635635 423.703636 
L 437.619056 423.703636 
L 436.602478 423.703636 
L 435.585899 423.703636 
L 434.56932 423.703636 
L 433.552742 423.703636 
L 432.536163 423.703636 
L 431.519585 423.703636 
L 430.503006 423.703636 
L 429.486427 423.703636 
L 428.469849 423.703636 
L 427.45327 423.703636 
L 426.436692 423.703636 
L 425.420113 423.703636 
L 424.403534 423.703636 
L 423.386956 423.703636 
L 422.370377 423.703636 
L 421.353799 423.703636 
L 420.33722 423.703636 
L 419.320641 423.703636 
L 418.304063 423.703636 
L 417.287484 423.703636 
L 416.270905 423.703636 
L 415.254327 423.703636 
L 414.237748 423.703636 
L 413.22117 423.703636 
L 412.204591 423.703636 
L 411.188012 423.703636 
L 410.171434 423.703636 
L 409.154855 423.703636 
L 408.138277 423.703636 
L 407.121698 423.703636 
L 406.105119 423.703636 
L 405.088541 423.703636 
L 404.071962 423.703636 
L 403.055383 423.703636 
L 402.038805 423.703636 
L 401.022226 423.703636 
L 400.005648 423.703636 
L 398.989069 423.703636 
L 397.97249 423.703636 
L 396.955912 423.703636 
L 395.939333 423.703636 
L 394.922755 423.703636 
L 393.906176 423.703636 
L 392.889597 423.703636 
L 391.873019 423.703636 
L 390.85644 423.703636 
L 389.839862 423.703636 
L 388.823283 423.703636 
L 387.806704 423.703636 
L 386.790126 423.703636 
L 385.773547 423.703636 
L 384.756968 423.703636 
L 383.74039 423.703636 
L 382.723811 423.703636 
L 381.707233 423.703636 
L 380.690654 423.703636 
L 379.674075 423.703636 
L 378.657497 423.703636 
L 377.640918 423.703636 
L 376.62434 423.703636 
L 375.607761 423.703636 
L 374.591182 423.703636 
L 373.574604 423.703636 
L 372.558025 423.703636 
L 371.541447 423.703636 
L 370.524868 423.703636 
L 369.508289 423.703636 
L 368.491711 423.703636 
L 367.475132 423.703636 
L 366.458553 423.703636 
L 365.441975 423.703636 
L 364.425396 423.703636 
L 363.408818 423.703636 
L 362.392239 423.703636 
L 361.37566 423.703636 
L 360.359082 423.703636 
L 359.342503 423.703636 
L 358.325925 423.703636 
L 357.309346 423.703636 
L 356.292767 423.703636 
L 355.276189 423.703636 
L 354.25961 423.703636 
L 353.243032 423.703636 
L 352.226453 423.703636 
L 351.209874 423.703636 
L 350.193296 423.703636 
L 349.176717 423.703636 
L 348.160138 423.703636 
L 347.14356 423.703636 
L 346.126981 423.703636 
L 345.110403 423.703636 
L 344.093824 423.703636 
L 343.077245 423.703636 
L 342.060667 423.703636 
L 341.044088 423.703636 
L 340.02751 423.703636 
L 339.010931 423.703636 
L 337.994352 423.703636 
L 336.977774 423.703636 
L 335.961195 423.703636 
L 334.944617 423.703636 
L 333.928038 423.703636 
L 332.911459 423.703636 
L 331.894881 423.703636 
L 330.878302 423.703636 
L 329.861723 423.703636 
L 328.845145 423.703636 
L 327.828566 423.703636 
L 326.811988 423.703636 
L 325.795409 423.703636 
L 324.77883 423.703636 
L 323.762252 423.703636 
L 322.745673 423.703636 
L 321.729095 423.703636 
L 320.712516 423.703636 
L 319.695937 423.703636 
L 318.679359 423.703636 
L 317.66278 423.703636 
L 316.646201 423.703636 
L 315.629623 423.703636 
L 314.613044 423.703636 
L 313.596466 423.703636 
L 312.579887 423.703636 
L 311.563308 423.703636 
L 310.54673 423.703636 
L 309.530151 423.703636 
L 308.513573 423.703636 
L 307.496994 423.703636 
L 306.480415 423.703636 
L 305.463837 423.703636 
L 304.447258 423.703636 
L 303.43068 423.703636 
L 302.414101 423.703636 
L 301.397522 423.703636 
L 300.380944 423.703636 
L 299.364365 423.703636 
L 298.347786 423.703636 
L 297.331208 423.703636 
L 296.314629 423.703636 
L 295.298051 423.703636 
L 294.281472 423.703636 
L 293.264893 423.703636 
L 292.248315 423.703636 
L 291.231736 423.703636 
L 290.215158 423.703636 
L 289.198579 423.703636 
L 288.182 423.703636 
L 287.165422 423.703636 
L 286.148843 423.703636 
L 285.132265 423.703636 
L 284.115686 423.703636 
L 283.099107 423.703636 
L 282.082529 423.703636 
L 281.06595 423.703636 
L 280.049371 423.703636 
L 279.032793 423.703636 
L 278.016214 423.703636 
L 276.999636 423.703636 
L 275.983057 423.703636 
L 274.966478 423.703636 
L 273.9499 423.703636 
L 272.933321 423.703636 
L 271.916743 423.703636 
L 270.900164 423.703636 
L 269.883585 423.703636 
L 268.867007 423.703636 
L 267.850428 423.703636 
L 266.83385 423.703636 
L 265.817271 423.703636 
L 264.800692 423.703636 
L 263.784114 423.703636 
L 262.767535 423.703636 
L 261.750956 423.703636 
L 260.734378 423.703636 
L 259.717799 423.703636 
L 258.701221 423.703636 
L 257.684642 423.703636 
L 256.668063 423.703636 
L 255.651485 423.703636 
L 254.634906 423.703636 
L 253.618328 423.703636 
L 252.601749 423.703636 
L 251.58517 423.703636 
L 250.568592 423.703636 
L 249.552013 423.703636 
L 248.535435 423.703636 
L 247.518856 423.703636 
L 246.502277 423.703636 
L 245.485699 423.703636 
L 244.46912 423.703636 
L 243.452541 423.703636 
L 242.435963 423.703636 
L 241.419384 423.703636 
L 240.402806 423.703636 
L 239.386227 423.703636 
L 238.369648 423.703636 
L 237.35307 423.703636 
L 236.336491 423.703636 
L 235.319913 423.703636 
L 234.303334 423.703636 
L 233.286755 423.703636 
L 232.270177 423.703636 
L 231.253598 423.703636 
L 230.237019 423.703636 
L 229.220441 423.703636 
L 228.203862 423.703636 
L 227.187284 423.703636 
L 226.170705 423.703636 
L 225.154126 423.703636 
L 224.137548 423.703636 
L 223.120969 423.703636 
L 222.104391 423.703636 
L 221.087812 423.703636 
L 220.071233 423.703636 
L 219.054655 423.703636 
L 218.038076 423.703636 
L 217.021498 423.703636 
L 216.004919 423.703636 
L 214.98834 423.703636 
L 213.971762 423.703636 
L 212.955183 423.703636 
L 211.938604 423.703636 
L 210.922026 423.703636 
L 209.905447 423.703636 
L 208.888869 423.703636 
L 207.87229 423.703636 
L 206.855711 423.703636 
L 205.839133 423.703636 
L 204.822554 423.703636 
L 203.805976 423.703636 
L 202.789397 423.703636 
L 201.772818 423.703636 
L 200.75624 423.703636 
L 199.739661 423.703636 
L 198.723083 423.703636 
L 197.706504 423.703636 
L 196.689925 423.703636 
L 195.673347 423.703636 
L 194.656768 423.703636 
L 193.640189 423.703636 
L 192.623611 423.703636 
L 191.607032 423.703636 
L 190.590454 423.703636 
L 189.573875 423.703636 
L 188.557296 423.703636 
L 187.540718 423.703636 
L 186.524139 423.703636 
L 185.507561 423.703636 
L 184.490982 423.703636 
L 183.474403 423.703636 
L 182.457825 423.703636 
L 181.441246 423.703636 
L 180.424668 423.703636 
L 179.408089 423.703636 
L 178.39151 423.703636 
L 177.374932 423.703636 
L 176.358353 423.703636 
L 175.341774 423.703636 
L 174.325196 423.703636 
L 173.308617 423.703636 
L 172.292039 423.703636 
L 171.27546 423.703636 
L 170.258881 423.703636 
L 169.242303 423.703636 
L 168.225724 423.703636 
L 167.209146 423.703636 
L 166.192567 423.703636 
L 165.175988 423.703636 
L 164.15941 423.703636 
L 163.142831 423.703636 
L 162.126253 423.703636 
L 161.109674 423.703636 
L 160.093095 423.703636 
L 159.076517 423.703636 
L 158.059938 423.703636 
L 157.043359 423.703636 
L 156.026781 423.703636 
L 155.010202 423.703636 
L 153.993624 423.703636 
L 152.977045 423.703636 
L 151.960466 423.703636 
L 150.943888 423.703636 
L 149.927309 423.703636 
L 148.910731 423.703636 
L 147.894152 423.703636 
L 146.877573 423.703636 
L 145.860995 423.703636 
L 144.844416 423.703636 
L 143.827837 423.703636 
L 142.811259 423.703636 
L 141.79468 423.703636 
L 140.778102 423.703636 
L 139.761523 423.703636 
L 138.744944 423.703636 
L 137.728366 423.703636 
L 136.711787 423.703636 
L 135.695209 423.703636 
L 134.67863 423.703636 
L 133.662051 423.703636 
L 132.645473 423.703636 
L 131.628894 423.703636 
L 130.612316 423.703636 
L 129.595737 423.703636 
L 128.579158 423.703636 
L 127.56258 423.703636 
L 126.546001 423.703636 
L 125.529422 423.703636 
L 124.512844 423.703636 
L 123.496265 423.703636 
L 122.479687 423.703636 
L 121.463108 423.703636 
L 120.446529 423.703636 
L 119.429951 423.703636 
L 118.413372 423.703636 
L 117.396794 423.703636 
L 116.380215 423.703636 
L 115.363636 423.703636 
z
" style="fill:#ff7f0e;fill-opacity:0.5;"/>
   </g>
   <g id="line2d_1">
    <path clip-path="url(#p6ceeee4a9e)" d="M 115.363636 423.703636 
L 116.380215 408.217805 
L 117.396794 401.803363 
L 118.413372 396.881389 
L 119.429951 392.731973 
L 121.463108 385.771251 
L 123.496265 379.90309 
L 125.529422 374.733137 
L 127.56258 370.059142 
L 130.612316 363.727269 
L 133.662051 358.002817 
L 136.711787 352.738641 
L 139.761523 347.838865 
L 143.827837 341.760318 
L 147.894152 336.102545 
L 151.960466 330.788647 
L 157.043359 324.545933 
L 162.126253 318.673617 
L 167.209146 313.112679 
L 173.308617 306.788172 
L 179.408089 300.788659 
L 186.524139 294.139874 
L 193.640189 287.816016 
L 200.75624 281.773646 
L 208.888869 275.168758 
L 217.021498 268.845321 
L 226.170705 262.026809 
L 235.319913 255.484448 
L 245.485699 248.501453 
L 255.651485 241.786306 
L 266.83385 234.674973 
L 278.016214 227.82164 
L 290.215158 220.60886 
L 302.414101 213.643597 
L 315.629623 206.349633 
L 329.861723 198.75894 
L 344.093824 191.416164 
L 359.342503 183.798166 
L 375.607761 175.930332 
L 391.873019 168.30476 
L 409.154855 160.4445 
L 427.45327 152.369948 
L 446.768264 144.099669 
L 466.083257 136.067082 
L 486.41483 127.847241 
L 507.762981 119.455321 
L 530.12771 110.905172 
L 553.509018 102.209419 
L 577.906905 93.379561 
L 603.32137 84.426066 
L 622.636364 77.776364 
L 622.636364 77.776364 
" style="fill:none;stroke:#1f77b4;stroke-dasharray:5.55,2.4;stroke-dashoffset:0;stroke-width:1.5;"/>
   </g>
   <g id="line2d_2">
    <path clip-path="url(#p6ceeee4a9e)" d="M 115.363636 423.703636 
L 116.380215 408.217805 
L 117.396794 401.803363 
L 118.413372 396.881389 
L 119.429951 392.731973 
L 121.463108 385.771251 
L 123.496265 379.903091 
L 125.529422 374.733138 
L 127.56258 370.059143 
L 130.612316 363.727269 
L 133.662051 358.002818 
L 136.711787 352.738642 
L 139.761523 347.838866 
L 143.827837 341.76032 
L 147.894152 336.102547 
L 151.960466 330.788651 
L 157.043359 324.545939 
L 162.126253 318.673626 
L 167.209146 313.112692 
L 173.308617 306.788196 
L 179.408089 300.788699 
L 186.524139 294.139947 
L 193.640189 287.81615 
L 200.75624 281.773892 
L 208.888869 275.169247 
L 217.021498 268.846288 
L 226.170705 262.028885 
L 235.319913 255.488893 
L 245.485699 248.511773 
L 255.651485 241.810193 
L 265.817271 235.365496 
L 275.983057 229.176685 
L 285.132265 223.850891 
L 293.264893 219.366254 
L 299.364365 216.218706 
L 304.447258 213.797426 
L 309.530151 211.634609 
L 313.596466 210.160763 
L 316.646201 209.253663 
L 319.695937 208.562513 
L 322.745673 208.139651 
L 324.77883 208.038064 
L 326.811988 208.106556 
L 328.845145 208.37061 
L 330.878302 208.858901 
L 332.911459 209.603409 
L 334.944617 210.63943 
L 336.977774 212.005426 
L 339.010931 213.74266 
L 341.044088 215.894553 
L 343.077245 218.505699 
L 345.110403 221.620476 
L 347.14356 225.281191 
L 349.176717 229.525781 
L 351.209874 234.385065 
L 353.243032 239.879689 
L 355.276189 246.016931 
L 357.309346 252.787667 
L 359.342503 260.163841 
L 362.392239 272.251211 
L 365.441975 285.335548 
L 370.524868 308.398909 
L 375.607761 331.381174 
L 378.657497 344.372723 
L 381.707233 356.389475 
L 384.756968 367.234294 
L 386.790126 373.760695 
L 388.823283 379.71355 
L 390.85644 385.100326 
L 392.889597 389.940142 
L 394.922755 394.260836 
L 396.955912 398.096245 
L 398.989069 401.483824 
L 401.022226 404.462675 
L 403.055383 407.071994 
L 405.088541 409.349912 
L 407.121698 411.332679 
L 409.154855 413.054139 
L 411.188012 414.545428 
L 413.22117 415.834855 
L 416.270905 417.445508 
L 419.320641 418.733359 
L 422.370377 419.760558 
L 425.420113 420.578244 
L 429.486427 421.413506 
L 433.552742 422.027136 
L 438.635635 422.56952 
L 444.735107 422.994844 
L 452.867735 423.325339 
L 464.0501 423.544303 
L 483.365094 423.667929 
L 538.260339 423.703132 
L 622.636364 423.703636 
L 622.636364 423.703636 
" style="fill:none;stroke:#ff7f0e;stroke-linecap:square;stroke-width:1.5;"/>
   </g>
   <g id="line2d_3">
    <path clip-path="url(#p6ceeee4a9e)" d="M 325.881818 179.096116 
L 412.118182 423.703636 
" style="fill:none;stroke:#000000;stroke-dasharray:5.55,2.4;stroke-dashoffset:0;stroke-width:1.5;"/>
   </g>
   <g id="text_1">
    <!-- $g()\propto \sqrt{}$ -->
    <g transform="translate(510.625455 81.253108)scale(0.16 -0.16)">
     <defs>
      <path d="M 59.625 54.6875 
L 50.296875 6.78125 
Q 47.609375 -7.125 40.015625 -13.953125 
Q 32.421875 -20.796875 19.578125 -20.796875 
Q 14.84375 -20.796875 10.78125 -20.09375 
Q 6.734375 -19.390625 3.21875 -17.921875 
L 4.890625 -9.1875 
Q 8.203125 -11.328125 11.90625 -12.34375 
Q 15.625 -13.375 19.828125 -13.375 
Q 28.375 -13.375 33.859375 -8.703125 
Q 39.359375 -4.046875 41.109375 4.6875 
L 41.890625 8.796875 
Q 38.140625 4.5 33.15625 2.25 
Q 28.171875 0 22.40625 0 
Q 14.109375 0 9.34375 5.484375 
Q 4.59375 10.984375 4.59375 20.609375 
Q 4.59375 28.171875 7.46875 35.421875 
Q 10.359375 42.671875 15.578125 48.296875 
Q 19.046875 52 23.65625 54 
Q 28.265625 56 33.296875 56 
Q 38.8125 56 42.90625 53.4375 
Q 47.015625 50.875 49.03125 46.1875 
L 50.59375 54.6875 
z
M 46.09375 34.625 
Q 46.09375 41.265625 42.96875 44.875 
Q 39.84375 48.484375 34.078125 48.484375 
Q 30.515625 48.484375 27.296875 47.0625 
Q 24.078125 45.65625 21.78125 43.109375 
Q 18.0625 38.921875 15.984375 33.234375 
Q 13.921875 27.546875 13.921875 21.484375 
Q 13.921875 14.75 17.0625 11.125 
Q 20.21875 7.515625 26.125 7.515625 
Q 34.671875 7.515625 40.375 15.25 
Q 46.09375 23 46.09375 34.625 
z
" id="DejaVuSans-Oblique-103"/>
      <path d="M 31 75.875 
Q 24.46875 64.65625 21.28125 53.65625 
Q 18.109375 42.671875 18.109375 31.390625 
Q 18.109375 20.125 21.3125 9.0625 
Q 24.515625 -2 31 -13.1875 
L 23.1875 -13.1875 
Q 15.875 -1.703125 12.234375 9.375 
Q 8.59375 20.453125 8.59375 31.390625 
Q 8.59375 42.28125 12.203125 53.3125 
Q 15.828125 64.359375 23.1875 75.875 
z
" id="DejaVuSans-40"/>
      <path d="M 19.734375 29.5 
Q 14.453125 30.671875 12.15625 33.84375 
Q 10.453125 36.078125 10.453125 39.109375 
Q 10.453125 47.40625 18.359375 52.25 
Q 24.609375 56.0625 34.1875 56.0625 
Q 37.890625 56.0625 41.9375 55.46875 
Q 46 54.890625 50.53125 53.71875 
L 48.96875 45.5625 
Q 44.484375 46.96875 40.71875 47.609375 
Q 36.859375 48.25 33.40625 48.25 
Q 27.59375 48.25 23.78125 46 
Q 19.1875 43.3125 19.1875 39.40625 
Q 19.1875 36.8125 21.578125 35.015625 
Q 24.421875 32.859375 30.078125 32.859375 
L 37.640625 32.859375 
L 36.234375 25.4375 
L 29 25.4375 
Q 22.265625 25.4375 18.3125 22.953125 
Q 12.9375 19.578125 12.9375 14.3125 
Q 12.9375 10.984375 15.828125 8.796875 
Q 19.4375 6.0625 26.8125 6.0625 
Q 31.34375 6.0625 35.6875 6.9375 
Q 40.046875 7.859375 43.84375 9.671875 
L 42.1875 1.3125 
Q 37.546875 -0.046875 33.296875 -0.734375 
Q 29.046875 -1.421875 25.140625 -1.421875 
Q 13.53125 -1.421875 8.0625 3.03125 
Q 3.90625 6.453125 3.90625 12.203125 
Q 3.90625 19.96875 9.375 24.75 
Q 13.421875 28.328125 19.734375 29.5 
z
" id="DejaVuSans-Oblique-949"/>
      <path d="M 8.015625 75.875 
L 15.828125 75.875 
Q 23.140625 64.359375 26.78125 53.3125 
Q 30.421875 42.28125 30.421875 31.390625 
Q 30.421875 20.453125 26.78125 9.375 
Q 23.140625 -1.703125 15.828125 -13.1875 
L 8.015625 -13.1875 
Q 14.5 -2 17.703125 9.0625 
Q 20.90625 20.125 20.90625 31.390625 
Q 20.90625 42.671875 17.703125 53.65625 
Q 14.5 64.65625 8.015625 75.875 
z
" id="DejaVuSans-41"/>
      <path d="M 25.734375 17.71875 
Q 33.796875 17.71875 38.625 29.4375 
Q 32.421875 42.234375 25.734375 42.234375 
Q 20.84375 42.234375 18.359375 38.71875 
Q 15.71875 34.96875 15.71875 29.984375 
Q 15.71875 24.515625 18.359375 21.140625 
Q 21.09375 17.71875 25.734375 17.71875 
z
M 60.6875 17.625 
L 60.6875 11.1875 
L 56.9375 11.1875 
Q 53.375 11.1875 50.734375 12.640625 
Q 48.09375 13.96875 45.5625 17.046875 
Q 44.046875 18.796875 41.65625 22.90625 
Q 38.375 17.046875 35.5 14.453125 
Q 31.9375 11.328125 26.265625 11.328125 
Q 19.671875 11.328125 15.328125 16.265625 
Q 10.75 21.4375 10.75 29.984375 
Q 10.75 38.1875 15.328125 43.75 
Q 19.390625 48.6875 26.375 48.6875 
Q 29.9375 48.6875 32.5625 47.21875 
Q 35.640625 45.609375 37.75 42.828125 
Q 39.703125 40.328125 41.65625 36.96875 
Q 44.921875 42.828125 47.796875 45.40625 
Q 51.375 48.53125 57.03125 48.53125 
L 60.6875 48.53125 
L 60.6875 42.140625 
L 57.5625 42.140625 
Q 50.34375 42.140625 44.671875 30.421875 
Q 50.875 17.625 57.5625 17.625 
z
" id="DejaVuSans-8733"/>
      <path d="M 54.5 81.109375 
L 63.71875 81.109375 
L 63.71875 76.421875 
L 58.109375 76.421875 
L 29.109375 -2 
L 25.875 -2 
L 10.296875 41.109375 
L 4.203125 38.921875 
L 2.984375 42.828125 
L 16.796875 47.609375 
L 29.296875 12.984375 
z
" id="DejaVuSans-8730"/>
     </defs>
     <use transform="translate(0 0.890625)" xlink:href="#DejaVuSans-Oblique-103"/>
     <use transform="translate(63.476562 0.890625)" xlink:href="#DejaVuSans-40"/>
     <use transform="translate(102.490234 0.890625)" xlink:href="#DejaVuSans-Oblique-949"/>
     <use transform="translate(156.542969 0.890625)" xlink:href="#DejaVuSans-41"/>
     <use transform="translate(215.039062 0.890625)" xlink:href="#DejaVuSans-8733"/>
     <use transform="translate(305.957031 0.890625)" xlink:href="#DejaVuSans-8730"/>
     <use transform="translate(382.177734 0.6875)" xlink:href="#DejaVuSans-Oblique-949"/>
     <path d="M 369.677734 75.5 
L 369.677734 81.75 
L 448.730469 81.75 
L 448.730469 75.5 
L 369.677734 75.5 
z
"/>
    </g>
   </g>
   <g id="patch_2">
    <path d="M 326.999852 179.096116 
Q 347.440909 179.096116 367.881966 179.096116 
" style="fill:none;stroke:#000000;stroke-linecap:round;"/>
    <path d="M 333.399852 182.296116 
L 326.999852 179.096116 
L 333.399852 175.896116 
" style="fill:none;stroke:#000000;stroke-linecap:round;"/>
    <path d="M 361.481966 175.896116 
L 367.881966 179.096116 
L 361.481966 182.296116 
" style="fill:none;stroke:#000000;stroke-linecap:round;"/>
   </g>
   <g id="text_2">
    <!-- $\sim k_BT$ -->
    <g transform="translate(324.000909 154.635364)scale(0.16 -0.16)">
     <defs>
      <path d="M 73.1875 39.9375 
L 73.1875 31.203125 
Q 68.0625 27.390625 63.6875 25.703125 
Q 59.328125 24.03125 54.59375 24.03125 
Q 49.21875 24.03125 42.09375 26.90625 
Q 41.609375 27.09375 41.265625 27.25 
Q 40.96875 27.34375 40.234375 27.640625 
Q 32.671875 30.609375 28.078125 30.609375 
Q 23.78125 30.609375 19.578125 28.75 
Q 15.375 26.90625 10.59375 22.796875 
L 10.59375 31.546875 
Q 15.71875 35.359375 20.09375 37.03125 
Q 24.46875 38.71875 29.203125 38.71875 
Q 34.578125 38.71875 41.75 35.84375 
Q 42.28125 35.59375 42.53125 35.5 
Q 42.828125 35.40625 43.5625 35.109375 
Q 51.125 32.125 55.71875 32.125 
Q 59.90625 32.125 64.03125 33.953125 
Q 68.171875 35.796875 73.1875 39.9375 
z
" id="DejaVuSans-8764"/>
      <path d="M 18.3125 75.984375 
L 27.296875 75.984375 
L 18.703125 31.6875 
L 49.515625 54.6875 
L 61.1875 54.6875 
L 26.8125 28.515625 
L 51.90625 0 
L 41.015625 0 
L 17.671875 26.703125 
L 12.5 0 
L 3.515625 0 
z
" id="DejaVuSans-Oblique-107"/>
      <path d="M 16.890625 72.90625 
L 42.09375 72.90625 
Q 52.34375 72.90625 57.421875 69.09375 
Q 62.5 65.28125 62.5 57.625 
Q 62.5 50.59375 58.125 45.484375 
Q 53.765625 40.375 46.6875 39.3125 
Q 52.734375 37.9375 55.765625 34.078125 
Q 58.796875 30.21875 58.796875 23.78125 
Q 58.796875 12.796875 50.65625 6.390625 
Q 42.53125 0 28.421875 0 
L 2.6875 0 
z
M 19.28125 34.8125 
L 14.109375 8.109375 
L 29.984375 8.109375 
Q 38.921875 8.109375 43.75 12.203125 
Q 48.578125 16.3125 48.578125 23.78125 
Q 48.578125 29.546875 45.375 32.171875 
Q 42.1875 34.8125 35.109375 34.8125 
z
M 25.09375 64.796875 
L 20.796875 42.828125 
L 35.5 42.828125 
Q 43.359375 42.828125 47.78125 46.234375 
Q 52.203125 49.65625 52.203125 55.71875 
Q 52.203125 60.453125 49.21875 62.625 
Q 46.234375 64.796875 39.703125 64.796875 
z
" id="DejaVuSans-Oblique-66"/>
      <path d="M 5.90625 72.90625 
L 67.578125 72.90625 
L 66.015625 64.59375 
L 39.984375 64.59375 
L 27.484375 0 
L 17.578125 0 
L 30.078125 64.59375 
L 4.296875 64.59375 
z
" id="DejaVuSans-Oblique-84"/>
     </defs>
     <use transform="translate(19.482422 0.015625)" xlink:href="#DejaVuSans-8764"/>
     <use transform="translate(122.753906 0.015625)" xlink:href="#DejaVuSans-Oblique-107"/>
     <use transform="translate(180.664062 -16.390625)scale(0.7)" xlink:href="#DejaVuSans-Oblique-66"/>
     <use transform="translate(231.420898 0.015625)" xlink:href="#DejaVuSans-Oblique-84"/>
    </g>
   </g>
   <g id="patch_3">
    <path d="M 369 180.21415 
Q 369 301.399876 369 422.585602 
" style="fill:none;stroke:#000000;stroke-linecap:round;"/>
    <path d="M 365.8 186.61415 
L 369 180.21415 
L 372.2 186.61415 
" style="fill:none;stroke:#000000;stroke-linecap:round;"/>
    <path d="M 372.2 416.185602 
L 369 422.585602 
L 365.8 416.185602 
" style="fill:none;stroke:#000000;stroke-linecap:round;"/>
   </g>
   <g id="text_3">
    <!-- $g(_F)$ -->
    <g transform="translate(400.607273 252.478372)scale(0.16 -0.16)">
     <defs>
      <path d="M 16.890625 72.90625 
L 58.6875 72.90625 
L 57.078125 64.59375 
L 25.09375 64.59375 
L 20.90625 43.109375 
L 49.8125 43.109375 
L 48.1875 34.8125 
L 19.28125 34.8125 
L 12.5 0 
L 2.6875 0 
z
" id="DejaVuSans-Oblique-70"/>
     </defs>
     <use transform="translate(0 0.125)" xlink:href="#DejaVuSans-Oblique-103"/>
     <use transform="translate(63.476562 0.125)" xlink:href="#DejaVuSans-40"/>
     <use transform="translate(102.490234 0.125)" xlink:href="#DejaVuSans-Oblique-949"/>
     <use transform="translate(156.542969 -16.28125)scale(0.7)" xlink:href="#DejaVuSans-Oblique-70"/>
     <use transform="translate(199.541016 0.125)" xlink:href="#DejaVuSans-41"/>
    </g>
   </g>
   <g id="patch_4">
    <path d="M 642.886462 423.703636 
Q 368.001867 423.703636 91.999238 423.703636 
" style="fill:none;stroke:#000000;stroke-linecap:round;"/>
    <path d="M 636.486462 420.503636 
L 642.886462 423.703636 
L 636.486462 426.903636 
" style="fill:none;stroke:#000000;stroke-linecap:round;"/>
   </g>
   <g id="text_4">
    <!-- $$ -->
    <g transform="translate(648 428.118636)scale(0.16 -0.16)">
     <use transform="translate(0 0.9375)" xlink:href="#DejaVuSans-Oblique-949"/>
    </g>
   </g>
   <g id="patch_5">
    <path d="M 115.363636 68.957425 
Q 115.363636 253.418979 115.363636 438.998566 
" style="fill:none;stroke:#000000;stroke-linecap:round;"/>
    <path d="M 112.163636 75.357425 
L 115.363636 68.957425 
L 118.563636 75.357425 
" style="fill:none;stroke:#000000;stroke-linecap:round;"/>
   </g>
   <g id="text_5">
    <!-- $g()$ -->
    <g transform="translate(99.683636 60.48)scale(0.16 -0.16)">
     <use transform="translate(0 0.125)" xlink:href="#DejaVuSans-Oblique-103"/>
     <use transform="translate(63.476562 0.125)" xlink:href="#DejaVuSans-40"/>
     <use transform="translate(102.490234 0.125)" xlink:href="#DejaVuSans-Oblique-949"/>
     <use transform="translate(156.542969 0.125)" xlink:href="#DejaVuSans-41"/>
    </g>
   </g>
   <g id="text_6">
    <!-- $_F$ -->
    <g transform="translate(361.16 469.29764)scale(0.16 -0.16)">
     <use transform="translate(0 0.9375)" xlink:href="#DejaVuSans-Oblique-949"/>
     <use transform="translate(54.052734 -15.46875)scale(0.7)" xlink:href="#DejaVuSans-Oblique-70"/>
    </g>
   </g>
  </g>
 </g>
 <defs>
  <clipPath id="p6ceeee4a9e">
   <rect height="380.52" width="558" x="90" y="60.48"/>
  </clipPath>
 </defs>
</svg>
