<?xml version="1.0" encoding="utf-8" standalone="no"?>
<!DOCTYPE svg PUBLIC "-//W3C//DTD SVG 1.1//EN"
  "http://www.w3.org/Graphics/SVG/1.1/DTD/svg11.dtd">
<!-- Created with matplotlib (https://matplotlib.org/) -->
<svg height="720pt" version="1.1" viewBox="0 0 720 720" width="720pt" xmlns="http://www.w3.org/2000/svg" xmlns:xlink="http://www.w3.org/1999/xlink">
 <metadata>
  <rdf:RDF xmlns:cc="http://creativecommons.org/ns#" xmlns:dc="http://purl.org/dc/elements/1.1/" xmlns:rdf="http://www.w3.org/1999/02/22-rdf-syntax-ns#">
   <cc:Work>
    <dc:type rdf:resource="http://purl.org/dc/dcmitype/StillImage"/>
    <dc:date>2021-08-14T14:11:28.867850</dc:date>
    <dc:format>image/svg+xml</dc:format>
    <dc:creator>
     <cc:Agent>
      <dc:title>Matplotlib v3.3.2, https://matplotlib.org/</dc:title>
     </cc:Agent>
    </dc:creator>
   </cc:Work>
  </rdf:RDF>
 </metadata>
 <defs>
  <style type="text/css">*{stroke-linecap:butt;stroke-linejoin:round;}</style>
 </defs>
 <g id="figure_1">
  <g id="patch_1">
   <path d="M 0 720 
L 720 720 
L 720 0 
L 0 0 
z
" style="fill:#ffffff;"/>
  </g>
  <g id="axes_1">
   <g id="PathCollection_1">
    <defs>
     <path d="M 0 3 
C 0.795609 3 1.55874 2.683901 2.12132 2.12132 
C 2.683901 1.55874 3 0.795609 3 0 
C 3 -0.795609 2.683901 -1.55874 2.12132 -2.12132 
C 1.55874 -2.683901 0.795609 -3 0 -3 
C -0.795609 -3 -1.55874 -2.683901 -2.12132 -2.12132 
C -2.683901 -1.55874 -3 -0.795609 -3 0 
C -3 0.795609 -2.683901 1.55874 -2.12132 2.12132 
C -1.55874 2.683901 -0.795609 3 0 3 
z
" id="m307409c813" style="stroke:#000000;"/>
    </defs>
    <g clip-path="url(#p71489b5cd9)">
     <use style="stroke:#000000;" x="369" xlink:href="#m307409c813" y="521.28"/>
     <use style="stroke:#000000;" x="257.4" xlink:href="#m307409c813" y="466.92"/>
     <use style="stroke:#000000;" x="313.2" xlink:href="#m307409c813" y="466.92"/>
     <use style="stroke:#000000;" x="369" xlink:href="#m307409c813" y="466.92"/>
     <use style="stroke:#000000;" x="424.8" xlink:href="#m307409c813" y="466.92"/>
     <use style="stroke:#000000;" x="480.6" xlink:href="#m307409c813" y="466.92"/>
     <use style="stroke:#000000;" x="257.4" xlink:href="#m307409c813" y="412.56"/>
     <use style="stroke:#000000;" x="313.2" xlink:href="#m307409c813" y="412.56"/>
     <use style="stroke:#000000;" x="369" xlink:href="#m307409c813" y="412.56"/>
     <use style="stroke:#000000;" x="424.8" xlink:href="#m307409c813" y="412.56"/>
     <use style="stroke:#000000;" x="480.6" xlink:href="#m307409c813" y="412.56"/>
     <use style="stroke:#000000;" x="201.6" xlink:href="#m307409c813" y="358.2"/>
     <use style="stroke:#000000;" x="257.4" xlink:href="#m307409c813" y="358.2"/>
     <use style="stroke:#000000;" x="313.2" xlink:href="#m307409c813" y="358.2"/>
     <use style="stroke:#000000;" x="369" xlink:href="#m307409c813" y="358.2"/>
     <use style="stroke:#000000;" x="424.8" xlink:href="#m307409c813" y="358.2"/>
     <use style="stroke:#000000;" x="480.6" xlink:href="#m307409c813" y="358.2"/>
     <use style="stroke:#000000;" x="536.4" xlink:href="#m307409c813" y="358.2"/>
     <use style="stroke:#000000;" x="257.4" xlink:href="#m307409c813" y="303.84"/>
     <use style="stroke:#000000;" x="313.2" xlink:href="#m307409c813" y="303.84"/>
     <use style="stroke:#000000;" x="369" xlink:href="#m307409c813" y="303.84"/>
     <use style="stroke:#000000;" x="424.8" xlink:href="#m307409c813" y="303.84"/>
     <use style="stroke:#000000;" x="480.6" xlink:href="#m307409c813" y="303.84"/>
     <use style="stroke:#000000;" x="257.4" xlink:href="#m307409c813" y="249.48"/>
     <use style="stroke:#000000;" x="313.2" xlink:href="#m307409c813" y="249.48"/>
     <use style="stroke:#000000;" x="369" xlink:href="#m307409c813" y="249.48"/>
     <use style="stroke:#000000;" x="424.8" xlink:href="#m307409c813" y="249.48"/>
     <use style="stroke:#000000;" x="480.6" xlink:href="#m307409c813" y="249.48"/>
     <use style="stroke:#000000;" x="369" xlink:href="#m307409c813" y="195.12"/>
    </g>
   </g>
   <g id="PathCollection_2">
    <defs>
     <path d="M 0 3 
C 0.795609 3 1.55874 2.683901 2.12132 2.12132 
C 2.683901 1.55874 3 0.795609 3 -0 
C 3 -0.795609 2.683901 -1.55874 2.12132 -2.12132 
C 1.55874 -2.683901 0.795609 -3 0 -3 
C -0.795609 -3 -1.55874 -2.683901 -2.12132 -2.12132 
C -2.683901 -1.55874 -3 -0.795609 -3 0 
C -3 0.795609 -2.683901 1.55874 -2.12132 2.12132 
C -1.55874 2.683901 -0.795609 3 0 3 
z
" id="C0_0_d547cac98f"/>
    </defs>
    <g clip-path="url(#p71489b5cd9)">
     <use style="fill:none;stroke:#000000;" x="90" xlink:href="#C0_0_d547cac98f" y="630"/>
    </g>
    <g clip-path="url(#p71489b5cd9)">
     <use style="fill:none;stroke:#000000;" x="145.8" xlink:href="#C0_0_d547cac98f" y="630"/>
    </g>
    <g clip-path="url(#p71489b5cd9)">
     <use style="fill:none;stroke:#000000;" x="201.6" xlink:href="#C0_0_d547cac98f" y="630"/>
    </g>
    <g clip-path="url(#p71489b5cd9)">
     <use style="fill:none;stroke:#000000;" x="257.4" xlink:href="#C0_0_d547cac98f" y="630"/>
    </g>
    <g clip-path="url(#p71489b5cd9)">
     <use style="fill:none;stroke:#000000;" x="313.2" xlink:href="#C0_0_d547cac98f" y="630"/>
    </g>
    <g clip-path="url(#p71489b5cd9)">
     <use style="fill:none;stroke:#000000;" x="369" xlink:href="#C0_0_d547cac98f" y="630"/>
    </g>
    <g clip-path="url(#p71489b5cd9)">
     <use style="fill:none;stroke:#000000;" x="424.8" xlink:href="#C0_0_d547cac98f" y="630"/>
    </g>
    <g clip-path="url(#p71489b5cd9)">
     <use style="fill:none;stroke:#000000;" x="480.6" xlink:href="#C0_0_d547cac98f" y="630"/>
    </g>
    <g clip-path="url(#p71489b5cd9)">
     <use style="fill:none;stroke:#000000;" x="536.4" xlink:href="#C0_0_d547cac98f" y="630"/>
    </g>
    <g clip-path="url(#p71489b5cd9)">
     <use style="fill:none;stroke:#000000;" x="592.2" xlink:href="#C0_0_d547cac98f" y="630"/>
    </g>
    <g clip-path="url(#p71489b5cd9)">
     <use style="fill:none;stroke:#000000;" x="648" xlink:href="#C0_0_d547cac98f" y="630"/>
    </g>
    <g clip-path="url(#p71489b5cd9)">
     <use style="fill:none;stroke:#000000;" x="90" xlink:href="#C0_0_d547cac98f" y="575.64"/>
    </g>
    <g clip-path="url(#p71489b5cd9)">
     <use style="fill:none;stroke:#000000;" x="145.8" xlink:href="#C0_0_d547cac98f" y="575.64"/>
    </g>
    <g clip-path="url(#p71489b5cd9)">
     <use style="fill:none;stroke:#000000;" x="201.6" xlink:href="#C0_0_d547cac98f" y="575.64"/>
    </g>
    <g clip-path="url(#p71489b5cd9)">
     <use style="fill:none;stroke:#000000;" x="257.4" xlink:href="#C0_0_d547cac98f" y="575.64"/>
    </g>
    <g clip-path="url(#p71489b5cd9)">
     <use style="fill:none;stroke:#000000;" x="313.2" xlink:href="#C0_0_d547cac98f" y="575.64"/>
    </g>
    <g clip-path="url(#p71489b5cd9)">
     <use style="fill:none;stroke:#000000;" x="369" xlink:href="#C0_0_d547cac98f" y="575.64"/>
    </g>
    <g clip-path="url(#p71489b5cd9)">
     <use style="fill:none;stroke:#000000;" x="424.8" xlink:href="#C0_0_d547cac98f" y="575.64"/>
    </g>
    <g clip-path="url(#p71489b5cd9)">
     <use style="fill:none;stroke:#000000;" x="480.6" xlink:href="#C0_0_d547cac98f" y="575.64"/>
    </g>
    <g clip-path="url(#p71489b5cd9)">
     <use style="fill:none;stroke:#000000;" x="536.4" xlink:href="#C0_0_d547cac98f" y="575.64"/>
    </g>
    <g clip-path="url(#p71489b5cd9)">
     <use style="fill:none;stroke:#000000;" x="592.2" xlink:href="#C0_0_d547cac98f" y="575.64"/>
    </g>
    <g clip-path="url(#p71489b5cd9)">
     <use style="fill:none;stroke:#000000;" x="648" xlink:href="#C0_0_d547cac98f" y="575.64"/>
    </g>
    <g clip-path="url(#p71489b5cd9)">
     <use style="fill:none;stroke:#000000;" x="90" xlink:href="#C0_0_d547cac98f" y="521.28"/>
    </g>
    <g clip-path="url(#p71489b5cd9)">
     <use style="fill:none;stroke:#000000;" x="145.8" xlink:href="#C0_0_d547cac98f" y="521.28"/>
    </g>
    <g clip-path="url(#p71489b5cd9)">
     <use style="fill:none;stroke:#000000;" x="201.6" xlink:href="#C0_0_d547cac98f" y="521.28"/>
    </g>
    <g clip-path="url(#p71489b5cd9)">
     <use style="fill:none;stroke:#000000;" x="257.4" xlink:href="#C0_0_d547cac98f" y="521.28"/>
    </g>
    <g clip-path="url(#p71489b5cd9)">
     <use style="fill:none;stroke:#000000;" x="313.2" xlink:href="#C0_0_d547cac98f" y="521.28"/>
    </g>
    <g clip-path="url(#p71489b5cd9)">
     <use style="fill:none;stroke:#000000;" x="424.8" xlink:href="#C0_0_d547cac98f" y="521.28"/>
    </g>
    <g clip-path="url(#p71489b5cd9)">
     <use style="fill:none;stroke:#000000;" x="480.6" xlink:href="#C0_0_d547cac98f" y="521.28"/>
    </g>
    <g clip-path="url(#p71489b5cd9)">
     <use style="fill:none;stroke:#000000;" x="536.4" xlink:href="#C0_0_d547cac98f" y="521.28"/>
    </g>
    <g clip-path="url(#p71489b5cd9)">
     <use style="fill:none;stroke:#000000;" x="592.2" xlink:href="#C0_0_d547cac98f" y="521.28"/>
    </g>
    <g clip-path="url(#p71489b5cd9)">
     <use style="fill:none;stroke:#000000;" x="648" xlink:href="#C0_0_d547cac98f" y="521.28"/>
    </g>
    <g clip-path="url(#p71489b5cd9)">
     <use style="fill:none;stroke:#000000;" x="90" xlink:href="#C0_0_d547cac98f" y="466.92"/>
    </g>
    <g clip-path="url(#p71489b5cd9)">
     <use style="fill:none;stroke:#000000;" x="145.8" xlink:href="#C0_0_d547cac98f" y="466.92"/>
    </g>
    <g clip-path="url(#p71489b5cd9)">
     <use style="fill:none;stroke:#000000;" x="201.6" xlink:href="#C0_0_d547cac98f" y="466.92"/>
    </g>
    <g clip-path="url(#p71489b5cd9)">
     <use style="fill:none;stroke:#000000;" x="536.4" xlink:href="#C0_0_d547cac98f" y="466.92"/>
    </g>
    <g clip-path="url(#p71489b5cd9)">
     <use style="fill:none;stroke:#000000;" x="592.2" xlink:href="#C0_0_d547cac98f" y="466.92"/>
    </g>
    <g clip-path="url(#p71489b5cd9)">
     <use style="fill:none;stroke:#000000;" x="648" xlink:href="#C0_0_d547cac98f" y="466.92"/>
    </g>
    <g clip-path="url(#p71489b5cd9)">
     <use style="fill:none;stroke:#000000;" x="90" xlink:href="#C0_0_d547cac98f" y="412.56"/>
    </g>
    <g clip-path="url(#p71489b5cd9)">
     <use style="fill:none;stroke:#000000;" x="145.8" xlink:href="#C0_0_d547cac98f" y="412.56"/>
    </g>
    <g clip-path="url(#p71489b5cd9)">
     <use style="fill:none;stroke:#000000;" x="201.6" xlink:href="#C0_0_d547cac98f" y="412.56"/>
    </g>
    <g clip-path="url(#p71489b5cd9)">
     <use style="fill:none;stroke:#000000;" x="536.4" xlink:href="#C0_0_d547cac98f" y="412.56"/>
    </g>
    <g clip-path="url(#p71489b5cd9)">
     <use style="fill:none;stroke:#000000;" x="592.2" xlink:href="#C0_0_d547cac98f" y="412.56"/>
    </g>
    <g clip-path="url(#p71489b5cd9)">
     <use style="fill:none;stroke:#000000;" x="648" xlink:href="#C0_0_d547cac98f" y="412.56"/>
    </g>
    <g clip-path="url(#p71489b5cd9)">
     <use style="fill:none;stroke:#000000;" x="90" xlink:href="#C0_0_d547cac98f" y="358.2"/>
    </g>
    <g clip-path="url(#p71489b5cd9)">
     <use style="fill:none;stroke:#000000;" x="145.8" xlink:href="#C0_0_d547cac98f" y="358.2"/>
    </g>
    <g clip-path="url(#p71489b5cd9)">
     <use style="fill:none;stroke:#000000;" x="592.2" xlink:href="#C0_0_d547cac98f" y="358.2"/>
    </g>
    <g clip-path="url(#p71489b5cd9)">
     <use style="fill:none;stroke:#000000;" x="648" xlink:href="#C0_0_d547cac98f" y="358.2"/>
    </g>
    <g clip-path="url(#p71489b5cd9)">
     <use style="fill:none;stroke:#000000;" x="90" xlink:href="#C0_0_d547cac98f" y="303.84"/>
    </g>
    <g clip-path="url(#p71489b5cd9)">
     <use style="fill:none;stroke:#000000;" x="145.8" xlink:href="#C0_0_d547cac98f" y="303.84"/>
    </g>
    <g clip-path="url(#p71489b5cd9)">
     <use style="fill:none;stroke:#000000;" x="201.6" xlink:href="#C0_0_d547cac98f" y="303.84"/>
    </g>
    <g clip-path="url(#p71489b5cd9)">
     <use style="fill:none;stroke:#000000;" x="536.4" xlink:href="#C0_0_d547cac98f" y="303.84"/>
    </g>
    <g clip-path="url(#p71489b5cd9)">
     <use style="fill:none;stroke:#000000;" x="592.2" xlink:href="#C0_0_d547cac98f" y="303.84"/>
    </g>
    <g clip-path="url(#p71489b5cd9)">
     <use style="fill:none;stroke:#000000;" x="648" xlink:href="#C0_0_d547cac98f" y="303.84"/>
    </g>
    <g clip-path="url(#p71489b5cd9)">
     <use style="fill:none;stroke:#000000;" x="90" xlink:href="#C0_0_d547cac98f" y="249.48"/>
    </g>
    <g clip-path="url(#p71489b5cd9)">
     <use style="fill:none;stroke:#000000;" x="145.8" xlink:href="#C0_0_d547cac98f" y="249.48"/>
    </g>
    <g clip-path="url(#p71489b5cd9)">
     <use style="fill:none;stroke:#000000;" x="201.6" xlink:href="#C0_0_d547cac98f" y="249.48"/>
    </g>
    <g clip-path="url(#p71489b5cd9)">
     <use style="fill:none;stroke:#000000;" x="536.4" xlink:href="#C0_0_d547cac98f" y="249.48"/>
    </g>
    <g clip-path="url(#p71489b5cd9)">
     <use style="fill:none;stroke:#000000;" x="592.2" xlink:href="#C0_0_d547cac98f" y="249.48"/>
    </g>
    <g clip-path="url(#p71489b5cd9)">
     <use style="fill:none;stroke:#000000;" x="648" xlink:href="#C0_0_d547cac98f" y="249.48"/>
    </g>
    <g clip-path="url(#p71489b5cd9)">
     <use style="fill:none;stroke:#000000;" x="90" xlink:href="#C0_0_d547cac98f" y="195.12"/>
    </g>
    <g clip-path="url(#p71489b5cd9)">
     <use style="fill:none;stroke:#000000;" x="145.8" xlink:href="#C0_0_d547cac98f" y="195.12"/>
    </g>
    <g clip-path="url(#p71489b5cd9)">
     <use style="fill:none;stroke:#000000;" x="201.6" xlink:href="#C0_0_d547cac98f" y="195.12"/>
    </g>
    <g clip-path="url(#p71489b5cd9)">
     <use style="fill:none;stroke:#000000;" x="257.4" xlink:href="#C0_0_d547cac98f" y="195.12"/>
    </g>
    <g clip-path="url(#p71489b5cd9)">
     <use style="fill:none;stroke:#000000;" x="313.2" xlink:href="#C0_0_d547cac98f" y="195.12"/>
    </g>
    <g clip-path="url(#p71489b5cd9)">
     <use style="fill:none;stroke:#000000;" x="424.8" xlink:href="#C0_0_d547cac98f" y="195.12"/>
    </g>
    <g clip-path="url(#p71489b5cd9)">
     <use style="fill:none;stroke:#000000;" x="480.6" xlink:href="#C0_0_d547cac98f" y="195.12"/>
    </g>
    <g clip-path="url(#p71489b5cd9)">
     <use style="fill:none;stroke:#000000;" x="536.4" xlink:href="#C0_0_d547cac98f" y="195.12"/>
    </g>
    <g clip-path="url(#p71489b5cd9)">
     <use style="fill:none;stroke:#000000;" x="592.2" xlink:href="#C0_0_d547cac98f" y="195.12"/>
    </g>
    <g clip-path="url(#p71489b5cd9)">
     <use style="fill:none;stroke:#000000;" x="648" xlink:href="#C0_0_d547cac98f" y="195.12"/>
    </g>
    <g clip-path="url(#p71489b5cd9)">
     <use style="fill:none;stroke:#000000;" x="90" xlink:href="#C0_0_d547cac98f" y="140.76"/>
    </g>
    <g clip-path="url(#p71489b5cd9)">
     <use style="fill:none;stroke:#000000;" x="145.8" xlink:href="#C0_0_d547cac98f" y="140.76"/>
    </g>
    <g clip-path="url(#p71489b5cd9)">
     <use style="fill:none;stroke:#000000;" x="201.6" xlink:href="#C0_0_d547cac98f" y="140.76"/>
    </g>
    <g clip-path="url(#p71489b5cd9)">
     <use style="fill:none;stroke:#000000;" x="257.4" xlink:href="#C0_0_d547cac98f" y="140.76"/>
    </g>
    <g clip-path="url(#p71489b5cd9)">
     <use style="fill:none;stroke:#000000;" x="313.2" xlink:href="#C0_0_d547cac98f" y="140.76"/>
    </g>
    <g clip-path="url(#p71489b5cd9)">
     <use style="fill:none;stroke:#000000;" x="369" xlink:href="#C0_0_d547cac98f" y="140.76"/>
    </g>
    <g clip-path="url(#p71489b5cd9)">
     <use style="fill:none;stroke:#000000;" x="424.8" xlink:href="#C0_0_d547cac98f" y="140.76"/>
    </g>
    <g clip-path="url(#p71489b5cd9)">
     <use style="fill:none;stroke:#000000;" x="480.6" xlink:href="#C0_0_d547cac98f" y="140.76"/>
    </g>
    <g clip-path="url(#p71489b5cd9)">
     <use style="fill:none;stroke:#000000;" x="536.4" xlink:href="#C0_0_d547cac98f" y="140.76"/>
    </g>
    <g clip-path="url(#p71489b5cd9)">
     <use style="fill:none;stroke:#000000;" x="592.2" xlink:href="#C0_0_d547cac98f" y="140.76"/>
    </g>
    <g clip-path="url(#p71489b5cd9)">
     <use style="fill:none;stroke:#000000;" x="648" xlink:href="#C0_0_d547cac98f" y="140.76"/>
    </g>
    <g clip-path="url(#p71489b5cd9)">
     <use style="fill:none;stroke:#000000;" x="90" xlink:href="#C0_0_d547cac98f" y="86.4"/>
    </g>
    <g clip-path="url(#p71489b5cd9)">
     <use style="fill:none;stroke:#000000;" x="145.8" xlink:href="#C0_0_d547cac98f" y="86.4"/>
    </g>
    <g clip-path="url(#p71489b5cd9)">
     <use style="fill:none;stroke:#000000;" x="201.6" xlink:href="#C0_0_d547cac98f" y="86.4"/>
    </g>
    <g clip-path="url(#p71489b5cd9)">
     <use style="fill:none;stroke:#000000;" x="257.4" xlink:href="#C0_0_d547cac98f" y="86.4"/>
    </g>
    <g clip-path="url(#p71489b5cd9)">
     <use style="fill:none;stroke:#000000;" x="313.2" xlink:href="#C0_0_d547cac98f" y="86.4"/>
    </g>
    <g clip-path="url(#p71489b5cd9)">
     <use style="fill:none;stroke:#000000;" x="369" xlink:href="#C0_0_d547cac98f" y="86.4"/>
    </g>
    <g clip-path="url(#p71489b5cd9)">
     <use style="fill:none;stroke:#000000;" x="424.8" xlink:href="#C0_0_d547cac98f" y="86.4"/>
    </g>
    <g clip-path="url(#p71489b5cd9)">
     <use style="fill:none;stroke:#000000;" x="480.6" xlink:href="#C0_0_d547cac98f" y="86.4"/>
    </g>
    <g clip-path="url(#p71489b5cd9)">
     <use style="fill:none;stroke:#000000;" x="536.4" xlink:href="#C0_0_d547cac98f" y="86.4"/>
    </g>
    <g clip-path="url(#p71489b5cd9)">
     <use style="fill:none;stroke:#000000;" x="592.2" xlink:href="#C0_0_d547cac98f" y="86.4"/>
    </g>
    <g clip-path="url(#p71489b5cd9)">
     <use style="fill:none;stroke:#000000;" x="648" xlink:href="#C0_0_d547cac98f" y="86.4"/>
    </g>
   </g>
   <g id="patch_2">
    <path clip-path="url(#p71489b5cd9)" d="M 369 523.998 
C 414.134916 523.998 457.427298 506.528477 489.342503 475.43689 
C 521.257708 444.345303 539.19 402.170144 539.19 358.2 
C 539.19 314.229856 521.257708 272.054697 489.342503 240.96311 
C 457.427298 209.871523 414.134916 192.402 369 192.402 
C 323.865084 192.402 280.572702 209.871523 248.657497 240.96311 
C 216.742292 272.054697 198.81 314.229856 198.81 358.2 
C 198.81 402.170144 216.742292 444.345303 248.657497 475.43689 
C 280.572702 506.528477 323.865084 523.998 369 523.998 
z
" style="fill:none;stroke:#000000;stroke-linejoin:miter;"/>
   </g>
   <g id="patch_3">
    <path d="M 644.885338 358.2 
Q 369.00067 358.2 91.997967 358.2 
" style="fill:none;stroke:#000000;stroke-linecap:round;"/>
    <path d="M 638.485338 355 
L 644.885338 358.2 
L 638.485338 361.4 
" style="fill:none;stroke:#000000;stroke-linecap:round;"/>
   </g>
   <g id="patch_4">
    <path d="M 369 89.521199 
Q 369 358.199559 369 627.995953 
" style="fill:none;stroke:#000000;stroke-linecap:round;"/>
    <path d="M 365.8 95.921199 
L 369 89.521199 
L 372.2 95.921199 
" style="fill:none;stroke:#000000;stroke-linecap:round;"/>
   </g>
   <g id="text_1">
    <!-- $\frac{2 \pi}{L}$ -->
    <g transform="translate(416.8 395.448)scale(0.16 -0.16)">
     <defs>
      <path d="M 19.1875 8.296875 
L 53.609375 8.296875 
L 53.609375 0 
L 7.328125 0 
L 7.328125 8.296875 
Q 12.9375 14.109375 22.625 23.890625 
Q 32.328125 33.6875 34.8125 36.53125 
Q 39.546875 41.84375 41.421875 45.53125 
Q 43.3125 49.21875 43.3125 52.78125 
Q 43.3125 58.59375 39.234375 62.25 
Q 35.15625 65.921875 28.609375 65.921875 
Q 23.96875 65.921875 18.8125 64.3125 
Q 13.671875 62.703125 7.8125 59.421875 
L 7.8125 69.390625 
Q 13.765625 71.78125 18.9375 73 
Q 24.125 74.21875 28.421875 74.21875 
Q 39.75 74.21875 46.484375 68.546875 
Q 53.21875 62.890625 53.21875 53.421875 
Q 53.21875 48.921875 51.53125 44.890625 
Q 49.859375 40.875 45.40625 35.40625 
Q 44.1875 33.984375 37.640625 27.21875 
Q 31.109375 20.453125 19.1875 8.296875 
z
" id="DejaVuSans-50"/>
      <path d="M 9.125 54.6875 
L 61.53125 54.6875 
L 59.765625 45.703125 
L 52.875 45.703125 
L 46.34375 12.109375 
Q 45.65625 8.59375 46.578125 7.03125 
Q 47.46875 5.515625 50.140625 5.515625 
Q 50.875 5.515625 51.953125 5.671875 
Q 53.078125 5.765625 53.421875 5.8125 
L 52.15625 -0.6875 
Q 50.34375 -1.3125 48.484375 -1.609375 
Q 46.578125 -1.90625 44.78125 -1.90625 
Q 38.921875 -1.90625 37.3125 1.265625 
Q 35.6875 4.5 37.359375 13.09375 
L 43.703125 45.703125 
L 23.53125 45.703125 
L 14.65625 0 
L 5.46875 0 
L 14.359375 45.703125 
L 7.375 45.703125 
z
" id="DejaVuSans-Oblique-960"/>
      <path d="M 16.796875 72.90625 
L 26.703125 72.90625 
L 14.203125 8.203125 
L 49.703125 8.203125 
L 48.09375 0 
L 2.6875 0 
z
" id="DejaVuSans-Oblique-76"/>
     </defs>
     <use transform="translate(0 46.046875)scale(0.7)" xlink:href="#DejaVuSans-50"/>
     <use transform="translate(44.536133 46.046875)scale(0.7)" xlink:href="#DejaVuSans-Oblique-960"/>
     <use transform="translate(24 -37.571875)scale(0.7)" xlink:href="#DejaVuSans-Oblique-76"/>
     <path d="M 0 19.7125 
L 0 25.9625 
L 86.679688 25.9625 
L 86.679688 19.7125 
L 0 19.7125 
z
"/>
    </g>
   </g>
   <g id="text_2">
    <!-- $\frac{4 \pi}{L}$ -->
    <g transform="translate(472.6 395.448)scale(0.16 -0.16)">
     <defs>
      <path d="M 37.796875 64.3125 
L 12.890625 25.390625 
L 37.796875 25.390625 
z
M 35.203125 72.90625 
L 47.609375 72.90625 
L 47.609375 25.390625 
L 58.015625 25.390625 
L 58.015625 17.1875 
L 47.609375 17.1875 
L 47.609375 0 
L 37.796875 0 
L 37.796875 17.1875 
L 4.890625 17.1875 
L 4.890625 26.703125 
z
" id="DejaVuSans-52"/>
     </defs>
     <use transform="translate(0 45.965625)scale(0.7)" xlink:href="#DejaVuSans-52"/>
     <use transform="translate(44.536133 45.965625)scale(0.7)" xlink:href="#DejaVuSans-Oblique-960"/>
     <use transform="translate(24 -37.653125)scale(0.7)" xlink:href="#DejaVuSans-Oblique-76"/>
     <path d="M 0 19.63125 
L 0 25.88125 
L 86.679688 25.88125 
L 86.679688 19.63125 
L 0 19.63125 
z
"/>
    </g>
   </g>
   <g id="text_3">
    <!-- $k_x$ -->
    <g transform="translate(611.86 398.3605)scale(0.16 -0.16)">
     <defs>
      <path d="M 18.3125 75.984375 
L 27.296875 75.984375 
L 18.703125 31.6875 
L 49.515625 54.6875 
L 61.1875 54.6875 
L 26.8125 28.515625 
L 51.90625 0 
L 41.015625 0 
L 17.671875 26.703125 
L 12.5 0 
L 3.515625 0 
z
" id="DejaVuSans-Oblique-107"/>
      <path d="M 60.015625 54.6875 
L 34.90625 27.875 
L 50.296875 0 
L 39.984375 0 
L 28.421875 21.6875 
L 8.296875 0 
L -2.59375 0 
L 24.3125 28.8125 
L 10.015625 54.6875 
L 20.3125 54.6875 
L 30.8125 34.90625 
L 49.125 54.6875 
z
" id="DejaVuSans-Oblique-120"/>
     </defs>
     <use transform="translate(0 0.015625)" xlink:href="#DejaVuSans-Oblique-107"/>
     <use transform="translate(57.910156 -16.390625)scale(0.7)" xlink:href="#DejaVuSans-Oblique-120"/>
    </g>
   </g>
   <g id="text_4">
    <!-- $\frac{2 \pi}{L}$ -->
    <g transform="translate(341.84 308.56)scale(0.16 -0.16)">
     <use transform="translate(0 46.046875)scale(0.7)" xlink:href="#DejaVuSans-50"/>
     <use transform="translate(44.536133 46.046875)scale(0.7)" xlink:href="#DejaVuSans-Oblique-960"/>
     <use transform="translate(24 -37.571875)scale(0.7)" xlink:href="#DejaVuSans-Oblique-76"/>
     <path d="M 0 19.7125 
L 0 25.9625 
L 86.679688 25.9625 
L 86.679688 19.7125 
L 0 19.7125 
z
"/>
    </g>
   </g>
   <g id="text_5">
    <!-- $\frac{4 \pi}{L}$ -->
    <g transform="translate(341.84 254.12)scale(0.16 -0.16)">
     <use transform="translate(0 45.965625)scale(0.7)" xlink:href="#DejaVuSans-52"/>
     <use transform="translate(44.536133 45.965625)scale(0.7)" xlink:href="#DejaVuSans-Oblique-960"/>
     <use transform="translate(24 -37.653125)scale(0.7)" xlink:href="#DejaVuSans-Oblique-76"/>
     <path d="M 0 19.63125 
L 0 25.88125 
L 86.679688 25.88125 
L 86.679688 19.63125 
L 0 19.63125 
z
"/>
    </g>
   </g>
   <g id="text_6">
    <!-- $k_y$ -->
    <g transform="translate(341.36 117.18)scale(0.16 -0.16)">
     <defs>
      <path d="M 24.8125 -5.078125 
Q 18.5625 -15.578125 14.625 -18.1875 
Q 10.6875 -20.796875 4.59375 -20.796875 
L -2.484375 -20.796875 
L -0.984375 -13.28125 
L 4.203125 -13.28125 
Q 7.953125 -13.28125 10.59375 -11.234375 
Q 13.234375 -9.1875 16.5 -3.21875 
L 19.28125 2 
L 7.171875 54.6875 
L 16.703125 54.6875 
L 25.78125 12.796875 
L 50.875 54.6875 
L 60.296875 54.6875 
z
" id="DejaVuSans-Oblique-121"/>
     </defs>
     <use transform="translate(0 0.015625)" xlink:href="#DejaVuSans-Oblique-107"/>
     <use transform="translate(57.910156 -16.390625)scale(0.7)" xlink:href="#DejaVuSans-Oblique-121"/>
    </g>
   </g>
  </g>
 </g>
 <defs>
  <clipPath id="p71489b5cd9">
   <rect height="543.6" width="558" x="90" y="86.4"/>
  </clipPath>
 </defs>
</svg>
